G04 EAGLE Gerber RS-274X export*
G75*
%MOMM*%
%FSLAX34Y34*%
%LPD*%
%INTop Copper*%
%IPPOS*%
%AMOC8*
5,1,8,0,0,1.08239X$1,22.5*%
G01*
%ADD10R,0.550000X1.600000*%
%ADD11R,1.600000X0.550000*%
%ADD12R,0.304800X0.965200*%
%ADD13R,0.965200X0.304800*%
%ADD14R,2.438400X2.438400*%
%ADD15R,1.600000X1.300000*%
%ADD16R,1.300000X1.600000*%
%ADD17C,1.320800*%
%ADD18C,1.422400*%
%ADD19R,1.930400X5.334000*%
%ADD20R,1.300000X1.500000*%
%ADD21P,1.415766X8X292.500000*%
%ADD22C,0.203200*%
%ADD23C,0.685800*%
%ADD24C,0.203200*%

G36*
X276696Y957D02*
X276696Y957D01*
X276746Y956D01*
X281249Y1392D01*
X281272Y1398D01*
X281395Y1420D01*
X290079Y4041D01*
X290093Y4048D01*
X290109Y4051D01*
X290260Y4123D01*
X296024Y7702D01*
X296043Y7718D01*
X296079Y7739D01*
X297217Y8591D01*
X297240Y8615D01*
X297299Y8662D01*
X301099Y12462D01*
X301119Y12489D01*
X301171Y12544D01*
X304391Y16847D01*
X304406Y16876D01*
X304450Y16938D01*
X307026Y21655D01*
X307036Y21686D01*
X307071Y21754D01*
X308949Y26790D01*
X308955Y26822D01*
X308980Y26894D01*
X310122Y32145D01*
X310124Y32178D01*
X310137Y32253D01*
X310521Y37614D01*
X310519Y37634D01*
X310523Y37668D01*
X310523Y168896D01*
X310520Y168912D01*
X310522Y168938D01*
X310075Y176899D01*
X310068Y176928D01*
X310065Y176984D01*
X308729Y184845D01*
X308720Y184873D01*
X308710Y184929D01*
X306503Y192591D01*
X306490Y192617D01*
X306475Y192671D01*
X303423Y200038D01*
X303408Y200063D01*
X303386Y200115D01*
X299529Y207094D01*
X299511Y207116D01*
X299484Y207166D01*
X294870Y213669D01*
X294849Y213690D01*
X294816Y213736D01*
X290514Y218551D01*
X290441Y218609D01*
X290374Y218673D01*
X290346Y218686D01*
X290322Y218705D01*
X290235Y218737D01*
X290151Y218776D01*
X290120Y218780D01*
X290092Y218790D01*
X289999Y218793D01*
X289907Y218804D01*
X289876Y218797D01*
X289846Y218798D01*
X289757Y218771D01*
X289666Y218751D01*
X289640Y218735D01*
X289610Y218727D01*
X289535Y218673D01*
X289455Y218625D01*
X289435Y218602D01*
X289410Y218584D01*
X289356Y218509D01*
X289295Y218438D01*
X289284Y218410D01*
X289266Y218385D01*
X289238Y218296D01*
X289203Y218210D01*
X289199Y218171D01*
X289192Y218150D01*
X289193Y218117D01*
X289185Y218043D01*
X289185Y174648D01*
X287994Y173457D01*
X281310Y173457D01*
X281290Y173454D01*
X281271Y173456D01*
X281169Y173434D01*
X281067Y173418D01*
X281050Y173408D01*
X281030Y173404D01*
X280941Y173351D01*
X280850Y173302D01*
X280836Y173288D01*
X280819Y173278D01*
X280752Y173199D01*
X280680Y173124D01*
X280672Y173106D01*
X280659Y173091D01*
X280620Y172995D01*
X280577Y172901D01*
X280575Y172881D01*
X280567Y172863D01*
X280549Y172696D01*
X280549Y161237D01*
X278540Y159228D01*
X273272Y153960D01*
X271263Y151951D01*
X241181Y151951D01*
X241136Y151944D01*
X241090Y151946D01*
X241015Y151924D01*
X240938Y151912D01*
X240898Y151890D01*
X240853Y151877D01*
X240789Y151833D01*
X240721Y151796D01*
X240689Y151763D01*
X240651Y151737D01*
X240605Y151674D01*
X240551Y151618D01*
X240532Y151576D01*
X240505Y151540D01*
X240481Y151466D01*
X240448Y151395D01*
X240443Y151349D01*
X240428Y151306D01*
X240429Y151228D01*
X240421Y151151D01*
X240430Y151106D01*
X240431Y151060D01*
X240469Y150929D01*
X240473Y150910D01*
X240475Y150906D01*
X240478Y150899D01*
X240740Y150264D01*
X240897Y149475D01*
X235191Y149475D01*
X235171Y149472D01*
X235151Y149474D01*
X235050Y149452D01*
X235016Y149446D01*
X235014Y149447D01*
X234995Y149449D01*
X234976Y149456D01*
X234809Y149475D01*
X229103Y149475D01*
X229260Y150264D01*
X229522Y150899D01*
X229533Y150943D01*
X229552Y150985D01*
X229561Y151062D01*
X229579Y151138D01*
X229574Y151184D01*
X229579Y151229D01*
X229563Y151306D01*
X229556Y151383D01*
X229537Y151425D01*
X229527Y151470D01*
X229487Y151537D01*
X229456Y151608D01*
X229425Y151642D01*
X229401Y151681D01*
X229342Y151732D01*
X229289Y151789D01*
X229249Y151811D01*
X229214Y151841D01*
X229142Y151870D01*
X229074Y151907D01*
X229029Y151916D01*
X228986Y151933D01*
X228850Y151948D01*
X228832Y151951D01*
X228827Y151950D01*
X228819Y151951D01*
X227602Y151951D01*
X227582Y151948D01*
X227563Y151950D01*
X227461Y151928D01*
X227359Y151912D01*
X227342Y151902D01*
X227322Y151898D01*
X227233Y151845D01*
X227142Y151796D01*
X227128Y151782D01*
X227111Y151772D01*
X227044Y151693D01*
X226972Y151618D01*
X226964Y151600D01*
X226951Y151585D01*
X226912Y151489D01*
X226869Y151395D01*
X226867Y151375D01*
X226859Y151357D01*
X226841Y151190D01*
X226841Y144423D01*
X218562Y144423D01*
X218542Y144420D01*
X218523Y144422D01*
X218421Y144400D01*
X218319Y144383D01*
X218302Y144374D01*
X218282Y144370D01*
X218193Y144317D01*
X218102Y144268D01*
X218088Y144254D01*
X218071Y144244D01*
X218004Y144165D01*
X217933Y144090D01*
X217924Y144072D01*
X217911Y144057D01*
X217872Y143961D01*
X217829Y143867D01*
X217827Y143847D01*
X217819Y143829D01*
X217801Y143662D01*
X217801Y142899D01*
X217799Y142899D01*
X217799Y143662D01*
X217796Y143682D01*
X217798Y143701D01*
X217776Y143803D01*
X217759Y143905D01*
X217750Y143922D01*
X217746Y143942D01*
X217693Y144031D01*
X217644Y144122D01*
X217630Y144136D01*
X217620Y144153D01*
X217541Y144220D01*
X217466Y144291D01*
X217448Y144300D01*
X217433Y144313D01*
X217337Y144352D01*
X217243Y144395D01*
X217223Y144397D01*
X217205Y144405D01*
X217038Y144423D01*
X208759Y144423D01*
X208759Y151190D01*
X208756Y151210D01*
X208758Y151229D01*
X208736Y151331D01*
X208720Y151433D01*
X208710Y151450D01*
X208706Y151470D01*
X208653Y151559D01*
X208604Y151650D01*
X208590Y151664D01*
X208580Y151681D01*
X208501Y151748D01*
X208426Y151820D01*
X208408Y151828D01*
X208393Y151841D01*
X208297Y151880D01*
X208203Y151923D01*
X208183Y151925D01*
X208165Y151933D01*
X207998Y151951D01*
X207094Y151951D01*
X207074Y151948D01*
X207055Y151950D01*
X206953Y151928D01*
X206851Y151912D01*
X206834Y151902D01*
X206814Y151898D01*
X206725Y151845D01*
X206634Y151796D01*
X206620Y151782D01*
X206603Y151772D01*
X206536Y151693D01*
X206464Y151618D01*
X206456Y151600D01*
X206443Y151585D01*
X206404Y151489D01*
X206361Y151395D01*
X206359Y151375D01*
X206351Y151357D01*
X206333Y151190D01*
X206333Y135662D01*
X206334Y135655D01*
X206334Y135651D01*
X206336Y135642D01*
X206334Y135623D01*
X206356Y135521D01*
X206372Y135419D01*
X206382Y135402D01*
X206386Y135382D01*
X206439Y135293D01*
X206488Y135202D01*
X206502Y135188D01*
X206512Y135171D01*
X206591Y135104D01*
X206666Y135032D01*
X206684Y135024D01*
X206699Y135011D01*
X206795Y134972D01*
X206889Y134929D01*
X206909Y134927D01*
X206927Y134919D01*
X207094Y134901D01*
X207503Y134901D01*
X207568Y134911D01*
X207633Y134912D01*
X207713Y134935D01*
X207746Y134940D01*
X207763Y134950D01*
X207794Y134959D01*
X207865Y134988D01*
X207998Y134988D01*
X208018Y134991D01*
X208037Y134989D01*
X208139Y135011D01*
X208241Y135027D01*
X208258Y135037D01*
X208278Y135041D01*
X208367Y135094D01*
X208458Y135143D01*
X208472Y135157D01*
X208489Y135167D01*
X208556Y135246D01*
X208628Y135321D01*
X208636Y135339D01*
X208649Y135354D01*
X208688Y135450D01*
X208731Y135544D01*
X208733Y135564D01*
X208741Y135582D01*
X208759Y135749D01*
X208759Y141377D01*
X216277Y141377D01*
X216277Y132359D01*
X214828Y132359D01*
X214783Y132352D01*
X214737Y132354D01*
X214662Y132332D01*
X214586Y132320D01*
X214545Y132298D01*
X214501Y132285D01*
X214437Y132241D01*
X214368Y132204D01*
X214337Y132171D01*
X214299Y132145D01*
X214253Y132082D01*
X214199Y132026D01*
X214180Y131984D01*
X214152Y131948D01*
X214128Y131874D01*
X214095Y131803D01*
X214090Y131757D01*
X214076Y131714D01*
X214077Y131636D01*
X214068Y131559D01*
X214078Y131514D01*
X214078Y131468D01*
X214117Y131336D01*
X214120Y131318D01*
X214123Y131314D01*
X214125Y131307D01*
X214413Y130612D01*
X214413Y128440D01*
X213879Y127150D01*
X213868Y127106D01*
X213849Y127064D01*
X213840Y126987D01*
X213823Y126911D01*
X213827Y126865D01*
X213822Y126820D01*
X213838Y126743D01*
X213846Y126666D01*
X213864Y126624D01*
X213874Y126579D01*
X213914Y126512D01*
X213946Y126441D01*
X213977Y126407D01*
X214000Y126368D01*
X214059Y126317D01*
X214112Y126260D01*
X214152Y126238D01*
X214187Y126208D01*
X214259Y126179D01*
X214328Y126142D01*
X214373Y126133D01*
X214415Y126116D01*
X214551Y126101D01*
X214570Y126098D01*
X214575Y126099D01*
X214582Y126098D01*
X215416Y126098D01*
X215563Y125951D01*
X215579Y125939D01*
X215591Y125924D01*
X215679Y125868D01*
X215763Y125807D01*
X215782Y125802D01*
X215798Y125791D01*
X215899Y125765D01*
X215998Y125735D01*
X216018Y125736D01*
X216037Y125731D01*
X216140Y125739D01*
X216243Y125741D01*
X216262Y125748D01*
X216282Y125750D01*
X216377Y125790D01*
X216474Y125826D01*
X216490Y125838D01*
X216508Y125846D01*
X216639Y125951D01*
X218510Y127822D01*
X221748Y131060D01*
X221790Y131118D01*
X221839Y131170D01*
X221861Y131217D01*
X221892Y131259D01*
X221913Y131328D01*
X221943Y131393D01*
X221949Y131445D01*
X221964Y131495D01*
X221962Y131566D01*
X221970Y131637D01*
X221959Y131688D01*
X221958Y131740D01*
X221933Y131808D01*
X221918Y131878D01*
X221891Y131923D01*
X221873Y131971D01*
X221828Y132027D01*
X221792Y132089D01*
X221752Y132123D01*
X221720Y132163D01*
X221659Y132202D01*
X221605Y132249D01*
X221556Y132268D01*
X221513Y132296D01*
X221443Y132314D01*
X221377Y132341D01*
X221305Y132349D01*
X221274Y132357D01*
X221251Y132355D01*
X221210Y132359D01*
X219323Y132359D01*
X219323Y141377D01*
X226841Y141377D01*
X226841Y134566D01*
X226691Y134007D01*
X226679Y133888D01*
X226666Y133771D01*
X226667Y133766D01*
X226667Y133762D01*
X226693Y133647D01*
X226718Y133530D01*
X226721Y133527D01*
X226722Y133523D01*
X226783Y133422D01*
X226845Y133319D01*
X226848Y133316D01*
X226850Y133313D01*
X226941Y133236D01*
X227032Y133159D01*
X227035Y133158D01*
X227039Y133155D01*
X227149Y133112D01*
X227260Y133067D01*
X227265Y133067D01*
X227268Y133065D01*
X227281Y133065D01*
X227426Y133049D01*
X235009Y133049D01*
X235099Y133063D01*
X235190Y133071D01*
X235220Y133083D01*
X235252Y133088D01*
X235333Y133131D01*
X235417Y133167D01*
X235449Y133193D01*
X235469Y133204D01*
X235492Y133227D01*
X235548Y133272D01*
X236906Y134630D01*
X238914Y135462D01*
X241086Y135462D01*
X243094Y134630D01*
X244630Y133094D01*
X245462Y131086D01*
X245462Y128914D01*
X244630Y126906D01*
X243094Y125370D01*
X241086Y124538D01*
X238914Y124538D01*
X236906Y125370D01*
X235548Y126728D01*
X235474Y126781D01*
X235404Y126841D01*
X235374Y126853D01*
X235348Y126872D01*
X235261Y126899D01*
X235176Y126933D01*
X235135Y126937D01*
X235113Y126944D01*
X235081Y126943D01*
X235009Y126951D01*
X230119Y126951D01*
X230048Y126940D01*
X229976Y126938D01*
X229927Y126920D01*
X229876Y126912D01*
X229813Y126878D01*
X229745Y126853D01*
X229704Y126821D01*
X229659Y126796D01*
X229609Y126744D01*
X229553Y126700D01*
X229525Y126656D01*
X229489Y126618D01*
X229459Y126553D01*
X229420Y126493D01*
X229407Y126442D01*
X229386Y126395D01*
X229378Y126324D01*
X229360Y126254D01*
X229364Y126202D01*
X229358Y126151D01*
X229374Y126080D01*
X229379Y126009D01*
X229400Y125961D01*
X229411Y125910D01*
X229448Y125849D01*
X229476Y125783D01*
X229520Y125727D01*
X229537Y125699D01*
X229555Y125684D01*
X229580Y125652D01*
X229607Y125625D01*
X229942Y125046D01*
X230115Y124399D01*
X230115Y120000D01*
X226050Y120000D01*
X226031Y119997D01*
X226011Y119999D01*
X225910Y119977D01*
X225808Y119961D01*
X225790Y119951D01*
X225771Y119947D01*
X225681Y119894D01*
X225590Y119846D01*
X225577Y119831D01*
X225559Y119821D01*
X225492Y119742D01*
X225421Y119667D01*
X225412Y119649D01*
X225399Y119634D01*
X225361Y119538D01*
X225317Y119444D01*
X225315Y119424D01*
X225308Y119406D01*
X225289Y119239D01*
X225292Y119219D01*
X225290Y119200D01*
X225290Y119199D01*
X225312Y119098D01*
X225329Y118996D01*
X225338Y118979D01*
X225342Y118959D01*
X225396Y118870D01*
X225444Y118779D01*
X225458Y118765D01*
X225469Y118748D01*
X225547Y118681D01*
X225622Y118609D01*
X225640Y118601D01*
X225655Y118588D01*
X225752Y118549D01*
X225845Y118506D01*
X225865Y118504D01*
X225884Y118496D01*
X226050Y118478D01*
X230115Y118478D01*
X230115Y114079D01*
X229977Y113565D01*
X229965Y113446D01*
X229952Y113329D01*
X229953Y113324D01*
X229953Y113320D01*
X229979Y113204D01*
X230004Y113088D01*
X230007Y113085D01*
X230008Y113081D01*
X230070Y112979D01*
X230131Y112877D01*
X230134Y112874D01*
X230136Y112871D01*
X230227Y112794D01*
X230318Y112717D01*
X230321Y112716D01*
X230325Y112713D01*
X230435Y112670D01*
X230546Y112625D01*
X230551Y112625D01*
X230554Y112623D01*
X230567Y112623D01*
X230712Y112607D01*
X241907Y112607D01*
X243098Y111416D01*
X243098Y106470D01*
X243096Y106465D01*
X243098Y106404D01*
X243098Y106390D01*
X243090Y106321D01*
X243101Y106270D01*
X243102Y106219D01*
X243127Y106151D01*
X243142Y106080D01*
X243169Y106036D01*
X243186Y105988D01*
X243231Y105931D01*
X243268Y105869D01*
X243308Y105836D01*
X243340Y105795D01*
X243400Y105756D01*
X243455Y105709D01*
X243503Y105690D01*
X243546Y105662D01*
X243616Y105644D01*
X243684Y105617D01*
X243696Y105616D01*
X260649Y88663D01*
X260649Y88294D01*
X260652Y88274D01*
X260650Y88255D01*
X260672Y88153D01*
X260688Y88051D01*
X260698Y88034D01*
X260702Y88014D01*
X260755Y87925D01*
X260804Y87834D01*
X260818Y87820D01*
X260828Y87803D01*
X260907Y87736D01*
X260982Y87664D01*
X261000Y87656D01*
X261015Y87643D01*
X261111Y87604D01*
X261205Y87561D01*
X261225Y87559D01*
X261243Y87551D01*
X261410Y87533D01*
X265054Y87533D01*
X265074Y87536D01*
X265093Y87534D01*
X265195Y87556D01*
X265297Y87572D01*
X265314Y87582D01*
X265334Y87586D01*
X265423Y87639D01*
X265514Y87688D01*
X265528Y87702D01*
X265545Y87712D01*
X265612Y87791D01*
X265684Y87866D01*
X265692Y87884D01*
X265705Y87899D01*
X265744Y87995D01*
X265787Y88089D01*
X265789Y88109D01*
X265797Y88127D01*
X265815Y88294D01*
X265815Y101830D01*
X265812Y101850D01*
X265814Y101869D01*
X265792Y101971D01*
X265776Y102073D01*
X265766Y102090D01*
X265762Y102110D01*
X265709Y102199D01*
X265660Y102290D01*
X265646Y102304D01*
X265636Y102321D01*
X265557Y102388D01*
X265482Y102460D01*
X265464Y102468D01*
X265449Y102481D01*
X265353Y102520D01*
X265259Y102563D01*
X265239Y102565D01*
X265221Y102573D01*
X265054Y102591D01*
X263097Y102591D01*
X261373Y104315D01*
X261299Y104368D01*
X261230Y104428D01*
X261200Y104440D01*
X261173Y104459D01*
X261086Y104486D01*
X261002Y104520D01*
X260961Y104524D01*
X260938Y104531D01*
X260906Y104530D01*
X260835Y104538D01*
X258914Y104538D01*
X256906Y105370D01*
X255370Y106906D01*
X254538Y108914D01*
X254538Y111086D01*
X255370Y113094D01*
X256906Y114630D01*
X258914Y115462D01*
X261086Y115462D01*
X263094Y114630D01*
X264516Y113208D01*
X264574Y113166D01*
X264626Y113117D01*
X264673Y113095D01*
X264715Y113065D01*
X264784Y113044D01*
X264849Y113013D01*
X264901Y113008D01*
X264951Y112992D01*
X265022Y112994D01*
X265093Y112986D01*
X265144Y112997D01*
X265196Y112999D01*
X265264Y113023D01*
X265334Y113039D01*
X265379Y113065D01*
X265427Y113083D01*
X265483Y113128D01*
X265545Y113165D01*
X265579Y113204D01*
X265619Y113237D01*
X265658Y113297D01*
X265705Y113352D01*
X265724Y113400D01*
X265752Y113444D01*
X265770Y113513D01*
X265797Y113580D01*
X265805Y113651D01*
X265813Y113682D01*
X265811Y113706D01*
X265815Y113747D01*
X265815Y133152D01*
X267006Y134343D01*
X287994Y134343D01*
X289185Y133152D01*
X289185Y78128D01*
X287994Y76937D01*
X276692Y76937D01*
X276647Y76930D01*
X276601Y76932D01*
X276526Y76910D01*
X276449Y76898D01*
X276409Y76876D01*
X276365Y76863D01*
X276301Y76819D01*
X276232Y76782D01*
X276200Y76749D01*
X276163Y76723D01*
X276116Y76660D01*
X276062Y76604D01*
X276043Y76562D01*
X276016Y76526D01*
X275992Y76452D01*
X275959Y76381D01*
X275954Y76335D01*
X275940Y76292D01*
X275940Y76214D01*
X275932Y76137D01*
X275942Y76092D01*
X275942Y76046D01*
X275980Y75914D01*
X275984Y75896D01*
X275987Y75892D01*
X275989Y75885D01*
X276523Y74595D01*
X276523Y72423D01*
X275691Y70415D01*
X274155Y68879D01*
X272147Y68047D01*
X270085Y68047D01*
X269995Y68033D01*
X269904Y68025D01*
X269874Y68013D01*
X269842Y68008D01*
X269761Y67965D01*
X269677Y67929D01*
X269645Y67903D01*
X269625Y67892D01*
X269602Y67869D01*
X269546Y67824D01*
X268012Y66290D01*
X267934Y66248D01*
X267920Y66234D01*
X267903Y66224D01*
X267836Y66145D01*
X267764Y66070D01*
X267756Y66052D01*
X267743Y66037D01*
X267704Y65941D01*
X267661Y65847D01*
X267659Y65827D01*
X267651Y65809D01*
X267633Y65642D01*
X267633Y61994D01*
X267647Y61904D01*
X267655Y61813D01*
X267667Y61783D01*
X267672Y61751D01*
X267715Y61671D01*
X267751Y61587D01*
X267777Y61555D01*
X267788Y61534D01*
X267811Y61512D01*
X267856Y61456D01*
X278949Y50363D01*
X278949Y44998D01*
X278968Y44883D01*
X278985Y44767D01*
X278987Y44762D01*
X278988Y44755D01*
X279043Y44653D01*
X279096Y44548D01*
X279101Y44544D01*
X279104Y44538D01*
X279188Y44458D01*
X279272Y44376D01*
X279278Y44372D01*
X279282Y44369D01*
X279299Y44361D01*
X279419Y44295D01*
X280792Y43726D01*
X283222Y41296D01*
X284537Y38122D01*
X284537Y21478D01*
X283222Y18304D01*
X280792Y15874D01*
X277618Y14559D01*
X274182Y14559D01*
X271008Y15874D01*
X268578Y18304D01*
X267263Y21478D01*
X267263Y38122D01*
X268578Y41296D01*
X271008Y43726D01*
X272381Y44295D01*
X272481Y44357D01*
X272581Y44416D01*
X272585Y44421D01*
X272590Y44424D01*
X272665Y44515D01*
X272741Y44603D01*
X272743Y44609D01*
X272747Y44614D01*
X272789Y44722D01*
X272833Y44831D01*
X272834Y44839D01*
X272835Y44844D01*
X272836Y44862D01*
X272851Y44998D01*
X272851Y47522D01*
X272837Y47612D01*
X272829Y47703D01*
X272817Y47733D01*
X272812Y47765D01*
X272769Y47845D01*
X272733Y47929D01*
X272707Y47961D01*
X272696Y47982D01*
X272673Y48004D01*
X272628Y48060D01*
X268870Y51819D01*
X268854Y51830D01*
X268841Y51846D01*
X268754Y51902D01*
X268670Y51962D01*
X268651Y51968D01*
X268634Y51979D01*
X268534Y52004D01*
X268435Y52034D01*
X268415Y52034D01*
X268396Y52039D01*
X268293Y52031D01*
X268189Y52028D01*
X268170Y52021D01*
X268151Y52020D01*
X268056Y51979D01*
X267958Y51944D01*
X267943Y51931D01*
X267924Y51923D01*
X267793Y51819D01*
X266442Y50467D01*
X248758Y50467D01*
X247567Y51658D01*
X247567Y66342D01*
X248758Y67533D01*
X251190Y67533D01*
X251210Y67536D01*
X251229Y67534D01*
X251331Y67556D01*
X251433Y67572D01*
X251450Y67582D01*
X251470Y67586D01*
X251559Y67639D01*
X251650Y67688D01*
X251664Y67702D01*
X251681Y67712D01*
X251748Y67791D01*
X251820Y67866D01*
X251828Y67884D01*
X251841Y67899D01*
X251880Y67995D01*
X251923Y68089D01*
X251925Y68109D01*
X251933Y68127D01*
X251951Y68294D01*
X251951Y69706D01*
X251948Y69726D01*
X251950Y69745D01*
X251928Y69847D01*
X251912Y69949D01*
X251902Y69966D01*
X251898Y69986D01*
X251845Y70075D01*
X251796Y70166D01*
X251782Y70180D01*
X251772Y70197D01*
X251693Y70264D01*
X251618Y70336D01*
X251600Y70344D01*
X251585Y70357D01*
X251489Y70396D01*
X251395Y70439D01*
X251375Y70441D01*
X251357Y70449D01*
X251190Y70467D01*
X248758Y70467D01*
X247567Y71658D01*
X247567Y75417D01*
X247556Y75487D01*
X247554Y75559D01*
X247536Y75608D01*
X247528Y75660D01*
X247494Y75723D01*
X247469Y75790D01*
X247437Y75831D01*
X247412Y75877D01*
X247361Y75926D01*
X247316Y75982D01*
X247272Y76010D01*
X247234Y76046D01*
X247169Y76077D01*
X247109Y76115D01*
X247058Y76128D01*
X247011Y76150D01*
X246940Y76158D01*
X246870Y76175D01*
X246818Y76171D01*
X246767Y76177D01*
X246696Y76162D01*
X246625Y76156D01*
X246577Y76136D01*
X246526Y76125D01*
X246465Y76088D01*
X246399Y76060D01*
X246343Y76015D01*
X246315Y75999D01*
X246300Y75981D01*
X246268Y75955D01*
X246040Y75727D01*
X243685Y73373D01*
X243632Y73299D01*
X243573Y73229D01*
X243561Y73199D01*
X243542Y73173D01*
X243515Y73086D01*
X243481Y73001D01*
X243476Y72960D01*
X243469Y72938D01*
X243470Y72906D01*
X243462Y72834D01*
X243462Y70913D01*
X242631Y68906D01*
X241988Y68263D01*
X241977Y68247D01*
X241961Y68234D01*
X241905Y68147D01*
X241845Y68063D01*
X241839Y68044D01*
X241828Y68027D01*
X241803Y67927D01*
X241772Y67828D01*
X241773Y67808D01*
X241768Y67789D01*
X241776Y67686D01*
X241779Y67582D01*
X241786Y67564D01*
X241787Y67544D01*
X241828Y67449D01*
X241863Y67351D01*
X241876Y67336D01*
X241883Y67317D01*
X241988Y67186D01*
X242033Y67142D01*
X242033Y49458D01*
X240842Y48267D01*
X227882Y48267D01*
X227811Y48256D01*
X227740Y48254D01*
X227691Y48236D01*
X227639Y48228D01*
X227576Y48194D01*
X227509Y48169D01*
X227468Y48137D01*
X227422Y48112D01*
X227373Y48060D01*
X227317Y48016D01*
X227288Y47972D01*
X227253Y47934D01*
X227222Y47869D01*
X227184Y47809D01*
X227171Y47758D01*
X227149Y47711D01*
X227141Y47640D01*
X227124Y47570D01*
X227128Y47518D01*
X227122Y47467D01*
X227137Y47396D01*
X227143Y47325D01*
X227163Y47277D01*
X227174Y47226D01*
X227211Y47165D01*
X227239Y47099D01*
X227284Y47043D01*
X227300Y47015D01*
X227318Y47000D01*
X227344Y46968D01*
X228272Y46040D01*
X240564Y33748D01*
X240622Y33706D01*
X240674Y33657D01*
X240721Y33635D01*
X240763Y33604D01*
X240832Y33583D01*
X240897Y33553D01*
X240949Y33547D01*
X240999Y33532D01*
X241070Y33534D01*
X241141Y33526D01*
X241192Y33537D01*
X241244Y33538D01*
X241312Y33563D01*
X241382Y33578D01*
X241427Y33605D01*
X241475Y33623D01*
X241531Y33668D01*
X241593Y33704D01*
X241627Y33744D01*
X241667Y33776D01*
X241706Y33837D01*
X241753Y33891D01*
X241772Y33940D01*
X241800Y33983D01*
X241818Y34053D01*
X241845Y34119D01*
X241853Y34191D01*
X241861Y34222D01*
X241859Y34245D01*
X241863Y34286D01*
X241863Y38122D01*
X243178Y41296D01*
X245608Y43726D01*
X248782Y45041D01*
X252218Y45041D01*
X255392Y43726D01*
X257822Y41296D01*
X259137Y38122D01*
X259137Y21478D01*
X257822Y18304D01*
X255392Y15874D01*
X252218Y14559D01*
X248782Y14559D01*
X245608Y15874D01*
X243178Y18304D01*
X241863Y21478D01*
X241863Y25990D01*
X241860Y26010D01*
X241862Y26029D01*
X241840Y26131D01*
X241824Y26233D01*
X241814Y26250D01*
X241810Y26270D01*
X241757Y26359D01*
X241708Y26450D01*
X241694Y26464D01*
X241684Y26481D01*
X241605Y26548D01*
X241530Y26620D01*
X241512Y26628D01*
X241497Y26641D01*
X241401Y26680D01*
X241307Y26723D01*
X241287Y26725D01*
X241269Y26733D01*
X241102Y26751D01*
X238937Y26751D01*
X231699Y33989D01*
X231662Y34016D01*
X231631Y34050D01*
X231563Y34087D01*
X231499Y34133D01*
X231456Y34146D01*
X231415Y34169D01*
X231339Y34182D01*
X231264Y34205D01*
X231218Y34204D01*
X231173Y34212D01*
X231096Y34201D01*
X231018Y34199D01*
X230975Y34183D01*
X230930Y34176D01*
X230860Y34141D01*
X230787Y34114D01*
X230752Y34086D01*
X230711Y34065D01*
X230656Y34009D01*
X230595Y33961D01*
X230571Y33922D01*
X230538Y33889D01*
X230472Y33770D01*
X230462Y33754D01*
X230461Y33749D01*
X230457Y33742D01*
X229630Y31745D01*
X228094Y30209D01*
X226086Y29377D01*
X224165Y29377D01*
X224075Y29363D01*
X223984Y29355D01*
X223954Y29343D01*
X223922Y29338D01*
X223842Y29295D01*
X223758Y29259D01*
X223726Y29233D01*
X223705Y29222D01*
X223683Y29199D01*
X223627Y29154D01*
X223368Y28895D01*
X223326Y28837D01*
X223277Y28786D01*
X223269Y28768D01*
X223255Y28752D01*
X223243Y28722D01*
X223224Y28695D01*
X223202Y28624D01*
X223174Y28563D01*
X223172Y28545D01*
X223163Y28524D01*
X223159Y28483D01*
X223152Y28460D01*
X223153Y28428D01*
X223145Y28357D01*
X223145Y16469D01*
X221753Y13108D01*
X219180Y10535D01*
X215819Y9143D01*
X212181Y9143D01*
X208820Y10535D01*
X206247Y13108D01*
X204855Y16469D01*
X204855Y34331D01*
X206247Y37692D01*
X208820Y40265D01*
X209356Y40487D01*
X209439Y40538D01*
X209525Y40584D01*
X209543Y40603D01*
X209565Y40616D01*
X209627Y40691D01*
X209695Y40762D01*
X209706Y40786D01*
X209722Y40806D01*
X209757Y40896D01*
X209798Y40985D01*
X209801Y41011D01*
X209810Y41035D01*
X209815Y41133D01*
X209825Y41229D01*
X209820Y41255D01*
X209821Y41281D01*
X209794Y41375D01*
X209773Y41470D01*
X209760Y41492D01*
X209752Y41517D01*
X209697Y41597D01*
X209647Y41681D01*
X209627Y41698D01*
X209612Y41719D01*
X209534Y41777D01*
X209460Y41841D01*
X209436Y41851D01*
X209415Y41866D01*
X209322Y41896D01*
X209232Y41933D01*
X209199Y41936D01*
X209181Y41942D01*
X209148Y41942D01*
X209065Y41951D01*
X202975Y41951D01*
X202930Y41944D01*
X202884Y41946D01*
X202809Y41924D01*
X202732Y41912D01*
X202692Y41890D01*
X202648Y41877D01*
X202584Y41833D01*
X202515Y41796D01*
X202483Y41763D01*
X202446Y41737D01*
X202399Y41674D01*
X202345Y41618D01*
X202326Y41576D01*
X202299Y41540D01*
X202275Y41466D01*
X202242Y41395D01*
X202237Y41349D01*
X202223Y41306D01*
X202223Y41228D01*
X202215Y41151D01*
X202225Y41106D01*
X202225Y41060D01*
X202263Y40928D01*
X202267Y40910D01*
X202270Y40906D01*
X202272Y40899D01*
X202825Y39564D01*
X202825Y37391D01*
X201993Y35383D01*
X200457Y33847D01*
X198425Y33005D01*
X198365Y32992D01*
X198263Y32976D01*
X198246Y32966D01*
X198226Y32962D01*
X198137Y32909D01*
X198046Y32861D01*
X198032Y32846D01*
X198015Y32836D01*
X197948Y32757D01*
X197876Y32682D01*
X197868Y32664D01*
X197855Y32649D01*
X197816Y32553D01*
X197773Y32459D01*
X197771Y32439D01*
X197763Y32421D01*
X197745Y32254D01*
X197745Y16469D01*
X196353Y13108D01*
X193780Y10535D01*
X190419Y9143D01*
X186781Y9143D01*
X183420Y10535D01*
X180847Y13108D01*
X179455Y16469D01*
X179455Y34331D01*
X180847Y37692D01*
X183420Y40265D01*
X183956Y40487D01*
X184039Y40538D01*
X184125Y40584D01*
X184143Y40603D01*
X184165Y40616D01*
X184227Y40691D01*
X184295Y40762D01*
X184306Y40786D01*
X184322Y40806D01*
X184357Y40896D01*
X184398Y40985D01*
X184401Y41011D01*
X184410Y41035D01*
X184415Y41133D01*
X184425Y41229D01*
X184420Y41255D01*
X184421Y41281D01*
X184394Y41375D01*
X184373Y41470D01*
X184360Y41492D01*
X184352Y41517D01*
X184297Y41597D01*
X184247Y41681D01*
X184227Y41698D01*
X184212Y41719D01*
X184134Y41777D01*
X184060Y41841D01*
X184036Y41851D01*
X184015Y41866D01*
X183922Y41896D01*
X183832Y41933D01*
X183799Y41936D01*
X183781Y41942D01*
X183748Y41942D01*
X183665Y41951D01*
X175520Y41951D01*
X175430Y41937D01*
X175339Y41929D01*
X175309Y41917D01*
X175277Y41912D01*
X175196Y41869D01*
X175112Y41833D01*
X175080Y41807D01*
X175060Y41796D01*
X175037Y41773D01*
X174981Y41728D01*
X173623Y40370D01*
X171615Y39538D01*
X171521Y39538D01*
X171509Y39536D01*
X171497Y39538D01*
X171387Y39516D01*
X171278Y39499D01*
X171267Y39493D01*
X171256Y39491D01*
X171158Y39435D01*
X171060Y39383D01*
X171052Y39375D01*
X171042Y39369D01*
X170968Y39286D01*
X170891Y39205D01*
X170886Y39194D01*
X170878Y39185D01*
X170834Y39083D01*
X170787Y38982D01*
X170786Y38970D01*
X170781Y38959D01*
X170773Y38848D01*
X170760Y38738D01*
X170763Y38726D01*
X170762Y38714D01*
X170789Y38606D01*
X170813Y38497D01*
X170819Y38487D01*
X170822Y38475D01*
X170905Y38330D01*
X171456Y37571D01*
X172146Y36217D01*
X172615Y34772D01*
X172853Y33272D01*
X172853Y26923D01*
X164723Y26923D01*
X164723Y42065D01*
X164727Y42065D01*
X164788Y42063D01*
X164806Y42068D01*
X164824Y42068D01*
X164898Y42093D01*
X164938Y42100D01*
X164965Y42114D01*
X165024Y42131D01*
X165039Y42142D01*
X165056Y42148D01*
X165119Y42196D01*
X165156Y42215D01*
X165177Y42238D01*
X165226Y42272D01*
X165237Y42286D01*
X165252Y42297D01*
X165295Y42361D01*
X165325Y42394D01*
X165339Y42423D01*
X165373Y42469D01*
X165379Y42486D01*
X165389Y42502D01*
X165408Y42573D01*
X165429Y42617D01*
X165433Y42652D01*
X165449Y42703D01*
X165449Y42721D01*
X165454Y42739D01*
X165450Y42808D01*
X165456Y42861D01*
X165447Y42900D01*
X165447Y42949D01*
X165441Y42970D01*
X165440Y42984D01*
X165428Y43014D01*
X165406Y43088D01*
X165404Y43101D01*
X165402Y43104D01*
X165400Y43110D01*
X165067Y43914D01*
X165067Y46086D01*
X165919Y48142D01*
X165945Y48256D01*
X165974Y48369D01*
X165973Y48375D01*
X165975Y48381D01*
X165964Y48498D01*
X165955Y48614D01*
X165952Y48620D01*
X165952Y48626D01*
X165904Y48733D01*
X165859Y48841D01*
X165854Y48847D01*
X165852Y48851D01*
X165839Y48865D01*
X165754Y48972D01*
X165067Y49658D01*
X165067Y54690D01*
X165064Y54710D01*
X165066Y54729D01*
X165044Y54831D01*
X165028Y54933D01*
X165018Y54950D01*
X165014Y54970D01*
X164961Y55059D01*
X164912Y55150D01*
X164898Y55164D01*
X164888Y55181D01*
X164809Y55248D01*
X164734Y55320D01*
X164716Y55328D01*
X164701Y55341D01*
X164605Y55380D01*
X164511Y55423D01*
X164491Y55425D01*
X164473Y55433D01*
X164306Y55451D01*
X159952Y55451D01*
X159862Y55437D01*
X159771Y55429D01*
X159741Y55417D01*
X159709Y55412D01*
X159628Y55369D01*
X159544Y55333D01*
X159512Y55307D01*
X159492Y55296D01*
X159469Y55273D01*
X159413Y55228D01*
X158094Y53909D01*
X156086Y53077D01*
X153914Y53077D01*
X151906Y53909D01*
X150370Y55445D01*
X149538Y57453D01*
X149538Y59625D01*
X150370Y61633D01*
X151100Y62363D01*
X151153Y62437D01*
X151213Y62507D01*
X151225Y62537D01*
X151244Y62563D01*
X151271Y62650D01*
X151305Y62735D01*
X151309Y62776D01*
X151316Y62798D01*
X151315Y62830D01*
X151323Y62902D01*
X151323Y69977D01*
X158841Y69977D01*
X158841Y63666D01*
X158692Y63110D01*
X158685Y63042D01*
X158669Y62977D01*
X158673Y62921D01*
X158667Y62865D01*
X158682Y62799D01*
X158688Y62732D01*
X158710Y62680D01*
X158722Y62625D01*
X158758Y62567D01*
X158784Y62505D01*
X158833Y62443D01*
X158851Y62415D01*
X158867Y62402D01*
X158889Y62374D01*
X159491Y61772D01*
X159565Y61719D01*
X159635Y61659D01*
X159665Y61647D01*
X159691Y61628D01*
X159778Y61601D01*
X159863Y61567D01*
X159904Y61563D01*
X159926Y61556D01*
X159958Y61557D01*
X160030Y61549D01*
X164306Y61549D01*
X164326Y61552D01*
X164345Y61550D01*
X164447Y61572D01*
X164549Y61588D01*
X164566Y61598D01*
X164586Y61602D01*
X164675Y61655D01*
X164766Y61704D01*
X164780Y61718D01*
X164797Y61728D01*
X164864Y61807D01*
X164936Y61882D01*
X164944Y61900D01*
X164957Y61915D01*
X164996Y62011D01*
X165039Y62105D01*
X165041Y62125D01*
X165049Y62143D01*
X165067Y62310D01*
X165067Y67342D01*
X166258Y68533D01*
X180942Y68533D01*
X182133Y67342D01*
X182133Y49658D01*
X181823Y49348D01*
X181781Y49290D01*
X181732Y49238D01*
X181710Y49191D01*
X181679Y49149D01*
X181658Y49080D01*
X181628Y49015D01*
X181622Y48963D01*
X181607Y48913D01*
X181609Y48842D01*
X181601Y48771D01*
X181612Y48720D01*
X181613Y48668D01*
X181638Y48600D01*
X181653Y48530D01*
X181680Y48485D01*
X181698Y48437D01*
X181743Y48381D01*
X181779Y48319D01*
X181819Y48285D01*
X181852Y48245D01*
X181912Y48206D01*
X181966Y48159D01*
X182015Y48140D01*
X182059Y48112D01*
X182128Y48094D01*
X182195Y48067D01*
X182266Y48059D01*
X182297Y48051D01*
X182320Y48053D01*
X182361Y48049D01*
X184839Y48049D01*
X184909Y48060D01*
X184981Y48062D01*
X185030Y48080D01*
X185081Y48088D01*
X185145Y48122D01*
X185212Y48147D01*
X185253Y48179D01*
X185299Y48204D01*
X185348Y48256D01*
X185404Y48300D01*
X185432Y48344D01*
X185468Y48382D01*
X185498Y48447D01*
X185537Y48507D01*
X185550Y48558D01*
X185572Y48605D01*
X185580Y48676D01*
X185597Y48746D01*
X185593Y48798D01*
X185599Y48849D01*
X185584Y48920D01*
X185578Y48991D01*
X185558Y49039D01*
X185547Y49090D01*
X185510Y49151D01*
X185482Y49217D01*
X185437Y49273D01*
X185421Y49301D01*
X185403Y49316D01*
X185377Y49348D01*
X185067Y49658D01*
X185067Y67342D01*
X186258Y68533D01*
X189790Y68533D01*
X189810Y68536D01*
X189829Y68534D01*
X189931Y68556D01*
X190033Y68572D01*
X190050Y68582D01*
X190070Y68586D01*
X190159Y68639D01*
X190250Y68688D01*
X190264Y68702D01*
X190281Y68712D01*
X190348Y68791D01*
X190420Y68866D01*
X190428Y68884D01*
X190441Y68899D01*
X190480Y68995D01*
X190523Y69089D01*
X190525Y69109D01*
X190533Y69127D01*
X190551Y69294D01*
X190551Y69863D01*
X191728Y71040D01*
X193737Y73049D01*
X202232Y73049D01*
X202252Y73052D01*
X202271Y73050D01*
X202373Y73072D01*
X202475Y73088D01*
X202492Y73098D01*
X202512Y73102D01*
X202601Y73155D01*
X202692Y73204D01*
X202706Y73218D01*
X202723Y73228D01*
X202790Y73307D01*
X202862Y73382D01*
X202870Y73400D01*
X202883Y73415D01*
X202922Y73511D01*
X202965Y73605D01*
X202967Y73625D01*
X202975Y73643D01*
X202993Y73810D01*
X202993Y85033D01*
X202979Y85123D01*
X202971Y85214D01*
X202959Y85243D01*
X202954Y85275D01*
X202911Y85356D01*
X202875Y85440D01*
X202849Y85472D01*
X202838Y85493D01*
X202815Y85515D01*
X202770Y85571D01*
X202571Y85770D01*
X202497Y85823D01*
X202428Y85883D01*
X202397Y85895D01*
X202371Y85914D01*
X202284Y85941D01*
X202199Y85975D01*
X202158Y85979D01*
X202136Y85986D01*
X202104Y85985D01*
X202033Y85993D01*
X190693Y85993D01*
X190408Y86278D01*
X190334Y86332D01*
X190265Y86391D01*
X190234Y86403D01*
X190208Y86422D01*
X190121Y86449D01*
X190036Y86483D01*
X189996Y86487D01*
X189973Y86494D01*
X189941Y86493D01*
X189870Y86501D01*
X186294Y86501D01*
X186274Y86498D01*
X186255Y86500D01*
X186153Y86478D01*
X186051Y86462D01*
X186034Y86452D01*
X186014Y86448D01*
X185925Y86395D01*
X185834Y86346D01*
X185820Y86332D01*
X185803Y86322D01*
X185736Y86243D01*
X185664Y86168D01*
X185656Y86150D01*
X185643Y86135D01*
X185604Y86039D01*
X185561Y85945D01*
X185559Y85925D01*
X185551Y85907D01*
X185533Y85740D01*
X185533Y71958D01*
X184342Y70767D01*
X166658Y70767D01*
X165467Y71958D01*
X165467Y79369D01*
X165465Y79386D01*
X165466Y79401D01*
X165460Y79428D01*
X165462Y79460D01*
X165440Y79535D01*
X165428Y79612D01*
X165415Y79634D01*
X165414Y79641D01*
X165405Y79657D01*
X165393Y79696D01*
X165349Y79760D01*
X165312Y79829D01*
X165279Y79861D01*
X165253Y79898D01*
X165190Y79945D01*
X165134Y79999D01*
X165092Y80018D01*
X165056Y80045D01*
X164982Y80069D01*
X164911Y80102D01*
X164865Y80107D01*
X164822Y80121D01*
X164744Y80121D01*
X164667Y80129D01*
X164622Y80119D01*
X164576Y80119D01*
X164460Y80086D01*
X164445Y80083D01*
X164439Y80080D01*
X164426Y80077D01*
X164422Y80074D01*
X164415Y80072D01*
X163125Y79538D01*
X160953Y79538D01*
X159893Y79977D01*
X159849Y79988D01*
X159807Y80007D01*
X159730Y80015D01*
X159654Y80033D01*
X159608Y80029D01*
X159563Y80034D01*
X159486Y80017D01*
X159409Y80010D01*
X159367Y79991D01*
X159322Y79982D01*
X159255Y79942D01*
X159184Y79910D01*
X159150Y79879D01*
X159111Y79856D01*
X159060Y79796D01*
X159003Y79744D01*
X158981Y79703D01*
X158951Y79669D01*
X158922Y79596D01*
X158885Y79528D01*
X158876Y79483D01*
X158859Y79440D01*
X158844Y79305D01*
X158841Y79286D01*
X158842Y79281D01*
X158841Y79274D01*
X158841Y73023D01*
X150562Y73023D01*
X150542Y73020D01*
X150523Y73022D01*
X150421Y73000D01*
X150319Y72983D01*
X150302Y72974D01*
X150282Y72970D01*
X150193Y72917D01*
X150102Y72868D01*
X150088Y72854D01*
X150071Y72844D01*
X150004Y72765D01*
X149933Y72690D01*
X149924Y72672D01*
X149911Y72657D01*
X149872Y72561D01*
X149829Y72467D01*
X149827Y72447D01*
X149819Y72429D01*
X149801Y72262D01*
X149801Y71499D01*
X149038Y71499D01*
X149018Y71496D01*
X148999Y71498D01*
X148897Y71476D01*
X148795Y71459D01*
X148778Y71450D01*
X148758Y71446D01*
X148669Y71393D01*
X148578Y71344D01*
X148564Y71330D01*
X148547Y71320D01*
X148480Y71241D01*
X148409Y71166D01*
X148400Y71148D01*
X148387Y71133D01*
X148348Y71037D01*
X148305Y70943D01*
X148303Y70923D01*
X148295Y70905D01*
X148277Y70738D01*
X148277Y61459D01*
X142966Y61459D01*
X142239Y61654D01*
X142191Y61659D01*
X142145Y61673D01*
X142069Y61671D01*
X141994Y61678D01*
X141947Y61668D01*
X141899Y61667D01*
X141828Y61640D01*
X141754Y61624D01*
X141713Y61599D01*
X141668Y61582D01*
X141609Y61535D01*
X141545Y61495D01*
X141514Y61458D01*
X141476Y61428D01*
X141435Y61365D01*
X141387Y61306D01*
X141369Y61262D01*
X141343Y61221D01*
X141325Y61148D01*
X141297Y61077D01*
X141295Y61029D01*
X141283Y60983D01*
X141289Y60907D01*
X141286Y60832D01*
X141299Y60786D01*
X141302Y60738D01*
X141332Y60668D01*
X141353Y60595D01*
X141380Y60556D01*
X141399Y60511D01*
X141479Y60411D01*
X141492Y60392D01*
X141497Y60388D01*
X141504Y60380D01*
X141710Y60174D01*
X142542Y58166D01*
X142542Y55994D01*
X141710Y53986D01*
X140174Y52450D01*
X138166Y51618D01*
X135994Y51618D01*
X133986Y52450D01*
X132628Y53808D01*
X132554Y53861D01*
X132484Y53921D01*
X132454Y53933D01*
X132428Y53952D01*
X132341Y53979D01*
X132256Y54013D01*
X132215Y54017D01*
X132193Y54024D01*
X132161Y54023D01*
X132089Y54031D01*
X128658Y54031D01*
X128568Y54016D01*
X128477Y54009D01*
X128447Y53997D01*
X128415Y53991D01*
X128335Y53949D01*
X128251Y53913D01*
X128219Y53887D01*
X128198Y53876D01*
X128176Y53853D01*
X128120Y53808D01*
X125963Y51652D01*
X125937Y51615D01*
X125903Y51584D01*
X125865Y51515D01*
X125820Y51452D01*
X125806Y51408D01*
X125784Y51368D01*
X125770Y51291D01*
X125748Y51217D01*
X125749Y51171D01*
X125741Y51126D01*
X125752Y51049D01*
X125754Y50971D01*
X125770Y50928D01*
X125776Y50883D01*
X125812Y50813D01*
X125838Y50740D01*
X125867Y50704D01*
X125888Y50663D01*
X125943Y50609D01*
X125992Y50548D01*
X126031Y50523D01*
X126063Y50491D01*
X126183Y50425D01*
X126199Y50415D01*
X126204Y50414D01*
X126210Y50410D01*
X128094Y49630D01*
X129452Y48272D01*
X129526Y48219D01*
X129596Y48159D01*
X129626Y48147D01*
X129652Y48128D01*
X129739Y48101D01*
X129824Y48067D01*
X129865Y48063D01*
X129887Y48056D01*
X129919Y48057D01*
X129991Y48049D01*
X136263Y48049D01*
X138840Y45472D01*
X140849Y43463D01*
X140849Y41656D01*
X140868Y41541D01*
X140885Y41425D01*
X140887Y41419D01*
X140888Y41413D01*
X140943Y41311D01*
X140996Y41206D01*
X141001Y41201D01*
X141004Y41196D01*
X141088Y41116D01*
X141172Y41034D01*
X141178Y41030D01*
X141182Y41027D01*
X141199Y41019D01*
X141319Y40953D01*
X142980Y40265D01*
X145553Y37692D01*
X146945Y34331D01*
X146945Y16469D01*
X145553Y13108D01*
X142980Y10535D01*
X139619Y9143D01*
X135981Y9143D01*
X132620Y10535D01*
X130047Y13108D01*
X128655Y16469D01*
X128655Y34331D01*
X130047Y37692D01*
X132620Y40265D01*
X133156Y40487D01*
X133239Y40538D01*
X133325Y40584D01*
X133343Y40603D01*
X133365Y40616D01*
X133427Y40691D01*
X133495Y40762D01*
X133506Y40786D01*
X133522Y40806D01*
X133557Y40896D01*
X133598Y40985D01*
X133601Y41011D01*
X133610Y41035D01*
X133615Y41133D01*
X133625Y41229D01*
X133620Y41255D01*
X133621Y41281D01*
X133594Y41375D01*
X133573Y41470D01*
X133560Y41492D01*
X133552Y41517D01*
X133497Y41597D01*
X133447Y41681D01*
X133427Y41698D01*
X133412Y41719D01*
X133334Y41777D01*
X133260Y41841D01*
X133236Y41851D01*
X133215Y41866D01*
X133122Y41896D01*
X133032Y41933D01*
X132999Y41936D01*
X132981Y41942D01*
X132948Y41942D01*
X132865Y41951D01*
X129991Y41951D01*
X129901Y41937D01*
X129810Y41929D01*
X129780Y41917D01*
X129748Y41912D01*
X129667Y41869D01*
X129583Y41833D01*
X129551Y41807D01*
X129531Y41796D01*
X129508Y41773D01*
X129452Y41728D01*
X128094Y40370D01*
X126086Y39538D01*
X125892Y39538D01*
X125821Y39527D01*
X125749Y39525D01*
X125700Y39507D01*
X125649Y39499D01*
X125585Y39465D01*
X125518Y39440D01*
X125477Y39408D01*
X125431Y39383D01*
X125382Y39331D01*
X125326Y39287D01*
X125298Y39243D01*
X125262Y39205D01*
X125232Y39140D01*
X125193Y39080D01*
X125180Y39029D01*
X125158Y38982D01*
X125151Y38911D01*
X125133Y38841D01*
X125137Y38789D01*
X125131Y38738D01*
X125147Y38667D01*
X125152Y38596D01*
X125173Y38548D01*
X125184Y38497D01*
X125220Y38436D01*
X125248Y38370D01*
X125293Y38314D01*
X125310Y38286D01*
X125327Y38271D01*
X125353Y38239D01*
X125609Y37983D01*
X125609Y12817D01*
X117871Y5079D01*
X81529Y5079D01*
X73791Y12817D01*
X73791Y37983D01*
X75251Y39443D01*
X75304Y39517D01*
X75364Y39587D01*
X75376Y39617D01*
X75395Y39643D01*
X75422Y39730D01*
X75456Y39815D01*
X75460Y39856D01*
X75467Y39878D01*
X75466Y39910D01*
X75474Y39982D01*
X75474Y50187D01*
X75460Y50277D01*
X75452Y50368D01*
X75440Y50398D01*
X75435Y50430D01*
X75392Y50511D01*
X75356Y50595D01*
X75330Y50627D01*
X75319Y50647D01*
X75296Y50670D01*
X75251Y50726D01*
X71918Y54059D01*
X71918Y63455D01*
X71903Y63545D01*
X71896Y63636D01*
X71883Y63666D01*
X71878Y63698D01*
X71835Y63779D01*
X71800Y63863D01*
X71774Y63895D01*
X71763Y63915D01*
X71740Y63938D01*
X71695Y63994D01*
X63960Y71728D01*
X63886Y71781D01*
X63817Y71841D01*
X63787Y71853D01*
X63760Y71872D01*
X63673Y71899D01*
X63589Y71933D01*
X63548Y71937D01*
X63525Y71944D01*
X63493Y71943D01*
X63422Y71951D01*
X58737Y71951D01*
X54451Y76238D01*
X54357Y76305D01*
X54262Y76376D01*
X54256Y76378D01*
X54251Y76381D01*
X54140Y76415D01*
X54028Y76452D01*
X54022Y76452D01*
X54016Y76454D01*
X53899Y76451D01*
X53782Y76450D01*
X53775Y76447D01*
X53770Y76447D01*
X53752Y76441D01*
X53621Y76403D01*
X50686Y75187D01*
X47250Y75187D01*
X44076Y76502D01*
X41646Y78932D01*
X40331Y82106D01*
X40331Y98750D01*
X41646Y101924D01*
X44076Y104354D01*
X47250Y105669D01*
X50686Y105669D01*
X53860Y104354D01*
X56290Y101924D01*
X57605Y98750D01*
X57605Y86418D01*
X57620Y86328D01*
X57627Y86237D01*
X57639Y86207D01*
X57645Y86175D01*
X57687Y86095D01*
X57723Y86011D01*
X57749Y85979D01*
X57760Y85958D01*
X57783Y85936D01*
X57828Y85880D01*
X58049Y85659D01*
X58049Y81578D01*
X58063Y81488D01*
X58071Y81397D01*
X58083Y81367D01*
X58088Y81335D01*
X58131Y81255D01*
X58167Y81171D01*
X58193Y81139D01*
X58204Y81118D01*
X58227Y81096D01*
X58272Y81040D01*
X61040Y78272D01*
X61114Y78219D01*
X61183Y78159D01*
X61213Y78147D01*
X61240Y78128D01*
X61327Y78101D01*
X61411Y78067D01*
X61452Y78063D01*
X61475Y78056D01*
X61507Y78057D01*
X61578Y78049D01*
X65678Y78049D01*
X65749Y78060D01*
X65821Y78062D01*
X65870Y78080D01*
X65921Y78088D01*
X65984Y78122D01*
X66052Y78147D01*
X66092Y78179D01*
X66138Y78204D01*
X66188Y78256D01*
X66244Y78300D01*
X66272Y78344D01*
X66308Y78382D01*
X66338Y78447D01*
X66377Y78507D01*
X66389Y78558D01*
X66411Y78605D01*
X66419Y78676D01*
X66437Y78746D01*
X66433Y78798D01*
X66438Y78849D01*
X66423Y78920D01*
X66418Y78991D01*
X66397Y79039D01*
X66386Y79090D01*
X66349Y79151D01*
X66321Y79217D01*
X66276Y79273D01*
X66260Y79301D01*
X66242Y79316D01*
X66216Y79348D01*
X64510Y81054D01*
X64510Y88946D01*
X66355Y90790D01*
X66408Y90864D01*
X66467Y90933D01*
X66479Y90963D01*
X66498Y90990D01*
X66525Y91077D01*
X66559Y91161D01*
X66564Y91202D01*
X66571Y91225D01*
X66570Y91257D01*
X66578Y91328D01*
X66578Y107126D01*
X66574Y107146D01*
X66577Y107165D01*
X66555Y107267D01*
X66538Y107369D01*
X66529Y107386D01*
X66524Y107406D01*
X66471Y107495D01*
X66423Y107586D01*
X66408Y107600D01*
X66398Y107617D01*
X66319Y107684D01*
X66244Y107756D01*
X66226Y107764D01*
X66211Y107777D01*
X66115Y107816D01*
X66021Y107859D01*
X66002Y107861D01*
X65983Y107869D01*
X65816Y107887D01*
X62054Y107887D01*
X48213Y121728D01*
X48139Y121781D01*
X48069Y121841D01*
X48039Y121853D01*
X48013Y121872D01*
X47926Y121899D01*
X47841Y121933D01*
X47800Y121937D01*
X47778Y121944D01*
X47746Y121943D01*
X47674Y121951D01*
X31317Y121951D01*
X31221Y121936D01*
X31124Y121926D01*
X31100Y121916D01*
X31075Y121912D01*
X30989Y121866D01*
X30900Y121826D01*
X30880Y121809D01*
X30857Y121796D01*
X30790Y121726D01*
X30718Y121660D01*
X30706Y121637D01*
X30688Y121618D01*
X30647Y121530D01*
X30600Y121444D01*
X30595Y121419D01*
X30584Y121395D01*
X30574Y121298D01*
X30556Y121202D01*
X30560Y121176D01*
X30557Y121151D01*
X30578Y121055D01*
X30592Y120959D01*
X30604Y120936D01*
X30609Y120910D01*
X30659Y120827D01*
X30703Y120740D01*
X30722Y120721D01*
X30736Y120699D01*
X30809Y120636D01*
X30879Y120568D01*
X30908Y120552D01*
X30922Y120539D01*
X30953Y120527D01*
X31026Y120487D01*
X33094Y119630D01*
X34630Y118094D01*
X35462Y116086D01*
X35462Y113914D01*
X34630Y111906D01*
X33094Y110370D01*
X31086Y109538D01*
X28914Y109538D01*
X26906Y110370D01*
X26332Y110944D01*
X26316Y110956D01*
X26303Y110971D01*
X26216Y111027D01*
X26132Y111087D01*
X26113Y111093D01*
X26097Y111104D01*
X25996Y111129D01*
X25897Y111160D01*
X25877Y111159D01*
X25858Y111164D01*
X25755Y111156D01*
X25651Y111153D01*
X25633Y111147D01*
X25613Y111145D01*
X25518Y111105D01*
X25420Y111069D01*
X25405Y111056D01*
X25386Y111049D01*
X25255Y110944D01*
X23272Y108960D01*
X23219Y108886D01*
X23159Y108817D01*
X23147Y108787D01*
X23128Y108760D01*
X23101Y108673D01*
X23067Y108589D01*
X23063Y108548D01*
X23056Y108525D01*
X23057Y108493D01*
X23049Y108422D01*
X23049Y106430D01*
X23052Y106410D01*
X23050Y106390D01*
X23072Y106289D01*
X23088Y106187D01*
X23098Y106170D01*
X23102Y106150D01*
X23155Y106061D01*
X23204Y105970D01*
X23218Y105956D01*
X23228Y105939D01*
X23307Y105872D01*
X23382Y105800D01*
X23400Y105792D01*
X23415Y105779D01*
X23511Y105740D01*
X23605Y105697D01*
X23625Y105695D01*
X23643Y105687D01*
X23810Y105669D01*
X25286Y105669D01*
X28460Y104354D01*
X30890Y101924D01*
X32205Y98750D01*
X32205Y82106D01*
X30890Y78932D01*
X28460Y76502D01*
X25286Y75187D01*
X21850Y75187D01*
X18676Y76502D01*
X16246Y78932D01*
X14931Y82106D01*
X14931Y98750D01*
X16246Y101924D01*
X16728Y102406D01*
X16781Y102480D01*
X16841Y102550D01*
X16853Y102580D01*
X16872Y102606D01*
X16899Y102693D01*
X16933Y102778D01*
X16937Y102819D01*
X16944Y102841D01*
X16943Y102873D01*
X16951Y102945D01*
X16951Y111263D01*
X23737Y118049D01*
X25009Y118049D01*
X25099Y118063D01*
X25190Y118071D01*
X25220Y118083D01*
X25252Y118088D01*
X25333Y118131D01*
X25417Y118167D01*
X25449Y118193D01*
X25469Y118204D01*
X25492Y118227D01*
X25548Y118272D01*
X26906Y119630D01*
X28974Y120487D01*
X29057Y120538D01*
X29143Y120584D01*
X29161Y120602D01*
X29183Y120616D01*
X29245Y120692D01*
X29312Y120762D01*
X29323Y120786D01*
X29340Y120806D01*
X29375Y120897D01*
X29416Y120985D01*
X29419Y121011D01*
X29428Y121035D01*
X29432Y121133D01*
X29443Y121229D01*
X29437Y121255D01*
X29438Y121281D01*
X29411Y121375D01*
X29391Y121470D01*
X29377Y121492D01*
X29370Y121517D01*
X29314Y121597D01*
X29264Y121681D01*
X29245Y121698D01*
X29230Y121719D01*
X29151Y121778D01*
X29078Y121841D01*
X29053Y121851D01*
X29032Y121866D01*
X28940Y121896D01*
X28849Y121933D01*
X28817Y121936D01*
X28798Y121942D01*
X28765Y121942D01*
X28683Y121951D01*
X18737Y121951D01*
X10079Y130609D01*
X10079Y217368D01*
X10060Y217484D01*
X10043Y217600D01*
X10040Y217605D01*
X10040Y217611D01*
X9985Y217715D01*
X9931Y217819D01*
X9927Y217823D01*
X9924Y217828D01*
X9840Y217909D01*
X9756Y217991D01*
X9750Y217994D01*
X9746Y217998D01*
X9640Y218047D01*
X9534Y218098D01*
X9528Y218099D01*
X9523Y218101D01*
X9407Y218114D01*
X9290Y218129D01*
X9284Y218128D01*
X9279Y218129D01*
X9165Y218104D01*
X9049Y218080D01*
X9044Y218078D01*
X9038Y218076D01*
X8938Y218016D01*
X8836Y217958D01*
X8831Y217952D01*
X8827Y217950D01*
X8816Y217937D01*
X8719Y217838D01*
X8690Y217801D01*
X8676Y217775D01*
X8638Y217726D01*
X5360Y212303D01*
X5348Y212275D01*
X5317Y212221D01*
X2726Y206464D01*
X2716Y206426D01*
X2697Y206390D01*
X2663Y206228D01*
X2663Y206227D01*
X2663Y206226D01*
X2544Y205019D01*
X2546Y204993D01*
X2541Y204945D01*
X2541Y3283D01*
X2544Y3266D01*
X2542Y3248D01*
X2563Y3144D01*
X2580Y3040D01*
X2589Y3025D01*
X2592Y3007D01*
X2646Y2916D01*
X2696Y2823D01*
X2708Y2811D01*
X2717Y2795D01*
X2797Y2726D01*
X2874Y2654D01*
X2890Y2646D01*
X2903Y2634D01*
X3001Y2594D01*
X3097Y2550D01*
X3115Y2548D01*
X3131Y2541D01*
X3298Y2522D01*
X276669Y953D01*
X276696Y957D01*
G37*
G36*
X160900Y125464D02*
X160900Y125464D01*
X160997Y125474D01*
X161021Y125484D01*
X161047Y125488D01*
X161132Y125534D01*
X161222Y125574D01*
X161241Y125591D01*
X161264Y125604D01*
X161331Y125674D01*
X161403Y125740D01*
X161415Y125763D01*
X161433Y125782D01*
X161474Y125870D01*
X161521Y125956D01*
X161526Y125981D01*
X161537Y126005D01*
X161548Y126102D01*
X161565Y126198D01*
X161561Y126224D01*
X161564Y126249D01*
X161543Y126344D01*
X161529Y126441D01*
X161517Y126464D01*
X161512Y126490D01*
X161462Y126574D01*
X161418Y126660D01*
X161399Y126678D01*
X161386Y126701D01*
X161312Y126764D01*
X161242Y126832D01*
X161214Y126848D01*
X161199Y126861D01*
X161168Y126873D01*
X161095Y126913D01*
X159845Y127431D01*
X158308Y128968D01*
X157477Y130975D01*
X157477Y133148D01*
X158308Y135155D01*
X159845Y136692D01*
X161852Y137523D01*
X164115Y137523D01*
X164146Y137516D01*
X164192Y137520D01*
X164237Y137515D01*
X164313Y137532D01*
X164391Y137539D01*
X164433Y137558D01*
X164478Y137568D01*
X164544Y137607D01*
X164615Y137639D01*
X164649Y137670D01*
X164689Y137694D01*
X164739Y137753D01*
X164797Y137805D01*
X164819Y137845D01*
X164849Y137881D01*
X164878Y137953D01*
X164915Y138021D01*
X164924Y138066D01*
X164941Y138109D01*
X164956Y138244D01*
X164959Y138263D01*
X164958Y138268D01*
X164959Y138275D01*
X164959Y140877D01*
X174738Y140877D01*
X174758Y140880D01*
X174777Y140878D01*
X174879Y140900D01*
X174981Y140917D01*
X174998Y140926D01*
X175018Y140930D01*
X175107Y140983D01*
X175198Y141032D01*
X175212Y141046D01*
X175229Y141056D01*
X175296Y141135D01*
X175367Y141210D01*
X175376Y141228D01*
X175389Y141243D01*
X175428Y141339D01*
X175471Y141433D01*
X175473Y141453D01*
X175481Y141471D01*
X175499Y141638D01*
X175499Y142401D01*
X175501Y142401D01*
X175501Y141638D01*
X175504Y141618D01*
X175502Y141599D01*
X175524Y141497D01*
X175541Y141395D01*
X175550Y141378D01*
X175554Y141358D01*
X175607Y141269D01*
X175656Y141178D01*
X175670Y141164D01*
X175680Y141147D01*
X175759Y141080D01*
X175834Y141009D01*
X175852Y141000D01*
X175867Y140987D01*
X175963Y140948D01*
X176057Y140905D01*
X176077Y140903D01*
X176095Y140895D01*
X176262Y140877D01*
X186250Y140877D01*
X186340Y140892D01*
X186431Y140899D01*
X186461Y140911D01*
X186493Y140917D01*
X186573Y140959D01*
X186657Y140995D01*
X186689Y141021D01*
X186710Y141032D01*
X186732Y141055D01*
X186788Y141100D01*
X188797Y143109D01*
X188875Y143155D01*
X188966Y143204D01*
X188980Y143218D01*
X188997Y143228D01*
X189064Y143307D01*
X189136Y143382D01*
X189144Y143400D01*
X189157Y143415D01*
X189196Y143511D01*
X189239Y143605D01*
X189241Y143625D01*
X189249Y143643D01*
X189267Y143810D01*
X189267Y151742D01*
X190458Y152933D01*
X193640Y152933D01*
X193660Y152936D01*
X193679Y152934D01*
X193781Y152956D01*
X193883Y152972D01*
X193900Y152982D01*
X193920Y152986D01*
X194009Y153039D01*
X194100Y153088D01*
X194114Y153102D01*
X194131Y153112D01*
X194198Y153191D01*
X194270Y153266D01*
X194278Y153284D01*
X194291Y153299D01*
X194330Y153395D01*
X194373Y153489D01*
X194375Y153509D01*
X194383Y153527D01*
X194401Y153694D01*
X194401Y153713D01*
X198737Y158049D01*
X204171Y158049D01*
X204242Y158060D01*
X204314Y158062D01*
X204363Y158080D01*
X204414Y158088D01*
X204477Y158122D01*
X204545Y158147D01*
X204585Y158179D01*
X204632Y158204D01*
X204681Y158256D01*
X204737Y158300D01*
X204765Y158344D01*
X204801Y158382D01*
X204831Y158447D01*
X204870Y158507D01*
X204883Y158558D01*
X204905Y158605D01*
X204912Y158676D01*
X204930Y158746D01*
X204926Y158798D01*
X204932Y158849D01*
X204916Y158920D01*
X204911Y158991D01*
X204890Y159039D01*
X204879Y159090D01*
X204843Y159151D01*
X204814Y159217D01*
X204770Y159273D01*
X204753Y159301D01*
X204735Y159316D01*
X204710Y159348D01*
X201819Y162239D01*
X201819Y164477D01*
X210138Y164477D01*
X210158Y164480D01*
X210177Y164478D01*
X210279Y164500D01*
X210381Y164517D01*
X210398Y164526D01*
X210418Y164530D01*
X210507Y164583D01*
X210598Y164632D01*
X210612Y164646D01*
X210629Y164656D01*
X210696Y164735D01*
X210767Y164810D01*
X210776Y164828D01*
X210789Y164843D01*
X210827Y164939D01*
X210871Y165033D01*
X210873Y165053D01*
X210881Y165071D01*
X210899Y165238D01*
X210899Y166001D01*
X210901Y166001D01*
X210901Y165238D01*
X210904Y165218D01*
X210902Y165199D01*
X210924Y165097D01*
X210941Y164995D01*
X210950Y164978D01*
X210954Y164958D01*
X211007Y164869D01*
X211056Y164778D01*
X211070Y164764D01*
X211080Y164747D01*
X211159Y164680D01*
X211234Y164609D01*
X211252Y164600D01*
X211267Y164587D01*
X211363Y164548D01*
X211457Y164505D01*
X211477Y164503D01*
X211495Y164495D01*
X211662Y164477D01*
X219981Y164477D01*
X219981Y162239D01*
X217090Y159348D01*
X217048Y159290D01*
X216999Y159238D01*
X216977Y159191D01*
X216947Y159149D01*
X216926Y159080D01*
X216895Y159015D01*
X216890Y158963D01*
X216874Y158913D01*
X216876Y158842D01*
X216868Y158771D01*
X216879Y158720D01*
X216881Y158668D01*
X216905Y158600D01*
X216921Y158530D01*
X216947Y158485D01*
X216965Y158437D01*
X217010Y158381D01*
X217047Y158319D01*
X217086Y158285D01*
X217119Y158245D01*
X217179Y158206D01*
X217234Y158159D01*
X217282Y158140D01*
X217326Y158112D01*
X217395Y158094D01*
X217462Y158067D01*
X217533Y158059D01*
X217564Y158051D01*
X217588Y158053D01*
X217629Y158049D01*
X268422Y158049D01*
X268512Y158063D01*
X268603Y158071D01*
X268633Y158083D01*
X268665Y158088D01*
X268745Y158131D01*
X268829Y158167D01*
X268861Y158193D01*
X268882Y158204D01*
X268904Y158227D01*
X268960Y158272D01*
X274228Y163540D01*
X274281Y163614D01*
X274341Y163683D01*
X274353Y163713D01*
X274372Y163740D01*
X274399Y163827D01*
X274433Y163911D01*
X274437Y163952D01*
X274444Y163975D01*
X274443Y164007D01*
X274451Y164078D01*
X274451Y172696D01*
X274448Y172716D01*
X274450Y172735D01*
X274428Y172837D01*
X274412Y172939D01*
X274402Y172956D01*
X274398Y172976D01*
X274345Y173065D01*
X274296Y173156D01*
X274282Y173170D01*
X274272Y173187D01*
X274193Y173254D01*
X274118Y173326D01*
X274100Y173334D01*
X274085Y173347D01*
X273989Y173386D01*
X273895Y173429D01*
X273875Y173431D01*
X273857Y173439D01*
X273690Y173457D01*
X267006Y173457D01*
X265815Y174648D01*
X265815Y229672D01*
X267006Y230863D01*
X271923Y230863D01*
X271977Y230872D01*
X272032Y230871D01*
X272098Y230891D01*
X272165Y230902D01*
X272214Y230928D01*
X272267Y230945D01*
X272322Y230985D01*
X272383Y231018D01*
X272421Y231057D01*
X272465Y231090D01*
X272505Y231146D01*
X272552Y231196D01*
X272575Y231246D01*
X272607Y231291D01*
X272627Y231357D01*
X272656Y231419D01*
X272662Y231474D01*
X272678Y231526D01*
X272675Y231595D01*
X272683Y231663D01*
X272671Y231717D01*
X272669Y231772D01*
X272645Y231837D01*
X272631Y231904D01*
X272602Y231951D01*
X272583Y232003D01*
X272540Y232056D01*
X272504Y232115D01*
X272463Y232151D01*
X272428Y232193D01*
X272340Y232255D01*
X272318Y232275D01*
X272306Y232279D01*
X272291Y232290D01*
X269876Y233625D01*
X269849Y233634D01*
X269799Y233662D01*
X262433Y236713D01*
X262405Y236720D01*
X262352Y236741D01*
X254690Y238949D01*
X254661Y238952D01*
X254607Y238968D01*
X250195Y239717D01*
X250163Y239718D01*
X250066Y239728D01*
X120535Y239591D01*
X120418Y239572D01*
X120299Y239554D01*
X120296Y239552D01*
X120293Y239551D01*
X120187Y239495D01*
X120081Y239440D01*
X120078Y239438D01*
X120075Y239436D01*
X119992Y239349D01*
X119910Y239263D01*
X119909Y239260D01*
X119906Y239258D01*
X119856Y239149D01*
X119805Y239041D01*
X119804Y239038D01*
X119803Y239034D01*
X119790Y238916D01*
X119775Y238797D01*
X119776Y238793D01*
X119776Y238790D01*
X119801Y238674D01*
X119826Y238556D01*
X119828Y238552D01*
X119828Y238550D01*
X119834Y238539D01*
X119903Y238407D01*
X120290Y237828D01*
X120740Y236741D01*
X120897Y235952D01*
X115191Y235952D01*
X115171Y235949D01*
X115151Y235951D01*
X115050Y235929D01*
X115016Y235923D01*
X115014Y235924D01*
X114995Y235926D01*
X114976Y235933D01*
X114809Y235952D01*
X109103Y235952D01*
X109260Y236741D01*
X109710Y237828D01*
X110089Y238396D01*
X110139Y238505D01*
X110190Y238614D01*
X110190Y238617D01*
X110191Y238619D01*
X110203Y238738D01*
X110216Y238859D01*
X110216Y238861D01*
X110216Y238864D01*
X110190Y238981D01*
X110164Y239099D01*
X110162Y239101D01*
X110162Y239104D01*
X110099Y239208D01*
X110037Y239310D01*
X110035Y239312D01*
X110034Y239314D01*
X109942Y239391D01*
X109850Y239470D01*
X109848Y239471D01*
X109846Y239472D01*
X109736Y239516D01*
X109622Y239561D01*
X109619Y239562D01*
X109617Y239563D01*
X109607Y239563D01*
X109455Y239580D01*
X86593Y239556D01*
X86523Y239544D01*
X86451Y239542D01*
X86402Y239524D01*
X86350Y239516D01*
X86287Y239482D01*
X86220Y239458D01*
X86179Y239425D01*
X86133Y239400D01*
X86084Y239349D01*
X86028Y239304D01*
X86000Y239260D01*
X85964Y239222D01*
X85934Y239157D01*
X85895Y239097D01*
X85882Y239046D01*
X85860Y238999D01*
X85853Y238928D01*
X85835Y238859D01*
X85839Y238806D01*
X85834Y238754D01*
X85849Y238684D01*
X85854Y238613D01*
X85875Y238565D01*
X85886Y238514D01*
X85923Y238453D01*
X85951Y238387D01*
X85996Y238330D01*
X86013Y238303D01*
X86030Y238288D01*
X86055Y238256D01*
X88272Y236040D01*
X92349Y231963D01*
X92349Y226094D01*
X92352Y226074D01*
X92350Y226055D01*
X92372Y225953D01*
X92388Y225851D01*
X92398Y225834D01*
X92402Y225814D01*
X92455Y225725D01*
X92504Y225634D01*
X92518Y225620D01*
X92528Y225603D01*
X92607Y225536D01*
X92682Y225464D01*
X92700Y225456D01*
X92715Y225443D01*
X92811Y225404D01*
X92902Y225362D01*
X92961Y225319D01*
X92981Y225314D01*
X92997Y225303D01*
X93098Y225278D01*
X93197Y225247D01*
X93217Y225248D01*
X93236Y225243D01*
X93339Y225251D01*
X93442Y225253D01*
X93461Y225260D01*
X93481Y225262D01*
X93576Y225302D01*
X93659Y225333D01*
X100785Y225333D01*
X100898Y225351D01*
X101012Y225367D01*
X101022Y225371D01*
X101028Y225372D01*
X101048Y225383D01*
X101166Y225435D01*
X101569Y225668D01*
X102216Y225841D01*
X103926Y225841D01*
X103926Y215913D01*
X103929Y215894D01*
X103927Y215874D01*
X103949Y215772D01*
X103965Y215670D01*
X103975Y215653D01*
X103979Y215633D01*
X104032Y215544D01*
X104081Y215453D01*
X104095Y215439D01*
X104105Y215422D01*
X104184Y215355D01*
X104241Y215301D01*
X104227Y215293D01*
X104213Y215279D01*
X104196Y215269D01*
X104129Y215190D01*
X104057Y215115D01*
X104049Y215097D01*
X104036Y215082D01*
X103997Y214985D01*
X103954Y214892D01*
X103952Y214872D01*
X103944Y214854D01*
X103926Y214687D01*
X103926Y204759D01*
X102216Y204759D01*
X101569Y204932D01*
X101166Y205165D01*
X101059Y205206D01*
X100952Y205249D01*
X100942Y205250D01*
X100936Y205252D01*
X100914Y205253D01*
X100785Y205267D01*
X93657Y205267D01*
X93639Y205280D01*
X93620Y205286D01*
X93603Y205297D01*
X93502Y205322D01*
X93404Y205353D01*
X93384Y205352D01*
X93364Y205357D01*
X93261Y205349D01*
X93158Y205347D01*
X93139Y205340D01*
X93119Y205338D01*
X93024Y205298D01*
X92941Y205267D01*
X85657Y205267D01*
X85639Y205280D01*
X85620Y205286D01*
X85603Y205297D01*
X85502Y205322D01*
X85404Y205353D01*
X85384Y205352D01*
X85364Y205357D01*
X85261Y205349D01*
X85158Y205347D01*
X85139Y205340D01*
X85119Y205338D01*
X85024Y205298D01*
X84941Y205267D01*
X83310Y205267D01*
X83265Y205260D01*
X83219Y205262D01*
X83144Y205240D01*
X83067Y205228D01*
X83027Y205206D01*
X82983Y205193D01*
X82919Y205149D01*
X82850Y205112D01*
X82818Y205079D01*
X82781Y205053D01*
X82734Y204991D01*
X82681Y204934D01*
X82661Y204892D01*
X82634Y204856D01*
X82610Y204781D01*
X82577Y204711D01*
X82572Y204665D01*
X82558Y204622D01*
X82558Y204544D01*
X82550Y204467D01*
X82560Y204422D01*
X82560Y204376D01*
X82598Y204244D01*
X82602Y204226D01*
X82605Y204222D01*
X82607Y204215D01*
X82895Y203519D01*
X82957Y203419D01*
X83017Y203319D01*
X83021Y203315D01*
X83025Y203310D01*
X83114Y203235D01*
X83204Y203159D01*
X83209Y203157D01*
X83214Y203153D01*
X83322Y203111D01*
X83432Y203067D01*
X83439Y203066D01*
X83444Y203065D01*
X83462Y203064D01*
X83598Y203049D01*
X134602Y203049D01*
X136966Y200685D01*
X137040Y200632D01*
X137109Y200572D01*
X137139Y200560D01*
X137166Y200541D01*
X137253Y200514D01*
X137337Y200480D01*
X137378Y200476D01*
X137401Y200469D01*
X137433Y200470D01*
X137504Y200462D01*
X139425Y200462D01*
X140715Y199928D01*
X140759Y199917D01*
X140801Y199898D01*
X140878Y199889D01*
X140954Y199872D01*
X141000Y199876D01*
X141045Y199871D01*
X141122Y199887D01*
X141199Y199895D01*
X141241Y199913D01*
X141286Y199923D01*
X141353Y199963D01*
X141424Y199995D01*
X141458Y200026D01*
X141497Y200049D01*
X141548Y200108D01*
X141605Y200161D01*
X141627Y200201D01*
X141657Y200236D01*
X141686Y200308D01*
X141723Y200377D01*
X141732Y200422D01*
X141749Y200464D01*
X141764Y200600D01*
X141767Y200619D01*
X141766Y200624D01*
X141767Y200631D01*
X141767Y204506D01*
X141764Y204526D01*
X141766Y204545D01*
X141744Y204647D01*
X141728Y204749D01*
X141718Y204766D01*
X141714Y204786D01*
X141661Y204875D01*
X141612Y204966D01*
X141598Y204980D01*
X141588Y204997D01*
X141509Y205064D01*
X141434Y205136D01*
X141416Y205144D01*
X141401Y205157D01*
X141305Y205196D01*
X141211Y205239D01*
X141191Y205241D01*
X141173Y205249D01*
X141006Y205267D01*
X133657Y205267D01*
X133639Y205280D01*
X133620Y205286D01*
X133603Y205297D01*
X133502Y205322D01*
X133404Y205353D01*
X133384Y205352D01*
X133364Y205357D01*
X133261Y205349D01*
X133158Y205347D01*
X133139Y205340D01*
X133119Y205338D01*
X133024Y205298D01*
X132941Y205267D01*
X125657Y205267D01*
X125639Y205280D01*
X125620Y205286D01*
X125603Y205297D01*
X125502Y205322D01*
X125404Y205353D01*
X125384Y205352D01*
X125364Y205357D01*
X125261Y205349D01*
X125158Y205347D01*
X125139Y205340D01*
X125119Y205338D01*
X125024Y205298D01*
X124941Y205267D01*
X117657Y205267D01*
X117639Y205280D01*
X117620Y205286D01*
X117603Y205297D01*
X117502Y205322D01*
X117404Y205353D01*
X117384Y205352D01*
X117364Y205357D01*
X117261Y205349D01*
X117158Y205347D01*
X117139Y205340D01*
X117119Y205338D01*
X117024Y205298D01*
X116941Y205267D01*
X109815Y205267D01*
X109702Y205249D01*
X109588Y205233D01*
X109578Y205229D01*
X109572Y205228D01*
X109552Y205217D01*
X109434Y205165D01*
X109031Y204932D01*
X108384Y204759D01*
X106674Y204759D01*
X106674Y214687D01*
X106671Y214706D01*
X106673Y214726D01*
X106651Y214828D01*
X106635Y214930D01*
X106625Y214947D01*
X106621Y214967D01*
X106568Y215056D01*
X106519Y215147D01*
X106505Y215161D01*
X106495Y215178D01*
X106416Y215245D01*
X106359Y215299D01*
X106373Y215307D01*
X106387Y215321D01*
X106404Y215331D01*
X106471Y215410D01*
X106543Y215485D01*
X106551Y215503D01*
X106564Y215518D01*
X106603Y215615D01*
X106646Y215708D01*
X106648Y215728D01*
X106656Y215746D01*
X106674Y215913D01*
X106674Y225841D01*
X108385Y225841D01*
X109031Y225668D01*
X109434Y225435D01*
X109541Y225394D01*
X109648Y225351D01*
X109658Y225350D01*
X109664Y225348D01*
X109686Y225347D01*
X109815Y225333D01*
X116943Y225333D01*
X116961Y225319D01*
X116981Y225314D01*
X116997Y225303D01*
X117098Y225278D01*
X117197Y225247D01*
X117217Y225248D01*
X117236Y225243D01*
X117339Y225251D01*
X117442Y225253D01*
X117461Y225260D01*
X117481Y225262D01*
X117576Y225302D01*
X117659Y225333D01*
X124943Y225333D01*
X124961Y225319D01*
X124981Y225314D01*
X124997Y225303D01*
X125098Y225278D01*
X125197Y225247D01*
X125217Y225248D01*
X125236Y225243D01*
X125339Y225251D01*
X125442Y225253D01*
X125461Y225260D01*
X125481Y225262D01*
X125576Y225302D01*
X125659Y225333D01*
X132943Y225333D01*
X132961Y225319D01*
X132981Y225314D01*
X132997Y225303D01*
X133098Y225278D01*
X133197Y225247D01*
X133217Y225248D01*
X133236Y225243D01*
X133339Y225251D01*
X133442Y225253D01*
X133461Y225260D01*
X133481Y225262D01*
X133576Y225302D01*
X133659Y225333D01*
X140892Y225333D01*
X142083Y224142D01*
X142083Y219110D01*
X142086Y219090D01*
X142084Y219071D01*
X142106Y218969D01*
X142122Y218867D01*
X142132Y218850D01*
X142136Y218830D01*
X142189Y218741D01*
X142238Y218650D01*
X142252Y218636D01*
X142262Y218619D01*
X142341Y218552D01*
X142416Y218480D01*
X142434Y218472D01*
X142449Y218459D01*
X142545Y218420D01*
X142639Y218377D01*
X142659Y218375D01*
X142677Y218367D01*
X142844Y218349D01*
X148819Y218349D01*
X148864Y218356D01*
X148910Y218354D01*
X148985Y218376D01*
X149062Y218388D01*
X149102Y218410D01*
X149147Y218423D01*
X149211Y218467D01*
X149279Y218504D01*
X149311Y218537D01*
X149349Y218563D01*
X149395Y218626D01*
X149449Y218682D01*
X149468Y218724D01*
X149495Y218760D01*
X149519Y218834D01*
X149552Y218905D01*
X149557Y218951D01*
X149572Y218994D01*
X149571Y219072D01*
X149579Y219149D01*
X149570Y219194D01*
X149569Y219240D01*
X149531Y219371D01*
X149527Y219390D01*
X149525Y219394D01*
X149522Y219401D01*
X149260Y220036D01*
X149103Y220825D01*
X154809Y220825D01*
X154829Y220828D01*
X154849Y220826D01*
X154950Y220848D01*
X154984Y220854D01*
X154986Y220853D01*
X155005Y220851D01*
X155024Y220844D01*
X155191Y220825D01*
X160897Y220825D01*
X160740Y220036D01*
X160478Y219401D01*
X160467Y219357D01*
X160448Y219315D01*
X160439Y219238D01*
X160421Y219162D01*
X160426Y219116D01*
X160421Y219071D01*
X160437Y218994D01*
X160444Y218917D01*
X160463Y218875D01*
X160473Y218830D01*
X160513Y218763D01*
X160544Y218692D01*
X160575Y218658D01*
X160599Y218619D01*
X160658Y218568D01*
X160711Y218511D01*
X160751Y218489D01*
X160786Y218459D01*
X160858Y218430D01*
X160926Y218393D01*
X160971Y218384D01*
X161014Y218367D01*
X161150Y218352D01*
X161168Y218349D01*
X161173Y218350D01*
X161181Y218349D01*
X162456Y218349D01*
X162501Y218356D01*
X162547Y218354D01*
X162622Y218376D01*
X162698Y218388D01*
X162739Y218410D01*
X162783Y218423D01*
X162847Y218467D01*
X162916Y218504D01*
X162947Y218537D01*
X162985Y218563D01*
X163032Y218626D01*
X163085Y218682D01*
X163105Y218724D01*
X163132Y218760D01*
X163156Y218834D01*
X163189Y218905D01*
X163194Y218951D01*
X163208Y218994D01*
X163207Y219072D01*
X163216Y219149D01*
X163206Y219194D01*
X163206Y219240D01*
X163168Y219372D01*
X163164Y219390D01*
X163161Y219394D01*
X163159Y219401D01*
X162529Y220923D01*
X162529Y223096D01*
X163360Y225104D01*
X164896Y226640D01*
X166904Y227471D01*
X169077Y227471D01*
X171065Y226648D01*
X171178Y226621D01*
X171292Y226593D01*
X171298Y226593D01*
X171304Y226592D01*
X171421Y226603D01*
X171537Y226612D01*
X171543Y226614D01*
X171549Y226615D01*
X171657Y226663D01*
X171764Y226708D01*
X171769Y226713D01*
X171774Y226715D01*
X171788Y226728D01*
X171894Y226813D01*
X176573Y231492D01*
X178582Y233501D01*
X198511Y233501D01*
X200520Y231492D01*
X206456Y225556D01*
X206472Y225544D01*
X206485Y225529D01*
X206572Y225473D01*
X206655Y225412D01*
X206675Y225406D01*
X206691Y225396D01*
X206792Y225370D01*
X206890Y225340D01*
X206911Y225341D01*
X206930Y225336D01*
X207033Y225344D01*
X207136Y225346D01*
X207155Y225353D01*
X207175Y225355D01*
X207217Y225373D01*
X214451Y225373D01*
X219473Y220351D01*
X219473Y213249D01*
X214451Y208227D01*
X207349Y208227D01*
X202327Y213249D01*
X202327Y220495D01*
X202330Y220504D01*
X202360Y220602D01*
X202359Y220622D01*
X202364Y220642D01*
X202356Y220745D01*
X202354Y220848D01*
X202347Y220867D01*
X202345Y220887D01*
X202305Y220982D01*
X202269Y221079D01*
X202257Y221095D01*
X202249Y221113D01*
X202144Y221244D01*
X196208Y227180D01*
X196134Y227233D01*
X196065Y227293D01*
X196035Y227305D01*
X196008Y227324D01*
X195921Y227351D01*
X195837Y227385D01*
X195796Y227389D01*
X195773Y227396D01*
X195741Y227395D01*
X195670Y227403D01*
X194606Y227403D01*
X194535Y227392D01*
X194463Y227390D01*
X194414Y227372D01*
X194363Y227364D01*
X194300Y227330D01*
X194232Y227305D01*
X194191Y227273D01*
X194145Y227248D01*
X194096Y227197D01*
X194040Y227152D01*
X194012Y227108D01*
X193976Y227070D01*
X193946Y227005D01*
X193907Y226945D01*
X193894Y226894D01*
X193872Y226847D01*
X193865Y226776D01*
X193847Y226706D01*
X193851Y226654D01*
X193845Y226603D01*
X193861Y226532D01*
X193866Y226461D01*
X193887Y226413D01*
X193898Y226362D01*
X193934Y226301D01*
X193963Y226235D01*
X194007Y226179D01*
X194024Y226151D01*
X194042Y226136D01*
X194067Y226104D01*
X196128Y224043D01*
X198137Y222034D01*
X198137Y199725D01*
X196128Y197716D01*
X194256Y195844D01*
X194244Y195828D01*
X194229Y195815D01*
X194173Y195728D01*
X194112Y195645D01*
X194106Y195625D01*
X194096Y195609D01*
X194070Y195508D01*
X194040Y195410D01*
X194041Y195389D01*
X194036Y195370D01*
X194044Y195267D01*
X194046Y195164D01*
X194053Y195145D01*
X194055Y195125D01*
X194073Y195083D01*
X194073Y187849D01*
X192384Y186160D01*
X192342Y186102D01*
X192293Y186050D01*
X192271Y186003D01*
X192240Y185961D01*
X192219Y185892D01*
X192189Y185827D01*
X192183Y185775D01*
X192168Y185725D01*
X192170Y185654D01*
X192162Y185583D01*
X192173Y185532D01*
X192174Y185480D01*
X192199Y185412D01*
X192214Y185342D01*
X192241Y185297D01*
X192259Y185249D01*
X192304Y185193D01*
X192340Y185131D01*
X192380Y185097D01*
X192413Y185057D01*
X192473Y185018D01*
X192527Y184971D01*
X192576Y184952D01*
X192619Y184924D01*
X192689Y184906D01*
X192755Y184879D01*
X192827Y184871D01*
X192858Y184863D01*
X192881Y184865D01*
X192922Y184861D01*
X199734Y184861D01*
X199824Y184875D01*
X199915Y184883D01*
X199945Y184895D01*
X199977Y184900D01*
X200057Y184943D01*
X200141Y184979D01*
X200173Y185005D01*
X200194Y185016D01*
X200216Y185039D01*
X200272Y185084D01*
X202144Y186956D01*
X202156Y186972D01*
X202171Y186985D01*
X202227Y187072D01*
X202288Y187155D01*
X202294Y187175D01*
X202304Y187191D01*
X202330Y187292D01*
X202360Y187390D01*
X202359Y187411D01*
X202364Y187430D01*
X202356Y187533D01*
X202354Y187636D01*
X202347Y187655D01*
X202345Y187675D01*
X202327Y187717D01*
X202327Y194951D01*
X207349Y199973D01*
X214451Y199973D01*
X219473Y194951D01*
X219473Y187849D01*
X214451Y182827D01*
X207205Y182827D01*
X207196Y182830D01*
X207098Y182860D01*
X207078Y182859D01*
X207058Y182864D01*
X206955Y182856D01*
X206852Y182854D01*
X206833Y182847D01*
X206813Y182845D01*
X206718Y182805D01*
X206621Y182769D01*
X206605Y182757D01*
X206587Y182749D01*
X206456Y182644D01*
X204584Y180772D01*
X203735Y179924D01*
X203695Y179868D01*
X203647Y179818D01*
X203624Y179768D01*
X203592Y179724D01*
X203571Y179658D01*
X203542Y179596D01*
X203535Y179541D01*
X203519Y179489D01*
X203521Y179420D01*
X203513Y179352D01*
X203524Y179298D01*
X203526Y179243D01*
X203549Y179178D01*
X203563Y179111D01*
X203599Y179043D01*
X203610Y179012D01*
X203623Y178995D01*
X203640Y178962D01*
X204175Y178163D01*
X204625Y177076D01*
X204782Y176287D01*
X199075Y176287D01*
X199055Y176284D01*
X199036Y176286D01*
X198934Y176264D01*
X198900Y176258D01*
X198899Y176259D01*
X198879Y176261D01*
X198860Y176268D01*
X198694Y176287D01*
X192987Y176287D01*
X193144Y177076D01*
X193407Y177711D01*
X193417Y177755D01*
X193437Y177797D01*
X193445Y177874D01*
X193463Y177950D01*
X193459Y177996D01*
X193464Y178041D01*
X193447Y178118D01*
X193440Y178195D01*
X193421Y178237D01*
X193411Y178282D01*
X193372Y178349D01*
X193340Y178420D01*
X193309Y178454D01*
X193285Y178493D01*
X193226Y178544D01*
X193173Y178601D01*
X193133Y178623D01*
X193098Y178653D01*
X193026Y178682D01*
X192958Y178719D01*
X192913Y178728D01*
X192870Y178745D01*
X192734Y178760D01*
X192716Y178763D01*
X192711Y178762D01*
X192704Y178763D01*
X176925Y178763D01*
X174916Y180772D01*
X166160Y189528D01*
X166086Y189581D01*
X166017Y189641D01*
X165987Y189653D01*
X165960Y189672D01*
X165873Y189699D01*
X165789Y189733D01*
X165748Y189737D01*
X165725Y189744D01*
X165693Y189743D01*
X165622Y189751D01*
X162594Y189751D01*
X162574Y189748D01*
X162555Y189750D01*
X162453Y189728D01*
X162351Y189712D01*
X162334Y189702D01*
X162314Y189698D01*
X162225Y189645D01*
X162134Y189596D01*
X162120Y189582D01*
X162103Y189572D01*
X162036Y189493D01*
X161964Y189418D01*
X161956Y189400D01*
X161943Y189385D01*
X161904Y189289D01*
X161862Y189198D01*
X161819Y189139D01*
X161814Y189119D01*
X161803Y189103D01*
X161778Y189002D01*
X161747Y188903D01*
X161748Y188883D01*
X161743Y188864D01*
X161751Y188761D01*
X161753Y188658D01*
X161760Y188639D01*
X161762Y188619D01*
X161802Y188524D01*
X161833Y188441D01*
X161833Y181157D01*
X161819Y181139D01*
X161814Y181119D01*
X161803Y181103D01*
X161778Y181002D01*
X161747Y180903D01*
X161748Y180883D01*
X161743Y180864D01*
X161751Y180761D01*
X161753Y180658D01*
X161760Y180639D01*
X161762Y180619D01*
X161802Y180524D01*
X161833Y180441D01*
X161833Y173157D01*
X161819Y173139D01*
X161814Y173119D01*
X161803Y173103D01*
X161778Y173002D01*
X161747Y172903D01*
X161748Y172883D01*
X161743Y172864D01*
X161751Y172761D01*
X161753Y172658D01*
X161760Y172639D01*
X161762Y172619D01*
X161802Y172524D01*
X161833Y172441D01*
X161833Y165157D01*
X161819Y165139D01*
X161814Y165119D01*
X161803Y165103D01*
X161778Y165002D01*
X161747Y164903D01*
X161748Y164883D01*
X161743Y164864D01*
X161751Y164761D01*
X161753Y164658D01*
X161760Y164639D01*
X161762Y164619D01*
X161802Y164524D01*
X161833Y164441D01*
X161833Y157157D01*
X161819Y157139D01*
X161814Y157119D01*
X161803Y157103D01*
X161778Y157002D01*
X161747Y156903D01*
X161748Y156883D01*
X161743Y156864D01*
X161751Y156761D01*
X161753Y156658D01*
X161760Y156639D01*
X161762Y156619D01*
X161802Y156524D01*
X161833Y156441D01*
X161833Y156181D01*
X161840Y156136D01*
X161838Y156090D01*
X161860Y156015D01*
X161872Y155938D01*
X161894Y155898D01*
X161907Y155853D01*
X161951Y155789D01*
X161988Y155721D01*
X162021Y155689D01*
X162047Y155651D01*
X162110Y155605D01*
X162166Y155551D01*
X162208Y155532D01*
X162244Y155505D01*
X162318Y155481D01*
X162389Y155448D01*
X162435Y155443D01*
X162478Y155428D01*
X162556Y155429D01*
X162633Y155421D01*
X162678Y155430D01*
X162724Y155431D01*
X162855Y155469D01*
X162874Y155473D01*
X162878Y155475D01*
X162885Y155478D01*
X163520Y155740D01*
X164309Y155897D01*
X164309Y151140D01*
X164321Y151069D01*
X164323Y150998D01*
X164341Y150949D01*
X164349Y150897D01*
X164382Y150834D01*
X164407Y150767D01*
X164440Y150726D01*
X164464Y150680D01*
X164516Y150631D01*
X164561Y150575D01*
X164605Y150546D01*
X164642Y150511D01*
X164707Y150480D01*
X164768Y150442D01*
X164818Y150429D01*
X164865Y150407D01*
X164937Y150399D01*
X165006Y150382D01*
X165058Y150386D01*
X165110Y150380D01*
X165180Y150395D01*
X165251Y150401D01*
X165299Y150421D01*
X165350Y150432D01*
X165412Y150469D01*
X165478Y150497D01*
X165534Y150542D01*
X165561Y150558D01*
X165577Y150576D01*
X165609Y150602D01*
X165990Y150983D01*
X166043Y151057D01*
X166102Y151126D01*
X166114Y151156D01*
X166133Y151183D01*
X166160Y151270D01*
X166194Y151355D01*
X166199Y151395D01*
X166206Y151418D01*
X166205Y151450D01*
X166213Y151521D01*
X166213Y155897D01*
X167002Y155740D01*
X168089Y155290D01*
X169067Y154637D01*
X169898Y153806D01*
X170551Y152828D01*
X170931Y151911D01*
X170993Y151811D01*
X171053Y151711D01*
X171057Y151707D01*
X171061Y151702D01*
X171150Y151627D01*
X171240Y151551D01*
X171245Y151549D01*
X171250Y151545D01*
X171358Y151503D01*
X171468Y151459D01*
X171475Y151458D01*
X171480Y151457D01*
X171498Y151456D01*
X171634Y151441D01*
X173977Y151441D01*
X173977Y143923D01*
X164692Y143923D01*
X164666Y143940D01*
X164626Y143978D01*
X164564Y144007D01*
X164506Y144045D01*
X164433Y144068D01*
X164403Y144082D01*
X164382Y144084D01*
X164347Y144095D01*
X163520Y144260D01*
X162885Y144522D01*
X162841Y144533D01*
X162799Y144552D01*
X162722Y144561D01*
X162646Y144579D01*
X162600Y144574D01*
X162555Y144579D01*
X162478Y144563D01*
X162401Y144556D01*
X162359Y144537D01*
X162314Y144527D01*
X162247Y144487D01*
X162176Y144456D01*
X162142Y144425D01*
X162103Y144401D01*
X162052Y144342D01*
X161995Y144289D01*
X161973Y144249D01*
X161943Y144214D01*
X161914Y144142D01*
X161877Y144074D01*
X161868Y144029D01*
X161851Y143986D01*
X161836Y143850D01*
X161833Y143832D01*
X161834Y143827D01*
X161833Y143819D01*
X161833Y141208D01*
X160642Y140017D01*
X142844Y140017D01*
X142824Y140014D01*
X142805Y140016D01*
X142703Y139994D01*
X142601Y139978D01*
X142584Y139968D01*
X142564Y139964D01*
X142475Y139911D01*
X142384Y139862D01*
X142370Y139848D01*
X142353Y139838D01*
X142286Y139759D01*
X142214Y139684D01*
X142206Y139666D01*
X142193Y139651D01*
X142154Y139555D01*
X142111Y139461D01*
X142109Y139441D01*
X142101Y139423D01*
X142083Y139256D01*
X142083Y133810D01*
X142086Y133790D01*
X142084Y133771D01*
X142106Y133669D01*
X142122Y133567D01*
X142132Y133550D01*
X142136Y133530D01*
X142189Y133441D01*
X142238Y133350D01*
X142252Y133336D01*
X142262Y133319D01*
X142341Y133252D01*
X142416Y133180D01*
X142434Y133172D01*
X142449Y133159D01*
X142545Y133120D01*
X142639Y133077D01*
X142659Y133075D01*
X142677Y133067D01*
X142844Y133049D01*
X151263Y133049D01*
X158640Y125672D01*
X158714Y125619D01*
X158783Y125559D01*
X158813Y125547D01*
X158840Y125528D01*
X158927Y125501D01*
X159011Y125467D01*
X159052Y125463D01*
X159075Y125456D01*
X159107Y125457D01*
X159178Y125449D01*
X160804Y125449D01*
X160900Y125464D01*
G37*
G36*
X113933Y130155D02*
X113933Y130155D01*
X113952Y130153D01*
X114054Y130175D01*
X114156Y130192D01*
X114173Y130201D01*
X114193Y130205D01*
X114282Y130258D01*
X114373Y130307D01*
X114387Y130321D01*
X114404Y130331D01*
X114471Y130410D01*
X114543Y130485D01*
X114551Y130503D01*
X114564Y130518D01*
X114603Y130615D01*
X114646Y130708D01*
X114648Y130728D01*
X114656Y130746D01*
X114674Y130913D01*
X114674Y140841D01*
X116385Y140841D01*
X117031Y140668D01*
X117434Y140435D01*
X117541Y140394D01*
X117648Y140351D01*
X117658Y140350D01*
X117664Y140348D01*
X117686Y140347D01*
X117815Y140333D01*
X124515Y140333D01*
X124632Y140352D01*
X124752Y140371D01*
X124754Y140372D01*
X124757Y140372D01*
X124862Y140428D01*
X124970Y140484D01*
X124972Y140486D01*
X124975Y140488D01*
X125056Y140574D01*
X125141Y140661D01*
X125142Y140664D01*
X125144Y140666D01*
X125194Y140774D01*
X125246Y140883D01*
X125246Y140886D01*
X125248Y140889D01*
X125261Y141004D01*
X125275Y141127D01*
X125275Y141130D01*
X125275Y141133D01*
X125250Y141249D01*
X125225Y141368D01*
X125223Y141371D01*
X125223Y141374D01*
X125217Y141383D01*
X125148Y141517D01*
X124710Y142172D01*
X124260Y143259D01*
X124103Y144048D01*
X129809Y144048D01*
X129829Y144051D01*
X129849Y144049D01*
X129950Y144071D01*
X129984Y144077D01*
X129986Y144076D01*
X130005Y144074D01*
X130024Y144067D01*
X130191Y144048D01*
X135897Y144048D01*
X135740Y143259D01*
X135290Y142172D01*
X134852Y141517D01*
X134803Y141408D01*
X134752Y141299D01*
X134752Y141296D01*
X134751Y141293D01*
X134738Y141173D01*
X134725Y141055D01*
X134726Y141051D01*
X134725Y141048D01*
X134752Y140930D01*
X134777Y140814D01*
X134779Y140811D01*
X134780Y140808D01*
X134842Y140706D01*
X134904Y140603D01*
X134906Y140601D01*
X134908Y140598D01*
X135000Y140521D01*
X135090Y140443D01*
X135093Y140442D01*
X135096Y140440D01*
X135206Y140396D01*
X135319Y140351D01*
X135322Y140351D01*
X135325Y140350D01*
X135335Y140349D01*
X135485Y140333D01*
X141006Y140333D01*
X141026Y140336D01*
X141045Y140334D01*
X141147Y140356D01*
X141249Y140372D01*
X141266Y140382D01*
X141286Y140386D01*
X141375Y140439D01*
X141466Y140488D01*
X141480Y140502D01*
X141497Y140512D01*
X141564Y140591D01*
X141636Y140666D01*
X141644Y140684D01*
X141657Y140699D01*
X141696Y140795D01*
X141739Y140889D01*
X141741Y140909D01*
X141749Y140927D01*
X141767Y141094D01*
X141767Y148443D01*
X141780Y148461D01*
X141786Y148480D01*
X141797Y148497D01*
X141822Y148598D01*
X141853Y148696D01*
X141852Y148716D01*
X141857Y148736D01*
X141849Y148839D01*
X141847Y148942D01*
X141840Y148961D01*
X141838Y148981D01*
X141798Y149076D01*
X141767Y149159D01*
X141767Y156443D01*
X141780Y156461D01*
X141786Y156480D01*
X141797Y156497D01*
X141822Y156598D01*
X141853Y156696D01*
X141852Y156716D01*
X141857Y156736D01*
X141849Y156839D01*
X141847Y156942D01*
X141840Y156961D01*
X141838Y156981D01*
X141798Y157076D01*
X141767Y157159D01*
X141767Y164443D01*
X141780Y164461D01*
X141786Y164480D01*
X141797Y164497D01*
X141822Y164598D01*
X141853Y164696D01*
X141852Y164716D01*
X141857Y164736D01*
X141849Y164839D01*
X141847Y164942D01*
X141840Y164961D01*
X141838Y164981D01*
X141798Y165076D01*
X141767Y165159D01*
X141767Y172443D01*
X141780Y172461D01*
X141786Y172480D01*
X141797Y172497D01*
X141822Y172598D01*
X141853Y172696D01*
X141852Y172716D01*
X141857Y172736D01*
X141849Y172839D01*
X141847Y172942D01*
X141840Y172961D01*
X141838Y172981D01*
X141798Y173076D01*
X141767Y173159D01*
X141767Y180443D01*
X141780Y180461D01*
X141786Y180480D01*
X141797Y180497D01*
X141822Y180598D01*
X141853Y180696D01*
X141852Y180716D01*
X141857Y180736D01*
X141849Y180839D01*
X141847Y180942D01*
X141840Y180961D01*
X141838Y180981D01*
X141798Y181076D01*
X141767Y181159D01*
X141767Y188443D01*
X141780Y188461D01*
X141786Y188480D01*
X141797Y188497D01*
X141822Y188598D01*
X141853Y188696D01*
X141852Y188716D01*
X141857Y188736D01*
X141849Y188839D01*
X141847Y188942D01*
X141840Y188961D01*
X141838Y188981D01*
X141798Y189076D01*
X141767Y189159D01*
X141767Y189369D01*
X141760Y189414D01*
X141762Y189460D01*
X141740Y189535D01*
X141728Y189612D01*
X141706Y189652D01*
X141693Y189696D01*
X141649Y189760D01*
X141612Y189829D01*
X141579Y189861D01*
X141553Y189898D01*
X141490Y189945D01*
X141434Y189999D01*
X141392Y190018D01*
X141356Y190045D01*
X141282Y190069D01*
X141211Y190102D01*
X141165Y190107D01*
X141122Y190121D01*
X141044Y190121D01*
X140967Y190129D01*
X140922Y190119D01*
X140876Y190119D01*
X140744Y190081D01*
X140726Y190077D01*
X140722Y190074D01*
X140715Y190072D01*
X139425Y189538D01*
X137253Y189538D01*
X135245Y190370D01*
X133709Y191906D01*
X132877Y193914D01*
X132877Y195835D01*
X132874Y195854D01*
X132876Y195872D01*
X132861Y195941D01*
X132855Y196016D01*
X132843Y196046D01*
X132838Y196078D01*
X132827Y196097D01*
X132824Y196113D01*
X132790Y196169D01*
X132759Y196242D01*
X132733Y196274D01*
X132722Y196295D01*
X132705Y196311D01*
X132698Y196324D01*
X132685Y196335D01*
X132654Y196373D01*
X132299Y196728D01*
X132225Y196781D01*
X132156Y196841D01*
X132126Y196853D01*
X132099Y196872D01*
X132012Y196899D01*
X131928Y196933D01*
X131887Y196937D01*
X131864Y196944D01*
X131832Y196943D01*
X131761Y196951D01*
X86578Y196951D01*
X86488Y196937D01*
X86397Y196929D01*
X86367Y196917D01*
X86335Y196912D01*
X86255Y196869D01*
X86171Y196833D01*
X86139Y196807D01*
X86118Y196796D01*
X86096Y196773D01*
X86040Y196728D01*
X83272Y193960D01*
X83219Y193886D01*
X83159Y193817D01*
X83147Y193787D01*
X83128Y193760D01*
X83101Y193673D01*
X83067Y193589D01*
X83063Y193548D01*
X83056Y193525D01*
X83057Y193493D01*
X83049Y193422D01*
X83049Y168737D01*
X80063Y165751D01*
X77594Y165751D01*
X77574Y165748D01*
X77555Y165750D01*
X77453Y165728D01*
X77351Y165712D01*
X77334Y165702D01*
X77314Y165698D01*
X77225Y165645D01*
X77134Y165596D01*
X77120Y165582D01*
X77103Y165572D01*
X77036Y165493D01*
X76964Y165418D01*
X76956Y165400D01*
X76943Y165385D01*
X76904Y165289D01*
X76862Y165198D01*
X76820Y165139D01*
X76814Y165120D01*
X76803Y165103D01*
X76778Y165002D01*
X76747Y164904D01*
X76748Y164884D01*
X76743Y164864D01*
X76751Y164761D01*
X76753Y164658D01*
X76760Y164639D01*
X76762Y164619D01*
X76802Y164524D01*
X76833Y164441D01*
X76833Y157157D01*
X76820Y157139D01*
X76814Y157120D01*
X76803Y157103D01*
X76778Y157002D01*
X76747Y156904D01*
X76748Y156884D01*
X76743Y156864D01*
X76751Y156761D01*
X76753Y156658D01*
X76760Y156639D01*
X76762Y156619D01*
X76802Y156524D01*
X76833Y156441D01*
X76833Y149157D01*
X76819Y149139D01*
X76814Y149119D01*
X76803Y149103D01*
X76778Y149002D01*
X76747Y148903D01*
X76748Y148883D01*
X76743Y148864D01*
X76751Y148761D01*
X76753Y148658D01*
X76760Y148639D01*
X76762Y148619D01*
X76802Y148524D01*
X76833Y148441D01*
X76833Y141094D01*
X76836Y141074D01*
X76834Y141055D01*
X76856Y140953D01*
X76872Y140851D01*
X76882Y140834D01*
X76886Y140814D01*
X76939Y140725D01*
X76988Y140634D01*
X77002Y140620D01*
X77012Y140603D01*
X77091Y140536D01*
X77166Y140464D01*
X77184Y140456D01*
X77199Y140443D01*
X77295Y140404D01*
X77389Y140361D01*
X77409Y140359D01*
X77427Y140351D01*
X77594Y140333D01*
X84943Y140333D01*
X84961Y140320D01*
X84980Y140314D01*
X84997Y140303D01*
X85098Y140278D01*
X85196Y140247D01*
X85216Y140248D01*
X85236Y140243D01*
X85339Y140251D01*
X85442Y140253D01*
X85461Y140260D01*
X85481Y140262D01*
X85576Y140302D01*
X85659Y140333D01*
X92943Y140333D01*
X92961Y140320D01*
X92980Y140314D01*
X92997Y140303D01*
X93098Y140278D01*
X93196Y140247D01*
X93216Y140248D01*
X93236Y140243D01*
X93339Y140251D01*
X93442Y140253D01*
X93461Y140260D01*
X93481Y140262D01*
X93576Y140302D01*
X93659Y140333D01*
X100943Y140333D01*
X100961Y140319D01*
X100981Y140314D01*
X100997Y140303D01*
X101098Y140278D01*
X101197Y140247D01*
X101217Y140248D01*
X101236Y140243D01*
X101339Y140251D01*
X101442Y140253D01*
X101461Y140260D01*
X101481Y140262D01*
X101576Y140302D01*
X101659Y140333D01*
X108785Y140333D01*
X108898Y140351D01*
X109012Y140367D01*
X109022Y140371D01*
X109028Y140372D01*
X109048Y140383D01*
X109166Y140435D01*
X109569Y140668D01*
X110216Y140841D01*
X111926Y140841D01*
X111926Y130913D01*
X111929Y130894D01*
X111927Y130874D01*
X111949Y130772D01*
X111965Y130670D01*
X111975Y130653D01*
X111979Y130633D01*
X112032Y130544D01*
X112081Y130453D01*
X112095Y130439D01*
X112105Y130422D01*
X112184Y130355D01*
X112259Y130284D01*
X112277Y130275D01*
X112292Y130262D01*
X112388Y130224D01*
X112482Y130180D01*
X112502Y130178D01*
X112520Y130170D01*
X112687Y130152D01*
X113913Y130152D01*
X113933Y130155D01*
G37*
G36*
X134720Y84253D02*
X134720Y84253D01*
X134791Y84259D01*
X134839Y84279D01*
X134890Y84290D01*
X134951Y84327D01*
X135017Y84355D01*
X135073Y84400D01*
X135101Y84416D01*
X135116Y84434D01*
X135148Y84460D01*
X136728Y86040D01*
X138737Y88049D01*
X157048Y88049D01*
X157138Y88063D01*
X157229Y88071D01*
X157259Y88083D01*
X157291Y88088D01*
X157372Y88131D01*
X157456Y88167D01*
X157488Y88193D01*
X157508Y88204D01*
X157531Y88227D01*
X157587Y88272D01*
X158945Y89630D01*
X160953Y90462D01*
X163125Y90462D01*
X165133Y89630D01*
X166707Y88056D01*
X166781Y88003D01*
X166851Y87943D01*
X166881Y87931D01*
X166907Y87912D01*
X166994Y87885D01*
X167079Y87851D01*
X167120Y87847D01*
X167142Y87840D01*
X167174Y87841D01*
X167246Y87833D01*
X173206Y87833D01*
X173296Y87847D01*
X173387Y87855D01*
X173417Y87867D01*
X173449Y87872D01*
X173529Y87915D01*
X173613Y87951D01*
X173645Y87977D01*
X173666Y87988D01*
X173688Y88011D01*
X173744Y88056D01*
X173960Y88272D01*
X175156Y89468D01*
X175198Y89526D01*
X175247Y89578D01*
X175269Y89625D01*
X175300Y89667D01*
X175321Y89736D01*
X175351Y89801D01*
X175357Y89853D01*
X175372Y89903D01*
X175370Y89974D01*
X175378Y90045D01*
X175367Y90096D01*
X175366Y90148D01*
X175341Y90216D01*
X175326Y90286D01*
X175299Y90331D01*
X175281Y90379D01*
X175236Y90435D01*
X175200Y90497D01*
X175160Y90531D01*
X175128Y90571D01*
X175067Y90610D01*
X175013Y90657D01*
X174964Y90676D01*
X174921Y90704D01*
X174851Y90722D01*
X174785Y90749D01*
X174713Y90757D01*
X174682Y90765D01*
X174659Y90763D01*
X174618Y90767D01*
X166658Y90767D01*
X165467Y91958D01*
X165467Y103781D01*
X165464Y103800D01*
X165466Y103820D01*
X165444Y103921D01*
X165440Y103945D01*
X165440Y109560D01*
X170386Y109560D01*
X170223Y108743D01*
X170220Y108648D01*
X170210Y108555D01*
X170216Y108526D01*
X170215Y108497D01*
X170242Y108406D01*
X170262Y108314D01*
X170277Y108289D01*
X170285Y108261D01*
X170340Y108184D01*
X170388Y108103D01*
X170410Y108084D01*
X170427Y108060D01*
X170503Y108005D01*
X170575Y107943D01*
X170602Y107932D01*
X170626Y107915D01*
X170715Y107887D01*
X170803Y107851D01*
X170840Y107847D01*
X170860Y107841D01*
X170893Y107841D01*
X170970Y107833D01*
X173206Y107833D01*
X173296Y107847D01*
X173387Y107855D01*
X173417Y107867D01*
X173449Y107872D01*
X173529Y107915D01*
X173613Y107951D01*
X173645Y107977D01*
X173666Y107988D01*
X173688Y108011D01*
X173744Y108056D01*
X174460Y108772D01*
X178256Y112568D01*
X178298Y112626D01*
X178347Y112678D01*
X178369Y112725D01*
X178400Y112767D01*
X178421Y112836D01*
X178451Y112901D01*
X178457Y112953D01*
X178472Y113003D01*
X178470Y113074D01*
X178478Y113145D01*
X178467Y113196D01*
X178466Y113248D01*
X178441Y113316D01*
X178426Y113386D01*
X178399Y113431D01*
X178381Y113479D01*
X178336Y113535D01*
X178300Y113597D01*
X178260Y113631D01*
X178228Y113671D01*
X178167Y113710D01*
X178113Y113757D01*
X178064Y113776D01*
X178021Y113804D01*
X177951Y113822D01*
X177885Y113849D01*
X177813Y113857D01*
X177782Y113865D01*
X177759Y113863D01*
X177718Y113867D01*
X170699Y113867D01*
X170654Y113860D01*
X170608Y113862D01*
X170533Y113840D01*
X170457Y113828D01*
X170416Y113806D01*
X170372Y113793D01*
X170308Y113749D01*
X170239Y113712D01*
X170208Y113679D01*
X170170Y113653D01*
X170123Y113590D01*
X170070Y113534D01*
X170051Y113493D01*
X170023Y113456D01*
X169999Y113381D01*
X169966Y113311D01*
X169961Y113265D01*
X169947Y113222D01*
X169948Y113144D01*
X169939Y113067D01*
X169949Y113022D01*
X169949Y112976D01*
X169987Y112845D01*
X169991Y112826D01*
X169994Y112822D01*
X169996Y112815D01*
X170229Y112253D01*
X170386Y111463D01*
X165440Y111463D01*
X165440Y117048D01*
X165441Y117057D01*
X165449Y117076D01*
X165467Y117242D01*
X165467Y118590D01*
X165464Y118610D01*
X165466Y118629D01*
X165444Y118731D01*
X165428Y118833D01*
X165418Y118850D01*
X165414Y118870D01*
X165361Y118959D01*
X165312Y119050D01*
X165298Y119064D01*
X165288Y119081D01*
X165209Y119148D01*
X165134Y119220D01*
X165116Y119228D01*
X165101Y119241D01*
X165005Y119280D01*
X164911Y119323D01*
X164891Y119325D01*
X164873Y119333D01*
X164706Y119351D01*
X156337Y119351D01*
X155769Y119919D01*
X155732Y119946D01*
X155701Y119980D01*
X155632Y120018D01*
X155569Y120063D01*
X155525Y120076D01*
X155485Y120099D01*
X155409Y120112D01*
X155334Y120135D01*
X155288Y120134D01*
X155243Y120142D01*
X155166Y120131D01*
X155088Y120129D01*
X155045Y120113D01*
X155000Y120107D01*
X154930Y120071D01*
X154857Y120045D01*
X154821Y120016D01*
X154781Y119995D01*
X154726Y119939D01*
X154665Y119891D01*
X154640Y119852D01*
X154608Y119819D01*
X154542Y119700D01*
X154532Y119684D01*
X154531Y119679D01*
X154527Y119672D01*
X153993Y118383D01*
X152457Y116847D01*
X150450Y116015D01*
X148528Y116015D01*
X148438Y116001D01*
X148347Y115993D01*
X148318Y115981D01*
X148286Y115976D01*
X148205Y115933D01*
X148121Y115897D01*
X148089Y115871D01*
X148068Y115860D01*
X148046Y115837D01*
X147990Y115792D01*
X144638Y112440D01*
X144596Y112382D01*
X144547Y112330D01*
X144525Y112283D01*
X144494Y112241D01*
X144473Y112172D01*
X144443Y112107D01*
X144437Y112055D01*
X144422Y112005D01*
X144424Y111934D01*
X144416Y111863D01*
X144427Y111812D01*
X144428Y111760D01*
X144453Y111692D01*
X144468Y111622D01*
X144495Y111577D01*
X144513Y111529D01*
X144558Y111473D01*
X144594Y111411D01*
X144634Y111377D01*
X144667Y111337D01*
X144727Y111298D01*
X144781Y111251D01*
X144830Y111232D01*
X144873Y111204D01*
X144943Y111186D01*
X145010Y111159D01*
X145081Y111151D01*
X145112Y111143D01*
X145135Y111145D01*
X145176Y111141D01*
X148277Y111141D01*
X148277Y101862D01*
X148280Y101842D01*
X148278Y101823D01*
X148300Y101721D01*
X148317Y101619D01*
X148326Y101602D01*
X148330Y101582D01*
X148383Y101493D01*
X148432Y101402D01*
X148446Y101388D01*
X148456Y101371D01*
X148535Y101304D01*
X148610Y101233D01*
X148628Y101224D01*
X148643Y101211D01*
X148739Y101172D01*
X148833Y101129D01*
X148853Y101127D01*
X148871Y101119D01*
X149038Y101101D01*
X149801Y101101D01*
X149801Y101099D01*
X149038Y101099D01*
X149018Y101096D01*
X148999Y101098D01*
X148897Y101076D01*
X148795Y101059D01*
X148778Y101050D01*
X148758Y101046D01*
X148669Y100993D01*
X148578Y100944D01*
X148564Y100930D01*
X148547Y100920D01*
X148480Y100841D01*
X148409Y100766D01*
X148400Y100748D01*
X148387Y100733D01*
X148348Y100637D01*
X148305Y100543D01*
X148303Y100523D01*
X148295Y100505D01*
X148277Y100338D01*
X148277Y91059D01*
X142966Y91059D01*
X142319Y91232D01*
X141740Y91567D01*
X141267Y92040D01*
X140932Y92619D01*
X140829Y93004D01*
X140819Y93026D01*
X140815Y93050D01*
X140769Y93138D01*
X140728Y93228D01*
X140712Y93246D01*
X140700Y93267D01*
X140629Y93336D01*
X140561Y93409D01*
X140540Y93420D01*
X140522Y93437D01*
X140432Y93479D01*
X140345Y93526D01*
X140321Y93530D01*
X140299Y93540D01*
X140200Y93551D01*
X140102Y93568D01*
X140078Y93565D01*
X140055Y93567D01*
X139958Y93546D01*
X139859Y93531D01*
X139838Y93520D01*
X139814Y93515D01*
X139729Y93464D01*
X139640Y93419D01*
X139624Y93401D01*
X139603Y93389D01*
X139538Y93313D01*
X139469Y93242D01*
X139459Y93220D01*
X139443Y93202D01*
X139406Y93110D01*
X139363Y93020D01*
X139360Y92996D01*
X139351Y92974D01*
X139333Y92807D01*
X139333Y92758D01*
X138142Y91567D01*
X134610Y91567D01*
X134590Y91564D01*
X134571Y91566D01*
X134469Y91544D01*
X134367Y91528D01*
X134350Y91518D01*
X134330Y91514D01*
X134241Y91461D01*
X134150Y91412D01*
X134136Y91398D01*
X134119Y91388D01*
X134052Y91309D01*
X133980Y91234D01*
X133972Y91216D01*
X133959Y91201D01*
X133920Y91105D01*
X133877Y91011D01*
X133875Y90991D01*
X133867Y90973D01*
X133849Y90806D01*
X133849Y84998D01*
X133860Y84927D01*
X133862Y84856D01*
X133880Y84807D01*
X133888Y84755D01*
X133922Y84692D01*
X133947Y84625D01*
X133979Y84584D01*
X134004Y84538D01*
X134056Y84489D01*
X134100Y84433D01*
X134144Y84404D01*
X134182Y84369D01*
X134247Y84338D01*
X134307Y84300D01*
X134358Y84287D01*
X134405Y84265D01*
X134476Y84257D01*
X134546Y84240D01*
X134598Y84244D01*
X134649Y84238D01*
X134720Y84253D01*
G37*
%LPC*%
G36*
X181949Y157427D02*
X181949Y157427D01*
X177648Y161728D01*
X177574Y161781D01*
X177505Y161841D01*
X177474Y161853D01*
X177448Y161872D01*
X177361Y161899D01*
X177276Y161933D01*
X177236Y161937D01*
X177213Y161944D01*
X177181Y161943D01*
X177110Y161951D01*
X174991Y161951D01*
X174901Y161937D01*
X174810Y161929D01*
X174780Y161917D01*
X174748Y161912D01*
X174667Y161869D01*
X174583Y161833D01*
X174551Y161807D01*
X174531Y161796D01*
X174508Y161773D01*
X174452Y161728D01*
X173094Y160370D01*
X171086Y159538D01*
X168914Y159538D01*
X166906Y160370D01*
X165370Y161906D01*
X164538Y163914D01*
X164538Y166086D01*
X165370Y168094D01*
X166906Y169630D01*
X168914Y170462D01*
X171086Y170462D01*
X173094Y169630D01*
X174452Y168272D01*
X174526Y168219D01*
X174596Y168159D01*
X174626Y168147D01*
X174652Y168128D01*
X174739Y168101D01*
X174824Y168067D01*
X174865Y168063D01*
X174887Y168056D01*
X174919Y168057D01*
X174991Y168049D01*
X176166Y168049D01*
X176186Y168052D01*
X176205Y168050D01*
X176307Y168072D01*
X176409Y168088D01*
X176426Y168098D01*
X176446Y168102D01*
X176535Y168155D01*
X176626Y168204D01*
X176640Y168218D01*
X176657Y168228D01*
X176724Y168307D01*
X176796Y168382D01*
X176804Y168400D01*
X176817Y168415D01*
X176856Y168511D01*
X176899Y168605D01*
X176901Y168625D01*
X176909Y168643D01*
X176927Y168810D01*
X176927Y169551D01*
X181949Y174573D01*
X189051Y174573D01*
X194073Y169551D01*
X194073Y162449D01*
X189051Y157427D01*
X181949Y157427D01*
G37*
%LPD*%
G36*
X17048Y197414D02*
X17048Y197414D01*
X17119Y197420D01*
X17167Y197440D01*
X17218Y197451D01*
X17279Y197488D01*
X17345Y197516D01*
X17401Y197561D01*
X17429Y197577D01*
X17444Y197595D01*
X17476Y197621D01*
X18108Y198253D01*
X21469Y199645D01*
X25075Y199645D01*
X25146Y199656D01*
X25217Y199658D01*
X25266Y199676D01*
X25318Y199684D01*
X25381Y199718D01*
X25448Y199743D01*
X25489Y199775D01*
X25535Y199800D01*
X25584Y199851D01*
X25640Y199896D01*
X25669Y199940D01*
X25704Y199978D01*
X25735Y200043D01*
X25773Y200103D01*
X25786Y200154D01*
X25808Y200201D01*
X25816Y200272D01*
X25834Y200342D01*
X25829Y200394D01*
X25835Y200445D01*
X25820Y200516D01*
X25814Y200587D01*
X25794Y200635D01*
X25783Y200686D01*
X25746Y200747D01*
X25718Y200813D01*
X25673Y200869D01*
X25657Y200897D01*
X25639Y200912D01*
X25613Y200944D01*
X25363Y201194D01*
X24710Y202172D01*
X24260Y203259D01*
X24103Y204048D01*
X29809Y204048D01*
X29829Y204051D01*
X29849Y204049D01*
X29950Y204071D01*
X29984Y204077D01*
X29986Y204076D01*
X30005Y204074D01*
X30024Y204067D01*
X30191Y204048D01*
X35897Y204048D01*
X35880Y203959D01*
X35876Y203864D01*
X35866Y203771D01*
X35872Y203742D01*
X35871Y203713D01*
X35898Y203622D01*
X35918Y203530D01*
X35933Y203505D01*
X35942Y203477D01*
X35996Y203400D01*
X36044Y203319D01*
X36067Y203300D01*
X36083Y203276D01*
X36159Y203221D01*
X36231Y203159D01*
X36259Y203148D01*
X36282Y203131D01*
X36372Y203103D01*
X36459Y203067D01*
X36496Y203063D01*
X36517Y203057D01*
X36549Y203057D01*
X36626Y203049D01*
X42389Y203049D01*
X42460Y203060D01*
X42532Y203062D01*
X42581Y203080D01*
X42632Y203088D01*
X42695Y203122D01*
X42763Y203147D01*
X42804Y203179D01*
X42850Y203204D01*
X42899Y203256D01*
X42955Y203300D01*
X42983Y203344D01*
X43019Y203382D01*
X43049Y203447D01*
X43088Y203507D01*
X43101Y203558D01*
X43123Y203605D01*
X43130Y203676D01*
X43148Y203746D01*
X43144Y203798D01*
X43150Y203849D01*
X43134Y203920D01*
X43129Y203991D01*
X43108Y204039D01*
X43097Y204090D01*
X43061Y204151D01*
X43032Y204217D01*
X42988Y204273D01*
X42971Y204301D01*
X42953Y204316D01*
X42928Y204348D01*
X42566Y204710D01*
X41856Y206424D01*
X41796Y206521D01*
X41740Y206618D01*
X41732Y206625D01*
X41726Y206633D01*
X41639Y206705D01*
X41554Y206780D01*
X41545Y206784D01*
X41537Y206790D01*
X41432Y206831D01*
X41327Y206874D01*
X41317Y206875D01*
X41307Y206878D01*
X41195Y206883D01*
X41082Y206891D01*
X41070Y206888D01*
X41062Y206889D01*
X41037Y206882D01*
X40917Y206857D01*
X39772Y206485D01*
X38272Y206247D01*
X36731Y206247D01*
X36711Y206244D01*
X36692Y206246D01*
X36590Y206224D01*
X36488Y206208D01*
X36471Y206198D01*
X36451Y206194D01*
X36362Y206141D01*
X36271Y206092D01*
X36257Y206078D01*
X36240Y206068D01*
X36173Y205989D01*
X36137Y205952D01*
X30952Y205952D01*
X30952Y210897D01*
X31013Y210885D01*
X31108Y210882D01*
X31201Y210871D01*
X31230Y210878D01*
X31259Y210877D01*
X31350Y210904D01*
X31442Y210924D01*
X31467Y210939D01*
X31495Y210947D01*
X31572Y211002D01*
X31653Y211050D01*
X31672Y211072D01*
X31696Y211089D01*
X31751Y211165D01*
X31813Y211237D01*
X31824Y211264D01*
X31841Y211288D01*
X31869Y211377D01*
X31905Y211465D01*
X31909Y211502D01*
X31915Y211522D01*
X31915Y211555D01*
X31923Y211632D01*
X31923Y215138D01*
X31920Y215158D01*
X31922Y215177D01*
X31900Y215279D01*
X31883Y215381D01*
X31874Y215398D01*
X31870Y215418D01*
X31817Y215507D01*
X31768Y215598D01*
X31754Y215612D01*
X31744Y215629D01*
X31665Y215696D01*
X31590Y215767D01*
X31572Y215776D01*
X31557Y215789D01*
X31461Y215827D01*
X31367Y215871D01*
X31347Y215873D01*
X31329Y215881D01*
X31162Y215899D01*
X29638Y215899D01*
X29618Y215896D01*
X29599Y215898D01*
X29497Y215876D01*
X29395Y215859D01*
X29378Y215850D01*
X29358Y215846D01*
X29269Y215793D01*
X29178Y215744D01*
X29164Y215730D01*
X29147Y215720D01*
X29080Y215641D01*
X29009Y215566D01*
X29000Y215548D01*
X28987Y215533D01*
X28948Y215437D01*
X28905Y215343D01*
X28903Y215323D01*
X28895Y215305D01*
X28877Y215138D01*
X28877Y211731D01*
X28880Y211711D01*
X28878Y211692D01*
X28900Y211590D01*
X28917Y211488D01*
X28926Y211471D01*
X28930Y211451D01*
X28983Y211362D01*
X29032Y211271D01*
X29046Y211257D01*
X29048Y211253D01*
X29048Y205952D01*
X23870Y205952D01*
X23861Y205960D01*
X23851Y205977D01*
X23772Y206044D01*
X23697Y206116D01*
X23679Y206124D01*
X23664Y206137D01*
X23568Y206176D01*
X23474Y206219D01*
X23454Y206221D01*
X23436Y206229D01*
X23269Y206247D01*
X22528Y206247D01*
X21028Y206485D01*
X19583Y206954D01*
X18229Y207644D01*
X17385Y208257D01*
X17375Y208262D01*
X17366Y208271D01*
X17265Y208317D01*
X17166Y208368D01*
X17154Y208369D01*
X17143Y208374D01*
X17033Y208386D01*
X16922Y208402D01*
X16910Y208400D01*
X16899Y208401D01*
X16790Y208378D01*
X16680Y208357D01*
X16670Y208352D01*
X16658Y208349D01*
X16563Y208292D01*
X16465Y208238D01*
X16457Y208229D01*
X16447Y208223D01*
X16375Y208139D01*
X16300Y208056D01*
X16295Y208045D01*
X16287Y208036D01*
X16245Y207933D01*
X16201Y207831D01*
X16200Y207819D01*
X16195Y207808D01*
X16177Y207641D01*
X16177Y198159D01*
X16188Y198088D01*
X16190Y198017D01*
X16208Y197968D01*
X16216Y197916D01*
X16250Y197853D01*
X16275Y197786D01*
X16307Y197745D01*
X16332Y197699D01*
X16384Y197650D01*
X16428Y197594D01*
X16472Y197566D01*
X16510Y197530D01*
X16575Y197499D01*
X16635Y197461D01*
X16686Y197448D01*
X16733Y197426D01*
X16804Y197418D01*
X16874Y197401D01*
X16926Y197405D01*
X16977Y197399D01*
X17048Y197414D01*
G37*
G36*
X158416Y205598D02*
X158416Y205598D01*
X158510Y205606D01*
X158537Y205618D01*
X158565Y205622D01*
X158649Y205666D01*
X158735Y205704D01*
X158757Y205724D01*
X158783Y205738D01*
X158848Y205806D01*
X158918Y205869D01*
X158932Y205895D01*
X158952Y205916D01*
X158992Y206001D01*
X159038Y206084D01*
X159044Y206112D01*
X159056Y206139D01*
X159066Y206232D01*
X159084Y206325D01*
X164809Y206325D01*
X164829Y206328D01*
X164849Y206326D01*
X164950Y206348D01*
X165052Y206365D01*
X165070Y206374D01*
X165089Y206378D01*
X165178Y206432D01*
X165269Y206480D01*
X165283Y206494D01*
X165300Y206505D01*
X165368Y206583D01*
X165439Y206658D01*
X165447Y206676D01*
X165460Y206692D01*
X165499Y206788D01*
X165542Y206881D01*
X165545Y206901D01*
X165552Y206920D01*
X165571Y207086D01*
X165571Y207468D01*
X165567Y207487D01*
X165570Y207507D01*
X165548Y207608D01*
X165531Y207710D01*
X165522Y207728D01*
X165517Y207747D01*
X165464Y207836D01*
X165416Y207928D01*
X165401Y207941D01*
X165391Y207958D01*
X165312Y208026D01*
X165237Y208097D01*
X165219Y208105D01*
X165204Y208118D01*
X165108Y208157D01*
X165014Y208201D01*
X164995Y208203D01*
X164976Y208210D01*
X164809Y208229D01*
X159103Y208229D01*
X159260Y209018D01*
X159710Y210105D01*
X160353Y211067D01*
X160402Y211176D01*
X160453Y211285D01*
X160453Y211288D01*
X160455Y211291D01*
X160467Y211411D01*
X160480Y211529D01*
X160479Y211533D01*
X160480Y211536D01*
X160453Y211652D01*
X160428Y211770D01*
X160426Y211773D01*
X160425Y211776D01*
X160363Y211878D01*
X160302Y211981D01*
X160299Y211983D01*
X160298Y211986D01*
X160205Y212063D01*
X160115Y212141D01*
X160112Y212142D01*
X160109Y212144D01*
X159999Y212187D01*
X159886Y212233D01*
X159883Y212233D01*
X159880Y212234D01*
X159870Y212235D01*
X159720Y212251D01*
X142844Y212251D01*
X142824Y212248D01*
X142805Y212250D01*
X142703Y212228D01*
X142601Y212212D01*
X142584Y212202D01*
X142564Y212198D01*
X142475Y212145D01*
X142384Y212096D01*
X142370Y212082D01*
X142353Y212072D01*
X142286Y211993D01*
X142214Y211918D01*
X142206Y211900D01*
X142193Y211885D01*
X142154Y211789D01*
X142111Y211695D01*
X142109Y211675D01*
X142101Y211657D01*
X142083Y211490D01*
X142083Y206344D01*
X142086Y206324D01*
X142084Y206305D01*
X142106Y206203D01*
X142122Y206101D01*
X142132Y206084D01*
X142136Y206064D01*
X142189Y205975D01*
X142238Y205884D01*
X142252Y205870D01*
X142262Y205853D01*
X142341Y205786D01*
X142416Y205714D01*
X142434Y205706D01*
X142449Y205693D01*
X142545Y205654D01*
X142639Y205611D01*
X142659Y205609D01*
X142677Y205601D01*
X142844Y205583D01*
X158323Y205583D01*
X158416Y205598D01*
G37*
%LPC*%
G36*
X151323Y102623D02*
X151323Y102623D01*
X151323Y111141D01*
X156634Y111141D01*
X157281Y110968D01*
X157448Y110871D01*
X157467Y110864D01*
X157484Y110851D01*
X157582Y110820D01*
X157678Y110784D01*
X157699Y110783D01*
X157719Y110777D01*
X157821Y110779D01*
X157924Y110775D01*
X157944Y110781D01*
X157965Y110781D01*
X158061Y110816D01*
X158159Y110845D01*
X158177Y110857D01*
X158196Y110864D01*
X158277Y110927D01*
X158361Y110986D01*
X158373Y111003D01*
X158390Y111016D01*
X158446Y111102D01*
X158506Y111184D01*
X158513Y111204D01*
X158524Y111222D01*
X158575Y111382D01*
X158748Y112253D01*
X159198Y113339D01*
X159852Y114317D01*
X160683Y115148D01*
X161661Y115802D01*
X162747Y116252D01*
X163537Y116409D01*
X163537Y110702D01*
X163540Y110683D01*
X163538Y110663D01*
X163560Y110561D01*
X163565Y110527D01*
X163565Y110526D01*
X163563Y110506D01*
X163555Y110488D01*
X163537Y110321D01*
X163537Y104614D01*
X162747Y104771D01*
X161661Y105221D01*
X160683Y105875D01*
X160140Y106417D01*
X160082Y106459D01*
X160030Y106508D01*
X159983Y106530D01*
X159941Y106561D01*
X159872Y106582D01*
X159807Y106612D01*
X159755Y106618D01*
X159705Y106633D01*
X159634Y106631D01*
X159563Y106639D01*
X159512Y106628D01*
X159460Y106627D01*
X159392Y106602D01*
X159322Y106587D01*
X159277Y106560D01*
X159229Y106542D01*
X159173Y106498D01*
X159111Y106461D01*
X159077Y106421D01*
X159037Y106389D01*
X158998Y106328D01*
X158951Y106274D01*
X158932Y106226D01*
X158904Y106182D01*
X158886Y106112D01*
X158859Y106046D01*
X158851Y105974D01*
X158843Y105943D01*
X158845Y105920D01*
X158841Y105879D01*
X158841Y102623D01*
X151323Y102623D01*
G37*
%LPD*%
%LPC*%
G36*
X164723Y23877D02*
X164723Y23877D01*
X172853Y23877D01*
X172853Y17528D01*
X172615Y16028D01*
X172146Y14583D01*
X171456Y13229D01*
X170563Y12000D01*
X169488Y10925D01*
X168259Y10032D01*
X166905Y9342D01*
X165460Y8873D01*
X164723Y8756D01*
X164723Y23877D01*
G37*
%LPD*%
%LPC*%
G36*
X153547Y26923D02*
X153547Y26923D01*
X153547Y33272D01*
X153785Y34772D01*
X154254Y36217D01*
X154944Y37571D01*
X155837Y38800D01*
X156912Y39875D01*
X158141Y40768D01*
X159495Y41458D01*
X160940Y41927D01*
X161677Y42044D01*
X161677Y26923D01*
X153547Y26923D01*
G37*
%LPD*%
%LPC*%
G36*
X160940Y8873D02*
X160940Y8873D01*
X159495Y9342D01*
X158141Y10032D01*
X156912Y10925D01*
X155837Y12000D01*
X154944Y13229D01*
X154254Y14583D01*
X153785Y16028D01*
X153547Y17528D01*
X153547Y23877D01*
X161677Y23877D01*
X161677Y8756D01*
X160940Y8873D01*
G37*
%LPD*%
G36*
X175309Y199367D02*
X175309Y199367D01*
X175413Y199370D01*
X175431Y199377D01*
X175451Y199378D01*
X175546Y199419D01*
X175644Y199455D01*
X175659Y199467D01*
X175678Y199475D01*
X175809Y199580D01*
X180266Y204037D01*
X186190Y204037D01*
X186210Y204040D01*
X186229Y204038D01*
X186331Y204060D01*
X186433Y204076D01*
X186450Y204086D01*
X186470Y204090D01*
X186559Y204143D01*
X186650Y204192D01*
X186664Y204206D01*
X186681Y204216D01*
X186748Y204295D01*
X186820Y204370D01*
X186828Y204388D01*
X186841Y204403D01*
X186880Y204499D01*
X186923Y204593D01*
X186925Y204613D01*
X186933Y204631D01*
X186951Y204798D01*
X186951Y207466D01*
X186948Y207486D01*
X186950Y207505D01*
X186928Y207607D01*
X186912Y207709D01*
X186902Y207726D01*
X186898Y207746D01*
X186845Y207835D01*
X186796Y207926D01*
X186782Y207940D01*
X186772Y207957D01*
X186693Y208024D01*
X186618Y208096D01*
X186600Y208104D01*
X186585Y208117D01*
X186489Y208156D01*
X186395Y208199D01*
X186375Y208201D01*
X186357Y208209D01*
X186190Y208227D01*
X181949Y208227D01*
X181609Y208567D01*
X181572Y208594D01*
X181541Y208628D01*
X181493Y208654D01*
X181482Y208664D01*
X181466Y208670D01*
X181409Y208711D01*
X181365Y208724D01*
X181325Y208747D01*
X181248Y208760D01*
X181174Y208783D01*
X181128Y208782D01*
X181083Y208790D01*
X181006Y208779D01*
X180928Y208777D01*
X180885Y208761D01*
X180840Y208755D01*
X180770Y208719D01*
X180697Y208693D01*
X180661Y208664D01*
X180620Y208643D01*
X180566Y208587D01*
X180505Y208539D01*
X180480Y208500D01*
X180448Y208467D01*
X180382Y208348D01*
X180372Y208332D01*
X180371Y208327D01*
X180367Y208320D01*
X180105Y207686D01*
X179451Y206708D01*
X178620Y205877D01*
X177642Y205223D01*
X176555Y204773D01*
X175766Y204616D01*
X175766Y210323D01*
X175764Y210332D01*
X175765Y210336D01*
X175763Y210345D01*
X175765Y210363D01*
X175743Y210464D01*
X175726Y210566D01*
X175717Y210583D01*
X175713Y210603D01*
X175659Y210692D01*
X175611Y210783D01*
X175597Y210797D01*
X175586Y210814D01*
X175508Y210881D01*
X175433Y210953D01*
X175415Y210961D01*
X175400Y210974D01*
X175303Y211013D01*
X175210Y211056D01*
X175190Y211058D01*
X175171Y211066D01*
X175005Y211084D01*
X174624Y211084D01*
X174604Y211081D01*
X174584Y211083D01*
X174483Y211061D01*
X174381Y211045D01*
X174363Y211035D01*
X174344Y211031D01*
X174255Y210978D01*
X174164Y210930D01*
X174150Y210915D01*
X174133Y210905D01*
X174065Y210826D01*
X173994Y210751D01*
X173986Y210733D01*
X173973Y210718D01*
X173934Y210622D01*
X173891Y210528D01*
X173888Y210508D01*
X173881Y210490D01*
X173862Y210323D01*
X173862Y204616D01*
X173073Y204773D01*
X171986Y205224D01*
X171680Y205428D01*
X171595Y205467D01*
X171512Y205513D01*
X171483Y205518D01*
X171457Y205530D01*
X171363Y205539D01*
X171270Y205556D01*
X171241Y205552D01*
X171212Y205555D01*
X171120Y205534D01*
X171027Y205520D01*
X171000Y205507D01*
X170972Y205501D01*
X170891Y205452D01*
X170807Y205409D01*
X170787Y205388D01*
X170762Y205373D01*
X170701Y205301D01*
X170635Y205233D01*
X170617Y205201D01*
X170603Y205185D01*
X170591Y205154D01*
X170554Y205086D01*
X170360Y204617D01*
X170333Y204503D01*
X170304Y204389D01*
X170305Y204383D01*
X170303Y204377D01*
X170314Y204260D01*
X170323Y204144D01*
X170326Y204139D01*
X170327Y204132D01*
X170374Y204025D01*
X170420Y203918D01*
X170424Y203912D01*
X170427Y203907D01*
X170439Y203894D01*
X170525Y203787D01*
X174732Y199580D01*
X174748Y199568D01*
X174761Y199552D01*
X174848Y199496D01*
X174932Y199436D01*
X174951Y199430D01*
X174968Y199419D01*
X175068Y199394D01*
X175167Y199364D01*
X175187Y199364D01*
X175206Y199359D01*
X175309Y199367D01*
G37*
%LPC*%
G36*
X233365Y215321D02*
X233365Y215321D01*
X230559Y218127D01*
X230559Y222096D01*
X233365Y224902D01*
X237334Y224902D01*
X240141Y222096D01*
X240141Y218127D01*
X237334Y215321D01*
X233365Y215321D01*
G37*
%LPD*%
%LPC*%
G36*
X290933Y57010D02*
X290933Y57010D01*
X288127Y59816D01*
X288127Y63785D01*
X290933Y66591D01*
X294902Y66591D01*
X297708Y63785D01*
X297708Y59816D01*
X294902Y57010D01*
X290933Y57010D01*
G37*
%LPD*%
%LPC*%
G36*
X34419Y36692D02*
X34419Y36692D01*
X31612Y39498D01*
X31612Y43467D01*
X34419Y46273D01*
X38387Y46273D01*
X41194Y43467D01*
X41194Y39498D01*
X38387Y36692D01*
X34419Y36692D01*
G37*
%LPD*%
%LPC*%
G36*
X177023Y143923D02*
X177023Y143923D01*
X177023Y151441D01*
X183834Y151441D01*
X184481Y151268D01*
X185060Y150933D01*
X185533Y150460D01*
X185868Y149881D01*
X186041Y149234D01*
X186041Y143923D01*
X177023Y143923D01*
G37*
%LPD*%
%LPC*%
G36*
X151323Y91059D02*
X151323Y91059D01*
X151323Y99577D01*
X158841Y99577D01*
X158841Y93266D01*
X158668Y92619D01*
X158333Y92040D01*
X157860Y91567D01*
X157281Y91232D01*
X156634Y91059D01*
X151323Y91059D01*
G37*
%LPD*%
%LPC*%
G36*
X201819Y167523D02*
X201819Y167523D01*
X201819Y168950D01*
X201812Y168995D01*
X201814Y169041D01*
X201792Y169116D01*
X201780Y169193D01*
X201758Y169233D01*
X201745Y169277D01*
X201701Y169341D01*
X201664Y169410D01*
X201631Y169442D01*
X201605Y169479D01*
X201542Y169526D01*
X201486Y169579D01*
X201444Y169599D01*
X201408Y169626D01*
X201334Y169650D01*
X201263Y169683D01*
X201217Y169688D01*
X201174Y169702D01*
X201096Y169701D01*
X201019Y169710D01*
X200974Y169700D01*
X200928Y169700D01*
X200796Y169662D01*
X200778Y169658D01*
X200774Y169655D01*
X200767Y169653D01*
X200626Y169595D01*
X199836Y169438D01*
X199836Y174383D01*
X204894Y174383D01*
X204921Y174292D01*
X204935Y174273D01*
X204943Y174251D01*
X205005Y174173D01*
X205063Y174091D01*
X205082Y174077D01*
X205096Y174059D01*
X205181Y174005D01*
X205262Y173946D01*
X205284Y173939D01*
X205303Y173926D01*
X205401Y173902D01*
X205496Y173871D01*
X205519Y173872D01*
X205542Y173866D01*
X205642Y173874D01*
X205742Y173876D01*
X205764Y173883D01*
X205787Y173885D01*
X205879Y173924D01*
X205974Y173958D01*
X205992Y173972D01*
X206013Y173981D01*
X206144Y174086D01*
X207139Y175081D01*
X209377Y175081D01*
X209377Y167523D01*
X201819Y167523D01*
G37*
%LPD*%
G36*
X115416Y105015D02*
X115416Y105015D01*
X115520Y105017D01*
X115538Y105024D01*
X115558Y105026D01*
X115653Y105066D01*
X115751Y105102D01*
X115766Y105114D01*
X115784Y105122D01*
X115915Y105227D01*
X117980Y107292D01*
X118033Y107366D01*
X118093Y107435D01*
X118105Y107465D01*
X118124Y107492D01*
X118151Y107579D01*
X118185Y107663D01*
X118189Y107704D01*
X118196Y107727D01*
X118195Y107759D01*
X118203Y107830D01*
X118203Y108799D01*
X118196Y108845D01*
X118198Y108890D01*
X118176Y108965D01*
X118164Y109042D01*
X118142Y109083D01*
X118129Y109127D01*
X118085Y109191D01*
X118048Y109259D01*
X118015Y109291D01*
X117989Y109329D01*
X117926Y109375D01*
X117870Y109429D01*
X117828Y109448D01*
X117792Y109476D01*
X117718Y109500D01*
X117647Y109532D01*
X117601Y109537D01*
X117558Y109552D01*
X117480Y109551D01*
X117403Y109560D01*
X117358Y109550D01*
X117312Y109549D01*
X117181Y109511D01*
X117162Y109507D01*
X117158Y109505D01*
X117151Y109503D01*
X116564Y109260D01*
X115775Y109103D01*
X115775Y114809D01*
X115772Y114829D01*
X115774Y114849D01*
X115752Y114950D01*
X115735Y115052D01*
X115726Y115070D01*
X115721Y115089D01*
X115668Y115178D01*
X115620Y115269D01*
X115606Y115283D01*
X115595Y115300D01*
X115517Y115368D01*
X115442Y115439D01*
X115424Y115447D01*
X115408Y115460D01*
X115312Y115499D01*
X115219Y115542D01*
X115199Y115545D01*
X115180Y115552D01*
X115014Y115571D01*
X114632Y115571D01*
X114613Y115567D01*
X114593Y115570D01*
X114492Y115548D01*
X114390Y115531D01*
X114372Y115522D01*
X114353Y115517D01*
X114264Y115464D01*
X114172Y115416D01*
X114159Y115401D01*
X114142Y115391D01*
X114074Y115312D01*
X114003Y115237D01*
X113995Y115219D01*
X113982Y115204D01*
X113943Y115108D01*
X113899Y115014D01*
X113897Y114995D01*
X113890Y114976D01*
X113871Y114809D01*
X113871Y109103D01*
X113082Y109260D01*
X111995Y109710D01*
X111017Y110363D01*
X110140Y111241D01*
X110129Y111252D01*
X110070Y111326D01*
X110046Y111341D01*
X110026Y111363D01*
X109943Y111408D01*
X109863Y111459D01*
X109835Y111466D01*
X109810Y111480D01*
X109716Y111496D01*
X109625Y111519D01*
X109596Y111516D01*
X109567Y111521D01*
X109474Y111507D01*
X109380Y111500D01*
X109353Y111488D01*
X109324Y111484D01*
X109240Y111440D01*
X109153Y111403D01*
X109125Y111380D01*
X109106Y111370D01*
X109083Y111347D01*
X109022Y111298D01*
X108094Y110370D01*
X106805Y109836D01*
X106766Y109812D01*
X106722Y109796D01*
X106662Y109747D01*
X106595Y109706D01*
X106566Y109671D01*
X106530Y109642D01*
X106488Y109577D01*
X106439Y109517D01*
X106422Y109474D01*
X106397Y109435D01*
X106378Y109360D01*
X106350Y109287D01*
X106349Y109241D01*
X106337Y109197D01*
X106343Y109119D01*
X106340Y109041D01*
X106353Y108997D01*
X106356Y108951D01*
X106387Y108880D01*
X106409Y108805D01*
X106435Y108767D01*
X106453Y108725D01*
X106538Y108618D01*
X106549Y108603D01*
X106553Y108600D01*
X106558Y108594D01*
X108885Y106266D01*
X108959Y106213D01*
X109029Y106154D01*
X109059Y106142D01*
X109085Y106123D01*
X109172Y106096D01*
X109257Y106062D01*
X109298Y106057D01*
X109320Y106050D01*
X109352Y106051D01*
X109424Y106043D01*
X114022Y106043D01*
X114839Y105227D01*
X114855Y105215D01*
X114867Y105200D01*
X114955Y105144D01*
X115039Y105083D01*
X115058Y105078D01*
X115074Y105067D01*
X115175Y105041D01*
X115274Y105011D01*
X115294Y105012D01*
X115313Y105007D01*
X115416Y105015D01*
G37*
%LPC*%
G36*
X212423Y167523D02*
X212423Y167523D01*
X212423Y175081D01*
X214661Y175081D01*
X219981Y169761D01*
X219981Y167523D01*
X212423Y167523D01*
G37*
%LPD*%
%LPC*%
G36*
X155952Y222729D02*
X155952Y222729D01*
X155952Y227674D01*
X156741Y227517D01*
X157828Y227067D01*
X158806Y226414D01*
X159637Y225583D01*
X160290Y224605D01*
X160740Y223518D01*
X160897Y222729D01*
X155952Y222729D01*
G37*
%LPD*%
%LPC*%
G36*
X130952Y145952D02*
X130952Y145952D01*
X130952Y150897D01*
X131741Y150740D01*
X132828Y150290D01*
X133806Y149637D01*
X134637Y148806D01*
X135290Y147828D01*
X135740Y146741D01*
X135897Y145952D01*
X130952Y145952D01*
G37*
%LPD*%
%LPC*%
G36*
X115952Y234048D02*
X115952Y234048D01*
X120897Y234048D01*
X120740Y233259D01*
X120290Y232172D01*
X119637Y231194D01*
X118806Y230363D01*
X117828Y229710D01*
X116741Y229260D01*
X115952Y229103D01*
X115952Y234048D01*
G37*
%LPD*%
%LPC*%
G36*
X149103Y222729D02*
X149103Y222729D01*
X149260Y223518D01*
X149710Y224605D01*
X150363Y225583D01*
X151194Y226414D01*
X152172Y227067D01*
X153259Y227517D01*
X154048Y227674D01*
X154048Y222729D01*
X149103Y222729D01*
G37*
%LPD*%
%LPC*%
G36*
X124103Y145952D02*
X124103Y145952D01*
X124260Y146741D01*
X124710Y147828D01*
X125363Y148806D01*
X126194Y149637D01*
X127172Y150290D01*
X128259Y150740D01*
X129048Y150897D01*
X129048Y145952D01*
X124103Y145952D01*
G37*
%LPD*%
%LPC*%
G36*
X235952Y147571D02*
X235952Y147571D01*
X240897Y147571D01*
X240740Y146782D01*
X240290Y145695D01*
X239637Y144717D01*
X238806Y143886D01*
X237828Y143233D01*
X236741Y142783D01*
X235952Y142626D01*
X235952Y147571D01*
G37*
%LPD*%
%LPC*%
G36*
X113259Y229260D02*
X113259Y229260D01*
X112172Y229710D01*
X111194Y230363D01*
X110363Y231194D01*
X109710Y232172D01*
X109260Y233259D01*
X109103Y234048D01*
X114048Y234048D01*
X114048Y229103D01*
X113259Y229260D01*
G37*
%LPD*%
%LPC*%
G36*
X197143Y169595D02*
X197143Y169595D01*
X196057Y170045D01*
X195079Y170698D01*
X194247Y171529D01*
X193594Y172507D01*
X193144Y173594D01*
X192987Y174383D01*
X197933Y174383D01*
X197933Y169438D01*
X197143Y169595D01*
G37*
%LPD*%
%LPC*%
G36*
X233259Y142783D02*
X233259Y142783D01*
X232172Y143233D01*
X231194Y143886D01*
X230363Y144717D01*
X229710Y145695D01*
X229260Y146782D01*
X229103Y147571D01*
X234048Y147571D01*
X234048Y142626D01*
X233259Y142783D01*
G37*
%LPD*%
%LPC*%
G36*
X163199Y25399D02*
X163199Y25399D01*
X163199Y25401D01*
X163201Y25401D01*
X163201Y25399D01*
X163199Y25399D01*
G37*
%LPD*%
D10*
X81300Y130300D03*
X89300Y130300D03*
X97300Y130300D03*
X105300Y130300D03*
X113300Y130300D03*
X121300Y130300D03*
X129300Y130300D03*
X137300Y130300D03*
X137300Y215300D03*
X129300Y215300D03*
X121300Y215300D03*
X113300Y215300D03*
X105300Y215300D03*
X97300Y215300D03*
X89300Y215300D03*
X81300Y215300D03*
D11*
X151800Y144800D03*
X151800Y152800D03*
X151800Y160800D03*
X151800Y168800D03*
X151800Y176800D03*
X151800Y184800D03*
X151800Y192800D03*
X151800Y200800D03*
X66800Y200800D03*
X66800Y192800D03*
X66800Y184800D03*
X66800Y176800D03*
X66800Y168800D03*
X66800Y160800D03*
X66800Y152800D03*
X66800Y144800D03*
D12*
X226050Y119239D03*
X219550Y119239D03*
X213050Y119239D03*
X206550Y119239D03*
D13*
X196361Y109050D03*
X196361Y102550D03*
X196361Y96050D03*
X196361Y89550D03*
D12*
X206550Y79361D03*
X213050Y79361D03*
X219550Y79361D03*
X226050Y79361D03*
D13*
X236239Y89550D03*
X236239Y96050D03*
X236239Y102550D03*
X236239Y109050D03*
D14*
X216300Y99300D03*
D15*
X175500Y122400D03*
X175500Y142400D03*
D16*
X197800Y142900D03*
X217800Y142900D03*
D15*
X257600Y59000D03*
X257600Y79000D03*
X175500Y79300D03*
X175500Y99300D03*
D16*
X193600Y58500D03*
X173600Y58500D03*
X233500Y58300D03*
X213500Y58300D03*
D17*
X48968Y83824D02*
X48968Y97032D01*
X23568Y97032D02*
X23568Y83824D01*
D18*
X137800Y32512D02*
X137800Y18288D01*
X163200Y18288D02*
X163200Y32512D01*
X87000Y32512D02*
X87000Y18288D01*
X112400Y18288D02*
X112400Y32512D01*
X188600Y32512D02*
X188600Y18288D01*
X214000Y18288D02*
X214000Y32512D01*
X37512Y139700D02*
X23288Y139700D01*
X23288Y165100D02*
X37512Y165100D01*
X37512Y190500D02*
X23288Y190500D01*
X23288Y215900D02*
X37512Y215900D01*
D19*
X277500Y105640D03*
X277500Y202160D03*
D20*
X84515Y64084D03*
X103515Y64084D03*
X104997Y92447D03*
X85997Y92447D03*
X149800Y101100D03*
X130800Y101100D03*
X149800Y71500D03*
X130800Y71500D03*
D17*
X250500Y36404D02*
X250500Y23196D01*
X275900Y23196D02*
X275900Y36404D01*
D21*
X210900Y191400D03*
X185500Y191400D03*
X210900Y216800D03*
X185500Y216800D03*
X185500Y166000D03*
X210900Y166000D03*
D22*
X89300Y215300D02*
X89300Y230700D01*
X85000Y235000D01*
X55000Y235000D01*
X46060Y226060D02*
X19080Y226060D01*
X13128Y220108D02*
X13128Y146872D01*
X20300Y139700D02*
X30400Y139700D01*
X46060Y226060D02*
X55000Y235000D01*
X19080Y226060D02*
X13128Y220108D01*
X13128Y146872D02*
X20300Y139700D01*
X13128Y146872D02*
X13128Y131872D01*
X20000Y125000D01*
X50000Y125000D01*
X68317Y110936D02*
X69626Y109626D01*
X63317Y110936D02*
X50936Y123317D01*
X63317Y110936D02*
X68317Y110936D01*
X50936Y124064D02*
X50000Y125000D01*
X50936Y124064D02*
X50936Y123317D01*
D23*
X74292Y75585D03*
D22*
X67559Y82317D02*
X67559Y87683D01*
X67559Y82317D02*
X74292Y75585D01*
X69626Y89750D02*
X69626Y109626D01*
X69626Y89750D02*
X67559Y87683D01*
D23*
X205561Y55835D03*
D22*
X211035Y55835D01*
X213500Y58300D01*
X66800Y200800D02*
X66000Y200000D01*
X35000Y200000D02*
X30000Y195000D01*
X30000Y190900D01*
X30400Y190500D01*
X35000Y200000D02*
X66000Y200000D01*
X66800Y200800D02*
X76640Y200800D01*
X77679Y201839D01*
D23*
X77679Y201839D03*
X185000Y110000D03*
D22*
X180000Y110000D01*
X175500Y105500D01*
X175500Y99300D01*
X81300Y215300D02*
X81300Y228700D01*
X80000Y230000D01*
X55747Y230000D01*
X47672Y208279D02*
X47196Y207804D01*
D23*
X47196Y207804D03*
D22*
X47672Y221925D02*
X55747Y230000D01*
X47672Y221925D02*
X47672Y208279D01*
D23*
X45000Y175000D03*
D22*
X30000Y175000D01*
X30000Y165500D01*
X30400Y165100D01*
X45000Y175000D02*
X55000Y165000D01*
X65000Y115000D02*
X70000Y115000D01*
X75000Y110000D01*
X75000Y85964D02*
X74036Y85000D01*
D23*
X74036Y85000D03*
X155000Y58539D03*
D22*
X155039Y58500D01*
X173600Y58500D01*
X55000Y125000D02*
X55000Y165000D01*
X55000Y125000D02*
X65000Y115000D01*
X75000Y110000D02*
X75000Y85964D01*
X130800Y71500D02*
X130800Y101100D01*
X275900Y49100D02*
X275900Y29800D01*
X266000Y59000D02*
X257600Y59000D01*
X266000Y59000D02*
X275900Y49100D01*
X257600Y59000D02*
X255000Y61600D01*
X255000Y69452D01*
D23*
X271061Y73509D03*
D22*
X266863Y69452D02*
X255000Y69452D01*
X270920Y73509D02*
X271061Y73509D01*
X270920Y73509D02*
X266863Y69452D01*
D23*
X162039Y85000D03*
D22*
X140000Y85000D02*
X130800Y75800D01*
X130800Y71500D01*
X140000Y85000D02*
X162039Y85000D01*
X257600Y87400D02*
X257600Y79000D01*
X257600Y87400D02*
X255000Y90000D01*
X242450Y102550D01*
X236239Y102550D01*
D24*
X255000Y90000D03*
D22*
X196361Y89550D02*
X179550Y89550D01*
X175000Y85000D01*
X175000Y79800D01*
X175500Y79300D01*
X226050Y79361D02*
X226050Y73950D01*
X233500Y66500D02*
X233500Y58300D01*
X233500Y66500D02*
X226050Y73950D01*
X213050Y73050D02*
X213050Y79361D01*
X213050Y73050D02*
X210000Y70000D01*
X195000Y70000D01*
X193600Y68600D01*
X193600Y58500D01*
X149800Y100000D02*
X149800Y101100D01*
X113300Y116523D02*
X113300Y130300D01*
X113300Y116523D02*
X114823Y115000D01*
D23*
X114823Y115000D03*
X164489Y110512D03*
D22*
X164452Y107063D02*
X164452Y100000D01*
X164489Y107099D02*
X164489Y110512D01*
X164489Y107099D02*
X164452Y107063D01*
X164452Y100000D02*
X149800Y100000D01*
X113300Y130300D02*
X113300Y138300D01*
X120000Y145000D02*
X130000Y145000D01*
D23*
X130000Y145000D03*
X165261Y150000D03*
D22*
X175000Y150000D01*
X175500Y149500D01*
X175500Y142400D01*
X120000Y145000D02*
X113300Y138300D01*
D23*
X198884Y175335D03*
D22*
X195088Y162029D02*
X189472Y156412D01*
X171673Y156412D02*
X165261Y150000D01*
X195088Y162029D02*
X195088Y171539D01*
X198884Y175335D01*
X189472Y156412D02*
X171673Y156412D01*
D23*
X165000Y207277D03*
D22*
X168237Y210514D01*
X174814Y210514D01*
D23*
X174814Y210514D03*
X155000Y221777D03*
D22*
X141313Y226348D02*
X125000Y226348D01*
X109288Y226348D01*
X145884Y221777D02*
X155000Y221777D01*
X109288Y226348D02*
X107940Y225000D01*
X105000Y225000D01*
X141313Y226348D02*
X145884Y221777D01*
X105000Y225000D02*
X105000Y215600D01*
X105300Y215300D01*
X30400Y215900D02*
X30400Y205400D01*
X30000Y205000D01*
D23*
X30000Y205000D03*
X115000Y235000D03*
D22*
X120000Y235000D01*
X125000Y230000D01*
X125000Y226348D01*
X149800Y71500D02*
X149800Y62499D01*
X148523Y61222D01*
X148523Y55856D01*
X152317Y52062D01*
X156990Y52062D02*
X164052Y45000D01*
X164052Y26252D01*
X163200Y25400D01*
X156990Y52062D02*
X152317Y52062D01*
X226050Y119239D02*
X231811Y125000D01*
X237317Y123523D02*
X242683Y123523D01*
X246477Y127317D01*
X246477Y132683D01*
X242683Y136477D01*
X235840Y125000D02*
X237317Y123523D01*
X238523Y136477D02*
X242683Y136477D01*
X232100Y142900D02*
X230000Y142900D01*
X217800Y142900D01*
X231811Y125000D02*
X235840Y125000D01*
X238523Y136477D02*
X232100Y142900D01*
D23*
X235000Y148523D03*
D22*
X235000Y147900D01*
X230000Y142900D01*
D23*
X167990Y222010D03*
D22*
X171403Y222010D01*
X179845Y230452D01*
X197248Y230452D02*
X210900Y216800D01*
X197248Y230452D02*
X179845Y230452D01*
D23*
X80000Y115000D03*
D22*
X85997Y109003D01*
X85997Y92447D01*
X85997Y75997D01*
X84515Y74515D02*
X84515Y64084D01*
X84515Y74515D02*
X85997Y75997D01*
X84515Y64084D02*
X84515Y50485D01*
X85000Y50000D01*
D23*
X85000Y50000D03*
X125000Y45000D03*
D22*
X135000Y45000D01*
X137800Y42200D01*
X137800Y25400D01*
X137600Y130000D02*
X137300Y130300D01*
X137600Y130000D02*
X150000Y130000D01*
X157600Y122400D02*
X175000Y122400D01*
X175500Y122400D01*
X157600Y122400D02*
X150000Y130000D01*
X264360Y105640D02*
X277500Y105640D01*
X264360Y105640D02*
X260000Y110000D01*
D23*
X260000Y110000D03*
X208951Y129526D03*
D22*
X206625Y131852D01*
X190038Y131852D02*
X189774Y132116D01*
X190038Y131852D02*
X206625Y131852D01*
X189774Y132116D02*
X185000Y127342D01*
X185000Y120000D01*
X177400Y120000D01*
X175000Y122400D01*
X130000Y129600D02*
X129300Y130300D01*
X130000Y129600D02*
X130000Y120000D01*
X135000Y115000D01*
X142886Y115000D01*
X149363Y121477D01*
D23*
X149363Y121477D03*
X162939Y132062D03*
D22*
X186548Y134638D02*
X186548Y136548D01*
X190000Y140000D01*
X183972Y132062D02*
X162939Y132062D01*
X183972Y132062D02*
X186548Y134638D01*
X190000Y140000D02*
X194900Y140000D01*
X197450Y142550D01*
X197800Y142900D01*
X277500Y162500D02*
X277500Y202160D01*
X270000Y155000D02*
X200000Y155000D01*
X197450Y152450D01*
X197450Y142550D01*
X270000Y155000D02*
X277500Y162500D01*
X105300Y130300D02*
X105000Y130000D01*
X105000Y115000D01*
D23*
X105000Y115000D03*
X30000Y115000D03*
D22*
X25000Y115000D01*
X20000Y110000D01*
X20000Y93996D01*
X23568Y90428D01*
X240200Y29800D02*
X250500Y29800D01*
X240200Y29800D02*
X225000Y45000D01*
X170529Y45000D01*
D23*
X170529Y45000D03*
X95083Y105083D03*
D22*
X95083Y101671D01*
X95545Y101209D01*
X95545Y94455D01*
X100000Y90000D01*
X102551Y90000D01*
X104997Y92447D01*
X55000Y84396D02*
X48968Y90428D01*
X55000Y84396D02*
X55000Y80000D01*
X60000Y75000D01*
X65000Y75000D01*
X74967Y65033D02*
X74967Y55322D01*
X78523Y51765D01*
X78523Y41477D02*
X80000Y40000D01*
X76840Y36720D02*
X76840Y14080D01*
X82792Y8128D01*
X116608Y8128D02*
X122560Y14080D01*
X122560Y36720D01*
X80000Y39880D02*
X80000Y40000D01*
X80000Y39880D02*
X76840Y36720D01*
X118523Y40757D02*
X122560Y36720D01*
X118523Y40757D02*
X118523Y48523D01*
X116608Y8128D02*
X82792Y8128D01*
X127080Y57080D02*
X137080Y57080D01*
D23*
X137080Y57080D03*
X108068Y79486D03*
D22*
X104486Y79486D01*
X100000Y75000D01*
X100000Y67599D01*
X103515Y64084D01*
X74967Y65033D02*
X65000Y75000D01*
X78523Y51765D02*
X78523Y41477D01*
X118523Y48523D02*
X127080Y57080D01*
D23*
X225000Y34839D03*
D22*
X215561Y25400D01*
X214000Y25400D01*
D23*
X240000Y130000D03*
D22*
X225000Y130000D01*
X219550Y124550D01*
X219550Y119239D01*
X188600Y29714D02*
X188600Y25400D01*
X188600Y29714D02*
X197363Y38477D01*
D23*
X197363Y38477D03*
X238001Y71999D03*
D22*
X245000Y78999D01*
X243203Y96050D02*
X236239Y96050D01*
X245000Y94253D02*
X245000Y78999D01*
X245000Y94253D02*
X243203Y96050D01*
X190000Y212300D02*
X185500Y216800D01*
X190000Y201647D02*
X189341Y200988D01*
X181529Y200988D01*
X175541Y195000D02*
X175000Y195000D01*
X175541Y195000D02*
X181529Y200988D01*
X169200Y200800D02*
X151800Y200800D01*
X190000Y201647D02*
X190000Y212300D01*
X175000Y195000D02*
X169200Y200800D01*
X167200Y192800D02*
X151800Y192800D01*
X178188Y181812D02*
X201312Y181812D01*
X210900Y191400D01*
X178188Y181812D02*
X167200Y192800D01*
X181529Y226388D02*
X189472Y226388D01*
X195088Y220772D01*
X170441Y215300D02*
X137300Y215300D01*
X170441Y215300D02*
X181529Y226388D01*
X195088Y200988D02*
X185500Y191400D01*
X195088Y200988D02*
X195088Y220772D01*
X185500Y166000D02*
X184500Y165000D01*
X170000Y165000D01*
D23*
X170000Y165000D03*
X138339Y195000D03*
D22*
X133339Y200000D01*
X85000Y200000D02*
X80000Y195000D01*
X80000Y170000D01*
X85000Y200000D02*
X133339Y200000D01*
X78800Y168800D02*
X66800Y168800D01*
X78800Y168800D02*
X80000Y170000D01*
X121300Y130300D02*
X121300Y109911D01*
X121252Y109863D01*
X121252Y106252D01*
X118609Y103609D02*
X118609Y55121D01*
X112961Y49472D02*
X105000Y49472D01*
X97160Y41632D01*
X97160Y27840D02*
X100000Y25000D01*
X112000Y25000D01*
X112400Y25400D01*
X118609Y103609D02*
X121252Y106252D01*
X118609Y55121D02*
X112961Y49472D01*
X97160Y41632D02*
X97160Y27840D01*
X87000Y25400D02*
X87000Y42000D01*
X98536Y53536D01*
X111277Y53536D01*
X114545Y101209D02*
X112760Y102995D01*
X98523Y112317D02*
X98523Y115000D01*
X107846Y102995D02*
X112760Y102995D01*
X107846Y102995D02*
X98523Y112317D01*
X114545Y56804D02*
X111277Y53536D01*
X114545Y56804D02*
X114545Y101209D01*
X97300Y116223D02*
X97300Y130300D01*
X97300Y116223D02*
X98523Y115000D01*
M02*
