M48
;GenerationSoftware,Autodesk,EAGLE,9.6.2*%
;CreationDate,2020-11-03T01:39:57Z*%
FMAT,2
ICI,OFF
METRIC,TZ,000.000
T5C0.381
T4C0.450
T3C0.800
T2C0.813
T1C0.914
%
G90
M71
T1
X3040Y21590
X13780Y2540
X16320Y2540
X8700Y2540
X11240Y2540
X18860Y2540
X21400Y2540
X3040Y13970
X3040Y16510
X3040Y19050
T2
X4897Y9043
X2357Y9043
X25050Y2980
X27590Y2980
T3
X21090Y19140
X18550Y19140
X21090Y21680
X18550Y21680
X18550Y16600
X21090Y16600
T4
X23535Y22011
X29292Y6180
X3640Y4148
T5
X8500Y5000
X12500Y4500
X26000Y11000
X20895Y12953
X14936Y12148
X16294Y13206
X10500Y11500
X3000Y11500
X17053Y4500
X27106Y7351
X13708Y5708
X10807Y7949
X22500Y3484
X24000Y13000
X19736Y3848
X23800Y7200
X17000Y16500
X13834Y19500
X7429Y7558
X20556Y5583
X7768Y20184
X18500Y11000
X4720Y20780
X4500Y17500
X7404Y8500
X15500Y5854
X16204Y8500
X11482Y11500
X16449Y11051
X13000Y14500
X16526Y15000
X19888Y17534
X9508Y10508
X16500Y20728
X17481Y21051
X15500Y22178
X3000Y20500
X11500Y23500
X23500Y14852
X16799Y22201
X8000Y11500
M30