G04 EAGLE Gerber RS-274X export*
G75*
%MOMM*%
%FSLAX34Y34*%
%LPD*%
%INBottom Copper*%
%IPPOS*%
%AMOC8*
5,1,8,0,0,1.08239X$1,22.5*%
G01*
%ADD10C,1.320800*%
%ADD11C,1.422400*%
%ADD12P,1.415766X8X292.500000*%
%ADD13C,0.685800*%
%ADD14C,0.203200*%

G36*
X276696Y957D02*
X276696Y957D01*
X276746Y956D01*
X281249Y1392D01*
X281272Y1398D01*
X281395Y1420D01*
X290079Y4041D01*
X290093Y4048D01*
X290109Y4051D01*
X290260Y4123D01*
X297966Y8907D01*
X297978Y8918D01*
X297993Y8924D01*
X298120Y9033D01*
X304322Y15652D01*
X304331Y15666D01*
X304343Y15676D01*
X304381Y15731D01*
X304398Y15750D01*
X304409Y15772D01*
X304438Y15814D01*
X307532Y21609D01*
X307542Y21640D01*
X307573Y21702D01*
X309018Y25573D01*
X309024Y25606D01*
X309048Y25678D01*
X310139Y30693D01*
X310141Y30726D01*
X310155Y30801D01*
X310521Y35920D01*
X310519Y35941D01*
X310523Y35975D01*
X310523Y176411D01*
X310520Y176428D01*
X310521Y176456D01*
X310064Y184019D01*
X310057Y184049D01*
X310053Y184111D01*
X308687Y191563D01*
X308677Y191592D01*
X308665Y191652D01*
X306411Y198886D01*
X306397Y198913D01*
X306378Y198972D01*
X303269Y205881D01*
X303252Y205906D01*
X303226Y205962D01*
X299306Y212446D01*
X299287Y212469D01*
X299254Y212522D01*
X294582Y218486D01*
X294559Y218507D01*
X294521Y218555D01*
X289163Y223913D01*
X289139Y223930D01*
X289094Y223974D01*
X283130Y228646D01*
X283103Y228661D01*
X283054Y228698D01*
X282196Y229217D01*
X280937Y229979D01*
X277159Y232262D01*
X276571Y232618D01*
X276542Y232629D01*
X276489Y232661D01*
X269580Y235770D01*
X269551Y235778D01*
X269494Y235803D01*
X262260Y238057D01*
X262230Y238061D01*
X262171Y238079D01*
X254719Y239445D01*
X254688Y239445D01*
X254627Y239456D01*
X250147Y239727D01*
X250129Y239725D01*
X250100Y239728D01*
X120535Y239591D01*
X120418Y239572D01*
X120299Y239554D01*
X120296Y239552D01*
X120293Y239551D01*
X120187Y239495D01*
X120081Y239440D01*
X120078Y239438D01*
X120075Y239436D01*
X119992Y239349D01*
X119910Y239263D01*
X119909Y239260D01*
X119906Y239258D01*
X119856Y239149D01*
X119805Y239041D01*
X119804Y239038D01*
X119803Y239034D01*
X119790Y238916D01*
X119775Y238797D01*
X119776Y238793D01*
X119776Y238790D01*
X119801Y238674D01*
X119826Y238556D01*
X119828Y238552D01*
X119828Y238550D01*
X119834Y238539D01*
X119903Y238407D01*
X120290Y237828D01*
X120740Y236741D01*
X120897Y235952D01*
X115191Y235952D01*
X115171Y235949D01*
X115151Y235951D01*
X115050Y235929D01*
X115016Y235923D01*
X115014Y235924D01*
X114995Y235926D01*
X114976Y235933D01*
X114809Y235952D01*
X109103Y235952D01*
X109260Y236741D01*
X109710Y237828D01*
X110089Y238396D01*
X110140Y238507D01*
X110189Y238614D01*
X110190Y238617D01*
X110191Y238619D01*
X110203Y238739D01*
X110216Y238859D01*
X110216Y238861D01*
X110216Y238864D01*
X110190Y238981D01*
X110164Y239099D01*
X110162Y239101D01*
X110162Y239104D01*
X110099Y239207D01*
X110037Y239310D01*
X110035Y239312D01*
X110034Y239314D01*
X109941Y239392D01*
X109850Y239470D01*
X109848Y239471D01*
X109846Y239473D01*
X109734Y239517D01*
X109622Y239561D01*
X109619Y239562D01*
X109617Y239563D01*
X109607Y239563D01*
X109455Y239580D01*
X46048Y239513D01*
X46018Y239508D01*
X45912Y239500D01*
X39783Y238377D01*
X39755Y238367D01*
X39694Y238355D01*
X33644Y236470D01*
X33616Y236456D01*
X33558Y236437D01*
X27779Y233836D01*
X27753Y233820D01*
X27697Y233794D01*
X22274Y230515D01*
X22251Y230496D01*
X22198Y230463D01*
X17210Y226555D01*
X17189Y226532D01*
X17141Y226494D01*
X12660Y222013D01*
X12642Y221988D01*
X12599Y221944D01*
X8690Y216955D01*
X8676Y216928D01*
X8638Y216879D01*
X5360Y211456D01*
X5348Y211428D01*
X5317Y211375D01*
X2716Y205596D01*
X2708Y205566D01*
X2684Y205510D01*
X2575Y205162D01*
X2571Y205131D01*
X2559Y205102D01*
X2541Y204936D01*
X2541Y3283D01*
X2544Y3266D01*
X2542Y3248D01*
X2563Y3144D01*
X2580Y3040D01*
X2589Y3025D01*
X2592Y3007D01*
X2646Y2916D01*
X2696Y2823D01*
X2708Y2811D01*
X2717Y2795D01*
X2797Y2726D01*
X2874Y2654D01*
X2890Y2646D01*
X2903Y2634D01*
X3001Y2594D01*
X3097Y2550D01*
X3115Y2548D01*
X3131Y2541D01*
X3298Y2522D01*
X276669Y953D01*
X276696Y957D01*
G37*
%LPC*%
G36*
X81529Y5079D02*
X81529Y5079D01*
X73791Y12817D01*
X73791Y52263D01*
X76728Y55200D01*
X76781Y55274D01*
X76841Y55343D01*
X76853Y55373D01*
X76872Y55400D01*
X76899Y55486D01*
X76933Y55571D01*
X76937Y55612D01*
X76944Y55635D01*
X76943Y55667D01*
X76951Y55738D01*
X76951Y66190D01*
X76948Y66210D01*
X76950Y66229D01*
X76928Y66331D01*
X76912Y66433D01*
X76902Y66450D01*
X76898Y66470D01*
X76845Y66559D01*
X76796Y66650D01*
X76782Y66664D01*
X76772Y66681D01*
X76693Y66748D01*
X76618Y66820D01*
X76600Y66828D01*
X76585Y66841D01*
X76489Y66880D01*
X76395Y66923D01*
X76375Y66925D01*
X76357Y66933D01*
X76190Y66951D01*
X75227Y66951D01*
X64470Y77708D01*
X64470Y90912D01*
X64456Y91002D01*
X64449Y91093D01*
X64436Y91123D01*
X64431Y91155D01*
X64388Y91235D01*
X64352Y91319D01*
X64327Y91351D01*
X64316Y91372D01*
X64292Y91394D01*
X64247Y91450D01*
X62889Y92809D01*
X62057Y94816D01*
X62057Y96989D01*
X62889Y98996D01*
X64425Y100533D01*
X66433Y101364D01*
X67813Y101364D01*
X67833Y101367D01*
X67853Y101365D01*
X67954Y101387D01*
X68056Y101404D01*
X68073Y101413D01*
X68093Y101417D01*
X68182Y101471D01*
X68273Y101519D01*
X68287Y101533D01*
X68304Y101544D01*
X68371Y101622D01*
X68443Y101697D01*
X68451Y101715D01*
X68464Y101731D01*
X68503Y101827D01*
X68546Y101920D01*
X68548Y101940D01*
X68556Y101959D01*
X68574Y102125D01*
X68574Y103865D01*
X69406Y105872D01*
X70942Y107408D01*
X72950Y108240D01*
X75123Y108240D01*
X77130Y107408D01*
X78666Y105872D01*
X79498Y103865D01*
X79498Y101692D01*
X78666Y99684D01*
X77268Y98286D01*
X77215Y98212D01*
X77155Y98142D01*
X77143Y98112D01*
X77124Y98086D01*
X77098Y97999D01*
X77063Y97914D01*
X77059Y97873D01*
X77052Y97851D01*
X77053Y97819D01*
X77045Y97748D01*
X77045Y91957D01*
X74855Y89767D01*
X74808Y89702D01*
X74793Y89686D01*
X74790Y89679D01*
X74742Y89623D01*
X74730Y89593D01*
X74711Y89567D01*
X74685Y89480D01*
X74650Y89395D01*
X74646Y89354D01*
X74639Y89332D01*
X74640Y89300D01*
X74632Y89228D01*
X74632Y82232D01*
X74647Y82142D01*
X74654Y82051D01*
X74666Y82022D01*
X74672Y81990D01*
X74714Y81909D01*
X74750Y81825D01*
X74776Y81793D01*
X74787Y81772D01*
X74810Y81750D01*
X74855Y81694D01*
X79213Y77336D01*
X79287Y77283D01*
X79357Y77223D01*
X79387Y77211D01*
X79413Y77192D01*
X79500Y77165D01*
X79585Y77131D01*
X79626Y77127D01*
X79648Y77120D01*
X79680Y77121D01*
X79752Y77113D01*
X82946Y77113D01*
X82976Y77083D01*
X83035Y77041D01*
X83087Y76991D01*
X83134Y76969D01*
X83176Y76939D01*
X83245Y76918D01*
X83310Y76888D01*
X83361Y76882D01*
X83411Y76867D01*
X83483Y76868D01*
X83554Y76861D01*
X83605Y76872D01*
X83657Y76873D01*
X83724Y76898D01*
X83795Y76913D01*
X83839Y76940D01*
X83888Y76957D01*
X83944Y77002D01*
X84006Y77039D01*
X84039Y77079D01*
X84080Y77111D01*
X84119Y77171D01*
X84166Y77226D01*
X84185Y77274D01*
X84213Y77318D01*
X84231Y77387D01*
X84257Y77454D01*
X84265Y77525D01*
X84273Y77557D01*
X84271Y77580D01*
X84276Y77621D01*
X84276Y78972D01*
X85107Y80979D01*
X86466Y82338D01*
X86519Y82412D01*
X86579Y82481D01*
X86591Y82511D01*
X86610Y82538D01*
X86636Y82625D01*
X86670Y82709D01*
X86675Y82750D01*
X86682Y82773D01*
X86681Y82805D01*
X86689Y82876D01*
X86689Y110506D01*
X90168Y113985D01*
X108092Y113985D01*
X108112Y113988D01*
X108131Y113986D01*
X108233Y114008D01*
X108335Y114024D01*
X108352Y114034D01*
X108372Y114038D01*
X108389Y114048D01*
X114632Y114048D01*
X114652Y114051D01*
X114672Y114049D01*
X114773Y114071D01*
X114807Y114077D01*
X114809Y114076D01*
X114828Y114074D01*
X114847Y114067D01*
X115014Y114048D01*
X121273Y114048D01*
X121349Y114013D01*
X121369Y114011D01*
X121387Y114003D01*
X121554Y113985D01*
X159223Y113985D01*
X159265Y113992D01*
X159308Y113990D01*
X159386Y114011D01*
X159465Y114024D01*
X159503Y114045D01*
X159544Y114056D01*
X159611Y114102D01*
X159683Y114140D01*
X159712Y114171D01*
X159748Y114195D01*
X159845Y114310D01*
X159846Y114312D01*
X160683Y115148D01*
X161661Y115802D01*
X162747Y116252D01*
X163537Y116409D01*
X163537Y110702D01*
X163540Y110683D01*
X163538Y110663D01*
X163560Y110561D01*
X163576Y110459D01*
X163586Y110442D01*
X163590Y110422D01*
X163643Y110333D01*
X163692Y110242D01*
X163706Y110228D01*
X163716Y110211D01*
X163795Y110144D01*
X163870Y110073D01*
X163888Y110064D01*
X163903Y110051D01*
X163999Y110013D01*
X164093Y109969D01*
X164113Y109967D01*
X164131Y109959D01*
X164298Y109941D01*
X164679Y109941D01*
X164699Y109944D01*
X164718Y109942D01*
X164820Y109964D01*
X164922Y109981D01*
X164939Y109990D01*
X164959Y109994D01*
X165048Y110047D01*
X165139Y110096D01*
X165153Y110110D01*
X165170Y110120D01*
X165237Y110199D01*
X165309Y110274D01*
X165317Y110292D01*
X165330Y110307D01*
X165369Y110404D01*
X165412Y110497D01*
X165414Y110517D01*
X165422Y110535D01*
X165440Y110702D01*
X165440Y116409D01*
X166230Y116252D01*
X167316Y115802D01*
X167505Y115676D01*
X167614Y115626D01*
X167723Y115575D01*
X167726Y115575D01*
X167729Y115574D01*
X167849Y115561D01*
X167967Y115548D01*
X167971Y115549D01*
X167974Y115549D01*
X168090Y115575D01*
X168208Y115601D01*
X168211Y115602D01*
X168214Y115603D01*
X168316Y115665D01*
X168419Y115727D01*
X168421Y115729D01*
X168424Y115731D01*
X168501Y115822D01*
X168579Y115914D01*
X168580Y115917D01*
X168582Y115919D01*
X168626Y116030D01*
X168671Y116142D01*
X168671Y116146D01*
X168672Y116148D01*
X168673Y116159D01*
X168689Y116309D01*
X168689Y128250D01*
X168678Y128321D01*
X168676Y128393D01*
X168658Y128442D01*
X168650Y128493D01*
X168616Y128556D01*
X168591Y128624D01*
X168559Y128664D01*
X168534Y128711D01*
X168482Y128760D01*
X168438Y128816D01*
X168394Y128844D01*
X168356Y128880D01*
X168291Y128910D01*
X168231Y128949D01*
X168180Y128962D01*
X168133Y128984D01*
X168062Y128991D01*
X167992Y129009D01*
X167940Y129005D01*
X167889Y129011D01*
X167818Y128995D01*
X167747Y128990D01*
X167699Y128969D01*
X167648Y128958D01*
X167587Y128922D01*
X167521Y128893D01*
X167465Y128849D01*
X167437Y128832D01*
X167422Y128814D01*
X167390Y128789D01*
X166032Y127431D01*
X164025Y126600D01*
X161852Y126600D01*
X159845Y127431D01*
X158486Y128790D01*
X158412Y128843D01*
X158343Y128902D01*
X158313Y128915D01*
X158286Y128933D01*
X158199Y128960D01*
X158115Y128994D01*
X158074Y128999D01*
X158051Y129006D01*
X158019Y129005D01*
X157948Y129013D01*
X156526Y129013D01*
X156436Y128998D01*
X156345Y128991D01*
X156315Y128978D01*
X156283Y128973D01*
X156203Y128930D01*
X156118Y128895D01*
X156086Y128869D01*
X156066Y128858D01*
X156044Y128835D01*
X155988Y128790D01*
X153419Y126222D01*
X153408Y126205D01*
X153392Y126193D01*
X153336Y126106D01*
X153276Y126022D01*
X153270Y126003D01*
X153259Y125986D01*
X153234Y125886D01*
X153203Y125787D01*
X153204Y125767D01*
X153199Y125747D01*
X153207Y125645D01*
X153210Y125541D01*
X153217Y125522D01*
X153218Y125502D01*
X153258Y125407D01*
X153294Y125310D01*
X153307Y125294D01*
X153314Y125276D01*
X153419Y125145D01*
X153993Y124571D01*
X154825Y122563D01*
X154825Y120391D01*
X153993Y118383D01*
X152457Y116847D01*
X150450Y116015D01*
X148277Y116015D01*
X146269Y116847D01*
X144733Y118383D01*
X143901Y120391D01*
X143901Y122563D01*
X144733Y124571D01*
X146091Y125929D01*
X146145Y126003D01*
X146204Y126073D01*
X146216Y126103D01*
X146235Y126129D01*
X146262Y126216D01*
X146296Y126301D01*
X146300Y126342D01*
X146307Y126364D01*
X146306Y126396D01*
X146314Y126468D01*
X146314Y127740D01*
X153685Y135110D01*
X157948Y135110D01*
X158038Y135125D01*
X158129Y135132D01*
X158159Y135145D01*
X158191Y135150D01*
X158271Y135193D01*
X158355Y135228D01*
X158387Y135254D01*
X158408Y135265D01*
X158430Y135288D01*
X158486Y135333D01*
X159845Y136692D01*
X161852Y137523D01*
X164025Y137523D01*
X166032Y136692D01*
X167390Y135334D01*
X167448Y135292D01*
X167500Y135243D01*
X167547Y135221D01*
X167589Y135191D01*
X167658Y135170D01*
X167723Y135139D01*
X167775Y135134D01*
X167825Y135118D01*
X167896Y135120D01*
X167967Y135112D01*
X168018Y135123D01*
X168070Y135125D01*
X168138Y135149D01*
X168208Y135165D01*
X168253Y135191D01*
X168301Y135209D01*
X168357Y135254D01*
X168419Y135291D01*
X168453Y135330D01*
X168493Y135363D01*
X168532Y135423D01*
X168579Y135478D01*
X168598Y135526D01*
X168626Y135570D01*
X168644Y135639D01*
X168671Y135706D01*
X168679Y135777D01*
X168687Y135808D01*
X168685Y135832D01*
X168689Y135873D01*
X168689Y143819D01*
X168682Y143864D01*
X168684Y143910D01*
X168662Y143985D01*
X168650Y144062D01*
X168628Y144102D01*
X168615Y144147D01*
X168571Y144211D01*
X168534Y144279D01*
X168501Y144311D01*
X168475Y144349D01*
X168412Y144395D01*
X168356Y144449D01*
X168314Y144468D01*
X168278Y144495D01*
X168204Y144519D01*
X168133Y144552D01*
X168087Y144557D01*
X168044Y144572D01*
X167966Y144571D01*
X167889Y144579D01*
X167844Y144570D01*
X167798Y144569D01*
X167666Y144531D01*
X167648Y144527D01*
X167644Y144525D01*
X167637Y144522D01*
X167002Y144260D01*
X166213Y144103D01*
X166213Y149809D01*
X166210Y149829D01*
X166212Y149849D01*
X166190Y149950D01*
X166173Y150052D01*
X166164Y150070D01*
X166159Y150089D01*
X166106Y150178D01*
X166058Y150269D01*
X166044Y150283D01*
X166033Y150300D01*
X165955Y150368D01*
X165880Y150439D01*
X165862Y150447D01*
X165846Y150460D01*
X165750Y150499D01*
X165657Y150542D01*
X165637Y150545D01*
X165618Y150552D01*
X165452Y150571D01*
X165070Y150571D01*
X165051Y150567D01*
X165031Y150570D01*
X164930Y150548D01*
X164828Y150531D01*
X164810Y150522D01*
X164791Y150517D01*
X164702Y150464D01*
X164610Y150416D01*
X164597Y150401D01*
X164580Y150391D01*
X164512Y150312D01*
X164441Y150237D01*
X164433Y150219D01*
X164420Y150204D01*
X164381Y150108D01*
X164337Y150014D01*
X164335Y149995D01*
X164328Y149976D01*
X164309Y149809D01*
X164309Y144103D01*
X163520Y144260D01*
X162433Y144710D01*
X161455Y145363D01*
X160577Y146241D01*
X160561Y146253D01*
X160548Y146269D01*
X160461Y146325D01*
X160377Y146385D01*
X160358Y146391D01*
X160342Y146402D01*
X160241Y146427D01*
X160142Y146457D01*
X160122Y146457D01*
X160103Y146462D01*
X160000Y146454D01*
X159896Y146451D01*
X159878Y146444D01*
X159858Y146443D01*
X159763Y146402D01*
X159665Y146367D01*
X159650Y146354D01*
X159631Y146346D01*
X159500Y146241D01*
X159274Y146015D01*
X136731Y146015D01*
X136711Y146012D01*
X136692Y146014D01*
X136590Y145992D01*
X136488Y145976D01*
X136471Y145966D01*
X136451Y145962D01*
X136434Y145952D01*
X130191Y145952D01*
X130171Y145949D01*
X130151Y145951D01*
X130050Y145929D01*
X129948Y145912D01*
X129930Y145903D01*
X129911Y145898D01*
X129822Y145845D01*
X129731Y145797D01*
X129717Y145783D01*
X129700Y145772D01*
X129632Y145694D01*
X129561Y145619D01*
X129553Y145601D01*
X129540Y145585D01*
X129507Y145504D01*
X129441Y145464D01*
X129349Y145416D01*
X129336Y145401D01*
X129319Y145391D01*
X129251Y145312D01*
X129180Y145237D01*
X129172Y145219D01*
X129159Y145204D01*
X129120Y145108D01*
X129076Y145014D01*
X129074Y144995D01*
X129067Y144976D01*
X129048Y144809D01*
X129048Y139103D01*
X128259Y139260D01*
X127172Y139710D01*
X126194Y140363D01*
X125363Y141194D01*
X124710Y142172D01*
X124447Y142807D01*
X124423Y142846D01*
X124407Y142889D01*
X124358Y142949D01*
X124317Y143016D01*
X124282Y143045D01*
X124253Y143081D01*
X124188Y143123D01*
X124128Y143173D01*
X124085Y143189D01*
X124046Y143214D01*
X123971Y143233D01*
X123898Y143261D01*
X123852Y143263D01*
X123808Y143274D01*
X123730Y143268D01*
X123652Y143271D01*
X123608Y143258D01*
X123563Y143255D01*
X123491Y143224D01*
X123416Y143203D01*
X123379Y143176D01*
X123336Y143158D01*
X123230Y143073D01*
X123214Y143062D01*
X123211Y143058D01*
X123205Y143054D01*
X122715Y142563D01*
X114200Y142563D01*
X114110Y142549D01*
X114019Y142542D01*
X113989Y142529D01*
X113957Y142524D01*
X113876Y142481D01*
X113792Y142445D01*
X113760Y142420D01*
X113740Y142409D01*
X113723Y142391D01*
X113722Y142391D01*
X113714Y142382D01*
X113661Y142340D01*
X112303Y140982D01*
X110295Y140150D01*
X108123Y140150D01*
X106115Y140982D01*
X104579Y142518D01*
X103747Y144526D01*
X103747Y144754D01*
X103733Y144844D01*
X103725Y144935D01*
X103713Y144965D01*
X103708Y144997D01*
X103665Y145077D01*
X103629Y145161D01*
X103603Y145193D01*
X103593Y145214D01*
X103569Y145236D01*
X103524Y145292D01*
X80763Y168054D01*
X80763Y180411D01*
X80748Y180501D01*
X80741Y180592D01*
X80728Y180622D01*
X80723Y180654D01*
X80680Y180734D01*
X80645Y180818D01*
X80619Y180850D01*
X80608Y180871D01*
X80585Y180893D01*
X80540Y180949D01*
X79181Y182308D01*
X78350Y184315D01*
X78350Y186488D01*
X79181Y188495D01*
X80718Y190032D01*
X82725Y190863D01*
X84898Y190863D01*
X86905Y190032D01*
X88442Y188495D01*
X89273Y186488D01*
X89273Y184315D01*
X88442Y182308D01*
X87083Y180949D01*
X87030Y180875D01*
X86971Y180806D01*
X86959Y180776D01*
X86940Y180749D01*
X86913Y180662D01*
X86879Y180578D01*
X86874Y180537D01*
X86867Y180514D01*
X86868Y180482D01*
X86860Y180411D01*
X86860Y170895D01*
X86875Y170804D01*
X86882Y170714D01*
X86895Y170684D01*
X86900Y170652D01*
X86943Y170571D01*
X86979Y170487D01*
X87004Y170455D01*
X87015Y170434D01*
X87039Y170412D01*
X87083Y170356D01*
X106521Y150919D01*
X106615Y150851D01*
X106709Y150781D01*
X106715Y150779D01*
X106720Y150775D01*
X106831Y150741D01*
X106943Y150705D01*
X106950Y150705D01*
X106955Y150703D01*
X107072Y150706D01*
X107189Y150707D01*
X107196Y150709D01*
X107201Y150709D01*
X107219Y150716D01*
X107350Y150754D01*
X108123Y151074D01*
X110295Y151074D01*
X112303Y150242D01*
X113661Y148884D01*
X113735Y148831D01*
X113805Y148771D01*
X113835Y148759D01*
X113861Y148740D01*
X113948Y148713D01*
X114033Y148679D01*
X114074Y148675D01*
X114096Y148668D01*
X114128Y148669D01*
X114200Y148661D01*
X119874Y148661D01*
X119964Y148676D01*
X120055Y148683D01*
X120085Y148695D01*
X120117Y148701D01*
X120197Y148743D01*
X120281Y148779D01*
X120313Y148805D01*
X120334Y148816D01*
X120356Y148839D01*
X120412Y148884D01*
X126054Y154526D01*
X133946Y154526D01*
X135954Y152517D01*
X135955Y152517D01*
X136136Y152336D01*
X136210Y152282D01*
X136279Y152223D01*
X136309Y152211D01*
X136336Y152192D01*
X136423Y152165D01*
X136507Y152131D01*
X136548Y152127D01*
X136571Y152120D01*
X136603Y152121D01*
X136674Y152113D01*
X154974Y152113D01*
X154994Y152116D01*
X155013Y152114D01*
X155115Y152136D01*
X155217Y152152D01*
X155234Y152162D01*
X155254Y152166D01*
X155343Y152219D01*
X155434Y152268D01*
X155448Y152282D01*
X155465Y152292D01*
X155532Y152371D01*
X155604Y152446D01*
X155612Y152464D01*
X155625Y152479D01*
X155664Y152575D01*
X155707Y152669D01*
X155709Y152689D01*
X155717Y152707D01*
X155735Y152874D01*
X155735Y153946D01*
X161315Y159526D01*
X165912Y159526D01*
X165983Y159537D01*
X166055Y159539D01*
X166104Y159557D01*
X166155Y159565D01*
X166218Y159599D01*
X166286Y159624D01*
X166326Y159656D01*
X166373Y159681D01*
X166422Y159733D01*
X166478Y159777D01*
X166506Y159821D01*
X166542Y159859D01*
X166572Y159924D01*
X166611Y159984D01*
X166624Y160035D01*
X166646Y160082D01*
X166653Y160153D01*
X166671Y160223D01*
X166667Y160275D01*
X166673Y160326D01*
X166657Y160397D01*
X166652Y160468D01*
X166631Y160516D01*
X166620Y160567D01*
X166584Y160628D01*
X166555Y160694D01*
X166511Y160750D01*
X166494Y160778D01*
X166476Y160793D01*
X166451Y160825D01*
X165370Y161906D01*
X164538Y163914D01*
X164538Y165835D01*
X164524Y165925D01*
X164516Y166016D01*
X164504Y166046D01*
X164499Y166078D01*
X164456Y166158D01*
X164420Y166242D01*
X164394Y166274D01*
X164383Y166295D01*
X164360Y166317D01*
X164315Y166373D01*
X161951Y168737D01*
X161951Y183422D01*
X161937Y183512D01*
X161929Y183603D01*
X161917Y183633D01*
X161912Y183665D01*
X161869Y183745D01*
X161833Y183829D01*
X161807Y183861D01*
X161796Y183882D01*
X161773Y183904D01*
X161728Y183960D01*
X158960Y186728D01*
X158886Y186781D01*
X158817Y186841D01*
X158787Y186853D01*
X158760Y186872D01*
X158673Y186899D01*
X158589Y186933D01*
X158548Y186937D01*
X158525Y186944D01*
X158493Y186943D01*
X158422Y186951D01*
X143737Y186951D01*
X141005Y189684D01*
X140910Y189752D01*
X140816Y189822D01*
X140810Y189824D01*
X140805Y189827D01*
X140694Y189862D01*
X140582Y189898D01*
X140576Y189898D01*
X140570Y189900D01*
X140453Y189897D01*
X140336Y189896D01*
X140329Y189893D01*
X140324Y189893D01*
X140307Y189887D01*
X140175Y189849D01*
X139425Y189538D01*
X137253Y189538D01*
X135245Y190370D01*
X133709Y191906D01*
X132877Y193914D01*
X132877Y196086D01*
X133561Y197738D01*
X133572Y197782D01*
X133591Y197824D01*
X133600Y197901D01*
X133617Y197977D01*
X133613Y198023D01*
X133618Y198068D01*
X133602Y198145D01*
X133594Y198222D01*
X133576Y198264D01*
X133566Y198309D01*
X133526Y198376D01*
X133494Y198447D01*
X133463Y198481D01*
X133440Y198520D01*
X133381Y198571D01*
X133328Y198628D01*
X133288Y198650D01*
X133253Y198680D01*
X133181Y198709D01*
X133112Y198746D01*
X133067Y198755D01*
X133025Y198772D01*
X132889Y198787D01*
X132870Y198790D01*
X132865Y198789D01*
X132858Y198790D01*
X82670Y198790D01*
X82580Y198776D01*
X82489Y198768D01*
X82459Y198756D01*
X82427Y198751D01*
X82346Y198708D01*
X82262Y198672D01*
X82230Y198646D01*
X82210Y198635D01*
X82187Y198612D01*
X82132Y198567D01*
X80773Y197209D01*
X78766Y196377D01*
X76593Y196377D01*
X74585Y197209D01*
X73049Y198745D01*
X72217Y200753D01*
X72217Y202925D01*
X72751Y204215D01*
X72762Y204259D01*
X72781Y204301D01*
X72790Y204378D01*
X72808Y204454D01*
X72803Y204500D01*
X72808Y204545D01*
X72792Y204622D01*
X72785Y204699D01*
X72766Y204741D01*
X72756Y204786D01*
X72716Y204853D01*
X72685Y204924D01*
X72653Y204958D01*
X72630Y204997D01*
X72571Y205048D01*
X72518Y205105D01*
X72478Y205127D01*
X72443Y205157D01*
X72371Y205186D01*
X72303Y205223D01*
X72257Y205232D01*
X72215Y205249D01*
X72079Y205264D01*
X72061Y205267D01*
X72056Y205266D01*
X72048Y205267D01*
X59894Y205267D01*
X59804Y205253D01*
X59713Y205245D01*
X59683Y205233D01*
X59651Y205228D01*
X59571Y205185D01*
X59487Y205149D01*
X59455Y205123D01*
X59434Y205112D01*
X59412Y205089D01*
X59356Y205044D01*
X54532Y200221D01*
X54479Y200147D01*
X54420Y200077D01*
X54407Y200047D01*
X54389Y200021D01*
X54362Y199934D01*
X54328Y199849D01*
X54323Y199808D01*
X54316Y199786D01*
X54317Y199754D01*
X54309Y199682D01*
X54309Y198445D01*
X54324Y198355D01*
X54331Y198264D01*
X54344Y198235D01*
X54349Y198203D01*
X54392Y198122D01*
X54427Y198038D01*
X54453Y198006D01*
X54464Y197985D01*
X54487Y197963D01*
X54532Y197907D01*
X54785Y197655D01*
X54785Y170473D01*
X50944Y166632D01*
X50891Y166558D01*
X50831Y166489D01*
X50819Y166459D01*
X50800Y166432D01*
X50773Y166345D01*
X50739Y166261D01*
X50735Y166220D01*
X50728Y166197D01*
X50729Y166165D01*
X50721Y166094D01*
X50721Y128906D01*
X50736Y128816D01*
X50743Y128725D01*
X50755Y128695D01*
X50760Y128663D01*
X50803Y128583D01*
X50839Y128499D01*
X50865Y128467D01*
X50876Y128446D01*
X50899Y128424D01*
X50944Y128368D01*
X61040Y118272D01*
X61114Y118219D01*
X61183Y118159D01*
X61213Y118147D01*
X61240Y118128D01*
X61327Y118101D01*
X61411Y118067D01*
X61452Y118063D01*
X61475Y118056D01*
X61507Y118057D01*
X61578Y118049D01*
X75009Y118049D01*
X75099Y118063D01*
X75190Y118071D01*
X75220Y118083D01*
X75252Y118088D01*
X75333Y118131D01*
X75417Y118167D01*
X75449Y118193D01*
X75469Y118204D01*
X75492Y118227D01*
X75548Y118272D01*
X76906Y119630D01*
X78914Y120462D01*
X81086Y120462D01*
X83094Y119630D01*
X84630Y118094D01*
X85462Y116086D01*
X85462Y113914D01*
X84630Y111906D01*
X83094Y110370D01*
X81086Y109538D01*
X78914Y109538D01*
X76906Y110370D01*
X75548Y111728D01*
X75474Y111781D01*
X75404Y111841D01*
X75374Y111853D01*
X75348Y111872D01*
X75261Y111899D01*
X75176Y111933D01*
X75135Y111937D01*
X75113Y111944D01*
X75081Y111943D01*
X75009Y111951D01*
X58737Y111951D01*
X44623Y126065D01*
X44623Y132041D01*
X44612Y132112D01*
X44610Y132183D01*
X44592Y132232D01*
X44584Y132284D01*
X44550Y132347D01*
X44525Y132414D01*
X44493Y132455D01*
X44468Y132501D01*
X44416Y132550D01*
X44372Y132606D01*
X44328Y132634D01*
X44290Y132670D01*
X44225Y132701D01*
X44165Y132739D01*
X44114Y132752D01*
X44067Y132774D01*
X43996Y132782D01*
X43926Y132799D01*
X43874Y132795D01*
X43823Y132801D01*
X43752Y132786D01*
X43681Y132780D01*
X43633Y132760D01*
X43582Y132749D01*
X43521Y132712D01*
X43455Y132684D01*
X43399Y132639D01*
X43371Y132623D01*
X43356Y132605D01*
X43324Y132579D01*
X42692Y131947D01*
X39331Y130555D01*
X21469Y130555D01*
X18108Y131947D01*
X15535Y134520D01*
X14143Y137881D01*
X14143Y141519D01*
X15535Y144880D01*
X18108Y147453D01*
X21469Y148845D01*
X39331Y148845D01*
X42692Y147453D01*
X43324Y146821D01*
X43382Y146779D01*
X43434Y146730D01*
X43481Y146708D01*
X43523Y146677D01*
X43592Y146656D01*
X43657Y146626D01*
X43709Y146620D01*
X43759Y146605D01*
X43830Y146607D01*
X43901Y146599D01*
X43952Y146610D01*
X44004Y146611D01*
X44072Y146636D01*
X44142Y146651D01*
X44187Y146678D01*
X44235Y146696D01*
X44291Y146741D01*
X44353Y146777D01*
X44387Y146817D01*
X44427Y146849D01*
X44466Y146910D01*
X44513Y146964D01*
X44532Y147013D01*
X44560Y147056D01*
X44578Y147126D01*
X44605Y147192D01*
X44613Y147264D01*
X44621Y147295D01*
X44619Y147318D01*
X44623Y147359D01*
X44623Y157441D01*
X44612Y157512D01*
X44610Y157583D01*
X44592Y157632D01*
X44584Y157684D01*
X44550Y157747D01*
X44525Y157814D01*
X44493Y157855D01*
X44468Y157901D01*
X44416Y157950D01*
X44372Y158006D01*
X44328Y158034D01*
X44290Y158070D01*
X44225Y158101D01*
X44165Y158139D01*
X44114Y158152D01*
X44067Y158174D01*
X43996Y158182D01*
X43926Y158199D01*
X43874Y158195D01*
X43823Y158201D01*
X43752Y158186D01*
X43681Y158180D01*
X43633Y158160D01*
X43582Y158149D01*
X43521Y158112D01*
X43455Y158084D01*
X43399Y158039D01*
X43371Y158023D01*
X43356Y158005D01*
X43324Y157979D01*
X42692Y157347D01*
X39331Y155955D01*
X21469Y155955D01*
X18108Y157347D01*
X15535Y159920D01*
X14143Y163281D01*
X14143Y166919D01*
X15535Y170280D01*
X18108Y172853D01*
X21469Y174245D01*
X38777Y174245D01*
X38797Y174248D01*
X38816Y174246D01*
X38918Y174268D01*
X39020Y174284D01*
X39037Y174294D01*
X39057Y174298D01*
X39146Y174351D01*
X39237Y174400D01*
X39251Y174414D01*
X39268Y174424D01*
X39335Y174503D01*
X39407Y174578D01*
X39415Y174596D01*
X39428Y174611D01*
X39467Y174707D01*
X39510Y174801D01*
X39512Y174821D01*
X39520Y174839D01*
X39538Y175006D01*
X39538Y176086D01*
X40370Y178094D01*
X41906Y179630D01*
X43932Y180469D01*
X44003Y180485D01*
X44105Y180501D01*
X44122Y180511D01*
X44142Y180515D01*
X44231Y180568D01*
X44322Y180617D01*
X44336Y180631D01*
X44353Y180641D01*
X44420Y180720D01*
X44492Y180795D01*
X44500Y180813D01*
X44513Y180828D01*
X44552Y180924D01*
X44595Y181018D01*
X44597Y181038D01*
X44605Y181056D01*
X44623Y181223D01*
X44623Y182841D01*
X44612Y182912D01*
X44610Y182983D01*
X44592Y183032D01*
X44584Y183084D01*
X44550Y183147D01*
X44525Y183214D01*
X44493Y183255D01*
X44468Y183301D01*
X44416Y183350D01*
X44372Y183406D01*
X44328Y183434D01*
X44290Y183470D01*
X44225Y183501D01*
X44165Y183539D01*
X44114Y183552D01*
X44067Y183574D01*
X43996Y183582D01*
X43926Y183599D01*
X43874Y183595D01*
X43823Y183601D01*
X43752Y183586D01*
X43681Y183580D01*
X43633Y183560D01*
X43582Y183549D01*
X43521Y183512D01*
X43455Y183484D01*
X43399Y183439D01*
X43371Y183423D01*
X43356Y183405D01*
X43324Y183379D01*
X42692Y182747D01*
X39331Y181355D01*
X21469Y181355D01*
X18108Y182747D01*
X15535Y185320D01*
X14143Y188681D01*
X14143Y192319D01*
X15535Y195680D01*
X18108Y198253D01*
X21469Y199645D01*
X25075Y199645D01*
X25146Y199656D01*
X25217Y199658D01*
X25266Y199676D01*
X25318Y199684D01*
X25381Y199718D01*
X25448Y199743D01*
X25489Y199775D01*
X25535Y199800D01*
X25584Y199851D01*
X25640Y199896D01*
X25669Y199940D01*
X25704Y199978D01*
X25735Y200043D01*
X25773Y200103D01*
X25786Y200154D01*
X25808Y200201D01*
X25816Y200272D01*
X25834Y200342D01*
X25829Y200394D01*
X25835Y200445D01*
X25820Y200516D01*
X25814Y200587D01*
X25794Y200635D01*
X25783Y200686D01*
X25746Y200747D01*
X25718Y200813D01*
X25673Y200869D01*
X25657Y200897D01*
X25639Y200912D01*
X25613Y200944D01*
X25363Y201194D01*
X24710Y202172D01*
X24260Y203259D01*
X24103Y204048D01*
X29809Y204048D01*
X29829Y204051D01*
X29849Y204049D01*
X29950Y204071D01*
X29984Y204077D01*
X29986Y204076D01*
X30005Y204074D01*
X30024Y204067D01*
X30191Y204048D01*
X35897Y204048D01*
X35740Y203259D01*
X35290Y202172D01*
X34637Y201194D01*
X34387Y200944D01*
X34345Y200886D01*
X34296Y200834D01*
X34274Y200787D01*
X34243Y200745D01*
X34222Y200676D01*
X34192Y200611D01*
X34186Y200559D01*
X34171Y200509D01*
X34173Y200438D01*
X34165Y200367D01*
X34176Y200316D01*
X34177Y200264D01*
X34202Y200196D01*
X34217Y200126D01*
X34244Y200081D01*
X34262Y200033D01*
X34306Y199977D01*
X34343Y199915D01*
X34383Y199881D01*
X34415Y199841D01*
X34476Y199802D01*
X34530Y199755D01*
X34579Y199736D01*
X34622Y199708D01*
X34692Y199690D01*
X34758Y199663D01*
X34830Y199655D01*
X34861Y199647D01*
X34884Y199649D01*
X34925Y199645D01*
X39331Y199645D01*
X42692Y198253D01*
X42848Y198096D01*
X42906Y198055D01*
X42958Y198005D01*
X43006Y197983D01*
X43048Y197953D01*
X43116Y197932D01*
X43181Y197902D01*
X43233Y197896D01*
X43283Y197880D01*
X43355Y197882D01*
X43426Y197874D01*
X43477Y197886D01*
X43529Y197887D01*
X43596Y197911D01*
X43666Y197927D01*
X43711Y197953D01*
X43760Y197971D01*
X43816Y198016D01*
X43877Y198053D01*
X43911Y198092D01*
X43952Y198125D01*
X43991Y198185D01*
X44037Y198240D01*
X44057Y198288D01*
X44085Y198332D01*
X44102Y198401D01*
X44129Y198468D01*
X44137Y198539D01*
X44145Y198570D01*
X44143Y198594D01*
X44148Y198635D01*
X44148Y202813D01*
X44133Y202903D01*
X44126Y202994D01*
X44113Y203024D01*
X44108Y203056D01*
X44065Y203136D01*
X44030Y203220D01*
X44004Y203252D01*
X43993Y203273D01*
X43970Y203295D01*
X43925Y203351D01*
X42566Y204710D01*
X41856Y206424D01*
X41796Y206521D01*
X41740Y206618D01*
X41732Y206625D01*
X41726Y206633D01*
X41639Y206705D01*
X41554Y206780D01*
X41545Y206784D01*
X41537Y206790D01*
X41432Y206831D01*
X41327Y206874D01*
X41317Y206875D01*
X41307Y206878D01*
X41195Y206883D01*
X41082Y206891D01*
X41070Y206888D01*
X41062Y206889D01*
X41037Y206882D01*
X40917Y206857D01*
X39772Y206485D01*
X38272Y206247D01*
X36731Y206247D01*
X36711Y206244D01*
X36692Y206246D01*
X36590Y206224D01*
X36488Y206208D01*
X36471Y206198D01*
X36451Y206194D01*
X36362Y206141D01*
X36271Y206092D01*
X36257Y206078D01*
X36240Y206068D01*
X36173Y205989D01*
X36137Y205952D01*
X30952Y205952D01*
X30952Y210897D01*
X31013Y210885D01*
X31108Y210882D01*
X31201Y210871D01*
X31230Y210878D01*
X31259Y210877D01*
X31350Y210904D01*
X31442Y210924D01*
X31467Y210939D01*
X31495Y210947D01*
X31572Y211002D01*
X31653Y211050D01*
X31672Y211072D01*
X31696Y211089D01*
X31751Y211165D01*
X31813Y211237D01*
X31824Y211264D01*
X31841Y211288D01*
X31869Y211377D01*
X31905Y211465D01*
X31909Y211502D01*
X31915Y211522D01*
X31915Y211555D01*
X31923Y211632D01*
X31923Y214377D01*
X47044Y214377D01*
X47007Y214146D01*
X47008Y214066D01*
X46999Y213987D01*
X47008Y213944D01*
X47008Y213900D01*
X47034Y213824D01*
X47051Y213747D01*
X47074Y213709D01*
X47088Y213667D01*
X47136Y213604D01*
X47177Y213536D01*
X47211Y213507D01*
X47238Y213472D01*
X47304Y213427D01*
X47364Y213376D01*
X47405Y213359D01*
X47442Y213334D01*
X47518Y213313D01*
X47592Y213284D01*
X47651Y213277D01*
X47679Y213269D01*
X47707Y213271D01*
X47759Y213265D01*
X48283Y213265D01*
X50290Y212434D01*
X51827Y210897D01*
X52658Y208890D01*
X52658Y208808D01*
X52670Y208737D01*
X52672Y208665D01*
X52690Y208616D01*
X52698Y208565D01*
X52731Y208501D01*
X52756Y208434D01*
X52789Y208393D01*
X52813Y208347D01*
X52865Y208298D01*
X52910Y208242D01*
X52954Y208214D01*
X52991Y208178D01*
X53056Y208148D01*
X53117Y208109D01*
X53167Y208096D01*
X53214Y208074D01*
X53286Y208067D01*
X53355Y208049D01*
X53407Y208053D01*
X53459Y208047D01*
X53529Y208063D01*
X53600Y208068D01*
X53648Y208089D01*
X53699Y208100D01*
X53761Y208136D01*
X53827Y208164D01*
X53883Y208209D01*
X53910Y208226D01*
X53926Y208244D01*
X53958Y208269D01*
X57053Y211365D01*
X81625Y211365D01*
X83634Y209356D01*
X83815Y209175D01*
X83889Y209122D01*
X83958Y209062D01*
X83988Y209050D01*
X84015Y209031D01*
X84102Y209004D01*
X84186Y208970D01*
X84227Y208966D01*
X84250Y208959D01*
X84282Y208960D01*
X84353Y208952D01*
X150305Y208952D01*
X150396Y208966D01*
X150486Y208974D01*
X150516Y208986D01*
X150548Y208991D01*
X150629Y209034D01*
X150713Y209070D01*
X150745Y209096D01*
X150766Y209107D01*
X150788Y209130D01*
X150844Y209175D01*
X156177Y214508D01*
X156219Y214566D01*
X156268Y214618D01*
X156290Y214665D01*
X156320Y214707D01*
X156341Y214776D01*
X156372Y214841D01*
X156377Y214893D01*
X156393Y214943D01*
X156391Y215014D01*
X156399Y215085D01*
X156388Y215136D01*
X156386Y215188D01*
X156362Y215256D01*
X156346Y215326D01*
X156320Y215371D01*
X156302Y215419D01*
X156257Y215475D01*
X156220Y215537D01*
X156181Y215571D01*
X156148Y215611D01*
X156088Y215650D01*
X156033Y215697D01*
X155985Y215716D01*
X155952Y215738D01*
X155952Y220825D01*
X161046Y220825D01*
X161068Y220765D01*
X161100Y220724D01*
X161125Y220678D01*
X161177Y220629D01*
X161222Y220573D01*
X161265Y220545D01*
X161303Y220509D01*
X161368Y220479D01*
X161429Y220440D01*
X161479Y220427D01*
X161526Y220405D01*
X161597Y220397D01*
X161667Y220380D01*
X161719Y220384D01*
X161770Y220378D01*
X161841Y220394D01*
X161912Y220399D01*
X161960Y220419D01*
X162011Y220431D01*
X162072Y220467D01*
X162139Y220496D01*
X162194Y220540D01*
X162222Y220557D01*
X162237Y220574D01*
X162270Y220600D01*
X162306Y220637D01*
X162359Y220711D01*
X162418Y220780D01*
X162430Y220810D01*
X162449Y220837D01*
X162476Y220923D01*
X162510Y221008D01*
X162515Y221049D01*
X162522Y221072D01*
X162521Y221104D01*
X162529Y221175D01*
X162529Y223096D01*
X163360Y225104D01*
X164896Y226640D01*
X166904Y227471D01*
X169077Y227471D01*
X171084Y226640D01*
X172621Y225104D01*
X173452Y223096D01*
X173452Y220923D01*
X172621Y218916D01*
X171084Y217379D01*
X169077Y216548D01*
X167155Y216548D01*
X167065Y216533D01*
X166974Y216526D01*
X166945Y216513D01*
X166913Y216508D01*
X166832Y216466D01*
X166748Y216430D01*
X166716Y216404D01*
X166695Y216393D01*
X166673Y216370D01*
X166617Y216325D01*
X164838Y214546D01*
X164797Y214488D01*
X164747Y214436D01*
X164725Y214389D01*
X164695Y214347D01*
X164674Y214278D01*
X164644Y214213D01*
X164638Y214161D01*
X164623Y214111D01*
X164624Y214040D01*
X164617Y213969D01*
X164628Y213918D01*
X164629Y213866D01*
X164654Y213798D01*
X164669Y213728D01*
X164695Y213683D01*
X164713Y213635D01*
X164758Y213579D01*
X164795Y213517D01*
X164835Y213483D01*
X164867Y213443D01*
X164927Y213404D01*
X164982Y213357D01*
X165030Y213338D01*
X165074Y213310D01*
X165143Y213292D01*
X165210Y213265D01*
X165281Y213257D01*
X165313Y213249D01*
X165336Y213251D01*
X165377Y213247D01*
X165588Y213247D01*
X166741Y213017D01*
X167828Y212567D01*
X168134Y212363D01*
X168220Y212324D01*
X168302Y212278D01*
X168331Y212273D01*
X168358Y212261D01*
X168452Y212251D01*
X168544Y212235D01*
X168573Y212239D01*
X168602Y212236D01*
X168694Y212257D01*
X168788Y212270D01*
X168814Y212284D01*
X168842Y212290D01*
X168923Y212339D01*
X169007Y212382D01*
X169027Y212403D01*
X169052Y212418D01*
X169113Y212490D01*
X169179Y212558D01*
X169197Y212590D01*
X169211Y212606D01*
X169223Y212637D01*
X169260Y212704D01*
X169524Y213341D01*
X170177Y214319D01*
X171009Y215151D01*
X171986Y215804D01*
X173073Y216254D01*
X173862Y216411D01*
X173862Y210705D01*
X173866Y210685D01*
X173863Y210665D01*
X173885Y210564D01*
X173891Y210529D01*
X173891Y210528D01*
X173888Y210508D01*
X173881Y210490D01*
X173862Y210323D01*
X173862Y204616D01*
X173073Y204773D01*
X171986Y205224D01*
X171680Y205428D01*
X171595Y205467D01*
X171512Y205513D01*
X171483Y205518D01*
X171457Y205530D01*
X171363Y205539D01*
X171270Y205556D01*
X171241Y205552D01*
X171212Y205555D01*
X171120Y205534D01*
X171027Y205520D01*
X171000Y205507D01*
X170972Y205501D01*
X170891Y205452D01*
X170807Y205409D01*
X170787Y205388D01*
X170762Y205373D01*
X170701Y205300D01*
X170635Y205233D01*
X170617Y205201D01*
X170603Y205185D01*
X170591Y205154D01*
X170554Y205086D01*
X170290Y204449D01*
X169637Y203471D01*
X168806Y202640D01*
X167828Y201987D01*
X166741Y201537D01*
X165952Y201380D01*
X165952Y207086D01*
X165949Y207106D01*
X165951Y207126D01*
X165929Y207227D01*
X165912Y207329D01*
X165903Y207347D01*
X165898Y207366D01*
X165845Y207455D01*
X165797Y207546D01*
X165783Y207560D01*
X165772Y207577D01*
X165694Y207645D01*
X165619Y207716D01*
X165601Y207724D01*
X165585Y207737D01*
X165489Y207776D01*
X165396Y207819D01*
X165376Y207822D01*
X165357Y207829D01*
X165191Y207848D01*
X164809Y207848D01*
X164790Y207844D01*
X164770Y207847D01*
X164669Y207825D01*
X164567Y207808D01*
X164549Y207799D01*
X164530Y207794D01*
X164441Y207741D01*
X164349Y207693D01*
X164336Y207678D01*
X164319Y207668D01*
X164251Y207589D01*
X164180Y207514D01*
X164172Y207496D01*
X164159Y207481D01*
X164120Y207385D01*
X164076Y207291D01*
X164074Y207272D01*
X164067Y207253D01*
X164048Y207086D01*
X164048Y201380D01*
X163259Y201537D01*
X162172Y201987D01*
X161194Y202640D01*
X160363Y203471D01*
X159710Y204449D01*
X159260Y205536D01*
X159030Y206689D01*
X159030Y206900D01*
X159019Y206971D01*
X159017Y207043D01*
X158999Y207092D01*
X158991Y207143D01*
X158957Y207206D01*
X158932Y207274D01*
X158900Y207314D01*
X158875Y207360D01*
X158823Y207410D01*
X158779Y207466D01*
X158735Y207494D01*
X158697Y207530D01*
X158632Y207560D01*
X158572Y207599D01*
X158521Y207611D01*
X158474Y207633D01*
X158403Y207641D01*
X158333Y207659D01*
X158281Y207655D01*
X158230Y207660D01*
X158159Y207645D01*
X158088Y207640D01*
X158040Y207619D01*
X157989Y207608D01*
X157928Y207571D01*
X157862Y207543D01*
X157806Y207499D01*
X157778Y207482D01*
X157763Y207464D01*
X157731Y207439D01*
X153146Y202854D01*
X145794Y202854D01*
X145723Y202843D01*
X145652Y202841D01*
X145603Y202823D01*
X145551Y202815D01*
X145488Y202781D01*
X145421Y202756D01*
X145380Y202724D01*
X145334Y202699D01*
X145285Y202648D01*
X145229Y202603D01*
X145200Y202559D01*
X145164Y202521D01*
X145134Y202456D01*
X145096Y202396D01*
X145083Y202345D01*
X145061Y202298D01*
X145053Y202227D01*
X145035Y202157D01*
X145040Y202105D01*
X145034Y202054D01*
X145049Y201983D01*
X145055Y201912D01*
X145075Y201864D01*
X145086Y201813D01*
X145123Y201752D01*
X145151Y201686D01*
X145196Y201630D01*
X145212Y201602D01*
X145230Y201587D01*
X145256Y201555D01*
X149475Y197336D01*
X149549Y197283D01*
X149618Y197223D01*
X149648Y197211D01*
X149674Y197192D01*
X149761Y197165D01*
X149846Y197131D01*
X149887Y197127D01*
X149910Y197120D01*
X149942Y197121D01*
X150013Y197113D01*
X162946Y197113D01*
X173049Y187010D01*
X173049Y175287D01*
X173052Y175267D01*
X173050Y175248D01*
X173072Y175146D01*
X173088Y175044D01*
X173098Y175027D01*
X173102Y175007D01*
X173155Y174918D01*
X173204Y174827D01*
X173218Y174813D01*
X173228Y174796D01*
X173307Y174729D01*
X173382Y174657D01*
X173400Y174649D01*
X173415Y174636D01*
X173511Y174597D01*
X173605Y174554D01*
X173625Y174552D01*
X173643Y174544D01*
X173810Y174526D01*
X175839Y174526D01*
X175929Y174540D01*
X176020Y174548D01*
X176050Y174560D01*
X176082Y174565D01*
X176163Y174608D01*
X176247Y174644D01*
X176279Y174670D01*
X176299Y174681D01*
X176322Y174704D01*
X176378Y174749D01*
X180266Y178637D01*
X190734Y178637D01*
X192090Y177281D01*
X192127Y177255D01*
X192158Y177221D01*
X192226Y177183D01*
X192289Y177138D01*
X192333Y177124D01*
X192374Y177102D01*
X192450Y177088D01*
X192525Y177065D01*
X192570Y177067D01*
X192616Y177058D01*
X192693Y177070D01*
X192770Y177072D01*
X192814Y177088D01*
X192859Y177094D01*
X192928Y177130D01*
X193001Y177156D01*
X193037Y177185D01*
X193078Y177206D01*
X193133Y177261D01*
X193193Y177310D01*
X193218Y177349D01*
X193250Y177381D01*
X193316Y177501D01*
X193326Y177517D01*
X193328Y177522D01*
X193331Y177528D01*
X193594Y178163D01*
X194247Y179141D01*
X195079Y179972D01*
X196057Y180625D01*
X197143Y181075D01*
X197933Y181232D01*
X197933Y176287D01*
X194922Y176287D01*
X194851Y176275D01*
X194780Y176273D01*
X194731Y176255D01*
X194679Y176247D01*
X194616Y176214D01*
X194549Y176189D01*
X194508Y176156D01*
X194462Y176132D01*
X194413Y176080D01*
X194357Y176035D01*
X194328Y175991D01*
X194293Y175954D01*
X194262Y175889D01*
X194224Y175828D01*
X194211Y175778D01*
X194189Y175731D01*
X194181Y175659D01*
X194164Y175590D01*
X194168Y175538D01*
X194162Y175486D01*
X194177Y175416D01*
X194183Y175344D01*
X194203Y175297D01*
X194214Y175246D01*
X194251Y175184D01*
X194279Y175118D01*
X194324Y175062D01*
X194340Y175035D01*
X194358Y175019D01*
X194384Y174987D01*
X194765Y174606D01*
X194839Y174553D01*
X194908Y174494D01*
X194938Y174481D01*
X194965Y174463D01*
X195052Y174436D01*
X195136Y174402D01*
X195177Y174397D01*
X195200Y174390D01*
X195232Y174391D01*
X195303Y174383D01*
X197933Y174383D01*
X197933Y171754D01*
X197947Y171664D01*
X197954Y171573D01*
X197967Y171543D01*
X197972Y171511D01*
X198015Y171430D01*
X198051Y171347D01*
X198076Y171314D01*
X198087Y171294D01*
X198111Y171272D01*
X198137Y171239D01*
X198137Y160766D01*
X188272Y150901D01*
X188219Y150827D01*
X188159Y150757D01*
X188147Y150727D01*
X188128Y150701D01*
X188101Y150614D01*
X188067Y150529D01*
X188063Y150488D01*
X188056Y150466D01*
X188057Y150434D01*
X188049Y150362D01*
X188049Y114991D01*
X188063Y114901D01*
X188071Y114810D01*
X188083Y114780D01*
X188088Y114748D01*
X188131Y114667D01*
X188167Y114583D01*
X188193Y114551D01*
X188204Y114531D01*
X188227Y114508D01*
X188272Y114452D01*
X189630Y113094D01*
X190462Y111086D01*
X190462Y108914D01*
X189630Y106906D01*
X188094Y105370D01*
X186086Y104538D01*
X183914Y104538D01*
X181906Y105370D01*
X180370Y106906D01*
X179538Y108914D01*
X179538Y111086D01*
X180370Y113094D01*
X181728Y114452D01*
X181781Y114526D01*
X181841Y114596D01*
X181853Y114626D01*
X181872Y114652D01*
X181899Y114739D01*
X181933Y114824D01*
X181937Y114865D01*
X181944Y114887D01*
X181943Y114919D01*
X181951Y114991D01*
X181951Y153203D01*
X184876Y156128D01*
X184918Y156186D01*
X184967Y156238D01*
X184989Y156285D01*
X185019Y156327D01*
X185040Y156396D01*
X185071Y156461D01*
X185076Y156513D01*
X185092Y156563D01*
X185090Y156634D01*
X185098Y156705D01*
X185087Y156756D01*
X185085Y156808D01*
X185061Y156876D01*
X185045Y156946D01*
X185019Y156991D01*
X185001Y157039D01*
X184956Y157095D01*
X184919Y157157D01*
X184880Y157191D01*
X184847Y157231D01*
X184787Y157270D01*
X184732Y157317D01*
X184684Y157336D01*
X184640Y157364D01*
X184571Y157382D01*
X184504Y157409D01*
X184433Y157417D01*
X184402Y157425D01*
X184378Y157423D01*
X184337Y157427D01*
X181949Y157427D01*
X176927Y162449D01*
X176927Y163625D01*
X176912Y163721D01*
X176902Y163818D01*
X176892Y163842D01*
X176888Y163867D01*
X176842Y163953D01*
X176802Y164042D01*
X176785Y164062D01*
X176772Y164085D01*
X176702Y164152D01*
X176636Y164224D01*
X176613Y164236D01*
X176594Y164254D01*
X176506Y164295D01*
X176420Y164342D01*
X176395Y164347D01*
X176371Y164358D01*
X176274Y164369D01*
X176178Y164386D01*
X176152Y164382D01*
X176127Y164385D01*
X176031Y164364D01*
X175935Y164350D01*
X175912Y164338D01*
X175886Y164333D01*
X175803Y164283D01*
X175716Y164239D01*
X175697Y164220D01*
X175675Y164206D01*
X175612Y164132D01*
X175544Y164063D01*
X175528Y164034D01*
X175515Y164020D01*
X175503Y163989D01*
X175463Y163916D01*
X174630Y161906D01*
X173094Y160370D01*
X171086Y159538D01*
X171032Y159538D01*
X170961Y159527D01*
X170890Y159525D01*
X170841Y159507D01*
X170789Y159499D01*
X170726Y159465D01*
X170659Y159440D01*
X170618Y159408D01*
X170572Y159383D01*
X170523Y159331D01*
X170467Y159287D01*
X170438Y159243D01*
X170402Y159205D01*
X170372Y159140D01*
X170334Y159080D01*
X170321Y159029D01*
X170299Y158982D01*
X170291Y158911D01*
X170273Y158841D01*
X170278Y158789D01*
X170272Y158738D01*
X170287Y158667D01*
X170293Y158596D01*
X170313Y158548D01*
X170324Y158497D01*
X170361Y158436D01*
X170389Y158370D01*
X170434Y158314D01*
X170450Y158286D01*
X170468Y158271D01*
X170494Y158239D01*
X171216Y157517D01*
X174787Y153946D01*
X174787Y107338D01*
X168434Y100986D01*
X160543Y100986D01*
X154963Y106566D01*
X154963Y107126D01*
X154960Y107146D01*
X154962Y107165D01*
X154940Y107267D01*
X154923Y107369D01*
X154914Y107386D01*
X154909Y107406D01*
X154856Y107495D01*
X154808Y107586D01*
X154794Y107600D01*
X154783Y107617D01*
X154705Y107684D01*
X154630Y107756D01*
X154612Y107764D01*
X154596Y107777D01*
X154500Y107816D01*
X154407Y107859D01*
X154387Y107861D01*
X154368Y107869D01*
X154202Y107887D01*
X121497Y107887D01*
X121407Y107873D01*
X121316Y107865D01*
X121286Y107853D01*
X121254Y107848D01*
X121174Y107805D01*
X121090Y107769D01*
X121058Y107743D01*
X121037Y107732D01*
X121015Y107709D01*
X120959Y107664D01*
X118769Y105474D01*
X110877Y105474D01*
X108687Y107664D01*
X108613Y107717D01*
X108544Y107777D01*
X108514Y107789D01*
X108487Y107808D01*
X108401Y107835D01*
X108316Y107869D01*
X108275Y107873D01*
X108252Y107880D01*
X108220Y107879D01*
X108149Y107887D01*
X102688Y107887D01*
X102617Y107876D01*
X102545Y107874D01*
X102496Y107856D01*
X102445Y107848D01*
X102382Y107814D01*
X102314Y107789D01*
X102274Y107757D01*
X102228Y107732D01*
X102178Y107680D01*
X102122Y107636D01*
X102094Y107592D01*
X102058Y107554D01*
X102028Y107489D01*
X101989Y107429D01*
X101977Y107378D01*
X101955Y107331D01*
X101947Y107260D01*
X101929Y107190D01*
X101933Y107138D01*
X101928Y107087D01*
X101943Y107016D01*
X101948Y106945D01*
X101969Y106897D01*
X101980Y106846D01*
X102017Y106785D01*
X102045Y106719D01*
X102090Y106663D01*
X102106Y106635D01*
X102124Y106620D01*
X102150Y106588D01*
X102922Y105815D01*
X102996Y105762D01*
X103065Y105703D01*
X103096Y105691D01*
X103122Y105672D01*
X103209Y105645D01*
X103294Y105611D01*
X103335Y105606D01*
X103357Y105599D01*
X103389Y105600D01*
X103460Y105592D01*
X103719Y105592D01*
X116976Y92336D01*
X117050Y92283D01*
X117119Y92223D01*
X117149Y92211D01*
X117176Y92192D01*
X117263Y92165D01*
X117347Y92131D01*
X117388Y92127D01*
X117411Y92120D01*
X117443Y92121D01*
X117514Y92113D01*
X127946Y92113D01*
X137123Y82936D01*
X137202Y82879D01*
X137277Y82817D01*
X137301Y82808D01*
X137323Y82793D01*
X137416Y82764D01*
X137506Y82729D01*
X137533Y82728D01*
X137558Y82720D01*
X137655Y82723D01*
X137752Y82719D01*
X137777Y82726D01*
X137803Y82727D01*
X137895Y82760D01*
X137988Y82787D01*
X138010Y82802D01*
X138034Y82811D01*
X138111Y82872D01*
X138190Y82928D01*
X138206Y82948D01*
X138227Y82965D01*
X138279Y83047D01*
X138337Y83125D01*
X138345Y83150D01*
X138360Y83172D01*
X138383Y83266D01*
X138413Y83359D01*
X138413Y83385D01*
X138420Y83410D01*
X138412Y83507D01*
X138411Y83605D01*
X138402Y83636D01*
X138400Y83655D01*
X138388Y83686D01*
X138364Y83766D01*
X137952Y84760D01*
X137952Y86933D01*
X138784Y88940D01*
X140320Y90477D01*
X142328Y91308D01*
X144501Y91308D01*
X146508Y90477D01*
X148044Y88940D01*
X148876Y86933D01*
X148876Y85012D01*
X148891Y84922D01*
X148898Y84831D01*
X148910Y84801D01*
X148916Y84769D01*
X148958Y84688D01*
X148994Y84604D01*
X149020Y84572D01*
X149031Y84552D01*
X149054Y84529D01*
X149099Y84473D01*
X168590Y64983D01*
X168590Y57314D01*
X168604Y57223D01*
X168612Y57133D01*
X168624Y57103D01*
X168629Y57071D01*
X168672Y56990D01*
X168708Y56906D01*
X168734Y56874D01*
X168745Y56853D01*
X168768Y56831D01*
X168813Y56775D01*
X170839Y54749D01*
X170913Y54696D01*
X170983Y54636D01*
X171013Y54624D01*
X171039Y54605D01*
X171126Y54578D01*
X171211Y54544D01*
X171252Y54540D01*
X171274Y54533D01*
X171306Y54534D01*
X171378Y54526D01*
X174475Y54526D01*
X175729Y53272D01*
X175803Y53219D01*
X175872Y53159D01*
X175902Y53147D01*
X175929Y53128D01*
X176015Y53101D01*
X176100Y53067D01*
X176141Y53063D01*
X176164Y53056D01*
X176196Y53057D01*
X176267Y53049D01*
X192400Y53049D01*
X192491Y53063D01*
X192581Y53071D01*
X192611Y53083D01*
X192643Y53088D01*
X192724Y53131D01*
X192808Y53167D01*
X192840Y53193D01*
X192861Y53204D01*
X192883Y53227D01*
X192939Y53272D01*
X195812Y56145D01*
X195865Y56219D01*
X195925Y56289D01*
X195937Y56319D01*
X195956Y56345D01*
X195983Y56432D01*
X196017Y56517D01*
X196021Y56558D01*
X196028Y56580D01*
X196027Y56612D01*
X196035Y56684D01*
X196035Y59781D01*
X201615Y65361D01*
X209507Y65361D01*
X215107Y59761D01*
X215109Y59739D01*
X215121Y59709D01*
X215126Y59677D01*
X215169Y59597D01*
X215205Y59513D01*
X215231Y59481D01*
X215242Y59460D01*
X215265Y59438D01*
X215310Y59382D01*
X216040Y58652D01*
X216114Y58599D01*
X216183Y58539D01*
X216213Y58527D01*
X216240Y58508D01*
X216327Y58481D01*
X216411Y58447D01*
X216452Y58443D01*
X216475Y58436D01*
X216507Y58437D01*
X216578Y58429D01*
X216738Y58429D01*
X216829Y58443D01*
X216919Y58451D01*
X216949Y58463D01*
X216981Y58468D01*
X217062Y58511D01*
X217146Y58547D01*
X217178Y58573D01*
X217199Y58584D01*
X217221Y58607D01*
X217277Y58652D01*
X228252Y69627D01*
X228305Y69701D01*
X228364Y69770D01*
X228377Y69800D01*
X228395Y69827D01*
X228422Y69914D01*
X228456Y69998D01*
X228461Y70039D01*
X228468Y70062D01*
X228467Y70094D01*
X228475Y70165D01*
X228475Y75945D01*
X234055Y81525D01*
X236190Y81525D01*
X236210Y81528D01*
X236229Y81526D01*
X236331Y81548D01*
X236433Y81565D01*
X236450Y81574D01*
X236470Y81578D01*
X236559Y81632D01*
X236650Y81680D01*
X236664Y81694D01*
X236681Y81705D01*
X236748Y81783D01*
X236820Y81858D01*
X236828Y81876D01*
X236841Y81892D01*
X236880Y81988D01*
X236923Y82081D01*
X236925Y82101D01*
X236933Y82120D01*
X236951Y82286D01*
X236951Y119262D01*
X236937Y119352D01*
X236929Y119443D01*
X236917Y119473D01*
X236912Y119505D01*
X236869Y119585D01*
X236833Y119669D01*
X236807Y119701D01*
X236796Y119722D01*
X236773Y119744D01*
X236728Y119800D01*
X230474Y126054D01*
X230474Y129232D01*
X230463Y129303D01*
X230461Y129375D01*
X230443Y129424D01*
X230435Y129475D01*
X230401Y129538D01*
X230376Y129606D01*
X230344Y129646D01*
X230319Y129692D01*
X230267Y129742D01*
X230223Y129798D01*
X230179Y129826D01*
X230141Y129862D01*
X230076Y129892D01*
X230016Y129931D01*
X229965Y129943D01*
X229918Y129965D01*
X229847Y129973D01*
X229777Y129991D01*
X229725Y129987D01*
X229674Y129992D01*
X229603Y129977D01*
X229532Y129972D01*
X229484Y129951D01*
X229433Y129940D01*
X229372Y129903D01*
X229306Y129875D01*
X229250Y129830D01*
X229222Y129814D01*
X229207Y129796D01*
X229175Y129770D01*
X225882Y126477D01*
X213942Y126477D01*
X213852Y126463D01*
X213761Y126455D01*
X213731Y126443D01*
X213699Y126438D01*
X213618Y126395D01*
X213534Y126359D01*
X213502Y126333D01*
X213482Y126322D01*
X213459Y126299D01*
X213403Y126254D01*
X212045Y124896D01*
X210037Y124064D01*
X207865Y124064D01*
X205857Y124896D01*
X204321Y126432D01*
X203489Y128440D01*
X203489Y130612D01*
X204321Y132620D01*
X205857Y134156D01*
X207865Y134988D01*
X210037Y134988D01*
X212045Y134156D01*
X213403Y132798D01*
X213477Y132745D01*
X213547Y132685D01*
X213577Y132673D01*
X213603Y132654D01*
X213690Y132627D01*
X213775Y132593D01*
X213816Y132589D01*
X213838Y132582D01*
X213870Y132583D01*
X213942Y132575D01*
X223041Y132575D01*
X223131Y132589D01*
X223222Y132597D01*
X223251Y132609D01*
X223283Y132614D01*
X223364Y132657D01*
X223448Y132693D01*
X223480Y132719D01*
X223501Y132730D01*
X223523Y132753D01*
X223579Y132798D01*
X232669Y141888D01*
X232696Y141925D01*
X232729Y141956D01*
X232767Y142024D01*
X232812Y142087D01*
X232826Y142131D01*
X232848Y142172D01*
X232862Y142248D01*
X232885Y142323D01*
X232884Y142368D01*
X232892Y142414D01*
X232880Y142491D01*
X232878Y142568D01*
X232863Y142611D01*
X232856Y142657D01*
X232821Y142726D01*
X232794Y142799D01*
X232765Y142835D01*
X232744Y142876D01*
X232689Y142931D01*
X232640Y142991D01*
X232602Y143016D01*
X232569Y143048D01*
X232449Y143114D01*
X232433Y143124D01*
X232428Y143126D01*
X232422Y143129D01*
X232172Y143233D01*
X231194Y143886D01*
X230363Y144717D01*
X229710Y145695D01*
X229260Y146782D01*
X229103Y147571D01*
X234809Y147571D01*
X234829Y147574D01*
X234849Y147572D01*
X234950Y147594D01*
X234984Y147600D01*
X234986Y147599D01*
X235005Y147597D01*
X235024Y147590D01*
X235191Y147571D01*
X240897Y147571D01*
X240740Y146782D01*
X240290Y145695D01*
X239998Y145257D01*
X239675Y144774D01*
X239625Y144665D01*
X239574Y144556D01*
X239574Y144553D01*
X239573Y144550D01*
X239560Y144429D01*
X239547Y144312D01*
X239548Y144308D01*
X239548Y144305D01*
X239574Y144189D01*
X239600Y144071D01*
X239601Y144068D01*
X239602Y144065D01*
X239664Y143963D01*
X239726Y143860D01*
X239728Y143858D01*
X239730Y143855D01*
X239822Y143778D01*
X239913Y143700D01*
X239916Y143699D01*
X239918Y143697D01*
X240029Y143653D01*
X240141Y143608D01*
X240145Y143608D01*
X240147Y143607D01*
X240158Y143606D01*
X240308Y143590D01*
X245629Y143590D01*
X256177Y133042D01*
X256177Y118450D01*
X256191Y118360D01*
X256199Y118269D01*
X256211Y118239D01*
X256216Y118207D01*
X256259Y118127D01*
X256295Y118043D01*
X256321Y118011D01*
X256332Y117990D01*
X256355Y117968D01*
X256400Y117912D01*
X258627Y115685D01*
X258701Y115632D01*
X258770Y115572D01*
X258800Y115560D01*
X258827Y115541D01*
X258914Y115514D01*
X258998Y115480D01*
X259039Y115476D01*
X259062Y115469D01*
X259094Y115470D01*
X259165Y115462D01*
X261086Y115462D01*
X263094Y114630D01*
X264630Y113094D01*
X265462Y111086D01*
X265462Y108914D01*
X264630Y106906D01*
X263094Y105370D01*
X261086Y104538D01*
X258914Y104538D01*
X256906Y105370D01*
X255370Y106906D01*
X254538Y108914D01*
X254538Y110835D01*
X254524Y110924D01*
X254516Y111016D01*
X254504Y111046D01*
X254499Y111078D01*
X254456Y111158D01*
X254420Y111242D01*
X254394Y111274D01*
X254383Y111295D01*
X254360Y111317D01*
X254315Y111373D01*
X253412Y112276D01*
X253354Y112318D01*
X253302Y112367D01*
X253255Y112389D01*
X253213Y112420D01*
X253144Y112441D01*
X253079Y112471D01*
X253027Y112477D01*
X252977Y112492D01*
X252906Y112490D01*
X252835Y112498D01*
X252784Y112487D01*
X252732Y112486D01*
X252664Y112461D01*
X252594Y112446D01*
X252549Y112419D01*
X252501Y112401D01*
X252445Y112356D01*
X252383Y112320D01*
X252349Y112280D01*
X252309Y112248D01*
X252270Y112187D01*
X252223Y112133D01*
X252204Y112084D01*
X252176Y112041D01*
X252158Y111971D01*
X252131Y111905D01*
X252123Y111833D01*
X252115Y111802D01*
X252117Y111779D01*
X252113Y111738D01*
X252113Y102514D01*
X252127Y102424D01*
X252135Y102333D01*
X252147Y102303D01*
X252152Y102271D01*
X252195Y102191D01*
X252231Y102107D01*
X252257Y102075D01*
X252268Y102054D01*
X252291Y102032D01*
X252336Y101976D01*
X274110Y80202D01*
X274110Y78500D01*
X274124Y78410D01*
X274132Y78319D01*
X274144Y78289D01*
X274149Y78257D01*
X274192Y78176D01*
X274228Y78092D01*
X274254Y78060D01*
X274265Y78040D01*
X274288Y78017D01*
X274333Y77961D01*
X275691Y76603D01*
X276523Y74595D01*
X276523Y72423D01*
X275691Y70415D01*
X274155Y68879D01*
X272147Y68047D01*
X269975Y68047D01*
X267967Y68879D01*
X266431Y70415D01*
X265599Y72423D01*
X265599Y74595D01*
X266431Y76603D01*
X267220Y77392D01*
X267232Y77408D01*
X267247Y77421D01*
X267303Y77508D01*
X267363Y77592D01*
X267369Y77611D01*
X267380Y77627D01*
X267405Y77728D01*
X267436Y77827D01*
X267435Y77847D01*
X267440Y77866D01*
X267432Y77969D01*
X267429Y78073D01*
X267423Y78091D01*
X267421Y78111D01*
X267381Y78206D01*
X267345Y78304D01*
X267332Y78319D01*
X267325Y78338D01*
X267220Y78469D01*
X249348Y96340D01*
X249290Y96382D01*
X249238Y96431D01*
X249191Y96453D01*
X249149Y96484D01*
X249080Y96505D01*
X249015Y96535D01*
X248963Y96541D01*
X248913Y96556D01*
X248842Y96554D01*
X248771Y96562D01*
X248720Y96551D01*
X248668Y96550D01*
X248600Y96525D01*
X248530Y96510D01*
X248485Y96483D01*
X248437Y96465D01*
X248381Y96420D01*
X248319Y96384D01*
X248285Y96344D01*
X248245Y96312D01*
X248206Y96251D01*
X248159Y96197D01*
X248140Y96148D01*
X248112Y96105D01*
X248094Y96035D01*
X248067Y95969D01*
X248059Y95897D01*
X248051Y95866D01*
X248053Y95843D01*
X248049Y95802D01*
X248049Y53576D01*
X246040Y51567D01*
X230685Y36212D01*
X230632Y36138D01*
X230572Y36069D01*
X230560Y36039D01*
X230541Y36012D01*
X230514Y35925D01*
X230480Y35841D01*
X230476Y35800D01*
X230469Y35777D01*
X230470Y35745D01*
X230462Y35674D01*
X230462Y33753D01*
X229630Y31745D01*
X228094Y30209D01*
X226086Y29377D01*
X223906Y29377D01*
X223886Y29374D01*
X223867Y29376D01*
X223765Y29354D01*
X223663Y29338D01*
X223646Y29328D01*
X223626Y29324D01*
X223537Y29271D01*
X223446Y29222D01*
X223432Y29208D01*
X223415Y29198D01*
X223348Y29119D01*
X223276Y29044D01*
X223268Y29026D01*
X223255Y29011D01*
X223216Y28915D01*
X223173Y28821D01*
X223171Y28801D01*
X223163Y28783D01*
X223145Y28616D01*
X223145Y16469D01*
X221753Y13108D01*
X219180Y10535D01*
X215819Y9143D01*
X212181Y9143D01*
X208820Y10535D01*
X206247Y13108D01*
X204855Y16469D01*
X204855Y34331D01*
X206247Y37692D01*
X208820Y40265D01*
X212181Y41657D01*
X215819Y41657D01*
X219180Y40265D01*
X220402Y39042D01*
X220419Y39030D01*
X220431Y39015D01*
X220518Y38959D01*
X220602Y38899D01*
X220621Y38893D01*
X220638Y38882D01*
X220738Y38857D01*
X220837Y38826D01*
X220857Y38827D01*
X220877Y38822D01*
X220980Y38830D01*
X221083Y38833D01*
X221102Y38839D01*
X221122Y38841D01*
X221217Y38881D01*
X221314Y38917D01*
X221330Y38930D01*
X221348Y38937D01*
X221479Y39042D01*
X221906Y39469D01*
X223914Y40301D01*
X225835Y40301D01*
X225925Y40315D01*
X226016Y40323D01*
X226046Y40335D01*
X226078Y40340D01*
X226158Y40383D01*
X226242Y40419D01*
X226274Y40445D01*
X226295Y40456D01*
X226317Y40479D01*
X226373Y40524D01*
X241728Y55879D01*
X241781Y55953D01*
X241841Y56022D01*
X241853Y56052D01*
X241872Y56079D01*
X241899Y56166D01*
X241933Y56250D01*
X241937Y56291D01*
X241944Y56314D01*
X241943Y56346D01*
X241951Y56417D01*
X241951Y66585D01*
X241944Y66630D01*
X241946Y66676D01*
X241924Y66751D01*
X241912Y66828D01*
X241890Y66868D01*
X241877Y66912D01*
X241833Y66976D01*
X241796Y67045D01*
X241763Y67077D01*
X241737Y67114D01*
X241674Y67161D01*
X241618Y67214D01*
X241576Y67234D01*
X241540Y67261D01*
X241466Y67285D01*
X241395Y67318D01*
X241349Y67323D01*
X241306Y67337D01*
X241228Y67337D01*
X241151Y67345D01*
X241106Y67335D01*
X241060Y67335D01*
X240928Y67297D01*
X240910Y67293D01*
X240906Y67290D01*
X240899Y67288D01*
X239989Y66911D01*
X239933Y66877D01*
X239873Y66851D01*
X239808Y66799D01*
X239780Y66782D01*
X239767Y66767D01*
X239742Y66746D01*
X239040Y66045D01*
X221263Y48267D01*
X211780Y48267D01*
X211690Y48253D01*
X211599Y48245D01*
X211569Y48233D01*
X211537Y48228D01*
X211457Y48185D01*
X211373Y48149D01*
X211341Y48123D01*
X211320Y48112D01*
X211298Y48089D01*
X211242Y48044D01*
X203048Y39850D01*
X202995Y39776D01*
X202935Y39707D01*
X202923Y39677D01*
X202904Y39650D01*
X202877Y39564D01*
X202843Y39479D01*
X202839Y39438D01*
X202832Y39415D01*
X202833Y39383D01*
X202825Y39312D01*
X202825Y37391D01*
X201993Y35383D01*
X200457Y33847D01*
X198425Y33005D01*
X198365Y32992D01*
X198263Y32976D01*
X198246Y32966D01*
X198226Y32962D01*
X198137Y32909D01*
X198046Y32861D01*
X198032Y32846D01*
X198015Y32836D01*
X197948Y32757D01*
X197876Y32682D01*
X197868Y32664D01*
X197855Y32649D01*
X197816Y32553D01*
X197773Y32459D01*
X197771Y32439D01*
X197763Y32421D01*
X197745Y32254D01*
X197745Y16469D01*
X196353Y13108D01*
X193780Y10535D01*
X190419Y9143D01*
X186781Y9143D01*
X183420Y10535D01*
X180847Y13108D01*
X180069Y14988D01*
X180045Y15027D01*
X180029Y15070D01*
X179980Y15131D01*
X179939Y15197D01*
X179904Y15226D01*
X179875Y15262D01*
X179810Y15304D01*
X179750Y15354D01*
X179707Y15370D01*
X179668Y15395D01*
X179593Y15414D01*
X179520Y15442D01*
X179474Y15444D01*
X179430Y15455D01*
X179352Y15449D01*
X179274Y15453D01*
X179230Y15440D01*
X179184Y15436D01*
X179113Y15406D01*
X179038Y15384D01*
X179000Y15358D01*
X178958Y15340D01*
X178851Y15255D01*
X178836Y15244D01*
X178833Y15240D01*
X178827Y15235D01*
X168671Y5079D01*
X81529Y5079D01*
G37*
%LPD*%
G36*
X130212Y11188D02*
X130212Y11188D01*
X130283Y11190D01*
X130332Y11208D01*
X130384Y11216D01*
X130447Y11250D01*
X130514Y11275D01*
X130555Y11307D01*
X130601Y11332D01*
X130650Y11384D01*
X130706Y11428D01*
X130734Y11472D01*
X130770Y11510D01*
X130801Y11575D01*
X130839Y11635D01*
X130852Y11686D01*
X130874Y11733D01*
X130882Y11804D01*
X130899Y11874D01*
X130895Y11926D01*
X130901Y11977D01*
X130886Y12048D01*
X130880Y12119D01*
X130860Y12167D01*
X130849Y12218D01*
X130812Y12279D01*
X130784Y12345D01*
X130739Y12401D01*
X130723Y12429D01*
X130705Y12444D01*
X130679Y12476D01*
X130047Y13108D01*
X128655Y16469D01*
X128655Y34331D01*
X130047Y37692D01*
X132620Y40265D01*
X135981Y41657D01*
X139619Y41657D01*
X142980Y40265D01*
X145553Y37692D01*
X146945Y34331D01*
X146945Y16469D01*
X145553Y13108D01*
X144921Y12476D01*
X144879Y12418D01*
X144830Y12366D01*
X144808Y12319D01*
X144777Y12277D01*
X144756Y12208D01*
X144726Y12143D01*
X144720Y12091D01*
X144705Y12041D01*
X144707Y11970D01*
X144699Y11899D01*
X144710Y11848D01*
X144711Y11796D01*
X144736Y11728D01*
X144751Y11658D01*
X144778Y11613D01*
X144796Y11565D01*
X144841Y11509D01*
X144877Y11447D01*
X144917Y11413D01*
X144949Y11373D01*
X145010Y11334D01*
X145064Y11287D01*
X145113Y11268D01*
X145156Y11240D01*
X145226Y11222D01*
X145292Y11195D01*
X145364Y11187D01*
X145395Y11179D01*
X145418Y11181D01*
X145459Y11177D01*
X154941Y11177D01*
X154953Y11179D01*
X154965Y11177D01*
X155074Y11199D01*
X155184Y11216D01*
X155194Y11222D01*
X155206Y11224D01*
X155303Y11280D01*
X155401Y11332D01*
X155409Y11340D01*
X155420Y11346D01*
X155494Y11429D01*
X155571Y11510D01*
X155576Y11521D01*
X155584Y11530D01*
X155627Y11632D01*
X155674Y11733D01*
X155676Y11745D01*
X155680Y11756D01*
X155689Y11867D01*
X155701Y11977D01*
X155699Y11989D01*
X155700Y12001D01*
X155673Y12109D01*
X155649Y12218D01*
X155643Y12228D01*
X155640Y12240D01*
X155557Y12385D01*
X154944Y13229D01*
X154254Y14583D01*
X153785Y16028D01*
X153547Y17528D01*
X153547Y23877D01*
X162438Y23877D01*
X162458Y23880D01*
X162477Y23878D01*
X162579Y23900D01*
X162681Y23917D01*
X162698Y23926D01*
X162718Y23930D01*
X162807Y23983D01*
X162898Y24032D01*
X162912Y24046D01*
X162929Y24056D01*
X162996Y24135D01*
X163067Y24210D01*
X163076Y24228D01*
X163089Y24243D01*
X163127Y24339D01*
X163171Y24433D01*
X163173Y24453D01*
X163181Y24471D01*
X163199Y24638D01*
X163199Y25401D01*
X163201Y25401D01*
X163201Y24638D01*
X163204Y24618D01*
X163202Y24599D01*
X163224Y24497D01*
X163241Y24395D01*
X163250Y24378D01*
X163254Y24358D01*
X163307Y24269D01*
X163356Y24178D01*
X163370Y24164D01*
X163380Y24147D01*
X163459Y24080D01*
X163534Y24009D01*
X163552Y24000D01*
X163567Y23987D01*
X163663Y23948D01*
X163757Y23905D01*
X163777Y23903D01*
X163795Y23895D01*
X163962Y23877D01*
X172853Y23877D01*
X172853Y19722D01*
X172864Y19651D01*
X172866Y19579D01*
X172884Y19530D01*
X172892Y19479D01*
X172926Y19416D01*
X172951Y19348D01*
X172983Y19308D01*
X173008Y19262D01*
X173060Y19212D01*
X173104Y19156D01*
X173148Y19128D01*
X173186Y19092D01*
X173251Y19062D01*
X173311Y19023D01*
X173362Y19010D01*
X173409Y18989D01*
X173480Y18981D01*
X173550Y18963D01*
X173602Y18967D01*
X173653Y18961D01*
X173724Y18977D01*
X173795Y18982D01*
X173843Y19003D01*
X173894Y19014D01*
X173955Y19051D01*
X174021Y19079D01*
X174077Y19123D01*
X174105Y19140D01*
X174120Y19158D01*
X174152Y19183D01*
X175168Y20199D01*
X175221Y20273D01*
X175254Y20311D01*
X175260Y20317D01*
X175260Y20319D01*
X175281Y20343D01*
X175293Y20373D01*
X175312Y20399D01*
X175339Y20486D01*
X175343Y20496D01*
X175363Y20540D01*
X175364Y20550D01*
X175373Y20571D01*
X175377Y20612D01*
X175384Y20634D01*
X175383Y20666D01*
X175391Y20738D01*
X175391Y37983D01*
X177400Y39992D01*
X181120Y43712D01*
X183060Y45652D01*
X183102Y45710D01*
X183151Y45762D01*
X183173Y45809D01*
X183203Y45851D01*
X183224Y45920D01*
X183255Y45985D01*
X183260Y46037D01*
X183276Y46087D01*
X183274Y46158D01*
X183282Y46229D01*
X183271Y46280D01*
X183269Y46332D01*
X183245Y46400D01*
X183229Y46470D01*
X183203Y46515D01*
X183185Y46563D01*
X183140Y46619D01*
X183103Y46681D01*
X183064Y46715D01*
X183031Y46755D01*
X182971Y46794D01*
X182916Y46841D01*
X182868Y46860D01*
X182824Y46888D01*
X182755Y46906D01*
X182688Y46933D01*
X182617Y46941D01*
X182586Y46949D01*
X182562Y46947D01*
X182521Y46951D01*
X176752Y46951D01*
X176732Y46948D01*
X176713Y46950D01*
X176611Y46928D01*
X176509Y46912D01*
X176492Y46902D01*
X176472Y46898D01*
X176383Y46845D01*
X176292Y46796D01*
X176278Y46782D01*
X176261Y46772D01*
X176194Y46693D01*
X176122Y46618D01*
X176114Y46600D01*
X176101Y46585D01*
X176062Y46489D01*
X176019Y46395D01*
X176017Y46375D01*
X176009Y46357D01*
X175991Y46190D01*
X175991Y43914D01*
X175159Y41906D01*
X173623Y40370D01*
X171615Y39538D01*
X171521Y39538D01*
X171509Y39536D01*
X171497Y39538D01*
X171387Y39516D01*
X171278Y39499D01*
X171267Y39493D01*
X171256Y39491D01*
X171158Y39435D01*
X171060Y39383D01*
X171052Y39375D01*
X171042Y39369D01*
X170968Y39286D01*
X170891Y39205D01*
X170886Y39194D01*
X170878Y39185D01*
X170834Y39083D01*
X170787Y38982D01*
X170786Y38970D01*
X170781Y38959D01*
X170773Y38848D01*
X170760Y38738D01*
X170763Y38726D01*
X170762Y38714D01*
X170789Y38606D01*
X170813Y38497D01*
X170819Y38487D01*
X170822Y38475D01*
X170905Y38330D01*
X171456Y37571D01*
X172146Y36217D01*
X172615Y34772D01*
X172853Y33272D01*
X172853Y26923D01*
X164723Y26923D01*
X164723Y42065D01*
X164727Y42065D01*
X164788Y42063D01*
X164806Y42068D01*
X164824Y42068D01*
X164898Y42093D01*
X164938Y42100D01*
X164965Y42114D01*
X165024Y42131D01*
X165039Y42142D01*
X165056Y42148D01*
X165119Y42196D01*
X165156Y42215D01*
X165177Y42238D01*
X165226Y42272D01*
X165237Y42286D01*
X165252Y42297D01*
X165295Y42361D01*
X165325Y42394D01*
X165339Y42423D01*
X165373Y42469D01*
X165379Y42486D01*
X165389Y42502D01*
X165408Y42573D01*
X165429Y42617D01*
X165433Y42652D01*
X165449Y42703D01*
X165449Y42721D01*
X165454Y42739D01*
X165450Y42808D01*
X165456Y42861D01*
X165447Y42900D01*
X165447Y42949D01*
X165441Y42970D01*
X165440Y42984D01*
X165428Y43014D01*
X165406Y43088D01*
X165404Y43101D01*
X165402Y43104D01*
X165400Y43110D01*
X165067Y43914D01*
X165067Y45835D01*
X165053Y45925D01*
X165045Y46016D01*
X165033Y46046D01*
X165028Y46078D01*
X164985Y46158D01*
X164949Y46242D01*
X164923Y46274D01*
X164912Y46295D01*
X164889Y46317D01*
X164844Y46373D01*
X158303Y52915D01*
X158287Y52926D01*
X158274Y52942D01*
X158187Y52998D01*
X158103Y53058D01*
X158084Y53064D01*
X158067Y53075D01*
X157967Y53100D01*
X157868Y53131D01*
X157848Y53130D01*
X157829Y53135D01*
X157726Y53127D01*
X157622Y53124D01*
X157603Y53117D01*
X157583Y53116D01*
X157489Y53075D01*
X157391Y53040D01*
X157375Y53027D01*
X157357Y53019D01*
X157226Y52915D01*
X156040Y51728D01*
X151263Y46951D01*
X133737Y46951D01*
X132483Y48205D01*
X132409Y48258D01*
X132340Y48318D01*
X132310Y48330D01*
X132283Y48349D01*
X132196Y48376D01*
X132112Y48410D01*
X132071Y48414D01*
X132048Y48421D01*
X132016Y48420D01*
X131945Y48428D01*
X130631Y48428D01*
X130586Y48421D01*
X130540Y48423D01*
X130465Y48401D01*
X130388Y48389D01*
X130348Y48367D01*
X130304Y48354D01*
X130240Y48310D01*
X130171Y48273D01*
X130139Y48240D01*
X130102Y48214D01*
X130055Y48151D01*
X130001Y48095D01*
X129982Y48053D01*
X129955Y48017D01*
X129931Y47943D01*
X129898Y47872D01*
X129893Y47826D01*
X129879Y47783D01*
X129879Y47705D01*
X129871Y47628D01*
X129881Y47583D01*
X129881Y47537D01*
X129919Y47405D01*
X129923Y47387D01*
X129926Y47383D01*
X129928Y47376D01*
X130462Y46086D01*
X130462Y43914D01*
X129630Y41906D01*
X128094Y40370D01*
X126086Y39538D01*
X123914Y39538D01*
X121906Y40370D01*
X120548Y41728D01*
X120474Y41781D01*
X120404Y41841D01*
X120374Y41853D01*
X120348Y41872D01*
X120261Y41899D01*
X120176Y41933D01*
X120135Y41937D01*
X120113Y41944D01*
X120081Y41943D01*
X120009Y41951D01*
X117335Y41951D01*
X117239Y41936D01*
X117142Y41926D01*
X117118Y41916D01*
X117092Y41912D01*
X117006Y41866D01*
X116917Y41826D01*
X116898Y41809D01*
X116875Y41796D01*
X116808Y41726D01*
X116736Y41660D01*
X116723Y41637D01*
X116705Y41618D01*
X116664Y41530D01*
X116617Y41444D01*
X116613Y41419D01*
X116602Y41395D01*
X116591Y41298D01*
X116574Y41202D01*
X116578Y41176D01*
X116575Y41151D01*
X116595Y41056D01*
X116610Y40959D01*
X116621Y40936D01*
X116627Y40910D01*
X116677Y40827D01*
X116721Y40740D01*
X116740Y40721D01*
X116753Y40699D01*
X116827Y40636D01*
X116897Y40568D01*
X116925Y40552D01*
X116940Y40539D01*
X116971Y40527D01*
X117044Y40487D01*
X117580Y40265D01*
X120153Y37692D01*
X121545Y34331D01*
X121545Y16469D01*
X120153Y13108D01*
X119521Y12476D01*
X119479Y12418D01*
X119430Y12366D01*
X119408Y12319D01*
X119377Y12277D01*
X119356Y12208D01*
X119326Y12143D01*
X119320Y12091D01*
X119305Y12041D01*
X119307Y11970D01*
X119299Y11899D01*
X119310Y11848D01*
X119311Y11796D01*
X119336Y11728D01*
X119351Y11658D01*
X119378Y11613D01*
X119396Y11565D01*
X119441Y11509D01*
X119477Y11447D01*
X119517Y11413D01*
X119549Y11373D01*
X119610Y11334D01*
X119664Y11287D01*
X119713Y11268D01*
X119756Y11240D01*
X119826Y11222D01*
X119892Y11195D01*
X119964Y11187D01*
X119995Y11179D01*
X120018Y11181D01*
X120059Y11177D01*
X130141Y11177D01*
X130212Y11188D01*
G37*
%LPC*%
G36*
X47250Y75187D02*
X47250Y75187D01*
X44076Y76502D01*
X41646Y78932D01*
X40331Y82106D01*
X40331Y98750D01*
X41646Y101924D01*
X44076Y104354D01*
X47250Y105669D01*
X50686Y105669D01*
X53860Y104354D01*
X56290Y101924D01*
X57605Y98750D01*
X57605Y82106D01*
X56290Y78932D01*
X53860Y76502D01*
X50686Y75187D01*
X47250Y75187D01*
G37*
%LPD*%
%LPC*%
G36*
X248782Y14559D02*
X248782Y14559D01*
X245608Y15874D01*
X243178Y18304D01*
X241863Y21478D01*
X241863Y38122D01*
X243178Y41296D01*
X245608Y43726D01*
X248782Y45041D01*
X252218Y45041D01*
X255392Y43726D01*
X257822Y41296D01*
X259137Y38122D01*
X259137Y21478D01*
X257822Y18304D01*
X255392Y15874D01*
X252218Y14559D01*
X248782Y14559D01*
G37*
%LPD*%
%LPC*%
G36*
X274182Y14559D02*
X274182Y14559D01*
X271008Y15874D01*
X268578Y18304D01*
X267263Y21478D01*
X267263Y38122D01*
X268578Y41296D01*
X271008Y43726D01*
X274182Y45041D01*
X277618Y45041D01*
X280792Y43726D01*
X283222Y41296D01*
X284537Y38122D01*
X284537Y21478D01*
X283222Y18304D01*
X280792Y15874D01*
X277618Y14559D01*
X274182Y14559D01*
G37*
%LPD*%
%LPC*%
G36*
X175766Y210323D02*
X175766Y210323D01*
X175764Y210332D01*
X175765Y210336D01*
X175763Y210345D01*
X175765Y210363D01*
X175743Y210464D01*
X175737Y210498D01*
X175738Y210500D01*
X175740Y210519D01*
X175747Y210538D01*
X175766Y210705D01*
X175766Y216411D01*
X176017Y216361D01*
X176112Y216358D01*
X176205Y216348D01*
X176234Y216354D01*
X176263Y216353D01*
X176354Y216380D01*
X176446Y216400D01*
X176471Y216415D01*
X176499Y216423D01*
X176576Y216478D01*
X176657Y216526D01*
X176676Y216548D01*
X176700Y216565D01*
X176755Y216641D01*
X176817Y216713D01*
X176828Y216740D01*
X176845Y216764D01*
X176873Y216853D01*
X176909Y216941D01*
X176913Y216978D01*
X176919Y216998D01*
X176919Y217031D01*
X176927Y217108D01*
X176927Y220351D01*
X181949Y225373D01*
X189051Y225373D01*
X194073Y220351D01*
X194073Y213249D01*
X189051Y208227D01*
X181949Y208227D01*
X181609Y208567D01*
X181572Y208594D01*
X181541Y208628D01*
X181493Y208654D01*
X181482Y208664D01*
X181466Y208670D01*
X181409Y208711D01*
X181365Y208725D01*
X181325Y208747D01*
X181248Y208760D01*
X181174Y208783D01*
X181128Y208782D01*
X181083Y208790D01*
X181006Y208779D01*
X180928Y208777D01*
X180885Y208761D01*
X180840Y208755D01*
X180770Y208719D01*
X180697Y208693D01*
X180661Y208664D01*
X180620Y208643D01*
X180566Y208587D01*
X180505Y208539D01*
X180480Y208500D01*
X180448Y208467D01*
X180382Y208347D01*
X180372Y208332D01*
X180371Y208327D01*
X180367Y208321D01*
X180105Y207686D01*
X179451Y206708D01*
X178620Y205877D01*
X177642Y205223D01*
X176555Y204773D01*
X175766Y204616D01*
X175766Y210323D01*
G37*
%LPD*%
%LPC*%
G36*
X23567Y90427D02*
X23567Y90427D01*
X23567Y91190D01*
X23564Y91210D01*
X23566Y91229D01*
X23544Y91331D01*
X23527Y91433D01*
X23518Y91450D01*
X23514Y91470D01*
X23461Y91559D01*
X23412Y91650D01*
X23398Y91664D01*
X23388Y91681D01*
X23309Y91748D01*
X23234Y91819D01*
X23216Y91828D01*
X23201Y91841D01*
X23105Y91879D01*
X23011Y91923D01*
X22991Y91925D01*
X22973Y91933D01*
X22806Y91951D01*
X14423Y91951D01*
X14423Y97933D01*
X14775Y99699D01*
X15464Y101364D01*
X16465Y102861D01*
X17739Y104135D01*
X19236Y105136D01*
X20901Y105825D01*
X22152Y106074D01*
X22195Y106090D01*
X22240Y106097D01*
X22310Y106133D01*
X22382Y106160D01*
X22418Y106189D01*
X22459Y106211D01*
X22513Y106267D01*
X22573Y106316D01*
X22598Y106354D01*
X22629Y106388D01*
X22663Y106458D01*
X22704Y106524D01*
X22715Y106568D01*
X22735Y106610D01*
X22744Y106687D01*
X22762Y106763D01*
X22759Y106808D01*
X22764Y106854D01*
X22748Y106930D01*
X22741Y107008D01*
X22723Y107050D01*
X22714Y107095D01*
X22656Y107205D01*
X22197Y108314D01*
X22040Y109104D01*
X27747Y109104D01*
X27766Y109107D01*
X27786Y109105D01*
X27887Y109127D01*
X27922Y109133D01*
X27923Y109132D01*
X27943Y109130D01*
X27961Y109122D01*
X28128Y109104D01*
X33835Y109104D01*
X33678Y108314D01*
X33228Y107228D01*
X32574Y106250D01*
X31743Y105419D01*
X30765Y104765D01*
X30405Y104616D01*
X30366Y104592D01*
X30323Y104576D01*
X30262Y104528D01*
X30196Y104487D01*
X30166Y104451D01*
X30131Y104423D01*
X30089Y104357D01*
X30039Y104297D01*
X30022Y104254D01*
X29998Y104216D01*
X29979Y104140D01*
X29951Y104067D01*
X29949Y104022D01*
X29938Y103977D01*
X29944Y103900D01*
X29940Y103822D01*
X29953Y103778D01*
X29957Y103732D01*
X29987Y103660D01*
X30009Y103586D01*
X30035Y103548D01*
X30053Y103506D01*
X30139Y103399D01*
X30149Y103383D01*
X30153Y103380D01*
X30158Y103375D01*
X30671Y102861D01*
X31672Y101364D01*
X32361Y99699D01*
X32713Y97933D01*
X32713Y91951D01*
X24330Y91951D01*
X24310Y91948D01*
X24291Y91950D01*
X24189Y91928D01*
X24087Y91911D01*
X24070Y91902D01*
X24050Y91898D01*
X23961Y91845D01*
X23870Y91796D01*
X23856Y91782D01*
X23839Y91772D01*
X23772Y91693D01*
X23701Y91618D01*
X23692Y91600D01*
X23679Y91585D01*
X23641Y91488D01*
X23597Y91395D01*
X23595Y91375D01*
X23587Y91357D01*
X23569Y91190D01*
X23569Y90427D01*
X23567Y90427D01*
G37*
%LPD*%
%LPC*%
G36*
X207349Y182827D02*
X207349Y182827D01*
X202327Y187849D01*
X202327Y194951D01*
X207349Y199973D01*
X214451Y199973D01*
X219473Y194951D01*
X219473Y187849D01*
X214451Y182827D01*
X207349Y182827D01*
G37*
%LPD*%
%LPC*%
G36*
X181949Y182827D02*
X181949Y182827D01*
X176927Y187849D01*
X176927Y194951D01*
X181949Y199973D01*
X189051Y199973D01*
X194073Y194951D01*
X194073Y187849D01*
X189051Y182827D01*
X181949Y182827D01*
G37*
%LPD*%
%LPC*%
G36*
X207349Y208227D02*
X207349Y208227D01*
X202327Y213249D01*
X202327Y220351D01*
X207349Y225373D01*
X214451Y225373D01*
X219473Y220351D01*
X219473Y213249D01*
X214451Y208227D01*
X207349Y208227D01*
G37*
%LPD*%
%LPC*%
G36*
X23870Y205952D02*
X23870Y205952D01*
X23861Y205960D01*
X23851Y205977D01*
X23772Y206044D01*
X23697Y206116D01*
X23679Y206124D01*
X23664Y206137D01*
X23568Y206176D01*
X23474Y206219D01*
X23454Y206221D01*
X23436Y206229D01*
X23269Y206247D01*
X22528Y206247D01*
X21028Y206485D01*
X19583Y206954D01*
X18229Y207644D01*
X17000Y208537D01*
X15925Y209612D01*
X15032Y210841D01*
X14342Y212195D01*
X13873Y213640D01*
X13756Y214377D01*
X28877Y214377D01*
X28877Y211731D01*
X28880Y211711D01*
X28878Y211692D01*
X28900Y211590D01*
X28917Y211488D01*
X28926Y211471D01*
X28930Y211451D01*
X28983Y211362D01*
X29032Y211271D01*
X29046Y211257D01*
X29048Y211253D01*
X29048Y205952D01*
X23870Y205952D01*
G37*
%LPD*%
%LPC*%
G36*
X31923Y217423D02*
X31923Y217423D01*
X31923Y225553D01*
X38272Y225553D01*
X39772Y225315D01*
X41217Y224846D01*
X42571Y224156D01*
X43800Y223263D01*
X44875Y222188D01*
X45768Y220959D01*
X46458Y219605D01*
X46927Y218160D01*
X47044Y217423D01*
X31923Y217423D01*
G37*
%LPD*%
%LPC*%
G36*
X13756Y217423D02*
X13756Y217423D01*
X13873Y218160D01*
X14342Y219605D01*
X15032Y220959D01*
X15925Y222188D01*
X17000Y223263D01*
X18229Y224156D01*
X19583Y224846D01*
X21028Y225315D01*
X22528Y225553D01*
X28877Y225553D01*
X28877Y217423D01*
X13756Y217423D01*
G37*
%LPD*%
%LPC*%
G36*
X153547Y26923D02*
X153547Y26923D01*
X153547Y33272D01*
X153785Y34772D01*
X154254Y36217D01*
X154944Y37571D01*
X155837Y38800D01*
X156912Y39875D01*
X158141Y40768D01*
X159495Y41458D01*
X160940Y41927D01*
X161677Y42044D01*
X161677Y26923D01*
X153547Y26923D01*
G37*
%LPD*%
%LPC*%
G36*
X25091Y88905D02*
X25091Y88905D01*
X32713Y88905D01*
X32713Y82923D01*
X32361Y81156D01*
X31672Y79492D01*
X30671Y77994D01*
X29398Y76721D01*
X27900Y75720D01*
X26235Y75031D01*
X25091Y74803D01*
X25091Y88905D01*
G37*
%LPD*%
%LPC*%
G36*
X20901Y75031D02*
X20901Y75031D01*
X19236Y75720D01*
X17739Y76721D01*
X16465Y77994D01*
X15464Y79492D01*
X14775Y81156D01*
X14423Y82923D01*
X14423Y88905D01*
X22045Y88905D01*
X22045Y74803D01*
X20901Y75031D01*
G37*
%LPD*%
%LPC*%
G36*
X233365Y215321D02*
X233365Y215321D01*
X230559Y218127D01*
X230559Y222096D01*
X233365Y224902D01*
X237334Y224902D01*
X240141Y222096D01*
X240141Y218127D01*
X237334Y215321D01*
X233365Y215321D01*
G37*
%LPD*%
%LPC*%
G36*
X290933Y57010D02*
X290933Y57010D01*
X288127Y59816D01*
X288127Y63785D01*
X290933Y66591D01*
X294902Y66591D01*
X297708Y63785D01*
X297708Y59816D01*
X294902Y57010D01*
X290933Y57010D01*
G37*
%LPD*%
%LPC*%
G36*
X34419Y36692D02*
X34419Y36692D01*
X31612Y39498D01*
X31612Y43467D01*
X34419Y46273D01*
X38387Y46273D01*
X41194Y43467D01*
X41194Y39498D01*
X38387Y36692D01*
X34419Y36692D01*
G37*
%LPD*%
%LPC*%
G36*
X201819Y167523D02*
X201819Y167523D01*
X201819Y168950D01*
X201812Y168995D01*
X201814Y169041D01*
X201792Y169116D01*
X201780Y169193D01*
X201758Y169233D01*
X201745Y169277D01*
X201701Y169341D01*
X201664Y169410D01*
X201631Y169442D01*
X201605Y169479D01*
X201542Y169526D01*
X201486Y169579D01*
X201444Y169599D01*
X201408Y169626D01*
X201334Y169650D01*
X201263Y169683D01*
X201217Y169688D01*
X201174Y169702D01*
X201096Y169701D01*
X201019Y169710D01*
X200974Y169700D01*
X200928Y169700D01*
X200796Y169662D01*
X200778Y169658D01*
X200774Y169655D01*
X200767Y169653D01*
X200626Y169595D01*
X199836Y169438D01*
X199836Y174383D01*
X204894Y174383D01*
X204921Y174292D01*
X204935Y174273D01*
X204943Y174251D01*
X205005Y174173D01*
X205063Y174091D01*
X205082Y174077D01*
X205096Y174059D01*
X205181Y174005D01*
X205262Y173946D01*
X205284Y173939D01*
X205303Y173926D01*
X205400Y173902D01*
X205496Y173871D01*
X205519Y173872D01*
X205542Y173866D01*
X205641Y173874D01*
X205742Y173876D01*
X205764Y173883D01*
X205787Y173885D01*
X205879Y173924D01*
X205974Y173958D01*
X205992Y173972D01*
X206013Y173981D01*
X206144Y174086D01*
X207139Y175081D01*
X209377Y175081D01*
X209377Y167523D01*
X201819Y167523D01*
G37*
%LPD*%
%LPC*%
G36*
X212423Y167523D02*
X212423Y167523D01*
X212423Y175081D01*
X214661Y175081D01*
X219981Y169761D01*
X219981Y167523D01*
X212423Y167523D01*
G37*
%LPD*%
%LPC*%
G36*
X212423Y156919D02*
X212423Y156919D01*
X212423Y164477D01*
X219981Y164477D01*
X219981Y162239D01*
X214661Y156919D01*
X212423Y156919D01*
G37*
%LPD*%
%LPC*%
G36*
X207139Y156919D02*
X207139Y156919D01*
X201819Y162239D01*
X201819Y164477D01*
X209377Y164477D01*
X209377Y156919D01*
X207139Y156919D01*
G37*
%LPD*%
%LPC*%
G36*
X155952Y222729D02*
X155952Y222729D01*
X155952Y227674D01*
X156741Y227517D01*
X157828Y227067D01*
X158806Y226414D01*
X159637Y225583D01*
X160290Y224605D01*
X160740Y223518D01*
X160897Y222729D01*
X155952Y222729D01*
G37*
%LPD*%
%LPC*%
G36*
X235952Y149475D02*
X235952Y149475D01*
X235952Y154420D01*
X236741Y154263D01*
X237828Y153813D01*
X238806Y153160D01*
X239637Y152329D01*
X240290Y151351D01*
X240740Y150264D01*
X240897Y149475D01*
X235952Y149475D01*
G37*
%LPD*%
%LPC*%
G36*
X115775Y115952D02*
X115775Y115952D01*
X115775Y120897D01*
X116564Y120740D01*
X117651Y120290D01*
X118629Y119637D01*
X119460Y118806D01*
X120113Y117828D01*
X120563Y116741D01*
X120720Y115952D01*
X115775Y115952D01*
G37*
%LPD*%
%LPC*%
G36*
X28889Y111007D02*
X28889Y111007D01*
X28889Y115953D01*
X29678Y115796D01*
X30765Y115346D01*
X31743Y114693D01*
X32574Y113861D01*
X33228Y112883D01*
X33678Y111797D01*
X33835Y111007D01*
X28889Y111007D01*
G37*
%LPD*%
%LPC*%
G36*
X199836Y176287D02*
X199836Y176287D01*
X199836Y181232D01*
X200626Y181075D01*
X201712Y180625D01*
X202690Y179972D01*
X203521Y179141D01*
X204175Y178163D01*
X204625Y177076D01*
X204782Y176287D01*
X199836Y176287D01*
G37*
%LPD*%
%LPC*%
G36*
X115952Y234048D02*
X115952Y234048D01*
X120897Y234048D01*
X120740Y233259D01*
X120290Y232172D01*
X119637Y231194D01*
X118806Y230363D01*
X117828Y229710D01*
X116741Y229260D01*
X115952Y229103D01*
X115952Y234048D01*
G37*
%LPD*%
%LPC*%
G36*
X149103Y222729D02*
X149103Y222729D01*
X149260Y223518D01*
X149710Y224605D01*
X150363Y225583D01*
X151194Y226414D01*
X152172Y227067D01*
X153259Y227517D01*
X154048Y227674D01*
X154048Y222729D01*
X149103Y222729D01*
G37*
%LPD*%
%LPC*%
G36*
X229103Y149475D02*
X229103Y149475D01*
X229260Y150264D01*
X229710Y151351D01*
X230363Y152329D01*
X231194Y153160D01*
X232172Y153813D01*
X233259Y154263D01*
X234048Y154420D01*
X234048Y149475D01*
X229103Y149475D01*
G37*
%LPD*%
%LPC*%
G36*
X130952Y144048D02*
X130952Y144048D01*
X135897Y144048D01*
X135740Y143259D01*
X135290Y142172D01*
X134637Y141194D01*
X133806Y140363D01*
X132828Y139710D01*
X131741Y139260D01*
X130952Y139103D01*
X130952Y144048D01*
G37*
%LPD*%
%LPC*%
G36*
X108926Y115952D02*
X108926Y115952D01*
X109083Y116741D01*
X109533Y117828D01*
X110186Y118806D01*
X111017Y119637D01*
X111995Y120290D01*
X113082Y120740D01*
X113871Y120897D01*
X113871Y115952D01*
X108926Y115952D01*
G37*
%LPD*%
%LPC*%
G36*
X22040Y111007D02*
X22040Y111007D01*
X22197Y111797D01*
X22647Y112883D01*
X23300Y113861D01*
X24132Y114693D01*
X25110Y115346D01*
X26196Y115796D01*
X26985Y115953D01*
X26985Y111007D01*
X22040Y111007D01*
G37*
%LPD*%
%LPC*%
G36*
X113259Y229260D02*
X113259Y229260D01*
X112172Y229710D01*
X111194Y230363D01*
X110363Y231194D01*
X109710Y232172D01*
X109260Y233259D01*
X109103Y234048D01*
X114048Y234048D01*
X114048Y229103D01*
X113259Y229260D01*
G37*
%LPD*%
%LPC*%
G36*
X153259Y216037D02*
X153259Y216037D01*
X152172Y216487D01*
X151194Y217140D01*
X150363Y217971D01*
X149710Y218949D01*
X149260Y220036D01*
X149103Y220825D01*
X154048Y220825D01*
X154048Y215880D01*
X153259Y216037D01*
G37*
%LPD*%
%LPC*%
G36*
X30399Y215899D02*
X30399Y215899D01*
X30399Y215901D01*
X30401Y215901D01*
X30401Y215899D01*
X30399Y215899D01*
G37*
%LPD*%
%LPC*%
G36*
X210899Y165999D02*
X210899Y165999D01*
X210899Y166001D01*
X210901Y166001D01*
X210901Y165999D01*
X210899Y165999D01*
G37*
%LPD*%
D10*
X48968Y97032D02*
X48968Y83824D01*
X23568Y83824D02*
X23568Y97032D01*
D11*
X137800Y32512D02*
X137800Y18288D01*
X163200Y18288D02*
X163200Y32512D01*
X87000Y32512D02*
X87000Y18288D01*
X112400Y18288D02*
X112400Y32512D01*
X188600Y32512D02*
X188600Y18288D01*
X214000Y18288D02*
X214000Y32512D01*
X37512Y139700D02*
X23288Y139700D01*
X23288Y165100D02*
X37512Y165100D01*
X37512Y190500D02*
X23288Y190500D01*
X23288Y215900D02*
X37512Y215900D01*
D10*
X250500Y36404D02*
X250500Y23196D01*
X275900Y23196D02*
X275900Y36404D01*
D12*
X210900Y191400D03*
X185500Y191400D03*
X210900Y216800D03*
X185500Y216800D03*
X185500Y166000D03*
X210900Y166000D03*
D13*
X67519Y95902D03*
D14*
X67519Y78971D02*
X76490Y70000D01*
X67519Y78971D02*
X67519Y95902D01*
X76490Y70000D02*
X80000Y70000D01*
X80000Y54160D01*
X76840Y51000D01*
X76840Y14080D01*
D13*
X205561Y55835D03*
D14*
X184392Y42672D02*
X178440Y36720D01*
X184392Y42672D02*
X192398Y42672D01*
X205561Y55835D01*
X178440Y19160D02*
X167408Y8128D01*
X178440Y19160D02*
X178440Y36720D01*
X82792Y8128D02*
X76840Y14080D01*
X82792Y8128D02*
X167408Y8128D01*
D13*
X77679Y201839D03*
D14*
X140660Y201839D01*
X148435Y194064D01*
X170000Y185747D02*
X170000Y171477D01*
D13*
X185000Y110000D03*
D14*
X181529Y175588D02*
X189472Y175588D01*
X195088Y169972D01*
X195088Y162029D01*
X181529Y175588D02*
X177418Y171477D01*
X170000Y171477D01*
X185000Y151941D02*
X185000Y110000D01*
X185000Y151941D02*
X195088Y162029D01*
X161683Y194064D02*
X148435Y194064D01*
X161683Y194064D02*
X170000Y185747D01*
D13*
X47196Y207804D03*
X45000Y175000D03*
D14*
X47196Y195184D02*
X47196Y207804D01*
X47196Y195184D02*
X47672Y194708D01*
X47672Y177672D01*
X45000Y175000D01*
D13*
X74036Y102778D03*
X155000Y58539D03*
D14*
X96683Y54064D02*
X90936Y54064D01*
X96683Y54064D02*
X100374Y50374D01*
X121214Y50374D01*
X122317Y51477D01*
X133523Y51477D02*
X135000Y50000D01*
X150000Y50000D01*
X155000Y55000D01*
X155000Y58539D01*
X133523Y51477D02*
X122317Y51477D01*
X84064Y60936D02*
X84064Y71683D01*
X81683Y74064D01*
X78173Y74064D02*
X71583Y80654D01*
X78173Y74064D02*
X81683Y74064D01*
X71583Y80654D02*
X71583Y90807D01*
X73996Y93220D01*
X73996Y102738D02*
X74036Y102778D01*
X73996Y102738D02*
X73996Y93220D01*
X84064Y60936D02*
X90936Y54064D01*
D13*
X271061Y73509D03*
D14*
X271061Y78939D01*
X249064Y100936D01*
X249064Y130096D01*
X242683Y136477D01*
X237317Y136477D01*
X233523Y132683D01*
X233523Y127317D01*
X240000Y120840D01*
X240000Y80000D01*
X235318Y78476D02*
X231524Y74682D01*
X238476Y78476D02*
X240000Y80000D01*
X238476Y78476D02*
X235318Y78476D01*
X231524Y68587D02*
X218317Y55380D01*
X231524Y68587D02*
X231524Y74682D01*
X218317Y55380D02*
X215000Y55380D01*
X212038Y58518D02*
X208244Y62312D01*
X202878Y62312D01*
X199084Y58518D01*
X199084Y55105D01*
X212038Y58342D02*
X215000Y55380D01*
X212038Y58342D02*
X212038Y58518D01*
X199084Y55105D02*
X193979Y50000D01*
X174689Y50000D01*
X173212Y51477D01*
X169799Y51477D01*
X165541Y55735D01*
X165541Y63720D02*
X143414Y85847D01*
D13*
X143414Y85847D03*
D14*
X165541Y63720D02*
X165541Y55735D01*
D13*
X114823Y115000D03*
D14*
X160000Y115000D01*
X164489Y110512D01*
D13*
X164489Y110512D03*
X130000Y145000D03*
D14*
X160261Y145000D01*
X165261Y150000D01*
D13*
X165261Y150000D03*
X198884Y175335D03*
D14*
X195472Y175335D01*
X191155Y179652D01*
X175734Y175541D02*
X175000Y175541D01*
X179845Y179652D02*
X191155Y179652D01*
X179845Y179652D02*
X175734Y175541D01*
D13*
X165000Y207277D03*
D14*
X174064Y176477D02*
X175000Y175541D01*
X174064Y176477D02*
X174064Y187431D01*
X165000Y196495D02*
X165000Y207277D01*
X165000Y196495D02*
X174064Y187431D01*
D13*
X174814Y210514D03*
X155000Y221777D03*
D14*
X170673Y228487D02*
X174467Y224693D01*
X170673Y228487D02*
X165307Y228487D01*
X158598Y221777D01*
X155000Y221777D01*
X174467Y210861D02*
X174814Y210514D01*
X174467Y210861D02*
X174467Y224693D01*
D13*
X30000Y205000D03*
D14*
X44514Y214281D02*
X49879Y214281D01*
X35233Y205000D02*
X30000Y205000D01*
X49879Y214281D02*
X51780Y212380D01*
X44514Y214281D02*
X35233Y205000D01*
X82620Y212380D02*
X85000Y210000D01*
X95000Y210000D01*
X100000Y215000D01*
X100000Y230000D01*
X105000Y235000D01*
X115000Y235000D01*
D13*
X115000Y235000D03*
D14*
X82620Y212380D02*
X51780Y212380D01*
X198884Y175335D02*
X198884Y171923D01*
X199152Y171655D01*
X199152Y165000D01*
X204152Y160000D01*
X205000Y160000D01*
X210900Y165900D01*
X210900Y166000D01*
X224000Y166000D01*
X235000Y155000D02*
X235000Y148523D01*
D13*
X235000Y148523D03*
D14*
X235000Y155000D02*
X224000Y166000D01*
X82683Y108523D02*
X77317Y108523D01*
X74904Y110936D01*
X89160Y115000D02*
X114823Y115000D01*
X89160Y115000D02*
X82683Y108523D01*
X28818Y110936D02*
X27937Y110056D01*
D13*
X27937Y110056D03*
D14*
X28818Y110936D02*
X74904Y110936D01*
D13*
X167990Y222010D03*
D14*
X151884Y205903D01*
X82775Y205903D02*
X80362Y208316D01*
X58316Y208316D01*
X51261Y196867D02*
X51736Y196392D01*
X51736Y171736D01*
X47672Y167672D01*
X60000Y115000D02*
X80000Y115000D01*
D13*
X80000Y115000D03*
D14*
X82775Y205903D02*
X151884Y205903D01*
X58316Y208316D02*
X51261Y201261D01*
X51261Y196867D01*
X47672Y167672D02*
X47672Y127328D01*
X60000Y115000D01*
D13*
X85000Y50000D03*
D14*
X95000Y50000D01*
X100000Y45000D01*
X125000Y45000D01*
D13*
X125000Y45000D03*
X89738Y77886D03*
D14*
X89738Y109243D01*
X91431Y110936D01*
X109727Y110936D01*
X112140Y108523D01*
X117506Y108523D01*
X119919Y110936D01*
X158012Y110936D01*
X158012Y107829D01*
X161806Y104035D01*
X167171Y104035D01*
X171738Y152683D02*
X167944Y156477D01*
X162578Y156477D01*
X158784Y152683D01*
X158784Y149837D01*
X158012Y149064D01*
X171738Y108601D02*
X167171Y104035D01*
X171738Y108601D02*
X171738Y152683D01*
D13*
X109209Y145612D03*
D14*
X135096Y149064D02*
X158012Y149064D01*
X135096Y149064D02*
X132683Y151477D01*
X127317Y151477D01*
X121452Y145612D02*
X109209Y145612D01*
X121452Y145612D02*
X127317Y151477D01*
D13*
X83812Y185401D03*
D14*
X83812Y169316D01*
X107516Y145612D01*
X109209Y145612D01*
D13*
X260000Y110000D03*
X208951Y129526D03*
D14*
X253128Y116872D02*
X260000Y110000D01*
X253128Y116872D02*
X253128Y131779D01*
X244366Y140541D01*
X235634Y140541D01*
X224619Y129526D02*
X208951Y129526D01*
X224619Y129526D02*
X235634Y140541D01*
D13*
X149363Y121477D03*
D14*
X149363Y126477D02*
X154948Y132062D01*
X149363Y126477D02*
X149363Y121477D01*
X154948Y132062D02*
X162939Y132062D01*
D13*
X162939Y132062D03*
X170529Y45000D03*
D14*
X161477Y61222D02*
X157683Y65016D01*
X152317Y65016D01*
X161477Y54052D02*
X170529Y45000D01*
X161477Y54052D02*
X161477Y61222D01*
X152317Y65016D02*
X148961Y61660D01*
X141660Y61660D01*
X141144Y62176D01*
X141144Y74603D01*
X126683Y89064D01*
X115936Y89064D01*
X102456Y102544D02*
X98470Y102544D01*
D13*
X98470Y102544D03*
D14*
X102456Y102544D02*
X115936Y89064D01*
D13*
X225000Y34839D03*
D14*
X245000Y54839D01*
X245000Y125000D01*
X240000Y130000D01*
D13*
X240000Y130000D03*
X197363Y38477D03*
D14*
X210202Y51316D01*
X220000Y51316D01*
X238001Y69317D01*
X238001Y71999D01*
D13*
X238001Y71999D03*
X170000Y165000D03*
D14*
X165000Y170000D01*
X165000Y185000D01*
X160000Y190000D01*
X145000Y190000D01*
X140000Y195000D01*
X138339Y195000D01*
D13*
X138339Y195000D03*
X105823Y77039D03*
D14*
X113442Y77039D01*
D13*
X125086Y58414D03*
D14*
X125086Y65395D01*
X113442Y77039D01*
M02*
