G04 EAGLE Gerber RS-274X export*
G75*
%MOMM*%
%FSLAX34Y34*%
%LPD*%
%INSilkscreen Top*%
%IPPOS*%
%AMOC8*
5,1,8,0,0,1.08239X$1,22.5*%
G01*
%ADD10R,0.083819X0.084581*%
%ADD11R,0.254000X0.084581*%
%ADD12R,0.170181X0.084581*%
%ADD13R,0.086363X0.084581*%
%ADD14R,0.167637X0.084581*%
%ADD15R,0.170181X0.084838*%
%ADD16R,0.083819X0.084838*%
%ADD17R,0.167637X0.084838*%
%ADD18R,0.086363X0.084838*%
%ADD19R,0.508000X0.084581*%
%ADD20R,0.421637X0.084581*%
%ADD21R,0.591819X0.084581*%
%ADD22R,0.340363X0.084838*%
%ADD23R,0.762000X0.084581*%
%ADD24R,1.270000X0.084581*%
%ADD25R,1.948181X0.084581*%
%ADD26R,0.845819X0.084581*%
%ADD27R,0.762000X0.084838*%
%ADD28R,0.421637X0.084838*%
%ADD29R,0.678181X0.084838*%
%ADD30R,0.254000X0.084838*%
%ADD31R,0.424181X0.084581*%
%ADD32R,0.594363X0.084581*%
%ADD33R,0.932181X0.084838*%
%ADD34R,1.437638X0.084838*%
%ADD35R,0.337819X0.084838*%
%ADD36R,0.337819X0.084581*%
%ADD37R,0.424181X0.084838*%
%ADD38R,0.340363X0.084581*%
%ADD39R,0.508000X0.084838*%
%ADD40R,0.675638X0.084838*%
%ADD41R,0.594363X0.084838*%
%ADD42R,0.678181X0.084581*%
%ADD43R,0.932181X0.084581*%
%ADD44C,0.150000*%
%ADD45C,0.500000*%
%ADD46C,0.076200*%
%ADD47C,0.152400*%
%ADD48C,0.127000*%
%ADD49C,0.050800*%
%ADD50C,0.101600*%

G36*
X214957Y69330D02*
X214957Y69330D01*
X214959Y69329D01*
X215002Y69349D01*
X215046Y69367D01*
X215046Y69369D01*
X215048Y69370D01*
X215081Y69455D01*
X215081Y71995D01*
X215080Y71997D01*
X215081Y71999D01*
X215061Y72042D01*
X215043Y72086D01*
X215041Y72086D01*
X215040Y72088D01*
X214955Y72121D01*
X211145Y72121D01*
X211143Y72120D01*
X211141Y72121D01*
X211098Y72101D01*
X211054Y72083D01*
X211054Y72081D01*
X211052Y72080D01*
X211019Y71995D01*
X211019Y69455D01*
X211020Y69453D01*
X211019Y69451D01*
X211039Y69408D01*
X211057Y69364D01*
X211059Y69364D01*
X211060Y69362D01*
X211145Y69329D01*
X214955Y69329D01*
X214957Y69330D01*
G37*
D10*
X25395Y8467D03*
D11*
X29624Y8467D03*
X18626Y9312D03*
D10*
X24557Y9312D03*
D12*
X26665Y9312D03*
D13*
X28786Y9312D03*
X31326Y9312D03*
D11*
X44026Y9312D03*
D14*
X47836Y9312D03*
D10*
X53335Y9312D03*
D15*
X15667Y10160D03*
D16*
X17775Y10160D03*
D17*
X19896Y10160D03*
D16*
X24557Y10160D03*
D15*
X28367Y10160D03*
X31745Y10160D03*
X41905Y10160D03*
D17*
X45296Y10160D03*
D18*
X49106Y10160D03*
D15*
X52065Y10160D03*
D18*
X54186Y10160D03*
D15*
X57145Y10160D03*
D10*
X15235Y11007D03*
D14*
X17356Y11007D03*
D19*
X22436Y11007D03*
D12*
X29205Y11007D03*
D20*
X33866Y11007D03*
D19*
X39378Y11007D03*
D13*
X44026Y11007D03*
D12*
X48687Y11007D03*
X51227Y11007D03*
D11*
X55024Y11007D03*
D10*
X15235Y11852D03*
D12*
X18207Y11852D03*
X21585Y11852D03*
D11*
X25408Y11852D03*
D10*
X29637Y11852D03*
D21*
X34717Y11852D03*
D10*
X40635Y11852D03*
D12*
X46985Y11852D03*
D11*
X49944Y11852D03*
D12*
X53767Y11852D03*
D10*
X57577Y11852D03*
D18*
X13546Y12700D03*
D15*
X15667Y12700D03*
D16*
X19477Y12700D03*
D17*
X22436Y12700D03*
D16*
X37257Y12700D03*
D15*
X49525Y12700D03*
D22*
X57996Y12700D03*
D13*
X13546Y13547D03*
D10*
X17775Y13547D03*
D12*
X23287Y13547D03*
D23*
X30488Y13547D03*
D24*
X42324Y13547D03*
D13*
X59266Y13547D03*
D14*
X14816Y14392D03*
D25*
X30475Y14392D03*
D26*
X46985Y14392D03*
D10*
X58415Y14392D03*
D15*
X16505Y15240D03*
D27*
X22868Y15240D03*
D28*
X36406Y15240D03*
D29*
X49525Y15240D03*
D30*
X56726Y15240D03*
D31*
X19477Y16087D03*
D12*
X24125Y16087D03*
D14*
X35136Y16087D03*
X37676Y16087D03*
D12*
X48687Y16087D03*
D31*
X53335Y16087D03*
D11*
X18626Y16932D03*
D12*
X23287Y16932D03*
D10*
X34717Y16932D03*
D14*
X37676Y16932D03*
D12*
X49525Y16932D03*
D11*
X54186Y16932D03*
D15*
X18207Y17780D03*
X23287Y17780D03*
D16*
X34717Y17780D03*
D15*
X38527Y17780D03*
X49525Y17780D03*
D30*
X55024Y17780D03*
D14*
X17356Y18627D03*
D12*
X23287Y18627D03*
D10*
X34717Y18627D03*
D12*
X38527Y18627D03*
X49525Y18627D03*
D14*
X55456Y18627D03*
X17356Y19472D03*
D12*
X23287Y19472D03*
X34285Y19472D03*
X38527Y19472D03*
X49525Y19472D03*
X56307Y19472D03*
D17*
X17356Y20320D03*
D15*
X23287Y20320D03*
D18*
X33866Y20320D03*
X38946Y20320D03*
D15*
X49525Y20320D03*
X56307Y20320D03*
D14*
X17356Y21167D03*
D12*
X24125Y21167D03*
D13*
X33866Y21167D03*
D12*
X39365Y21167D03*
X49525Y21167D03*
D13*
X56726Y21167D03*
D14*
X17356Y22012D03*
D12*
X24125Y22012D03*
D13*
X33866Y22012D03*
D12*
X39365Y22012D03*
X49525Y22012D03*
D13*
X56726Y22012D03*
D16*
X17775Y22860D03*
D30*
X24544Y22860D03*
D18*
X33866Y22860D03*
D16*
X39797Y22860D03*
D15*
X49525Y22860D03*
X57145Y22860D03*
D12*
X18207Y23707D03*
D14*
X24976Y23707D03*
D12*
X48687Y23707D03*
D13*
X56726Y23707D03*
D12*
X19045Y24552D03*
D14*
X24976Y24552D03*
D12*
X48687Y24552D03*
D13*
X56726Y24552D03*
D30*
X20328Y25400D03*
D15*
X25827Y25400D03*
D16*
X33015Y25400D03*
D17*
X47836Y25400D03*
D15*
X56307Y25400D03*
D32*
X23706Y26247D03*
D14*
X47836Y26247D03*
D11*
X55888Y26247D03*
D13*
X23706Y27092D03*
D11*
X26246Y27092D03*
X47404Y27092D03*
X55024Y27092D03*
D15*
X26665Y27940D03*
D33*
X50795Y27940D03*
D12*
X26665Y28787D03*
X46147Y28787D03*
D20*
X51646Y28787D03*
D14*
X27516Y29632D03*
D20*
X33866Y29632D03*
D11*
X45728Y29632D03*
D34*
X33866Y30480D03*
D17*
X45296Y30480D03*
D32*
X28786Y31327D03*
D21*
X39797Y31327D03*
D12*
X44445Y31327D03*
D20*
X26246Y32172D03*
D19*
X42756Y32172D03*
D35*
X24125Y33020D03*
X44445Y33020D03*
D11*
X22868Y33867D03*
D36*
X46147Y33867D03*
D11*
X22004Y34712D03*
X47404Y34712D03*
D28*
X13546Y35560D03*
D30*
X21166Y35560D03*
X48268Y35560D03*
D23*
X13546Y36407D03*
D11*
X20328Y36407D03*
X49106Y36407D03*
X10168Y37252D03*
D19*
X18194Y37252D03*
D14*
X50376Y37252D03*
D17*
X9736Y38100D03*
D30*
X18626Y38100D03*
D15*
X51227Y38100D03*
D12*
X8885Y38947D03*
X19045Y38947D03*
D11*
X51646Y38947D03*
D12*
X8885Y39792D03*
X18207Y39792D03*
X52065Y39792D03*
D15*
X8047Y40640D03*
X18207Y40640D03*
D37*
X25395Y40640D03*
D17*
X52916Y40640D03*
D12*
X8047Y41487D03*
D11*
X17788Y41487D03*
D36*
X24125Y41487D03*
D10*
X27097Y41487D03*
D14*
X52916Y41487D03*
D12*
X8047Y42332D03*
D14*
X17356Y42332D03*
D10*
X22855Y42332D03*
X25395Y42332D03*
X27935Y42332D03*
D12*
X53767Y42332D03*
D15*
X8047Y43180D03*
D17*
X17356Y43180D03*
D16*
X22855Y43180D03*
D30*
X27084Y43180D03*
D15*
X53767Y43180D03*
D12*
X8047Y44027D03*
D10*
X14397Y44027D03*
D14*
X17356Y44027D03*
X27516Y44027D03*
D13*
X54186Y44027D03*
D12*
X8047Y44872D03*
D14*
X17356Y44872D03*
D10*
X22855Y44872D03*
D14*
X27516Y44872D03*
D12*
X54605Y44872D03*
D18*
X8466Y45720D03*
D30*
X16924Y45720D03*
D18*
X23706Y45720D03*
D15*
X26665Y45720D03*
D37*
X44877Y45720D03*
D15*
X54605Y45720D03*
D12*
X8885Y46567D03*
D11*
X16924Y46567D03*
D36*
X43607Y46567D03*
D13*
X46566Y46567D03*
D12*
X54605Y46567D03*
X8885Y47412D03*
D38*
X17356Y47412D03*
D10*
X42337Y47412D03*
X44877Y47412D03*
X47417Y47412D03*
D11*
X55024Y47412D03*
D17*
X9736Y48260D03*
D15*
X16505Y48260D03*
D18*
X18626Y48260D03*
X41486Y48260D03*
D30*
X46566Y48260D03*
D39*
X55456Y48260D03*
D11*
X10168Y49107D03*
D12*
X16505Y49107D03*
D10*
X19477Y49107D03*
D13*
X33866Y49107D03*
D12*
X46985Y49107D03*
D21*
X55875Y49107D03*
D11*
X11006Y49952D03*
D36*
X16505Y49952D03*
D14*
X19896Y49952D03*
D12*
X33447Y49952D03*
D10*
X42337Y49952D03*
D12*
X46985Y49952D03*
D11*
X53348Y49952D03*
X58428Y49952D03*
D40*
X14816Y50800D03*
D16*
X20315Y50800D03*
X32177Y50800D03*
D18*
X33866Y50800D03*
D16*
X43175Y50800D03*
D15*
X46147Y50800D03*
D30*
X53348Y50800D03*
X59266Y50800D03*
D12*
X13965Y51647D03*
D14*
X17356Y51647D03*
D12*
X21585Y51647D03*
D13*
X31326Y51647D03*
D10*
X34717Y51647D03*
D38*
X52916Y51647D03*
D12*
X59685Y51647D03*
D14*
X17356Y52492D03*
X22436Y52492D03*
X30056Y52492D03*
X35136Y52492D03*
D13*
X51646Y52492D03*
D12*
X53767Y52492D03*
D11*
X60104Y52492D03*
D30*
X17788Y53340D03*
D41*
X26246Y53340D03*
D15*
X35987Y53340D03*
D16*
X50795Y53340D03*
D17*
X52916Y53340D03*
X60536Y53340D03*
D12*
X18207Y54187D03*
X36825Y54187D03*
D10*
X49957Y54187D03*
D14*
X52916Y54187D03*
X60536Y54187D03*
D12*
X18207Y55032D03*
D14*
X37676Y55032D03*
D12*
X48687Y55032D03*
X52065Y55032D03*
D13*
X54186Y55032D03*
D14*
X60536Y55032D03*
D15*
X19045Y55880D03*
X39365Y55880D03*
D17*
X47836Y55880D03*
D15*
X52065Y55880D03*
D17*
X60536Y55880D03*
D12*
X19045Y56727D03*
D42*
X43607Y56727D03*
D12*
X51227Y56727D03*
D14*
X60536Y56727D03*
X19896Y57572D03*
X50376Y57572D03*
X60536Y57572D03*
D17*
X19896Y58420D03*
D30*
X49944Y58420D03*
X60104Y58420D03*
D12*
X20747Y59267D03*
X49525Y59267D03*
X59685Y59267D03*
D11*
X21166Y60112D03*
D20*
X49106Y60112D03*
D11*
X59266Y60112D03*
D15*
X21585Y60960D03*
D30*
X47404Y60960D03*
X50808Y60960D03*
X58428Y60960D03*
D14*
X22436Y61807D03*
D11*
X46566Y61807D03*
D43*
X55037Y61807D03*
D11*
X22868Y62652D03*
D13*
X26246Y62652D03*
D10*
X30475Y62652D03*
D11*
X44864Y62652D03*
D23*
X55024Y62652D03*
D30*
X23706Y63500D03*
D16*
X27097Y63500D03*
D30*
X33028Y63500D03*
D35*
X43607Y63500D03*
D30*
X55024Y63500D03*
D11*
X24544Y64347D03*
X28786Y64347D03*
D26*
X38527Y64347D03*
D20*
X26246Y65192D03*
D36*
X31745Y65192D03*
X38527Y65192D03*
D22*
X27516Y66040D03*
D39*
X35136Y66040D03*
D20*
X28786Y66887D03*
D12*
X30907Y67732D03*
D44*
X71800Y135300D02*
X71800Y138300D01*
X71800Y207300D02*
X71800Y210300D01*
X143800Y210300D02*
X146800Y210300D01*
X74800Y210300D02*
X71800Y210300D01*
X146800Y138300D02*
X146800Y135300D01*
X146800Y207300D02*
X146800Y210300D01*
X146800Y135300D02*
X143800Y135300D01*
X74800Y135300D02*
X71800Y135300D01*
D45*
X81300Y117300D03*
D46*
X53542Y225810D02*
X56621Y235048D01*
X59701Y225810D01*
X58931Y228119D02*
X54312Y228119D01*
X65021Y225810D02*
X65021Y235048D01*
X62455Y235048D02*
X67587Y235048D01*
X71242Y235048D02*
X71242Y225810D01*
X74321Y229916D02*
X71242Y235048D01*
X74321Y229916D02*
X77400Y235048D01*
X77400Y225810D01*
X81972Y225810D02*
X86078Y225810D01*
X81972Y225810D02*
X81972Y235048D01*
X86078Y235048D01*
X85052Y230942D02*
X81972Y230942D01*
X93347Y230942D02*
X94887Y230942D01*
X94887Y225810D01*
X91808Y225810D01*
X91718Y225812D01*
X91629Y225818D01*
X91540Y225828D01*
X91452Y225841D01*
X91364Y225859D01*
X91277Y225880D01*
X91191Y225905D01*
X91106Y225934D01*
X91022Y225966D01*
X90940Y226002D01*
X90860Y226042D01*
X90782Y226085D01*
X90705Y226132D01*
X90630Y226181D01*
X90558Y226234D01*
X90488Y226290D01*
X90421Y226349D01*
X90356Y226411D01*
X90294Y226476D01*
X90235Y226543D01*
X90179Y226613D01*
X90126Y226685D01*
X90077Y226760D01*
X90030Y226837D01*
X89987Y226915D01*
X89947Y226995D01*
X89911Y227077D01*
X89879Y227161D01*
X89850Y227246D01*
X89825Y227332D01*
X89804Y227419D01*
X89786Y227507D01*
X89773Y227595D01*
X89763Y227684D01*
X89757Y227773D01*
X89755Y227863D01*
X89755Y232995D01*
X89757Y233085D01*
X89763Y233174D01*
X89773Y233263D01*
X89786Y233351D01*
X89804Y233439D01*
X89825Y233526D01*
X89850Y233612D01*
X89879Y233697D01*
X89911Y233781D01*
X89947Y233863D01*
X89987Y233943D01*
X90030Y234021D01*
X90077Y234098D01*
X90126Y234173D01*
X90179Y234245D01*
X90235Y234315D01*
X90294Y234382D01*
X90356Y234447D01*
X90421Y234509D01*
X90488Y234568D01*
X90558Y234624D01*
X90630Y234677D01*
X90705Y234726D01*
X90781Y234773D01*
X90860Y234816D01*
X90940Y234856D01*
X91022Y234892D01*
X91106Y234924D01*
X91191Y234953D01*
X91277Y234978D01*
X91364Y234999D01*
X91451Y235017D01*
X91540Y235030D01*
X91629Y235040D01*
X91718Y235046D01*
X91808Y235048D01*
X94887Y235048D01*
X101621Y235048D02*
X98542Y225810D01*
X104700Y225810D02*
X101621Y235048D01*
X103931Y228119D02*
X99312Y228119D01*
X108055Y225810D02*
X110621Y225810D01*
X110720Y225812D01*
X110820Y225818D01*
X110919Y225827D01*
X111017Y225841D01*
X111115Y225858D01*
X111213Y225879D01*
X111309Y225904D01*
X111404Y225933D01*
X111499Y225965D01*
X111591Y226001D01*
X111683Y226040D01*
X111773Y226083D01*
X111861Y226129D01*
X111947Y226179D01*
X112031Y226232D01*
X112113Y226288D01*
X112193Y226348D01*
X112270Y226410D01*
X112345Y226476D01*
X112418Y226544D01*
X112487Y226615D01*
X112554Y226689D01*
X112618Y226765D01*
X112679Y226844D01*
X112737Y226925D01*
X112792Y227008D01*
X112843Y227093D01*
X112891Y227180D01*
X112936Y227269D01*
X112977Y227360D01*
X113015Y227452D01*
X113049Y227545D01*
X113079Y227640D01*
X113106Y227736D01*
X113129Y227833D01*
X113148Y227930D01*
X113163Y228029D01*
X113175Y228128D01*
X113183Y228227D01*
X113187Y228326D01*
X113187Y228426D01*
X113183Y228525D01*
X113175Y228624D01*
X113163Y228723D01*
X113148Y228822D01*
X113129Y228919D01*
X113106Y229016D01*
X113079Y229112D01*
X113049Y229207D01*
X113015Y229300D01*
X112977Y229392D01*
X112936Y229483D01*
X112891Y229572D01*
X112843Y229659D01*
X112792Y229744D01*
X112737Y229827D01*
X112679Y229908D01*
X112618Y229987D01*
X112554Y230063D01*
X112487Y230137D01*
X112418Y230208D01*
X112345Y230276D01*
X112270Y230342D01*
X112193Y230404D01*
X112113Y230464D01*
X112031Y230520D01*
X111947Y230573D01*
X111861Y230623D01*
X111773Y230669D01*
X111683Y230712D01*
X111591Y230751D01*
X111499Y230787D01*
X111404Y230819D01*
X111309Y230848D01*
X111213Y230873D01*
X111115Y230894D01*
X111017Y230911D01*
X110919Y230925D01*
X110820Y230934D01*
X110720Y230940D01*
X110621Y230942D01*
X111134Y235048D02*
X108055Y235048D01*
X111134Y235048D02*
X111224Y235046D01*
X111313Y235040D01*
X111402Y235030D01*
X111490Y235017D01*
X111578Y234999D01*
X111665Y234978D01*
X111751Y234953D01*
X111836Y234924D01*
X111920Y234892D01*
X112002Y234856D01*
X112082Y234816D01*
X112161Y234773D01*
X112237Y234726D01*
X112312Y234677D01*
X112384Y234624D01*
X112454Y234568D01*
X112521Y234509D01*
X112586Y234447D01*
X112648Y234382D01*
X112707Y234315D01*
X112763Y234245D01*
X112816Y234173D01*
X112865Y234098D01*
X112912Y234022D01*
X112955Y233943D01*
X112995Y233863D01*
X113031Y233781D01*
X113063Y233697D01*
X113092Y233612D01*
X113117Y233526D01*
X113138Y233439D01*
X113156Y233351D01*
X113169Y233263D01*
X113179Y233174D01*
X113185Y233085D01*
X113187Y232995D01*
X113185Y232905D01*
X113179Y232816D01*
X113169Y232727D01*
X113156Y232639D01*
X113138Y232551D01*
X113117Y232464D01*
X113092Y232378D01*
X113063Y232293D01*
X113031Y232209D01*
X112995Y232127D01*
X112955Y232047D01*
X112912Y231969D01*
X112865Y231892D01*
X112816Y231817D01*
X112763Y231745D01*
X112707Y231675D01*
X112648Y231608D01*
X112586Y231543D01*
X112521Y231481D01*
X112454Y231422D01*
X112384Y231366D01*
X112312Y231313D01*
X112237Y231264D01*
X112161Y231217D01*
X112082Y231174D01*
X112002Y231134D01*
X111920Y231098D01*
X111836Y231066D01*
X111751Y231037D01*
X111665Y231012D01*
X111578Y230991D01*
X111490Y230973D01*
X111402Y230960D01*
X111313Y230950D01*
X111224Y230944D01*
X111134Y230942D01*
X109081Y230942D01*
X119878Y235048D02*
X119971Y235046D01*
X120064Y235041D01*
X120156Y235031D01*
X120249Y235018D01*
X120340Y235001D01*
X120431Y234981D01*
X120521Y234957D01*
X120610Y234929D01*
X120697Y234898D01*
X120783Y234863D01*
X120868Y234825D01*
X120952Y234783D01*
X121033Y234739D01*
X121113Y234690D01*
X121190Y234639D01*
X121266Y234585D01*
X121339Y234527D01*
X121410Y234467D01*
X121478Y234404D01*
X121544Y234338D01*
X121607Y234270D01*
X121667Y234199D01*
X121725Y234126D01*
X121779Y234050D01*
X121830Y233973D01*
X121879Y233893D01*
X121923Y233812D01*
X121965Y233728D01*
X122003Y233643D01*
X122038Y233557D01*
X122069Y233470D01*
X122097Y233381D01*
X122121Y233291D01*
X122141Y233200D01*
X122158Y233109D01*
X122171Y233016D01*
X122181Y232924D01*
X122186Y232831D01*
X122188Y232738D01*
X119878Y235048D02*
X119771Y235046D01*
X119665Y235040D01*
X119559Y235031D01*
X119453Y235017D01*
X119348Y235000D01*
X119243Y234979D01*
X119140Y234955D01*
X119037Y234926D01*
X118935Y234894D01*
X118835Y234859D01*
X118736Y234819D01*
X118638Y234776D01*
X118542Y234730D01*
X118448Y234680D01*
X118355Y234627D01*
X118265Y234571D01*
X118176Y234511D01*
X118090Y234449D01*
X118006Y234383D01*
X117925Y234314D01*
X117846Y234243D01*
X117769Y234168D01*
X117696Y234091D01*
X117625Y234012D01*
X117557Y233929D01*
X117492Y233845D01*
X117430Y233758D01*
X117372Y233669D01*
X117316Y233578D01*
X117264Y233485D01*
X117215Y233390D01*
X117170Y233294D01*
X117128Y233195D01*
X117090Y233096D01*
X117055Y232995D01*
X121418Y230941D02*
X121486Y231009D01*
X121551Y231079D01*
X121614Y231151D01*
X121674Y231226D01*
X121731Y231303D01*
X121784Y231382D01*
X121835Y231463D01*
X121883Y231546D01*
X121927Y231630D01*
X121968Y231717D01*
X122006Y231805D01*
X122040Y231894D01*
X122071Y231985D01*
X122098Y232076D01*
X122122Y232169D01*
X122142Y232263D01*
X122159Y232357D01*
X122171Y232452D01*
X122181Y232547D01*
X122186Y232642D01*
X122188Y232738D01*
X121417Y230942D02*
X117055Y225810D01*
X122187Y225810D01*
X126055Y228376D02*
X126057Y228475D01*
X126063Y228575D01*
X126072Y228674D01*
X126086Y228772D01*
X126103Y228870D01*
X126124Y228968D01*
X126149Y229064D01*
X126178Y229159D01*
X126210Y229254D01*
X126246Y229346D01*
X126285Y229438D01*
X126328Y229528D01*
X126374Y229616D01*
X126424Y229702D01*
X126477Y229786D01*
X126533Y229868D01*
X126593Y229948D01*
X126655Y230025D01*
X126721Y230100D01*
X126789Y230173D01*
X126860Y230242D01*
X126934Y230309D01*
X127010Y230373D01*
X127089Y230434D01*
X127170Y230492D01*
X127253Y230547D01*
X127338Y230598D01*
X127425Y230646D01*
X127514Y230691D01*
X127605Y230732D01*
X127697Y230770D01*
X127790Y230804D01*
X127885Y230834D01*
X127981Y230861D01*
X128078Y230884D01*
X128175Y230903D01*
X128274Y230918D01*
X128373Y230930D01*
X128472Y230938D01*
X128571Y230942D01*
X128671Y230942D01*
X128770Y230938D01*
X128869Y230930D01*
X128968Y230918D01*
X129067Y230903D01*
X129164Y230884D01*
X129261Y230861D01*
X129357Y230834D01*
X129452Y230804D01*
X129545Y230770D01*
X129637Y230732D01*
X129728Y230691D01*
X129817Y230646D01*
X129904Y230598D01*
X129989Y230547D01*
X130072Y230492D01*
X130153Y230434D01*
X130232Y230373D01*
X130308Y230309D01*
X130382Y230242D01*
X130453Y230173D01*
X130521Y230100D01*
X130587Y230025D01*
X130649Y229948D01*
X130709Y229868D01*
X130765Y229786D01*
X130818Y229702D01*
X130868Y229616D01*
X130914Y229528D01*
X130957Y229438D01*
X130996Y229346D01*
X131032Y229254D01*
X131064Y229159D01*
X131093Y229064D01*
X131118Y228968D01*
X131139Y228870D01*
X131156Y228772D01*
X131170Y228674D01*
X131179Y228575D01*
X131185Y228475D01*
X131187Y228376D01*
X131185Y228277D01*
X131179Y228177D01*
X131170Y228078D01*
X131156Y227980D01*
X131139Y227882D01*
X131118Y227784D01*
X131093Y227688D01*
X131064Y227593D01*
X131032Y227498D01*
X130996Y227406D01*
X130957Y227314D01*
X130914Y227224D01*
X130868Y227136D01*
X130818Y227050D01*
X130765Y226966D01*
X130709Y226884D01*
X130649Y226804D01*
X130587Y226727D01*
X130521Y226652D01*
X130453Y226579D01*
X130382Y226510D01*
X130308Y226443D01*
X130232Y226379D01*
X130153Y226318D01*
X130072Y226260D01*
X129989Y226205D01*
X129904Y226154D01*
X129817Y226106D01*
X129728Y226061D01*
X129637Y226020D01*
X129545Y225982D01*
X129452Y225948D01*
X129357Y225918D01*
X129261Y225891D01*
X129164Y225868D01*
X129067Y225849D01*
X128968Y225834D01*
X128869Y225822D01*
X128770Y225814D01*
X128671Y225810D01*
X128571Y225810D01*
X128472Y225814D01*
X128373Y225822D01*
X128274Y225834D01*
X128175Y225849D01*
X128078Y225868D01*
X127981Y225891D01*
X127885Y225918D01*
X127790Y225948D01*
X127697Y225982D01*
X127605Y226020D01*
X127514Y226061D01*
X127425Y226106D01*
X127338Y226154D01*
X127253Y226205D01*
X127170Y226260D01*
X127089Y226318D01*
X127010Y226379D01*
X126934Y226443D01*
X126860Y226510D01*
X126789Y226579D01*
X126721Y226652D01*
X126655Y226727D01*
X126593Y226804D01*
X126533Y226884D01*
X126477Y226966D01*
X126424Y227050D01*
X126374Y227136D01*
X126328Y227224D01*
X126285Y227314D01*
X126246Y227406D01*
X126210Y227498D01*
X126178Y227593D01*
X126149Y227688D01*
X126124Y227784D01*
X126103Y227882D01*
X126086Y227980D01*
X126072Y228078D01*
X126063Y228177D01*
X126057Y228277D01*
X126055Y228376D01*
X126568Y232995D02*
X126570Y233085D01*
X126576Y233174D01*
X126586Y233263D01*
X126599Y233351D01*
X126617Y233439D01*
X126638Y233526D01*
X126663Y233612D01*
X126692Y233697D01*
X126724Y233781D01*
X126760Y233863D01*
X126800Y233943D01*
X126843Y234022D01*
X126890Y234098D01*
X126939Y234173D01*
X126992Y234245D01*
X127048Y234315D01*
X127107Y234382D01*
X127169Y234447D01*
X127234Y234509D01*
X127301Y234568D01*
X127371Y234624D01*
X127443Y234677D01*
X127518Y234726D01*
X127595Y234773D01*
X127673Y234816D01*
X127753Y234856D01*
X127835Y234892D01*
X127919Y234924D01*
X128004Y234953D01*
X128090Y234978D01*
X128177Y234999D01*
X128265Y235017D01*
X128353Y235030D01*
X128442Y235040D01*
X128531Y235046D01*
X128621Y235048D01*
X128711Y235046D01*
X128800Y235040D01*
X128889Y235030D01*
X128977Y235017D01*
X129065Y234999D01*
X129152Y234978D01*
X129238Y234953D01*
X129323Y234924D01*
X129407Y234892D01*
X129489Y234856D01*
X129569Y234816D01*
X129648Y234773D01*
X129724Y234726D01*
X129799Y234677D01*
X129871Y234624D01*
X129941Y234568D01*
X130008Y234509D01*
X130073Y234447D01*
X130135Y234382D01*
X130194Y234315D01*
X130250Y234245D01*
X130303Y234173D01*
X130352Y234098D01*
X130399Y234022D01*
X130442Y233943D01*
X130482Y233863D01*
X130518Y233781D01*
X130550Y233697D01*
X130579Y233612D01*
X130604Y233526D01*
X130625Y233439D01*
X130643Y233351D01*
X130656Y233263D01*
X130666Y233174D01*
X130672Y233085D01*
X130674Y232995D01*
X130672Y232905D01*
X130666Y232816D01*
X130656Y232727D01*
X130643Y232639D01*
X130625Y232551D01*
X130604Y232464D01*
X130579Y232378D01*
X130550Y232293D01*
X130518Y232209D01*
X130482Y232127D01*
X130442Y232047D01*
X130399Y231969D01*
X130352Y231892D01*
X130303Y231817D01*
X130250Y231745D01*
X130194Y231675D01*
X130135Y231608D01*
X130073Y231543D01*
X130008Y231481D01*
X129941Y231422D01*
X129871Y231366D01*
X129799Y231313D01*
X129724Y231264D01*
X129648Y231217D01*
X129569Y231174D01*
X129489Y231134D01*
X129407Y231098D01*
X129323Y231066D01*
X129238Y231037D01*
X129152Y231012D01*
X129065Y230991D01*
X128977Y230973D01*
X128889Y230960D01*
X128800Y230950D01*
X128711Y230944D01*
X128621Y230942D01*
X128531Y230944D01*
X128442Y230950D01*
X128353Y230960D01*
X128265Y230973D01*
X128177Y230991D01*
X128090Y231012D01*
X128004Y231037D01*
X127919Y231066D01*
X127835Y231098D01*
X127753Y231134D01*
X127673Y231174D01*
X127595Y231217D01*
X127518Y231264D01*
X127443Y231313D01*
X127371Y231366D01*
X127301Y231422D01*
X127234Y231481D01*
X127169Y231543D01*
X127107Y231608D01*
X127048Y231675D01*
X126992Y231745D01*
X126939Y231817D01*
X126890Y231892D01*
X126843Y231969D01*
X126800Y232047D01*
X126760Y232127D01*
X126724Y232209D01*
X126692Y232293D01*
X126663Y232378D01*
X126638Y232464D01*
X126617Y232551D01*
X126599Y232639D01*
X126586Y232727D01*
X126576Y232816D01*
X126570Y232905D01*
X126568Y232995D01*
X135485Y235048D02*
X135485Y225810D01*
X135485Y235048D02*
X138051Y235048D01*
X138150Y235046D01*
X138250Y235040D01*
X138349Y235031D01*
X138447Y235017D01*
X138545Y235000D01*
X138643Y234979D01*
X138739Y234954D01*
X138834Y234925D01*
X138929Y234893D01*
X139021Y234857D01*
X139113Y234818D01*
X139203Y234775D01*
X139291Y234729D01*
X139377Y234679D01*
X139461Y234626D01*
X139543Y234570D01*
X139623Y234510D01*
X139700Y234448D01*
X139775Y234382D01*
X139848Y234314D01*
X139917Y234243D01*
X139984Y234169D01*
X140048Y234093D01*
X140109Y234014D01*
X140167Y233933D01*
X140222Y233850D01*
X140273Y233765D01*
X140321Y233678D01*
X140366Y233589D01*
X140407Y233498D01*
X140445Y233406D01*
X140479Y233313D01*
X140509Y233218D01*
X140536Y233122D01*
X140559Y233025D01*
X140578Y232928D01*
X140593Y232829D01*
X140605Y232730D01*
X140613Y232631D01*
X140617Y232532D01*
X140617Y232432D01*
X140613Y232333D01*
X140605Y232234D01*
X140593Y232135D01*
X140578Y232036D01*
X140559Y231939D01*
X140536Y231842D01*
X140509Y231746D01*
X140479Y231651D01*
X140445Y231558D01*
X140407Y231466D01*
X140366Y231375D01*
X140321Y231286D01*
X140273Y231199D01*
X140222Y231114D01*
X140167Y231031D01*
X140109Y230950D01*
X140048Y230871D01*
X139984Y230795D01*
X139917Y230721D01*
X139848Y230650D01*
X139775Y230582D01*
X139700Y230516D01*
X139623Y230454D01*
X139543Y230394D01*
X139461Y230338D01*
X139377Y230285D01*
X139291Y230235D01*
X139203Y230189D01*
X139113Y230146D01*
X139021Y230107D01*
X138929Y230071D01*
X138834Y230039D01*
X138739Y230010D01*
X138643Y229985D01*
X138545Y229964D01*
X138447Y229947D01*
X138349Y229933D01*
X138250Y229924D01*
X138150Y229918D01*
X138051Y229916D01*
X135485Y229916D01*
X144485Y230942D02*
X147051Y230942D01*
X147150Y230940D01*
X147250Y230934D01*
X147349Y230925D01*
X147447Y230911D01*
X147545Y230894D01*
X147643Y230873D01*
X147739Y230848D01*
X147834Y230819D01*
X147929Y230787D01*
X148021Y230751D01*
X148113Y230712D01*
X148203Y230669D01*
X148291Y230623D01*
X148377Y230573D01*
X148461Y230520D01*
X148543Y230464D01*
X148623Y230404D01*
X148700Y230342D01*
X148775Y230276D01*
X148848Y230208D01*
X148917Y230137D01*
X148984Y230063D01*
X149048Y229987D01*
X149109Y229908D01*
X149167Y229827D01*
X149222Y229744D01*
X149273Y229659D01*
X149321Y229572D01*
X149366Y229483D01*
X149407Y229392D01*
X149445Y229300D01*
X149479Y229207D01*
X149509Y229112D01*
X149536Y229016D01*
X149559Y228919D01*
X149578Y228822D01*
X149593Y228723D01*
X149605Y228624D01*
X149613Y228525D01*
X149617Y228426D01*
X149617Y228326D01*
X149613Y228227D01*
X149605Y228128D01*
X149593Y228029D01*
X149578Y227930D01*
X149559Y227833D01*
X149536Y227736D01*
X149509Y227640D01*
X149479Y227545D01*
X149445Y227452D01*
X149407Y227360D01*
X149366Y227269D01*
X149321Y227180D01*
X149273Y227093D01*
X149222Y227008D01*
X149167Y226925D01*
X149109Y226844D01*
X149048Y226765D01*
X148984Y226689D01*
X148917Y226615D01*
X148848Y226544D01*
X148775Y226476D01*
X148700Y226410D01*
X148623Y226348D01*
X148543Y226288D01*
X148461Y226232D01*
X148377Y226179D01*
X148291Y226129D01*
X148203Y226083D01*
X148113Y226040D01*
X148021Y226001D01*
X147929Y225965D01*
X147834Y225933D01*
X147739Y225904D01*
X147643Y225879D01*
X147545Y225858D01*
X147447Y225841D01*
X147349Y225827D01*
X147250Y225818D01*
X147150Y225812D01*
X147051Y225810D01*
X144485Y225810D01*
X144485Y235048D01*
X147051Y235048D01*
X147141Y235046D01*
X147230Y235040D01*
X147319Y235030D01*
X147407Y235017D01*
X147495Y234999D01*
X147582Y234978D01*
X147668Y234953D01*
X147753Y234924D01*
X147837Y234892D01*
X147919Y234856D01*
X147999Y234816D01*
X148078Y234773D01*
X148154Y234726D01*
X148229Y234677D01*
X148301Y234624D01*
X148371Y234568D01*
X148438Y234509D01*
X148503Y234447D01*
X148565Y234382D01*
X148624Y234315D01*
X148680Y234245D01*
X148733Y234173D01*
X148782Y234098D01*
X148829Y234022D01*
X148872Y233943D01*
X148912Y233863D01*
X148948Y233781D01*
X148980Y233697D01*
X149009Y233612D01*
X149034Y233526D01*
X149055Y233439D01*
X149073Y233351D01*
X149086Y233263D01*
X149096Y233174D01*
X149102Y233085D01*
X149104Y232995D01*
X149102Y232905D01*
X149096Y232816D01*
X149086Y232727D01*
X149073Y232639D01*
X149055Y232551D01*
X149034Y232464D01*
X149009Y232378D01*
X148980Y232293D01*
X148948Y232209D01*
X148912Y232127D01*
X148872Y232047D01*
X148829Y231969D01*
X148782Y231892D01*
X148733Y231817D01*
X148680Y231745D01*
X148624Y231675D01*
X148565Y231608D01*
X148503Y231543D01*
X148438Y231481D01*
X148371Y231422D01*
X148301Y231366D01*
X148229Y231313D01*
X148154Y231264D01*
X148078Y231217D01*
X147999Y231174D01*
X147919Y231134D01*
X147837Y231098D01*
X147753Y231066D01*
X147668Y231037D01*
X147582Y231012D01*
X147495Y230991D01*
X147407Y230973D01*
X147319Y230960D01*
X147230Y230950D01*
X147141Y230944D01*
X147051Y230942D01*
D47*
X194456Y121144D02*
X194456Y113778D01*
X194456Y77456D02*
X201822Y77456D01*
X238144Y77456D02*
X238144Y84822D01*
X238144Y121144D02*
X230778Y121144D01*
X201822Y121144D02*
X194456Y121144D01*
X194456Y84822D02*
X194456Y77456D01*
X230778Y77456D02*
X238144Y77456D01*
X238144Y113778D02*
X238144Y121144D01*
D46*
X231907Y132101D02*
X227928Y132101D01*
X224943Y129780D01*
X227928Y132101D02*
X224943Y134423D01*
X227928Y132101D02*
X229254Y128454D01*
X227928Y132101D02*
X229254Y135749D01*
X166369Y120185D02*
X166369Y118097D01*
X166367Y118008D01*
X166361Y117920D01*
X166352Y117832D01*
X166339Y117744D01*
X166322Y117657D01*
X166302Y117571D01*
X166277Y117486D01*
X166250Y117401D01*
X166218Y117318D01*
X166184Y117237D01*
X166145Y117157D01*
X166104Y117079D01*
X166059Y117002D01*
X166011Y116928D01*
X165960Y116855D01*
X165906Y116785D01*
X165848Y116718D01*
X165788Y116652D01*
X165726Y116590D01*
X165660Y116530D01*
X165593Y116472D01*
X165523Y116418D01*
X165450Y116367D01*
X165376Y116319D01*
X165299Y116274D01*
X165221Y116233D01*
X165141Y116194D01*
X165060Y116160D01*
X164977Y116128D01*
X164892Y116101D01*
X164807Y116076D01*
X164721Y116056D01*
X164634Y116039D01*
X164546Y116026D01*
X164458Y116017D01*
X164370Y116011D01*
X164281Y116009D01*
X164281Y116008D02*
X159059Y116008D01*
X158968Y116010D01*
X158877Y116016D01*
X158786Y116026D01*
X158696Y116040D01*
X158607Y116058D01*
X158518Y116079D01*
X158431Y116105D01*
X158345Y116134D01*
X158260Y116167D01*
X158176Y116204D01*
X158094Y116244D01*
X158015Y116288D01*
X157937Y116335D01*
X157861Y116386D01*
X157787Y116440D01*
X157716Y116497D01*
X157648Y116557D01*
X157582Y116620D01*
X157519Y116686D01*
X157459Y116754D01*
X157402Y116825D01*
X157348Y116899D01*
X157297Y116975D01*
X157250Y117052D01*
X157206Y117132D01*
X157166Y117214D01*
X157129Y117298D01*
X157096Y117382D01*
X157067Y117469D01*
X157041Y117556D01*
X157020Y117645D01*
X157002Y117734D01*
X156988Y117824D01*
X156978Y117915D01*
X156972Y118006D01*
X156970Y118097D01*
X156971Y118097D02*
X156971Y120185D01*
X159059Y123654D02*
X156971Y126265D01*
X166369Y126265D01*
X166369Y128875D02*
X166369Y123654D01*
X164281Y132798D02*
X156971Y134886D01*
X164281Y132798D02*
X164281Y138019D01*
X162192Y136453D02*
X166369Y136453D01*
X235704Y140162D02*
X235704Y142251D01*
X235703Y140162D02*
X235701Y140073D01*
X235695Y139985D01*
X235686Y139897D01*
X235673Y139809D01*
X235656Y139722D01*
X235636Y139636D01*
X235611Y139551D01*
X235584Y139466D01*
X235552Y139383D01*
X235518Y139302D01*
X235479Y139222D01*
X235438Y139144D01*
X235393Y139067D01*
X235345Y138993D01*
X235294Y138920D01*
X235240Y138850D01*
X235182Y138783D01*
X235122Y138717D01*
X235060Y138655D01*
X234994Y138595D01*
X234927Y138537D01*
X234857Y138483D01*
X234784Y138432D01*
X234710Y138384D01*
X234633Y138339D01*
X234555Y138298D01*
X234475Y138259D01*
X234394Y138225D01*
X234311Y138193D01*
X234226Y138166D01*
X234141Y138141D01*
X234055Y138121D01*
X233968Y138104D01*
X233880Y138091D01*
X233792Y138082D01*
X233704Y138076D01*
X233615Y138074D01*
X228394Y138074D01*
X228394Y138073D02*
X228303Y138075D01*
X228212Y138081D01*
X228121Y138091D01*
X228031Y138105D01*
X227942Y138123D01*
X227853Y138144D01*
X227766Y138170D01*
X227680Y138199D01*
X227595Y138232D01*
X227511Y138269D01*
X227429Y138309D01*
X227350Y138353D01*
X227272Y138400D01*
X227196Y138451D01*
X227122Y138505D01*
X227051Y138562D01*
X226983Y138622D01*
X226917Y138685D01*
X226854Y138751D01*
X226794Y138819D01*
X226737Y138890D01*
X226683Y138964D01*
X226632Y139040D01*
X226585Y139117D01*
X226541Y139197D01*
X226501Y139279D01*
X226464Y139363D01*
X226431Y139447D01*
X226402Y139534D01*
X226376Y139621D01*
X226355Y139710D01*
X226337Y139799D01*
X226323Y139889D01*
X226313Y139980D01*
X226307Y140071D01*
X226305Y140162D01*
X226306Y140162D02*
X226306Y142251D01*
X228394Y145719D02*
X226306Y148330D01*
X235704Y148330D01*
X235704Y150940D02*
X235704Y145719D01*
X235704Y154863D02*
X235704Y157996D01*
X235703Y157996D02*
X235701Y158085D01*
X235695Y158173D01*
X235686Y158261D01*
X235673Y158349D01*
X235656Y158436D01*
X235636Y158522D01*
X235611Y158607D01*
X235584Y158692D01*
X235552Y158775D01*
X235518Y158856D01*
X235479Y158936D01*
X235438Y159014D01*
X235393Y159091D01*
X235345Y159165D01*
X235294Y159238D01*
X235240Y159308D01*
X235182Y159375D01*
X235122Y159441D01*
X235060Y159503D01*
X234994Y159563D01*
X234927Y159621D01*
X234857Y159675D01*
X234784Y159726D01*
X234710Y159774D01*
X234633Y159819D01*
X234555Y159860D01*
X234475Y159899D01*
X234394Y159933D01*
X234311Y159965D01*
X234226Y159992D01*
X234141Y160017D01*
X234055Y160037D01*
X233968Y160054D01*
X233880Y160067D01*
X233792Y160076D01*
X233704Y160082D01*
X233615Y160084D01*
X232571Y160084D01*
X232482Y160082D01*
X232394Y160076D01*
X232306Y160067D01*
X232218Y160054D01*
X232131Y160037D01*
X232045Y160017D01*
X231960Y159992D01*
X231875Y159965D01*
X231792Y159933D01*
X231711Y159899D01*
X231631Y159860D01*
X231553Y159819D01*
X231476Y159774D01*
X231402Y159726D01*
X231329Y159675D01*
X231259Y159621D01*
X231192Y159563D01*
X231126Y159503D01*
X231064Y159441D01*
X231004Y159375D01*
X230946Y159308D01*
X230892Y159238D01*
X230841Y159165D01*
X230793Y159091D01*
X230748Y159014D01*
X230707Y158936D01*
X230668Y158856D01*
X230634Y158775D01*
X230602Y158692D01*
X230575Y158607D01*
X230550Y158522D01*
X230530Y158436D01*
X230513Y158349D01*
X230500Y158261D01*
X230491Y158173D01*
X230485Y158085D01*
X230483Y157996D01*
X230482Y157996D02*
X230482Y154863D01*
X226306Y154863D01*
X226306Y160084D01*
X278099Y56785D02*
X278099Y54697D01*
X278097Y54608D01*
X278091Y54520D01*
X278082Y54432D01*
X278069Y54344D01*
X278052Y54257D01*
X278032Y54171D01*
X278007Y54086D01*
X277980Y54001D01*
X277948Y53918D01*
X277914Y53837D01*
X277875Y53757D01*
X277834Y53679D01*
X277789Y53602D01*
X277741Y53528D01*
X277690Y53455D01*
X277636Y53385D01*
X277578Y53318D01*
X277518Y53252D01*
X277456Y53190D01*
X277390Y53130D01*
X277323Y53072D01*
X277253Y53018D01*
X277180Y52967D01*
X277106Y52919D01*
X277029Y52874D01*
X276951Y52833D01*
X276871Y52794D01*
X276790Y52760D01*
X276707Y52728D01*
X276622Y52701D01*
X276537Y52676D01*
X276451Y52656D01*
X276364Y52639D01*
X276276Y52626D01*
X276188Y52617D01*
X276100Y52611D01*
X276011Y52609D01*
X276011Y52608D02*
X270790Y52608D01*
X270699Y52610D01*
X270608Y52616D01*
X270517Y52626D01*
X270427Y52640D01*
X270338Y52658D01*
X270249Y52679D01*
X270162Y52705D01*
X270076Y52734D01*
X269991Y52767D01*
X269907Y52804D01*
X269825Y52844D01*
X269746Y52888D01*
X269668Y52935D01*
X269592Y52986D01*
X269518Y53040D01*
X269447Y53097D01*
X269379Y53157D01*
X269313Y53220D01*
X269250Y53286D01*
X269190Y53354D01*
X269133Y53425D01*
X269079Y53499D01*
X269028Y53575D01*
X268981Y53652D01*
X268937Y53732D01*
X268897Y53814D01*
X268860Y53898D01*
X268827Y53982D01*
X268798Y54069D01*
X268772Y54156D01*
X268751Y54245D01*
X268733Y54334D01*
X268719Y54424D01*
X268709Y54515D01*
X268703Y54606D01*
X268701Y54697D01*
X268701Y56785D01*
X270790Y60254D02*
X268701Y62865D01*
X278099Y62865D01*
X278099Y65475D02*
X278099Y60254D01*
X272878Y69398D02*
X272878Y72531D01*
X272879Y72531D02*
X272881Y72620D01*
X272887Y72708D01*
X272896Y72796D01*
X272909Y72884D01*
X272926Y72971D01*
X272946Y73057D01*
X272971Y73142D01*
X272998Y73227D01*
X273030Y73310D01*
X273064Y73391D01*
X273103Y73471D01*
X273144Y73549D01*
X273189Y73626D01*
X273237Y73700D01*
X273288Y73773D01*
X273342Y73843D01*
X273400Y73910D01*
X273460Y73976D01*
X273522Y74038D01*
X273588Y74098D01*
X273655Y74156D01*
X273725Y74210D01*
X273798Y74261D01*
X273872Y74309D01*
X273949Y74354D01*
X274027Y74395D01*
X274107Y74434D01*
X274188Y74468D01*
X274271Y74500D01*
X274356Y74527D01*
X274441Y74552D01*
X274527Y74572D01*
X274614Y74589D01*
X274702Y74602D01*
X274790Y74611D01*
X274878Y74617D01*
X274967Y74619D01*
X275489Y74619D01*
X275489Y74620D02*
X275590Y74618D01*
X275691Y74612D01*
X275792Y74602D01*
X275892Y74589D01*
X275992Y74571D01*
X276091Y74550D01*
X276189Y74524D01*
X276286Y74495D01*
X276382Y74463D01*
X276476Y74426D01*
X276569Y74386D01*
X276661Y74342D01*
X276750Y74295D01*
X276838Y74244D01*
X276924Y74190D01*
X277007Y74133D01*
X277089Y74073D01*
X277167Y74009D01*
X277244Y73943D01*
X277317Y73873D01*
X277388Y73801D01*
X277456Y73726D01*
X277521Y73648D01*
X277583Y73568D01*
X277642Y73486D01*
X277698Y73401D01*
X277750Y73314D01*
X277799Y73226D01*
X277845Y73135D01*
X277886Y73043D01*
X277925Y72949D01*
X277959Y72854D01*
X277990Y72758D01*
X278017Y72660D01*
X278041Y72562D01*
X278060Y72462D01*
X278076Y72362D01*
X278088Y72262D01*
X278096Y72161D01*
X278100Y72060D01*
X278100Y71958D01*
X278096Y71857D01*
X278088Y71756D01*
X278076Y71656D01*
X278060Y71556D01*
X278041Y71456D01*
X278017Y71358D01*
X277990Y71260D01*
X277959Y71164D01*
X277925Y71069D01*
X277886Y70975D01*
X277845Y70883D01*
X277799Y70792D01*
X277750Y70703D01*
X277698Y70617D01*
X277642Y70532D01*
X277583Y70450D01*
X277521Y70370D01*
X277456Y70292D01*
X277388Y70217D01*
X277317Y70145D01*
X277244Y70075D01*
X277167Y70009D01*
X277089Y69945D01*
X277007Y69885D01*
X276924Y69828D01*
X276838Y69774D01*
X276750Y69723D01*
X276661Y69676D01*
X276569Y69632D01*
X276476Y69592D01*
X276382Y69555D01*
X276286Y69523D01*
X276189Y69494D01*
X276091Y69468D01*
X275992Y69447D01*
X275892Y69429D01*
X275792Y69416D01*
X275691Y69406D01*
X275590Y69400D01*
X275489Y69398D01*
X272878Y69398D01*
X272749Y69400D01*
X272621Y69406D01*
X272493Y69416D01*
X272365Y69430D01*
X272237Y69447D01*
X272110Y69469D01*
X271984Y69495D01*
X271859Y69524D01*
X271735Y69557D01*
X271612Y69595D01*
X271490Y69635D01*
X271369Y69680D01*
X271250Y69728D01*
X271132Y69780D01*
X271016Y69836D01*
X270902Y69895D01*
X270790Y69958D01*
X270679Y70024D01*
X270571Y70093D01*
X270465Y70166D01*
X270361Y70242D01*
X270259Y70321D01*
X270160Y70403D01*
X270064Y70488D01*
X269970Y70576D01*
X269879Y70667D01*
X269791Y70761D01*
X269706Y70857D01*
X269624Y70956D01*
X269545Y71058D01*
X269469Y71162D01*
X269396Y71268D01*
X269327Y71376D01*
X269261Y71486D01*
X269198Y71599D01*
X269139Y71713D01*
X269083Y71829D01*
X269031Y71947D01*
X268983Y72066D01*
X268938Y72187D01*
X268898Y72309D01*
X268860Y72432D01*
X268827Y72556D01*
X268798Y72681D01*
X268772Y72807D01*
X268750Y72934D01*
X268733Y73062D01*
X268719Y73190D01*
X268709Y73318D01*
X268703Y73446D01*
X268701Y73575D01*
X168062Y80076D02*
X168062Y82165D01*
X168062Y80076D02*
X168060Y79987D01*
X168054Y79899D01*
X168045Y79811D01*
X168032Y79723D01*
X168015Y79636D01*
X167995Y79550D01*
X167970Y79465D01*
X167943Y79380D01*
X167911Y79297D01*
X167877Y79216D01*
X167838Y79136D01*
X167797Y79058D01*
X167752Y78981D01*
X167704Y78907D01*
X167653Y78834D01*
X167599Y78764D01*
X167541Y78697D01*
X167481Y78631D01*
X167419Y78569D01*
X167353Y78509D01*
X167286Y78451D01*
X167216Y78397D01*
X167143Y78346D01*
X167069Y78298D01*
X166992Y78253D01*
X166914Y78212D01*
X166834Y78173D01*
X166753Y78139D01*
X166670Y78107D01*
X166585Y78080D01*
X166500Y78055D01*
X166414Y78035D01*
X166327Y78018D01*
X166239Y78005D01*
X166151Y77996D01*
X166063Y77990D01*
X165974Y77988D01*
X160753Y77988D01*
X160753Y77987D02*
X160662Y77989D01*
X160571Y77995D01*
X160480Y78005D01*
X160390Y78019D01*
X160301Y78037D01*
X160212Y78058D01*
X160125Y78084D01*
X160039Y78113D01*
X159954Y78146D01*
X159870Y78183D01*
X159788Y78223D01*
X159709Y78267D01*
X159631Y78314D01*
X159555Y78365D01*
X159481Y78419D01*
X159410Y78476D01*
X159342Y78536D01*
X159276Y78599D01*
X159213Y78665D01*
X159153Y78733D01*
X159096Y78804D01*
X159042Y78878D01*
X158991Y78954D01*
X158944Y79031D01*
X158900Y79111D01*
X158860Y79193D01*
X158823Y79277D01*
X158790Y79361D01*
X158761Y79448D01*
X158735Y79535D01*
X158714Y79624D01*
X158696Y79713D01*
X158682Y79803D01*
X158672Y79894D01*
X158666Y79985D01*
X158664Y80076D01*
X158664Y82165D01*
X160753Y85634D02*
X158664Y88244D01*
X168062Y88244D01*
X168062Y85634D02*
X168062Y90855D01*
X159708Y94777D02*
X158664Y94777D01*
X158664Y99999D01*
X168062Y97388D01*
X171435Y39971D02*
X173523Y39971D01*
X171435Y39971D02*
X171346Y39973D01*
X171258Y39979D01*
X171170Y39988D01*
X171082Y40001D01*
X170995Y40018D01*
X170909Y40038D01*
X170824Y40063D01*
X170739Y40090D01*
X170656Y40122D01*
X170575Y40156D01*
X170495Y40195D01*
X170417Y40236D01*
X170340Y40281D01*
X170266Y40329D01*
X170193Y40380D01*
X170123Y40434D01*
X170056Y40492D01*
X169990Y40552D01*
X169928Y40614D01*
X169868Y40680D01*
X169810Y40747D01*
X169756Y40817D01*
X169705Y40890D01*
X169657Y40964D01*
X169612Y41041D01*
X169571Y41119D01*
X169532Y41199D01*
X169498Y41280D01*
X169466Y41363D01*
X169439Y41448D01*
X169414Y41533D01*
X169394Y41619D01*
X169377Y41706D01*
X169364Y41794D01*
X169355Y41882D01*
X169349Y41970D01*
X169347Y42059D01*
X169346Y42059D02*
X169346Y47281D01*
X169347Y47281D02*
X169349Y47372D01*
X169355Y47463D01*
X169365Y47554D01*
X169379Y47644D01*
X169396Y47733D01*
X169418Y47821D01*
X169444Y47909D01*
X169473Y47995D01*
X169506Y48080D01*
X169543Y48163D01*
X169583Y48245D01*
X169627Y48325D01*
X169674Y48403D01*
X169725Y48479D01*
X169778Y48552D01*
X169835Y48623D01*
X169896Y48692D01*
X169959Y48757D01*
X170024Y48820D01*
X170093Y48880D01*
X170164Y48938D01*
X170237Y48991D01*
X170313Y49042D01*
X170391Y49089D01*
X170471Y49133D01*
X170553Y49173D01*
X170636Y49210D01*
X170721Y49243D01*
X170807Y49272D01*
X170895Y49298D01*
X170983Y49320D01*
X171072Y49337D01*
X171162Y49351D01*
X171253Y49361D01*
X171344Y49367D01*
X171435Y49369D01*
X173523Y49369D01*
X176992Y47281D02*
X179603Y49369D01*
X179603Y39971D01*
X182213Y39971D02*
X176992Y39971D01*
X186136Y42582D02*
X186138Y42683D01*
X186144Y42784D01*
X186154Y42885D01*
X186167Y42985D01*
X186185Y43085D01*
X186206Y43184D01*
X186232Y43282D01*
X186261Y43379D01*
X186293Y43475D01*
X186330Y43569D01*
X186370Y43662D01*
X186414Y43754D01*
X186461Y43843D01*
X186512Y43931D01*
X186566Y44017D01*
X186623Y44100D01*
X186683Y44182D01*
X186747Y44260D01*
X186813Y44337D01*
X186883Y44410D01*
X186955Y44481D01*
X187030Y44549D01*
X187108Y44614D01*
X187188Y44676D01*
X187270Y44735D01*
X187355Y44791D01*
X187442Y44843D01*
X187530Y44892D01*
X187621Y44938D01*
X187713Y44979D01*
X187807Y45018D01*
X187902Y45052D01*
X187998Y45083D01*
X188096Y45110D01*
X188194Y45134D01*
X188294Y45153D01*
X188394Y45169D01*
X188494Y45181D01*
X188595Y45189D01*
X188696Y45193D01*
X188798Y45193D01*
X188899Y45189D01*
X189000Y45181D01*
X189100Y45169D01*
X189200Y45153D01*
X189300Y45134D01*
X189398Y45110D01*
X189496Y45083D01*
X189592Y45052D01*
X189687Y45018D01*
X189781Y44979D01*
X189873Y44938D01*
X189964Y44892D01*
X190053Y44843D01*
X190139Y44791D01*
X190224Y44735D01*
X190306Y44676D01*
X190386Y44614D01*
X190464Y44549D01*
X190539Y44481D01*
X190611Y44410D01*
X190681Y44337D01*
X190747Y44260D01*
X190811Y44182D01*
X190871Y44100D01*
X190928Y44017D01*
X190982Y43931D01*
X191033Y43843D01*
X191080Y43754D01*
X191124Y43662D01*
X191164Y43569D01*
X191201Y43475D01*
X191233Y43379D01*
X191262Y43282D01*
X191288Y43184D01*
X191309Y43085D01*
X191327Y42985D01*
X191340Y42885D01*
X191350Y42784D01*
X191356Y42683D01*
X191358Y42582D01*
X191356Y42481D01*
X191350Y42380D01*
X191340Y42279D01*
X191327Y42179D01*
X191309Y42079D01*
X191288Y41980D01*
X191262Y41882D01*
X191233Y41785D01*
X191201Y41689D01*
X191164Y41595D01*
X191124Y41502D01*
X191080Y41410D01*
X191033Y41321D01*
X190982Y41233D01*
X190928Y41147D01*
X190871Y41064D01*
X190811Y40982D01*
X190747Y40904D01*
X190681Y40827D01*
X190611Y40754D01*
X190539Y40683D01*
X190464Y40615D01*
X190386Y40550D01*
X190306Y40488D01*
X190224Y40429D01*
X190139Y40373D01*
X190052Y40321D01*
X189964Y40272D01*
X189873Y40226D01*
X189781Y40185D01*
X189687Y40146D01*
X189592Y40112D01*
X189496Y40081D01*
X189398Y40054D01*
X189300Y40030D01*
X189200Y40011D01*
X189100Y39995D01*
X189000Y39983D01*
X188899Y39975D01*
X188798Y39971D01*
X188696Y39971D01*
X188595Y39975D01*
X188494Y39983D01*
X188394Y39995D01*
X188294Y40011D01*
X188194Y40030D01*
X188096Y40054D01*
X187998Y40081D01*
X187902Y40112D01*
X187807Y40146D01*
X187713Y40185D01*
X187621Y40226D01*
X187530Y40272D01*
X187442Y40321D01*
X187355Y40373D01*
X187270Y40429D01*
X187188Y40488D01*
X187108Y40550D01*
X187030Y40615D01*
X186955Y40683D01*
X186883Y40754D01*
X186813Y40827D01*
X186747Y40904D01*
X186683Y40982D01*
X186623Y41064D01*
X186566Y41147D01*
X186512Y41233D01*
X186461Y41321D01*
X186414Y41410D01*
X186370Y41502D01*
X186330Y41595D01*
X186293Y41689D01*
X186261Y41785D01*
X186232Y41882D01*
X186206Y41980D01*
X186185Y42079D01*
X186167Y42179D01*
X186154Y42279D01*
X186144Y42380D01*
X186138Y42481D01*
X186136Y42582D01*
X186659Y47281D02*
X186661Y47371D01*
X186667Y47460D01*
X186676Y47550D01*
X186690Y47639D01*
X186707Y47727D01*
X186728Y47814D01*
X186753Y47901D01*
X186782Y47986D01*
X186814Y48070D01*
X186849Y48152D01*
X186889Y48233D01*
X186931Y48312D01*
X186977Y48389D01*
X187027Y48464D01*
X187079Y48537D01*
X187135Y48608D01*
X187193Y48676D01*
X187255Y48741D01*
X187319Y48804D01*
X187386Y48864D01*
X187455Y48921D01*
X187527Y48975D01*
X187601Y49026D01*
X187677Y49074D01*
X187755Y49118D01*
X187835Y49159D01*
X187917Y49197D01*
X188000Y49231D01*
X188085Y49261D01*
X188171Y49288D01*
X188257Y49311D01*
X188345Y49330D01*
X188434Y49345D01*
X188523Y49357D01*
X188612Y49365D01*
X188702Y49369D01*
X188792Y49369D01*
X188882Y49365D01*
X188971Y49357D01*
X189060Y49345D01*
X189149Y49330D01*
X189237Y49311D01*
X189323Y49288D01*
X189409Y49261D01*
X189494Y49231D01*
X189577Y49197D01*
X189659Y49159D01*
X189739Y49118D01*
X189817Y49074D01*
X189893Y49026D01*
X189967Y48975D01*
X190039Y48921D01*
X190108Y48864D01*
X190175Y48804D01*
X190239Y48741D01*
X190301Y48676D01*
X190359Y48608D01*
X190415Y48537D01*
X190467Y48464D01*
X190517Y48389D01*
X190563Y48312D01*
X190605Y48233D01*
X190645Y48152D01*
X190680Y48070D01*
X190712Y47986D01*
X190741Y47901D01*
X190766Y47814D01*
X190787Y47727D01*
X190804Y47639D01*
X190818Y47550D01*
X190827Y47460D01*
X190833Y47371D01*
X190835Y47281D01*
X190833Y47191D01*
X190827Y47102D01*
X190818Y47012D01*
X190804Y46923D01*
X190787Y46835D01*
X190766Y46748D01*
X190741Y46661D01*
X190712Y46576D01*
X190680Y46492D01*
X190645Y46410D01*
X190605Y46329D01*
X190563Y46250D01*
X190517Y46173D01*
X190467Y46098D01*
X190415Y46025D01*
X190359Y45954D01*
X190301Y45886D01*
X190239Y45821D01*
X190175Y45758D01*
X190108Y45698D01*
X190039Y45641D01*
X189967Y45587D01*
X189893Y45536D01*
X189817Y45488D01*
X189739Y45444D01*
X189659Y45403D01*
X189577Y45365D01*
X189494Y45331D01*
X189409Y45301D01*
X189323Y45274D01*
X189237Y45251D01*
X189149Y45232D01*
X189060Y45217D01*
X188971Y45205D01*
X188882Y45197D01*
X188792Y45193D01*
X188702Y45193D01*
X188612Y45197D01*
X188523Y45205D01*
X188434Y45217D01*
X188345Y45232D01*
X188257Y45251D01*
X188171Y45274D01*
X188085Y45301D01*
X188000Y45331D01*
X187917Y45365D01*
X187835Y45403D01*
X187755Y45444D01*
X187677Y45488D01*
X187601Y45536D01*
X187527Y45587D01*
X187455Y45641D01*
X187386Y45698D01*
X187319Y45758D01*
X187255Y45821D01*
X187193Y45886D01*
X187135Y45954D01*
X187079Y46025D01*
X187027Y46098D01*
X186977Y46173D01*
X186931Y46250D01*
X186889Y46329D01*
X186849Y46410D01*
X186814Y46492D01*
X186782Y46576D01*
X186753Y46661D01*
X186728Y46748D01*
X186707Y46835D01*
X186690Y46923D01*
X186676Y47012D01*
X186667Y47102D01*
X186661Y47191D01*
X186659Y47281D01*
X208117Y39771D02*
X210206Y39771D01*
X208117Y39771D02*
X208028Y39773D01*
X207940Y39779D01*
X207852Y39788D01*
X207764Y39801D01*
X207677Y39818D01*
X207591Y39838D01*
X207506Y39863D01*
X207421Y39890D01*
X207338Y39922D01*
X207257Y39956D01*
X207177Y39995D01*
X207099Y40036D01*
X207022Y40081D01*
X206948Y40129D01*
X206875Y40180D01*
X206805Y40234D01*
X206738Y40292D01*
X206672Y40352D01*
X206610Y40414D01*
X206550Y40480D01*
X206492Y40547D01*
X206438Y40617D01*
X206387Y40690D01*
X206339Y40764D01*
X206294Y40841D01*
X206253Y40919D01*
X206214Y40999D01*
X206180Y41080D01*
X206148Y41163D01*
X206121Y41248D01*
X206096Y41333D01*
X206076Y41419D01*
X206059Y41506D01*
X206046Y41594D01*
X206037Y41682D01*
X206031Y41770D01*
X206029Y41859D01*
X206029Y47081D01*
X206031Y47172D01*
X206037Y47263D01*
X206047Y47354D01*
X206061Y47444D01*
X206078Y47533D01*
X206100Y47621D01*
X206126Y47709D01*
X206155Y47795D01*
X206188Y47880D01*
X206225Y47963D01*
X206265Y48045D01*
X206309Y48125D01*
X206356Y48203D01*
X206407Y48279D01*
X206460Y48352D01*
X206517Y48423D01*
X206578Y48492D01*
X206641Y48557D01*
X206706Y48620D01*
X206775Y48680D01*
X206846Y48738D01*
X206919Y48791D01*
X206995Y48842D01*
X207073Y48889D01*
X207153Y48933D01*
X207235Y48973D01*
X207318Y49010D01*
X207403Y49043D01*
X207489Y49072D01*
X207577Y49098D01*
X207665Y49120D01*
X207754Y49137D01*
X207844Y49151D01*
X207935Y49161D01*
X208026Y49167D01*
X208117Y49169D01*
X210206Y49169D01*
X213674Y47081D02*
X216285Y49169D01*
X216285Y39771D01*
X213674Y39771D02*
X218896Y39771D01*
X224907Y43948D02*
X228040Y43948D01*
X224907Y43948D02*
X224818Y43950D01*
X224730Y43956D01*
X224642Y43965D01*
X224554Y43978D01*
X224467Y43995D01*
X224381Y44015D01*
X224296Y44040D01*
X224211Y44067D01*
X224128Y44099D01*
X224047Y44133D01*
X223967Y44172D01*
X223889Y44213D01*
X223812Y44258D01*
X223738Y44306D01*
X223665Y44357D01*
X223595Y44411D01*
X223528Y44469D01*
X223462Y44529D01*
X223400Y44591D01*
X223340Y44657D01*
X223282Y44724D01*
X223228Y44794D01*
X223177Y44867D01*
X223129Y44941D01*
X223084Y45018D01*
X223043Y45096D01*
X223004Y45176D01*
X222970Y45257D01*
X222938Y45340D01*
X222911Y45425D01*
X222886Y45510D01*
X222866Y45596D01*
X222849Y45683D01*
X222836Y45771D01*
X222827Y45859D01*
X222821Y45947D01*
X222819Y46036D01*
X222818Y46036D02*
X222818Y46558D01*
X222820Y46659D01*
X222826Y46760D01*
X222836Y46861D01*
X222849Y46961D01*
X222867Y47061D01*
X222888Y47160D01*
X222914Y47258D01*
X222943Y47355D01*
X222975Y47451D01*
X223012Y47545D01*
X223052Y47638D01*
X223096Y47730D01*
X223143Y47819D01*
X223194Y47907D01*
X223248Y47993D01*
X223305Y48076D01*
X223365Y48158D01*
X223429Y48236D01*
X223495Y48313D01*
X223565Y48386D01*
X223637Y48457D01*
X223712Y48525D01*
X223790Y48590D01*
X223870Y48652D01*
X223952Y48711D01*
X224037Y48767D01*
X224124Y48819D01*
X224212Y48868D01*
X224303Y48914D01*
X224395Y48955D01*
X224489Y48994D01*
X224584Y49028D01*
X224680Y49059D01*
X224778Y49086D01*
X224876Y49110D01*
X224976Y49129D01*
X225076Y49145D01*
X225176Y49157D01*
X225277Y49165D01*
X225378Y49169D01*
X225480Y49169D01*
X225581Y49165D01*
X225682Y49157D01*
X225782Y49145D01*
X225882Y49129D01*
X225982Y49110D01*
X226080Y49086D01*
X226178Y49059D01*
X226274Y49028D01*
X226369Y48994D01*
X226463Y48955D01*
X226555Y48914D01*
X226646Y48868D01*
X226735Y48819D01*
X226821Y48767D01*
X226906Y48711D01*
X226988Y48652D01*
X227068Y48590D01*
X227146Y48525D01*
X227221Y48457D01*
X227293Y48386D01*
X227363Y48313D01*
X227429Y48236D01*
X227493Y48158D01*
X227553Y48076D01*
X227610Y47993D01*
X227664Y47907D01*
X227715Y47819D01*
X227762Y47730D01*
X227806Y47638D01*
X227846Y47545D01*
X227883Y47451D01*
X227915Y47355D01*
X227944Y47258D01*
X227970Y47160D01*
X227991Y47061D01*
X228009Y46961D01*
X228022Y46861D01*
X228032Y46760D01*
X228038Y46659D01*
X228040Y46558D01*
X228040Y43948D01*
X228038Y43822D01*
X228032Y43696D01*
X228023Y43570D01*
X228010Y43445D01*
X227992Y43320D01*
X227972Y43195D01*
X227947Y43071D01*
X227919Y42948D01*
X227887Y42826D01*
X227851Y42705D01*
X227812Y42585D01*
X227769Y42467D01*
X227722Y42350D01*
X227672Y42234D01*
X227618Y42119D01*
X227562Y42007D01*
X227501Y41896D01*
X227438Y41787D01*
X227371Y41680D01*
X227301Y41575D01*
X227227Y41472D01*
X227151Y41372D01*
X227072Y41274D01*
X226990Y41178D01*
X226904Y41085D01*
X226817Y40994D01*
X226726Y40907D01*
X226633Y40821D01*
X226537Y40739D01*
X226439Y40660D01*
X226339Y40584D01*
X226236Y40510D01*
X226131Y40440D01*
X226024Y40373D01*
X225915Y40310D01*
X225804Y40249D01*
X225692Y40193D01*
X225577Y40139D01*
X225461Y40089D01*
X225344Y40042D01*
X225226Y39999D01*
X225106Y39960D01*
X224985Y39924D01*
X224863Y39892D01*
X224740Y39864D01*
X224616Y39839D01*
X224491Y39819D01*
X224366Y39801D01*
X224241Y39788D01*
X224115Y39779D01*
X223989Y39773D01*
X223863Y39771D01*
D47*
X68018Y71378D02*
X4518Y71378D01*
X4518Y109478D01*
X68018Y109478D01*
X68018Y71378D01*
X62938Y76458D02*
X9598Y76458D01*
X9598Y104398D01*
X62938Y104398D01*
X62938Y76458D01*
X150500Y35560D02*
X153040Y38100D01*
X150500Y35560D02*
X147960Y38100D01*
X150500Y15240D02*
X153040Y12700D01*
X150500Y15240D02*
X147960Y12700D01*
X127640Y12700D01*
X125100Y15240D01*
X173360Y12700D02*
X175900Y15240D01*
X173360Y12700D02*
X153040Y12700D01*
X175900Y15240D02*
X175900Y35560D01*
X173360Y38100D01*
X153040Y38100D01*
X147960Y38100D02*
X127640Y38100D01*
X125100Y35560D01*
X125100Y15240D01*
D48*
X134285Y11473D02*
X134285Y2583D01*
X134283Y2483D01*
X134277Y2384D01*
X134267Y2284D01*
X134254Y2186D01*
X134236Y2087D01*
X134215Y1990D01*
X134190Y1894D01*
X134161Y1798D01*
X134128Y1704D01*
X134092Y1611D01*
X134052Y1520D01*
X134008Y1430D01*
X133961Y1342D01*
X133911Y1256D01*
X133857Y1172D01*
X133800Y1090D01*
X133740Y1011D01*
X133676Y933D01*
X133610Y859D01*
X133541Y787D01*
X133469Y718D01*
X133395Y652D01*
X133317Y588D01*
X133238Y528D01*
X133156Y471D01*
X133072Y417D01*
X132986Y367D01*
X132898Y320D01*
X132808Y276D01*
X132717Y236D01*
X132624Y200D01*
X132530Y167D01*
X132434Y138D01*
X132338Y113D01*
X132241Y92D01*
X132142Y74D01*
X132044Y61D01*
X131944Y51D01*
X131845Y45D01*
X131745Y43D01*
X130475Y43D01*
X140265Y43D02*
X140265Y11473D01*
X143440Y11473D01*
X143551Y11471D01*
X143661Y11465D01*
X143772Y11456D01*
X143882Y11442D01*
X143991Y11425D01*
X144100Y11404D01*
X144208Y11379D01*
X144315Y11350D01*
X144421Y11318D01*
X144526Y11282D01*
X144629Y11242D01*
X144731Y11199D01*
X144832Y11152D01*
X144931Y11101D01*
X145028Y11048D01*
X145122Y10991D01*
X145215Y10930D01*
X145306Y10867D01*
X145395Y10800D01*
X145481Y10730D01*
X145564Y10657D01*
X145646Y10582D01*
X145724Y10504D01*
X145799Y10422D01*
X145872Y10339D01*
X145942Y10253D01*
X146009Y10164D01*
X146072Y10073D01*
X146133Y9980D01*
X146190Y9885D01*
X146243Y9789D01*
X146294Y9690D01*
X146341Y9589D01*
X146384Y9487D01*
X146424Y9384D01*
X146460Y9279D01*
X146492Y9173D01*
X146521Y9066D01*
X146546Y8958D01*
X146567Y8849D01*
X146584Y8740D01*
X146598Y8630D01*
X146607Y8519D01*
X146613Y8409D01*
X146615Y8298D01*
X146613Y8187D01*
X146607Y8077D01*
X146598Y7966D01*
X146584Y7856D01*
X146567Y7747D01*
X146546Y7638D01*
X146521Y7530D01*
X146492Y7423D01*
X146460Y7317D01*
X146424Y7212D01*
X146384Y7109D01*
X146341Y7007D01*
X146294Y6906D01*
X146243Y6807D01*
X146190Y6710D01*
X146133Y6616D01*
X146072Y6523D01*
X146009Y6432D01*
X145942Y6343D01*
X145872Y6257D01*
X145799Y6174D01*
X145724Y6092D01*
X145646Y6014D01*
X145564Y5939D01*
X145481Y5866D01*
X145395Y5796D01*
X145306Y5729D01*
X145215Y5666D01*
X145122Y5605D01*
X145027Y5548D01*
X144931Y5495D01*
X144832Y5444D01*
X144731Y5397D01*
X144629Y5354D01*
X144526Y5314D01*
X144421Y5278D01*
X144315Y5246D01*
X144208Y5217D01*
X144100Y5192D01*
X143991Y5171D01*
X143882Y5154D01*
X143772Y5140D01*
X143661Y5131D01*
X143551Y5125D01*
X143440Y5123D01*
X140265Y5123D01*
X151123Y8933D02*
X154298Y11473D01*
X154298Y43D01*
X151123Y43D02*
X157473Y43D01*
D47*
X102240Y38100D02*
X99700Y35560D01*
X97160Y38100D01*
X99700Y15240D02*
X102240Y12700D01*
X99700Y15240D02*
X97160Y12700D01*
X76840Y12700D01*
X74300Y15240D01*
X122560Y12700D02*
X125100Y15240D01*
X122560Y12700D02*
X102240Y12700D01*
X125100Y15240D02*
X125100Y35560D01*
X122560Y38100D01*
X102240Y38100D01*
X97160Y38100D02*
X76840Y38100D01*
X74300Y35560D01*
X74300Y15240D01*
D48*
X83993Y12489D02*
X83993Y3599D01*
X83991Y3499D01*
X83985Y3400D01*
X83975Y3300D01*
X83962Y3202D01*
X83944Y3103D01*
X83923Y3006D01*
X83898Y2910D01*
X83869Y2814D01*
X83836Y2720D01*
X83800Y2627D01*
X83760Y2536D01*
X83716Y2446D01*
X83669Y2358D01*
X83619Y2272D01*
X83565Y2188D01*
X83508Y2106D01*
X83448Y2027D01*
X83384Y1949D01*
X83318Y1875D01*
X83249Y1803D01*
X83177Y1734D01*
X83103Y1668D01*
X83025Y1604D01*
X82946Y1544D01*
X82864Y1487D01*
X82780Y1433D01*
X82694Y1383D01*
X82606Y1336D01*
X82516Y1292D01*
X82425Y1252D01*
X82332Y1216D01*
X82238Y1183D01*
X82142Y1154D01*
X82046Y1129D01*
X81949Y1108D01*
X81850Y1090D01*
X81752Y1077D01*
X81652Y1067D01*
X81553Y1061D01*
X81453Y1059D01*
X80183Y1059D01*
X89973Y1059D02*
X89973Y12489D01*
X93148Y12489D01*
X93259Y12487D01*
X93369Y12481D01*
X93480Y12472D01*
X93590Y12458D01*
X93699Y12441D01*
X93808Y12420D01*
X93916Y12395D01*
X94023Y12366D01*
X94129Y12334D01*
X94234Y12298D01*
X94337Y12258D01*
X94439Y12215D01*
X94540Y12168D01*
X94639Y12117D01*
X94736Y12064D01*
X94830Y12007D01*
X94923Y11946D01*
X95014Y11883D01*
X95103Y11816D01*
X95189Y11746D01*
X95272Y11673D01*
X95354Y11598D01*
X95432Y11520D01*
X95507Y11438D01*
X95580Y11355D01*
X95650Y11269D01*
X95717Y11180D01*
X95780Y11089D01*
X95841Y10996D01*
X95898Y10901D01*
X95951Y10805D01*
X96002Y10706D01*
X96049Y10605D01*
X96092Y10503D01*
X96132Y10400D01*
X96168Y10295D01*
X96200Y10189D01*
X96229Y10082D01*
X96254Y9974D01*
X96275Y9865D01*
X96292Y9756D01*
X96306Y9646D01*
X96315Y9535D01*
X96321Y9425D01*
X96323Y9314D01*
X96321Y9203D01*
X96315Y9093D01*
X96306Y8982D01*
X96292Y8872D01*
X96275Y8763D01*
X96254Y8654D01*
X96229Y8546D01*
X96200Y8439D01*
X96168Y8333D01*
X96132Y8228D01*
X96092Y8125D01*
X96049Y8023D01*
X96002Y7922D01*
X95951Y7823D01*
X95898Y7726D01*
X95841Y7632D01*
X95780Y7539D01*
X95717Y7448D01*
X95650Y7359D01*
X95580Y7273D01*
X95507Y7190D01*
X95432Y7108D01*
X95354Y7030D01*
X95272Y6955D01*
X95189Y6882D01*
X95103Y6812D01*
X95014Y6745D01*
X94923Y6682D01*
X94830Y6621D01*
X94735Y6564D01*
X94639Y6511D01*
X94540Y6460D01*
X94439Y6413D01*
X94337Y6370D01*
X94234Y6330D01*
X94129Y6294D01*
X94023Y6262D01*
X93916Y6233D01*
X93808Y6208D01*
X93699Y6187D01*
X93590Y6170D01*
X93480Y6156D01*
X93369Y6147D01*
X93259Y6141D01*
X93148Y6139D01*
X89973Y6139D01*
X104324Y12489D02*
X104428Y12487D01*
X104533Y12481D01*
X104637Y12472D01*
X104740Y12459D01*
X104843Y12441D01*
X104945Y12421D01*
X105047Y12396D01*
X105147Y12368D01*
X105247Y12336D01*
X105345Y12300D01*
X105442Y12261D01*
X105537Y12219D01*
X105631Y12173D01*
X105723Y12123D01*
X105813Y12071D01*
X105901Y12015D01*
X105987Y11955D01*
X106071Y11893D01*
X106152Y11828D01*
X106231Y11760D01*
X106308Y11688D01*
X106381Y11615D01*
X106453Y11538D01*
X106521Y11459D01*
X106586Y11378D01*
X106648Y11294D01*
X106708Y11208D01*
X106764Y11120D01*
X106816Y11030D01*
X106866Y10938D01*
X106912Y10844D01*
X106954Y10749D01*
X106993Y10652D01*
X107029Y10554D01*
X107061Y10454D01*
X107089Y10354D01*
X107114Y10252D01*
X107134Y10150D01*
X107152Y10047D01*
X107165Y9944D01*
X107174Y9840D01*
X107180Y9735D01*
X107182Y9631D01*
X104324Y12489D02*
X104206Y12487D01*
X104087Y12481D01*
X103969Y12472D01*
X103852Y12459D01*
X103735Y12441D01*
X103618Y12421D01*
X103502Y12396D01*
X103387Y12368D01*
X103274Y12335D01*
X103161Y12300D01*
X103049Y12260D01*
X102939Y12218D01*
X102830Y12171D01*
X102722Y12121D01*
X102617Y12068D01*
X102513Y12011D01*
X102411Y11951D01*
X102311Y11888D01*
X102213Y11821D01*
X102117Y11752D01*
X102024Y11679D01*
X101933Y11603D01*
X101844Y11525D01*
X101758Y11443D01*
X101675Y11359D01*
X101594Y11273D01*
X101517Y11183D01*
X101442Y11092D01*
X101370Y10998D01*
X101301Y10901D01*
X101236Y10803D01*
X101173Y10702D01*
X101114Y10599D01*
X101058Y10495D01*
X101006Y10389D01*
X100957Y10281D01*
X100912Y10172D01*
X100870Y10061D01*
X100832Y9949D01*
X106229Y7409D02*
X106305Y7484D01*
X106380Y7563D01*
X106451Y7644D01*
X106520Y7728D01*
X106585Y7814D01*
X106647Y7902D01*
X106707Y7992D01*
X106763Y8084D01*
X106816Y8179D01*
X106865Y8275D01*
X106911Y8373D01*
X106954Y8472D01*
X106993Y8573D01*
X107028Y8675D01*
X107060Y8778D01*
X107088Y8882D01*
X107113Y8987D01*
X107134Y9094D01*
X107151Y9200D01*
X107164Y9307D01*
X107173Y9415D01*
X107179Y9523D01*
X107181Y9631D01*
X106229Y7409D02*
X100831Y1059D01*
X107181Y1059D01*
D47*
X201300Y35560D02*
X203840Y38100D01*
X201300Y35560D02*
X198760Y38100D01*
X201300Y15240D02*
X203840Y12700D01*
X201300Y15240D02*
X198760Y12700D01*
X178440Y12700D01*
X175900Y15240D01*
X224160Y12700D02*
X226700Y15240D01*
X224160Y12700D02*
X203840Y12700D01*
X226700Y15240D02*
X226700Y35560D01*
X224160Y38100D01*
X203840Y38100D01*
X198760Y38100D02*
X178440Y38100D01*
X175900Y35560D01*
X175900Y15240D01*
D48*
X185762Y11642D02*
X185762Y2752D01*
X185760Y2652D01*
X185754Y2553D01*
X185744Y2453D01*
X185731Y2355D01*
X185713Y2256D01*
X185692Y2159D01*
X185667Y2063D01*
X185638Y1967D01*
X185605Y1873D01*
X185569Y1780D01*
X185529Y1689D01*
X185485Y1599D01*
X185438Y1511D01*
X185388Y1425D01*
X185334Y1341D01*
X185277Y1259D01*
X185217Y1180D01*
X185153Y1102D01*
X185087Y1028D01*
X185018Y956D01*
X184946Y887D01*
X184872Y821D01*
X184794Y757D01*
X184715Y697D01*
X184633Y640D01*
X184549Y586D01*
X184463Y536D01*
X184375Y489D01*
X184285Y445D01*
X184194Y405D01*
X184101Y369D01*
X184007Y336D01*
X183911Y307D01*
X183815Y282D01*
X183718Y261D01*
X183619Y243D01*
X183521Y230D01*
X183421Y220D01*
X183322Y214D01*
X183222Y212D01*
X181952Y212D01*
X191742Y212D02*
X191742Y11642D01*
X194917Y11642D01*
X195028Y11640D01*
X195138Y11634D01*
X195249Y11625D01*
X195359Y11611D01*
X195468Y11594D01*
X195577Y11573D01*
X195685Y11548D01*
X195792Y11519D01*
X195898Y11487D01*
X196003Y11451D01*
X196106Y11411D01*
X196208Y11368D01*
X196309Y11321D01*
X196408Y11270D01*
X196505Y11217D01*
X196599Y11160D01*
X196692Y11099D01*
X196783Y11036D01*
X196872Y10969D01*
X196958Y10899D01*
X197041Y10826D01*
X197123Y10751D01*
X197201Y10673D01*
X197276Y10591D01*
X197349Y10508D01*
X197419Y10422D01*
X197486Y10333D01*
X197549Y10242D01*
X197610Y10149D01*
X197667Y10054D01*
X197720Y9958D01*
X197771Y9859D01*
X197818Y9758D01*
X197861Y9656D01*
X197901Y9553D01*
X197937Y9448D01*
X197969Y9342D01*
X197998Y9235D01*
X198023Y9127D01*
X198044Y9018D01*
X198061Y8909D01*
X198075Y8799D01*
X198084Y8688D01*
X198090Y8578D01*
X198092Y8467D01*
X198090Y8356D01*
X198084Y8246D01*
X198075Y8135D01*
X198061Y8025D01*
X198044Y7916D01*
X198023Y7807D01*
X197998Y7699D01*
X197969Y7592D01*
X197937Y7486D01*
X197901Y7381D01*
X197861Y7278D01*
X197818Y7176D01*
X197771Y7075D01*
X197720Y6976D01*
X197667Y6879D01*
X197610Y6785D01*
X197549Y6692D01*
X197486Y6601D01*
X197419Y6512D01*
X197349Y6426D01*
X197276Y6343D01*
X197201Y6261D01*
X197123Y6183D01*
X197041Y6108D01*
X196958Y6035D01*
X196872Y5965D01*
X196783Y5898D01*
X196692Y5835D01*
X196599Y5774D01*
X196504Y5717D01*
X196408Y5664D01*
X196309Y5613D01*
X196208Y5566D01*
X196106Y5523D01*
X196003Y5483D01*
X195898Y5447D01*
X195792Y5415D01*
X195685Y5386D01*
X195577Y5361D01*
X195468Y5340D01*
X195359Y5323D01*
X195249Y5309D01*
X195138Y5300D01*
X195028Y5294D01*
X194917Y5292D01*
X191742Y5292D01*
X202601Y212D02*
X205776Y212D01*
X205887Y214D01*
X205997Y220D01*
X206108Y229D01*
X206218Y243D01*
X206327Y260D01*
X206436Y281D01*
X206544Y306D01*
X206651Y335D01*
X206757Y367D01*
X206862Y403D01*
X206965Y443D01*
X207067Y486D01*
X207168Y533D01*
X207267Y584D01*
X207363Y637D01*
X207458Y694D01*
X207551Y755D01*
X207642Y818D01*
X207731Y885D01*
X207817Y955D01*
X207900Y1028D01*
X207982Y1103D01*
X208060Y1181D01*
X208135Y1263D01*
X208208Y1346D01*
X208278Y1432D01*
X208345Y1521D01*
X208408Y1612D01*
X208469Y1705D01*
X208526Y1799D01*
X208579Y1896D01*
X208630Y1995D01*
X208677Y2096D01*
X208720Y2198D01*
X208760Y2301D01*
X208796Y2406D01*
X208828Y2512D01*
X208857Y2619D01*
X208882Y2727D01*
X208903Y2836D01*
X208920Y2945D01*
X208934Y3055D01*
X208943Y3166D01*
X208949Y3276D01*
X208951Y3387D01*
X208949Y3498D01*
X208943Y3608D01*
X208934Y3719D01*
X208920Y3829D01*
X208903Y3938D01*
X208882Y4047D01*
X208857Y4155D01*
X208828Y4262D01*
X208796Y4368D01*
X208760Y4473D01*
X208720Y4576D01*
X208677Y4678D01*
X208630Y4779D01*
X208579Y4878D01*
X208526Y4974D01*
X208469Y5069D01*
X208408Y5162D01*
X208345Y5253D01*
X208278Y5342D01*
X208208Y5428D01*
X208135Y5511D01*
X208060Y5593D01*
X207982Y5671D01*
X207900Y5746D01*
X207817Y5819D01*
X207731Y5889D01*
X207642Y5956D01*
X207551Y6019D01*
X207458Y6080D01*
X207364Y6137D01*
X207267Y6190D01*
X207168Y6241D01*
X207067Y6288D01*
X206965Y6331D01*
X206862Y6371D01*
X206757Y6407D01*
X206651Y6439D01*
X206544Y6468D01*
X206436Y6493D01*
X206327Y6514D01*
X206218Y6531D01*
X206108Y6545D01*
X205997Y6554D01*
X205887Y6560D01*
X205776Y6562D01*
X206411Y11642D02*
X202601Y11642D01*
X206411Y11642D02*
X206511Y11640D01*
X206610Y11634D01*
X206710Y11624D01*
X206808Y11611D01*
X206907Y11593D01*
X207004Y11572D01*
X207100Y11547D01*
X207196Y11518D01*
X207290Y11485D01*
X207383Y11449D01*
X207474Y11409D01*
X207564Y11365D01*
X207652Y11318D01*
X207738Y11268D01*
X207822Y11214D01*
X207904Y11157D01*
X207983Y11097D01*
X208061Y11033D01*
X208135Y10967D01*
X208207Y10898D01*
X208276Y10826D01*
X208342Y10752D01*
X208406Y10674D01*
X208466Y10595D01*
X208523Y10513D01*
X208577Y10429D01*
X208627Y10343D01*
X208674Y10255D01*
X208718Y10165D01*
X208758Y10074D01*
X208794Y9981D01*
X208827Y9887D01*
X208856Y9791D01*
X208881Y9695D01*
X208902Y9598D01*
X208920Y9499D01*
X208933Y9401D01*
X208943Y9301D01*
X208949Y9202D01*
X208951Y9102D01*
X208949Y9002D01*
X208943Y8903D01*
X208933Y8803D01*
X208920Y8705D01*
X208902Y8606D01*
X208881Y8509D01*
X208856Y8413D01*
X208827Y8317D01*
X208794Y8223D01*
X208758Y8130D01*
X208718Y8039D01*
X208674Y7949D01*
X208627Y7861D01*
X208577Y7775D01*
X208523Y7691D01*
X208466Y7609D01*
X208406Y7530D01*
X208342Y7452D01*
X208276Y7378D01*
X208207Y7306D01*
X208135Y7237D01*
X208061Y7171D01*
X207983Y7107D01*
X207904Y7047D01*
X207822Y6990D01*
X207738Y6936D01*
X207652Y6886D01*
X207564Y6839D01*
X207474Y6795D01*
X207383Y6755D01*
X207290Y6719D01*
X207196Y6686D01*
X207100Y6657D01*
X207004Y6632D01*
X206907Y6611D01*
X206808Y6593D01*
X206710Y6580D01*
X206610Y6570D01*
X206511Y6564D01*
X206411Y6562D01*
X203871Y6562D01*
D47*
X20240Y152400D02*
X17700Y154940D01*
X20240Y152400D02*
X17700Y149860D01*
X40560Y152400D02*
X43100Y154940D01*
X40560Y152400D02*
X43100Y149860D01*
X43100Y129540D01*
X40560Y127000D01*
X43100Y175260D02*
X40560Y177800D01*
X43100Y175260D02*
X43100Y154940D01*
X40560Y177800D02*
X20240Y177800D01*
X17700Y175260D01*
X17700Y154940D01*
X17700Y149860D02*
X17700Y129540D01*
X20240Y127000D01*
X40560Y127000D01*
D48*
X12408Y124672D02*
X3518Y124672D01*
X12408Y124672D02*
X12508Y124670D01*
X12607Y124664D01*
X12707Y124654D01*
X12805Y124641D01*
X12904Y124623D01*
X13001Y124602D01*
X13097Y124577D01*
X13193Y124548D01*
X13287Y124515D01*
X13380Y124479D01*
X13471Y124439D01*
X13561Y124395D01*
X13649Y124348D01*
X13735Y124298D01*
X13819Y124244D01*
X13901Y124187D01*
X13980Y124127D01*
X14058Y124063D01*
X14132Y123997D01*
X14204Y123928D01*
X14273Y123856D01*
X14339Y123782D01*
X14403Y123704D01*
X14463Y123625D01*
X14520Y123543D01*
X14574Y123459D01*
X14624Y123373D01*
X14671Y123285D01*
X14715Y123195D01*
X14755Y123104D01*
X14791Y123011D01*
X14824Y122917D01*
X14853Y122821D01*
X14878Y122725D01*
X14899Y122628D01*
X14917Y122529D01*
X14930Y122431D01*
X14940Y122331D01*
X14946Y122232D01*
X14948Y122132D01*
X14948Y120862D01*
X14948Y130653D02*
X3518Y130653D01*
X3518Y133828D01*
X3520Y133939D01*
X3526Y134049D01*
X3535Y134160D01*
X3549Y134270D01*
X3566Y134379D01*
X3587Y134488D01*
X3612Y134596D01*
X3641Y134703D01*
X3673Y134809D01*
X3709Y134914D01*
X3749Y135017D01*
X3792Y135119D01*
X3839Y135220D01*
X3890Y135319D01*
X3943Y135416D01*
X4000Y135510D01*
X4061Y135603D01*
X4124Y135694D01*
X4191Y135783D01*
X4261Y135869D01*
X4334Y135952D01*
X4409Y136034D01*
X4487Y136112D01*
X4569Y136187D01*
X4652Y136260D01*
X4738Y136330D01*
X4827Y136397D01*
X4918Y136460D01*
X5011Y136521D01*
X5105Y136578D01*
X5202Y136631D01*
X5301Y136682D01*
X5402Y136729D01*
X5504Y136772D01*
X5607Y136812D01*
X5712Y136848D01*
X5818Y136880D01*
X5925Y136909D01*
X6033Y136934D01*
X6142Y136955D01*
X6251Y136972D01*
X6361Y136986D01*
X6472Y136995D01*
X6582Y137001D01*
X6693Y137003D01*
X6804Y137001D01*
X6914Y136995D01*
X7025Y136986D01*
X7135Y136972D01*
X7244Y136955D01*
X7353Y136934D01*
X7461Y136909D01*
X7568Y136880D01*
X7674Y136848D01*
X7779Y136812D01*
X7882Y136772D01*
X7984Y136729D01*
X8085Y136682D01*
X8184Y136631D01*
X8280Y136578D01*
X8375Y136521D01*
X8468Y136460D01*
X8559Y136397D01*
X8648Y136330D01*
X8734Y136260D01*
X8817Y136187D01*
X8899Y136112D01*
X8977Y136034D01*
X9052Y135952D01*
X9125Y135869D01*
X9195Y135783D01*
X9262Y135694D01*
X9325Y135603D01*
X9386Y135510D01*
X9443Y135416D01*
X9496Y135319D01*
X9547Y135220D01*
X9594Y135119D01*
X9637Y135017D01*
X9677Y134914D01*
X9713Y134809D01*
X9745Y134703D01*
X9774Y134596D01*
X9799Y134488D01*
X9820Y134379D01*
X9837Y134270D01*
X9851Y134160D01*
X9860Y134049D01*
X9866Y133939D01*
X9868Y133828D01*
X9868Y130653D01*
X12408Y141511D02*
X3518Y144051D01*
X12408Y141511D02*
X12408Y147861D01*
X9868Y145956D02*
X14948Y145956D01*
D47*
X20240Y203200D02*
X17700Y205740D01*
X20240Y203200D02*
X17700Y200660D01*
X40560Y203200D02*
X43100Y205740D01*
X40560Y203200D02*
X43100Y200660D01*
X43100Y180340D01*
X40560Y177800D01*
X43100Y226060D02*
X40560Y228600D01*
X43100Y226060D02*
X43100Y205740D01*
X40560Y228600D02*
X20240Y228600D01*
X17700Y226060D01*
X17700Y205740D01*
X17700Y200660D02*
X17700Y180340D01*
X20240Y177800D01*
X40560Y177800D01*
D48*
X10715Y175472D02*
X1825Y175472D01*
X10715Y175472D02*
X10815Y175470D01*
X10914Y175464D01*
X11014Y175454D01*
X11112Y175441D01*
X11211Y175423D01*
X11308Y175402D01*
X11404Y175377D01*
X11500Y175348D01*
X11594Y175315D01*
X11687Y175279D01*
X11778Y175239D01*
X11868Y175195D01*
X11956Y175148D01*
X12042Y175098D01*
X12126Y175044D01*
X12208Y174987D01*
X12287Y174927D01*
X12365Y174863D01*
X12439Y174797D01*
X12511Y174728D01*
X12580Y174656D01*
X12646Y174582D01*
X12710Y174504D01*
X12770Y174425D01*
X12827Y174343D01*
X12881Y174259D01*
X12931Y174173D01*
X12978Y174085D01*
X13022Y173995D01*
X13062Y173904D01*
X13098Y173811D01*
X13131Y173717D01*
X13160Y173621D01*
X13185Y173525D01*
X13206Y173428D01*
X13224Y173329D01*
X13237Y173231D01*
X13247Y173131D01*
X13253Y173032D01*
X13255Y172932D01*
X13255Y171662D01*
X13255Y181453D02*
X1825Y181453D01*
X1825Y184628D01*
X1827Y184739D01*
X1833Y184849D01*
X1842Y184960D01*
X1856Y185070D01*
X1873Y185179D01*
X1894Y185288D01*
X1919Y185396D01*
X1948Y185503D01*
X1980Y185609D01*
X2016Y185714D01*
X2056Y185817D01*
X2099Y185919D01*
X2146Y186020D01*
X2197Y186119D01*
X2250Y186216D01*
X2307Y186310D01*
X2368Y186403D01*
X2431Y186494D01*
X2498Y186583D01*
X2568Y186669D01*
X2641Y186752D01*
X2716Y186834D01*
X2794Y186912D01*
X2876Y186987D01*
X2959Y187060D01*
X3045Y187130D01*
X3134Y187197D01*
X3225Y187260D01*
X3318Y187321D01*
X3412Y187378D01*
X3509Y187431D01*
X3608Y187482D01*
X3709Y187529D01*
X3811Y187572D01*
X3914Y187612D01*
X4019Y187648D01*
X4125Y187680D01*
X4232Y187709D01*
X4340Y187734D01*
X4449Y187755D01*
X4558Y187772D01*
X4668Y187786D01*
X4779Y187795D01*
X4889Y187801D01*
X5000Y187803D01*
X5111Y187801D01*
X5221Y187795D01*
X5332Y187786D01*
X5442Y187772D01*
X5551Y187755D01*
X5660Y187734D01*
X5768Y187709D01*
X5875Y187680D01*
X5981Y187648D01*
X6086Y187612D01*
X6189Y187572D01*
X6291Y187529D01*
X6392Y187482D01*
X6491Y187431D01*
X6587Y187378D01*
X6682Y187321D01*
X6775Y187260D01*
X6866Y187197D01*
X6955Y187130D01*
X7041Y187060D01*
X7124Y186987D01*
X7206Y186912D01*
X7284Y186834D01*
X7359Y186752D01*
X7432Y186669D01*
X7502Y186583D01*
X7569Y186494D01*
X7632Y186403D01*
X7693Y186310D01*
X7750Y186216D01*
X7803Y186119D01*
X7854Y186020D01*
X7901Y185919D01*
X7944Y185817D01*
X7984Y185714D01*
X8020Y185609D01*
X8052Y185503D01*
X8081Y185396D01*
X8106Y185288D01*
X8127Y185179D01*
X8144Y185070D01*
X8158Y184960D01*
X8167Y184849D01*
X8173Y184739D01*
X8175Y184628D01*
X8175Y181453D01*
X13255Y192311D02*
X13255Y196121D01*
X13253Y196221D01*
X13247Y196320D01*
X13237Y196420D01*
X13224Y196518D01*
X13206Y196617D01*
X13185Y196714D01*
X13160Y196810D01*
X13131Y196906D01*
X13098Y197000D01*
X13062Y197093D01*
X13022Y197184D01*
X12978Y197274D01*
X12931Y197362D01*
X12881Y197448D01*
X12827Y197532D01*
X12770Y197614D01*
X12710Y197693D01*
X12646Y197771D01*
X12580Y197845D01*
X12511Y197917D01*
X12439Y197986D01*
X12365Y198052D01*
X12287Y198116D01*
X12208Y198176D01*
X12126Y198233D01*
X12042Y198287D01*
X11956Y198337D01*
X11868Y198384D01*
X11778Y198428D01*
X11687Y198468D01*
X11594Y198504D01*
X11500Y198537D01*
X11404Y198566D01*
X11308Y198591D01*
X11211Y198612D01*
X11112Y198630D01*
X11014Y198643D01*
X10914Y198653D01*
X10815Y198659D01*
X10715Y198661D01*
X9445Y198661D01*
X9345Y198659D01*
X9246Y198653D01*
X9146Y198643D01*
X9048Y198630D01*
X8949Y198612D01*
X8852Y198591D01*
X8756Y198566D01*
X8660Y198537D01*
X8566Y198504D01*
X8473Y198468D01*
X8382Y198428D01*
X8292Y198384D01*
X8204Y198337D01*
X8118Y198287D01*
X8034Y198233D01*
X7952Y198176D01*
X7873Y198116D01*
X7795Y198052D01*
X7721Y197986D01*
X7649Y197917D01*
X7580Y197845D01*
X7514Y197771D01*
X7450Y197693D01*
X7390Y197614D01*
X7333Y197532D01*
X7279Y197448D01*
X7229Y197362D01*
X7182Y197274D01*
X7138Y197184D01*
X7098Y197093D01*
X7062Y197000D01*
X7029Y196906D01*
X7000Y196810D01*
X6975Y196714D01*
X6954Y196617D01*
X6936Y196518D01*
X6923Y196420D01*
X6913Y196320D01*
X6907Y196221D01*
X6905Y196121D01*
X6905Y192311D01*
X1825Y192311D01*
X1825Y198661D01*
D49*
X257179Y119610D02*
X257185Y119116D01*
X257203Y118622D01*
X257233Y118128D01*
X257275Y117635D01*
X257329Y117144D01*
X257395Y116654D01*
X257473Y116165D01*
X257563Y115679D01*
X257665Y115195D01*
X257778Y114714D01*
X257903Y114235D01*
X258039Y113760D01*
X258188Y113288D01*
X258347Y112820D01*
X258518Y112356D01*
X258700Y111897D01*
X258893Y111441D01*
X259098Y110991D01*
X259313Y110546D01*
X259539Y110106D01*
X259776Y109672D01*
X260023Y109244D01*
X260280Y108821D01*
X260548Y108406D01*
X260825Y107996D01*
X261113Y107594D01*
X261410Y107199D01*
X261717Y106811D01*
X262033Y106431D01*
X262358Y106058D01*
X262693Y105694D01*
X263036Y105338D01*
X263387Y104990D01*
X263747Y104651D01*
X264115Y104321D01*
X264491Y104000D01*
X264875Y103688D01*
X265266Y103385D01*
X265665Y103092D01*
X266070Y102809D01*
D47*
X266070Y96750D02*
X255910Y96750D01*
D49*
X257180Y188190D02*
X257186Y188684D01*
X257204Y189178D01*
X257234Y189672D01*
X257276Y190164D01*
X257330Y190656D01*
X257396Y191146D01*
X257474Y191634D01*
X257564Y192121D01*
X257665Y192604D01*
X257779Y193086D01*
X257904Y193564D01*
X258040Y194039D01*
X258188Y194511D01*
X258348Y194979D01*
X258519Y195443D01*
X258701Y195903D01*
X258894Y196358D01*
X259098Y196809D01*
X259313Y197254D01*
X259539Y197694D01*
X259776Y198128D01*
X260023Y198556D01*
X260280Y198978D01*
X260548Y199394D01*
X260826Y199803D01*
X261113Y200206D01*
X261410Y200601D01*
X261717Y200989D01*
X262033Y201369D01*
X262359Y201741D01*
X262693Y202106D01*
X263036Y202462D01*
X263387Y202810D01*
X263747Y203149D01*
X264115Y203479D01*
X264491Y203800D01*
X264875Y204112D01*
X265266Y204415D01*
X265665Y204707D01*
X266070Y204991D01*
D47*
X266070Y211050D02*
X255910Y211050D01*
D49*
X290200Y188190D02*
X290200Y119610D01*
X297820Y119610D02*
X297820Y188190D01*
X264800Y188190D02*
X264800Y119610D01*
D47*
X301630Y99290D02*
X301630Y208510D01*
X301628Y208610D01*
X301622Y208709D01*
X301612Y208809D01*
X301599Y208907D01*
X301581Y209006D01*
X301560Y209103D01*
X301535Y209199D01*
X301506Y209295D01*
X301473Y209389D01*
X301437Y209482D01*
X301397Y209573D01*
X301353Y209663D01*
X301306Y209751D01*
X301256Y209837D01*
X301202Y209921D01*
X301145Y210003D01*
X301085Y210082D01*
X301021Y210160D01*
X300955Y210234D01*
X300886Y210306D01*
X300814Y210375D01*
X300740Y210441D01*
X300662Y210505D01*
X300583Y210565D01*
X300501Y210622D01*
X300417Y210676D01*
X300331Y210726D01*
X300243Y210773D01*
X300153Y210817D01*
X300062Y210857D01*
X299969Y210893D01*
X299875Y210926D01*
X299779Y210955D01*
X299683Y210980D01*
X299586Y211001D01*
X299487Y211019D01*
X299389Y211032D01*
X299289Y211042D01*
X299190Y211048D01*
X299090Y211050D01*
X288930Y211050D01*
D49*
X288930Y193726D02*
X289058Y193453D01*
X289180Y193177D01*
X289295Y192898D01*
X289403Y192617D01*
X289505Y192333D01*
X289600Y192047D01*
X289688Y191759D01*
X289770Y191469D01*
X289844Y191176D01*
X289911Y190883D01*
X289972Y190587D01*
X290025Y190291D01*
X290071Y189993D01*
X290111Y189694D01*
X290143Y189394D01*
X290168Y189093D01*
X290186Y188793D01*
X290196Y188491D01*
X290200Y188190D01*
X266070Y193726D02*
X265942Y193453D01*
X265820Y193177D01*
X265705Y192898D01*
X265597Y192617D01*
X265495Y192333D01*
X265400Y192047D01*
X265312Y191759D01*
X265230Y191469D01*
X265156Y191176D01*
X265089Y190883D01*
X265028Y190587D01*
X264975Y190291D01*
X264929Y189993D01*
X264889Y189694D01*
X264857Y189394D01*
X264832Y189093D01*
X264814Y188793D01*
X264804Y188491D01*
X264800Y188190D01*
X288929Y204990D02*
X289334Y204707D01*
X289733Y204414D01*
X290124Y204112D01*
X290508Y203800D01*
X290884Y203479D01*
X291252Y203149D01*
X291612Y202810D01*
X291963Y202462D01*
X292306Y202106D01*
X292641Y201741D01*
X292966Y201369D01*
X293282Y200989D01*
X293589Y200601D01*
X293886Y200206D01*
X294174Y199803D01*
X294451Y199394D01*
X294719Y198979D01*
X294976Y198556D01*
X295223Y198128D01*
X295460Y197694D01*
X295686Y197254D01*
X295901Y196809D01*
X296105Y196359D01*
X296299Y195903D01*
X296481Y195444D01*
X296652Y194980D01*
X296811Y194512D01*
X296959Y194040D01*
X297096Y193565D01*
X297221Y193086D01*
X297334Y192605D01*
X297436Y192121D01*
X297526Y191635D01*
X297604Y191147D01*
X297670Y190657D01*
X297724Y190165D01*
X297766Y189672D01*
X297796Y189179D01*
X297814Y188685D01*
X297820Y188190D01*
X297820Y119610D02*
X297814Y119116D01*
X297796Y118622D01*
X297766Y118128D01*
X297724Y117636D01*
X297670Y117144D01*
X297604Y116654D01*
X297526Y116166D01*
X297436Y115679D01*
X297335Y115196D01*
X297221Y114714D01*
X297096Y114236D01*
X296960Y113761D01*
X296812Y113289D01*
X296652Y112821D01*
X296481Y112357D01*
X296299Y111897D01*
X296106Y111442D01*
X295902Y110991D01*
X295687Y110546D01*
X295461Y110106D01*
X295224Y109672D01*
X294977Y109244D01*
X294720Y108822D01*
X294452Y108406D01*
X294174Y107997D01*
X293887Y107594D01*
X293590Y107199D01*
X293283Y106811D01*
X292967Y106431D01*
X292641Y106059D01*
X292307Y105694D01*
X291964Y105338D01*
X291613Y104990D01*
X291253Y104651D01*
X290885Y104321D01*
X290509Y104000D01*
X290125Y103688D01*
X289734Y103385D01*
X289335Y103093D01*
X288930Y102809D01*
X288930Y114074D02*
X289058Y114347D01*
X289180Y114623D01*
X289295Y114902D01*
X289403Y115183D01*
X289505Y115467D01*
X289600Y115753D01*
X289688Y116041D01*
X289770Y116331D01*
X289844Y116624D01*
X289911Y116917D01*
X289972Y117213D01*
X290025Y117509D01*
X290071Y117807D01*
X290111Y118106D01*
X290143Y118406D01*
X290168Y118707D01*
X290186Y119007D01*
X290196Y119309D01*
X290200Y119610D01*
X266070Y114074D02*
X265942Y114347D01*
X265820Y114623D01*
X265705Y114902D01*
X265597Y115183D01*
X265495Y115467D01*
X265400Y115753D01*
X265312Y116041D01*
X265230Y116331D01*
X265156Y116624D01*
X265089Y116917D01*
X265028Y117213D01*
X264975Y117509D01*
X264929Y117807D01*
X264889Y118106D01*
X264857Y118406D01*
X264832Y118707D01*
X264814Y119007D01*
X264804Y119309D01*
X264800Y119610D01*
D47*
X288930Y96750D02*
X299090Y96750D01*
X299190Y96752D01*
X299289Y96758D01*
X299389Y96768D01*
X299487Y96781D01*
X299586Y96799D01*
X299683Y96820D01*
X299779Y96845D01*
X299875Y96874D01*
X299969Y96907D01*
X300062Y96943D01*
X300153Y96983D01*
X300243Y97027D01*
X300331Y97074D01*
X300417Y97124D01*
X300501Y97178D01*
X300583Y97235D01*
X300662Y97295D01*
X300740Y97359D01*
X300814Y97425D01*
X300886Y97494D01*
X300955Y97566D01*
X301021Y97640D01*
X301085Y97718D01*
X301145Y97797D01*
X301202Y97879D01*
X301256Y97963D01*
X301306Y98049D01*
X301353Y98137D01*
X301397Y98227D01*
X301437Y98318D01*
X301473Y98411D01*
X301506Y98505D01*
X301535Y98601D01*
X301560Y98697D01*
X301581Y98794D01*
X301599Y98893D01*
X301612Y98991D01*
X301622Y99091D01*
X301628Y99190D01*
X301630Y99290D01*
D49*
X257180Y119610D02*
X257180Y188190D01*
D47*
X253370Y208510D02*
X253370Y99290D01*
X253370Y208510D02*
X253372Y208610D01*
X253378Y208709D01*
X253388Y208809D01*
X253401Y208907D01*
X253419Y209006D01*
X253440Y209103D01*
X253465Y209199D01*
X253494Y209295D01*
X253527Y209389D01*
X253563Y209482D01*
X253603Y209573D01*
X253647Y209663D01*
X253694Y209751D01*
X253744Y209837D01*
X253798Y209921D01*
X253855Y210003D01*
X253915Y210082D01*
X253979Y210160D01*
X254045Y210234D01*
X254114Y210306D01*
X254186Y210375D01*
X254260Y210441D01*
X254338Y210505D01*
X254417Y210565D01*
X254499Y210622D01*
X254583Y210676D01*
X254669Y210726D01*
X254757Y210773D01*
X254847Y210817D01*
X254938Y210857D01*
X255031Y210893D01*
X255125Y210926D01*
X255221Y210955D01*
X255317Y210980D01*
X255414Y211001D01*
X255513Y211019D01*
X255611Y211032D01*
X255711Y211042D01*
X255810Y211048D01*
X255910Y211050D01*
X253370Y99290D02*
X253372Y99190D01*
X253378Y99091D01*
X253388Y98991D01*
X253401Y98893D01*
X253419Y98794D01*
X253440Y98697D01*
X253465Y98601D01*
X253494Y98505D01*
X253527Y98411D01*
X253563Y98318D01*
X253603Y98227D01*
X253647Y98137D01*
X253694Y98049D01*
X253744Y97963D01*
X253798Y97879D01*
X253855Y97797D01*
X253915Y97718D01*
X253979Y97640D01*
X254045Y97566D01*
X254114Y97494D01*
X254186Y97425D01*
X254260Y97359D01*
X254338Y97295D01*
X254417Y97235D01*
X254499Y97178D01*
X254583Y97124D01*
X254669Y97074D01*
X254757Y97027D01*
X254847Y96983D01*
X254938Y96943D01*
X255031Y96907D01*
X255125Y96874D01*
X255221Y96845D01*
X255317Y96820D01*
X255414Y96799D01*
X255513Y96781D01*
X255611Y96768D01*
X255711Y96758D01*
X255810Y96752D01*
X255910Y96750D01*
X271150Y151360D02*
X283850Y151360D01*
X283850Y156440D01*
X271150Y156440D01*
X271150Y151360D01*
X271150Y147550D02*
X277500Y147550D01*
X283850Y147550D01*
D49*
X277500Y147550D02*
X277500Y143740D01*
D47*
X277500Y160250D02*
X271150Y160250D01*
X277500Y160250D02*
X283850Y160250D01*
D49*
X277500Y160250D02*
X277500Y164060D01*
D50*
X78860Y53420D02*
X78860Y41736D01*
X78860Y53420D02*
X82106Y53420D01*
X82219Y53418D01*
X82332Y53412D01*
X82445Y53402D01*
X82558Y53388D01*
X82670Y53371D01*
X82781Y53349D01*
X82891Y53324D01*
X83001Y53294D01*
X83109Y53261D01*
X83216Y53224D01*
X83322Y53184D01*
X83426Y53139D01*
X83529Y53091D01*
X83630Y53040D01*
X83729Y52985D01*
X83826Y52927D01*
X83921Y52865D01*
X84014Y52800D01*
X84104Y52732D01*
X84192Y52661D01*
X84278Y52586D01*
X84361Y52509D01*
X84441Y52429D01*
X84518Y52346D01*
X84593Y52260D01*
X84664Y52172D01*
X84732Y52082D01*
X84797Y51989D01*
X84859Y51894D01*
X84917Y51797D01*
X84972Y51698D01*
X85023Y51597D01*
X85071Y51494D01*
X85116Y51390D01*
X85156Y51284D01*
X85193Y51177D01*
X85226Y51069D01*
X85256Y50959D01*
X85281Y50849D01*
X85303Y50738D01*
X85320Y50626D01*
X85334Y50513D01*
X85344Y50400D01*
X85350Y50287D01*
X85352Y50174D01*
X85350Y50061D01*
X85344Y49948D01*
X85334Y49835D01*
X85320Y49722D01*
X85303Y49610D01*
X85281Y49499D01*
X85256Y49389D01*
X85226Y49279D01*
X85193Y49171D01*
X85156Y49064D01*
X85116Y48958D01*
X85071Y48854D01*
X85023Y48751D01*
X84972Y48650D01*
X84917Y48551D01*
X84859Y48454D01*
X84797Y48359D01*
X84732Y48266D01*
X84664Y48176D01*
X84593Y48088D01*
X84518Y48002D01*
X84441Y47919D01*
X84361Y47839D01*
X84278Y47762D01*
X84192Y47687D01*
X84104Y47616D01*
X84014Y47548D01*
X83921Y47483D01*
X83826Y47421D01*
X83729Y47363D01*
X83630Y47308D01*
X83529Y47257D01*
X83426Y47209D01*
X83322Y47164D01*
X83216Y47124D01*
X83109Y47087D01*
X83001Y47054D01*
X82891Y47024D01*
X82781Y46999D01*
X82670Y46977D01*
X82558Y46960D01*
X82445Y46946D01*
X82332Y46936D01*
X82219Y46930D01*
X82106Y46928D01*
X82106Y46929D02*
X78860Y46929D01*
X82755Y46929D02*
X85351Y41736D01*
X90217Y50823D02*
X93462Y53420D01*
X93462Y41736D01*
X90217Y41736D02*
X96708Y41736D01*
X101647Y47578D02*
X101650Y47808D01*
X101658Y48038D01*
X101672Y48267D01*
X101691Y48496D01*
X101716Y48725D01*
X101746Y48952D01*
X101781Y49180D01*
X101822Y49406D01*
X101868Y49631D01*
X101920Y49855D01*
X101977Y50077D01*
X102039Y50299D01*
X102107Y50518D01*
X102180Y50736D01*
X102258Y50953D01*
X102341Y51167D01*
X102429Y51379D01*
X102522Y51589D01*
X102621Y51797D01*
X102620Y51797D02*
X102653Y51887D01*
X102689Y51976D01*
X102729Y52064D01*
X102773Y52149D01*
X102820Y52233D01*
X102870Y52315D01*
X102924Y52395D01*
X102980Y52472D01*
X103040Y52548D01*
X103103Y52621D01*
X103168Y52691D01*
X103237Y52759D01*
X103308Y52823D01*
X103381Y52885D01*
X103457Y52944D01*
X103535Y53000D01*
X103616Y53053D01*
X103698Y53102D01*
X103782Y53148D01*
X103869Y53191D01*
X103956Y53230D01*
X104046Y53266D01*
X104136Y53298D01*
X104228Y53326D01*
X104321Y53351D01*
X104415Y53372D01*
X104509Y53389D01*
X104604Y53403D01*
X104700Y53412D01*
X104796Y53418D01*
X104892Y53420D01*
X104988Y53418D01*
X105084Y53412D01*
X105180Y53403D01*
X105275Y53389D01*
X105369Y53372D01*
X105463Y53351D01*
X105556Y53326D01*
X105648Y53298D01*
X105738Y53266D01*
X105828Y53230D01*
X105915Y53191D01*
X106002Y53148D01*
X106086Y53102D01*
X106168Y53053D01*
X106249Y53000D01*
X106327Y52944D01*
X106403Y52885D01*
X106476Y52823D01*
X106547Y52759D01*
X106616Y52691D01*
X106681Y52621D01*
X106744Y52548D01*
X106804Y52472D01*
X106860Y52395D01*
X106914Y52315D01*
X106964Y52233D01*
X107011Y52149D01*
X107055Y52064D01*
X107095Y51976D01*
X107131Y51887D01*
X107164Y51797D01*
X107263Y51590D01*
X107356Y51380D01*
X107444Y51167D01*
X107527Y50953D01*
X107605Y50737D01*
X107678Y50519D01*
X107746Y50299D01*
X107808Y50078D01*
X107865Y49855D01*
X107917Y49631D01*
X107963Y49406D01*
X108004Y49180D01*
X108039Y48953D01*
X108069Y48725D01*
X108094Y48496D01*
X108113Y48267D01*
X108127Y48038D01*
X108135Y47808D01*
X108138Y47578D01*
X101646Y47578D02*
X101649Y47348D01*
X101657Y47118D01*
X101671Y46889D01*
X101690Y46660D01*
X101715Y46431D01*
X101745Y46203D01*
X101780Y45976D01*
X101821Y45750D01*
X101867Y45525D01*
X101919Y45301D01*
X101976Y45078D01*
X102038Y44857D01*
X102106Y44637D01*
X102179Y44419D01*
X102257Y44203D01*
X102340Y43989D01*
X102428Y43777D01*
X102521Y43566D01*
X102620Y43359D01*
X102653Y43269D01*
X102689Y43180D01*
X102730Y43092D01*
X102773Y43007D01*
X102820Y42923D01*
X102870Y42841D01*
X102924Y42761D01*
X102980Y42684D01*
X103040Y42608D01*
X103103Y42535D01*
X103168Y42465D01*
X103237Y42397D01*
X103308Y42333D01*
X103381Y42271D01*
X103457Y42212D01*
X103535Y42156D01*
X103616Y42103D01*
X103698Y42054D01*
X103782Y42008D01*
X103869Y41965D01*
X103956Y41926D01*
X104046Y41890D01*
X104136Y41858D01*
X104228Y41830D01*
X104321Y41805D01*
X104415Y41784D01*
X104509Y41767D01*
X104604Y41753D01*
X104700Y41744D01*
X104796Y41738D01*
X104892Y41736D01*
X107164Y43359D02*
X107263Y43566D01*
X107356Y43777D01*
X107444Y43989D01*
X107527Y44203D01*
X107605Y44419D01*
X107678Y44637D01*
X107746Y44857D01*
X107808Y45078D01*
X107865Y45301D01*
X107917Y45525D01*
X107963Y45750D01*
X108004Y45976D01*
X108039Y46203D01*
X108069Y46431D01*
X108094Y46660D01*
X108113Y46889D01*
X108127Y47118D01*
X108135Y47348D01*
X108138Y47578D01*
X107164Y43359D02*
X107131Y43269D01*
X107095Y43180D01*
X107055Y43092D01*
X107011Y43007D01*
X106964Y42923D01*
X106914Y42841D01*
X106860Y42761D01*
X106804Y42684D01*
X106744Y42608D01*
X106681Y42535D01*
X106616Y42465D01*
X106547Y42397D01*
X106476Y42333D01*
X106403Y42271D01*
X106327Y42212D01*
X106249Y42156D01*
X106168Y42103D01*
X106086Y42054D01*
X106002Y42008D01*
X105915Y41965D01*
X105828Y41926D01*
X105738Y41890D01*
X105648Y41858D01*
X105556Y41830D01*
X105463Y41805D01*
X105369Y41784D01*
X105275Y41767D01*
X105180Y41753D01*
X105084Y41744D01*
X104988Y41738D01*
X104892Y41736D01*
X102296Y44332D02*
X107489Y50823D01*
X79681Y72634D02*
X79681Y84318D01*
X82927Y84318D01*
X82927Y84319D02*
X83040Y84317D01*
X83153Y84311D01*
X83266Y84301D01*
X83379Y84287D01*
X83491Y84270D01*
X83602Y84248D01*
X83712Y84223D01*
X83822Y84193D01*
X83930Y84160D01*
X84037Y84123D01*
X84143Y84083D01*
X84247Y84038D01*
X84350Y83990D01*
X84451Y83939D01*
X84550Y83884D01*
X84647Y83826D01*
X84742Y83764D01*
X84835Y83699D01*
X84925Y83631D01*
X85013Y83560D01*
X85099Y83485D01*
X85182Y83408D01*
X85262Y83328D01*
X85339Y83245D01*
X85414Y83159D01*
X85485Y83071D01*
X85553Y82981D01*
X85618Y82888D01*
X85680Y82793D01*
X85738Y82696D01*
X85793Y82597D01*
X85844Y82496D01*
X85892Y82393D01*
X85937Y82289D01*
X85977Y82183D01*
X86014Y82076D01*
X86047Y81968D01*
X86077Y81858D01*
X86102Y81748D01*
X86124Y81637D01*
X86141Y81525D01*
X86155Y81412D01*
X86165Y81299D01*
X86171Y81186D01*
X86173Y81073D01*
X86171Y80960D01*
X86165Y80847D01*
X86155Y80734D01*
X86141Y80621D01*
X86124Y80509D01*
X86102Y80398D01*
X86077Y80288D01*
X86047Y80178D01*
X86014Y80070D01*
X85977Y79963D01*
X85937Y79857D01*
X85892Y79753D01*
X85844Y79650D01*
X85793Y79549D01*
X85738Y79450D01*
X85680Y79353D01*
X85618Y79258D01*
X85553Y79165D01*
X85485Y79075D01*
X85414Y78987D01*
X85339Y78901D01*
X85262Y78818D01*
X85182Y78738D01*
X85099Y78661D01*
X85013Y78586D01*
X84925Y78515D01*
X84835Y78447D01*
X84742Y78382D01*
X84647Y78320D01*
X84550Y78262D01*
X84451Y78207D01*
X84350Y78156D01*
X84247Y78108D01*
X84143Y78063D01*
X84037Y78023D01*
X83930Y77986D01*
X83822Y77953D01*
X83712Y77923D01*
X83602Y77898D01*
X83491Y77876D01*
X83379Y77859D01*
X83266Y77845D01*
X83153Y77835D01*
X83040Y77829D01*
X82927Y77827D01*
X79681Y77827D01*
X83576Y77827D02*
X86172Y72634D01*
X91037Y81722D02*
X94283Y84318D01*
X94283Y72634D01*
X97528Y72634D02*
X91037Y72634D01*
X102467Y75880D02*
X102469Y75993D01*
X102475Y76106D01*
X102485Y76219D01*
X102499Y76332D01*
X102516Y76444D01*
X102538Y76555D01*
X102563Y76665D01*
X102593Y76775D01*
X102626Y76883D01*
X102663Y76990D01*
X102703Y77096D01*
X102748Y77200D01*
X102796Y77303D01*
X102847Y77404D01*
X102902Y77503D01*
X102960Y77600D01*
X103022Y77695D01*
X103087Y77788D01*
X103155Y77878D01*
X103226Y77966D01*
X103301Y78052D01*
X103378Y78135D01*
X103458Y78215D01*
X103541Y78292D01*
X103627Y78367D01*
X103715Y78438D01*
X103805Y78506D01*
X103898Y78571D01*
X103993Y78633D01*
X104090Y78691D01*
X104189Y78746D01*
X104290Y78797D01*
X104393Y78845D01*
X104497Y78890D01*
X104603Y78930D01*
X104710Y78967D01*
X104818Y79000D01*
X104928Y79030D01*
X105038Y79055D01*
X105149Y79077D01*
X105261Y79094D01*
X105374Y79108D01*
X105487Y79118D01*
X105600Y79124D01*
X105713Y79126D01*
X105826Y79124D01*
X105939Y79118D01*
X106052Y79108D01*
X106165Y79094D01*
X106277Y79077D01*
X106388Y79055D01*
X106498Y79030D01*
X106608Y79000D01*
X106716Y78967D01*
X106823Y78930D01*
X106929Y78890D01*
X107033Y78845D01*
X107136Y78797D01*
X107237Y78746D01*
X107336Y78691D01*
X107433Y78633D01*
X107528Y78571D01*
X107621Y78506D01*
X107711Y78438D01*
X107799Y78367D01*
X107885Y78292D01*
X107968Y78215D01*
X108048Y78135D01*
X108125Y78052D01*
X108200Y77966D01*
X108271Y77878D01*
X108339Y77788D01*
X108404Y77695D01*
X108466Y77600D01*
X108524Y77503D01*
X108579Y77404D01*
X108630Y77303D01*
X108678Y77200D01*
X108723Y77096D01*
X108763Y76990D01*
X108800Y76883D01*
X108833Y76775D01*
X108863Y76665D01*
X108888Y76555D01*
X108910Y76444D01*
X108927Y76332D01*
X108941Y76219D01*
X108951Y76106D01*
X108957Y75993D01*
X108959Y75880D01*
X108957Y75767D01*
X108951Y75654D01*
X108941Y75541D01*
X108927Y75428D01*
X108910Y75316D01*
X108888Y75205D01*
X108863Y75095D01*
X108833Y74985D01*
X108800Y74877D01*
X108763Y74770D01*
X108723Y74664D01*
X108678Y74560D01*
X108630Y74457D01*
X108579Y74356D01*
X108524Y74257D01*
X108466Y74160D01*
X108404Y74065D01*
X108339Y73972D01*
X108271Y73882D01*
X108200Y73794D01*
X108125Y73708D01*
X108048Y73625D01*
X107968Y73545D01*
X107885Y73468D01*
X107799Y73393D01*
X107711Y73322D01*
X107621Y73254D01*
X107528Y73189D01*
X107433Y73127D01*
X107336Y73069D01*
X107237Y73014D01*
X107136Y72963D01*
X107033Y72915D01*
X106929Y72870D01*
X106823Y72830D01*
X106716Y72793D01*
X106608Y72760D01*
X106498Y72730D01*
X106388Y72705D01*
X106277Y72683D01*
X106165Y72666D01*
X106052Y72652D01*
X105939Y72642D01*
X105826Y72636D01*
X105713Y72634D01*
X105600Y72636D01*
X105487Y72642D01*
X105374Y72652D01*
X105261Y72666D01*
X105149Y72683D01*
X105038Y72705D01*
X104928Y72730D01*
X104818Y72760D01*
X104710Y72793D01*
X104603Y72830D01*
X104497Y72870D01*
X104393Y72915D01*
X104290Y72963D01*
X104189Y73014D01*
X104090Y73069D01*
X103993Y73127D01*
X103898Y73189D01*
X103805Y73254D01*
X103715Y73322D01*
X103627Y73393D01*
X103541Y73468D01*
X103458Y73545D01*
X103378Y73625D01*
X103301Y73708D01*
X103226Y73794D01*
X103155Y73882D01*
X103087Y73972D01*
X103022Y74065D01*
X102960Y74160D01*
X102902Y74257D01*
X102847Y74356D01*
X102796Y74457D01*
X102748Y74560D01*
X102703Y74664D01*
X102663Y74770D01*
X102626Y74877D01*
X102593Y74985D01*
X102563Y75095D01*
X102538Y75205D01*
X102516Y75316D01*
X102499Y75428D01*
X102485Y75541D01*
X102475Y75654D01*
X102469Y75767D01*
X102467Y75880D01*
X103117Y81722D02*
X103119Y81823D01*
X103125Y81923D01*
X103135Y82023D01*
X103148Y82123D01*
X103166Y82222D01*
X103187Y82321D01*
X103212Y82418D01*
X103241Y82515D01*
X103274Y82610D01*
X103310Y82704D01*
X103350Y82796D01*
X103393Y82887D01*
X103440Y82976D01*
X103490Y83063D01*
X103544Y83149D01*
X103601Y83232D01*
X103661Y83312D01*
X103724Y83391D01*
X103791Y83467D01*
X103860Y83540D01*
X103932Y83610D01*
X104006Y83678D01*
X104083Y83743D01*
X104163Y83804D01*
X104245Y83863D01*
X104329Y83918D01*
X104415Y83970D01*
X104503Y84019D01*
X104593Y84064D01*
X104685Y84106D01*
X104778Y84144D01*
X104873Y84178D01*
X104968Y84209D01*
X105065Y84236D01*
X105163Y84259D01*
X105262Y84279D01*
X105362Y84294D01*
X105462Y84306D01*
X105562Y84314D01*
X105663Y84318D01*
X105763Y84318D01*
X105864Y84314D01*
X105964Y84306D01*
X106064Y84294D01*
X106164Y84279D01*
X106263Y84259D01*
X106361Y84236D01*
X106458Y84209D01*
X106553Y84178D01*
X106648Y84144D01*
X106741Y84106D01*
X106833Y84064D01*
X106923Y84019D01*
X107011Y83970D01*
X107097Y83918D01*
X107181Y83863D01*
X107263Y83804D01*
X107343Y83743D01*
X107420Y83678D01*
X107494Y83610D01*
X107566Y83540D01*
X107635Y83467D01*
X107702Y83391D01*
X107765Y83312D01*
X107825Y83232D01*
X107882Y83149D01*
X107936Y83063D01*
X107986Y82976D01*
X108033Y82887D01*
X108076Y82796D01*
X108116Y82704D01*
X108152Y82610D01*
X108185Y82515D01*
X108214Y82418D01*
X108239Y82321D01*
X108260Y82222D01*
X108278Y82123D01*
X108291Y82023D01*
X108301Y81923D01*
X108307Y81823D01*
X108309Y81722D01*
X108307Y81621D01*
X108301Y81521D01*
X108291Y81421D01*
X108278Y81321D01*
X108260Y81222D01*
X108239Y81123D01*
X108214Y81026D01*
X108185Y80929D01*
X108152Y80834D01*
X108116Y80740D01*
X108076Y80648D01*
X108033Y80557D01*
X107986Y80468D01*
X107936Y80381D01*
X107882Y80295D01*
X107825Y80212D01*
X107765Y80132D01*
X107702Y80053D01*
X107635Y79977D01*
X107566Y79904D01*
X107494Y79834D01*
X107420Y79766D01*
X107343Y79701D01*
X107263Y79640D01*
X107181Y79581D01*
X107097Y79526D01*
X107011Y79474D01*
X106923Y79425D01*
X106833Y79380D01*
X106741Y79338D01*
X106648Y79300D01*
X106553Y79266D01*
X106458Y79235D01*
X106361Y79208D01*
X106263Y79185D01*
X106164Y79165D01*
X106064Y79150D01*
X105964Y79138D01*
X105864Y79130D01*
X105763Y79126D01*
X105663Y79126D01*
X105562Y79130D01*
X105462Y79138D01*
X105362Y79150D01*
X105262Y79165D01*
X105163Y79185D01*
X105065Y79208D01*
X104968Y79235D01*
X104873Y79266D01*
X104778Y79300D01*
X104685Y79338D01*
X104593Y79380D01*
X104503Y79425D01*
X104415Y79474D01*
X104329Y79526D01*
X104245Y79581D01*
X104163Y79640D01*
X104083Y79701D01*
X104006Y79766D01*
X103932Y79834D01*
X103860Y79904D01*
X103791Y79977D01*
X103724Y80053D01*
X103661Y80132D01*
X103601Y80212D01*
X103544Y80295D01*
X103490Y80381D01*
X103440Y80468D01*
X103393Y80557D01*
X103350Y80648D01*
X103310Y80740D01*
X103274Y80834D01*
X103241Y80929D01*
X103212Y81026D01*
X103187Y81123D01*
X103166Y81222D01*
X103148Y81321D01*
X103135Y81421D01*
X103125Y81521D01*
X103119Y81621D01*
X103117Y81722D01*
X126177Y78748D02*
X126177Y90432D01*
X129423Y90432D01*
X129536Y90430D01*
X129649Y90424D01*
X129762Y90414D01*
X129875Y90400D01*
X129987Y90383D01*
X130098Y90361D01*
X130208Y90336D01*
X130318Y90306D01*
X130426Y90273D01*
X130533Y90236D01*
X130639Y90196D01*
X130743Y90151D01*
X130846Y90103D01*
X130947Y90052D01*
X131046Y89997D01*
X131143Y89939D01*
X131238Y89877D01*
X131331Y89812D01*
X131421Y89744D01*
X131509Y89673D01*
X131595Y89598D01*
X131678Y89521D01*
X131758Y89441D01*
X131835Y89358D01*
X131910Y89272D01*
X131981Y89184D01*
X132049Y89094D01*
X132114Y89001D01*
X132176Y88906D01*
X132234Y88809D01*
X132289Y88710D01*
X132340Y88609D01*
X132388Y88506D01*
X132433Y88402D01*
X132473Y88296D01*
X132510Y88189D01*
X132543Y88081D01*
X132573Y87971D01*
X132598Y87861D01*
X132620Y87750D01*
X132637Y87638D01*
X132651Y87525D01*
X132661Y87412D01*
X132667Y87299D01*
X132669Y87186D01*
X132667Y87073D01*
X132661Y86960D01*
X132651Y86847D01*
X132637Y86734D01*
X132620Y86622D01*
X132598Y86511D01*
X132573Y86401D01*
X132543Y86291D01*
X132510Y86183D01*
X132473Y86076D01*
X132433Y85970D01*
X132388Y85866D01*
X132340Y85763D01*
X132289Y85662D01*
X132234Y85563D01*
X132176Y85466D01*
X132114Y85371D01*
X132049Y85278D01*
X131981Y85188D01*
X131910Y85100D01*
X131835Y85014D01*
X131758Y84931D01*
X131678Y84851D01*
X131595Y84774D01*
X131509Y84699D01*
X131421Y84628D01*
X131331Y84560D01*
X131238Y84495D01*
X131143Y84433D01*
X131046Y84375D01*
X130947Y84320D01*
X130846Y84269D01*
X130743Y84221D01*
X130639Y84176D01*
X130533Y84136D01*
X130426Y84099D01*
X130318Y84066D01*
X130208Y84036D01*
X130098Y84011D01*
X129987Y83989D01*
X129875Y83972D01*
X129762Y83958D01*
X129649Y83948D01*
X129536Y83942D01*
X129423Y83940D01*
X129423Y83941D02*
X126177Y83941D01*
X130072Y83941D02*
X132668Y78748D01*
X137533Y87835D02*
X140779Y90432D01*
X140779Y78748D01*
X144024Y78748D02*
X137533Y78748D01*
X151560Y83941D02*
X155454Y83941D01*
X151560Y83941D02*
X151461Y83943D01*
X151361Y83949D01*
X151262Y83958D01*
X151164Y83971D01*
X151066Y83988D01*
X150968Y84009D01*
X150872Y84034D01*
X150777Y84062D01*
X150683Y84094D01*
X150590Y84129D01*
X150498Y84168D01*
X150408Y84211D01*
X150320Y84256D01*
X150233Y84306D01*
X150149Y84358D01*
X150066Y84414D01*
X149986Y84472D01*
X149908Y84534D01*
X149833Y84599D01*
X149760Y84667D01*
X149690Y84737D01*
X149622Y84810D01*
X149557Y84885D01*
X149495Y84963D01*
X149437Y85043D01*
X149381Y85126D01*
X149329Y85210D01*
X149279Y85297D01*
X149234Y85385D01*
X149191Y85475D01*
X149152Y85567D01*
X149117Y85660D01*
X149085Y85754D01*
X149057Y85849D01*
X149032Y85945D01*
X149011Y86043D01*
X148994Y86141D01*
X148981Y86239D01*
X148972Y86338D01*
X148966Y86438D01*
X148964Y86537D01*
X148963Y86537D02*
X148963Y87186D01*
X148965Y87299D01*
X148971Y87412D01*
X148981Y87525D01*
X148995Y87638D01*
X149012Y87750D01*
X149034Y87861D01*
X149059Y87971D01*
X149089Y88081D01*
X149122Y88189D01*
X149159Y88296D01*
X149199Y88402D01*
X149244Y88506D01*
X149292Y88609D01*
X149343Y88710D01*
X149398Y88809D01*
X149456Y88906D01*
X149518Y89001D01*
X149583Y89094D01*
X149651Y89184D01*
X149722Y89272D01*
X149797Y89358D01*
X149874Y89441D01*
X149954Y89521D01*
X150037Y89598D01*
X150123Y89673D01*
X150211Y89744D01*
X150301Y89812D01*
X150394Y89877D01*
X150489Y89939D01*
X150586Y89997D01*
X150685Y90052D01*
X150786Y90103D01*
X150889Y90151D01*
X150993Y90196D01*
X151099Y90236D01*
X151206Y90273D01*
X151314Y90306D01*
X151424Y90336D01*
X151534Y90361D01*
X151645Y90383D01*
X151757Y90400D01*
X151870Y90414D01*
X151983Y90424D01*
X152096Y90430D01*
X152209Y90432D01*
X152322Y90430D01*
X152435Y90424D01*
X152548Y90414D01*
X152661Y90400D01*
X152773Y90383D01*
X152884Y90361D01*
X152994Y90336D01*
X153104Y90306D01*
X153212Y90273D01*
X153319Y90236D01*
X153425Y90196D01*
X153529Y90151D01*
X153632Y90103D01*
X153733Y90052D01*
X153832Y89997D01*
X153929Y89939D01*
X154024Y89877D01*
X154117Y89812D01*
X154207Y89744D01*
X154295Y89673D01*
X154381Y89598D01*
X154464Y89521D01*
X154544Y89441D01*
X154621Y89358D01*
X154696Y89272D01*
X154767Y89184D01*
X154835Y89094D01*
X154900Y89001D01*
X154962Y88906D01*
X155020Y88809D01*
X155075Y88710D01*
X155126Y88609D01*
X155174Y88506D01*
X155219Y88402D01*
X155259Y88296D01*
X155296Y88189D01*
X155329Y88081D01*
X155359Y87971D01*
X155384Y87861D01*
X155406Y87750D01*
X155423Y87638D01*
X155437Y87525D01*
X155447Y87412D01*
X155453Y87299D01*
X155455Y87186D01*
X155454Y87186D02*
X155454Y83941D01*
X155455Y83941D02*
X155453Y83798D01*
X155447Y83655D01*
X155437Y83512D01*
X155423Y83370D01*
X155406Y83228D01*
X155384Y83086D01*
X155359Y82945D01*
X155329Y82805D01*
X155296Y82666D01*
X155259Y82528D01*
X155218Y82391D01*
X155174Y82255D01*
X155125Y82120D01*
X155073Y81987D01*
X155018Y81855D01*
X154958Y81725D01*
X154895Y81596D01*
X154829Y81469D01*
X154759Y81344D01*
X154686Y81222D01*
X154609Y81101D01*
X154529Y80982D01*
X154446Y80866D01*
X154360Y80751D01*
X154271Y80640D01*
X154178Y80530D01*
X154083Y80424D01*
X153984Y80320D01*
X153883Y80219D01*
X153779Y80120D01*
X153673Y80025D01*
X153563Y79932D01*
X153452Y79843D01*
X153337Y79757D01*
X153221Y79674D01*
X153102Y79594D01*
X152981Y79517D01*
X152858Y79444D01*
X152734Y79374D01*
X152607Y79308D01*
X152478Y79245D01*
X152348Y79185D01*
X152216Y79130D01*
X152083Y79078D01*
X151948Y79029D01*
X151812Y78985D01*
X151675Y78944D01*
X151537Y78907D01*
X151398Y78874D01*
X151258Y78844D01*
X151117Y78819D01*
X150975Y78797D01*
X150833Y78780D01*
X150691Y78766D01*
X150548Y78756D01*
X150405Y78750D01*
X150262Y78748D01*
X127024Y62525D02*
X127024Y50841D01*
X127024Y62525D02*
X130269Y62525D01*
X130382Y62523D01*
X130495Y62517D01*
X130608Y62507D01*
X130721Y62493D01*
X130833Y62476D01*
X130944Y62454D01*
X131054Y62429D01*
X131164Y62399D01*
X131272Y62366D01*
X131379Y62329D01*
X131485Y62289D01*
X131589Y62244D01*
X131692Y62196D01*
X131793Y62145D01*
X131892Y62090D01*
X131989Y62032D01*
X132084Y61970D01*
X132177Y61905D01*
X132267Y61837D01*
X132355Y61766D01*
X132441Y61691D01*
X132524Y61614D01*
X132604Y61534D01*
X132681Y61451D01*
X132756Y61365D01*
X132827Y61277D01*
X132895Y61187D01*
X132960Y61094D01*
X133022Y60999D01*
X133080Y60902D01*
X133135Y60803D01*
X133186Y60702D01*
X133234Y60599D01*
X133279Y60495D01*
X133319Y60389D01*
X133356Y60282D01*
X133389Y60174D01*
X133419Y60064D01*
X133444Y59954D01*
X133466Y59843D01*
X133483Y59731D01*
X133497Y59618D01*
X133507Y59505D01*
X133513Y59392D01*
X133515Y59279D01*
X133513Y59166D01*
X133507Y59053D01*
X133497Y58940D01*
X133483Y58827D01*
X133466Y58715D01*
X133444Y58604D01*
X133419Y58494D01*
X133389Y58384D01*
X133356Y58276D01*
X133319Y58169D01*
X133279Y58063D01*
X133234Y57959D01*
X133186Y57856D01*
X133135Y57755D01*
X133080Y57656D01*
X133022Y57559D01*
X132960Y57464D01*
X132895Y57371D01*
X132827Y57281D01*
X132756Y57193D01*
X132681Y57107D01*
X132604Y57024D01*
X132524Y56944D01*
X132441Y56867D01*
X132355Y56792D01*
X132267Y56721D01*
X132177Y56653D01*
X132084Y56588D01*
X131989Y56526D01*
X131892Y56468D01*
X131793Y56413D01*
X131692Y56362D01*
X131589Y56314D01*
X131485Y56269D01*
X131379Y56229D01*
X131272Y56192D01*
X131164Y56159D01*
X131054Y56129D01*
X130944Y56104D01*
X130833Y56082D01*
X130721Y56065D01*
X130608Y56051D01*
X130495Y56041D01*
X130382Y56035D01*
X130269Y56033D01*
X130269Y56034D02*
X127024Y56034D01*
X130918Y56034D02*
X133515Y50841D01*
X144871Y59604D02*
X144869Y59711D01*
X144863Y59817D01*
X144853Y59923D01*
X144840Y60029D01*
X144822Y60135D01*
X144801Y60239D01*
X144776Y60343D01*
X144747Y60446D01*
X144715Y60547D01*
X144678Y60647D01*
X144638Y60746D01*
X144595Y60844D01*
X144548Y60940D01*
X144497Y61034D01*
X144443Y61126D01*
X144386Y61216D01*
X144326Y61304D01*
X144262Y61389D01*
X144195Y61472D01*
X144125Y61553D01*
X144053Y61631D01*
X143977Y61707D01*
X143899Y61779D01*
X143818Y61849D01*
X143735Y61916D01*
X143650Y61980D01*
X143562Y62040D01*
X143472Y62097D01*
X143380Y62151D01*
X143286Y62202D01*
X143190Y62249D01*
X143092Y62292D01*
X142993Y62332D01*
X142893Y62369D01*
X142792Y62401D01*
X142689Y62430D01*
X142585Y62455D01*
X142481Y62476D01*
X142375Y62494D01*
X142269Y62507D01*
X142163Y62517D01*
X142057Y62523D01*
X141950Y62525D01*
X141829Y62523D01*
X141708Y62517D01*
X141588Y62507D01*
X141467Y62494D01*
X141348Y62476D01*
X141228Y62455D01*
X141110Y62430D01*
X140993Y62401D01*
X140876Y62368D01*
X140761Y62332D01*
X140647Y62291D01*
X140534Y62248D01*
X140422Y62200D01*
X140313Y62149D01*
X140205Y62094D01*
X140098Y62036D01*
X139994Y61975D01*
X139892Y61910D01*
X139792Y61842D01*
X139694Y61771D01*
X139598Y61697D01*
X139505Y61620D01*
X139415Y61539D01*
X139327Y61456D01*
X139242Y61370D01*
X139159Y61281D01*
X139080Y61190D01*
X139003Y61096D01*
X138930Y61000D01*
X138860Y60902D01*
X138793Y60801D01*
X138729Y60698D01*
X138669Y60593D01*
X138612Y60486D01*
X138558Y60378D01*
X138508Y60268D01*
X138462Y60156D01*
X138419Y60043D01*
X138380Y59928D01*
X143898Y57332D02*
X143977Y57409D01*
X144053Y57490D01*
X144126Y57573D01*
X144196Y57658D01*
X144263Y57746D01*
X144327Y57836D01*
X144387Y57928D01*
X144444Y58023D01*
X144498Y58119D01*
X144549Y58217D01*
X144596Y58317D01*
X144640Y58419D01*
X144680Y58522D01*
X144716Y58626D01*
X144748Y58732D01*
X144777Y58838D01*
X144802Y58946D01*
X144824Y59054D01*
X144841Y59164D01*
X144855Y59273D01*
X144864Y59383D01*
X144870Y59494D01*
X144872Y59604D01*
X143897Y57332D02*
X138380Y50841D01*
X144871Y50841D01*
X149810Y56683D02*
X149813Y56913D01*
X149821Y57143D01*
X149835Y57372D01*
X149854Y57601D01*
X149879Y57830D01*
X149909Y58057D01*
X149944Y58285D01*
X149985Y58511D01*
X150031Y58736D01*
X150083Y58960D01*
X150140Y59182D01*
X150202Y59404D01*
X150270Y59623D01*
X150343Y59841D01*
X150421Y60058D01*
X150504Y60272D01*
X150592Y60484D01*
X150685Y60694D01*
X150784Y60902D01*
X150783Y60902D02*
X150816Y60992D01*
X150852Y61081D01*
X150892Y61169D01*
X150936Y61254D01*
X150983Y61338D01*
X151033Y61420D01*
X151087Y61500D01*
X151143Y61577D01*
X151203Y61653D01*
X151266Y61726D01*
X151331Y61796D01*
X151400Y61864D01*
X151471Y61928D01*
X151544Y61990D01*
X151620Y62049D01*
X151698Y62105D01*
X151779Y62158D01*
X151861Y62207D01*
X151945Y62253D01*
X152032Y62296D01*
X152119Y62335D01*
X152209Y62371D01*
X152299Y62403D01*
X152391Y62431D01*
X152484Y62456D01*
X152578Y62477D01*
X152672Y62494D01*
X152767Y62508D01*
X152863Y62517D01*
X152959Y62523D01*
X153055Y62525D01*
X153151Y62523D01*
X153247Y62517D01*
X153343Y62508D01*
X153438Y62494D01*
X153532Y62477D01*
X153626Y62456D01*
X153719Y62431D01*
X153811Y62403D01*
X153901Y62371D01*
X153991Y62335D01*
X154078Y62296D01*
X154165Y62253D01*
X154249Y62207D01*
X154331Y62158D01*
X154412Y62105D01*
X154490Y62049D01*
X154566Y61990D01*
X154639Y61928D01*
X154710Y61864D01*
X154779Y61796D01*
X154844Y61726D01*
X154907Y61653D01*
X154967Y61577D01*
X155023Y61500D01*
X155077Y61420D01*
X155127Y61338D01*
X155174Y61254D01*
X155218Y61169D01*
X155258Y61081D01*
X155294Y60992D01*
X155327Y60902D01*
X155426Y60695D01*
X155519Y60485D01*
X155607Y60272D01*
X155690Y60058D01*
X155768Y59842D01*
X155841Y59624D01*
X155909Y59404D01*
X155971Y59183D01*
X156028Y58960D01*
X156080Y58736D01*
X156126Y58511D01*
X156167Y58285D01*
X156202Y58058D01*
X156232Y57830D01*
X156257Y57601D01*
X156276Y57372D01*
X156290Y57143D01*
X156298Y56913D01*
X156301Y56683D01*
X149810Y56683D02*
X149813Y56453D01*
X149821Y56223D01*
X149835Y55994D01*
X149854Y55765D01*
X149879Y55536D01*
X149909Y55308D01*
X149944Y55081D01*
X149985Y54855D01*
X150031Y54630D01*
X150083Y54406D01*
X150140Y54183D01*
X150202Y53962D01*
X150270Y53742D01*
X150343Y53524D01*
X150421Y53308D01*
X150504Y53094D01*
X150592Y52882D01*
X150685Y52671D01*
X150784Y52464D01*
X150783Y52464D02*
X150816Y52374D01*
X150852Y52285D01*
X150893Y52197D01*
X150936Y52112D01*
X150983Y52028D01*
X151033Y51946D01*
X151087Y51866D01*
X151143Y51789D01*
X151203Y51713D01*
X151266Y51640D01*
X151331Y51570D01*
X151400Y51502D01*
X151471Y51438D01*
X151544Y51376D01*
X151620Y51317D01*
X151698Y51261D01*
X151779Y51208D01*
X151861Y51159D01*
X151945Y51113D01*
X152032Y51070D01*
X152119Y51031D01*
X152209Y50995D01*
X152299Y50963D01*
X152391Y50935D01*
X152484Y50910D01*
X152578Y50889D01*
X152672Y50872D01*
X152767Y50858D01*
X152863Y50849D01*
X152959Y50843D01*
X153055Y50841D01*
X155327Y52464D02*
X155426Y52671D01*
X155519Y52882D01*
X155607Y53094D01*
X155690Y53308D01*
X155768Y53524D01*
X155841Y53742D01*
X155909Y53962D01*
X155971Y54183D01*
X156028Y54406D01*
X156080Y54630D01*
X156126Y54855D01*
X156167Y55081D01*
X156202Y55308D01*
X156232Y55536D01*
X156257Y55765D01*
X156276Y55994D01*
X156290Y56223D01*
X156298Y56453D01*
X156301Y56683D01*
X155327Y52464D02*
X155294Y52374D01*
X155258Y52285D01*
X155218Y52197D01*
X155174Y52112D01*
X155127Y52028D01*
X155077Y51946D01*
X155023Y51866D01*
X154967Y51789D01*
X154907Y51713D01*
X154844Y51640D01*
X154779Y51570D01*
X154710Y51502D01*
X154639Y51438D01*
X154566Y51376D01*
X154490Y51317D01*
X154412Y51261D01*
X154331Y51208D01*
X154249Y51159D01*
X154165Y51113D01*
X154078Y51070D01*
X153991Y51031D01*
X153901Y50995D01*
X153811Y50963D01*
X153719Y50935D01*
X153626Y50910D01*
X153532Y50889D01*
X153438Y50872D01*
X153343Y50858D01*
X153247Y50849D01*
X153151Y50843D01*
X153055Y50841D01*
X150459Y53437D02*
X155652Y59928D01*
D47*
X231450Y48850D02*
X294950Y48850D01*
X294950Y10750D01*
X231450Y10750D01*
X231450Y48850D01*
X236530Y43770D02*
X289870Y43770D01*
X289870Y15830D01*
X236530Y15830D01*
X236530Y43770D01*
D48*
X223600Y153300D02*
X223600Y229500D01*
X223600Y153300D02*
X172800Y153300D01*
X172800Y229500D01*
X223600Y229500D01*
M02*
