G04 EAGLE Gerber RS-274X export*
G75*
%MOMM*%
%FSLAX34Y34*%
%LPD*%
%INSolderpaste Top*%
%IPPOS*%
%AMOC8*
5,1,8,0,0,1.08239X$1,22.5*%
G01*
%ADD10R,0.550000X1.600000*%
%ADD11R,1.600000X0.550000*%
%ADD12R,0.304800X0.965200*%
%ADD13R,0.965200X0.304800*%
%ADD14R,2.438400X2.438400*%
%ADD15R,1.600000X1.300000*%
%ADD16R,1.300000X1.600000*%
%ADD17R,1.930400X5.334000*%
%ADD18R,1.300000X1.500000*%


D10*
X81300Y130300D03*
X89300Y130300D03*
X97300Y130300D03*
X105300Y130300D03*
X113300Y130300D03*
X121300Y130300D03*
X129300Y130300D03*
X137300Y130300D03*
X137300Y215300D03*
X129300Y215300D03*
X121300Y215300D03*
X113300Y215300D03*
X105300Y215300D03*
X97300Y215300D03*
X89300Y215300D03*
X81300Y215300D03*
D11*
X151800Y144800D03*
X151800Y152800D03*
X151800Y160800D03*
X151800Y168800D03*
X151800Y176800D03*
X151800Y184800D03*
X151800Y192800D03*
X151800Y200800D03*
X66800Y200800D03*
X66800Y192800D03*
X66800Y184800D03*
X66800Y176800D03*
X66800Y168800D03*
X66800Y160800D03*
X66800Y152800D03*
X66800Y144800D03*
D12*
X226050Y119239D03*
X219550Y119239D03*
X213050Y119239D03*
X206550Y119239D03*
D13*
X196361Y109050D03*
X196361Y102550D03*
X196361Y96050D03*
X196361Y89550D03*
D12*
X206550Y79361D03*
X213050Y79361D03*
X219550Y79361D03*
X226050Y79361D03*
D13*
X236239Y89550D03*
X236239Y96050D03*
X236239Y102550D03*
X236239Y109050D03*
D14*
X216300Y99300D03*
D15*
X175500Y122400D03*
X175500Y142400D03*
D16*
X197800Y142900D03*
X217800Y142900D03*
D15*
X257600Y59000D03*
X257600Y79000D03*
X175500Y79300D03*
X175500Y99300D03*
D16*
X193600Y58500D03*
X173600Y58500D03*
X233500Y58300D03*
X213500Y58300D03*
D17*
X277500Y105640D03*
X277500Y202160D03*
D18*
X84515Y64084D03*
X103515Y64084D03*
X104997Y92447D03*
X85997Y92447D03*
X149800Y101100D03*
X130800Y101100D03*
X149800Y71500D03*
X130800Y71500D03*
M02*
