G04 EAGLE Gerber RS-274X export*
G75*
%MOMM*%
%FSLAX34Y34*%
%LPD*%
%INSoldermask Top*%
%IPPOS*%
%AMOC8*
5,1,8,0,0,1.08239X$1,22.5*%
G01*
%ADD10R,0.406400X1.066800*%
%ADD11R,1.066800X0.406400*%
%ADD12R,2.540000X2.540000*%
%ADD13R,1.701600X0.651600*%
%ADD14R,0.651600X1.701600*%
%ADD15R,1.401600X1.701600*%
%ADD16R,1.701600X1.401600*%
%ADD17C,1.422400*%
%ADD18C,1.524000*%
%ADD19R,1.401600X1.601600*%
%ADD20P,1.525737X8X292.500000*%
%ADD21R,2.251600X1.051600*%
%ADD22R,2.251600X3.351600*%

G36*
X290336Y219136D02*
X290336Y219136D01*
X290379Y219148D01*
X290445Y219155D01*
X292128Y219606D01*
X292169Y219625D01*
X292232Y219644D01*
X293812Y220381D01*
X293849Y220407D01*
X293908Y220436D01*
X295336Y221436D01*
X295367Y221468D01*
X295420Y221507D01*
X296653Y222740D01*
X296678Y222776D01*
X296724Y222824D01*
X297724Y224252D01*
X297742Y224293D01*
X297779Y224348D01*
X298516Y225928D01*
X298527Y225971D01*
X298554Y226032D01*
X299005Y227715D01*
X299007Y227747D01*
X299014Y227768D01*
X299014Y227783D01*
X299024Y227824D01*
X299176Y229561D01*
X299172Y229605D01*
X299176Y229671D01*
X299024Y231408D01*
X299012Y231451D01*
X299005Y231517D01*
X298554Y233200D01*
X298535Y233241D01*
X298516Y233304D01*
X297779Y234884D01*
X297753Y234921D01*
X297724Y234980D01*
X296724Y236408D01*
X296692Y236439D01*
X296653Y236492D01*
X295420Y237725D01*
X295384Y237750D01*
X295336Y237796D01*
X293908Y238796D01*
X293867Y238814D01*
X293812Y238851D01*
X292232Y239588D01*
X292189Y239599D01*
X292128Y239626D01*
X290445Y240077D01*
X290400Y240080D01*
X290336Y240096D01*
X288599Y240248D01*
X288555Y240244D01*
X288489Y240248D01*
X286752Y240096D01*
X286709Y240084D01*
X286643Y240077D01*
X284960Y239626D01*
X284919Y239607D01*
X284856Y239588D01*
X283276Y238851D01*
X283239Y238825D01*
X283180Y238796D01*
X281752Y237796D01*
X281721Y237764D01*
X281668Y237725D01*
X280435Y236492D01*
X280410Y236456D01*
X280364Y236408D01*
X279364Y234980D01*
X279346Y234939D01*
X279309Y234884D01*
X278572Y233304D01*
X278561Y233261D01*
X278534Y233200D01*
X278083Y231517D01*
X278080Y231472D01*
X278064Y231408D01*
X277912Y229671D01*
X277916Y229627D01*
X277912Y229561D01*
X278064Y227824D01*
X278076Y227781D01*
X278080Y227747D01*
X278080Y227731D01*
X278082Y227726D01*
X278083Y227715D01*
X278534Y226032D01*
X278553Y225991D01*
X278572Y225928D01*
X279309Y224348D01*
X279335Y224311D01*
X279364Y224252D01*
X280364Y222824D01*
X280396Y222793D01*
X280435Y222740D01*
X281668Y221507D01*
X281704Y221482D01*
X281752Y221436D01*
X283180Y220436D01*
X283221Y220418D01*
X283276Y220381D01*
X284856Y219644D01*
X284899Y219633D01*
X284960Y219606D01*
X286643Y219155D01*
X286688Y219152D01*
X286752Y219136D01*
X288489Y218984D01*
X288533Y218988D01*
X288599Y218984D01*
X290336Y219136D01*
G37*
G36*
X91200Y44384D02*
X91200Y44384D01*
X91243Y44396D01*
X91309Y44403D01*
X92992Y44854D01*
X93033Y44873D01*
X93096Y44892D01*
X94676Y45629D01*
X94713Y45655D01*
X94772Y45684D01*
X96200Y46684D01*
X96231Y46716D01*
X96284Y46755D01*
X97517Y47988D01*
X97542Y48024D01*
X97588Y48072D01*
X98588Y49500D01*
X98606Y49541D01*
X98643Y49596D01*
X99380Y51176D01*
X99391Y51219D01*
X99418Y51280D01*
X99869Y52963D01*
X99871Y52995D01*
X99878Y53016D01*
X99878Y53031D01*
X99888Y53072D01*
X100040Y54809D01*
X100036Y54853D01*
X100040Y54919D01*
X99888Y56656D01*
X99876Y56699D01*
X99869Y56765D01*
X99418Y58448D01*
X99399Y58489D01*
X99380Y58552D01*
X98643Y60132D01*
X98617Y60169D01*
X98588Y60228D01*
X97588Y61656D01*
X97556Y61687D01*
X97517Y61740D01*
X96284Y62973D01*
X96248Y62998D01*
X96200Y63044D01*
X94772Y64044D01*
X94731Y64062D01*
X94676Y64099D01*
X93096Y64836D01*
X93053Y64847D01*
X92992Y64874D01*
X91309Y65325D01*
X91264Y65328D01*
X91200Y65344D01*
X89463Y65496D01*
X89419Y65492D01*
X89353Y65496D01*
X87616Y65344D01*
X87573Y65332D01*
X87507Y65325D01*
X85824Y64874D01*
X85783Y64855D01*
X85720Y64836D01*
X84140Y64099D01*
X84103Y64073D01*
X84044Y64044D01*
X82616Y63044D01*
X82585Y63012D01*
X82532Y62973D01*
X81299Y61740D01*
X81274Y61704D01*
X81228Y61656D01*
X80228Y60228D01*
X80210Y60187D01*
X80173Y60132D01*
X79436Y58552D01*
X79425Y58509D01*
X79398Y58448D01*
X78947Y56765D01*
X78944Y56720D01*
X78928Y56656D01*
X78776Y54919D01*
X78780Y54875D01*
X78776Y54809D01*
X78928Y53072D01*
X78940Y53029D01*
X78944Y52995D01*
X78944Y52979D01*
X78946Y52974D01*
X78947Y52963D01*
X79398Y51280D01*
X79417Y51239D01*
X79436Y51176D01*
X80173Y49596D01*
X80199Y49559D01*
X80228Y49500D01*
X81228Y48072D01*
X81260Y48041D01*
X81299Y47988D01*
X82532Y46755D01*
X82568Y46730D01*
X82616Y46684D01*
X84044Y45684D01*
X84085Y45666D01*
X84140Y45629D01*
X85720Y44892D01*
X85763Y44881D01*
X85824Y44854D01*
X87507Y44403D01*
X87552Y44400D01*
X87616Y44384D01*
X89353Y44232D01*
X89397Y44236D01*
X89463Y44232D01*
X91200Y44384D01*
G37*
D10*
X141830Y113919D03*
X135330Y113919D03*
X128830Y113919D03*
X122330Y113919D03*
D11*
X112141Y103730D03*
X112141Y97230D03*
X112141Y90730D03*
X112141Y84230D03*
D10*
X122330Y74041D03*
X128830Y74041D03*
X135330Y74041D03*
X141830Y74041D03*
D11*
X152019Y84230D03*
X152019Y90730D03*
X152019Y97230D03*
X152019Y103730D03*
D12*
X132080Y93980D03*
D13*
X87040Y226120D03*
X87040Y218120D03*
X87040Y210120D03*
X87040Y202120D03*
X87040Y194120D03*
X87040Y186120D03*
X87040Y178120D03*
X87040Y170120D03*
X172040Y170120D03*
X172040Y178120D03*
X172040Y186120D03*
X172040Y194120D03*
X172040Y202120D03*
X172040Y210120D03*
X172040Y218120D03*
X172040Y226120D03*
D14*
X101540Y155620D03*
X109540Y155620D03*
X117540Y155620D03*
X125540Y155620D03*
X133540Y155620D03*
X141540Y155620D03*
X149540Y155620D03*
X157540Y155620D03*
X157540Y240620D03*
X149540Y240620D03*
X141540Y240620D03*
X133540Y240620D03*
X125540Y240620D03*
X117540Y240620D03*
X109540Y240620D03*
X101540Y240620D03*
D15*
X185580Y106680D03*
X205580Y106680D03*
X192880Y66040D03*
X172880Y66040D03*
X147160Y55880D03*
X127160Y55880D03*
D16*
X63500Y183040D03*
X63500Y203040D03*
D15*
X269080Y226060D03*
X249080Y226060D03*
X205900Y160020D03*
X225900Y160020D03*
X264320Y172720D03*
X284320Y172720D03*
D17*
X66040Y118364D02*
X66040Y105156D01*
X40640Y105156D02*
X40640Y118364D01*
D18*
X215900Y37592D02*
X215900Y23368D01*
X241300Y23368D02*
X241300Y37592D01*
X165100Y37592D02*
X165100Y23368D01*
X190500Y23368D02*
X190500Y37592D01*
X42672Y154940D02*
X28448Y154940D01*
X28448Y180340D02*
X42672Y180340D01*
X42672Y205740D02*
X28448Y205740D01*
X28448Y231140D02*
X42672Y231140D01*
D19*
X254660Y195580D03*
X273660Y195580D03*
D20*
X226060Y213360D03*
X200660Y213360D03*
X226060Y238760D03*
X200660Y238760D03*
X200660Y187960D03*
X226060Y187960D03*
D21*
X290620Y101460D03*
X290620Y124460D03*
X290620Y147460D03*
D22*
X232620Y124460D03*
D17*
X272161Y38735D02*
X285369Y38735D01*
X285369Y64135D02*
X272161Y64135D01*
D19*
X214020Y69215D03*
X233020Y69215D03*
X117500Y32385D03*
X136500Y32385D03*
D15*
X126525Y130810D03*
X146525Y130810D03*
X188120Y132080D03*
X208120Y132080D03*
M02*
