M48
;GenerationSoftware,Autodesk,EAGLE,9.6.2*%
;CreationDate,2020-11-11T23:53:57Z*%
FMAT,2
ICI,OFF
METRIC,TZ,000.000
T4C0.381
T3C0.800
T2C0.813
T1C0.914
%
G90
M71
T1
X3556Y20574
X21590Y3048
X24130Y3048
X16510Y3048
X19050Y3048
X3556Y15494
X3556Y18034
X3556Y23114
T2
X27876Y6413
X6604Y11176
X4064Y11176
X27876Y3873
T3
X22606Y21336
X20066Y21336
X22606Y23876
X20066Y23876
X20066Y18796
X22606Y18796
T4
X25146Y17780
X19110Y19618
X23254Y20287
X21590Y14732
X16510Y10744
X19050Y7874
X19812Y14478
X11176Y5297
X14737Y4323
X9906Y10405
X23876Y9906
X28702Y20574
X13716Y22716
X16764Y24130
X19304Y25146
X17272Y23433
X18796Y18542
X20892Y12014
X28956Y13716
X22860Y4826
X15240Y2794
X20320Y3048
X16142Y17827
X21336Y20066
X16764Y15240
X17526Y16191
X15494Y17018
X16002Y12700
X20654Y1444
X18796Y5080
X9981Y13970
X6096Y22238
X10414Y18669
X15912Y5842
X9333Y14986
X29400Y18796
X22606Y9384
X16256Y8636
X5842Y15494
X15748Y21336
X17958Y8128
X6858Y16142
X15748Y22352
X18400Y22464
X17526Y14006
X9770Y9516
X10998Y7414
X25400Y8382
X19812Y5080
X24715Y5665
X15798Y4876
X17526Y5080
X7366Y13932
X10668Y19558
X5525Y22923
X25985Y21461
X8636Y13462
M30