G04 EAGLE Gerber RS-274X export*
G75*
%MOMM*%
%FSLAX34Y34*%
%LPD*%
%IN*%
%IPPOS*%
%AMOC8*
5,1,8,0,0,1.08239X$1,22.5*%
G01*
%ADD10C,0.254000*%


D10*
X0Y0D02*
X279971Y0D01*
X283106Y-168D01*
X286244Y-62D01*
X289360Y317D01*
X292432Y966D01*
X295435Y1880D01*
X298347Y3052D01*
X301146Y4474D01*
X303810Y6135D01*
X306320Y8021D01*
X308656Y10119D01*
X310799Y12412D01*
X312735Y14884D01*
X314448Y17515D01*
X315926Y20285D01*
X317156Y23173D01*
X318129Y26158D01*
X318839Y29216D01*
X319280Y32324D01*
X319280Y215466D01*
X319119Y219786D01*
X318582Y224075D01*
X317674Y228301D01*
X316401Y232431D01*
X314772Y236435D01*
X312801Y240282D01*
X310502Y243942D01*
X307893Y247388D01*
X304993Y250594D01*
X301825Y253534D01*
X298412Y256188D01*
X294782Y258533D01*
X290961Y260554D01*
X286978Y262233D01*
X282864Y263560D01*
X278650Y264522D01*
X274368Y265114D01*
X270051Y265330D01*
X42929Y265330D01*
X38817Y264762D01*
X34770Y263838D01*
X30819Y262565D01*
X26994Y260953D01*
X23324Y259013D01*
X19838Y256761D01*
X16560Y254213D01*
X13518Y251389D01*
X10733Y248311D01*
X8226Y245002D01*
X6018Y241487D01*
X4124Y237793D01*
X2560Y233948D01*
X1337Y229982D01*
X464Y225924D01*
X-52Y221805D01*
X-207Y217657D01*
X0Y213511D01*
X0Y0D01*
M02*
