G04 EAGLE Gerber RS-274X export*
G75*
%MOMM*%
%FSLAX34Y34*%
%LPD*%
%INSilkscreen Top*%
%IPPOS*%
%AMOC8*
5,1,8,0,0,1.08239X$1,22.5*%
G01*
%ADD10R,0.084581X0.083819*%
%ADD11R,0.084581X0.254000*%
%ADD12R,0.084581X0.170181*%
%ADD13R,0.084581X0.086363*%
%ADD14R,0.084581X0.167637*%
%ADD15R,0.084838X0.170181*%
%ADD16R,0.084838X0.083819*%
%ADD17R,0.084838X0.167637*%
%ADD18R,0.084838X0.086363*%
%ADD19R,0.084581X0.508000*%
%ADD20R,0.084581X0.421637*%
%ADD21R,0.084581X0.591819*%
%ADD22R,0.084838X0.340363*%
%ADD23R,0.084581X0.762000*%
%ADD24R,0.084581X1.270000*%
%ADD25R,0.084581X1.948181*%
%ADD26R,0.084581X0.845819*%
%ADD27R,0.084838X0.762000*%
%ADD28R,0.084838X0.421637*%
%ADD29R,0.084838X0.678181*%
%ADD30R,0.084838X0.254000*%
%ADD31R,0.084581X0.424181*%
%ADD32R,0.084581X0.594363*%
%ADD33R,0.084838X0.932181*%
%ADD34R,0.084838X1.437638*%
%ADD35R,0.084838X0.337819*%
%ADD36R,0.084581X0.337819*%
%ADD37R,0.084838X0.424181*%
%ADD38R,0.084581X0.340363*%
%ADD39R,0.084838X0.508000*%
%ADD40R,0.084838X0.675638*%
%ADD41R,0.084838X0.594363*%
%ADD42R,0.084581X0.678181*%
%ADD43R,0.084581X0.932181*%
%ADD44C,0.152400*%
%ADD45C,0.076200*%
%ADD46C,0.150000*%
%ADD47C,0.500000*%
%ADD48C,0.127000*%
%ADD49C,0.101600*%
%ADD50C,0.200000*%

G36*
X130737Y64010D02*
X130737Y64010D01*
X130739Y64009D01*
X130782Y64029D01*
X130826Y64047D01*
X130826Y64049D01*
X130828Y64050D01*
X130861Y64135D01*
X130861Y66675D01*
X130860Y66677D01*
X130861Y66679D01*
X130841Y66722D01*
X130823Y66766D01*
X130821Y66766D01*
X130820Y66768D01*
X130735Y66801D01*
X126925Y66801D01*
X126923Y66800D01*
X126921Y66801D01*
X126878Y66781D01*
X126834Y66763D01*
X126834Y66761D01*
X126832Y66760D01*
X126799Y66675D01*
X126799Y64135D01*
X126800Y64133D01*
X126799Y64131D01*
X126819Y64088D01*
X126837Y64044D01*
X126839Y64044D01*
X126840Y64042D01*
X126925Y64009D01*
X130735Y64009D01*
X130737Y64010D01*
G37*
D10*
X76497Y41481D03*
D11*
X76497Y45710D03*
X75652Y34712D03*
D10*
X75652Y40643D03*
D12*
X75652Y42751D03*
D13*
X75652Y44872D03*
X75652Y47412D03*
D11*
X75652Y60112D03*
D14*
X75652Y63922D03*
D10*
X75652Y69421D03*
D15*
X74805Y31753D03*
D16*
X74805Y33861D03*
D17*
X74805Y35982D03*
D16*
X74805Y40643D03*
D15*
X74805Y44453D03*
X74805Y47831D03*
X74805Y57991D03*
D17*
X74805Y61382D03*
D18*
X74805Y65192D03*
D15*
X74805Y68151D03*
D18*
X74805Y70272D03*
D15*
X74805Y73231D03*
D10*
X73957Y31321D03*
D14*
X73957Y33442D03*
D19*
X73957Y38522D03*
D12*
X73957Y45291D03*
D20*
X73957Y49952D03*
D19*
X73957Y55463D03*
D13*
X73957Y60112D03*
D12*
X73957Y64773D03*
X73957Y67313D03*
D11*
X73957Y71110D03*
D10*
X73112Y31321D03*
D12*
X73112Y34293D03*
X73112Y37671D03*
D11*
X73112Y41493D03*
D10*
X73112Y45723D03*
D21*
X73112Y50803D03*
D10*
X73112Y56721D03*
D12*
X73112Y63071D03*
D11*
X73112Y66030D03*
D12*
X73112Y69853D03*
D10*
X73112Y73663D03*
D18*
X72265Y29632D03*
D15*
X72265Y31753D03*
D16*
X72265Y35563D03*
D17*
X72265Y38522D03*
D16*
X72265Y53343D03*
D15*
X72265Y65611D03*
D22*
X72265Y74082D03*
D13*
X71417Y29632D03*
D10*
X71417Y33861D03*
D12*
X71417Y39373D03*
D23*
X71417Y46573D03*
D24*
X71417Y58410D03*
D13*
X71417Y75352D03*
D14*
X70572Y30902D03*
D25*
X70572Y46561D03*
D26*
X70572Y63071D03*
D10*
X70572Y74501D03*
D15*
X69725Y32591D03*
D27*
X69725Y38953D03*
D28*
X69725Y52492D03*
D29*
X69725Y65611D03*
D30*
X69725Y72812D03*
D31*
X68877Y35563D03*
D12*
X68877Y40211D03*
D14*
X68877Y51222D03*
X68877Y53762D03*
D12*
X68877Y64773D03*
D31*
X68877Y69421D03*
D11*
X68032Y34712D03*
D12*
X68032Y39373D03*
D10*
X68032Y50803D03*
D14*
X68032Y53762D03*
D12*
X68032Y65611D03*
D11*
X68032Y70272D03*
D15*
X67185Y34293D03*
X67185Y39373D03*
D16*
X67185Y50803D03*
D15*
X67185Y54613D03*
X67185Y65611D03*
D30*
X67185Y71110D03*
D14*
X66337Y33442D03*
D12*
X66337Y39373D03*
D10*
X66337Y50803D03*
D12*
X66337Y54613D03*
X66337Y65611D03*
D14*
X66337Y71542D03*
X65492Y33442D03*
D12*
X65492Y39373D03*
X65492Y50371D03*
X65492Y54613D03*
X65492Y65611D03*
X65492Y72393D03*
D17*
X64645Y33442D03*
D15*
X64645Y39373D03*
D18*
X64645Y49952D03*
X64645Y55032D03*
D15*
X64645Y65611D03*
X64645Y72393D03*
D14*
X63797Y33442D03*
D12*
X63797Y40211D03*
D13*
X63797Y49952D03*
D12*
X63797Y55451D03*
X63797Y65611D03*
D13*
X63797Y72812D03*
D14*
X62952Y33442D03*
D12*
X62952Y40211D03*
D13*
X62952Y49952D03*
D12*
X62952Y55451D03*
X62952Y65611D03*
D13*
X62952Y72812D03*
D16*
X62105Y33861D03*
D30*
X62105Y40630D03*
D18*
X62105Y49952D03*
D16*
X62105Y55883D03*
D15*
X62105Y65611D03*
X62105Y73231D03*
D12*
X61257Y34293D03*
D14*
X61257Y41062D03*
D12*
X61257Y64773D03*
D13*
X61257Y72812D03*
D12*
X60412Y35131D03*
D14*
X60412Y41062D03*
D12*
X60412Y64773D03*
D13*
X60412Y72812D03*
D30*
X59565Y36413D03*
D15*
X59565Y41913D03*
D16*
X43309Y53165D03*
D17*
X59565Y63922D03*
D15*
X59565Y72393D03*
D32*
X58717Y39792D03*
D14*
X58717Y63922D03*
D11*
X58717Y71973D03*
D13*
X57872Y39792D03*
D11*
X57872Y42332D03*
X57872Y63490D03*
X57872Y71110D03*
D15*
X57025Y42751D03*
D33*
X57025Y66881D03*
D12*
X56177Y42751D03*
X56177Y62233D03*
D20*
X56177Y67732D03*
D14*
X55332Y43602D03*
D20*
X55332Y49952D03*
D11*
X55332Y61813D03*
D34*
X54485Y49952D03*
D17*
X54485Y61382D03*
D32*
X53637Y44872D03*
D21*
X53637Y55883D03*
D12*
X53637Y60531D03*
D20*
X52792Y42332D03*
D19*
X52792Y58842D03*
D35*
X51945Y40211D03*
X51945Y60531D03*
D11*
X51097Y38953D03*
D36*
X51097Y62233D03*
D11*
X50252Y38090D03*
X50252Y63490D03*
D28*
X49405Y29632D03*
D30*
X49405Y37252D03*
X49405Y64353D03*
D23*
X48557Y29632D03*
D11*
X48557Y36413D03*
X48557Y65192D03*
X47712Y26253D03*
D19*
X47712Y34280D03*
D14*
X47712Y66462D03*
D17*
X46865Y25822D03*
D30*
X46865Y34712D03*
D15*
X46865Y67313D03*
D12*
X46017Y24971D03*
X46017Y35131D03*
D11*
X46017Y67732D03*
D12*
X45172Y24971D03*
X45172Y34293D03*
X45172Y68151D03*
D15*
X44325Y24133D03*
X44325Y34293D03*
D37*
X44325Y41481D03*
D17*
X44325Y69002D03*
D12*
X43477Y24133D03*
D11*
X43477Y33873D03*
D36*
X43477Y40211D03*
D10*
X43477Y43183D03*
D14*
X43477Y69002D03*
D12*
X42632Y24133D03*
D14*
X42632Y33442D03*
D10*
X42632Y38941D03*
X42632Y41481D03*
X42632Y44021D03*
D12*
X42632Y69853D03*
D15*
X41785Y24133D03*
D17*
X41785Y33442D03*
D16*
X41785Y38941D03*
D30*
X41785Y43170D03*
D15*
X41785Y69853D03*
D12*
X40937Y24133D03*
D10*
X40937Y30483D03*
D14*
X40937Y33442D03*
X40937Y43602D03*
D13*
X40937Y70272D03*
D12*
X40092Y24133D03*
D14*
X40092Y33442D03*
D10*
X40092Y38941D03*
D14*
X40092Y43602D03*
D12*
X40092Y70691D03*
D18*
X39245Y24552D03*
D30*
X39245Y33010D03*
D18*
X39245Y39792D03*
D15*
X39245Y42751D03*
D37*
X39245Y60963D03*
D15*
X39245Y70691D03*
D12*
X38397Y24971D03*
D11*
X38397Y33010D03*
D36*
X38397Y59693D03*
D13*
X38397Y62652D03*
D12*
X38397Y70691D03*
X37552Y24971D03*
D38*
X37552Y33442D03*
D10*
X37552Y58423D03*
X37552Y60963D03*
X37552Y63503D03*
D11*
X37552Y71110D03*
D17*
X36705Y25822D03*
D15*
X36705Y32591D03*
D18*
X36705Y34712D03*
X36705Y57572D03*
D30*
X36705Y62652D03*
D39*
X36705Y71542D03*
D11*
X35857Y26253D03*
D12*
X35857Y32591D03*
D10*
X35857Y35563D03*
D13*
X35857Y49952D03*
D12*
X35857Y63071D03*
D21*
X35857Y71961D03*
D11*
X35012Y27092D03*
D36*
X35012Y32591D03*
D14*
X35012Y35982D03*
D12*
X35012Y49533D03*
D10*
X35012Y58423D03*
D12*
X35012Y63071D03*
D11*
X35012Y69433D03*
X35012Y74513D03*
D40*
X34165Y30902D03*
D16*
X34165Y36401D03*
X34165Y48263D03*
D18*
X34165Y49952D03*
D16*
X34165Y59261D03*
D15*
X34165Y62233D03*
D30*
X34165Y69433D03*
X34165Y75352D03*
D12*
X33317Y30051D03*
D14*
X33317Y33442D03*
D12*
X33317Y37671D03*
D13*
X33317Y47412D03*
D10*
X33317Y50803D03*
D38*
X33317Y69002D03*
D12*
X33317Y75771D03*
D14*
X32472Y33442D03*
X32472Y38522D03*
X32472Y46142D03*
X32472Y51222D03*
D13*
X32472Y67732D03*
D12*
X32472Y69853D03*
D11*
X32472Y76190D03*
D30*
X31625Y33873D03*
D41*
X31625Y42332D03*
D15*
X31625Y52073D03*
D16*
X31625Y66881D03*
D17*
X31625Y69002D03*
X31625Y76622D03*
D12*
X30777Y34293D03*
X30777Y52911D03*
D10*
X30777Y66043D03*
D14*
X30777Y69002D03*
X30777Y76622D03*
D12*
X29932Y34293D03*
X29932Y64773D03*
X29932Y68151D03*
D13*
X29932Y72304D03*
D14*
X29932Y76622D03*
D15*
X29085Y35131D03*
X29085Y55451D03*
D17*
X29085Y63922D03*
D15*
X29085Y68151D03*
D17*
X29085Y76622D03*
D12*
X28237Y35131D03*
D42*
X28237Y59693D03*
D12*
X28237Y67313D03*
D14*
X28237Y76622D03*
X27392Y35982D03*
X27392Y66462D03*
X27392Y76622D03*
D17*
X26545Y35982D03*
D30*
X26545Y66030D03*
X26545Y76190D03*
D12*
X25697Y36833D03*
X25697Y65611D03*
X25697Y75771D03*
D11*
X24852Y37252D03*
D20*
X24852Y65192D03*
D11*
X24852Y75352D03*
D15*
X24005Y37671D03*
D30*
X24005Y63490D03*
X24005Y66893D03*
X24005Y74513D03*
D14*
X23157Y38522D03*
D11*
X23157Y62652D03*
D43*
X23157Y71123D03*
D11*
X22312Y38953D03*
D13*
X22312Y42332D03*
D10*
X22312Y46561D03*
D11*
X22312Y60950D03*
D23*
X22312Y71110D03*
D30*
X21465Y39792D03*
D16*
X21465Y43183D03*
D30*
X21465Y49113D03*
D35*
X21465Y59693D03*
D30*
X21465Y71110D03*
D11*
X20617Y40630D03*
X20617Y44872D03*
D26*
X20617Y54613D03*
D20*
X19772Y42332D03*
D36*
X19772Y47831D03*
X19772Y54613D03*
D22*
X18925Y43602D03*
D39*
X18925Y51222D03*
D20*
X18077Y46565D03*
D12*
X17232Y46993D03*
D10*
X42969Y52835D03*
D44*
X110236Y108458D02*
X110236Y115824D01*
X110236Y72136D02*
X117602Y72136D01*
X153924Y72136D02*
X153924Y79502D01*
X153924Y115824D02*
X146558Y115824D01*
X117602Y115824D02*
X110236Y115824D01*
X110236Y79502D02*
X110236Y72136D01*
X146558Y72136D02*
X153924Y72136D01*
X153924Y108458D02*
X153924Y115824D01*
D45*
X147687Y126781D02*
X143708Y126781D01*
X140723Y124460D01*
X143708Y126781D02*
X140723Y129103D01*
X143708Y126781D02*
X145034Y123134D01*
X143708Y126781D02*
X145034Y130429D01*
X215011Y106553D02*
X215011Y97931D01*
X215013Y97817D01*
X215019Y97702D01*
X215029Y97588D01*
X215043Y97475D01*
X215060Y97361D01*
X215082Y97249D01*
X215107Y97137D01*
X215137Y97027D01*
X215170Y96917D01*
X215207Y96809D01*
X215247Y96702D01*
X215292Y96596D01*
X215339Y96492D01*
X215391Y96390D01*
X215446Y96290D01*
X215504Y96191D01*
X215566Y96095D01*
X215631Y96000D01*
X215699Y95909D01*
X215771Y95819D01*
X215845Y95732D01*
X215922Y95648D01*
X216003Y95566D01*
X216086Y95487D01*
X216171Y95411D01*
X216260Y95338D01*
X216350Y95269D01*
X216443Y95202D01*
X216539Y95139D01*
X216636Y95079D01*
X216736Y95022D01*
X216837Y94969D01*
X216940Y94919D01*
X217045Y94873D01*
X217151Y94830D01*
X217259Y94792D01*
X217368Y94757D01*
X217478Y94726D01*
X217589Y94698D01*
X217701Y94675D01*
X217814Y94655D01*
X217927Y94639D01*
X218041Y94627D01*
X218155Y94619D01*
X218270Y94615D01*
X218384Y94615D01*
X218499Y94619D01*
X218613Y94627D01*
X218727Y94639D01*
X218840Y94655D01*
X218953Y94675D01*
X219065Y94698D01*
X219176Y94726D01*
X219286Y94757D01*
X219395Y94792D01*
X219503Y94830D01*
X219609Y94873D01*
X219714Y94919D01*
X219817Y94969D01*
X219918Y95022D01*
X220018Y95079D01*
X220115Y95139D01*
X220211Y95202D01*
X220304Y95269D01*
X220394Y95338D01*
X220483Y95411D01*
X220568Y95487D01*
X220651Y95566D01*
X220732Y95648D01*
X220809Y95732D01*
X220883Y95819D01*
X220955Y95909D01*
X221023Y96000D01*
X221088Y96095D01*
X221150Y96191D01*
X221208Y96290D01*
X221263Y96390D01*
X221315Y96492D01*
X221362Y96596D01*
X221407Y96702D01*
X221447Y96809D01*
X221484Y96917D01*
X221517Y97027D01*
X221547Y97137D01*
X221572Y97249D01*
X221594Y97361D01*
X221611Y97475D01*
X221625Y97588D01*
X221635Y97702D01*
X221641Y97817D01*
X221643Y97931D01*
X221643Y106553D01*
X230470Y106554D02*
X230577Y106552D01*
X230683Y106546D01*
X230789Y106537D01*
X230895Y106524D01*
X231000Y106507D01*
X231105Y106486D01*
X231208Y106461D01*
X231311Y106433D01*
X231413Y106401D01*
X231513Y106366D01*
X231612Y106327D01*
X231710Y106284D01*
X231806Y106238D01*
X231901Y106189D01*
X231993Y106136D01*
X232084Y106080D01*
X232172Y106021D01*
X232259Y105959D01*
X232343Y105893D01*
X232425Y105825D01*
X232504Y105754D01*
X232581Y105680D01*
X232655Y105603D01*
X232726Y105524D01*
X232794Y105442D01*
X232860Y105358D01*
X232922Y105271D01*
X232981Y105183D01*
X233037Y105092D01*
X233090Y105000D01*
X233139Y104905D01*
X233185Y104809D01*
X233228Y104711D01*
X233267Y104612D01*
X233302Y104512D01*
X233334Y104410D01*
X233362Y104307D01*
X233387Y104204D01*
X233408Y104099D01*
X233425Y103994D01*
X233438Y103888D01*
X233447Y103782D01*
X233453Y103676D01*
X233455Y103569D01*
X230470Y106553D02*
X230349Y106551D01*
X230229Y106545D01*
X230109Y106536D01*
X229989Y106523D01*
X229870Y106506D01*
X229751Y106485D01*
X229633Y106461D01*
X229516Y106432D01*
X229400Y106401D01*
X229284Y106365D01*
X229170Y106326D01*
X229058Y106283D01*
X228946Y106237D01*
X228836Y106188D01*
X228728Y106134D01*
X228622Y106078D01*
X228517Y106018D01*
X228414Y105955D01*
X228314Y105889D01*
X228215Y105820D01*
X228119Y105747D01*
X228025Y105672D01*
X227933Y105594D01*
X227844Y105512D01*
X227757Y105428D01*
X227674Y105342D01*
X227592Y105253D01*
X227514Y105161D01*
X227439Y105067D01*
X227367Y104970D01*
X227297Y104872D01*
X227231Y104771D01*
X227168Y104668D01*
X227109Y104563D01*
X227052Y104457D01*
X226999Y104348D01*
X226950Y104239D01*
X226904Y104127D01*
X226861Y104014D01*
X226823Y103900D01*
X232460Y101247D02*
X232540Y101327D01*
X232618Y101409D01*
X232692Y101493D01*
X232764Y101581D01*
X232832Y101671D01*
X232898Y101763D01*
X232960Y101857D01*
X233018Y101953D01*
X233073Y102052D01*
X233125Y102152D01*
X233173Y102254D01*
X233218Y102358D01*
X233258Y102463D01*
X233295Y102570D01*
X233329Y102678D01*
X233358Y102787D01*
X233384Y102897D01*
X233405Y103008D01*
X233423Y103119D01*
X233437Y103231D01*
X233447Y103343D01*
X233453Y103456D01*
X233455Y103569D01*
X232459Y101247D02*
X226822Y94615D01*
X233454Y94615D01*
D46*
X95040Y235620D02*
X92040Y235620D01*
X164040Y235620D02*
X167040Y235620D01*
X167040Y163620D02*
X167040Y160620D01*
X167040Y232620D02*
X167040Y235620D01*
X95040Y160620D02*
X92040Y160620D01*
X164040Y160620D02*
X167040Y160620D01*
X92040Y160620D02*
X92040Y163620D01*
X92040Y232620D02*
X92040Y235620D01*
D47*
X74040Y226120D03*
D45*
X77181Y134161D02*
X79747Y134161D01*
X79846Y134163D01*
X79946Y134169D01*
X80045Y134178D01*
X80143Y134192D01*
X80241Y134209D01*
X80339Y134230D01*
X80435Y134255D01*
X80530Y134284D01*
X80625Y134316D01*
X80717Y134352D01*
X80809Y134391D01*
X80899Y134434D01*
X80987Y134480D01*
X81073Y134530D01*
X81157Y134583D01*
X81239Y134639D01*
X81319Y134699D01*
X81396Y134761D01*
X81471Y134827D01*
X81544Y134895D01*
X81613Y134966D01*
X81680Y135040D01*
X81744Y135116D01*
X81805Y135195D01*
X81863Y135276D01*
X81918Y135359D01*
X81969Y135444D01*
X82017Y135531D01*
X82062Y135620D01*
X82103Y135711D01*
X82141Y135803D01*
X82175Y135896D01*
X82205Y135991D01*
X82232Y136087D01*
X82255Y136184D01*
X82274Y136281D01*
X82289Y136380D01*
X82301Y136479D01*
X82309Y136578D01*
X82313Y136677D01*
X82313Y136777D01*
X82309Y136876D01*
X82301Y136975D01*
X82289Y137074D01*
X82274Y137173D01*
X82255Y137270D01*
X82232Y137367D01*
X82205Y137463D01*
X82175Y137558D01*
X82141Y137651D01*
X82103Y137743D01*
X82062Y137834D01*
X82017Y137923D01*
X81969Y138010D01*
X81918Y138095D01*
X81863Y138178D01*
X81805Y138259D01*
X81744Y138338D01*
X81680Y138414D01*
X81613Y138488D01*
X81544Y138559D01*
X81471Y138627D01*
X81396Y138693D01*
X81319Y138755D01*
X81239Y138815D01*
X81157Y138871D01*
X81073Y138924D01*
X80987Y138974D01*
X80899Y139020D01*
X80809Y139063D01*
X80717Y139102D01*
X80625Y139138D01*
X80530Y139170D01*
X80435Y139199D01*
X80339Y139224D01*
X80241Y139245D01*
X80143Y139262D01*
X80045Y139276D01*
X79946Y139285D01*
X79846Y139291D01*
X79747Y139293D01*
X80260Y143399D02*
X77181Y143399D01*
X80260Y143399D02*
X80350Y143397D01*
X80439Y143391D01*
X80528Y143381D01*
X80616Y143368D01*
X80704Y143350D01*
X80791Y143329D01*
X80877Y143304D01*
X80962Y143275D01*
X81046Y143243D01*
X81128Y143207D01*
X81208Y143167D01*
X81287Y143124D01*
X81363Y143077D01*
X81438Y143028D01*
X81510Y142975D01*
X81580Y142919D01*
X81647Y142860D01*
X81712Y142798D01*
X81774Y142733D01*
X81833Y142666D01*
X81889Y142596D01*
X81942Y142524D01*
X81991Y142449D01*
X82038Y142373D01*
X82081Y142294D01*
X82121Y142214D01*
X82157Y142132D01*
X82189Y142048D01*
X82218Y141963D01*
X82243Y141877D01*
X82264Y141790D01*
X82282Y141702D01*
X82295Y141614D01*
X82305Y141525D01*
X82311Y141436D01*
X82313Y141346D01*
X82311Y141256D01*
X82305Y141167D01*
X82295Y141078D01*
X82282Y140990D01*
X82264Y140902D01*
X82243Y140815D01*
X82218Y140729D01*
X82189Y140644D01*
X82157Y140560D01*
X82121Y140478D01*
X82081Y140398D01*
X82038Y140320D01*
X81991Y140243D01*
X81942Y140168D01*
X81889Y140096D01*
X81833Y140026D01*
X81774Y139959D01*
X81712Y139894D01*
X81647Y139832D01*
X81580Y139773D01*
X81510Y139717D01*
X81438Y139664D01*
X81363Y139615D01*
X81287Y139568D01*
X81208Y139525D01*
X81128Y139485D01*
X81046Y139449D01*
X80962Y139417D01*
X80877Y139388D01*
X80791Y139363D01*
X80704Y139342D01*
X80616Y139324D01*
X80528Y139311D01*
X80439Y139301D01*
X80350Y139295D01*
X80260Y139293D01*
X78207Y139293D01*
X89004Y143399D02*
X89097Y143397D01*
X89190Y143392D01*
X89282Y143382D01*
X89375Y143369D01*
X89466Y143352D01*
X89557Y143332D01*
X89647Y143308D01*
X89736Y143280D01*
X89823Y143249D01*
X89909Y143214D01*
X89994Y143176D01*
X90078Y143134D01*
X90159Y143090D01*
X90239Y143041D01*
X90316Y142990D01*
X90392Y142936D01*
X90465Y142878D01*
X90536Y142818D01*
X90604Y142755D01*
X90670Y142689D01*
X90733Y142621D01*
X90793Y142550D01*
X90851Y142477D01*
X90905Y142401D01*
X90956Y142324D01*
X91005Y142244D01*
X91049Y142163D01*
X91091Y142079D01*
X91129Y141994D01*
X91164Y141908D01*
X91195Y141821D01*
X91223Y141732D01*
X91247Y141642D01*
X91267Y141551D01*
X91284Y141460D01*
X91297Y141367D01*
X91307Y141275D01*
X91312Y141182D01*
X91314Y141089D01*
X89004Y143399D02*
X88897Y143397D01*
X88791Y143391D01*
X88685Y143382D01*
X88579Y143368D01*
X88474Y143351D01*
X88369Y143330D01*
X88266Y143306D01*
X88163Y143277D01*
X88061Y143245D01*
X87961Y143210D01*
X87862Y143170D01*
X87764Y143127D01*
X87668Y143081D01*
X87574Y143031D01*
X87481Y142978D01*
X87391Y142922D01*
X87302Y142862D01*
X87216Y142800D01*
X87132Y142734D01*
X87051Y142665D01*
X86972Y142594D01*
X86895Y142519D01*
X86822Y142442D01*
X86751Y142363D01*
X86683Y142280D01*
X86618Y142196D01*
X86556Y142109D01*
X86498Y142020D01*
X86442Y141929D01*
X86390Y141836D01*
X86341Y141741D01*
X86296Y141645D01*
X86254Y141546D01*
X86216Y141447D01*
X86181Y141346D01*
X90544Y139292D02*
X90612Y139360D01*
X90677Y139430D01*
X90740Y139502D01*
X90800Y139577D01*
X90857Y139654D01*
X90910Y139733D01*
X90961Y139814D01*
X91009Y139897D01*
X91053Y139981D01*
X91094Y140068D01*
X91132Y140156D01*
X91166Y140245D01*
X91197Y140336D01*
X91224Y140427D01*
X91248Y140520D01*
X91268Y140614D01*
X91285Y140708D01*
X91297Y140803D01*
X91307Y140898D01*
X91312Y140993D01*
X91314Y141089D01*
X90543Y139293D02*
X86181Y134161D01*
X91313Y134161D01*
X95181Y136727D02*
X95183Y136826D01*
X95189Y136926D01*
X95198Y137025D01*
X95212Y137123D01*
X95229Y137221D01*
X95250Y137319D01*
X95275Y137415D01*
X95304Y137510D01*
X95336Y137605D01*
X95372Y137697D01*
X95411Y137789D01*
X95454Y137879D01*
X95500Y137967D01*
X95550Y138053D01*
X95603Y138137D01*
X95659Y138219D01*
X95719Y138299D01*
X95781Y138376D01*
X95847Y138451D01*
X95915Y138524D01*
X95986Y138593D01*
X96060Y138660D01*
X96136Y138724D01*
X96215Y138785D01*
X96296Y138843D01*
X96379Y138898D01*
X96464Y138949D01*
X96551Y138997D01*
X96640Y139042D01*
X96731Y139083D01*
X96823Y139121D01*
X96916Y139155D01*
X97011Y139185D01*
X97107Y139212D01*
X97204Y139235D01*
X97301Y139254D01*
X97400Y139269D01*
X97499Y139281D01*
X97598Y139289D01*
X97697Y139293D01*
X97797Y139293D01*
X97896Y139289D01*
X97995Y139281D01*
X98094Y139269D01*
X98193Y139254D01*
X98290Y139235D01*
X98387Y139212D01*
X98483Y139185D01*
X98578Y139155D01*
X98671Y139121D01*
X98763Y139083D01*
X98854Y139042D01*
X98943Y138997D01*
X99030Y138949D01*
X99115Y138898D01*
X99198Y138843D01*
X99279Y138785D01*
X99358Y138724D01*
X99434Y138660D01*
X99508Y138593D01*
X99579Y138524D01*
X99647Y138451D01*
X99713Y138376D01*
X99775Y138299D01*
X99835Y138219D01*
X99891Y138137D01*
X99944Y138053D01*
X99994Y137967D01*
X100040Y137879D01*
X100083Y137789D01*
X100122Y137697D01*
X100158Y137605D01*
X100190Y137510D01*
X100219Y137415D01*
X100244Y137319D01*
X100265Y137221D01*
X100282Y137123D01*
X100296Y137025D01*
X100305Y136926D01*
X100311Y136826D01*
X100313Y136727D01*
X100311Y136628D01*
X100305Y136528D01*
X100296Y136429D01*
X100282Y136331D01*
X100265Y136233D01*
X100244Y136135D01*
X100219Y136039D01*
X100190Y135944D01*
X100158Y135849D01*
X100122Y135757D01*
X100083Y135665D01*
X100040Y135575D01*
X99994Y135487D01*
X99944Y135401D01*
X99891Y135317D01*
X99835Y135235D01*
X99775Y135155D01*
X99713Y135078D01*
X99647Y135003D01*
X99579Y134930D01*
X99508Y134861D01*
X99434Y134794D01*
X99358Y134730D01*
X99279Y134669D01*
X99198Y134611D01*
X99115Y134556D01*
X99030Y134505D01*
X98943Y134457D01*
X98854Y134412D01*
X98763Y134371D01*
X98671Y134333D01*
X98578Y134299D01*
X98483Y134269D01*
X98387Y134242D01*
X98290Y134219D01*
X98193Y134200D01*
X98094Y134185D01*
X97995Y134173D01*
X97896Y134165D01*
X97797Y134161D01*
X97697Y134161D01*
X97598Y134165D01*
X97499Y134173D01*
X97400Y134185D01*
X97301Y134200D01*
X97204Y134219D01*
X97107Y134242D01*
X97011Y134269D01*
X96916Y134299D01*
X96823Y134333D01*
X96731Y134371D01*
X96640Y134412D01*
X96551Y134457D01*
X96464Y134505D01*
X96379Y134556D01*
X96296Y134611D01*
X96215Y134669D01*
X96136Y134730D01*
X96060Y134794D01*
X95986Y134861D01*
X95915Y134930D01*
X95847Y135003D01*
X95781Y135078D01*
X95719Y135155D01*
X95659Y135235D01*
X95603Y135317D01*
X95550Y135401D01*
X95500Y135487D01*
X95454Y135575D01*
X95411Y135665D01*
X95372Y135757D01*
X95336Y135849D01*
X95304Y135944D01*
X95275Y136039D01*
X95250Y136135D01*
X95229Y136233D01*
X95212Y136331D01*
X95198Y136429D01*
X95189Y136528D01*
X95183Y136628D01*
X95181Y136727D01*
X95694Y141346D02*
X95696Y141436D01*
X95702Y141525D01*
X95712Y141614D01*
X95725Y141702D01*
X95743Y141790D01*
X95764Y141877D01*
X95789Y141963D01*
X95818Y142048D01*
X95850Y142132D01*
X95886Y142214D01*
X95926Y142294D01*
X95969Y142373D01*
X96016Y142449D01*
X96065Y142524D01*
X96118Y142596D01*
X96174Y142666D01*
X96233Y142733D01*
X96295Y142798D01*
X96360Y142860D01*
X96427Y142919D01*
X96497Y142975D01*
X96569Y143028D01*
X96644Y143077D01*
X96721Y143124D01*
X96799Y143167D01*
X96879Y143207D01*
X96961Y143243D01*
X97045Y143275D01*
X97130Y143304D01*
X97216Y143329D01*
X97303Y143350D01*
X97391Y143368D01*
X97479Y143381D01*
X97568Y143391D01*
X97657Y143397D01*
X97747Y143399D01*
X97837Y143397D01*
X97926Y143391D01*
X98015Y143381D01*
X98103Y143368D01*
X98191Y143350D01*
X98278Y143329D01*
X98364Y143304D01*
X98449Y143275D01*
X98533Y143243D01*
X98615Y143207D01*
X98695Y143167D01*
X98774Y143124D01*
X98850Y143077D01*
X98925Y143028D01*
X98997Y142975D01*
X99067Y142919D01*
X99134Y142860D01*
X99199Y142798D01*
X99261Y142733D01*
X99320Y142666D01*
X99376Y142596D01*
X99429Y142524D01*
X99478Y142449D01*
X99525Y142373D01*
X99568Y142294D01*
X99608Y142214D01*
X99644Y142132D01*
X99676Y142048D01*
X99705Y141963D01*
X99730Y141877D01*
X99751Y141790D01*
X99769Y141702D01*
X99782Y141614D01*
X99792Y141525D01*
X99798Y141436D01*
X99800Y141346D01*
X99798Y141256D01*
X99792Y141167D01*
X99782Y141078D01*
X99769Y140990D01*
X99751Y140902D01*
X99730Y140815D01*
X99705Y140729D01*
X99676Y140644D01*
X99644Y140560D01*
X99608Y140478D01*
X99568Y140398D01*
X99525Y140320D01*
X99478Y140243D01*
X99429Y140168D01*
X99376Y140096D01*
X99320Y140026D01*
X99261Y139959D01*
X99199Y139894D01*
X99134Y139832D01*
X99067Y139773D01*
X98997Y139717D01*
X98925Y139664D01*
X98850Y139615D01*
X98774Y139568D01*
X98695Y139525D01*
X98615Y139485D01*
X98533Y139449D01*
X98449Y139417D01*
X98364Y139388D01*
X98278Y139363D01*
X98191Y139342D01*
X98103Y139324D01*
X98015Y139311D01*
X97926Y139301D01*
X97837Y139295D01*
X97747Y139293D01*
X97657Y139295D01*
X97568Y139301D01*
X97479Y139311D01*
X97391Y139324D01*
X97303Y139342D01*
X97216Y139363D01*
X97130Y139388D01*
X97045Y139417D01*
X96961Y139449D01*
X96879Y139485D01*
X96799Y139525D01*
X96721Y139568D01*
X96644Y139615D01*
X96569Y139664D01*
X96497Y139717D01*
X96427Y139773D01*
X96360Y139832D01*
X96295Y139894D01*
X96233Y139959D01*
X96174Y140026D01*
X96118Y140096D01*
X96065Y140168D01*
X96016Y140243D01*
X95969Y140320D01*
X95926Y140398D01*
X95886Y140478D01*
X95850Y140560D01*
X95818Y140644D01*
X95789Y140729D01*
X95764Y140815D01*
X95743Y140902D01*
X95725Y140990D01*
X95712Y141078D01*
X95702Y141167D01*
X95696Y141256D01*
X95694Y141346D01*
X104611Y143399D02*
X104611Y134161D01*
X104611Y143399D02*
X107177Y143399D01*
X107276Y143397D01*
X107376Y143391D01*
X107475Y143382D01*
X107573Y143368D01*
X107671Y143351D01*
X107769Y143330D01*
X107865Y143305D01*
X107960Y143276D01*
X108055Y143244D01*
X108147Y143208D01*
X108239Y143169D01*
X108329Y143126D01*
X108417Y143080D01*
X108503Y143030D01*
X108587Y142977D01*
X108669Y142921D01*
X108749Y142861D01*
X108826Y142799D01*
X108901Y142733D01*
X108974Y142665D01*
X109043Y142594D01*
X109110Y142520D01*
X109174Y142444D01*
X109235Y142365D01*
X109293Y142284D01*
X109348Y142201D01*
X109399Y142116D01*
X109447Y142029D01*
X109492Y141940D01*
X109533Y141849D01*
X109571Y141757D01*
X109605Y141664D01*
X109635Y141569D01*
X109662Y141473D01*
X109685Y141376D01*
X109704Y141279D01*
X109719Y141180D01*
X109731Y141081D01*
X109739Y140982D01*
X109743Y140883D01*
X109743Y140783D01*
X109739Y140684D01*
X109731Y140585D01*
X109719Y140486D01*
X109704Y140387D01*
X109685Y140290D01*
X109662Y140193D01*
X109635Y140097D01*
X109605Y140002D01*
X109571Y139909D01*
X109533Y139817D01*
X109492Y139726D01*
X109447Y139637D01*
X109399Y139550D01*
X109348Y139465D01*
X109293Y139382D01*
X109235Y139301D01*
X109174Y139222D01*
X109110Y139146D01*
X109043Y139072D01*
X108974Y139001D01*
X108901Y138933D01*
X108826Y138867D01*
X108749Y138805D01*
X108669Y138745D01*
X108587Y138689D01*
X108503Y138636D01*
X108417Y138586D01*
X108329Y138540D01*
X108239Y138497D01*
X108147Y138458D01*
X108055Y138422D01*
X107960Y138390D01*
X107865Y138361D01*
X107769Y138336D01*
X107671Y138315D01*
X107573Y138298D01*
X107475Y138284D01*
X107376Y138275D01*
X107276Y138269D01*
X107177Y138267D01*
X104611Y138267D01*
X113611Y139293D02*
X116177Y139293D01*
X116276Y139291D01*
X116376Y139285D01*
X116475Y139276D01*
X116573Y139262D01*
X116671Y139245D01*
X116769Y139224D01*
X116865Y139199D01*
X116960Y139170D01*
X117055Y139138D01*
X117147Y139102D01*
X117239Y139063D01*
X117329Y139020D01*
X117417Y138974D01*
X117503Y138924D01*
X117587Y138871D01*
X117669Y138815D01*
X117749Y138755D01*
X117826Y138693D01*
X117901Y138627D01*
X117974Y138559D01*
X118043Y138488D01*
X118110Y138414D01*
X118174Y138338D01*
X118235Y138259D01*
X118293Y138178D01*
X118348Y138095D01*
X118399Y138010D01*
X118447Y137923D01*
X118492Y137834D01*
X118533Y137743D01*
X118571Y137651D01*
X118605Y137558D01*
X118635Y137463D01*
X118662Y137367D01*
X118685Y137270D01*
X118704Y137173D01*
X118719Y137074D01*
X118731Y136975D01*
X118739Y136876D01*
X118743Y136777D01*
X118743Y136677D01*
X118739Y136578D01*
X118731Y136479D01*
X118719Y136380D01*
X118704Y136281D01*
X118685Y136184D01*
X118662Y136087D01*
X118635Y135991D01*
X118605Y135896D01*
X118571Y135803D01*
X118533Y135711D01*
X118492Y135620D01*
X118447Y135531D01*
X118399Y135444D01*
X118348Y135359D01*
X118293Y135276D01*
X118235Y135195D01*
X118174Y135116D01*
X118110Y135040D01*
X118043Y134966D01*
X117974Y134895D01*
X117901Y134827D01*
X117826Y134761D01*
X117749Y134699D01*
X117669Y134639D01*
X117587Y134583D01*
X117503Y134530D01*
X117417Y134480D01*
X117329Y134434D01*
X117239Y134391D01*
X117147Y134352D01*
X117055Y134316D01*
X116960Y134284D01*
X116865Y134255D01*
X116769Y134230D01*
X116671Y134209D01*
X116573Y134192D01*
X116475Y134178D01*
X116376Y134169D01*
X116276Y134163D01*
X116177Y134161D01*
X113611Y134161D01*
X113611Y143399D01*
X116177Y143399D01*
X116267Y143397D01*
X116356Y143391D01*
X116445Y143381D01*
X116533Y143368D01*
X116621Y143350D01*
X116708Y143329D01*
X116794Y143304D01*
X116879Y143275D01*
X116963Y143243D01*
X117045Y143207D01*
X117125Y143167D01*
X117204Y143124D01*
X117280Y143077D01*
X117355Y143028D01*
X117427Y142975D01*
X117497Y142919D01*
X117564Y142860D01*
X117629Y142798D01*
X117691Y142733D01*
X117750Y142666D01*
X117806Y142596D01*
X117859Y142524D01*
X117908Y142449D01*
X117955Y142373D01*
X117998Y142294D01*
X118038Y142214D01*
X118074Y142132D01*
X118106Y142048D01*
X118135Y141963D01*
X118160Y141877D01*
X118181Y141790D01*
X118199Y141702D01*
X118212Y141614D01*
X118222Y141525D01*
X118228Y141436D01*
X118230Y141346D01*
X118228Y141256D01*
X118222Y141167D01*
X118212Y141078D01*
X118199Y140990D01*
X118181Y140902D01*
X118160Y140815D01*
X118135Y140729D01*
X118106Y140644D01*
X118074Y140560D01*
X118038Y140478D01*
X117998Y140398D01*
X117955Y140320D01*
X117908Y140243D01*
X117859Y140168D01*
X117806Y140096D01*
X117750Y140026D01*
X117691Y139959D01*
X117629Y139894D01*
X117564Y139832D01*
X117497Y139773D01*
X117427Y139717D01*
X117355Y139664D01*
X117280Y139615D01*
X117204Y139568D01*
X117125Y139525D01*
X117045Y139485D01*
X116963Y139449D01*
X116879Y139417D01*
X116794Y139388D01*
X116708Y139363D01*
X116621Y139342D01*
X116533Y139324D01*
X116445Y139311D01*
X116356Y139301D01*
X116267Y139295D01*
X116177Y139293D01*
X189341Y85611D02*
X191429Y85611D01*
X189341Y85611D02*
X189252Y85613D01*
X189164Y85619D01*
X189076Y85628D01*
X188988Y85641D01*
X188901Y85658D01*
X188815Y85678D01*
X188730Y85703D01*
X188645Y85730D01*
X188562Y85762D01*
X188481Y85796D01*
X188401Y85835D01*
X188323Y85876D01*
X188246Y85921D01*
X188172Y85969D01*
X188099Y86020D01*
X188029Y86074D01*
X187962Y86132D01*
X187896Y86192D01*
X187834Y86254D01*
X187774Y86320D01*
X187716Y86387D01*
X187662Y86457D01*
X187611Y86530D01*
X187563Y86604D01*
X187518Y86681D01*
X187477Y86759D01*
X187438Y86839D01*
X187404Y86920D01*
X187372Y87003D01*
X187345Y87088D01*
X187320Y87173D01*
X187300Y87259D01*
X187283Y87346D01*
X187270Y87434D01*
X187261Y87522D01*
X187255Y87610D01*
X187253Y87699D01*
X187252Y87699D02*
X187252Y92921D01*
X187253Y92921D02*
X187255Y93012D01*
X187261Y93103D01*
X187271Y93194D01*
X187285Y93284D01*
X187302Y93373D01*
X187324Y93461D01*
X187350Y93549D01*
X187379Y93635D01*
X187412Y93720D01*
X187449Y93803D01*
X187489Y93885D01*
X187533Y93965D01*
X187580Y94043D01*
X187631Y94119D01*
X187684Y94192D01*
X187741Y94263D01*
X187802Y94332D01*
X187865Y94397D01*
X187930Y94460D01*
X187999Y94520D01*
X188070Y94578D01*
X188143Y94631D01*
X188219Y94682D01*
X188297Y94729D01*
X188377Y94773D01*
X188459Y94813D01*
X188542Y94850D01*
X188627Y94883D01*
X188713Y94912D01*
X188801Y94938D01*
X188889Y94960D01*
X188978Y94977D01*
X189068Y94991D01*
X189159Y95001D01*
X189250Y95007D01*
X189341Y95009D01*
X191429Y95009D01*
X194897Y88222D02*
X194899Y88323D01*
X194905Y88424D01*
X194915Y88525D01*
X194928Y88625D01*
X194946Y88725D01*
X194967Y88824D01*
X194993Y88922D01*
X195022Y89019D01*
X195054Y89115D01*
X195091Y89209D01*
X195131Y89302D01*
X195175Y89394D01*
X195222Y89483D01*
X195273Y89571D01*
X195327Y89657D01*
X195384Y89740D01*
X195444Y89822D01*
X195508Y89900D01*
X195574Y89977D01*
X195644Y90050D01*
X195716Y90121D01*
X195791Y90189D01*
X195869Y90254D01*
X195949Y90316D01*
X196031Y90375D01*
X196116Y90431D01*
X196203Y90483D01*
X196291Y90532D01*
X196382Y90578D01*
X196474Y90619D01*
X196568Y90658D01*
X196663Y90692D01*
X196759Y90723D01*
X196857Y90750D01*
X196955Y90774D01*
X197055Y90793D01*
X197155Y90809D01*
X197255Y90821D01*
X197356Y90829D01*
X197457Y90833D01*
X197559Y90833D01*
X197660Y90829D01*
X197761Y90821D01*
X197861Y90809D01*
X197961Y90793D01*
X198061Y90774D01*
X198159Y90750D01*
X198257Y90723D01*
X198353Y90692D01*
X198448Y90658D01*
X198542Y90619D01*
X198634Y90578D01*
X198725Y90532D01*
X198814Y90483D01*
X198900Y90431D01*
X198985Y90375D01*
X199067Y90316D01*
X199147Y90254D01*
X199225Y90189D01*
X199300Y90121D01*
X199372Y90050D01*
X199442Y89977D01*
X199508Y89900D01*
X199572Y89822D01*
X199632Y89740D01*
X199689Y89657D01*
X199743Y89571D01*
X199794Y89483D01*
X199841Y89394D01*
X199885Y89302D01*
X199925Y89209D01*
X199962Y89115D01*
X199994Y89019D01*
X200023Y88922D01*
X200049Y88824D01*
X200070Y88725D01*
X200088Y88625D01*
X200101Y88525D01*
X200111Y88424D01*
X200117Y88323D01*
X200119Y88222D01*
X200117Y88121D01*
X200111Y88020D01*
X200101Y87919D01*
X200088Y87819D01*
X200070Y87719D01*
X200049Y87620D01*
X200023Y87522D01*
X199994Y87425D01*
X199962Y87329D01*
X199925Y87235D01*
X199885Y87142D01*
X199841Y87050D01*
X199794Y86961D01*
X199743Y86873D01*
X199689Y86787D01*
X199632Y86704D01*
X199572Y86622D01*
X199508Y86544D01*
X199442Y86467D01*
X199372Y86394D01*
X199300Y86323D01*
X199225Y86255D01*
X199147Y86190D01*
X199067Y86128D01*
X198985Y86069D01*
X198900Y86013D01*
X198813Y85961D01*
X198725Y85912D01*
X198634Y85866D01*
X198542Y85825D01*
X198448Y85786D01*
X198353Y85752D01*
X198257Y85721D01*
X198159Y85694D01*
X198061Y85670D01*
X197961Y85651D01*
X197861Y85635D01*
X197761Y85623D01*
X197660Y85615D01*
X197559Y85611D01*
X197457Y85611D01*
X197356Y85615D01*
X197255Y85623D01*
X197155Y85635D01*
X197055Y85651D01*
X196955Y85670D01*
X196857Y85694D01*
X196759Y85721D01*
X196663Y85752D01*
X196568Y85786D01*
X196474Y85825D01*
X196382Y85866D01*
X196291Y85912D01*
X196203Y85961D01*
X196116Y86013D01*
X196031Y86069D01*
X195949Y86128D01*
X195869Y86190D01*
X195791Y86255D01*
X195716Y86323D01*
X195644Y86394D01*
X195574Y86467D01*
X195508Y86544D01*
X195444Y86622D01*
X195384Y86704D01*
X195327Y86787D01*
X195273Y86873D01*
X195222Y86961D01*
X195175Y87050D01*
X195131Y87142D01*
X195091Y87235D01*
X195054Y87329D01*
X195022Y87425D01*
X194993Y87522D01*
X194967Y87620D01*
X194946Y87719D01*
X194928Y87819D01*
X194915Y87919D01*
X194905Y88020D01*
X194899Y88121D01*
X194897Y88222D01*
X195420Y92921D02*
X195422Y93011D01*
X195428Y93100D01*
X195437Y93190D01*
X195451Y93279D01*
X195468Y93367D01*
X195489Y93454D01*
X195514Y93541D01*
X195543Y93626D01*
X195575Y93710D01*
X195610Y93792D01*
X195650Y93873D01*
X195692Y93952D01*
X195738Y94029D01*
X195788Y94104D01*
X195840Y94177D01*
X195896Y94248D01*
X195954Y94316D01*
X196016Y94381D01*
X196080Y94444D01*
X196147Y94504D01*
X196216Y94561D01*
X196288Y94615D01*
X196362Y94666D01*
X196438Y94714D01*
X196516Y94758D01*
X196596Y94799D01*
X196678Y94837D01*
X196761Y94871D01*
X196846Y94901D01*
X196932Y94928D01*
X197018Y94951D01*
X197106Y94970D01*
X197195Y94985D01*
X197284Y94997D01*
X197373Y95005D01*
X197463Y95009D01*
X197553Y95009D01*
X197643Y95005D01*
X197732Y94997D01*
X197821Y94985D01*
X197910Y94970D01*
X197998Y94951D01*
X198084Y94928D01*
X198170Y94901D01*
X198255Y94871D01*
X198338Y94837D01*
X198420Y94799D01*
X198500Y94758D01*
X198578Y94714D01*
X198654Y94666D01*
X198728Y94615D01*
X198800Y94561D01*
X198869Y94504D01*
X198936Y94444D01*
X199000Y94381D01*
X199062Y94316D01*
X199120Y94248D01*
X199176Y94177D01*
X199228Y94104D01*
X199278Y94029D01*
X199324Y93952D01*
X199366Y93873D01*
X199406Y93792D01*
X199441Y93710D01*
X199473Y93626D01*
X199502Y93541D01*
X199527Y93454D01*
X199548Y93367D01*
X199565Y93279D01*
X199579Y93190D01*
X199588Y93100D01*
X199594Y93011D01*
X199596Y92921D01*
X199594Y92831D01*
X199588Y92742D01*
X199579Y92652D01*
X199565Y92563D01*
X199548Y92475D01*
X199527Y92388D01*
X199502Y92301D01*
X199473Y92216D01*
X199441Y92132D01*
X199406Y92050D01*
X199366Y91969D01*
X199324Y91890D01*
X199278Y91813D01*
X199228Y91738D01*
X199176Y91665D01*
X199120Y91594D01*
X199062Y91526D01*
X199000Y91461D01*
X198936Y91398D01*
X198869Y91338D01*
X198800Y91281D01*
X198728Y91227D01*
X198654Y91176D01*
X198578Y91128D01*
X198500Y91084D01*
X198420Y91043D01*
X198338Y91005D01*
X198255Y90971D01*
X198170Y90941D01*
X198084Y90914D01*
X197998Y90891D01*
X197910Y90872D01*
X197821Y90857D01*
X197732Y90845D01*
X197643Y90837D01*
X197553Y90833D01*
X197463Y90833D01*
X197373Y90837D01*
X197284Y90845D01*
X197195Y90857D01*
X197106Y90872D01*
X197018Y90891D01*
X196932Y90914D01*
X196846Y90941D01*
X196761Y90971D01*
X196678Y91005D01*
X196596Y91043D01*
X196516Y91084D01*
X196438Y91128D01*
X196362Y91176D01*
X196288Y91227D01*
X196216Y91281D01*
X196147Y91338D01*
X196080Y91398D01*
X196016Y91461D01*
X195954Y91526D01*
X195896Y91594D01*
X195840Y91665D01*
X195788Y91738D01*
X195738Y91813D01*
X195692Y91890D01*
X195650Y91969D01*
X195610Y92050D01*
X195575Y92132D01*
X195543Y92216D01*
X195514Y92301D01*
X195489Y92388D01*
X195468Y92475D01*
X195451Y92563D01*
X195437Y92652D01*
X195428Y92742D01*
X195422Y92831D01*
X195420Y92921D01*
X171088Y76441D02*
X168999Y76441D01*
X168910Y76443D01*
X168822Y76449D01*
X168734Y76458D01*
X168646Y76471D01*
X168559Y76488D01*
X168473Y76508D01*
X168388Y76533D01*
X168303Y76560D01*
X168220Y76592D01*
X168139Y76626D01*
X168059Y76665D01*
X167981Y76706D01*
X167904Y76751D01*
X167830Y76799D01*
X167757Y76850D01*
X167687Y76904D01*
X167620Y76962D01*
X167554Y77022D01*
X167492Y77084D01*
X167432Y77150D01*
X167374Y77217D01*
X167320Y77287D01*
X167269Y77360D01*
X167221Y77434D01*
X167176Y77511D01*
X167135Y77589D01*
X167096Y77669D01*
X167062Y77750D01*
X167030Y77833D01*
X167003Y77918D01*
X166978Y78003D01*
X166958Y78089D01*
X166941Y78176D01*
X166928Y78264D01*
X166919Y78352D01*
X166913Y78440D01*
X166911Y78529D01*
X166911Y83751D01*
X166913Y83842D01*
X166919Y83933D01*
X166929Y84024D01*
X166943Y84114D01*
X166960Y84203D01*
X166982Y84291D01*
X167008Y84379D01*
X167037Y84465D01*
X167070Y84550D01*
X167107Y84633D01*
X167147Y84715D01*
X167191Y84795D01*
X167238Y84873D01*
X167289Y84949D01*
X167342Y85022D01*
X167399Y85093D01*
X167460Y85162D01*
X167523Y85227D01*
X167588Y85290D01*
X167657Y85350D01*
X167728Y85408D01*
X167801Y85461D01*
X167877Y85512D01*
X167955Y85559D01*
X168035Y85603D01*
X168117Y85643D01*
X168200Y85680D01*
X168285Y85713D01*
X168371Y85742D01*
X168459Y85768D01*
X168547Y85790D01*
X168636Y85807D01*
X168726Y85821D01*
X168817Y85831D01*
X168908Y85837D01*
X168999Y85839D01*
X171088Y85839D01*
X174557Y85839D02*
X174557Y84795D01*
X174557Y85839D02*
X179778Y85839D01*
X177167Y76441D01*
X118859Y56174D02*
X118859Y54086D01*
X118857Y53997D01*
X118851Y53909D01*
X118842Y53821D01*
X118829Y53733D01*
X118812Y53646D01*
X118792Y53560D01*
X118767Y53475D01*
X118740Y53390D01*
X118708Y53307D01*
X118674Y53226D01*
X118635Y53146D01*
X118594Y53068D01*
X118549Y52991D01*
X118501Y52917D01*
X118450Y52844D01*
X118396Y52774D01*
X118338Y52707D01*
X118278Y52641D01*
X118216Y52579D01*
X118150Y52519D01*
X118083Y52461D01*
X118013Y52407D01*
X117940Y52356D01*
X117866Y52308D01*
X117789Y52263D01*
X117711Y52222D01*
X117631Y52183D01*
X117550Y52149D01*
X117467Y52117D01*
X117382Y52090D01*
X117297Y52065D01*
X117211Y52045D01*
X117124Y52028D01*
X117036Y52015D01*
X116948Y52006D01*
X116860Y52000D01*
X116771Y51998D01*
X116771Y51997D02*
X111549Y51997D01*
X111458Y51999D01*
X111367Y52005D01*
X111276Y52015D01*
X111186Y52029D01*
X111097Y52047D01*
X111008Y52068D01*
X110921Y52094D01*
X110835Y52123D01*
X110750Y52156D01*
X110666Y52193D01*
X110584Y52233D01*
X110505Y52277D01*
X110427Y52324D01*
X110351Y52375D01*
X110277Y52429D01*
X110206Y52486D01*
X110138Y52546D01*
X110072Y52609D01*
X110009Y52675D01*
X109949Y52743D01*
X109892Y52814D01*
X109838Y52888D01*
X109787Y52964D01*
X109740Y53041D01*
X109696Y53121D01*
X109656Y53203D01*
X109619Y53287D01*
X109586Y53371D01*
X109557Y53458D01*
X109531Y53545D01*
X109510Y53634D01*
X109492Y53723D01*
X109478Y53813D01*
X109468Y53904D01*
X109462Y53995D01*
X109460Y54086D01*
X109461Y54086D02*
X109461Y56174D01*
X109461Y62515D02*
X109463Y62610D01*
X109469Y62704D01*
X109478Y62798D01*
X109491Y62892D01*
X109508Y62985D01*
X109529Y63077D01*
X109554Y63169D01*
X109582Y63259D01*
X109614Y63348D01*
X109649Y63436D01*
X109688Y63522D01*
X109730Y63607D01*
X109776Y63690D01*
X109825Y63771D01*
X109877Y63850D01*
X109932Y63927D01*
X109991Y64001D01*
X110052Y64073D01*
X110116Y64143D01*
X110183Y64210D01*
X110253Y64274D01*
X110325Y64335D01*
X110399Y64394D01*
X110476Y64449D01*
X110555Y64501D01*
X110636Y64550D01*
X110719Y64596D01*
X110804Y64638D01*
X110890Y64677D01*
X110978Y64712D01*
X111067Y64744D01*
X111157Y64772D01*
X111249Y64797D01*
X111341Y64818D01*
X111434Y64835D01*
X111528Y64848D01*
X111622Y64857D01*
X111716Y64863D01*
X111811Y64865D01*
X109461Y62515D02*
X109463Y62407D01*
X109469Y62298D01*
X109479Y62190D01*
X109492Y62083D01*
X109510Y61976D01*
X109531Y61869D01*
X109556Y61764D01*
X109585Y61659D01*
X109617Y61556D01*
X109654Y61454D01*
X109694Y61353D01*
X109737Y61254D01*
X109784Y61156D01*
X109835Y61060D01*
X109889Y60966D01*
X109946Y60874D01*
X110007Y60784D01*
X110071Y60696D01*
X110137Y60611D01*
X110207Y60528D01*
X110280Y60448D01*
X110356Y60370D01*
X110434Y60295D01*
X110515Y60223D01*
X110599Y60154D01*
X110685Y60088D01*
X110773Y60025D01*
X110864Y59966D01*
X110956Y59909D01*
X111051Y59856D01*
X111148Y59807D01*
X111246Y59761D01*
X111345Y59718D01*
X111447Y59679D01*
X111549Y59644D01*
X113639Y64081D02*
X113570Y64150D01*
X113499Y64216D01*
X113426Y64280D01*
X113350Y64341D01*
X113271Y64399D01*
X113191Y64453D01*
X113108Y64505D01*
X113024Y64553D01*
X112938Y64599D01*
X112850Y64640D01*
X112760Y64679D01*
X112669Y64714D01*
X112577Y64745D01*
X112484Y64773D01*
X112390Y64797D01*
X112295Y64817D01*
X112199Y64834D01*
X112102Y64847D01*
X112005Y64856D01*
X111908Y64862D01*
X111811Y64864D01*
X113638Y64081D02*
X118859Y59643D01*
X118859Y64864D01*
X61889Y164351D02*
X59801Y164351D01*
X59712Y164353D01*
X59624Y164359D01*
X59536Y164368D01*
X59448Y164381D01*
X59361Y164398D01*
X59275Y164418D01*
X59190Y164443D01*
X59105Y164470D01*
X59022Y164502D01*
X58941Y164536D01*
X58861Y164575D01*
X58783Y164616D01*
X58706Y164661D01*
X58632Y164709D01*
X58559Y164760D01*
X58489Y164814D01*
X58422Y164872D01*
X58356Y164932D01*
X58294Y164994D01*
X58234Y165060D01*
X58176Y165127D01*
X58122Y165197D01*
X58071Y165270D01*
X58023Y165344D01*
X57978Y165421D01*
X57937Y165499D01*
X57898Y165579D01*
X57864Y165660D01*
X57832Y165743D01*
X57805Y165828D01*
X57780Y165913D01*
X57760Y165999D01*
X57743Y166086D01*
X57730Y166174D01*
X57721Y166262D01*
X57715Y166350D01*
X57713Y166439D01*
X57712Y166439D02*
X57712Y171661D01*
X57713Y171661D02*
X57715Y171752D01*
X57721Y171843D01*
X57731Y171934D01*
X57745Y172024D01*
X57762Y172113D01*
X57784Y172201D01*
X57810Y172289D01*
X57839Y172375D01*
X57872Y172460D01*
X57909Y172543D01*
X57949Y172625D01*
X57993Y172705D01*
X58040Y172783D01*
X58091Y172859D01*
X58144Y172932D01*
X58201Y173003D01*
X58262Y173072D01*
X58325Y173137D01*
X58390Y173200D01*
X58459Y173260D01*
X58530Y173318D01*
X58603Y173371D01*
X58679Y173422D01*
X58757Y173469D01*
X58837Y173513D01*
X58919Y173553D01*
X59002Y173590D01*
X59087Y173623D01*
X59173Y173652D01*
X59261Y173678D01*
X59349Y173700D01*
X59438Y173717D01*
X59528Y173731D01*
X59619Y173741D01*
X59710Y173747D01*
X59801Y173749D01*
X61889Y173749D01*
X65358Y164351D02*
X67968Y164351D01*
X68069Y164353D01*
X68170Y164359D01*
X68271Y164369D01*
X68371Y164382D01*
X68471Y164400D01*
X68570Y164421D01*
X68668Y164447D01*
X68765Y164476D01*
X68861Y164508D01*
X68955Y164545D01*
X69048Y164585D01*
X69140Y164629D01*
X69229Y164676D01*
X69317Y164727D01*
X69403Y164781D01*
X69486Y164838D01*
X69568Y164898D01*
X69646Y164962D01*
X69723Y165028D01*
X69796Y165098D01*
X69867Y165170D01*
X69935Y165245D01*
X70000Y165323D01*
X70062Y165403D01*
X70121Y165485D01*
X70177Y165570D01*
X70229Y165656D01*
X70278Y165745D01*
X70324Y165836D01*
X70365Y165928D01*
X70404Y166022D01*
X70438Y166117D01*
X70469Y166213D01*
X70496Y166311D01*
X70520Y166409D01*
X70539Y166509D01*
X70555Y166609D01*
X70567Y166709D01*
X70575Y166810D01*
X70579Y166911D01*
X70579Y167013D01*
X70575Y167114D01*
X70567Y167215D01*
X70555Y167315D01*
X70539Y167415D01*
X70520Y167515D01*
X70496Y167613D01*
X70469Y167711D01*
X70438Y167807D01*
X70404Y167902D01*
X70365Y167996D01*
X70324Y168088D01*
X70278Y168179D01*
X70229Y168267D01*
X70177Y168354D01*
X70121Y168439D01*
X70062Y168521D01*
X70000Y168601D01*
X69935Y168679D01*
X69867Y168754D01*
X69796Y168826D01*
X69723Y168896D01*
X69646Y168962D01*
X69568Y169026D01*
X69486Y169086D01*
X69403Y169143D01*
X69317Y169197D01*
X69229Y169248D01*
X69140Y169295D01*
X69048Y169339D01*
X68955Y169379D01*
X68861Y169416D01*
X68765Y169448D01*
X68668Y169477D01*
X68570Y169503D01*
X68471Y169524D01*
X68371Y169542D01*
X68271Y169555D01*
X68170Y169565D01*
X68069Y169571D01*
X67968Y169573D01*
X68491Y173749D02*
X65358Y173749D01*
X68491Y173749D02*
X68581Y173747D01*
X68670Y173741D01*
X68760Y173732D01*
X68849Y173718D01*
X68937Y173701D01*
X69024Y173680D01*
X69111Y173655D01*
X69196Y173626D01*
X69280Y173594D01*
X69362Y173559D01*
X69443Y173519D01*
X69522Y173477D01*
X69599Y173431D01*
X69674Y173381D01*
X69747Y173329D01*
X69818Y173273D01*
X69886Y173215D01*
X69951Y173153D01*
X70014Y173089D01*
X70074Y173022D01*
X70131Y172953D01*
X70185Y172881D01*
X70236Y172807D01*
X70284Y172731D01*
X70328Y172653D01*
X70369Y172573D01*
X70407Y172491D01*
X70441Y172408D01*
X70471Y172323D01*
X70498Y172237D01*
X70521Y172151D01*
X70540Y172063D01*
X70555Y171974D01*
X70567Y171885D01*
X70575Y171796D01*
X70579Y171706D01*
X70579Y171616D01*
X70575Y171526D01*
X70567Y171437D01*
X70555Y171348D01*
X70540Y171259D01*
X70521Y171171D01*
X70498Y171085D01*
X70471Y170999D01*
X70441Y170914D01*
X70407Y170831D01*
X70369Y170749D01*
X70328Y170669D01*
X70284Y170591D01*
X70236Y170515D01*
X70185Y170441D01*
X70131Y170369D01*
X70074Y170300D01*
X70014Y170233D01*
X69951Y170169D01*
X69886Y170107D01*
X69818Y170049D01*
X69747Y169993D01*
X69674Y169941D01*
X69599Y169891D01*
X69522Y169845D01*
X69443Y169803D01*
X69362Y169763D01*
X69280Y169728D01*
X69196Y169696D01*
X69111Y169667D01*
X69024Y169642D01*
X68937Y169621D01*
X68849Y169604D01*
X68760Y169590D01*
X68670Y169581D01*
X68581Y169575D01*
X68491Y169573D01*
X68491Y169572D02*
X66402Y169572D01*
X257921Y235471D02*
X260009Y235471D01*
X257921Y235471D02*
X257832Y235473D01*
X257744Y235479D01*
X257656Y235488D01*
X257568Y235501D01*
X257481Y235518D01*
X257395Y235538D01*
X257310Y235563D01*
X257225Y235590D01*
X257142Y235622D01*
X257061Y235656D01*
X256981Y235695D01*
X256903Y235736D01*
X256826Y235781D01*
X256752Y235829D01*
X256679Y235880D01*
X256609Y235934D01*
X256542Y235992D01*
X256476Y236052D01*
X256414Y236114D01*
X256354Y236180D01*
X256296Y236247D01*
X256242Y236317D01*
X256191Y236390D01*
X256143Y236464D01*
X256098Y236541D01*
X256057Y236619D01*
X256018Y236699D01*
X255984Y236780D01*
X255952Y236863D01*
X255925Y236948D01*
X255900Y237033D01*
X255880Y237119D01*
X255863Y237206D01*
X255850Y237294D01*
X255841Y237382D01*
X255835Y237470D01*
X255833Y237559D01*
X255832Y237559D02*
X255832Y242781D01*
X255833Y242781D02*
X255835Y242872D01*
X255841Y242963D01*
X255851Y243054D01*
X255865Y243144D01*
X255882Y243233D01*
X255904Y243321D01*
X255930Y243409D01*
X255959Y243495D01*
X255992Y243580D01*
X256029Y243663D01*
X256069Y243745D01*
X256113Y243825D01*
X256160Y243903D01*
X256211Y243979D01*
X256264Y244052D01*
X256321Y244123D01*
X256382Y244192D01*
X256445Y244257D01*
X256510Y244320D01*
X256579Y244380D01*
X256650Y244438D01*
X256723Y244491D01*
X256799Y244542D01*
X256877Y244589D01*
X256957Y244633D01*
X257039Y244673D01*
X257122Y244710D01*
X257207Y244743D01*
X257293Y244772D01*
X257381Y244798D01*
X257469Y244820D01*
X257558Y244837D01*
X257648Y244851D01*
X257739Y244861D01*
X257830Y244867D01*
X257921Y244869D01*
X260009Y244869D01*
X265566Y244869D02*
X263478Y237559D01*
X268699Y237559D01*
X267133Y239648D02*
X267133Y235471D01*
X196609Y157118D02*
X196609Y155029D01*
X196607Y154940D01*
X196601Y154852D01*
X196592Y154764D01*
X196579Y154676D01*
X196562Y154589D01*
X196542Y154503D01*
X196517Y154418D01*
X196490Y154333D01*
X196458Y154250D01*
X196424Y154169D01*
X196385Y154089D01*
X196344Y154011D01*
X196299Y153934D01*
X196251Y153860D01*
X196200Y153787D01*
X196146Y153717D01*
X196088Y153650D01*
X196028Y153584D01*
X195966Y153522D01*
X195900Y153462D01*
X195833Y153404D01*
X195763Y153350D01*
X195690Y153299D01*
X195616Y153251D01*
X195539Y153206D01*
X195461Y153165D01*
X195381Y153126D01*
X195300Y153092D01*
X195217Y153060D01*
X195132Y153033D01*
X195047Y153008D01*
X194961Y152988D01*
X194874Y152971D01*
X194786Y152958D01*
X194698Y152949D01*
X194610Y152943D01*
X194521Y152941D01*
X189299Y152941D01*
X189208Y152943D01*
X189117Y152949D01*
X189026Y152959D01*
X188936Y152973D01*
X188847Y152991D01*
X188758Y153012D01*
X188671Y153038D01*
X188585Y153067D01*
X188500Y153100D01*
X188416Y153137D01*
X188334Y153177D01*
X188255Y153221D01*
X188177Y153268D01*
X188101Y153319D01*
X188027Y153373D01*
X187956Y153430D01*
X187888Y153490D01*
X187822Y153553D01*
X187759Y153619D01*
X187699Y153687D01*
X187642Y153758D01*
X187588Y153832D01*
X187537Y153908D01*
X187490Y153985D01*
X187446Y154065D01*
X187406Y154147D01*
X187369Y154231D01*
X187336Y154315D01*
X187307Y154402D01*
X187281Y154489D01*
X187260Y154578D01*
X187242Y154667D01*
X187228Y154757D01*
X187218Y154848D01*
X187212Y154939D01*
X187210Y155030D01*
X187211Y155029D02*
X187211Y157118D01*
X196609Y160587D02*
X196609Y163719D01*
X196607Y163808D01*
X196601Y163896D01*
X196592Y163984D01*
X196579Y164072D01*
X196562Y164159D01*
X196542Y164245D01*
X196517Y164330D01*
X196490Y164415D01*
X196458Y164498D01*
X196424Y164579D01*
X196385Y164659D01*
X196344Y164737D01*
X196299Y164814D01*
X196251Y164888D01*
X196200Y164961D01*
X196146Y165031D01*
X196088Y165098D01*
X196028Y165164D01*
X195966Y165226D01*
X195900Y165286D01*
X195833Y165344D01*
X195763Y165398D01*
X195690Y165449D01*
X195616Y165497D01*
X195539Y165542D01*
X195461Y165583D01*
X195381Y165622D01*
X195300Y165656D01*
X195217Y165688D01*
X195132Y165715D01*
X195047Y165740D01*
X194961Y165760D01*
X194874Y165777D01*
X194786Y165790D01*
X194698Y165799D01*
X194610Y165805D01*
X194521Y165807D01*
X194521Y165808D02*
X193476Y165808D01*
X193476Y165807D02*
X193387Y165805D01*
X193299Y165799D01*
X193211Y165790D01*
X193123Y165777D01*
X193036Y165760D01*
X192950Y165740D01*
X192865Y165715D01*
X192780Y165688D01*
X192697Y165656D01*
X192616Y165622D01*
X192536Y165583D01*
X192458Y165542D01*
X192381Y165497D01*
X192307Y165449D01*
X192234Y165398D01*
X192164Y165344D01*
X192097Y165286D01*
X192031Y165226D01*
X191969Y165164D01*
X191909Y165098D01*
X191851Y165031D01*
X191797Y164961D01*
X191746Y164888D01*
X191698Y164814D01*
X191653Y164737D01*
X191612Y164659D01*
X191573Y164579D01*
X191539Y164498D01*
X191507Y164415D01*
X191480Y164330D01*
X191455Y164245D01*
X191435Y164159D01*
X191418Y164072D01*
X191405Y163984D01*
X191396Y163896D01*
X191390Y163808D01*
X191388Y163719D01*
X191388Y160587D01*
X187211Y160587D01*
X187211Y165808D01*
X249949Y162198D02*
X249949Y160109D01*
X249947Y160020D01*
X249941Y159932D01*
X249932Y159844D01*
X249919Y159756D01*
X249902Y159669D01*
X249882Y159583D01*
X249857Y159498D01*
X249830Y159413D01*
X249798Y159330D01*
X249764Y159249D01*
X249725Y159169D01*
X249684Y159091D01*
X249639Y159014D01*
X249591Y158940D01*
X249540Y158867D01*
X249486Y158797D01*
X249428Y158730D01*
X249368Y158664D01*
X249306Y158602D01*
X249240Y158542D01*
X249173Y158484D01*
X249103Y158430D01*
X249030Y158379D01*
X248956Y158331D01*
X248879Y158286D01*
X248801Y158245D01*
X248721Y158206D01*
X248640Y158172D01*
X248557Y158140D01*
X248472Y158113D01*
X248387Y158088D01*
X248301Y158068D01*
X248214Y158051D01*
X248126Y158038D01*
X248038Y158029D01*
X247950Y158023D01*
X247861Y158021D01*
X242639Y158021D01*
X242548Y158023D01*
X242457Y158029D01*
X242366Y158039D01*
X242276Y158053D01*
X242187Y158071D01*
X242098Y158092D01*
X242011Y158118D01*
X241925Y158147D01*
X241840Y158180D01*
X241756Y158217D01*
X241674Y158257D01*
X241595Y158301D01*
X241517Y158348D01*
X241441Y158399D01*
X241367Y158453D01*
X241296Y158510D01*
X241228Y158570D01*
X241162Y158633D01*
X241099Y158699D01*
X241039Y158767D01*
X240982Y158838D01*
X240928Y158912D01*
X240877Y158988D01*
X240830Y159065D01*
X240786Y159145D01*
X240746Y159227D01*
X240709Y159311D01*
X240676Y159395D01*
X240647Y159482D01*
X240621Y159569D01*
X240600Y159658D01*
X240582Y159747D01*
X240568Y159837D01*
X240558Y159928D01*
X240552Y160019D01*
X240550Y160110D01*
X240551Y160109D02*
X240551Y162198D01*
X244728Y165667D02*
X244728Y168799D01*
X244730Y168888D01*
X244736Y168976D01*
X244745Y169064D01*
X244758Y169152D01*
X244775Y169239D01*
X244795Y169325D01*
X244820Y169410D01*
X244847Y169495D01*
X244879Y169578D01*
X244913Y169659D01*
X244952Y169739D01*
X244993Y169817D01*
X245038Y169894D01*
X245086Y169968D01*
X245137Y170041D01*
X245191Y170111D01*
X245249Y170178D01*
X245309Y170244D01*
X245371Y170306D01*
X245437Y170366D01*
X245504Y170424D01*
X245574Y170478D01*
X245647Y170529D01*
X245721Y170577D01*
X245798Y170622D01*
X245876Y170663D01*
X245956Y170702D01*
X246037Y170736D01*
X246120Y170768D01*
X246205Y170795D01*
X246290Y170820D01*
X246376Y170840D01*
X246463Y170857D01*
X246551Y170870D01*
X246639Y170879D01*
X246727Y170885D01*
X246816Y170887D01*
X246816Y170888D02*
X247338Y170888D01*
X247439Y170886D01*
X247540Y170880D01*
X247641Y170870D01*
X247741Y170857D01*
X247841Y170839D01*
X247940Y170818D01*
X248038Y170792D01*
X248135Y170763D01*
X248231Y170731D01*
X248325Y170694D01*
X248418Y170654D01*
X248510Y170610D01*
X248599Y170563D01*
X248687Y170512D01*
X248773Y170458D01*
X248856Y170401D01*
X248938Y170341D01*
X249016Y170277D01*
X249093Y170211D01*
X249166Y170141D01*
X249237Y170069D01*
X249305Y169994D01*
X249370Y169916D01*
X249432Y169836D01*
X249491Y169754D01*
X249547Y169669D01*
X249599Y169582D01*
X249648Y169494D01*
X249694Y169403D01*
X249735Y169311D01*
X249774Y169217D01*
X249808Y169122D01*
X249839Y169026D01*
X249866Y168928D01*
X249890Y168830D01*
X249909Y168730D01*
X249925Y168630D01*
X249937Y168530D01*
X249945Y168429D01*
X249949Y168328D01*
X249949Y168226D01*
X249945Y168125D01*
X249937Y168024D01*
X249925Y167924D01*
X249909Y167824D01*
X249890Y167724D01*
X249866Y167626D01*
X249839Y167528D01*
X249808Y167432D01*
X249774Y167337D01*
X249735Y167243D01*
X249694Y167151D01*
X249648Y167060D01*
X249599Y166971D01*
X249547Y166885D01*
X249491Y166800D01*
X249432Y166718D01*
X249370Y166638D01*
X249305Y166560D01*
X249237Y166485D01*
X249166Y166413D01*
X249093Y166343D01*
X249016Y166277D01*
X248938Y166213D01*
X248856Y166153D01*
X248773Y166096D01*
X248687Y166042D01*
X248599Y165991D01*
X248510Y165944D01*
X248418Y165900D01*
X248325Y165860D01*
X248231Y165823D01*
X248135Y165791D01*
X248038Y165762D01*
X247940Y165736D01*
X247841Y165715D01*
X247741Y165697D01*
X247641Y165684D01*
X247540Y165674D01*
X247439Y165668D01*
X247338Y165666D01*
X247338Y165667D02*
X244728Y165667D01*
X244599Y165669D01*
X244471Y165675D01*
X244343Y165685D01*
X244215Y165699D01*
X244087Y165716D01*
X243960Y165738D01*
X243834Y165764D01*
X243709Y165793D01*
X243585Y165826D01*
X243462Y165864D01*
X243340Y165904D01*
X243219Y165949D01*
X243100Y165997D01*
X242982Y166049D01*
X242866Y166105D01*
X242752Y166164D01*
X242640Y166227D01*
X242529Y166293D01*
X242421Y166362D01*
X242315Y166435D01*
X242211Y166511D01*
X242109Y166590D01*
X242010Y166672D01*
X241914Y166757D01*
X241820Y166845D01*
X241729Y166936D01*
X241641Y167030D01*
X241556Y167126D01*
X241474Y167225D01*
X241395Y167327D01*
X241319Y167431D01*
X241246Y167537D01*
X241177Y167645D01*
X241111Y167755D01*
X241048Y167868D01*
X240989Y167982D01*
X240933Y168098D01*
X240881Y168216D01*
X240833Y168335D01*
X240788Y168456D01*
X240748Y168578D01*
X240710Y168701D01*
X240677Y168825D01*
X240648Y168950D01*
X240622Y169076D01*
X240600Y169203D01*
X240583Y169331D01*
X240569Y169459D01*
X240559Y169587D01*
X240553Y169715D01*
X240551Y169844D01*
D44*
X85090Y92710D02*
X21590Y92710D01*
X21590Y130810D01*
X85090Y130810D01*
X85090Y92710D01*
X80010Y97790D02*
X26670Y97790D01*
X26670Y125730D01*
X80010Y125730D01*
X80010Y97790D01*
X228600Y40640D02*
X231140Y43180D01*
X228600Y40640D02*
X226060Y43180D01*
X228600Y20320D02*
X231140Y17780D01*
X228600Y20320D02*
X226060Y17780D01*
X205740Y17780D01*
X203200Y20320D01*
X251460Y17780D02*
X254000Y20320D01*
X251460Y17780D02*
X231140Y17780D01*
X254000Y20320D02*
X254000Y40640D01*
X251460Y43180D01*
X231140Y43180D01*
X226060Y43180D02*
X205740Y43180D01*
X203200Y40640D01*
X203200Y20320D01*
D48*
X256211Y20320D02*
X256211Y11430D01*
X256209Y11330D01*
X256203Y11231D01*
X256193Y11131D01*
X256180Y11033D01*
X256162Y10934D01*
X256141Y10837D01*
X256116Y10741D01*
X256087Y10645D01*
X256054Y10551D01*
X256018Y10458D01*
X255978Y10367D01*
X255934Y10277D01*
X255887Y10189D01*
X255837Y10103D01*
X255783Y10019D01*
X255726Y9937D01*
X255666Y9858D01*
X255602Y9780D01*
X255536Y9706D01*
X255467Y9634D01*
X255395Y9565D01*
X255321Y9499D01*
X255243Y9435D01*
X255164Y9375D01*
X255082Y9318D01*
X254998Y9264D01*
X254912Y9214D01*
X254824Y9167D01*
X254734Y9123D01*
X254643Y9083D01*
X254550Y9047D01*
X254456Y9014D01*
X254360Y8985D01*
X254264Y8960D01*
X254167Y8939D01*
X254068Y8921D01*
X253970Y8908D01*
X253870Y8898D01*
X253771Y8892D01*
X253671Y8890D01*
X252401Y8890D01*
X262192Y8890D02*
X262192Y20320D01*
X265367Y20320D01*
X265478Y20318D01*
X265588Y20312D01*
X265699Y20303D01*
X265809Y20289D01*
X265918Y20272D01*
X266027Y20251D01*
X266135Y20226D01*
X266242Y20197D01*
X266348Y20165D01*
X266453Y20129D01*
X266556Y20089D01*
X266658Y20046D01*
X266759Y19999D01*
X266858Y19948D01*
X266955Y19895D01*
X267049Y19838D01*
X267142Y19777D01*
X267233Y19714D01*
X267322Y19647D01*
X267408Y19577D01*
X267491Y19504D01*
X267573Y19429D01*
X267651Y19351D01*
X267726Y19269D01*
X267799Y19186D01*
X267869Y19100D01*
X267936Y19011D01*
X267999Y18920D01*
X268060Y18827D01*
X268117Y18732D01*
X268170Y18636D01*
X268221Y18537D01*
X268268Y18436D01*
X268311Y18334D01*
X268351Y18231D01*
X268387Y18126D01*
X268419Y18020D01*
X268448Y17913D01*
X268473Y17805D01*
X268494Y17696D01*
X268511Y17587D01*
X268525Y17477D01*
X268534Y17366D01*
X268540Y17256D01*
X268542Y17145D01*
X268540Y17034D01*
X268534Y16924D01*
X268525Y16813D01*
X268511Y16703D01*
X268494Y16594D01*
X268473Y16485D01*
X268448Y16377D01*
X268419Y16270D01*
X268387Y16164D01*
X268351Y16059D01*
X268311Y15956D01*
X268268Y15854D01*
X268221Y15753D01*
X268170Y15654D01*
X268117Y15557D01*
X268060Y15463D01*
X267999Y15370D01*
X267936Y15279D01*
X267869Y15190D01*
X267799Y15104D01*
X267726Y15021D01*
X267651Y14939D01*
X267573Y14861D01*
X267491Y14786D01*
X267408Y14713D01*
X267322Y14643D01*
X267233Y14576D01*
X267142Y14513D01*
X267049Y14452D01*
X266955Y14395D01*
X266858Y14342D01*
X266759Y14291D01*
X266658Y14244D01*
X266556Y14201D01*
X266453Y14161D01*
X266348Y14125D01*
X266242Y14093D01*
X266135Y14064D01*
X266027Y14039D01*
X265918Y14018D01*
X265809Y14001D01*
X265699Y13987D01*
X265588Y13978D01*
X265478Y13972D01*
X265367Y13970D01*
X262192Y13970D01*
X273050Y17780D02*
X276225Y20320D01*
X276225Y8890D01*
X273050Y8890D02*
X279400Y8890D01*
D44*
X180340Y43180D02*
X177800Y40640D01*
X175260Y43180D01*
X177800Y20320D02*
X180340Y17780D01*
X177800Y20320D02*
X175260Y17780D01*
X154940Y17780D01*
X152400Y20320D01*
X200660Y17780D02*
X203200Y20320D01*
X200660Y17780D02*
X180340Y17780D01*
X203200Y20320D02*
X203200Y40640D01*
X200660Y43180D01*
X180340Y43180D01*
X175260Y43180D02*
X154940Y43180D01*
X152400Y40640D01*
X152400Y20320D01*
D48*
X131445Y20320D02*
X131445Y11430D01*
X131443Y11330D01*
X131437Y11231D01*
X131427Y11131D01*
X131414Y11033D01*
X131396Y10934D01*
X131375Y10837D01*
X131350Y10741D01*
X131321Y10645D01*
X131288Y10551D01*
X131252Y10458D01*
X131212Y10367D01*
X131168Y10277D01*
X131121Y10189D01*
X131071Y10103D01*
X131017Y10019D01*
X130960Y9937D01*
X130900Y9858D01*
X130836Y9780D01*
X130770Y9706D01*
X130701Y9634D01*
X130629Y9565D01*
X130555Y9499D01*
X130477Y9435D01*
X130398Y9375D01*
X130316Y9318D01*
X130232Y9264D01*
X130146Y9214D01*
X130058Y9167D01*
X129968Y9123D01*
X129877Y9083D01*
X129784Y9047D01*
X129690Y9014D01*
X129594Y8985D01*
X129498Y8960D01*
X129401Y8939D01*
X129302Y8921D01*
X129204Y8908D01*
X129104Y8898D01*
X129005Y8892D01*
X128905Y8890D01*
X127635Y8890D01*
X137425Y8890D02*
X137425Y20320D01*
X140600Y20320D01*
X140711Y20318D01*
X140821Y20312D01*
X140932Y20303D01*
X141042Y20289D01*
X141151Y20272D01*
X141260Y20251D01*
X141368Y20226D01*
X141475Y20197D01*
X141581Y20165D01*
X141686Y20129D01*
X141789Y20089D01*
X141891Y20046D01*
X141992Y19999D01*
X142091Y19948D01*
X142188Y19895D01*
X142282Y19838D01*
X142375Y19777D01*
X142466Y19714D01*
X142555Y19647D01*
X142641Y19577D01*
X142724Y19504D01*
X142806Y19429D01*
X142884Y19351D01*
X142959Y19269D01*
X143032Y19186D01*
X143102Y19100D01*
X143169Y19011D01*
X143232Y18920D01*
X143293Y18827D01*
X143350Y18732D01*
X143403Y18636D01*
X143454Y18537D01*
X143501Y18436D01*
X143544Y18334D01*
X143584Y18231D01*
X143620Y18126D01*
X143652Y18020D01*
X143681Y17913D01*
X143706Y17805D01*
X143727Y17696D01*
X143744Y17587D01*
X143758Y17477D01*
X143767Y17366D01*
X143773Y17256D01*
X143775Y17145D01*
X143773Y17034D01*
X143767Y16924D01*
X143758Y16813D01*
X143744Y16703D01*
X143727Y16594D01*
X143706Y16485D01*
X143681Y16377D01*
X143652Y16270D01*
X143620Y16164D01*
X143584Y16059D01*
X143544Y15956D01*
X143501Y15854D01*
X143454Y15753D01*
X143403Y15654D01*
X143350Y15557D01*
X143293Y15463D01*
X143232Y15370D01*
X143169Y15279D01*
X143102Y15190D01*
X143032Y15104D01*
X142959Y15021D01*
X142884Y14939D01*
X142806Y14861D01*
X142724Y14786D01*
X142641Y14713D01*
X142555Y14643D01*
X142466Y14576D01*
X142375Y14513D01*
X142282Y14452D01*
X142187Y14395D01*
X142091Y14342D01*
X141992Y14291D01*
X141891Y14244D01*
X141789Y14201D01*
X141686Y14161D01*
X141581Y14125D01*
X141475Y14093D01*
X141368Y14064D01*
X141260Y14039D01*
X141151Y14018D01*
X141042Y14001D01*
X140932Y13987D01*
X140821Y13978D01*
X140711Y13972D01*
X140600Y13970D01*
X137425Y13970D01*
X151776Y20321D02*
X151880Y20319D01*
X151985Y20313D01*
X152089Y20304D01*
X152192Y20291D01*
X152295Y20273D01*
X152397Y20253D01*
X152499Y20228D01*
X152599Y20200D01*
X152699Y20168D01*
X152797Y20132D01*
X152894Y20093D01*
X152989Y20051D01*
X153083Y20005D01*
X153175Y19955D01*
X153265Y19903D01*
X153353Y19847D01*
X153439Y19787D01*
X153523Y19725D01*
X153604Y19660D01*
X153683Y19592D01*
X153760Y19520D01*
X153833Y19447D01*
X153905Y19370D01*
X153973Y19291D01*
X154038Y19210D01*
X154100Y19126D01*
X154160Y19040D01*
X154216Y18952D01*
X154268Y18862D01*
X154318Y18770D01*
X154364Y18676D01*
X154406Y18581D01*
X154445Y18484D01*
X154481Y18386D01*
X154513Y18286D01*
X154541Y18186D01*
X154566Y18084D01*
X154586Y17982D01*
X154604Y17879D01*
X154617Y17776D01*
X154626Y17672D01*
X154632Y17567D01*
X154634Y17463D01*
X151776Y20320D02*
X151658Y20318D01*
X151539Y20312D01*
X151421Y20303D01*
X151304Y20290D01*
X151187Y20272D01*
X151070Y20252D01*
X150954Y20227D01*
X150839Y20199D01*
X150726Y20166D01*
X150613Y20131D01*
X150501Y20091D01*
X150391Y20049D01*
X150282Y20002D01*
X150174Y19952D01*
X150069Y19899D01*
X149965Y19842D01*
X149863Y19782D01*
X149763Y19719D01*
X149665Y19652D01*
X149569Y19583D01*
X149476Y19510D01*
X149385Y19434D01*
X149296Y19356D01*
X149210Y19274D01*
X149127Y19190D01*
X149046Y19104D01*
X148969Y19014D01*
X148894Y18923D01*
X148822Y18829D01*
X148753Y18732D01*
X148688Y18634D01*
X148625Y18533D01*
X148566Y18430D01*
X148510Y18326D01*
X148458Y18220D01*
X148409Y18112D01*
X148364Y18003D01*
X148322Y17892D01*
X148284Y17780D01*
X153682Y15241D02*
X153758Y15316D01*
X153833Y15395D01*
X153904Y15476D01*
X153973Y15560D01*
X154038Y15646D01*
X154100Y15734D01*
X154160Y15824D01*
X154216Y15916D01*
X154269Y16011D01*
X154318Y16107D01*
X154364Y16205D01*
X154407Y16304D01*
X154446Y16405D01*
X154481Y16507D01*
X154513Y16610D01*
X154541Y16714D01*
X154566Y16819D01*
X154587Y16926D01*
X154604Y17032D01*
X154617Y17139D01*
X154626Y17247D01*
X154632Y17355D01*
X154634Y17463D01*
X153681Y15240D02*
X148284Y8890D01*
X154634Y8890D01*
D44*
X25400Y167640D02*
X22860Y170180D01*
X25400Y167640D02*
X22860Y165100D01*
X45720Y167640D02*
X48260Y170180D01*
X45720Y167640D02*
X48260Y165100D01*
X48260Y144780D01*
X45720Y142240D01*
X48260Y190500D02*
X45720Y193040D01*
X48260Y190500D02*
X48260Y170180D01*
X45720Y193040D02*
X25400Y193040D01*
X22860Y190500D01*
X22860Y170180D01*
X22860Y165100D02*
X22860Y144780D01*
X25400Y142240D01*
X45720Y142240D01*
D48*
X15875Y159385D02*
X6985Y159385D01*
X15875Y159385D02*
X15975Y159383D01*
X16074Y159377D01*
X16174Y159367D01*
X16272Y159354D01*
X16371Y159336D01*
X16468Y159315D01*
X16564Y159290D01*
X16660Y159261D01*
X16754Y159228D01*
X16847Y159192D01*
X16938Y159152D01*
X17028Y159108D01*
X17116Y159061D01*
X17202Y159011D01*
X17286Y158957D01*
X17368Y158900D01*
X17447Y158840D01*
X17525Y158776D01*
X17599Y158710D01*
X17671Y158641D01*
X17740Y158569D01*
X17806Y158495D01*
X17870Y158417D01*
X17930Y158338D01*
X17987Y158256D01*
X18041Y158172D01*
X18091Y158086D01*
X18138Y157998D01*
X18182Y157908D01*
X18222Y157817D01*
X18258Y157724D01*
X18291Y157630D01*
X18320Y157534D01*
X18345Y157438D01*
X18366Y157341D01*
X18384Y157242D01*
X18397Y157144D01*
X18407Y157044D01*
X18413Y156945D01*
X18415Y156845D01*
X18415Y155575D01*
X18415Y165365D02*
X6985Y165365D01*
X6985Y168540D01*
X6987Y168651D01*
X6993Y168761D01*
X7002Y168872D01*
X7016Y168982D01*
X7033Y169091D01*
X7054Y169200D01*
X7079Y169308D01*
X7108Y169415D01*
X7140Y169521D01*
X7176Y169626D01*
X7216Y169729D01*
X7259Y169831D01*
X7306Y169932D01*
X7357Y170031D01*
X7410Y170128D01*
X7467Y170222D01*
X7528Y170315D01*
X7591Y170406D01*
X7658Y170495D01*
X7728Y170581D01*
X7801Y170664D01*
X7876Y170746D01*
X7954Y170824D01*
X8036Y170899D01*
X8119Y170972D01*
X8205Y171042D01*
X8294Y171109D01*
X8385Y171172D01*
X8478Y171233D01*
X8572Y171290D01*
X8669Y171343D01*
X8768Y171394D01*
X8869Y171441D01*
X8971Y171484D01*
X9074Y171524D01*
X9179Y171560D01*
X9285Y171592D01*
X9392Y171621D01*
X9500Y171646D01*
X9609Y171667D01*
X9718Y171684D01*
X9828Y171698D01*
X9939Y171707D01*
X10049Y171713D01*
X10160Y171715D01*
X10271Y171713D01*
X10381Y171707D01*
X10492Y171698D01*
X10602Y171684D01*
X10711Y171667D01*
X10820Y171646D01*
X10928Y171621D01*
X11035Y171592D01*
X11141Y171560D01*
X11246Y171524D01*
X11349Y171484D01*
X11451Y171441D01*
X11552Y171394D01*
X11651Y171343D01*
X11747Y171290D01*
X11842Y171233D01*
X11935Y171172D01*
X12026Y171109D01*
X12115Y171042D01*
X12201Y170972D01*
X12284Y170899D01*
X12366Y170824D01*
X12444Y170746D01*
X12519Y170664D01*
X12592Y170581D01*
X12662Y170495D01*
X12729Y170406D01*
X12792Y170315D01*
X12853Y170222D01*
X12910Y170128D01*
X12963Y170031D01*
X13014Y169932D01*
X13061Y169831D01*
X13104Y169729D01*
X13144Y169626D01*
X13180Y169521D01*
X13212Y169415D01*
X13241Y169308D01*
X13266Y169200D01*
X13287Y169091D01*
X13304Y168982D01*
X13318Y168872D01*
X13327Y168761D01*
X13333Y168651D01*
X13335Y168540D01*
X13335Y165365D01*
X15875Y176224D02*
X6985Y178764D01*
X15875Y176224D02*
X15875Y182574D01*
X13335Y180669D02*
X18415Y180669D01*
D44*
X25400Y218440D02*
X22860Y220980D01*
X25400Y218440D02*
X22860Y215900D01*
X45720Y218440D02*
X48260Y220980D01*
X45720Y218440D02*
X48260Y215900D01*
X48260Y195580D01*
X45720Y193040D01*
X48260Y241300D02*
X45720Y243840D01*
X48260Y241300D02*
X48260Y220980D01*
X45720Y243840D02*
X25400Y243840D01*
X22860Y241300D01*
X22860Y220980D01*
X22860Y215900D02*
X22860Y195580D01*
X25400Y193040D01*
X45720Y193040D01*
D48*
X15875Y207645D02*
X6985Y207645D01*
X15875Y207645D02*
X15975Y207643D01*
X16074Y207637D01*
X16174Y207627D01*
X16272Y207614D01*
X16371Y207596D01*
X16468Y207575D01*
X16564Y207550D01*
X16660Y207521D01*
X16754Y207488D01*
X16847Y207452D01*
X16938Y207412D01*
X17028Y207368D01*
X17116Y207321D01*
X17202Y207271D01*
X17286Y207217D01*
X17368Y207160D01*
X17447Y207100D01*
X17525Y207036D01*
X17599Y206970D01*
X17671Y206901D01*
X17740Y206829D01*
X17806Y206755D01*
X17870Y206677D01*
X17930Y206598D01*
X17987Y206516D01*
X18041Y206432D01*
X18091Y206346D01*
X18138Y206258D01*
X18182Y206168D01*
X18222Y206077D01*
X18258Y205984D01*
X18291Y205890D01*
X18320Y205794D01*
X18345Y205698D01*
X18366Y205601D01*
X18384Y205502D01*
X18397Y205404D01*
X18407Y205304D01*
X18413Y205205D01*
X18415Y205105D01*
X18415Y203835D01*
X18415Y213625D02*
X6985Y213625D01*
X6985Y216800D01*
X6987Y216911D01*
X6993Y217021D01*
X7002Y217132D01*
X7016Y217242D01*
X7033Y217351D01*
X7054Y217460D01*
X7079Y217568D01*
X7108Y217675D01*
X7140Y217781D01*
X7176Y217886D01*
X7216Y217989D01*
X7259Y218091D01*
X7306Y218192D01*
X7357Y218291D01*
X7410Y218388D01*
X7467Y218482D01*
X7528Y218575D01*
X7591Y218666D01*
X7658Y218755D01*
X7728Y218841D01*
X7801Y218924D01*
X7876Y219006D01*
X7954Y219084D01*
X8036Y219159D01*
X8119Y219232D01*
X8205Y219302D01*
X8294Y219369D01*
X8385Y219432D01*
X8478Y219493D01*
X8572Y219550D01*
X8669Y219603D01*
X8768Y219654D01*
X8869Y219701D01*
X8971Y219744D01*
X9074Y219784D01*
X9179Y219820D01*
X9285Y219852D01*
X9392Y219881D01*
X9500Y219906D01*
X9609Y219927D01*
X9718Y219944D01*
X9828Y219958D01*
X9939Y219967D01*
X10049Y219973D01*
X10160Y219975D01*
X10271Y219973D01*
X10381Y219967D01*
X10492Y219958D01*
X10602Y219944D01*
X10711Y219927D01*
X10820Y219906D01*
X10928Y219881D01*
X11035Y219852D01*
X11141Y219820D01*
X11246Y219784D01*
X11349Y219744D01*
X11451Y219701D01*
X11552Y219654D01*
X11651Y219603D01*
X11747Y219550D01*
X11842Y219493D01*
X11935Y219432D01*
X12026Y219369D01*
X12115Y219302D01*
X12201Y219232D01*
X12284Y219159D01*
X12366Y219084D01*
X12444Y219006D01*
X12519Y218924D01*
X12592Y218841D01*
X12662Y218755D01*
X12729Y218666D01*
X12792Y218575D01*
X12853Y218482D01*
X12910Y218388D01*
X12963Y218291D01*
X13014Y218192D01*
X13061Y218091D01*
X13104Y217989D01*
X13144Y217886D01*
X13180Y217781D01*
X13212Y217675D01*
X13241Y217568D01*
X13266Y217460D01*
X13287Y217351D01*
X13304Y217242D01*
X13318Y217132D01*
X13327Y217021D01*
X13333Y216911D01*
X13335Y216800D01*
X13335Y213625D01*
X18415Y224484D02*
X18415Y228294D01*
X18413Y228394D01*
X18407Y228493D01*
X18397Y228593D01*
X18384Y228691D01*
X18366Y228790D01*
X18345Y228887D01*
X18320Y228983D01*
X18291Y229079D01*
X18258Y229173D01*
X18222Y229266D01*
X18182Y229357D01*
X18138Y229447D01*
X18091Y229535D01*
X18041Y229621D01*
X17987Y229705D01*
X17930Y229787D01*
X17870Y229866D01*
X17806Y229944D01*
X17740Y230018D01*
X17671Y230090D01*
X17599Y230159D01*
X17525Y230225D01*
X17447Y230289D01*
X17368Y230349D01*
X17286Y230406D01*
X17202Y230460D01*
X17116Y230510D01*
X17028Y230557D01*
X16938Y230601D01*
X16847Y230641D01*
X16754Y230677D01*
X16660Y230710D01*
X16564Y230739D01*
X16468Y230764D01*
X16371Y230785D01*
X16272Y230803D01*
X16174Y230816D01*
X16074Y230826D01*
X15975Y230832D01*
X15875Y230834D01*
X14605Y230834D01*
X14505Y230832D01*
X14406Y230826D01*
X14306Y230816D01*
X14208Y230803D01*
X14109Y230785D01*
X14012Y230764D01*
X13916Y230739D01*
X13820Y230710D01*
X13726Y230677D01*
X13633Y230641D01*
X13542Y230601D01*
X13452Y230557D01*
X13364Y230510D01*
X13278Y230460D01*
X13194Y230406D01*
X13112Y230349D01*
X13033Y230289D01*
X12955Y230225D01*
X12881Y230159D01*
X12809Y230090D01*
X12740Y230018D01*
X12674Y229944D01*
X12610Y229866D01*
X12550Y229787D01*
X12493Y229705D01*
X12439Y229621D01*
X12389Y229535D01*
X12342Y229447D01*
X12298Y229357D01*
X12258Y229266D01*
X12222Y229173D01*
X12189Y229079D01*
X12160Y228983D01*
X12135Y228887D01*
X12114Y228790D01*
X12096Y228691D01*
X12083Y228593D01*
X12073Y228493D01*
X12067Y228394D01*
X12065Y228294D01*
X12065Y224484D01*
X6985Y224484D01*
X6985Y230834D01*
D49*
X284988Y193735D02*
X296672Y193735D01*
X284988Y193735D02*
X284988Y196980D01*
X284990Y197093D01*
X284996Y197206D01*
X285006Y197319D01*
X285020Y197432D01*
X285037Y197544D01*
X285059Y197655D01*
X285084Y197765D01*
X285114Y197875D01*
X285147Y197983D01*
X285184Y198090D01*
X285224Y198196D01*
X285269Y198300D01*
X285317Y198403D01*
X285368Y198504D01*
X285423Y198603D01*
X285481Y198700D01*
X285543Y198795D01*
X285608Y198888D01*
X285676Y198978D01*
X285747Y199066D01*
X285822Y199152D01*
X285899Y199235D01*
X285979Y199315D01*
X286062Y199392D01*
X286148Y199467D01*
X286236Y199538D01*
X286326Y199606D01*
X286419Y199671D01*
X286514Y199733D01*
X286611Y199791D01*
X286710Y199846D01*
X286811Y199897D01*
X286914Y199945D01*
X287018Y199990D01*
X287124Y200030D01*
X287231Y200067D01*
X287339Y200100D01*
X287449Y200130D01*
X287559Y200155D01*
X287670Y200177D01*
X287782Y200194D01*
X287895Y200208D01*
X288008Y200218D01*
X288121Y200224D01*
X288234Y200226D01*
X288347Y200224D01*
X288460Y200218D01*
X288573Y200208D01*
X288686Y200194D01*
X288798Y200177D01*
X288909Y200155D01*
X289019Y200130D01*
X289129Y200100D01*
X289237Y200067D01*
X289344Y200030D01*
X289450Y199990D01*
X289554Y199945D01*
X289657Y199897D01*
X289758Y199846D01*
X289857Y199791D01*
X289954Y199733D01*
X290049Y199671D01*
X290142Y199606D01*
X290232Y199538D01*
X290320Y199467D01*
X290406Y199392D01*
X290489Y199315D01*
X290569Y199235D01*
X290646Y199152D01*
X290721Y199066D01*
X290792Y198978D01*
X290860Y198888D01*
X290925Y198795D01*
X290987Y198700D01*
X291045Y198603D01*
X291100Y198504D01*
X291151Y198403D01*
X291199Y198300D01*
X291244Y198196D01*
X291284Y198090D01*
X291321Y197983D01*
X291354Y197875D01*
X291384Y197765D01*
X291409Y197655D01*
X291431Y197544D01*
X291448Y197432D01*
X291462Y197319D01*
X291472Y197206D01*
X291478Y197093D01*
X291480Y196980D01*
X291479Y196980D02*
X291479Y193735D01*
X291479Y197629D02*
X296672Y200226D01*
X287909Y211582D02*
X287802Y211580D01*
X287696Y211574D01*
X287590Y211564D01*
X287484Y211551D01*
X287378Y211533D01*
X287274Y211512D01*
X287170Y211487D01*
X287067Y211458D01*
X286966Y211426D01*
X286866Y211389D01*
X286767Y211349D01*
X286669Y211306D01*
X286573Y211259D01*
X286479Y211208D01*
X286387Y211154D01*
X286297Y211097D01*
X286209Y211037D01*
X286124Y210973D01*
X286041Y210906D01*
X285960Y210836D01*
X285882Y210764D01*
X285806Y210688D01*
X285734Y210610D01*
X285664Y210529D01*
X285597Y210446D01*
X285533Y210361D01*
X285473Y210273D01*
X285416Y210183D01*
X285362Y210091D01*
X285311Y209997D01*
X285264Y209901D01*
X285221Y209803D01*
X285181Y209704D01*
X285144Y209604D01*
X285112Y209503D01*
X285083Y209400D01*
X285058Y209296D01*
X285037Y209192D01*
X285019Y209086D01*
X285006Y208980D01*
X284996Y208874D01*
X284990Y208768D01*
X284988Y208661D01*
X284990Y208540D01*
X284996Y208419D01*
X285006Y208299D01*
X285019Y208178D01*
X285037Y208059D01*
X285058Y207939D01*
X285083Y207821D01*
X285112Y207704D01*
X285145Y207587D01*
X285181Y207472D01*
X285222Y207358D01*
X285265Y207245D01*
X285313Y207133D01*
X285364Y207024D01*
X285419Y206916D01*
X285477Y206809D01*
X285538Y206705D01*
X285603Y206603D01*
X285671Y206503D01*
X285742Y206405D01*
X285816Y206309D01*
X285893Y206216D01*
X285974Y206126D01*
X286057Y206038D01*
X286143Y205953D01*
X286232Y205870D01*
X286323Y205791D01*
X286417Y205714D01*
X286513Y205641D01*
X286611Y205571D01*
X286712Y205504D01*
X286815Y205440D01*
X286920Y205380D01*
X287027Y205322D01*
X287135Y205269D01*
X287245Y205219D01*
X287357Y205173D01*
X287470Y205130D01*
X287585Y205091D01*
X290181Y210608D02*
X290103Y210687D01*
X290023Y210763D01*
X289940Y210836D01*
X289854Y210906D01*
X289767Y210973D01*
X289676Y211037D01*
X289584Y211097D01*
X289490Y211155D01*
X289393Y211209D01*
X289295Y211259D01*
X289195Y211306D01*
X289094Y211350D01*
X288991Y211390D01*
X288886Y211426D01*
X288781Y211458D01*
X288674Y211487D01*
X288567Y211512D01*
X288458Y211534D01*
X288349Y211551D01*
X288240Y211565D01*
X288130Y211574D01*
X288019Y211580D01*
X287909Y211582D01*
X290181Y210608D02*
X296672Y205091D01*
X296672Y211582D01*
D48*
X238760Y175260D02*
X238760Y251460D01*
X238760Y175260D02*
X187960Y175260D01*
X187960Y251460D01*
X238760Y251460D01*
D50*
X306620Y101460D02*
X306622Y101523D01*
X306628Y101585D01*
X306638Y101647D01*
X306651Y101709D01*
X306669Y101769D01*
X306690Y101828D01*
X306715Y101886D01*
X306744Y101942D01*
X306776Y101996D01*
X306811Y102048D01*
X306849Y102097D01*
X306891Y102145D01*
X306935Y102189D01*
X306983Y102231D01*
X307032Y102269D01*
X307084Y102304D01*
X307138Y102336D01*
X307194Y102365D01*
X307252Y102390D01*
X307311Y102411D01*
X307371Y102429D01*
X307433Y102442D01*
X307495Y102452D01*
X307557Y102458D01*
X307620Y102460D01*
X307683Y102458D01*
X307745Y102452D01*
X307807Y102442D01*
X307869Y102429D01*
X307929Y102411D01*
X307988Y102390D01*
X308046Y102365D01*
X308102Y102336D01*
X308156Y102304D01*
X308208Y102269D01*
X308257Y102231D01*
X308305Y102189D01*
X308349Y102145D01*
X308391Y102097D01*
X308429Y102048D01*
X308464Y101996D01*
X308496Y101942D01*
X308525Y101886D01*
X308550Y101828D01*
X308571Y101769D01*
X308589Y101709D01*
X308602Y101647D01*
X308612Y101585D01*
X308618Y101523D01*
X308620Y101460D01*
X308618Y101397D01*
X308612Y101335D01*
X308602Y101273D01*
X308589Y101211D01*
X308571Y101151D01*
X308550Y101092D01*
X308525Y101034D01*
X308496Y100978D01*
X308464Y100924D01*
X308429Y100872D01*
X308391Y100823D01*
X308349Y100775D01*
X308305Y100731D01*
X308257Y100689D01*
X308208Y100651D01*
X308156Y100616D01*
X308102Y100584D01*
X308046Y100555D01*
X307988Y100530D01*
X307929Y100509D01*
X307869Y100491D01*
X307807Y100478D01*
X307745Y100468D01*
X307683Y100462D01*
X307620Y100460D01*
X307557Y100462D01*
X307495Y100468D01*
X307433Y100478D01*
X307371Y100491D01*
X307311Y100509D01*
X307252Y100530D01*
X307194Y100555D01*
X307138Y100584D01*
X307084Y100616D01*
X307032Y100651D01*
X306983Y100689D01*
X306935Y100731D01*
X306891Y100775D01*
X306849Y100823D01*
X306811Y100872D01*
X306776Y100924D01*
X306744Y100978D01*
X306715Y101034D01*
X306690Y101092D01*
X306669Y101151D01*
X306651Y101211D01*
X306638Y101273D01*
X306628Y101335D01*
X306622Y101397D01*
X306620Y101460D01*
D48*
X244120Y104360D02*
X244120Y91960D01*
X279120Y91960D01*
X244120Y144560D02*
X244120Y156960D01*
X279120Y156960D01*
D49*
X283468Y88942D02*
X283468Y80504D01*
X283470Y80391D01*
X283476Y80278D01*
X283486Y80165D01*
X283500Y80052D01*
X283517Y79940D01*
X283539Y79829D01*
X283564Y79719D01*
X283594Y79609D01*
X283627Y79501D01*
X283664Y79394D01*
X283704Y79288D01*
X283749Y79184D01*
X283797Y79081D01*
X283848Y78980D01*
X283903Y78881D01*
X283961Y78784D01*
X284023Y78689D01*
X284088Y78596D01*
X284156Y78506D01*
X284227Y78418D01*
X284302Y78332D01*
X284379Y78249D01*
X284459Y78169D01*
X284542Y78092D01*
X284628Y78017D01*
X284716Y77946D01*
X284806Y77878D01*
X284899Y77813D01*
X284994Y77751D01*
X285091Y77693D01*
X285190Y77638D01*
X285291Y77587D01*
X285394Y77539D01*
X285498Y77494D01*
X285604Y77454D01*
X285711Y77417D01*
X285819Y77384D01*
X285929Y77354D01*
X286039Y77329D01*
X286150Y77307D01*
X286262Y77290D01*
X286375Y77276D01*
X286488Y77266D01*
X286601Y77260D01*
X286714Y77258D01*
X286827Y77260D01*
X286940Y77266D01*
X287053Y77276D01*
X287166Y77290D01*
X287278Y77307D01*
X287389Y77329D01*
X287499Y77354D01*
X287609Y77384D01*
X287717Y77417D01*
X287824Y77454D01*
X287930Y77494D01*
X288034Y77539D01*
X288137Y77587D01*
X288238Y77638D01*
X288337Y77693D01*
X288434Y77751D01*
X288529Y77813D01*
X288622Y77878D01*
X288712Y77946D01*
X288800Y78017D01*
X288886Y78092D01*
X288969Y78169D01*
X289049Y78249D01*
X289126Y78332D01*
X289201Y78418D01*
X289272Y78506D01*
X289340Y78596D01*
X289405Y78689D01*
X289467Y78784D01*
X289525Y78881D01*
X289580Y78980D01*
X289631Y79081D01*
X289679Y79184D01*
X289724Y79288D01*
X289764Y79394D01*
X289801Y79501D01*
X289834Y79609D01*
X289864Y79719D01*
X289889Y79829D01*
X289911Y79940D01*
X289928Y80052D01*
X289942Y80165D01*
X289952Y80278D01*
X289958Y80391D01*
X289960Y80504D01*
X289959Y80504D02*
X289959Y88942D01*
X295279Y86346D02*
X298525Y88942D01*
X298525Y77258D01*
X301770Y77258D02*
X295279Y77258D01*
D44*
X259715Y83185D02*
X259715Y19685D01*
X259715Y83185D02*
X297815Y83185D01*
X297815Y19685D01*
X259715Y19685D01*
X264795Y24765D02*
X264795Y78105D01*
X292735Y78105D01*
X292735Y24765D01*
X264795Y24765D01*
D49*
X217678Y79883D02*
X217678Y91567D01*
X220924Y91567D01*
X221037Y91565D01*
X221150Y91559D01*
X221263Y91549D01*
X221376Y91535D01*
X221488Y91518D01*
X221599Y91496D01*
X221709Y91471D01*
X221819Y91441D01*
X221927Y91408D01*
X222034Y91371D01*
X222140Y91331D01*
X222244Y91286D01*
X222347Y91238D01*
X222448Y91187D01*
X222547Y91132D01*
X222644Y91074D01*
X222739Y91012D01*
X222832Y90947D01*
X222922Y90879D01*
X223010Y90808D01*
X223096Y90733D01*
X223179Y90656D01*
X223259Y90576D01*
X223336Y90493D01*
X223411Y90407D01*
X223482Y90319D01*
X223550Y90229D01*
X223615Y90136D01*
X223677Y90041D01*
X223735Y89944D01*
X223790Y89845D01*
X223841Y89744D01*
X223889Y89641D01*
X223934Y89537D01*
X223974Y89431D01*
X224011Y89324D01*
X224044Y89216D01*
X224074Y89106D01*
X224099Y88996D01*
X224121Y88885D01*
X224138Y88773D01*
X224152Y88660D01*
X224162Y88547D01*
X224168Y88434D01*
X224170Y88321D01*
X224168Y88208D01*
X224162Y88095D01*
X224152Y87982D01*
X224138Y87869D01*
X224121Y87757D01*
X224099Y87646D01*
X224074Y87536D01*
X224044Y87426D01*
X224011Y87318D01*
X223974Y87211D01*
X223934Y87105D01*
X223889Y87001D01*
X223841Y86898D01*
X223790Y86797D01*
X223735Y86698D01*
X223677Y86601D01*
X223615Y86506D01*
X223550Y86413D01*
X223482Y86323D01*
X223411Y86235D01*
X223336Y86149D01*
X223259Y86066D01*
X223179Y85986D01*
X223096Y85909D01*
X223010Y85834D01*
X222922Y85763D01*
X222832Y85695D01*
X222739Y85630D01*
X222644Y85568D01*
X222547Y85510D01*
X222448Y85455D01*
X222347Y85404D01*
X222244Y85356D01*
X222140Y85311D01*
X222034Y85271D01*
X221927Y85234D01*
X221819Y85201D01*
X221709Y85171D01*
X221599Y85146D01*
X221488Y85124D01*
X221376Y85107D01*
X221263Y85093D01*
X221150Y85083D01*
X221037Y85077D01*
X220924Y85075D01*
X220924Y85076D02*
X217678Y85076D01*
X221573Y85076D02*
X224169Y79883D01*
X229034Y88971D02*
X232280Y91567D01*
X232280Y79883D01*
X235525Y79883D02*
X229034Y79883D01*
X104267Y22098D02*
X92583Y22098D01*
X92583Y25344D01*
X92585Y25457D01*
X92591Y25570D01*
X92601Y25683D01*
X92615Y25796D01*
X92632Y25908D01*
X92654Y26019D01*
X92679Y26129D01*
X92709Y26239D01*
X92742Y26347D01*
X92779Y26454D01*
X92819Y26560D01*
X92864Y26664D01*
X92912Y26767D01*
X92963Y26868D01*
X93018Y26967D01*
X93076Y27064D01*
X93138Y27159D01*
X93203Y27252D01*
X93271Y27342D01*
X93342Y27430D01*
X93417Y27516D01*
X93494Y27599D01*
X93574Y27679D01*
X93657Y27756D01*
X93743Y27831D01*
X93831Y27902D01*
X93921Y27970D01*
X94014Y28035D01*
X94109Y28097D01*
X94206Y28155D01*
X94305Y28210D01*
X94406Y28261D01*
X94509Y28309D01*
X94613Y28354D01*
X94719Y28394D01*
X94826Y28431D01*
X94934Y28464D01*
X95044Y28494D01*
X95154Y28519D01*
X95265Y28541D01*
X95377Y28558D01*
X95490Y28572D01*
X95603Y28582D01*
X95716Y28588D01*
X95829Y28590D01*
X95942Y28588D01*
X96055Y28582D01*
X96168Y28572D01*
X96281Y28558D01*
X96393Y28541D01*
X96504Y28519D01*
X96614Y28494D01*
X96724Y28464D01*
X96832Y28431D01*
X96939Y28394D01*
X97045Y28354D01*
X97149Y28309D01*
X97252Y28261D01*
X97353Y28210D01*
X97452Y28155D01*
X97549Y28097D01*
X97644Y28035D01*
X97737Y27970D01*
X97827Y27902D01*
X97915Y27831D01*
X98001Y27756D01*
X98084Y27679D01*
X98164Y27599D01*
X98241Y27516D01*
X98316Y27430D01*
X98387Y27342D01*
X98455Y27252D01*
X98520Y27159D01*
X98582Y27064D01*
X98640Y26967D01*
X98695Y26868D01*
X98746Y26767D01*
X98794Y26664D01*
X98839Y26560D01*
X98879Y26454D01*
X98916Y26347D01*
X98949Y26239D01*
X98979Y26129D01*
X99004Y26019D01*
X99026Y25908D01*
X99043Y25796D01*
X99057Y25683D01*
X99067Y25570D01*
X99073Y25457D01*
X99075Y25344D01*
X99074Y25344D02*
X99074Y22098D01*
X99074Y25993D02*
X104267Y28589D01*
X104267Y33454D02*
X104267Y36700D01*
X104265Y36813D01*
X104259Y36926D01*
X104249Y37039D01*
X104235Y37152D01*
X104218Y37264D01*
X104196Y37375D01*
X104171Y37485D01*
X104141Y37595D01*
X104108Y37703D01*
X104071Y37810D01*
X104031Y37916D01*
X103986Y38020D01*
X103938Y38123D01*
X103887Y38224D01*
X103832Y38323D01*
X103774Y38420D01*
X103712Y38515D01*
X103647Y38608D01*
X103579Y38698D01*
X103508Y38786D01*
X103433Y38872D01*
X103356Y38955D01*
X103276Y39035D01*
X103193Y39112D01*
X103107Y39187D01*
X103019Y39258D01*
X102929Y39326D01*
X102836Y39391D01*
X102741Y39453D01*
X102644Y39511D01*
X102545Y39566D01*
X102444Y39617D01*
X102341Y39665D01*
X102237Y39710D01*
X102131Y39750D01*
X102024Y39787D01*
X101916Y39820D01*
X101806Y39850D01*
X101696Y39875D01*
X101585Y39897D01*
X101473Y39914D01*
X101360Y39928D01*
X101247Y39938D01*
X101134Y39944D01*
X101021Y39946D01*
X100908Y39944D01*
X100795Y39938D01*
X100682Y39928D01*
X100569Y39914D01*
X100457Y39897D01*
X100346Y39875D01*
X100236Y39850D01*
X100126Y39820D01*
X100018Y39787D01*
X99911Y39750D01*
X99805Y39710D01*
X99701Y39665D01*
X99598Y39617D01*
X99497Y39566D01*
X99398Y39511D01*
X99301Y39453D01*
X99206Y39391D01*
X99113Y39326D01*
X99023Y39258D01*
X98935Y39187D01*
X98849Y39112D01*
X98766Y39035D01*
X98686Y38955D01*
X98609Y38872D01*
X98534Y38786D01*
X98463Y38698D01*
X98395Y38608D01*
X98330Y38515D01*
X98268Y38420D01*
X98210Y38323D01*
X98155Y38224D01*
X98104Y38123D01*
X98056Y38020D01*
X98011Y37916D01*
X97971Y37810D01*
X97934Y37703D01*
X97901Y37595D01*
X97871Y37485D01*
X97846Y37375D01*
X97824Y37264D01*
X97807Y37152D01*
X97793Y37039D01*
X97783Y36926D01*
X97777Y36813D01*
X97775Y36700D01*
X92583Y37349D02*
X92583Y33454D01*
X92583Y37349D02*
X92585Y37450D01*
X92591Y37550D01*
X92601Y37650D01*
X92614Y37750D01*
X92632Y37849D01*
X92653Y37948D01*
X92678Y38045D01*
X92707Y38142D01*
X92740Y38237D01*
X92776Y38331D01*
X92816Y38423D01*
X92859Y38514D01*
X92906Y38603D01*
X92956Y38690D01*
X93010Y38776D01*
X93067Y38859D01*
X93127Y38939D01*
X93190Y39018D01*
X93257Y39094D01*
X93326Y39167D01*
X93398Y39237D01*
X93472Y39305D01*
X93549Y39370D01*
X93629Y39431D01*
X93711Y39490D01*
X93795Y39545D01*
X93881Y39597D01*
X93969Y39646D01*
X94059Y39691D01*
X94151Y39733D01*
X94244Y39771D01*
X94339Y39805D01*
X94434Y39836D01*
X94531Y39863D01*
X94629Y39886D01*
X94728Y39906D01*
X94828Y39921D01*
X94928Y39933D01*
X95028Y39941D01*
X95129Y39945D01*
X95229Y39945D01*
X95330Y39941D01*
X95430Y39933D01*
X95530Y39921D01*
X95630Y39906D01*
X95729Y39886D01*
X95827Y39863D01*
X95924Y39836D01*
X96019Y39805D01*
X96114Y39771D01*
X96207Y39733D01*
X96299Y39691D01*
X96389Y39646D01*
X96477Y39597D01*
X96563Y39545D01*
X96647Y39490D01*
X96729Y39431D01*
X96809Y39370D01*
X96886Y39305D01*
X96960Y39237D01*
X97032Y39167D01*
X97101Y39094D01*
X97168Y39018D01*
X97231Y38939D01*
X97291Y38859D01*
X97348Y38776D01*
X97402Y38690D01*
X97452Y38603D01*
X97499Y38514D01*
X97542Y38423D01*
X97582Y38331D01*
X97618Y38237D01*
X97651Y38142D01*
X97680Y38045D01*
X97705Y37948D01*
X97726Y37849D01*
X97744Y37750D01*
X97757Y37650D01*
X97767Y37550D01*
X97773Y37450D01*
X97775Y37349D01*
X97776Y37349D02*
X97776Y34753D01*
D45*
X159474Y134861D02*
X161563Y134861D01*
X159474Y134861D02*
X159385Y134863D01*
X159297Y134869D01*
X159209Y134878D01*
X159121Y134891D01*
X159034Y134908D01*
X158948Y134928D01*
X158863Y134953D01*
X158778Y134980D01*
X158695Y135012D01*
X158614Y135046D01*
X158534Y135085D01*
X158456Y135126D01*
X158379Y135171D01*
X158305Y135219D01*
X158232Y135270D01*
X158162Y135324D01*
X158095Y135382D01*
X158029Y135442D01*
X157967Y135504D01*
X157907Y135570D01*
X157849Y135637D01*
X157795Y135707D01*
X157744Y135780D01*
X157696Y135854D01*
X157651Y135931D01*
X157610Y136009D01*
X157571Y136089D01*
X157537Y136170D01*
X157505Y136253D01*
X157478Y136338D01*
X157453Y136423D01*
X157433Y136509D01*
X157416Y136596D01*
X157403Y136684D01*
X157394Y136772D01*
X157388Y136860D01*
X157386Y136949D01*
X157386Y142171D01*
X157388Y142262D01*
X157394Y142353D01*
X157404Y142444D01*
X157418Y142534D01*
X157435Y142623D01*
X157457Y142711D01*
X157483Y142799D01*
X157512Y142885D01*
X157545Y142970D01*
X157582Y143053D01*
X157622Y143135D01*
X157666Y143215D01*
X157713Y143293D01*
X157764Y143369D01*
X157817Y143442D01*
X157874Y143513D01*
X157935Y143582D01*
X157998Y143647D01*
X158063Y143710D01*
X158132Y143770D01*
X158203Y143828D01*
X158276Y143881D01*
X158352Y143932D01*
X158430Y143979D01*
X158510Y144023D01*
X158592Y144063D01*
X158675Y144100D01*
X158760Y144133D01*
X158846Y144162D01*
X158934Y144188D01*
X159022Y144210D01*
X159111Y144227D01*
X159201Y144241D01*
X159292Y144251D01*
X159383Y144257D01*
X159474Y144259D01*
X161563Y144259D01*
X167120Y139038D02*
X170253Y139038D01*
X167120Y139038D02*
X167031Y139040D01*
X166943Y139046D01*
X166855Y139055D01*
X166767Y139068D01*
X166680Y139085D01*
X166594Y139105D01*
X166509Y139130D01*
X166424Y139157D01*
X166341Y139189D01*
X166260Y139223D01*
X166180Y139262D01*
X166102Y139303D01*
X166025Y139348D01*
X165951Y139396D01*
X165878Y139447D01*
X165808Y139501D01*
X165741Y139559D01*
X165675Y139619D01*
X165613Y139681D01*
X165553Y139747D01*
X165495Y139814D01*
X165441Y139884D01*
X165390Y139957D01*
X165342Y140031D01*
X165297Y140108D01*
X165256Y140186D01*
X165217Y140266D01*
X165183Y140347D01*
X165151Y140430D01*
X165124Y140515D01*
X165099Y140600D01*
X165079Y140686D01*
X165062Y140773D01*
X165049Y140861D01*
X165040Y140949D01*
X165034Y141037D01*
X165032Y141126D01*
X165032Y141648D01*
X165031Y141648D02*
X165033Y141749D01*
X165039Y141850D01*
X165049Y141951D01*
X165062Y142051D01*
X165080Y142151D01*
X165101Y142250D01*
X165127Y142348D01*
X165156Y142445D01*
X165188Y142541D01*
X165225Y142635D01*
X165265Y142728D01*
X165309Y142820D01*
X165356Y142909D01*
X165407Y142997D01*
X165461Y143083D01*
X165518Y143166D01*
X165578Y143248D01*
X165642Y143326D01*
X165708Y143403D01*
X165778Y143476D01*
X165850Y143547D01*
X165925Y143615D01*
X166003Y143680D01*
X166083Y143742D01*
X166165Y143801D01*
X166250Y143857D01*
X166337Y143909D01*
X166425Y143958D01*
X166516Y144004D01*
X166608Y144045D01*
X166702Y144084D01*
X166797Y144118D01*
X166893Y144149D01*
X166991Y144176D01*
X167089Y144200D01*
X167189Y144219D01*
X167289Y144235D01*
X167389Y144247D01*
X167490Y144255D01*
X167591Y144259D01*
X167693Y144259D01*
X167794Y144255D01*
X167895Y144247D01*
X167995Y144235D01*
X168095Y144219D01*
X168195Y144200D01*
X168293Y144176D01*
X168391Y144149D01*
X168487Y144118D01*
X168582Y144084D01*
X168676Y144045D01*
X168768Y144004D01*
X168859Y143958D01*
X168948Y143909D01*
X169034Y143857D01*
X169119Y143801D01*
X169201Y143742D01*
X169281Y143680D01*
X169359Y143615D01*
X169434Y143547D01*
X169506Y143476D01*
X169576Y143403D01*
X169642Y143326D01*
X169706Y143248D01*
X169766Y143166D01*
X169823Y143083D01*
X169877Y142997D01*
X169928Y142909D01*
X169975Y142820D01*
X170019Y142728D01*
X170059Y142635D01*
X170096Y142541D01*
X170128Y142445D01*
X170157Y142348D01*
X170183Y142250D01*
X170204Y142151D01*
X170222Y142051D01*
X170235Y141951D01*
X170245Y141850D01*
X170251Y141749D01*
X170253Y141648D01*
X170253Y139038D01*
X170251Y138912D01*
X170245Y138786D01*
X170236Y138660D01*
X170223Y138535D01*
X170205Y138410D01*
X170185Y138285D01*
X170160Y138161D01*
X170132Y138038D01*
X170100Y137916D01*
X170064Y137795D01*
X170025Y137675D01*
X169982Y137557D01*
X169935Y137440D01*
X169885Y137324D01*
X169831Y137209D01*
X169775Y137097D01*
X169714Y136986D01*
X169651Y136877D01*
X169584Y136770D01*
X169514Y136665D01*
X169440Y136562D01*
X169364Y136462D01*
X169285Y136364D01*
X169203Y136268D01*
X169117Y136175D01*
X169030Y136084D01*
X168939Y135997D01*
X168846Y135911D01*
X168750Y135829D01*
X168652Y135750D01*
X168552Y135674D01*
X168449Y135600D01*
X168344Y135530D01*
X168237Y135463D01*
X168128Y135400D01*
X168017Y135339D01*
X167905Y135283D01*
X167790Y135229D01*
X167674Y135179D01*
X167557Y135132D01*
X167439Y135089D01*
X167319Y135050D01*
X167198Y135014D01*
X167076Y134982D01*
X166953Y134954D01*
X166829Y134929D01*
X166704Y134909D01*
X166579Y134891D01*
X166454Y134878D01*
X166328Y134869D01*
X166202Y134863D01*
X166076Y134861D01*
X176289Y113938D02*
X176289Y111849D01*
X176287Y111760D01*
X176281Y111672D01*
X176272Y111584D01*
X176259Y111496D01*
X176242Y111409D01*
X176222Y111323D01*
X176197Y111238D01*
X176170Y111153D01*
X176138Y111070D01*
X176104Y110989D01*
X176065Y110909D01*
X176024Y110831D01*
X175979Y110754D01*
X175931Y110680D01*
X175880Y110607D01*
X175826Y110537D01*
X175768Y110470D01*
X175708Y110404D01*
X175646Y110342D01*
X175580Y110282D01*
X175513Y110224D01*
X175443Y110170D01*
X175370Y110119D01*
X175296Y110071D01*
X175219Y110026D01*
X175141Y109985D01*
X175061Y109946D01*
X174980Y109912D01*
X174897Y109880D01*
X174812Y109853D01*
X174727Y109828D01*
X174641Y109808D01*
X174554Y109791D01*
X174466Y109778D01*
X174378Y109769D01*
X174290Y109763D01*
X174201Y109761D01*
X168979Y109761D01*
X168888Y109763D01*
X168797Y109769D01*
X168706Y109779D01*
X168616Y109793D01*
X168527Y109811D01*
X168438Y109832D01*
X168351Y109858D01*
X168265Y109887D01*
X168180Y109920D01*
X168096Y109957D01*
X168014Y109997D01*
X167935Y110041D01*
X167857Y110088D01*
X167781Y110139D01*
X167707Y110193D01*
X167636Y110250D01*
X167568Y110310D01*
X167502Y110373D01*
X167439Y110439D01*
X167379Y110507D01*
X167322Y110578D01*
X167268Y110652D01*
X167217Y110728D01*
X167170Y110805D01*
X167126Y110885D01*
X167086Y110967D01*
X167049Y111051D01*
X167016Y111135D01*
X166987Y111222D01*
X166961Y111309D01*
X166940Y111398D01*
X166922Y111487D01*
X166908Y111577D01*
X166898Y111668D01*
X166892Y111759D01*
X166890Y111850D01*
X166891Y111849D02*
X166891Y113938D01*
X168979Y117407D02*
X166891Y120017D01*
X176289Y120017D01*
X176289Y117407D02*
X176289Y122628D01*
X171590Y126550D02*
X171405Y126552D01*
X171220Y126559D01*
X171036Y126570D01*
X170852Y126585D01*
X170668Y126605D01*
X170484Y126629D01*
X170302Y126658D01*
X170120Y126691D01*
X169939Y126728D01*
X169759Y126770D01*
X169579Y126816D01*
X169401Y126866D01*
X169225Y126920D01*
X169049Y126979D01*
X168875Y127041D01*
X168703Y127108D01*
X168532Y127179D01*
X168363Y127254D01*
X168196Y127333D01*
X168116Y127363D01*
X168037Y127396D01*
X167960Y127433D01*
X167884Y127473D01*
X167810Y127516D01*
X167738Y127562D01*
X167669Y127612D01*
X167601Y127664D01*
X167536Y127720D01*
X167473Y127778D01*
X167414Y127840D01*
X167356Y127903D01*
X167302Y127970D01*
X167251Y128038D01*
X167203Y128109D01*
X167158Y128182D01*
X167116Y128256D01*
X167078Y128333D01*
X167043Y128411D01*
X167011Y128490D01*
X166983Y128571D01*
X166959Y128653D01*
X166938Y128737D01*
X166921Y128820D01*
X166908Y128905D01*
X166899Y128990D01*
X166893Y129075D01*
X166891Y129161D01*
X166893Y129247D01*
X166899Y129332D01*
X166908Y129417D01*
X166921Y129502D01*
X166938Y129585D01*
X166959Y129669D01*
X166983Y129751D01*
X167011Y129832D01*
X167043Y129911D01*
X167078Y129989D01*
X167116Y130066D01*
X167158Y130140D01*
X167203Y130213D01*
X167251Y130284D01*
X167302Y130352D01*
X167356Y130419D01*
X167414Y130482D01*
X167473Y130544D01*
X167536Y130602D01*
X167601Y130658D01*
X167669Y130710D01*
X167738Y130760D01*
X167810Y130806D01*
X167884Y130849D01*
X167960Y130889D01*
X168037Y130926D01*
X168116Y130959D01*
X168196Y130989D01*
X168363Y131068D01*
X168532Y131143D01*
X168703Y131214D01*
X168875Y131281D01*
X169049Y131343D01*
X169225Y131402D01*
X169401Y131456D01*
X169579Y131506D01*
X169759Y131552D01*
X169939Y131594D01*
X170120Y131631D01*
X170302Y131664D01*
X170484Y131693D01*
X170668Y131717D01*
X170852Y131737D01*
X171036Y131752D01*
X171220Y131763D01*
X171405Y131770D01*
X171590Y131772D01*
X171590Y126551D02*
X171775Y126553D01*
X171960Y126560D01*
X172144Y126571D01*
X172328Y126586D01*
X172512Y126606D01*
X172696Y126630D01*
X172878Y126659D01*
X173060Y126692D01*
X173241Y126729D01*
X173421Y126771D01*
X173601Y126817D01*
X173779Y126867D01*
X173955Y126921D01*
X174131Y126980D01*
X174305Y127042D01*
X174477Y127109D01*
X174648Y127180D01*
X174817Y127255D01*
X174984Y127334D01*
X174984Y127333D02*
X175064Y127363D01*
X175143Y127396D01*
X175220Y127433D01*
X175296Y127473D01*
X175370Y127516D01*
X175442Y127562D01*
X175511Y127612D01*
X175579Y127665D01*
X175644Y127720D01*
X175707Y127779D01*
X175766Y127840D01*
X175824Y127903D01*
X175878Y127970D01*
X175929Y128038D01*
X175977Y128109D01*
X176022Y128182D01*
X176064Y128256D01*
X176102Y128333D01*
X176137Y128411D01*
X176169Y128490D01*
X176197Y128571D01*
X176221Y128653D01*
X176242Y128737D01*
X176259Y128820D01*
X176272Y128905D01*
X176281Y128990D01*
X176287Y129075D01*
X176289Y129161D01*
X174984Y130989D02*
X174817Y131068D01*
X174648Y131143D01*
X174477Y131214D01*
X174305Y131281D01*
X174131Y131343D01*
X173955Y131402D01*
X173779Y131456D01*
X173601Y131506D01*
X173421Y131552D01*
X173241Y131594D01*
X173060Y131631D01*
X172878Y131664D01*
X172696Y131693D01*
X172512Y131717D01*
X172328Y131737D01*
X172144Y131752D01*
X171960Y131763D01*
X171775Y131770D01*
X171590Y131772D01*
X174984Y130989D02*
X175064Y130959D01*
X175143Y130926D01*
X175220Y130889D01*
X175296Y130849D01*
X175370Y130806D01*
X175442Y130760D01*
X175511Y130710D01*
X175579Y130658D01*
X175644Y130602D01*
X175707Y130544D01*
X175766Y130482D01*
X175824Y130419D01*
X175878Y130352D01*
X175929Y130284D01*
X175977Y130213D01*
X176022Y130140D01*
X176064Y130066D01*
X176102Y129989D01*
X176137Y129911D01*
X176169Y129832D01*
X176197Y129751D01*
X176221Y129669D01*
X176242Y129585D01*
X176259Y129502D01*
X176272Y129417D01*
X176281Y129332D01*
X176287Y129247D01*
X176289Y129161D01*
X174201Y127073D02*
X168979Y131250D01*
M02*
