G04 EAGLE Gerber RS-274X export*
G75*
%MOMM*%
%FSLAX34Y34*%
%LPD*%
%INSilkscreen Bottom*%
%IPPOS*%
%AMOC8*
5,1,8,0,0,1.08239X$1,22.5*%
G01*
%ADD10R,0.063500X1.013463*%
%ADD11R,0.063500X1.780538*%
%ADD12R,0.063500X2.796538*%
%ADD13R,0.063500X1.272538*%
%ADD14R,0.063500X0.949963*%
%ADD15R,0.063500X0.886463*%
%ADD16R,0.063500X0.822963*%
%ADD17R,0.063500X0.759463*%
%ADD18R,0.063500X0.695963*%
%ADD19R,0.063500X0.701037*%
%ADD20R,0.063500X0.637537*%
%ADD21R,0.063500X0.508000*%
%ADD22R,0.063500X0.510537*%
%ADD23R,0.063500X0.571500*%
%ADD24R,0.063500X0.568963*%
%ADD25R,0.063500X0.444500*%
%ADD26R,0.063500X0.825500*%
%ADD27R,0.063500X0.127000*%
%ADD28R,0.063500X0.447038*%
%ADD29R,0.063500X0.190500*%
%ADD30R,0.063500X0.381000*%
%ADD31R,0.063500X0.378463*%
%ADD32R,0.063500X0.441963*%
%ADD33R,0.063500X0.762000*%
%ADD34R,0.063500X1.076963*%
%ADD35R,0.063500X0.383538*%
%ADD36R,0.063500X1.203963*%
%ADD37R,0.063500X0.254000*%
%ADD38R,0.063500X1.460500*%
%ADD39R,0.063500X0.828038*%
%ADD40R,0.063500X0.320038*%
%ADD41R,0.063500X1.907538*%
%ADD42R,0.063500X1.018538*%
%ADD43R,0.063500X2.159000*%
%ADD44R,0.063500X1.651000*%
%ADD45R,0.063500X0.317500*%
%ADD46R,0.063500X0.314963*%
%ADD47R,0.063500X2.349500*%
%ADD48R,0.063500X4.127500*%
%ADD49R,0.063500X4.191000*%
%ADD50R,0.063500X4.257038*%
%ADD51R,0.063500X4.320538*%
%ADD52R,0.063500X4.381500*%
%ADD53R,0.063500X0.251463*%
%ADD54R,0.063500X4.378963*%
%ADD55R,0.063500X4.505962*%
%ADD56R,0.063500X4.569463*%
%ADD57R,0.063500X4.699000*%
%ADD58R,0.063500X4.762500*%
%ADD59R,0.063500X4.826000*%
%ADD60R,0.063500X5.013962*%
%ADD61R,0.063500X5.080000*%
%ADD62R,0.063500X0.256538*%
%ADD63R,0.063500X5.270500*%
%ADD64R,0.063500X5.397500*%
%ADD65R,0.063500X5.524500*%
%ADD66R,0.063500X5.588000*%
%ADD67R,0.063500X5.715000*%
%ADD68R,0.063500X5.778500*%
%ADD69R,0.063500X5.908038*%
%ADD70R,0.063500X2.410462*%
%ADD71R,0.063500X3.302000*%
%ADD72R,0.063500X2.473963*%
%ADD73R,0.063500X3.111500*%
%ADD74R,0.063500X0.193038*%
%ADD75R,0.063500X2.857500*%
%ADD76R,0.063500X2.923538*%
%ADD77R,0.063500X3.048000*%
%ADD78R,0.063500X3.299463*%
%ADD79R,0.063500X2.730500*%
%ADD80R,0.063500X0.187963*%
%ADD81R,0.063500X3.426462*%
%ADD82R,0.063500X1.209037*%
%ADD83R,0.063500X0.955038*%
%ADD84R,0.063500X3.556000*%
%ADD85R,0.063500X0.764538*%
%ADD86R,0.063500X3.810000*%
%ADD87R,0.063500X0.891538*%
%ADD88R,0.063500X3.934462*%
%ADD89R,0.063500X4.061463*%
%ADD90R,0.063500X4.251963*%
%ADD91R,0.063500X0.952500*%
%ADD92R,0.063500X0.574037*%
%ADD93R,0.063500X4.315463*%
%ADD94R,0.063500X2.854963*%
%ADD95R,0.063500X1.267463*%
%ADD96R,0.063500X2.540000*%
%ADD97R,0.063500X3.238500*%
%ADD98R,0.063500X3.619500*%
%ADD99R,0.063500X1.778000*%
%ADD100R,0.063500X3.807463*%
%ADD101R,0.063500X1.714500*%
%ADD102R,0.063500X4.318000*%
%ADD103R,0.063500X4.508500*%
%ADD104R,0.063500X1.524000*%
%ADD105R,0.063500X3.429000*%
%ADD106R,0.063500X0.889000*%
%ADD107R,0.063500X2.984500*%
%ADD108R,0.063500X1.397000*%
%ADD109R,0.063500X1.270000*%
%ADD110R,0.063500X1.587500*%
%ADD111R,0.063500X3.172462*%
%ADD112R,0.063500X3.495038*%
%ADD113R,0.063500X0.698500*%
%ADD114R,0.063500X3.622038*%
%ADD115R,0.063500X0.635000*%
%ADD116R,0.063500X3.683000*%
%ADD117R,0.063500X1.841500*%
%ADD118R,0.063500X5.651500*%
%ADD119R,0.063500X5.334000*%
%ADD120R,0.063500X5.143500*%
%ADD121R,0.063500X5.016500*%
%ADD122R,0.063500X4.953000*%
%ADD123R,0.063500X1.079500*%
%ADD124R,0.063500X1.206500*%
%ADD125R,0.063500X4.635500*%
%ADD126R,0.063500X4.445000*%
%ADD127R,0.063500X1.145538*%
%ADD128R,0.063500X1.968500*%
%ADD129R,0.063500X1.016000*%
%ADD130R,0.063500X1.838963*%
%ADD131R,0.063500X1.330963*%
%ADD132R,0.063500X1.711963*%
%ADD133R,0.063500X1.905000*%
%ADD134R,0.063500X1.143000*%
%ADD135R,0.063500X2.032000*%
%ADD136R,0.063500X2.156462*%
%ADD137R,0.063500X2.286000*%
%ADD138R,0.063500X2.413000*%
%ADD139R,0.063500X2.794000*%
%ADD140R,0.063500X1.648463*%
%ADD141R,0.063500X1.457963*%
%ADD142R,0.063500X7.871463*%
%ADD143R,0.063500X8.061962*%
%ADD144R,0.063500X1.965963*%
%ADD145R,0.063500X8.255000*%
%ADD146R,0.063500X2.095500*%
%ADD147R,0.063500X8.445500*%
%ADD148R,0.063500X2.219963*%
%ADD149R,0.063500X8.572500*%
%ADD150R,0.063500X8.763000*%
%ADD151R,0.063500X8.890000*%
%ADD152R,0.063500X9.017000*%
%ADD153R,0.063500X2.664462*%
%ADD154R,0.063500X9.144000*%
%ADD155R,0.063500X9.204963*%
%ADD156R,0.063500X9.268463*%
%ADD157R,0.063500X1.333500*%
%ADD158R,0.063500X9.331963*%
%ADD159R,0.063500X9.395463*%
%ADD160R,0.063500X1.140463*%
%ADD161R,0.063500X7.493000*%
%ADD162R,0.063500X7.239000*%
%ADD163R,0.063500X7.048500*%
%ADD164R,0.063500X6.860538*%
%ADD165R,0.063500X6.733538*%
%ADD166R,0.063500X6.479538*%
%ADD167R,0.063500X6.413500*%
%ADD168R,0.063500X6.286500*%
%ADD169R,0.063500X1.082037*%
%ADD170R,0.063500X6.093463*%
%ADD171R,0.063500X6.029962*%
%ADD172R,0.063500X1.336037*%
%ADD173R,0.063500X5.966463*%
%ADD174R,0.063500X1.399538*%
%ADD175R,0.063500X5.902963*%
%ADD176R,0.063500X5.775963*%
%ADD177R,0.063500X5.712462*%
%ADD178R,0.063500X5.458463*%
%ADD179R,0.063500X5.394963*%
%ADD180R,0.063500X0.063500*%
%ADD181R,0.063500X5.207000*%
%ADD182R,0.063500X5.146038*%
%ADD183R,0.063500X5.082537*%
%ADD184R,0.063500X5.140963*%
%ADD185R,0.063500X5.204462*%
%ADD186R,0.063500X5.209538*%
%ADD187R,0.063500X0.129537*%
%ADD188R,0.063500X5.077463*%
%ADD189R,0.063500X4.950463*%
%ADD190R,0.063500X4.886963*%
%ADD191R,0.063500X0.124463*%
%ADD192R,0.063500X4.823463*%
%ADD193R,0.063500X4.696462*%
%ADD194R,0.063500X4.632963*%
%ADD195R,0.063500X4.572000*%
%ADD196R,0.063500X4.447538*%
%ADD197R,0.063500X4.384037*%
%ADD198R,0.063500X4.188462*%
%ADD199R,0.063500X3.997963*%
%ADD200R,0.063500X3.746500*%
%ADD201R,0.063500X3.616963*%
%ADD202R,0.063500X3.489963*%
%ADD203R,0.063500X3.362963*%
%ADD204R,0.063500X3.045463*%
%ADD205R,0.063500X2.981963*%
%ADD206R,0.063500X2.667000*%
%ADD207R,0.063500X4.000500*%
%ADD208R,0.063500X1.521463*%
%ADD209R,0.063500X3.304538*%
%ADD210R,0.063500X3.114038*%
%ADD211R,0.063500X0.505463*%
%ADD212R,0.063500X2.603500*%
%ADD213R,0.063500X2.161538*%
%ADD214R,0.063500X2.476500*%
%ADD215R,0.063500X4.955538*%
%ADD216R,0.063500X4.124963*%
%ADD217R,0.063500X3.743963*%
%ADD218R,0.063500X3.241038*%
%ADD219R,0.063500X2.415538*%
%ADD220C,0.050800*%


D10*
X222250Y121603D03*
D11*
X221615Y121603D03*
D12*
X220980Y121603D03*
D13*
X220345Y111443D03*
X220345Y132398D03*
D14*
X219710Y107315D03*
D15*
X219710Y136208D03*
D16*
X219075Y104140D03*
X219075Y139700D03*
D17*
X218440Y101918D03*
D18*
X218440Y141605D03*
D19*
X217805Y99695D03*
D20*
X217805Y143828D03*
D21*
X217170Y97485D03*
D22*
X217170Y146368D03*
D23*
X216535Y95898D03*
D22*
X216535Y147638D03*
D24*
X215900Y93980D03*
D23*
X215900Y120028D03*
D21*
X215900Y149555D03*
D25*
X215265Y92723D03*
D26*
X215265Y118123D03*
D21*
X215265Y150825D03*
D22*
X214630Y91123D03*
D20*
X214630Y114618D03*
D27*
X214630Y121615D03*
D21*
X214630Y152095D03*
D28*
X213995Y89535D03*
D22*
X213995Y111443D03*
D29*
X213995Y121298D03*
D25*
X213995Y153683D03*
D30*
X213360Y88595D03*
D24*
X213360Y109855D03*
D27*
X213360Y120980D03*
D31*
X213360Y154623D03*
D32*
X212725Y87630D03*
D33*
X212725Y108255D03*
D29*
X212725Y120663D03*
D32*
X212725Y156210D03*
X212090Y86360D03*
D16*
X212090Y107315D03*
D29*
X212090Y120663D03*
D31*
X212090Y157163D03*
X211455Y85408D03*
D14*
X211455Y106045D03*
D29*
X211455Y120028D03*
D30*
X211455Y158420D03*
X210820Y84150D03*
D34*
X210820Y105410D03*
D29*
X210820Y120028D03*
D35*
X210820Y159703D03*
X210185Y82868D03*
D36*
X210185Y104775D03*
D37*
X210185Y119710D03*
D35*
X210185Y160338D03*
X209550Y82233D03*
D38*
X209550Y104127D03*
D37*
X209550Y119710D03*
D39*
X209550Y130810D03*
D35*
X209550Y161608D03*
D40*
X208915Y81280D03*
D41*
X208915Y105728D03*
D37*
X208915Y119710D03*
D42*
X208915Y129858D03*
D40*
X208915Y162560D03*
D30*
X208280Y80340D03*
D43*
X208280Y105105D03*
D44*
X208280Y126695D03*
D45*
X208280Y163208D03*
D46*
X207645Y79375D03*
D47*
X207645Y104788D03*
D44*
X207645Y126060D03*
D45*
X207645Y164478D03*
D31*
X207010Y78423D03*
D48*
X207010Y113043D03*
D45*
X207010Y165113D03*
X206375Y77483D03*
D49*
X206375Y112090D03*
D45*
X206375Y165748D03*
X205740Y76848D03*
D50*
X205740Y111125D03*
D37*
X205740Y166700D03*
D35*
X205105Y75883D03*
D50*
X205105Y110490D03*
D45*
X205105Y167653D03*
D40*
X204470Y74930D03*
D51*
X204470Y109538D03*
D46*
X204470Y168275D03*
D45*
X203835Y74308D03*
D51*
X203835Y108903D03*
D37*
X203835Y169240D03*
D45*
X203200Y73673D03*
D52*
X203200Y107963D03*
D53*
X203200Y169863D03*
D45*
X202565Y73038D03*
D54*
X202565Y107315D03*
D37*
X202565Y170510D03*
D46*
X201930Y72390D03*
D55*
X201930Y106680D03*
D37*
X201930Y171120D03*
D45*
X201295Y71742D03*
D55*
X201295Y106045D03*
D37*
X201295Y171780D03*
D40*
X200660Y71120D03*
D56*
X200660Y105728D03*
D37*
X200660Y172390D03*
D45*
X200025Y70498D03*
D57*
X200025Y105080D03*
D37*
X200025Y173050D03*
D45*
X199390Y69863D03*
D58*
X199390Y104762D03*
D37*
X199390Y173660D03*
D45*
X198755Y69228D03*
D59*
X198755Y104445D03*
D37*
X198755Y174320D03*
D46*
X198120Y68580D03*
D60*
X198120Y104140D03*
D37*
X198120Y174930D03*
D46*
X197485Y67945D03*
D61*
X197485Y104470D03*
D37*
X197485Y175590D03*
D62*
X196850Y66993D03*
D63*
X196850Y104153D03*
D62*
X196850Y176213D03*
D40*
X196215Y66675D03*
D64*
X196215Y104153D03*
D37*
X196215Y176860D03*
D45*
X195580Y66053D03*
D65*
X195580Y104153D03*
D45*
X195580Y177178D03*
D37*
X194945Y65735D03*
D66*
X194945Y103835D03*
D29*
X194945Y177813D03*
D37*
X194310Y65100D03*
D67*
X194310Y103835D03*
D29*
X194310Y178448D03*
D53*
X193675Y64453D03*
D68*
X193675Y103518D03*
D37*
X193675Y178765D03*
D53*
X193040Y63818D03*
D69*
X193040Y103505D03*
D37*
X193040Y179400D03*
D53*
X192405Y63818D03*
D69*
X192405Y103505D03*
D29*
X192405Y179718D03*
D62*
X191770Y63183D03*
D70*
X191770Y84773D03*
D71*
X191770Y116535D03*
D29*
X191770Y180353D03*
D62*
X191135Y62548D03*
D72*
X191135Y85090D03*
D73*
X191135Y118123D03*
D53*
X191135Y180658D03*
D74*
X190500Y62230D03*
D75*
X190500Y86373D03*
D76*
X190500Y119063D03*
D37*
X190500Y181305D03*
X189865Y61925D03*
D77*
X189865Y86690D03*
D12*
X189865Y119698D03*
D29*
X189865Y181623D03*
D37*
X189230Y61290D03*
D78*
X189230Y87313D03*
D79*
X189230Y120663D03*
D53*
X189230Y181928D03*
D80*
X188595Y60960D03*
D81*
X188595Y87948D03*
D82*
X188595Y114300D03*
D83*
X188595Y129540D03*
D37*
X188595Y182575D03*
D53*
X187960Y60643D03*
D84*
X187960Y87935D03*
D42*
X187960Y114618D03*
D85*
X187960Y130493D03*
D74*
X187960Y182880D03*
D53*
X187325Y60008D03*
D86*
X187325Y88570D03*
D87*
X187325Y115253D03*
D19*
X187325Y130810D03*
D37*
X187325Y183185D03*
D29*
X186690Y59703D03*
D88*
X186690Y88583D03*
D83*
X186690Y116205D03*
D19*
X186690Y131445D03*
D37*
X186690Y183845D03*
D62*
X186055Y59373D03*
D89*
X186055Y89218D03*
D83*
X186055Y117475D03*
D20*
X186055Y131763D03*
D74*
X186055Y184150D03*
X185420Y59055D03*
D90*
X185420Y89535D03*
D91*
X185420Y118758D03*
D92*
X185420Y132080D03*
D37*
X185420Y184455D03*
X184785Y58750D03*
D93*
X184785Y89853D03*
D10*
X184785Y119063D03*
D92*
X184785Y132080D03*
D80*
X184785Y184785D03*
D37*
X184150Y58115D03*
D94*
X184150Y81915D03*
D95*
X184150Y106363D03*
D10*
X184150Y120333D03*
D92*
X184150Y132080D03*
D74*
X184150Y185420D03*
D29*
X183515Y57798D03*
D96*
X183515Y80340D03*
D26*
X183515Y108572D03*
D10*
X183515Y120968D03*
D20*
X183515Y131763D03*
D74*
X183515Y185420D03*
D62*
X182880Y57468D03*
D97*
X182880Y83198D03*
D33*
X182880Y110185D03*
D10*
X182880Y121603D03*
D19*
X182880Y131445D03*
D80*
X182880Y186055D03*
D29*
X182245Y57137D03*
D98*
X182245Y84468D03*
D92*
X182245Y111760D03*
D99*
X182245Y126695D03*
D80*
X182245Y186055D03*
D53*
X181610Y56833D03*
D100*
X181610Y85408D03*
D28*
X181610Y113030D03*
D101*
X181610Y127013D03*
D37*
X181610Y186385D03*
D29*
X180975Y56528D03*
D49*
X180975Y86665D03*
D28*
X180975Y114300D03*
D44*
X180975Y127330D03*
D37*
X180975Y186995D03*
X180340Y56210D03*
D102*
X180340Y87300D03*
D45*
X180340Y115583D03*
D44*
X180340Y127965D03*
D80*
X180340Y187325D03*
D29*
X179705Y55893D03*
D103*
X179705Y88252D03*
D37*
X179705Y116535D03*
D104*
X179705Y128600D03*
D80*
X179705Y187325D03*
D29*
X179070Y55893D03*
D57*
X179070Y88570D03*
D27*
X179070Y117805D03*
D38*
X179070Y128918D03*
D74*
X179070Y187960D03*
D29*
X178435Y55232D03*
D59*
X178435Y89205D03*
D27*
X178435Y118440D03*
D38*
X178435Y128918D03*
D74*
X178435Y187960D03*
D29*
X177800Y55232D03*
D105*
X177800Y81610D03*
D106*
X177800Y110820D03*
D27*
X177800Y119710D03*
D38*
X177800Y129553D03*
D80*
X177800Y188595D03*
D29*
X177165Y54623D03*
D107*
X177165Y79388D03*
D22*
X177165Y113983D03*
D27*
X177165Y120345D03*
D108*
X177165Y129870D03*
D80*
X177165Y188595D03*
D29*
X176530Y54623D03*
D75*
X176530Y78753D03*
D28*
X176530Y115570D03*
D27*
X176530Y121615D03*
D38*
X176530Y130188D03*
D74*
X176530Y189230D03*
D37*
X175895Y54305D03*
D14*
X175895Y69215D03*
D44*
X175895Y84150D03*
D109*
X175895Y100025D03*
D37*
X175895Y117805D03*
D110*
X175895Y129553D03*
D74*
X175895Y189230D03*
D29*
X175260Y53988D03*
D26*
X175260Y68593D03*
D111*
X175260Y94298D03*
D29*
X175260Y119393D03*
D44*
X175260Y129870D03*
D74*
X175260Y189230D03*
D62*
X174625Y53658D03*
D33*
X174625Y68275D03*
D112*
X174625Y97155D03*
D99*
X174625Y129235D03*
D37*
X174625Y189535D03*
D62*
X173990Y53658D03*
D113*
X173990Y67958D03*
D114*
X173990Y99060D03*
D99*
X173990Y129870D03*
D80*
X173990Y189865D03*
D62*
X173355Y53658D03*
D115*
X173355Y67640D03*
D116*
X173355Y100660D03*
D117*
X173355Y130188D03*
D37*
X173355Y190195D03*
D40*
X172720Y53340D03*
D115*
X172720Y67640D03*
D118*
X172720Y111138D03*
D74*
X172720Y190500D03*
D37*
X172085Y53010D03*
D115*
X172085Y67640D03*
D66*
X172085Y111455D03*
D74*
X172085Y190500D03*
D37*
X171450Y53010D03*
D113*
X171450Y67323D03*
D64*
X171450Y111138D03*
D37*
X171450Y190805D03*
X170815Y53010D03*
D113*
X170815Y67323D03*
D119*
X170815Y111455D03*
D80*
X170815Y191135D03*
D46*
X170180Y52705D03*
D33*
X170180Y67640D03*
D63*
X170180Y111138D03*
D80*
X170180Y191135D03*
D46*
X169545Y52705D03*
D113*
X169545Y67958D03*
D120*
X169545Y111138D03*
D80*
X169545Y191135D03*
D46*
X168910Y52705D03*
D33*
X168910Y68275D03*
D121*
X168910Y111138D03*
D74*
X168910Y191770D03*
D31*
X168275Y52388D03*
D26*
X168275Y68593D03*
D121*
X168275Y111138D03*
D74*
X168275Y191770D03*
D31*
X167640Y52388D03*
D14*
X167640Y69215D03*
D122*
X167640Y110820D03*
D74*
X167640Y191770D03*
D31*
X167005Y52388D03*
D123*
X167005Y69863D03*
D59*
X167005Y110820D03*
D29*
X167005Y192418D03*
D31*
X166370Y52388D03*
D124*
X166370Y70498D03*
D58*
X166370Y110503D03*
D29*
X166370Y192418D03*
D32*
X165735Y52070D03*
D124*
X165735Y70498D03*
D57*
X165735Y110185D03*
D29*
X165735Y192418D03*
D32*
X165100Y52070D03*
D109*
X165100Y70815D03*
D125*
X165100Y109868D03*
D29*
X165100Y192418D03*
D21*
X164465Y52400D03*
D109*
X164465Y70815D03*
D103*
X164465Y109233D03*
D29*
X164465Y192418D03*
D21*
X163830Y52400D03*
D82*
X163830Y71120D03*
D126*
X163830Y108915D03*
D37*
X163830Y192735D03*
D92*
X163195Y52070D03*
D127*
X163195Y71438D03*
D102*
X163195Y108280D03*
D74*
X163195Y193040D03*
D92*
X162560Y52070D03*
D127*
X162560Y71438D03*
D128*
X162560Y96533D03*
D44*
X162560Y120320D03*
D74*
X162560Y193040D03*
D20*
X161925Y52388D03*
D129*
X161925Y71450D03*
D130*
X161925Y95885D03*
D131*
X161925Y120650D03*
D74*
X161925Y193040D03*
D20*
X161290Y52388D03*
D91*
X161290Y71768D03*
D132*
X161290Y95250D03*
D15*
X161290Y120968D03*
D74*
X161290Y193040D03*
D20*
X160655Y52388D03*
D26*
X160655Y71768D03*
D101*
X160655Y94628D03*
D30*
X160655Y120980D03*
D62*
X160655Y193358D03*
D17*
X160020Y52388D03*
D23*
X160020Y71768D03*
D44*
X160020Y94310D03*
D29*
X160020Y193688D03*
D17*
X159385Y52388D03*
D29*
X159385Y71768D03*
D101*
X159385Y93993D03*
D29*
X159385Y193688D03*
D26*
X158750Y52718D03*
D44*
X158750Y93675D03*
D29*
X158750Y193688D03*
D26*
X158115Y52718D03*
D44*
X158115Y93675D03*
D29*
X158115Y193688D03*
D106*
X157480Y53035D03*
D101*
X157480Y93358D03*
D29*
X157480Y193688D03*
D14*
X156845Y53340D03*
D99*
X156845Y93040D03*
D29*
X156845Y193688D03*
D14*
X156210Y53340D03*
D117*
X156210Y93358D03*
D29*
X156210Y194323D03*
D129*
X155575Y53670D03*
D133*
X155575Y93040D03*
D29*
X155575Y194323D03*
D134*
X154940Y54305D03*
D135*
X154940Y93040D03*
D29*
X154940Y194323D03*
D134*
X154305Y54305D03*
D136*
X154305Y93028D03*
D29*
X154305Y194323D03*
D95*
X153670Y54928D03*
D137*
X153670Y93015D03*
D29*
X153670Y194323D03*
D131*
X153035Y55245D03*
D138*
X153035Y93015D03*
D29*
X153035Y194323D03*
D38*
X152400Y55893D03*
D139*
X152400Y93650D03*
D29*
X152400Y194323D03*
D110*
X151765Y56528D03*
D111*
X151765Y94933D03*
D29*
X151765Y194323D03*
D140*
X151130Y56833D03*
D116*
X151130Y95580D03*
D26*
X151130Y174638D03*
D29*
X151130Y194323D03*
D128*
X150495Y57798D03*
D102*
X150495Y96850D03*
D124*
X150495Y174638D03*
D29*
X150495Y194323D03*
D137*
X149860Y59385D03*
D122*
X149860Y96850D03*
D141*
X149860Y174625D03*
D29*
X149860Y194323D03*
D142*
X149225Y87313D03*
D132*
X149225Y174625D03*
D29*
X149225Y194323D03*
D143*
X148590Y88265D03*
D144*
X148590Y174625D03*
D29*
X148590Y194323D03*
D145*
X147955Y89230D03*
D146*
X147955Y174638D03*
D29*
X147955Y194323D03*
D147*
X147320Y90818D03*
D148*
X147320Y174625D03*
D29*
X147320Y194323D03*
D149*
X146685Y91453D03*
D47*
X146685Y174638D03*
D29*
X146685Y194323D03*
D150*
X146050Y92405D03*
D70*
X146050Y174943D03*
D29*
X146050Y194323D03*
D151*
X145415Y93040D03*
D96*
X145415Y174955D03*
D29*
X145415Y194323D03*
D152*
X144780Y93675D03*
D153*
X144780Y174943D03*
D29*
X144780Y194323D03*
D154*
X144145Y92278D03*
D79*
X144145Y174612D03*
D29*
X144145Y194323D03*
D155*
X143510Y94615D03*
D12*
X143510Y174943D03*
D29*
X143510Y194323D03*
D156*
X142875Y94933D03*
D157*
X142875Y166992D03*
D38*
X142875Y181623D03*
D29*
X142875Y194323D03*
D158*
X142240Y95250D03*
D123*
X142240Y165722D03*
D36*
X142240Y183515D03*
D29*
X142240Y194323D03*
D159*
X141605Y95568D03*
D129*
X141605Y164770D03*
D160*
X141605Y183833D03*
D29*
X141605Y194323D03*
D159*
X140970Y95568D03*
D83*
X140970Y164465D03*
D123*
X140970Y184798D03*
D29*
X140970Y193688D03*
D159*
X140335Y95568D03*
D83*
X140335Y164465D03*
D129*
X140335Y185115D03*
D29*
X140335Y193688D03*
D159*
X139700Y95568D03*
D87*
X139700Y164148D03*
D129*
X139700Y185115D03*
D29*
X139700Y193688D03*
D161*
X139065Y86055D03*
D38*
X139065Y135242D03*
D87*
X139065Y164148D03*
D10*
X139065Y185738D03*
D29*
X139065Y193688D03*
D162*
X138430Y84785D03*
D36*
X138430Y135890D03*
D87*
X138430Y164148D03*
D14*
X138430Y186055D03*
D29*
X138430Y193688D03*
D163*
X137795Y83833D03*
D10*
X137795Y136208D03*
D87*
X137795Y164148D03*
D14*
X137795Y186055D03*
D29*
X137795Y193688D03*
D164*
X137160Y83503D03*
D17*
X137160Y136843D03*
D87*
X137160Y164148D03*
D83*
X137160Y186690D03*
D29*
X137160Y193688D03*
D165*
X136525Y82868D03*
D25*
X136525Y136538D03*
D87*
X136525Y164148D03*
D83*
X136525Y186690D03*
D74*
X136525Y193040D03*
D166*
X135890Y81598D03*
D83*
X135890Y164465D03*
X135890Y186690D03*
D74*
X135890Y193040D03*
D167*
X135255Y81267D03*
D83*
X135255Y164465D03*
X135255Y186690D03*
D74*
X135255Y193040D03*
D168*
X134620Y80632D03*
D169*
X134620Y165100D03*
D82*
X134620Y187960D03*
D170*
X133985Y80328D03*
D82*
X133985Y165735D03*
D134*
X133985Y188290D03*
D171*
X133350Y80010D03*
D172*
X133350Y166370D03*
D123*
X133350Y187973D03*
D173*
X132715Y79693D03*
D174*
X132715Y167323D03*
D123*
X132715Y187973D03*
D175*
X132080Y79375D03*
D172*
X132080Y167640D03*
D123*
X132080Y187973D03*
D176*
X131445Y79375D03*
D108*
X131445Y167945D03*
D123*
X131445Y187973D03*
D177*
X130810Y79058D03*
D131*
X130810Y168275D03*
D129*
X130810Y187655D03*
D118*
X130175Y78753D03*
D157*
X130175Y168923D03*
D129*
X130175Y187655D03*
D66*
X129540Y78435D03*
D109*
X129540Y169240D03*
D129*
X129540Y187655D03*
D65*
X128905Y78753D03*
D124*
X128905Y169558D03*
D14*
X128905Y187325D03*
D178*
X128270Y78423D03*
D34*
X128270Y169545D03*
D14*
X128270Y187325D03*
D179*
X127635Y78105D03*
D106*
X127635Y169875D03*
D14*
X127635Y187325D03*
D63*
X127000Y78092D03*
D180*
X127000Y122568D03*
D26*
X127000Y170193D03*
D14*
X127000Y187325D03*
D181*
X126365Y77775D03*
D53*
X126365Y124143D03*
D74*
X126365Y170815D03*
D14*
X126365Y187325D03*
D181*
X125730Y77775D03*
D45*
X125730Y125717D03*
D83*
X125730Y186690D03*
D182*
X125095Y77470D03*
D180*
X125095Y121933D03*
D22*
X125095Y128588D03*
D83*
X125095Y186690D03*
D183*
X124460Y77788D03*
D27*
X124460Y122250D03*
D28*
X124460Y130810D03*
D106*
X124460Y186360D03*
D120*
X123825Y78092D03*
D80*
X123825Y123825D03*
D106*
X123825Y134950D03*
D29*
X123825Y147968D03*
D106*
X123825Y186360D03*
D184*
X123190Y78740D03*
D27*
X123190Y120980D03*
D29*
X123190Y125082D03*
D14*
X123190Y140335D03*
D106*
X123190Y186360D03*
D185*
X122555Y79058D03*
D27*
X122555Y121615D03*
D37*
X122555Y126035D03*
D39*
X122555Y186055D03*
D185*
X121920Y79058D03*
D27*
X121920Y122250D03*
D37*
X121920Y127305D03*
D106*
X121920Y185750D03*
D185*
X121285Y79693D03*
D27*
X121285Y122885D03*
D62*
X121285Y128588D03*
D16*
X121285Y185420D03*
D185*
X120650Y79693D03*
D80*
X120650Y123825D03*
D40*
X120650Y130175D03*
D16*
X120650Y185420D03*
D186*
X120015Y80328D03*
D80*
X120015Y124460D03*
D37*
X120015Y131775D03*
D15*
X120015Y185103D03*
D186*
X119380Y80328D03*
D29*
X119380Y125082D03*
D45*
X119380Y133363D03*
D26*
X119380Y184798D03*
D120*
X118745Y80658D03*
D37*
X118745Y126035D03*
D30*
X118745Y135585D03*
D106*
X118745Y184480D03*
D181*
X118110Y80975D03*
D29*
X118110Y126987D03*
D45*
X118110Y137173D03*
D16*
X118110Y184150D03*
D181*
X117475Y80975D03*
D29*
X117475Y127622D03*
D32*
X117475Y139700D03*
D15*
X117475Y183833D03*
D120*
X116840Y81293D03*
D29*
X116840Y115583D03*
X116840Y128257D03*
D22*
X116840Y144463D03*
D26*
X116840Y183528D03*
D185*
X116205Y81598D03*
D45*
X116205Y115583D03*
D187*
X116205Y129223D03*
D106*
X116205Y183210D03*
D120*
X115570Y81902D03*
D25*
X115570Y116218D03*
D74*
X115570Y130175D03*
D16*
X115570Y182880D03*
D188*
X114935Y82233D03*
D25*
X114935Y116853D03*
D27*
X114935Y131140D03*
D15*
X114935Y182563D03*
D188*
X114300Y82233D03*
D21*
X114300Y117805D03*
D29*
X114300Y132093D03*
D26*
X114300Y182258D03*
D60*
X113665Y82550D03*
D23*
X113665Y118123D03*
D29*
X113665Y133363D03*
D106*
X113665Y181940D03*
D60*
X113030Y82550D03*
D23*
X113030Y119393D03*
D29*
X113030Y133998D03*
D16*
X113030Y181610D03*
D121*
X112395Y83172D03*
D25*
X112395Y120028D03*
D29*
X112395Y135268D03*
D15*
X112395Y181293D03*
D121*
X111760Y83172D03*
D29*
X111760Y136538D03*
D87*
X111760Y180658D03*
D189*
X111125Y83503D03*
D29*
X111125Y137808D03*
D91*
X111125Y180353D03*
D190*
X110490Y83820D03*
D29*
X110490Y139078D03*
D15*
X110490Y180023D03*
D189*
X109855Y84138D03*
D191*
X109855Y140653D03*
D87*
X109855Y179388D03*
D190*
X109220Y84455D03*
D29*
X109220Y143497D03*
D91*
X109220Y179083D03*
D190*
X108585Y84455D03*
D15*
X108585Y178753D03*
D192*
X107950Y84773D03*
D87*
X107950Y178118D03*
D59*
X107315Y85395D03*
D15*
X107315Y177483D03*
D59*
X106680Y85395D03*
D91*
X106680Y177152D03*
D58*
X106045Y85712D03*
D91*
X106045Y176543D03*
D193*
X105410Y86043D03*
D83*
X105410Y175895D03*
D193*
X104775Y86678D03*
D129*
X104775Y175590D03*
D193*
X104140Y86678D03*
D42*
X104140Y174943D03*
D193*
X103505Y87313D03*
D129*
X103505Y174320D03*
D194*
X102870Y87630D03*
D129*
X102870Y173685D03*
D125*
X102235Y88252D03*
D129*
X102235Y173050D03*
D125*
X101600Y88887D03*
D123*
X101600Y172733D03*
D194*
X100965Y89535D03*
D123*
X100965Y172098D03*
D193*
X100330Y89853D03*
D123*
X100330Y171463D03*
D125*
X99695Y90818D03*
D34*
X99695Y170815D03*
D57*
X99060Y91135D03*
D123*
X99060Y170193D03*
D125*
X98425Y91453D03*
D34*
X98425Y169545D03*
D195*
X97790Y91770D03*
D123*
X97790Y168923D03*
D196*
X97155Y91758D03*
D160*
X97155Y167958D03*
D197*
X96520Y92075D03*
D134*
X96520Y167335D03*
D90*
X95885Y92075D03*
D134*
X95885Y166675D03*
D198*
X95250Y92393D03*
D82*
X95250Y165735D03*
D199*
X94615Y92710D03*
D124*
X94615Y165087D03*
D88*
X93980Y92393D03*
D82*
X93980Y164465D03*
D200*
X93345Y92697D03*
D109*
X93345Y163500D03*
D201*
X92710Y92710D03*
D82*
X92710Y162560D03*
D202*
X92075Y92710D03*
D109*
X92075Y161620D03*
D203*
X91440Y92710D03*
D157*
X91440Y160668D03*
D111*
X90805Y93028D03*
D157*
X90805Y160033D03*
D204*
X90170Y93028D03*
D157*
X90170Y158763D03*
D205*
X89535Y93345D03*
D108*
X89535Y157810D03*
D139*
X88900Y93650D03*
D29*
X88900Y121298D03*
D180*
X88900Y125082D03*
D38*
X88900Y156858D03*
D79*
X88265Y93967D03*
D25*
X88265Y120028D03*
D27*
X88265Y125400D03*
D38*
X88265Y155588D03*
D206*
X87630Y94920D03*
D113*
X87630Y118758D03*
D37*
X87630Y125400D03*
D38*
X87630Y154318D03*
D207*
X86995Y102248D03*
D37*
X86995Y125400D03*
D62*
X86995Y129223D03*
D208*
X86995Y153353D03*
D86*
X86360Y102565D03*
D19*
X86360Y127635D03*
D104*
X86360Y152070D03*
D200*
X85725Y102883D03*
D33*
X85725Y127330D03*
D44*
X85725Y150800D03*
D98*
X85090Y103518D03*
D113*
X85090Y127013D03*
D44*
X85090Y149530D03*
D105*
X84455Y103835D03*
D113*
X84455Y127013D03*
D140*
X84455Y148273D03*
D209*
X83820Y104458D03*
D113*
X83820Y126378D03*
D99*
X83820Y146380D03*
D210*
X83185Y104775D03*
D24*
X83185Y125730D03*
D117*
X83185Y144793D03*
D107*
X82550Y105423D03*
D211*
X82550Y124778D03*
D133*
X82550Y143205D03*
D79*
X81915Y106058D03*
D27*
X81915Y122250D03*
D128*
X81915Y140983D03*
D212*
X81280Y106693D03*
D213*
X81280Y139383D03*
D138*
X80645Y107010D03*
D214*
X80645Y135903D03*
D215*
X80010Y121603D03*
D194*
X79375Y121920D03*
D216*
X78740Y121920D03*
D217*
X78105Y121920D03*
D218*
X77470Y121920D03*
D219*
X76835Y121603D03*
D110*
X76200Y121933D03*
D220*
X42672Y11035D02*
X37084Y11035D01*
X37084Y10414D02*
X37084Y11656D01*
X42672Y11656D02*
X42672Y10414D01*
X39257Y14282D02*
X38636Y15834D01*
X39257Y14282D02*
X39279Y14231D01*
X39305Y14182D01*
X39334Y14134D01*
X39367Y14089D01*
X39403Y14046D01*
X39441Y14005D01*
X39483Y13968D01*
X39526Y13933D01*
X39572Y13901D01*
X39621Y13873D01*
X39671Y13848D01*
X39722Y13827D01*
X39775Y13809D01*
X39829Y13795D01*
X39884Y13785D01*
X39940Y13779D01*
X39995Y13776D01*
X40051Y13777D01*
X40107Y13783D01*
X40162Y13792D01*
X40216Y13804D01*
X40270Y13821D01*
X40322Y13841D01*
X40372Y13865D01*
X40421Y13892D01*
X40468Y13923D01*
X40512Y13957D01*
X40554Y13993D01*
X40594Y14033D01*
X40630Y14075D01*
X40664Y14120D01*
X40694Y14167D01*
X40721Y14215D01*
X40745Y14266D01*
X40765Y14318D01*
X40781Y14372D01*
X40794Y14426D01*
X40803Y14481D01*
X40808Y14537D01*
X40809Y14593D01*
X40810Y14592D02*
X40806Y14703D01*
X40800Y14814D01*
X40789Y14924D01*
X40775Y15034D01*
X40758Y15144D01*
X40738Y15253D01*
X40714Y15361D01*
X40686Y15468D01*
X40655Y15575D01*
X40621Y15680D01*
X40584Y15785D01*
X40543Y15888D01*
X40499Y15990D01*
X38636Y15834D02*
X38614Y15885D01*
X38588Y15934D01*
X38559Y15982D01*
X38526Y16027D01*
X38490Y16070D01*
X38452Y16111D01*
X38410Y16148D01*
X38367Y16183D01*
X38321Y16215D01*
X38272Y16243D01*
X38222Y16268D01*
X38171Y16289D01*
X38118Y16307D01*
X38064Y16321D01*
X38009Y16331D01*
X37953Y16337D01*
X37898Y16340D01*
X37842Y16339D01*
X37786Y16333D01*
X37731Y16324D01*
X37677Y16312D01*
X37623Y16295D01*
X37571Y16275D01*
X37521Y16251D01*
X37472Y16224D01*
X37425Y16193D01*
X37381Y16159D01*
X37339Y16123D01*
X37299Y16083D01*
X37263Y16041D01*
X37229Y15996D01*
X37199Y15949D01*
X37172Y15901D01*
X37148Y15850D01*
X37128Y15798D01*
X37112Y15744D01*
X37099Y15690D01*
X37090Y15635D01*
X37085Y15579D01*
X37084Y15523D01*
X37084Y15524D02*
X37087Y15390D01*
X37094Y15256D01*
X37105Y15122D01*
X37118Y14989D01*
X37136Y14856D01*
X37156Y14723D01*
X37180Y14591D01*
X37208Y14460D01*
X37238Y14329D01*
X37272Y14200D01*
X37310Y14071D01*
X37350Y13943D01*
X37394Y13816D01*
X39257Y19629D02*
X39257Y21026D01*
X39258Y19629D02*
X39256Y19565D01*
X39250Y19500D01*
X39241Y19437D01*
X39228Y19374D01*
X39211Y19312D01*
X39190Y19251D01*
X39166Y19191D01*
X39138Y19133D01*
X39107Y19076D01*
X39073Y19022D01*
X39035Y18969D01*
X38994Y18919D01*
X38951Y18872D01*
X38905Y18827D01*
X38856Y18785D01*
X38805Y18746D01*
X38751Y18710D01*
X38696Y18677D01*
X38638Y18648D01*
X38580Y18622D01*
X38519Y18599D01*
X38458Y18580D01*
X38395Y18565D01*
X38331Y18554D01*
X38268Y18546D01*
X38203Y18542D01*
X38139Y18542D01*
X38074Y18546D01*
X38011Y18554D01*
X37947Y18565D01*
X37884Y18580D01*
X37823Y18599D01*
X37762Y18622D01*
X37704Y18648D01*
X37646Y18677D01*
X37591Y18710D01*
X37537Y18746D01*
X37486Y18785D01*
X37437Y18827D01*
X37391Y18872D01*
X37348Y18919D01*
X37307Y18969D01*
X37269Y19022D01*
X37235Y19076D01*
X37204Y19133D01*
X37176Y19191D01*
X37152Y19251D01*
X37131Y19312D01*
X37114Y19374D01*
X37101Y19437D01*
X37092Y19500D01*
X37086Y19565D01*
X37084Y19629D01*
X37084Y21026D01*
X39878Y21026D01*
X39936Y21024D01*
X39995Y21019D01*
X40052Y21010D01*
X40110Y20997D01*
X40166Y20980D01*
X40221Y20961D01*
X40274Y20937D01*
X40327Y20911D01*
X40377Y20881D01*
X40425Y20848D01*
X40471Y20812D01*
X40515Y20774D01*
X40557Y20732D01*
X40595Y20688D01*
X40631Y20642D01*
X40664Y20594D01*
X40694Y20544D01*
X40720Y20491D01*
X40744Y20438D01*
X40763Y20383D01*
X40780Y20327D01*
X40793Y20269D01*
X40802Y20212D01*
X40807Y20153D01*
X40809Y20095D01*
X40809Y18853D01*
X42672Y23721D02*
X37084Y23721D01*
X37084Y25273D01*
X37086Y25331D01*
X37091Y25390D01*
X37100Y25447D01*
X37113Y25505D01*
X37130Y25561D01*
X37149Y25616D01*
X37173Y25669D01*
X37199Y25722D01*
X37229Y25772D01*
X37262Y25820D01*
X37298Y25866D01*
X37336Y25910D01*
X37378Y25952D01*
X37422Y25990D01*
X37468Y26026D01*
X37516Y26059D01*
X37566Y26089D01*
X37619Y26115D01*
X37672Y26139D01*
X37727Y26158D01*
X37783Y26175D01*
X37841Y26188D01*
X37898Y26197D01*
X37957Y26202D01*
X38015Y26204D01*
X39878Y26204D01*
X39936Y26202D01*
X39995Y26197D01*
X40052Y26188D01*
X40110Y26175D01*
X40166Y26158D01*
X40221Y26139D01*
X40274Y26115D01*
X40327Y26089D01*
X40377Y26059D01*
X40425Y26026D01*
X40471Y25990D01*
X40515Y25952D01*
X40557Y25910D01*
X40595Y25866D01*
X40631Y25820D01*
X40664Y25772D01*
X40694Y25722D01*
X40720Y25669D01*
X40744Y25616D01*
X40763Y25561D01*
X40780Y25505D01*
X40793Y25447D01*
X40802Y25390D01*
X40807Y25331D01*
X40809Y25273D01*
X40809Y23721D01*
X37084Y29378D02*
X37084Y30930D01*
X37084Y29378D02*
X37086Y29320D01*
X37091Y29261D01*
X37100Y29204D01*
X37113Y29146D01*
X37130Y29090D01*
X37149Y29035D01*
X37173Y28982D01*
X37199Y28929D01*
X37229Y28879D01*
X37262Y28831D01*
X37298Y28785D01*
X37336Y28741D01*
X37378Y28699D01*
X37422Y28661D01*
X37468Y28625D01*
X37516Y28592D01*
X37566Y28562D01*
X37619Y28536D01*
X37672Y28512D01*
X37727Y28493D01*
X37783Y28476D01*
X37841Y28463D01*
X37898Y28454D01*
X37957Y28449D01*
X38015Y28447D01*
X39568Y28447D01*
X39638Y28449D01*
X39707Y28455D01*
X39776Y28465D01*
X39844Y28478D01*
X39912Y28496D01*
X39978Y28517D01*
X40043Y28542D01*
X40107Y28570D01*
X40169Y28602D01*
X40229Y28637D01*
X40287Y28676D01*
X40342Y28718D01*
X40396Y28763D01*
X40446Y28811D01*
X40494Y28861D01*
X40539Y28915D01*
X40581Y28970D01*
X40620Y29028D01*
X40655Y29088D01*
X40687Y29150D01*
X40715Y29214D01*
X40740Y29279D01*
X40761Y29345D01*
X40779Y29413D01*
X40792Y29481D01*
X40802Y29550D01*
X40808Y29619D01*
X40810Y29689D01*
X40808Y29759D01*
X40802Y29828D01*
X40792Y29897D01*
X40779Y29965D01*
X40761Y30033D01*
X40740Y30099D01*
X40715Y30164D01*
X40687Y30228D01*
X40655Y30290D01*
X40620Y30350D01*
X40581Y30408D01*
X40539Y30463D01*
X40494Y30517D01*
X40446Y30567D01*
X40396Y30615D01*
X40342Y30660D01*
X40287Y30702D01*
X40229Y30741D01*
X40169Y30776D01*
X40107Y30808D01*
X40043Y30836D01*
X39978Y30861D01*
X39912Y30882D01*
X39844Y30900D01*
X39776Y30913D01*
X39707Y30923D01*
X39638Y30929D01*
X39568Y30931D01*
X39568Y30930D02*
X38947Y30930D01*
X38947Y28447D01*
X38015Y33271D02*
X42672Y33271D01*
X38015Y33271D02*
X37957Y33273D01*
X37898Y33278D01*
X37841Y33287D01*
X37783Y33300D01*
X37727Y33317D01*
X37672Y33336D01*
X37619Y33360D01*
X37566Y33386D01*
X37516Y33416D01*
X37468Y33449D01*
X37422Y33485D01*
X37378Y33523D01*
X37336Y33565D01*
X37298Y33609D01*
X37262Y33655D01*
X37229Y33703D01*
X37199Y33753D01*
X37173Y33806D01*
X37149Y33859D01*
X37130Y33914D01*
X37113Y33970D01*
X37100Y34028D01*
X37091Y34085D01*
X37086Y34144D01*
X37084Y34202D01*
X38015Y36197D02*
X42672Y36197D01*
X38015Y36197D02*
X37957Y36199D01*
X37898Y36204D01*
X37841Y36213D01*
X37783Y36226D01*
X37727Y36243D01*
X37672Y36262D01*
X37619Y36286D01*
X37566Y36312D01*
X37516Y36342D01*
X37468Y36375D01*
X37422Y36411D01*
X37378Y36449D01*
X37336Y36491D01*
X37298Y36535D01*
X37262Y36581D01*
X37229Y36629D01*
X37199Y36679D01*
X37173Y36732D01*
X37149Y36785D01*
X37130Y36840D01*
X37113Y36896D01*
X37100Y36954D01*
X37091Y37011D01*
X37086Y37070D01*
X37084Y37128D01*
X39257Y40111D02*
X39257Y41508D01*
X39258Y40111D02*
X39256Y40047D01*
X39250Y39982D01*
X39241Y39919D01*
X39228Y39856D01*
X39211Y39794D01*
X39190Y39733D01*
X39166Y39673D01*
X39138Y39615D01*
X39107Y39558D01*
X39073Y39504D01*
X39035Y39451D01*
X38994Y39401D01*
X38951Y39354D01*
X38905Y39309D01*
X38856Y39267D01*
X38805Y39228D01*
X38751Y39192D01*
X38696Y39159D01*
X38638Y39130D01*
X38580Y39104D01*
X38519Y39081D01*
X38458Y39062D01*
X38395Y39047D01*
X38331Y39036D01*
X38268Y39028D01*
X38203Y39024D01*
X38139Y39024D01*
X38074Y39028D01*
X38011Y39036D01*
X37947Y39047D01*
X37884Y39062D01*
X37823Y39081D01*
X37762Y39104D01*
X37704Y39130D01*
X37646Y39159D01*
X37591Y39192D01*
X37537Y39228D01*
X37486Y39267D01*
X37437Y39309D01*
X37391Y39354D01*
X37348Y39401D01*
X37307Y39451D01*
X37269Y39504D01*
X37235Y39558D01*
X37204Y39615D01*
X37176Y39673D01*
X37152Y39733D01*
X37131Y39794D01*
X37114Y39856D01*
X37101Y39919D01*
X37092Y39982D01*
X37086Y40047D01*
X37084Y40111D01*
X37084Y41508D01*
X39878Y41508D01*
X39936Y41506D01*
X39995Y41501D01*
X40052Y41492D01*
X40110Y41479D01*
X40166Y41462D01*
X40221Y41443D01*
X40274Y41419D01*
X40327Y41393D01*
X40377Y41363D01*
X40425Y41330D01*
X40471Y41294D01*
X40515Y41256D01*
X40557Y41214D01*
X40595Y41170D01*
X40631Y41124D01*
X40664Y41076D01*
X40694Y41026D01*
X40720Y40973D01*
X40744Y40920D01*
X40763Y40865D01*
X40780Y40809D01*
X40793Y40751D01*
X40802Y40694D01*
X40807Y40635D01*
X40809Y40577D01*
X40809Y39335D01*
X42672Y47156D02*
X37084Y47156D01*
X42672Y47156D02*
X42672Y48708D01*
X42670Y48784D01*
X42665Y48860D01*
X42655Y48936D01*
X42642Y49011D01*
X42625Y49085D01*
X42605Y49159D01*
X42581Y49231D01*
X42554Y49302D01*
X42523Y49372D01*
X42489Y49440D01*
X42451Y49506D01*
X42410Y49570D01*
X42367Y49633D01*
X42320Y49693D01*
X42270Y49750D01*
X42217Y49805D01*
X42162Y49858D01*
X42105Y49908D01*
X42045Y49955D01*
X41982Y49998D01*
X41918Y50039D01*
X41852Y50077D01*
X41784Y50111D01*
X41714Y50142D01*
X41643Y50169D01*
X41570Y50193D01*
X41497Y50213D01*
X41423Y50230D01*
X41348Y50243D01*
X41272Y50253D01*
X41196Y50258D01*
X41120Y50260D01*
X38636Y50260D01*
X38557Y50258D01*
X38479Y50252D01*
X38401Y50242D01*
X38324Y50228D01*
X38247Y50210D01*
X38171Y50189D01*
X38097Y50163D01*
X38024Y50134D01*
X37953Y50101D01*
X37883Y50065D01*
X37815Y50025D01*
X37749Y49982D01*
X37686Y49935D01*
X37625Y49886D01*
X37567Y49833D01*
X37511Y49777D01*
X37458Y49719D01*
X37409Y49658D01*
X37362Y49595D01*
X37319Y49529D01*
X37279Y49461D01*
X37243Y49392D01*
X37210Y49320D01*
X37181Y49247D01*
X37155Y49173D01*
X37134Y49097D01*
X37116Y49020D01*
X37102Y48943D01*
X37092Y48865D01*
X37086Y48787D01*
X37084Y48708D01*
X37084Y47156D01*
X37084Y52731D02*
X40809Y52731D01*
X42362Y52576D02*
X42672Y52576D01*
X42672Y52886D01*
X42362Y52886D01*
X42362Y52576D01*
X40188Y58211D02*
X40188Y59764D01*
X40186Y59841D01*
X40180Y59919D01*
X40171Y59995D01*
X40157Y60072D01*
X40140Y60147D01*
X40119Y60221D01*
X40094Y60295D01*
X40066Y60367D01*
X40034Y60437D01*
X39999Y60506D01*
X39960Y60573D01*
X39918Y60638D01*
X39873Y60701D01*
X39825Y60762D01*
X39774Y60820D01*
X39720Y60875D01*
X39663Y60928D01*
X39604Y60977D01*
X39542Y61024D01*
X39478Y61068D01*
X39412Y61108D01*
X39344Y61145D01*
X39274Y61179D01*
X39203Y61209D01*
X39130Y61235D01*
X39056Y61258D01*
X38981Y61277D01*
X38906Y61292D01*
X38829Y61304D01*
X38752Y61312D01*
X38675Y61316D01*
X38597Y61316D01*
X38520Y61312D01*
X38443Y61304D01*
X38366Y61292D01*
X38291Y61277D01*
X38216Y61258D01*
X38142Y61235D01*
X38069Y61209D01*
X37998Y61179D01*
X37928Y61145D01*
X37860Y61108D01*
X37794Y61068D01*
X37730Y61024D01*
X37668Y60977D01*
X37609Y60928D01*
X37552Y60875D01*
X37498Y60820D01*
X37447Y60762D01*
X37399Y60701D01*
X37354Y60638D01*
X37312Y60573D01*
X37273Y60506D01*
X37238Y60437D01*
X37206Y60367D01*
X37178Y60295D01*
X37153Y60221D01*
X37132Y60147D01*
X37115Y60072D01*
X37101Y59995D01*
X37092Y59919D01*
X37086Y59841D01*
X37084Y59764D01*
X37084Y58211D01*
X42672Y58211D01*
X42672Y59764D01*
X42670Y59834D01*
X42664Y59903D01*
X42654Y59972D01*
X42641Y60040D01*
X42623Y60108D01*
X42602Y60174D01*
X42577Y60239D01*
X42549Y60303D01*
X42517Y60365D01*
X42482Y60425D01*
X42443Y60483D01*
X42401Y60538D01*
X42356Y60592D01*
X42308Y60642D01*
X42258Y60690D01*
X42204Y60735D01*
X42149Y60777D01*
X42091Y60816D01*
X42031Y60851D01*
X41969Y60883D01*
X41905Y60911D01*
X41840Y60936D01*
X41774Y60957D01*
X41706Y60975D01*
X41638Y60988D01*
X41569Y60998D01*
X41500Y61004D01*
X41430Y61006D01*
X41360Y61004D01*
X41291Y60998D01*
X41222Y60988D01*
X41154Y60975D01*
X41086Y60957D01*
X41020Y60936D01*
X40955Y60911D01*
X40891Y60883D01*
X40829Y60851D01*
X40769Y60816D01*
X40711Y60777D01*
X40656Y60735D01*
X40602Y60690D01*
X40552Y60642D01*
X40504Y60592D01*
X40459Y60538D01*
X40417Y60483D01*
X40378Y60425D01*
X40343Y60365D01*
X40311Y60303D01*
X40283Y60239D01*
X40258Y60174D01*
X40237Y60108D01*
X40219Y60040D01*
X40206Y59972D01*
X40196Y59903D01*
X40190Y59834D01*
X40188Y59764D01*
X39568Y63376D02*
X38326Y63376D01*
X39568Y63376D02*
X39638Y63378D01*
X39707Y63384D01*
X39776Y63394D01*
X39844Y63407D01*
X39912Y63425D01*
X39978Y63446D01*
X40043Y63471D01*
X40107Y63499D01*
X40169Y63531D01*
X40229Y63566D01*
X40287Y63605D01*
X40342Y63647D01*
X40396Y63692D01*
X40446Y63740D01*
X40494Y63790D01*
X40539Y63844D01*
X40581Y63899D01*
X40620Y63957D01*
X40655Y64017D01*
X40687Y64079D01*
X40715Y64143D01*
X40740Y64208D01*
X40761Y64274D01*
X40779Y64342D01*
X40792Y64410D01*
X40802Y64479D01*
X40808Y64548D01*
X40810Y64618D01*
X40808Y64688D01*
X40802Y64757D01*
X40792Y64826D01*
X40779Y64894D01*
X40761Y64962D01*
X40740Y65028D01*
X40715Y65093D01*
X40687Y65157D01*
X40655Y65219D01*
X40620Y65279D01*
X40581Y65337D01*
X40539Y65392D01*
X40494Y65446D01*
X40446Y65496D01*
X40396Y65544D01*
X40342Y65589D01*
X40287Y65631D01*
X40229Y65670D01*
X40169Y65705D01*
X40107Y65737D01*
X40043Y65765D01*
X39978Y65790D01*
X39912Y65811D01*
X39844Y65829D01*
X39776Y65842D01*
X39707Y65852D01*
X39638Y65858D01*
X39568Y65860D01*
X38326Y65860D01*
X38256Y65858D01*
X38187Y65852D01*
X38118Y65842D01*
X38050Y65829D01*
X37982Y65811D01*
X37916Y65790D01*
X37851Y65765D01*
X37787Y65737D01*
X37725Y65705D01*
X37665Y65670D01*
X37607Y65631D01*
X37552Y65589D01*
X37498Y65544D01*
X37448Y65496D01*
X37400Y65446D01*
X37355Y65392D01*
X37313Y65337D01*
X37274Y65279D01*
X37239Y65219D01*
X37207Y65157D01*
X37179Y65093D01*
X37154Y65028D01*
X37133Y64962D01*
X37115Y64894D01*
X37102Y64826D01*
X37092Y64757D01*
X37086Y64688D01*
X37084Y64618D01*
X37086Y64548D01*
X37092Y64479D01*
X37102Y64410D01*
X37115Y64342D01*
X37133Y64274D01*
X37154Y64208D01*
X37179Y64143D01*
X37207Y64079D01*
X37239Y64017D01*
X37274Y63957D01*
X37313Y63899D01*
X37355Y63844D01*
X37400Y63790D01*
X37448Y63740D01*
X37498Y63692D01*
X37552Y63647D01*
X37607Y63605D01*
X37665Y63566D01*
X37725Y63531D01*
X37787Y63499D01*
X37851Y63471D01*
X37916Y63446D01*
X37982Y63425D01*
X38050Y63407D01*
X38118Y63394D01*
X38187Y63384D01*
X38256Y63378D01*
X38326Y63376D01*
X37084Y68314D02*
X40809Y68314D01*
X40809Y69866D01*
X40807Y69924D01*
X40802Y69983D01*
X40793Y70040D01*
X40780Y70098D01*
X40763Y70154D01*
X40744Y70209D01*
X40720Y70262D01*
X40694Y70315D01*
X40664Y70365D01*
X40631Y70413D01*
X40595Y70459D01*
X40557Y70503D01*
X40515Y70545D01*
X40471Y70583D01*
X40425Y70619D01*
X40377Y70652D01*
X40327Y70682D01*
X40274Y70708D01*
X40221Y70732D01*
X40166Y70751D01*
X40110Y70768D01*
X40052Y70781D01*
X39995Y70790D01*
X39936Y70795D01*
X39878Y70797D01*
X39878Y70798D02*
X37084Y70798D01*
X39257Y74310D02*
X39257Y75707D01*
X39258Y74310D02*
X39256Y74246D01*
X39250Y74181D01*
X39241Y74118D01*
X39228Y74055D01*
X39211Y73993D01*
X39190Y73932D01*
X39166Y73872D01*
X39138Y73814D01*
X39107Y73757D01*
X39073Y73703D01*
X39035Y73650D01*
X38994Y73600D01*
X38951Y73553D01*
X38905Y73508D01*
X38856Y73466D01*
X38805Y73427D01*
X38751Y73391D01*
X38696Y73358D01*
X38638Y73329D01*
X38580Y73303D01*
X38519Y73280D01*
X38458Y73261D01*
X38395Y73246D01*
X38331Y73235D01*
X38268Y73227D01*
X38203Y73223D01*
X38139Y73223D01*
X38074Y73227D01*
X38011Y73235D01*
X37947Y73246D01*
X37884Y73261D01*
X37823Y73280D01*
X37762Y73303D01*
X37704Y73329D01*
X37646Y73358D01*
X37591Y73391D01*
X37537Y73427D01*
X37486Y73466D01*
X37437Y73508D01*
X37391Y73553D01*
X37348Y73600D01*
X37307Y73650D01*
X37269Y73703D01*
X37235Y73757D01*
X37204Y73814D01*
X37176Y73872D01*
X37152Y73932D01*
X37131Y73993D01*
X37114Y74055D01*
X37101Y74118D01*
X37092Y74181D01*
X37086Y74246D01*
X37084Y74310D01*
X37084Y75707D01*
X39878Y75707D01*
X39878Y75706D02*
X39936Y75704D01*
X39995Y75699D01*
X40052Y75690D01*
X40110Y75677D01*
X40166Y75660D01*
X40221Y75641D01*
X40274Y75617D01*
X40327Y75591D01*
X40377Y75561D01*
X40425Y75528D01*
X40471Y75492D01*
X40515Y75454D01*
X40557Y75412D01*
X40595Y75368D01*
X40631Y75322D01*
X40664Y75274D01*
X40694Y75224D01*
X40720Y75171D01*
X40744Y75118D01*
X40763Y75063D01*
X40780Y75007D01*
X40793Y74949D01*
X40802Y74892D01*
X40807Y74833D01*
X40809Y74775D01*
X40809Y73533D01*
X15621Y8509D02*
X11049Y8509D01*
X14097Y8509D02*
X14097Y9779D01*
X14095Y9833D01*
X14089Y9887D01*
X14080Y9941D01*
X14066Y9994D01*
X14049Y10045D01*
X14028Y10096D01*
X14004Y10144D01*
X13976Y10191D01*
X13945Y10236D01*
X13911Y10278D01*
X13874Y10318D01*
X13834Y10355D01*
X13792Y10389D01*
X13747Y10420D01*
X13700Y10448D01*
X13652Y10472D01*
X13601Y10493D01*
X13550Y10510D01*
X13497Y10524D01*
X13443Y10533D01*
X13389Y10539D01*
X13335Y10541D01*
X11049Y10541D01*
X14097Y12227D02*
X14097Y13751D01*
X15621Y12735D02*
X11811Y12735D01*
X11757Y12737D01*
X11703Y12743D01*
X11649Y12752D01*
X11596Y12766D01*
X11545Y12783D01*
X11494Y12804D01*
X11446Y12828D01*
X11399Y12856D01*
X11354Y12887D01*
X11312Y12921D01*
X11272Y12958D01*
X11235Y12998D01*
X11201Y13040D01*
X11170Y13085D01*
X11142Y13132D01*
X11118Y13180D01*
X11097Y13231D01*
X11080Y13282D01*
X11066Y13335D01*
X11057Y13389D01*
X11051Y13443D01*
X11049Y13497D01*
X11049Y13751D01*
X14097Y15122D02*
X14097Y16646D01*
X15621Y15630D02*
X11811Y15630D01*
X11757Y15632D01*
X11703Y15638D01*
X11649Y15647D01*
X11596Y15661D01*
X11545Y15678D01*
X11494Y15699D01*
X11446Y15723D01*
X11399Y15751D01*
X11354Y15782D01*
X11312Y15816D01*
X11272Y15853D01*
X11235Y15893D01*
X11201Y15935D01*
X11170Y15980D01*
X11142Y16027D01*
X11118Y16075D01*
X11097Y16126D01*
X11080Y16177D01*
X11066Y16230D01*
X11057Y16284D01*
X11051Y16338D01*
X11049Y16392D01*
X11049Y16646D01*
X9525Y18594D02*
X14097Y18594D01*
X14097Y19864D01*
X14095Y19918D01*
X14089Y19972D01*
X14080Y20026D01*
X14066Y20079D01*
X14049Y20130D01*
X14028Y20181D01*
X14004Y20229D01*
X13976Y20276D01*
X13945Y20321D01*
X13911Y20363D01*
X13874Y20403D01*
X13834Y20440D01*
X13792Y20474D01*
X13747Y20505D01*
X13700Y20533D01*
X13652Y20557D01*
X13601Y20578D01*
X13550Y20595D01*
X13497Y20609D01*
X13443Y20618D01*
X13389Y20624D01*
X13335Y20626D01*
X11811Y20626D01*
X11757Y20624D01*
X11703Y20618D01*
X11649Y20609D01*
X11596Y20595D01*
X11545Y20578D01*
X11494Y20557D01*
X11446Y20533D01*
X11399Y20505D01*
X11354Y20474D01*
X11312Y20440D01*
X11272Y20403D01*
X11235Y20363D01*
X11201Y20321D01*
X11170Y20276D01*
X11142Y20229D01*
X11118Y20181D01*
X11097Y20130D01*
X11080Y20079D01*
X11066Y20026D01*
X11057Y19972D01*
X11051Y19918D01*
X11049Y19864D01*
X11049Y18594D01*
X12827Y22911D02*
X12319Y24181D01*
X12826Y22910D02*
X12847Y22864D01*
X12871Y22819D01*
X12899Y22777D01*
X12929Y22736D01*
X12963Y22698D01*
X13000Y22663D01*
X13039Y22631D01*
X13080Y22601D01*
X13124Y22576D01*
X13170Y22553D01*
X13217Y22534D01*
X13265Y22519D01*
X13315Y22508D01*
X13365Y22500D01*
X13416Y22496D01*
X13466Y22497D01*
X13517Y22501D01*
X13567Y22509D01*
X13617Y22521D01*
X13665Y22536D01*
X13712Y22556D01*
X13757Y22579D01*
X13801Y22605D01*
X13842Y22634D01*
X13881Y22667D01*
X13917Y22703D01*
X13951Y22741D01*
X13981Y22782D01*
X14008Y22824D01*
X14032Y22869D01*
X14052Y22916D01*
X14069Y22964D01*
X14082Y23013D01*
X14091Y23063D01*
X14096Y23114D01*
X14097Y23164D01*
X14093Y23271D01*
X14086Y23378D01*
X14074Y23485D01*
X14059Y23591D01*
X14039Y23696D01*
X14016Y23801D01*
X13989Y23904D01*
X13958Y24007D01*
X13923Y24108D01*
X13885Y24208D01*
X13843Y24307D01*
X12320Y24181D02*
X12299Y24227D01*
X12275Y24272D01*
X12247Y24314D01*
X12217Y24355D01*
X12183Y24393D01*
X12146Y24428D01*
X12107Y24460D01*
X12066Y24490D01*
X12022Y24515D01*
X11976Y24538D01*
X11929Y24557D01*
X11881Y24572D01*
X11831Y24583D01*
X11781Y24591D01*
X11730Y24595D01*
X11680Y24594D01*
X11629Y24590D01*
X11579Y24582D01*
X11529Y24570D01*
X11481Y24555D01*
X11434Y24535D01*
X11389Y24512D01*
X11345Y24486D01*
X11304Y24457D01*
X11265Y24424D01*
X11229Y24388D01*
X11195Y24350D01*
X11165Y24309D01*
X11138Y24267D01*
X11114Y24222D01*
X11094Y24175D01*
X11077Y24127D01*
X11064Y24078D01*
X11055Y24028D01*
X11050Y23977D01*
X11049Y23927D01*
X11048Y23926D02*
X11052Y23797D01*
X11060Y23667D01*
X11072Y23538D01*
X11087Y23409D01*
X11106Y23281D01*
X11130Y23154D01*
X11157Y23027D01*
X11187Y22901D01*
X11222Y22776D01*
X11260Y22652D01*
X11302Y22529D01*
X11430Y26467D02*
X11684Y26467D01*
X11684Y26721D01*
X11430Y26721D01*
X11430Y26467D01*
X13462Y26467D02*
X13716Y26467D01*
X13716Y26721D01*
X13462Y26721D01*
X13462Y26467D01*
X10541Y28473D02*
X16129Y30505D01*
X16129Y34163D02*
X10541Y32131D01*
X11049Y36676D02*
X11049Y37946D01*
X11049Y36676D02*
X11051Y36622D01*
X11057Y36568D01*
X11066Y36514D01*
X11080Y36461D01*
X11097Y36410D01*
X11118Y36359D01*
X11142Y36311D01*
X11170Y36264D01*
X11201Y36219D01*
X11235Y36177D01*
X11272Y36137D01*
X11312Y36100D01*
X11354Y36066D01*
X11399Y36035D01*
X11446Y36007D01*
X11494Y35983D01*
X11545Y35962D01*
X11596Y35945D01*
X11649Y35931D01*
X11703Y35922D01*
X11757Y35916D01*
X11811Y35914D01*
X13335Y35914D01*
X13389Y35916D01*
X13443Y35922D01*
X13497Y35931D01*
X13550Y35945D01*
X13601Y35962D01*
X13652Y35983D01*
X13700Y36007D01*
X13747Y36035D01*
X13792Y36066D01*
X13834Y36100D01*
X13874Y36137D01*
X13911Y36177D01*
X13945Y36219D01*
X13976Y36264D01*
X14004Y36311D01*
X14028Y36359D01*
X14049Y36410D01*
X14066Y36461D01*
X14080Y36514D01*
X14089Y36568D01*
X14095Y36622D01*
X14097Y36676D01*
X14097Y37946D01*
X10287Y37946D01*
X10233Y37944D01*
X10179Y37938D01*
X10125Y37929D01*
X10072Y37915D01*
X10021Y37898D01*
X9970Y37877D01*
X9922Y37853D01*
X9875Y37825D01*
X9830Y37794D01*
X9788Y37760D01*
X9748Y37723D01*
X9711Y37683D01*
X9677Y37641D01*
X9646Y37596D01*
X9618Y37549D01*
X9594Y37501D01*
X9573Y37450D01*
X9556Y37399D01*
X9542Y37346D01*
X9533Y37292D01*
X9527Y37238D01*
X9525Y37184D01*
X9525Y36168D01*
X11049Y40005D02*
X14097Y40005D01*
X15367Y39878D02*
X15621Y39878D01*
X15621Y40132D01*
X15367Y40132D01*
X15367Y39878D01*
X14097Y41487D02*
X14097Y43011D01*
X15621Y41995D02*
X11811Y41995D01*
X11757Y41997D01*
X11703Y42003D01*
X11649Y42012D01*
X11596Y42026D01*
X11545Y42043D01*
X11494Y42064D01*
X11446Y42088D01*
X11399Y42116D01*
X11354Y42147D01*
X11312Y42181D01*
X11272Y42218D01*
X11235Y42258D01*
X11201Y42300D01*
X11170Y42345D01*
X11142Y42392D01*
X11118Y42440D01*
X11097Y42491D01*
X11080Y42542D01*
X11066Y42595D01*
X11057Y42649D01*
X11051Y42703D01*
X11049Y42757D01*
X11049Y43011D01*
X11049Y44932D02*
X15621Y44932D01*
X14097Y44932D02*
X14097Y46202D01*
X14095Y46256D01*
X14089Y46310D01*
X14080Y46364D01*
X14066Y46417D01*
X14049Y46468D01*
X14028Y46519D01*
X14004Y46567D01*
X13976Y46614D01*
X13945Y46659D01*
X13911Y46701D01*
X13874Y46741D01*
X13834Y46778D01*
X13792Y46812D01*
X13747Y46843D01*
X13700Y46871D01*
X13652Y46895D01*
X13601Y46916D01*
X13550Y46933D01*
X13497Y46947D01*
X13443Y46956D01*
X13389Y46962D01*
X13335Y46964D01*
X11049Y46964D01*
X11811Y49199D02*
X14097Y49199D01*
X11811Y49199D02*
X11757Y49201D01*
X11703Y49207D01*
X11649Y49216D01*
X11596Y49230D01*
X11545Y49247D01*
X11494Y49268D01*
X11446Y49292D01*
X11399Y49320D01*
X11354Y49351D01*
X11312Y49385D01*
X11272Y49422D01*
X11235Y49462D01*
X11201Y49504D01*
X11170Y49549D01*
X11142Y49596D01*
X11118Y49644D01*
X11097Y49695D01*
X11080Y49746D01*
X11066Y49799D01*
X11057Y49853D01*
X11051Y49907D01*
X11049Y49961D01*
X11049Y51231D01*
X14097Y51231D01*
X15621Y53493D02*
X11049Y53493D01*
X11049Y54763D01*
X11051Y54817D01*
X11057Y54871D01*
X11066Y54925D01*
X11080Y54978D01*
X11097Y55029D01*
X11118Y55080D01*
X11142Y55128D01*
X11170Y55175D01*
X11201Y55220D01*
X11235Y55262D01*
X11272Y55302D01*
X11312Y55339D01*
X11354Y55373D01*
X11399Y55404D01*
X11446Y55432D01*
X11494Y55456D01*
X11545Y55477D01*
X11596Y55494D01*
X11649Y55508D01*
X11703Y55517D01*
X11757Y55523D01*
X11811Y55525D01*
X13335Y55525D01*
X13389Y55523D01*
X13443Y55517D01*
X13497Y55508D01*
X13550Y55494D01*
X13601Y55477D01*
X13652Y55456D01*
X13700Y55432D01*
X13747Y55404D01*
X13792Y55373D01*
X13834Y55339D01*
X13874Y55302D01*
X13911Y55262D01*
X13945Y55220D01*
X13976Y55175D01*
X14004Y55128D01*
X14028Y55080D01*
X14049Y55029D01*
X14066Y54978D01*
X14080Y54925D01*
X14089Y54871D01*
X14095Y54817D01*
X14097Y54763D01*
X14097Y53493D01*
X11303Y57251D02*
X11049Y57251D01*
X11303Y57251D02*
X11303Y57505D01*
X11049Y57505D01*
X11049Y57251D01*
X11049Y60025D02*
X11049Y61041D01*
X11049Y60025D02*
X11051Y59971D01*
X11057Y59917D01*
X11066Y59863D01*
X11080Y59810D01*
X11097Y59759D01*
X11118Y59708D01*
X11142Y59660D01*
X11170Y59613D01*
X11201Y59568D01*
X11235Y59526D01*
X11272Y59486D01*
X11312Y59449D01*
X11354Y59415D01*
X11399Y59384D01*
X11446Y59356D01*
X11494Y59332D01*
X11545Y59311D01*
X11596Y59294D01*
X11649Y59280D01*
X11703Y59271D01*
X11757Y59265D01*
X11811Y59263D01*
X13335Y59263D01*
X13389Y59265D01*
X13443Y59271D01*
X13497Y59280D01*
X13550Y59294D01*
X13601Y59311D01*
X13652Y59332D01*
X13700Y59356D01*
X13747Y59384D01*
X13792Y59415D01*
X13834Y59449D01*
X13874Y59486D01*
X13911Y59526D01*
X13945Y59568D01*
X13976Y59613D01*
X14004Y59660D01*
X14028Y59708D01*
X14049Y59759D01*
X14066Y59810D01*
X14080Y59863D01*
X14089Y59917D01*
X14095Y59971D01*
X14097Y60025D01*
X14097Y61041D01*
X13081Y62763D02*
X12065Y62763D01*
X13081Y62763D02*
X13144Y62765D01*
X13206Y62771D01*
X13268Y62780D01*
X13329Y62794D01*
X13389Y62811D01*
X13448Y62832D01*
X13506Y62856D01*
X13562Y62884D01*
X13616Y62915D01*
X13668Y62950D01*
X13718Y62987D01*
X13765Y63028D01*
X13810Y63072D01*
X13853Y63118D01*
X13892Y63167D01*
X13928Y63218D01*
X13961Y63271D01*
X13990Y63326D01*
X14017Y63383D01*
X14039Y63441D01*
X14058Y63501D01*
X14073Y63562D01*
X14085Y63623D01*
X14093Y63685D01*
X14097Y63748D01*
X14097Y63810D01*
X14093Y63873D01*
X14085Y63935D01*
X14073Y63996D01*
X14058Y64057D01*
X14039Y64117D01*
X14017Y64175D01*
X13990Y64232D01*
X13961Y64287D01*
X13928Y64340D01*
X13892Y64391D01*
X13853Y64440D01*
X13810Y64486D01*
X13765Y64530D01*
X13718Y64571D01*
X13668Y64608D01*
X13616Y64643D01*
X13562Y64674D01*
X13506Y64702D01*
X13448Y64726D01*
X13389Y64747D01*
X13329Y64764D01*
X13268Y64778D01*
X13206Y64787D01*
X13144Y64793D01*
X13081Y64795D01*
X12065Y64795D01*
X12002Y64793D01*
X11940Y64787D01*
X11878Y64778D01*
X11817Y64764D01*
X11757Y64747D01*
X11698Y64726D01*
X11640Y64702D01*
X11584Y64674D01*
X11530Y64643D01*
X11478Y64608D01*
X11428Y64571D01*
X11381Y64530D01*
X11336Y64486D01*
X11293Y64440D01*
X11254Y64391D01*
X11218Y64340D01*
X11185Y64287D01*
X11156Y64232D01*
X11129Y64175D01*
X11107Y64117D01*
X11088Y64057D01*
X11073Y63996D01*
X11061Y63935D01*
X11053Y63873D01*
X11049Y63810D01*
X11049Y63748D01*
X11053Y63685D01*
X11061Y63623D01*
X11073Y63562D01*
X11088Y63501D01*
X11107Y63441D01*
X11129Y63383D01*
X11156Y63326D01*
X11185Y63271D01*
X11218Y63218D01*
X11254Y63167D01*
X11293Y63118D01*
X11336Y63072D01*
X11381Y63028D01*
X11428Y62987D01*
X11478Y62950D01*
X11530Y62915D01*
X11584Y62884D01*
X11640Y62856D01*
X11698Y62832D01*
X11757Y62811D01*
X11817Y62794D01*
X11878Y62780D01*
X11940Y62771D01*
X12002Y62765D01*
X12065Y62763D01*
X11049Y66979D02*
X14097Y66979D01*
X14097Y69265D01*
X14095Y69319D01*
X14089Y69373D01*
X14080Y69427D01*
X14066Y69480D01*
X14049Y69531D01*
X14028Y69582D01*
X14004Y69630D01*
X13976Y69677D01*
X13945Y69722D01*
X13911Y69764D01*
X13874Y69804D01*
X13834Y69841D01*
X13792Y69875D01*
X13747Y69906D01*
X13700Y69934D01*
X13652Y69958D01*
X13601Y69979D01*
X13550Y69996D01*
X13497Y70010D01*
X13443Y70019D01*
X13389Y70025D01*
X13335Y70027D01*
X11049Y70027D01*
X11049Y68503D02*
X14097Y68503D01*
X10541Y72059D02*
X16129Y74091D01*
X14097Y75818D02*
X11049Y75818D01*
X15367Y75691D02*
X15621Y75691D01*
X15621Y75945D01*
X15367Y75945D01*
X15367Y75691D01*
X15621Y79703D02*
X11049Y79703D01*
X11049Y78433D01*
X11051Y78379D01*
X11057Y78325D01*
X11066Y78271D01*
X11080Y78218D01*
X11097Y78167D01*
X11118Y78116D01*
X11142Y78068D01*
X11170Y78021D01*
X11201Y77976D01*
X11235Y77934D01*
X11272Y77894D01*
X11312Y77857D01*
X11354Y77823D01*
X11399Y77792D01*
X11446Y77764D01*
X11494Y77740D01*
X11545Y77719D01*
X11596Y77702D01*
X11649Y77688D01*
X11703Y77679D01*
X11757Y77673D01*
X11811Y77671D01*
X13335Y77671D01*
X13389Y77673D01*
X13443Y77679D01*
X13497Y77688D01*
X13550Y77702D01*
X13601Y77719D01*
X13652Y77740D01*
X13700Y77764D01*
X13747Y77792D01*
X13792Y77823D01*
X13834Y77857D01*
X13874Y77894D01*
X13911Y77934D01*
X13945Y77976D01*
X13976Y78021D01*
X14004Y78068D01*
X14028Y78116D01*
X14049Y78167D01*
X14066Y78218D01*
X14080Y78271D01*
X14089Y78325D01*
X14095Y78379D01*
X14097Y78433D01*
X14097Y79703D01*
X14097Y81762D02*
X11049Y81762D01*
X15367Y81635D02*
X15621Y81635D01*
X15621Y81889D01*
X15367Y81889D01*
X15367Y81635D01*
X15621Y83820D02*
X11049Y83820D01*
X11049Y85090D01*
X11051Y85144D01*
X11057Y85198D01*
X11066Y85252D01*
X11080Y85305D01*
X11097Y85356D01*
X11118Y85407D01*
X11142Y85455D01*
X11170Y85502D01*
X11201Y85547D01*
X11235Y85589D01*
X11272Y85629D01*
X11312Y85666D01*
X11354Y85700D01*
X11399Y85731D01*
X11446Y85759D01*
X11494Y85783D01*
X11545Y85804D01*
X11596Y85821D01*
X11649Y85835D01*
X11703Y85844D01*
X11757Y85850D01*
X11811Y85852D01*
X13335Y85852D01*
X13389Y85850D01*
X13443Y85844D01*
X13497Y85835D01*
X13550Y85821D01*
X13601Y85804D01*
X13652Y85783D01*
X13700Y85759D01*
X13747Y85731D01*
X13792Y85700D01*
X13834Y85666D01*
X13874Y85629D01*
X13911Y85589D01*
X13945Y85547D01*
X13976Y85502D01*
X14004Y85455D01*
X14028Y85407D01*
X14049Y85356D01*
X14066Y85305D01*
X14080Y85252D01*
X14089Y85198D01*
X14095Y85144D01*
X14097Y85090D01*
X14097Y83820D01*
X13081Y87756D02*
X12065Y87756D01*
X13081Y87756D02*
X13144Y87758D01*
X13206Y87764D01*
X13268Y87773D01*
X13329Y87787D01*
X13389Y87804D01*
X13448Y87825D01*
X13506Y87849D01*
X13562Y87877D01*
X13616Y87908D01*
X13668Y87943D01*
X13718Y87980D01*
X13765Y88021D01*
X13810Y88065D01*
X13853Y88111D01*
X13892Y88160D01*
X13928Y88211D01*
X13961Y88264D01*
X13990Y88319D01*
X14017Y88376D01*
X14039Y88434D01*
X14058Y88494D01*
X14073Y88555D01*
X14085Y88616D01*
X14093Y88678D01*
X14097Y88741D01*
X14097Y88803D01*
X14093Y88866D01*
X14085Y88928D01*
X14073Y88989D01*
X14058Y89050D01*
X14039Y89110D01*
X14017Y89168D01*
X13990Y89225D01*
X13961Y89280D01*
X13928Y89333D01*
X13892Y89384D01*
X13853Y89433D01*
X13810Y89479D01*
X13765Y89523D01*
X13718Y89564D01*
X13668Y89601D01*
X13616Y89636D01*
X13562Y89667D01*
X13506Y89695D01*
X13448Y89719D01*
X13389Y89740D01*
X13329Y89757D01*
X13268Y89771D01*
X13206Y89780D01*
X13144Y89786D01*
X13081Y89788D01*
X12065Y89788D01*
X12002Y89786D01*
X11940Y89780D01*
X11878Y89771D01*
X11817Y89757D01*
X11757Y89740D01*
X11698Y89719D01*
X11640Y89695D01*
X11584Y89667D01*
X11530Y89636D01*
X11478Y89601D01*
X11428Y89564D01*
X11381Y89523D01*
X11336Y89479D01*
X11293Y89433D01*
X11254Y89384D01*
X11218Y89333D01*
X11185Y89280D01*
X11156Y89225D01*
X11129Y89168D01*
X11107Y89110D01*
X11088Y89050D01*
X11073Y88989D01*
X11061Y88928D01*
X11053Y88866D01*
X11049Y88803D01*
X11049Y88741D01*
X11053Y88678D01*
X11061Y88616D01*
X11073Y88555D01*
X11088Y88494D01*
X11107Y88434D01*
X11129Y88376D01*
X11156Y88319D01*
X11185Y88264D01*
X11218Y88211D01*
X11254Y88160D01*
X11293Y88111D01*
X11336Y88065D01*
X11381Y88021D01*
X11428Y87980D01*
X11478Y87943D01*
X11530Y87908D01*
X11584Y87877D01*
X11640Y87849D01*
X11698Y87825D01*
X11757Y87804D01*
X11817Y87787D01*
X11878Y87773D01*
X11940Y87764D01*
X12002Y87758D01*
X12065Y87756D01*
X11049Y91871D02*
X14097Y91871D01*
X14097Y93141D01*
X14095Y93195D01*
X14089Y93249D01*
X14080Y93303D01*
X14066Y93356D01*
X14049Y93407D01*
X14028Y93458D01*
X14004Y93506D01*
X13976Y93553D01*
X13945Y93598D01*
X13911Y93640D01*
X13874Y93680D01*
X13834Y93717D01*
X13792Y93751D01*
X13747Y93782D01*
X13700Y93810D01*
X13652Y93834D01*
X13601Y93855D01*
X13550Y93872D01*
X13497Y93886D01*
X13443Y93895D01*
X13389Y93901D01*
X13335Y93903D01*
X11049Y93903D01*
X12827Y96848D02*
X12827Y97991D01*
X12827Y96848D02*
X12825Y96790D01*
X12819Y96732D01*
X12810Y96675D01*
X12797Y96618D01*
X12780Y96562D01*
X12759Y96508D01*
X12735Y96455D01*
X12708Y96404D01*
X12677Y96354D01*
X12643Y96307D01*
X12606Y96262D01*
X12567Y96219D01*
X12524Y96180D01*
X12479Y96143D01*
X12432Y96109D01*
X12383Y96078D01*
X12331Y96051D01*
X12278Y96027D01*
X12224Y96006D01*
X12168Y95989D01*
X12111Y95976D01*
X12054Y95967D01*
X11996Y95961D01*
X11938Y95959D01*
X11880Y95961D01*
X11822Y95967D01*
X11765Y95976D01*
X11708Y95989D01*
X11652Y96006D01*
X11598Y96027D01*
X11545Y96051D01*
X11494Y96078D01*
X11444Y96109D01*
X11397Y96143D01*
X11352Y96180D01*
X11309Y96219D01*
X11270Y96262D01*
X11233Y96307D01*
X11199Y96354D01*
X11168Y96404D01*
X11141Y96455D01*
X11117Y96508D01*
X11096Y96562D01*
X11079Y96618D01*
X11066Y96675D01*
X11057Y96732D01*
X11051Y96790D01*
X11049Y96848D01*
X11049Y97991D01*
X13335Y97991D01*
X13389Y97989D01*
X13443Y97983D01*
X13497Y97974D01*
X13550Y97960D01*
X13601Y97943D01*
X13652Y97922D01*
X13700Y97898D01*
X13747Y97870D01*
X13792Y97839D01*
X13834Y97805D01*
X13874Y97768D01*
X13911Y97728D01*
X13945Y97686D01*
X13976Y97641D01*
X14004Y97594D01*
X14028Y97546D01*
X14049Y97495D01*
X14066Y97444D01*
X14080Y97391D01*
X14089Y97337D01*
X14095Y97283D01*
X14097Y97229D01*
X14097Y96213D01*
X15621Y101548D02*
X15619Y101614D01*
X15613Y101681D01*
X15604Y101746D01*
X15590Y101812D01*
X15573Y101876D01*
X15552Y101939D01*
X15528Y102001D01*
X15499Y102061D01*
X15468Y102120D01*
X15433Y102176D01*
X15395Y102231D01*
X15354Y102283D01*
X15309Y102332D01*
X15262Y102379D01*
X15213Y102424D01*
X15161Y102465D01*
X15106Y102503D01*
X15050Y102538D01*
X14991Y102569D01*
X14931Y102598D01*
X14869Y102622D01*
X14806Y102643D01*
X14742Y102660D01*
X14676Y102674D01*
X14611Y102683D01*
X14544Y102689D01*
X14478Y102691D01*
X15621Y101548D02*
X15619Y101474D01*
X15614Y101401D01*
X15604Y101327D01*
X15591Y101255D01*
X15575Y101183D01*
X15555Y101112D01*
X15531Y101042D01*
X15504Y100973D01*
X15473Y100906D01*
X15439Y100840D01*
X15402Y100777D01*
X15362Y100715D01*
X15318Y100655D01*
X15272Y100598D01*
X15223Y100542D01*
X15171Y100490D01*
X15116Y100440D01*
X15059Y100393D01*
X15000Y100349D01*
X14939Y100308D01*
X14875Y100270D01*
X14810Y100235D01*
X14743Y100204D01*
X14675Y100176D01*
X14605Y100151D01*
X13589Y102310D02*
X13636Y102357D01*
X13685Y102401D01*
X13737Y102442D01*
X13791Y102481D01*
X13847Y102516D01*
X13905Y102549D01*
X13964Y102578D01*
X14025Y102604D01*
X14087Y102627D01*
X14151Y102647D01*
X14215Y102662D01*
X14280Y102675D01*
X14346Y102684D01*
X14412Y102689D01*
X14478Y102691D01*
X13589Y102310D02*
X11049Y100151D01*
X11049Y102691D01*
X15113Y104723D02*
X15621Y104723D01*
X15621Y107263D01*
X11049Y105993D01*
X10541Y109092D02*
X16129Y111124D01*
X14097Y113081D02*
X9525Y113081D01*
X14097Y113081D02*
X14097Y114351D01*
X14095Y114405D01*
X14089Y114459D01*
X14080Y114513D01*
X14066Y114566D01*
X14049Y114617D01*
X14028Y114668D01*
X14004Y114716D01*
X13976Y114763D01*
X13945Y114808D01*
X13911Y114850D01*
X13874Y114890D01*
X13834Y114927D01*
X13792Y114961D01*
X13747Y114992D01*
X13700Y115020D01*
X13652Y115044D01*
X13601Y115065D01*
X13550Y115082D01*
X13497Y115096D01*
X13443Y115105D01*
X13389Y115111D01*
X13335Y115113D01*
X11811Y115113D01*
X11757Y115111D01*
X11703Y115105D01*
X11649Y115096D01*
X11596Y115082D01*
X11545Y115065D01*
X11494Y115044D01*
X11446Y115020D01*
X11399Y114992D01*
X11354Y114961D01*
X11312Y114927D01*
X11272Y114890D01*
X11235Y114850D01*
X11201Y114808D01*
X11170Y114763D01*
X11142Y114716D01*
X11118Y114668D01*
X11097Y114617D01*
X11080Y114566D01*
X11066Y114513D01*
X11057Y114459D01*
X11051Y114405D01*
X11049Y114351D01*
X11049Y113081D01*
X11049Y117778D02*
X11049Y119048D01*
X11049Y117778D02*
X11051Y117724D01*
X11057Y117670D01*
X11066Y117616D01*
X11080Y117563D01*
X11097Y117512D01*
X11118Y117461D01*
X11142Y117413D01*
X11170Y117366D01*
X11201Y117321D01*
X11235Y117279D01*
X11272Y117239D01*
X11312Y117202D01*
X11354Y117168D01*
X11399Y117137D01*
X11446Y117109D01*
X11494Y117085D01*
X11545Y117064D01*
X11596Y117047D01*
X11649Y117033D01*
X11703Y117024D01*
X11757Y117018D01*
X11811Y117016D01*
X13081Y117016D01*
X13144Y117018D01*
X13206Y117024D01*
X13268Y117033D01*
X13329Y117047D01*
X13389Y117064D01*
X13448Y117085D01*
X13506Y117109D01*
X13562Y117137D01*
X13616Y117168D01*
X13668Y117203D01*
X13718Y117240D01*
X13765Y117281D01*
X13810Y117325D01*
X13853Y117371D01*
X13892Y117420D01*
X13928Y117471D01*
X13961Y117524D01*
X13990Y117579D01*
X14017Y117636D01*
X14039Y117694D01*
X14058Y117754D01*
X14073Y117815D01*
X14085Y117876D01*
X14093Y117938D01*
X14097Y118001D01*
X14097Y118063D01*
X14093Y118126D01*
X14085Y118188D01*
X14073Y118249D01*
X14058Y118310D01*
X14039Y118370D01*
X14017Y118428D01*
X13990Y118485D01*
X13961Y118540D01*
X13928Y118593D01*
X13892Y118644D01*
X13853Y118693D01*
X13810Y118739D01*
X13765Y118783D01*
X13718Y118824D01*
X13668Y118861D01*
X13616Y118896D01*
X13562Y118927D01*
X13506Y118955D01*
X13448Y118979D01*
X13389Y119000D01*
X13329Y119017D01*
X13268Y119031D01*
X13206Y119040D01*
X13144Y119046D01*
X13081Y119048D01*
X12573Y119048D01*
X12573Y117016D01*
X11049Y122984D02*
X15621Y122984D01*
X11049Y122984D02*
X11049Y121714D01*
X11051Y121660D01*
X11057Y121606D01*
X11066Y121552D01*
X11080Y121499D01*
X11097Y121448D01*
X11118Y121397D01*
X11142Y121349D01*
X11170Y121302D01*
X11201Y121257D01*
X11235Y121215D01*
X11272Y121175D01*
X11312Y121138D01*
X11354Y121104D01*
X11399Y121073D01*
X11446Y121045D01*
X11494Y121021D01*
X11545Y121000D01*
X11596Y120983D01*
X11649Y120969D01*
X11703Y120960D01*
X11757Y120954D01*
X11811Y120952D01*
X13335Y120952D01*
X13389Y120954D01*
X13443Y120960D01*
X13497Y120969D01*
X13550Y120983D01*
X13601Y121000D01*
X13652Y121021D01*
X13700Y121045D01*
X13747Y121073D01*
X13792Y121104D01*
X13834Y121138D01*
X13874Y121175D01*
X13911Y121215D01*
X13945Y121257D01*
X13976Y121302D01*
X14004Y121349D01*
X14028Y121397D01*
X14049Y121448D01*
X14066Y121499D01*
X14080Y121552D01*
X14089Y121606D01*
X14095Y121660D01*
X14097Y121714D01*
X14097Y122984D01*
X13081Y125094D02*
X12065Y125094D01*
X13081Y125094D02*
X13144Y125096D01*
X13206Y125102D01*
X13268Y125111D01*
X13329Y125125D01*
X13389Y125142D01*
X13448Y125163D01*
X13506Y125187D01*
X13562Y125215D01*
X13616Y125246D01*
X13668Y125281D01*
X13718Y125318D01*
X13765Y125359D01*
X13810Y125403D01*
X13853Y125449D01*
X13892Y125498D01*
X13928Y125549D01*
X13961Y125602D01*
X13990Y125657D01*
X14017Y125714D01*
X14039Y125772D01*
X14058Y125832D01*
X14073Y125893D01*
X14085Y125954D01*
X14093Y126016D01*
X14097Y126079D01*
X14097Y126141D01*
X14093Y126204D01*
X14085Y126266D01*
X14073Y126327D01*
X14058Y126388D01*
X14039Y126448D01*
X14017Y126506D01*
X13990Y126563D01*
X13961Y126618D01*
X13928Y126671D01*
X13892Y126722D01*
X13853Y126771D01*
X13810Y126817D01*
X13765Y126861D01*
X13718Y126902D01*
X13668Y126939D01*
X13616Y126974D01*
X13562Y127005D01*
X13506Y127033D01*
X13448Y127057D01*
X13389Y127078D01*
X13329Y127095D01*
X13268Y127109D01*
X13206Y127118D01*
X13144Y127124D01*
X13081Y127126D01*
X12065Y127126D01*
X12002Y127124D01*
X11940Y127118D01*
X11878Y127109D01*
X11817Y127095D01*
X11757Y127078D01*
X11698Y127057D01*
X11640Y127033D01*
X11584Y127005D01*
X11530Y126974D01*
X11478Y126939D01*
X11428Y126902D01*
X11381Y126861D01*
X11336Y126817D01*
X11293Y126771D01*
X11254Y126722D01*
X11218Y126671D01*
X11185Y126618D01*
X11156Y126563D01*
X11129Y126506D01*
X11107Y126448D01*
X11088Y126388D01*
X11073Y126327D01*
X11061Y126266D01*
X11053Y126204D01*
X11049Y126141D01*
X11049Y126079D01*
X11053Y126016D01*
X11061Y125954D01*
X11073Y125893D01*
X11088Y125832D01*
X11107Y125772D01*
X11129Y125714D01*
X11156Y125657D01*
X11185Y125602D01*
X11218Y125549D01*
X11254Y125498D01*
X11293Y125449D01*
X11336Y125403D01*
X11381Y125359D01*
X11428Y125318D01*
X11478Y125281D01*
X11530Y125246D01*
X11584Y125215D01*
X11640Y125187D01*
X11698Y125163D01*
X11757Y125142D01*
X11817Y125125D01*
X11878Y125111D01*
X11940Y125102D01*
X12002Y125096D01*
X12065Y125094D01*
X11049Y129310D02*
X14097Y129310D01*
X14097Y131596D01*
X14095Y131650D01*
X14089Y131704D01*
X14080Y131758D01*
X14066Y131811D01*
X14049Y131862D01*
X14028Y131913D01*
X14004Y131961D01*
X13976Y132008D01*
X13945Y132053D01*
X13911Y132095D01*
X13874Y132135D01*
X13834Y132172D01*
X13792Y132206D01*
X13747Y132237D01*
X13700Y132265D01*
X13652Y132289D01*
X13601Y132310D01*
X13550Y132327D01*
X13497Y132341D01*
X13443Y132350D01*
X13389Y132356D01*
X13335Y132358D01*
X11049Y132358D01*
X11049Y130834D02*
X14097Y130834D01*
X11049Y135304D02*
X11049Y136574D01*
X11049Y135304D02*
X11051Y135250D01*
X11057Y135196D01*
X11066Y135142D01*
X11080Y135089D01*
X11097Y135038D01*
X11118Y134987D01*
X11142Y134939D01*
X11170Y134892D01*
X11201Y134847D01*
X11235Y134805D01*
X11272Y134765D01*
X11312Y134728D01*
X11354Y134694D01*
X11399Y134663D01*
X11446Y134635D01*
X11494Y134611D01*
X11545Y134590D01*
X11596Y134573D01*
X11649Y134559D01*
X11703Y134550D01*
X11757Y134544D01*
X11811Y134542D01*
X13081Y134542D01*
X13144Y134544D01*
X13206Y134550D01*
X13268Y134559D01*
X13329Y134573D01*
X13389Y134590D01*
X13448Y134611D01*
X13506Y134635D01*
X13562Y134663D01*
X13616Y134694D01*
X13668Y134729D01*
X13718Y134766D01*
X13765Y134807D01*
X13810Y134851D01*
X13853Y134897D01*
X13892Y134946D01*
X13928Y134997D01*
X13961Y135050D01*
X13990Y135105D01*
X14017Y135162D01*
X14039Y135220D01*
X14058Y135280D01*
X14073Y135341D01*
X14085Y135402D01*
X14093Y135464D01*
X14097Y135527D01*
X14097Y135589D01*
X14093Y135652D01*
X14085Y135714D01*
X14073Y135775D01*
X14058Y135836D01*
X14039Y135896D01*
X14017Y135954D01*
X13990Y136011D01*
X13961Y136066D01*
X13928Y136119D01*
X13892Y136170D01*
X13853Y136219D01*
X13810Y136265D01*
X13765Y136309D01*
X13718Y136350D01*
X13668Y136387D01*
X13616Y136422D01*
X13562Y136453D01*
X13506Y136481D01*
X13448Y136505D01*
X13389Y136526D01*
X13329Y136543D01*
X13268Y136557D01*
X13206Y136566D01*
X13144Y136572D01*
X13081Y136574D01*
X12573Y136574D01*
X12573Y134542D01*
X14097Y138108D02*
X14097Y139632D01*
X15621Y138616D02*
X11811Y138616D01*
X11757Y138618D01*
X11703Y138624D01*
X11649Y138633D01*
X11596Y138647D01*
X11545Y138664D01*
X11494Y138685D01*
X11446Y138709D01*
X11399Y138737D01*
X11354Y138768D01*
X11312Y138802D01*
X11272Y138839D01*
X11235Y138879D01*
X11201Y138921D01*
X11170Y138966D01*
X11142Y139013D01*
X11118Y139061D01*
X11097Y139112D01*
X11080Y139163D01*
X11066Y139216D01*
X11057Y139270D01*
X11051Y139324D01*
X11049Y139378D01*
X11049Y139632D01*
X11049Y142162D02*
X11049Y143432D01*
X11049Y142162D02*
X11051Y142108D01*
X11057Y142054D01*
X11066Y142000D01*
X11080Y141947D01*
X11097Y141896D01*
X11118Y141845D01*
X11142Y141797D01*
X11170Y141750D01*
X11201Y141705D01*
X11235Y141663D01*
X11272Y141623D01*
X11312Y141586D01*
X11354Y141552D01*
X11399Y141521D01*
X11446Y141493D01*
X11494Y141469D01*
X11545Y141448D01*
X11596Y141431D01*
X11649Y141417D01*
X11703Y141408D01*
X11757Y141402D01*
X11811Y141400D01*
X13081Y141400D01*
X13144Y141402D01*
X13206Y141408D01*
X13268Y141417D01*
X13329Y141431D01*
X13389Y141448D01*
X13448Y141469D01*
X13506Y141493D01*
X13562Y141521D01*
X13616Y141552D01*
X13668Y141587D01*
X13718Y141624D01*
X13765Y141665D01*
X13810Y141709D01*
X13853Y141755D01*
X13892Y141804D01*
X13928Y141855D01*
X13961Y141908D01*
X13990Y141963D01*
X14017Y142020D01*
X14039Y142078D01*
X14058Y142138D01*
X14073Y142199D01*
X14085Y142260D01*
X14093Y142322D01*
X14097Y142385D01*
X14097Y142447D01*
X14093Y142510D01*
X14085Y142572D01*
X14073Y142633D01*
X14058Y142694D01*
X14039Y142754D01*
X14017Y142812D01*
X13990Y142869D01*
X13961Y142924D01*
X13928Y142977D01*
X13892Y143028D01*
X13853Y143077D01*
X13810Y143123D01*
X13765Y143167D01*
X13718Y143208D01*
X13668Y143245D01*
X13616Y143280D01*
X13562Y143311D01*
X13506Y143339D01*
X13448Y143363D01*
X13389Y143384D01*
X13329Y143401D01*
X13268Y143415D01*
X13206Y143424D01*
X13144Y143430D01*
X13081Y143432D01*
X12573Y143432D01*
X12573Y141400D01*
X11049Y145545D02*
X14097Y145545D01*
X14097Y147069D01*
X13589Y147069D01*
X27559Y11628D02*
X27559Y9144D01*
X33147Y9144D01*
X33147Y11628D01*
X30663Y11007D02*
X30663Y9144D01*
X27559Y14930D02*
X27559Y16172D01*
X27559Y14930D02*
X27561Y14860D01*
X27567Y14791D01*
X27577Y14722D01*
X27590Y14654D01*
X27608Y14586D01*
X27629Y14520D01*
X27654Y14455D01*
X27682Y14391D01*
X27714Y14329D01*
X27749Y14269D01*
X27788Y14211D01*
X27830Y14156D01*
X27875Y14102D01*
X27923Y14052D01*
X27973Y14004D01*
X28027Y13959D01*
X28082Y13917D01*
X28140Y13878D01*
X28200Y13843D01*
X28262Y13811D01*
X28326Y13783D01*
X28391Y13758D01*
X28457Y13737D01*
X28525Y13719D01*
X28593Y13706D01*
X28662Y13696D01*
X28731Y13690D01*
X28801Y13688D01*
X28801Y13689D02*
X31905Y13689D01*
X31905Y13688D02*
X31975Y13690D01*
X32044Y13696D01*
X32113Y13706D01*
X32181Y13719D01*
X32249Y13737D01*
X32315Y13758D01*
X32380Y13783D01*
X32444Y13811D01*
X32506Y13843D01*
X32566Y13878D01*
X32624Y13917D01*
X32679Y13959D01*
X32733Y14004D01*
X32783Y14052D01*
X32831Y14102D01*
X32876Y14156D01*
X32918Y14211D01*
X32957Y14269D01*
X32992Y14329D01*
X33024Y14391D01*
X33052Y14455D01*
X33077Y14520D01*
X33098Y14586D01*
X33116Y14654D01*
X33129Y14722D01*
X33139Y14791D01*
X33145Y14860D01*
X33147Y14930D01*
X33147Y16172D01*
X27559Y18471D02*
X27559Y20954D01*
X27559Y18471D02*
X33147Y18471D01*
X33147Y20954D01*
X30663Y20333D02*
X30663Y18471D01*
X27559Y25958D02*
X27559Y27510D01*
X27561Y27587D01*
X27567Y27665D01*
X27576Y27741D01*
X27590Y27818D01*
X27607Y27893D01*
X27628Y27967D01*
X27653Y28041D01*
X27681Y28113D01*
X27713Y28183D01*
X27748Y28252D01*
X27787Y28319D01*
X27829Y28384D01*
X27874Y28447D01*
X27922Y28508D01*
X27973Y28566D01*
X28027Y28621D01*
X28084Y28674D01*
X28143Y28723D01*
X28205Y28770D01*
X28269Y28814D01*
X28335Y28854D01*
X28403Y28891D01*
X28473Y28925D01*
X28544Y28955D01*
X28617Y28981D01*
X28691Y29004D01*
X28766Y29023D01*
X28841Y29038D01*
X28918Y29050D01*
X28995Y29058D01*
X29072Y29062D01*
X29150Y29062D01*
X29227Y29058D01*
X29304Y29050D01*
X29381Y29038D01*
X29456Y29023D01*
X29531Y29004D01*
X29605Y28981D01*
X29678Y28955D01*
X29749Y28925D01*
X29819Y28891D01*
X29887Y28854D01*
X29953Y28814D01*
X30017Y28770D01*
X30079Y28723D01*
X30138Y28674D01*
X30195Y28621D01*
X30249Y28566D01*
X30300Y28508D01*
X30348Y28447D01*
X30393Y28384D01*
X30435Y28319D01*
X30474Y28252D01*
X30509Y28183D01*
X30541Y28113D01*
X30569Y28041D01*
X30594Y27967D01*
X30615Y27893D01*
X30632Y27818D01*
X30646Y27741D01*
X30655Y27665D01*
X30661Y27587D01*
X30663Y27510D01*
X33147Y27820D02*
X33147Y25958D01*
X33147Y27820D02*
X33145Y27890D01*
X33139Y27959D01*
X33129Y28028D01*
X33116Y28096D01*
X33098Y28164D01*
X33077Y28230D01*
X33052Y28295D01*
X33024Y28359D01*
X32992Y28421D01*
X32957Y28481D01*
X32918Y28539D01*
X32876Y28594D01*
X32831Y28648D01*
X32783Y28698D01*
X32733Y28746D01*
X32679Y28791D01*
X32624Y28833D01*
X32566Y28872D01*
X32506Y28907D01*
X32444Y28939D01*
X32380Y28967D01*
X32315Y28992D01*
X32249Y29013D01*
X32181Y29031D01*
X32113Y29044D01*
X32044Y29054D01*
X31975Y29060D01*
X31905Y29062D01*
X31835Y29060D01*
X31766Y29054D01*
X31697Y29044D01*
X31629Y29031D01*
X31561Y29013D01*
X31495Y28992D01*
X31430Y28967D01*
X31366Y28939D01*
X31304Y28907D01*
X31244Y28872D01*
X31186Y28833D01*
X31131Y28791D01*
X31077Y28746D01*
X31027Y28698D01*
X30979Y28648D01*
X30934Y28594D01*
X30892Y28539D01*
X30853Y28481D01*
X30818Y28421D01*
X30786Y28359D01*
X30758Y28295D01*
X30733Y28230D01*
X30712Y28164D01*
X30694Y28096D01*
X30681Y28028D01*
X30671Y27959D01*
X30665Y27890D01*
X30663Y27820D01*
X30663Y26579D01*
X29111Y31444D02*
X29188Y31446D01*
X29266Y31452D01*
X29342Y31461D01*
X29419Y31475D01*
X29494Y31492D01*
X29568Y31513D01*
X29642Y31538D01*
X29714Y31566D01*
X29784Y31598D01*
X29853Y31633D01*
X29920Y31672D01*
X29985Y31714D01*
X30048Y31759D01*
X30109Y31807D01*
X30167Y31858D01*
X30222Y31912D01*
X30275Y31969D01*
X30324Y32028D01*
X30371Y32090D01*
X30415Y32154D01*
X30455Y32220D01*
X30492Y32288D01*
X30526Y32358D01*
X30556Y32429D01*
X30582Y32502D01*
X30605Y32576D01*
X30624Y32651D01*
X30639Y32726D01*
X30651Y32803D01*
X30659Y32880D01*
X30663Y32957D01*
X30663Y33035D01*
X30659Y33112D01*
X30651Y33189D01*
X30639Y33266D01*
X30624Y33341D01*
X30605Y33416D01*
X30582Y33490D01*
X30556Y33563D01*
X30526Y33634D01*
X30492Y33704D01*
X30455Y33772D01*
X30415Y33838D01*
X30371Y33902D01*
X30324Y33964D01*
X30275Y34023D01*
X30222Y34080D01*
X30167Y34134D01*
X30109Y34185D01*
X30048Y34233D01*
X29985Y34278D01*
X29920Y34320D01*
X29853Y34359D01*
X29784Y34394D01*
X29714Y34426D01*
X29642Y34454D01*
X29568Y34479D01*
X29494Y34500D01*
X29419Y34517D01*
X29342Y34531D01*
X29266Y34540D01*
X29188Y34546D01*
X29111Y34548D01*
X29034Y34546D01*
X28956Y34540D01*
X28880Y34531D01*
X28803Y34517D01*
X28728Y34500D01*
X28654Y34479D01*
X28580Y34454D01*
X28508Y34426D01*
X28438Y34394D01*
X28369Y34359D01*
X28302Y34320D01*
X28237Y34278D01*
X28174Y34233D01*
X28113Y34185D01*
X28055Y34134D01*
X28000Y34080D01*
X27947Y34023D01*
X27898Y33964D01*
X27851Y33902D01*
X27807Y33838D01*
X27767Y33772D01*
X27730Y33704D01*
X27696Y33634D01*
X27666Y33563D01*
X27640Y33490D01*
X27617Y33416D01*
X27598Y33341D01*
X27583Y33266D01*
X27571Y33189D01*
X27563Y33112D01*
X27559Y33035D01*
X27559Y32957D01*
X27563Y32880D01*
X27571Y32803D01*
X27583Y32726D01*
X27598Y32651D01*
X27617Y32576D01*
X27640Y32502D01*
X27666Y32429D01*
X27696Y32358D01*
X27730Y32288D01*
X27767Y32220D01*
X27807Y32154D01*
X27851Y32090D01*
X27898Y32028D01*
X27947Y31969D01*
X28000Y31912D01*
X28055Y31858D01*
X28113Y31807D01*
X28174Y31759D01*
X28237Y31714D01*
X28302Y31672D01*
X28369Y31633D01*
X28438Y31598D01*
X28508Y31566D01*
X28580Y31538D01*
X28654Y31513D01*
X28728Y31492D01*
X28803Y31475D01*
X28880Y31461D01*
X28956Y31452D01*
X29034Y31446D01*
X29111Y31444D01*
X31905Y31754D02*
X31975Y31756D01*
X32044Y31762D01*
X32113Y31772D01*
X32181Y31785D01*
X32249Y31803D01*
X32315Y31824D01*
X32380Y31849D01*
X32444Y31877D01*
X32506Y31909D01*
X32566Y31944D01*
X32624Y31983D01*
X32679Y32025D01*
X32733Y32070D01*
X32783Y32118D01*
X32831Y32168D01*
X32876Y32222D01*
X32918Y32277D01*
X32957Y32335D01*
X32992Y32395D01*
X33024Y32457D01*
X33052Y32521D01*
X33077Y32586D01*
X33098Y32652D01*
X33116Y32720D01*
X33129Y32788D01*
X33139Y32857D01*
X33145Y32926D01*
X33147Y32996D01*
X33145Y33066D01*
X33139Y33135D01*
X33129Y33204D01*
X33116Y33272D01*
X33098Y33340D01*
X33077Y33406D01*
X33052Y33471D01*
X33024Y33535D01*
X32992Y33597D01*
X32957Y33657D01*
X32918Y33715D01*
X32876Y33770D01*
X32831Y33824D01*
X32783Y33874D01*
X32733Y33922D01*
X32679Y33967D01*
X32624Y34009D01*
X32566Y34048D01*
X32506Y34083D01*
X32444Y34115D01*
X32380Y34143D01*
X32315Y34168D01*
X32249Y34189D01*
X32181Y34207D01*
X32113Y34220D01*
X32044Y34230D01*
X31975Y34236D01*
X31905Y34238D01*
X31835Y34236D01*
X31766Y34230D01*
X31697Y34220D01*
X31629Y34207D01*
X31561Y34189D01*
X31495Y34168D01*
X31430Y34143D01*
X31366Y34115D01*
X31304Y34083D01*
X31244Y34048D01*
X31186Y34009D01*
X31131Y33967D01*
X31077Y33922D01*
X31027Y33874D01*
X30979Y33824D01*
X30934Y33770D01*
X30892Y33715D01*
X30853Y33657D01*
X30818Y33597D01*
X30786Y33535D01*
X30758Y33471D01*
X30733Y33406D01*
X30712Y33340D01*
X30694Y33272D01*
X30681Y33204D01*
X30671Y33135D01*
X30665Y33066D01*
X30663Y32996D01*
X30665Y32926D01*
X30671Y32857D01*
X30681Y32788D01*
X30694Y32720D01*
X30712Y32652D01*
X30733Y32586D01*
X30758Y32521D01*
X30786Y32457D01*
X30818Y32395D01*
X30853Y32335D01*
X30892Y32277D01*
X30934Y32222D01*
X30979Y32168D01*
X31027Y32118D01*
X31077Y32070D01*
X31131Y32025D01*
X31186Y31983D01*
X31244Y31944D01*
X31304Y31909D01*
X31366Y31877D01*
X31430Y31849D01*
X31495Y31824D01*
X31561Y31803D01*
X31629Y31785D01*
X31697Y31772D01*
X31766Y31762D01*
X31835Y31756D01*
X31905Y31754D01*
X29111Y36931D02*
X29188Y36933D01*
X29266Y36939D01*
X29342Y36948D01*
X29419Y36962D01*
X29494Y36979D01*
X29568Y37000D01*
X29642Y37025D01*
X29714Y37053D01*
X29784Y37085D01*
X29853Y37120D01*
X29920Y37159D01*
X29985Y37201D01*
X30048Y37246D01*
X30109Y37294D01*
X30167Y37345D01*
X30222Y37399D01*
X30275Y37456D01*
X30324Y37515D01*
X30371Y37577D01*
X30415Y37641D01*
X30455Y37707D01*
X30492Y37775D01*
X30526Y37845D01*
X30556Y37916D01*
X30582Y37989D01*
X30605Y38063D01*
X30624Y38138D01*
X30639Y38213D01*
X30651Y38290D01*
X30659Y38367D01*
X30663Y38444D01*
X30663Y38522D01*
X30659Y38599D01*
X30651Y38676D01*
X30639Y38753D01*
X30624Y38828D01*
X30605Y38903D01*
X30582Y38977D01*
X30556Y39050D01*
X30526Y39121D01*
X30492Y39191D01*
X30455Y39259D01*
X30415Y39325D01*
X30371Y39389D01*
X30324Y39451D01*
X30275Y39510D01*
X30222Y39567D01*
X30167Y39621D01*
X30109Y39672D01*
X30048Y39720D01*
X29985Y39765D01*
X29920Y39807D01*
X29853Y39846D01*
X29784Y39881D01*
X29714Y39913D01*
X29642Y39941D01*
X29568Y39966D01*
X29494Y39987D01*
X29419Y40004D01*
X29342Y40018D01*
X29266Y40027D01*
X29188Y40033D01*
X29111Y40035D01*
X29034Y40033D01*
X28956Y40027D01*
X28880Y40018D01*
X28803Y40004D01*
X28728Y39987D01*
X28654Y39966D01*
X28580Y39941D01*
X28508Y39913D01*
X28438Y39881D01*
X28369Y39846D01*
X28302Y39807D01*
X28237Y39765D01*
X28174Y39720D01*
X28113Y39672D01*
X28055Y39621D01*
X28000Y39567D01*
X27947Y39510D01*
X27898Y39451D01*
X27851Y39389D01*
X27807Y39325D01*
X27767Y39259D01*
X27730Y39191D01*
X27696Y39121D01*
X27666Y39050D01*
X27640Y38977D01*
X27617Y38903D01*
X27598Y38828D01*
X27583Y38753D01*
X27571Y38676D01*
X27563Y38599D01*
X27559Y38522D01*
X27559Y38444D01*
X27563Y38367D01*
X27571Y38290D01*
X27583Y38213D01*
X27598Y38138D01*
X27617Y38063D01*
X27640Y37989D01*
X27666Y37916D01*
X27696Y37845D01*
X27730Y37775D01*
X27767Y37707D01*
X27807Y37641D01*
X27851Y37577D01*
X27898Y37515D01*
X27947Y37456D01*
X28000Y37399D01*
X28055Y37345D01*
X28113Y37294D01*
X28174Y37246D01*
X28237Y37201D01*
X28302Y37159D01*
X28369Y37120D01*
X28438Y37085D01*
X28508Y37053D01*
X28580Y37025D01*
X28654Y37000D01*
X28728Y36979D01*
X28803Y36962D01*
X28880Y36948D01*
X28956Y36939D01*
X29034Y36933D01*
X29111Y36931D01*
X31905Y37241D02*
X31975Y37243D01*
X32044Y37249D01*
X32113Y37259D01*
X32181Y37272D01*
X32249Y37290D01*
X32315Y37311D01*
X32380Y37336D01*
X32444Y37364D01*
X32506Y37396D01*
X32566Y37431D01*
X32624Y37470D01*
X32679Y37512D01*
X32733Y37557D01*
X32783Y37605D01*
X32831Y37655D01*
X32876Y37709D01*
X32918Y37764D01*
X32957Y37822D01*
X32992Y37882D01*
X33024Y37944D01*
X33052Y38008D01*
X33077Y38073D01*
X33098Y38139D01*
X33116Y38207D01*
X33129Y38275D01*
X33139Y38344D01*
X33145Y38413D01*
X33147Y38483D01*
X33145Y38553D01*
X33139Y38622D01*
X33129Y38691D01*
X33116Y38759D01*
X33098Y38827D01*
X33077Y38893D01*
X33052Y38958D01*
X33024Y39022D01*
X32992Y39084D01*
X32957Y39144D01*
X32918Y39202D01*
X32876Y39257D01*
X32831Y39311D01*
X32783Y39361D01*
X32733Y39409D01*
X32679Y39454D01*
X32624Y39496D01*
X32566Y39535D01*
X32506Y39570D01*
X32444Y39602D01*
X32380Y39630D01*
X32315Y39655D01*
X32249Y39676D01*
X32181Y39694D01*
X32113Y39707D01*
X32044Y39717D01*
X31975Y39723D01*
X31905Y39725D01*
X31835Y39723D01*
X31766Y39717D01*
X31697Y39707D01*
X31629Y39694D01*
X31561Y39676D01*
X31495Y39655D01*
X31430Y39630D01*
X31366Y39602D01*
X31304Y39570D01*
X31244Y39535D01*
X31186Y39496D01*
X31131Y39454D01*
X31077Y39409D01*
X31027Y39361D01*
X30979Y39311D01*
X30934Y39257D01*
X30892Y39202D01*
X30853Y39144D01*
X30818Y39084D01*
X30786Y39022D01*
X30758Y38958D01*
X30733Y38893D01*
X30712Y38827D01*
X30694Y38759D01*
X30681Y38691D01*
X30671Y38622D01*
X30665Y38553D01*
X30663Y38483D01*
X30665Y38413D01*
X30671Y38344D01*
X30681Y38275D01*
X30694Y38207D01*
X30712Y38139D01*
X30733Y38073D01*
X30758Y38008D01*
X30786Y37944D01*
X30818Y37882D01*
X30853Y37822D01*
X30892Y37764D01*
X30934Y37709D01*
X30979Y37655D01*
X31027Y37605D01*
X31077Y37557D01*
X31131Y37512D01*
X31186Y37470D01*
X31244Y37431D01*
X31304Y37396D01*
X31366Y37364D01*
X31430Y37336D01*
X31495Y37311D01*
X31561Y37290D01*
X31629Y37272D01*
X31697Y37259D01*
X31766Y37249D01*
X31835Y37243D01*
X31905Y37241D01*
X33147Y45609D02*
X27559Y45609D01*
X33147Y45609D02*
X33147Y47161D01*
X33145Y47238D01*
X33139Y47316D01*
X33130Y47392D01*
X33116Y47469D01*
X33099Y47544D01*
X33078Y47618D01*
X33053Y47692D01*
X33025Y47764D01*
X32993Y47834D01*
X32958Y47903D01*
X32919Y47970D01*
X32877Y48035D01*
X32832Y48098D01*
X32784Y48159D01*
X32733Y48217D01*
X32679Y48272D01*
X32622Y48325D01*
X32563Y48374D01*
X32501Y48421D01*
X32437Y48465D01*
X32371Y48505D01*
X32303Y48542D01*
X32233Y48576D01*
X32162Y48606D01*
X32089Y48632D01*
X32015Y48655D01*
X31940Y48674D01*
X31865Y48689D01*
X31788Y48701D01*
X31711Y48709D01*
X31634Y48713D01*
X31556Y48713D01*
X31479Y48709D01*
X31402Y48701D01*
X31325Y48689D01*
X31250Y48674D01*
X31175Y48655D01*
X31101Y48632D01*
X31028Y48606D01*
X30957Y48576D01*
X30887Y48542D01*
X30819Y48505D01*
X30753Y48465D01*
X30689Y48421D01*
X30627Y48374D01*
X30568Y48325D01*
X30511Y48272D01*
X30457Y48217D01*
X30406Y48159D01*
X30358Y48098D01*
X30313Y48035D01*
X30271Y47970D01*
X30232Y47903D01*
X30197Y47834D01*
X30165Y47764D01*
X30137Y47692D01*
X30112Y47618D01*
X30091Y47544D01*
X30074Y47469D01*
X30060Y47392D01*
X30051Y47316D01*
X30045Y47238D01*
X30043Y47161D01*
X30043Y45609D01*
X27559Y51705D02*
X27559Y53257D01*
X27559Y51705D02*
X27561Y51647D01*
X27566Y51588D01*
X27575Y51531D01*
X27588Y51473D01*
X27605Y51417D01*
X27624Y51362D01*
X27648Y51309D01*
X27674Y51256D01*
X27704Y51206D01*
X27737Y51158D01*
X27773Y51112D01*
X27811Y51068D01*
X27853Y51026D01*
X27897Y50988D01*
X27943Y50952D01*
X27991Y50919D01*
X28041Y50889D01*
X28094Y50863D01*
X28147Y50839D01*
X28202Y50820D01*
X28258Y50803D01*
X28316Y50790D01*
X28373Y50781D01*
X28432Y50776D01*
X28490Y50774D01*
X30043Y50774D01*
X30113Y50776D01*
X30182Y50782D01*
X30251Y50792D01*
X30319Y50805D01*
X30387Y50823D01*
X30453Y50844D01*
X30518Y50869D01*
X30582Y50897D01*
X30644Y50929D01*
X30704Y50964D01*
X30762Y51003D01*
X30817Y51045D01*
X30871Y51090D01*
X30921Y51138D01*
X30969Y51188D01*
X31014Y51242D01*
X31056Y51297D01*
X31095Y51355D01*
X31130Y51415D01*
X31162Y51477D01*
X31190Y51541D01*
X31215Y51606D01*
X31236Y51672D01*
X31254Y51740D01*
X31267Y51808D01*
X31277Y51877D01*
X31283Y51946D01*
X31285Y52016D01*
X31283Y52086D01*
X31277Y52155D01*
X31267Y52224D01*
X31254Y52292D01*
X31236Y52360D01*
X31215Y52426D01*
X31190Y52491D01*
X31162Y52555D01*
X31130Y52617D01*
X31095Y52677D01*
X31056Y52735D01*
X31014Y52790D01*
X30969Y52844D01*
X30921Y52894D01*
X30871Y52942D01*
X30817Y52987D01*
X30762Y53029D01*
X30704Y53068D01*
X30644Y53103D01*
X30582Y53135D01*
X30518Y53163D01*
X30453Y53188D01*
X30387Y53209D01*
X30319Y53227D01*
X30251Y53240D01*
X30182Y53250D01*
X30113Y53256D01*
X30043Y53258D01*
X30043Y53257D02*
X29422Y53257D01*
X29422Y50774D01*
X27559Y57983D02*
X33147Y57983D01*
X27559Y57983D02*
X27559Y56431D01*
X27561Y56373D01*
X27566Y56314D01*
X27575Y56257D01*
X27588Y56199D01*
X27605Y56143D01*
X27624Y56088D01*
X27648Y56035D01*
X27674Y55982D01*
X27704Y55932D01*
X27737Y55884D01*
X27773Y55838D01*
X27811Y55794D01*
X27853Y55752D01*
X27897Y55714D01*
X27943Y55678D01*
X27991Y55645D01*
X28041Y55615D01*
X28094Y55589D01*
X28147Y55565D01*
X28202Y55546D01*
X28258Y55529D01*
X28316Y55516D01*
X28373Y55507D01*
X28432Y55502D01*
X28490Y55500D01*
X30353Y55500D01*
X30411Y55502D01*
X30470Y55507D01*
X30527Y55516D01*
X30585Y55529D01*
X30641Y55546D01*
X30696Y55565D01*
X30749Y55589D01*
X30802Y55615D01*
X30852Y55645D01*
X30900Y55678D01*
X30946Y55714D01*
X30990Y55752D01*
X31032Y55794D01*
X31070Y55838D01*
X31106Y55884D01*
X31139Y55932D01*
X31169Y55982D01*
X31195Y56035D01*
X31219Y56088D01*
X31238Y56143D01*
X31255Y56199D01*
X31268Y56257D01*
X31277Y56314D01*
X31282Y56373D01*
X31284Y56431D01*
X31284Y57983D01*
X30043Y60466D02*
X28801Y60466D01*
X30043Y60466D02*
X30113Y60468D01*
X30182Y60474D01*
X30251Y60484D01*
X30319Y60497D01*
X30387Y60515D01*
X30453Y60536D01*
X30518Y60561D01*
X30582Y60589D01*
X30644Y60621D01*
X30704Y60656D01*
X30762Y60695D01*
X30817Y60737D01*
X30871Y60782D01*
X30921Y60830D01*
X30969Y60880D01*
X31014Y60934D01*
X31056Y60989D01*
X31095Y61047D01*
X31130Y61107D01*
X31162Y61169D01*
X31190Y61233D01*
X31215Y61298D01*
X31236Y61364D01*
X31254Y61432D01*
X31267Y61500D01*
X31277Y61569D01*
X31283Y61638D01*
X31285Y61708D01*
X31283Y61778D01*
X31277Y61847D01*
X31267Y61916D01*
X31254Y61984D01*
X31236Y62052D01*
X31215Y62118D01*
X31190Y62183D01*
X31162Y62247D01*
X31130Y62309D01*
X31095Y62369D01*
X31056Y62427D01*
X31014Y62482D01*
X30969Y62536D01*
X30921Y62586D01*
X30871Y62634D01*
X30817Y62679D01*
X30762Y62721D01*
X30704Y62760D01*
X30644Y62795D01*
X30582Y62827D01*
X30518Y62855D01*
X30453Y62880D01*
X30387Y62901D01*
X30319Y62919D01*
X30251Y62932D01*
X30182Y62942D01*
X30113Y62948D01*
X30043Y62950D01*
X28801Y62950D01*
X28731Y62948D01*
X28662Y62942D01*
X28593Y62932D01*
X28525Y62919D01*
X28457Y62901D01*
X28391Y62880D01*
X28326Y62855D01*
X28262Y62827D01*
X28200Y62795D01*
X28140Y62760D01*
X28082Y62721D01*
X28027Y62679D01*
X27973Y62634D01*
X27923Y62586D01*
X27875Y62536D01*
X27830Y62482D01*
X27788Y62427D01*
X27749Y62369D01*
X27714Y62309D01*
X27682Y62247D01*
X27654Y62183D01*
X27629Y62118D01*
X27608Y62052D01*
X27590Y61984D01*
X27577Y61916D01*
X27567Y61847D01*
X27561Y61778D01*
X27559Y61708D01*
X27561Y61638D01*
X27567Y61569D01*
X27577Y61500D01*
X27590Y61432D01*
X27608Y61364D01*
X27629Y61298D01*
X27654Y61233D01*
X27682Y61169D01*
X27714Y61107D01*
X27749Y61047D01*
X27788Y60989D01*
X27830Y60934D01*
X27875Y60880D01*
X27923Y60830D01*
X27973Y60782D01*
X28027Y60737D01*
X28082Y60695D01*
X28140Y60656D01*
X28200Y60621D01*
X28262Y60589D01*
X28326Y60561D01*
X28391Y60536D01*
X28457Y60515D01*
X28525Y60497D01*
X28593Y60484D01*
X28662Y60474D01*
X28731Y60468D01*
X28801Y60466D01*
X27559Y65515D02*
X31284Y65515D01*
X31284Y68309D01*
X31282Y68367D01*
X31277Y68426D01*
X31268Y68483D01*
X31255Y68541D01*
X31238Y68597D01*
X31219Y68652D01*
X31195Y68705D01*
X31169Y68758D01*
X31139Y68808D01*
X31106Y68856D01*
X31070Y68902D01*
X31032Y68946D01*
X30990Y68988D01*
X30946Y69026D01*
X30900Y69062D01*
X30852Y69095D01*
X30802Y69125D01*
X30749Y69151D01*
X30696Y69175D01*
X30641Y69194D01*
X30585Y69211D01*
X30527Y69224D01*
X30470Y69233D01*
X30411Y69238D01*
X30353Y69240D01*
X27559Y69240D01*
X27559Y67377D02*
X31284Y67377D01*
X27559Y72736D02*
X27559Y74288D01*
X27559Y72736D02*
X27561Y72678D01*
X27566Y72619D01*
X27575Y72562D01*
X27588Y72504D01*
X27605Y72448D01*
X27624Y72393D01*
X27648Y72340D01*
X27674Y72287D01*
X27704Y72237D01*
X27737Y72189D01*
X27773Y72143D01*
X27811Y72099D01*
X27853Y72057D01*
X27897Y72019D01*
X27943Y71983D01*
X27991Y71950D01*
X28041Y71920D01*
X28094Y71894D01*
X28147Y71870D01*
X28202Y71851D01*
X28258Y71834D01*
X28316Y71821D01*
X28373Y71812D01*
X28432Y71807D01*
X28490Y71805D01*
X30043Y71805D01*
X30113Y71807D01*
X30182Y71813D01*
X30251Y71823D01*
X30319Y71836D01*
X30387Y71854D01*
X30453Y71875D01*
X30518Y71900D01*
X30582Y71928D01*
X30644Y71960D01*
X30704Y71995D01*
X30762Y72034D01*
X30817Y72076D01*
X30871Y72121D01*
X30921Y72169D01*
X30969Y72219D01*
X31014Y72273D01*
X31056Y72328D01*
X31095Y72386D01*
X31130Y72446D01*
X31162Y72508D01*
X31190Y72572D01*
X31215Y72637D01*
X31236Y72703D01*
X31254Y72771D01*
X31267Y72839D01*
X31277Y72908D01*
X31283Y72977D01*
X31285Y73047D01*
X31283Y73117D01*
X31277Y73186D01*
X31267Y73255D01*
X31254Y73323D01*
X31236Y73391D01*
X31215Y73457D01*
X31190Y73522D01*
X31162Y73586D01*
X31130Y73648D01*
X31095Y73708D01*
X31056Y73766D01*
X31014Y73821D01*
X30969Y73875D01*
X30921Y73925D01*
X30871Y73973D01*
X30817Y74018D01*
X30762Y74060D01*
X30704Y74099D01*
X30644Y74134D01*
X30582Y74166D01*
X30518Y74194D01*
X30453Y74219D01*
X30387Y74240D01*
X30319Y74258D01*
X30251Y74271D01*
X30182Y74281D01*
X30113Y74287D01*
X30043Y74289D01*
X30043Y74288D02*
X29422Y74288D01*
X29422Y71805D01*
X31284Y76093D02*
X31284Y77956D01*
X33147Y76714D02*
X28490Y76714D01*
X28490Y76715D02*
X28432Y76717D01*
X28373Y76722D01*
X28316Y76731D01*
X28258Y76744D01*
X28202Y76761D01*
X28147Y76780D01*
X28094Y76804D01*
X28041Y76830D01*
X27991Y76860D01*
X27943Y76893D01*
X27897Y76929D01*
X27853Y76967D01*
X27811Y77009D01*
X27773Y77053D01*
X27737Y77099D01*
X27704Y77147D01*
X27674Y77198D01*
X27648Y77250D01*
X27624Y77303D01*
X27605Y77358D01*
X27588Y77414D01*
X27575Y77472D01*
X27566Y77529D01*
X27561Y77588D01*
X27559Y77646D01*
X27559Y77956D01*
X27559Y80966D02*
X27559Y82518D01*
X27559Y80966D02*
X27561Y80908D01*
X27566Y80849D01*
X27575Y80792D01*
X27588Y80734D01*
X27605Y80678D01*
X27624Y80623D01*
X27648Y80570D01*
X27674Y80517D01*
X27704Y80467D01*
X27737Y80419D01*
X27773Y80373D01*
X27811Y80329D01*
X27853Y80287D01*
X27897Y80249D01*
X27943Y80213D01*
X27991Y80180D01*
X28041Y80150D01*
X28094Y80124D01*
X28147Y80100D01*
X28202Y80081D01*
X28258Y80064D01*
X28316Y80051D01*
X28373Y80042D01*
X28432Y80037D01*
X28490Y80035D01*
X28490Y80034D02*
X30043Y80034D01*
X30113Y80036D01*
X30182Y80042D01*
X30251Y80052D01*
X30319Y80065D01*
X30387Y80083D01*
X30453Y80104D01*
X30518Y80129D01*
X30582Y80157D01*
X30644Y80189D01*
X30704Y80224D01*
X30762Y80263D01*
X30817Y80305D01*
X30871Y80350D01*
X30921Y80398D01*
X30969Y80448D01*
X31014Y80502D01*
X31056Y80557D01*
X31095Y80615D01*
X31130Y80675D01*
X31162Y80737D01*
X31190Y80801D01*
X31215Y80866D01*
X31236Y80932D01*
X31254Y81000D01*
X31267Y81068D01*
X31277Y81137D01*
X31283Y81206D01*
X31285Y81276D01*
X31283Y81346D01*
X31277Y81415D01*
X31267Y81484D01*
X31254Y81552D01*
X31236Y81620D01*
X31215Y81686D01*
X31190Y81751D01*
X31162Y81815D01*
X31130Y81877D01*
X31095Y81937D01*
X31056Y81995D01*
X31014Y82050D01*
X30969Y82104D01*
X30921Y82154D01*
X30871Y82202D01*
X30817Y82247D01*
X30762Y82289D01*
X30704Y82328D01*
X30644Y82363D01*
X30582Y82395D01*
X30518Y82423D01*
X30453Y82448D01*
X30387Y82469D01*
X30319Y82487D01*
X30251Y82500D01*
X30182Y82510D01*
X30113Y82516D01*
X30043Y82518D01*
X29422Y82518D01*
X29422Y80034D01*
X27559Y85005D02*
X31284Y85005D01*
X31284Y86867D01*
X30663Y86867D01*
X24257Y8509D02*
X18669Y8509D01*
X24257Y8509D02*
X24257Y10993D01*
X21773Y10993D02*
X21773Y8509D01*
X20842Y14072D02*
X20842Y15469D01*
X20843Y14072D02*
X20841Y14008D01*
X20835Y13943D01*
X20826Y13880D01*
X20813Y13817D01*
X20796Y13755D01*
X20775Y13694D01*
X20751Y13634D01*
X20723Y13576D01*
X20692Y13519D01*
X20658Y13465D01*
X20620Y13412D01*
X20579Y13362D01*
X20536Y13315D01*
X20490Y13270D01*
X20441Y13228D01*
X20390Y13189D01*
X20336Y13153D01*
X20281Y13120D01*
X20223Y13091D01*
X20165Y13065D01*
X20104Y13042D01*
X20043Y13023D01*
X19980Y13008D01*
X19916Y12997D01*
X19853Y12989D01*
X19788Y12985D01*
X19724Y12985D01*
X19659Y12989D01*
X19596Y12997D01*
X19532Y13008D01*
X19469Y13023D01*
X19408Y13042D01*
X19347Y13065D01*
X19289Y13091D01*
X19231Y13120D01*
X19176Y13153D01*
X19122Y13189D01*
X19071Y13228D01*
X19022Y13270D01*
X18976Y13315D01*
X18933Y13362D01*
X18892Y13412D01*
X18854Y13465D01*
X18820Y13519D01*
X18789Y13576D01*
X18761Y13634D01*
X18737Y13694D01*
X18716Y13755D01*
X18699Y13817D01*
X18686Y13880D01*
X18677Y13943D01*
X18671Y14008D01*
X18669Y14072D01*
X18669Y15469D01*
X21463Y15469D01*
X21521Y15467D01*
X21580Y15462D01*
X21637Y15453D01*
X21695Y15440D01*
X21751Y15423D01*
X21806Y15404D01*
X21859Y15380D01*
X21912Y15354D01*
X21962Y15324D01*
X22010Y15291D01*
X22056Y15255D01*
X22100Y15217D01*
X22142Y15175D01*
X22180Y15131D01*
X22216Y15085D01*
X22249Y15037D01*
X22279Y14987D01*
X22305Y14934D01*
X22329Y14881D01*
X22348Y14826D01*
X22365Y14770D01*
X22378Y14712D01*
X22387Y14655D01*
X22392Y14596D01*
X22394Y14538D01*
X22394Y13296D01*
X24257Y18022D02*
X19600Y18022D01*
X19542Y18024D01*
X19483Y18029D01*
X19426Y18038D01*
X19368Y18051D01*
X19312Y18068D01*
X19257Y18087D01*
X19204Y18111D01*
X19151Y18137D01*
X19101Y18167D01*
X19053Y18200D01*
X19007Y18236D01*
X18963Y18274D01*
X18921Y18316D01*
X18883Y18360D01*
X18847Y18406D01*
X18814Y18454D01*
X18784Y18504D01*
X18758Y18557D01*
X18734Y18610D01*
X18715Y18665D01*
X18698Y18721D01*
X18685Y18779D01*
X18676Y18836D01*
X18671Y18895D01*
X18669Y18953D01*
X19600Y20948D02*
X24257Y20948D01*
X19600Y20948D02*
X19542Y20950D01*
X19483Y20955D01*
X19426Y20964D01*
X19368Y20977D01*
X19312Y20994D01*
X19257Y21013D01*
X19204Y21037D01*
X19151Y21063D01*
X19101Y21093D01*
X19053Y21126D01*
X19007Y21162D01*
X18963Y21200D01*
X18921Y21242D01*
X18883Y21286D01*
X18847Y21332D01*
X18814Y21380D01*
X18784Y21430D01*
X18758Y21483D01*
X18734Y21536D01*
X18715Y21591D01*
X18698Y21647D01*
X18685Y21705D01*
X18676Y21762D01*
X18671Y21821D01*
X18669Y21879D01*
X24257Y28493D02*
X24255Y28566D01*
X24249Y28639D01*
X24240Y28712D01*
X24226Y28783D01*
X24209Y28855D01*
X24189Y28925D01*
X24164Y28994D01*
X24136Y29061D01*
X24105Y29127D01*
X24070Y29192D01*
X24032Y29254D01*
X23990Y29314D01*
X23946Y29372D01*
X23898Y29428D01*
X23848Y29481D01*
X23795Y29531D01*
X23739Y29579D01*
X23681Y29623D01*
X23621Y29665D01*
X23559Y29703D01*
X23494Y29738D01*
X23428Y29769D01*
X23361Y29797D01*
X23292Y29822D01*
X23222Y29842D01*
X23150Y29859D01*
X23079Y29873D01*
X23006Y29882D01*
X22933Y29888D01*
X22860Y29890D01*
X24257Y28493D02*
X24255Y28409D01*
X24249Y28326D01*
X24240Y28243D01*
X24226Y28161D01*
X24209Y28079D01*
X24187Y27998D01*
X24162Y27918D01*
X24134Y27840D01*
X24102Y27762D01*
X24066Y27687D01*
X24027Y27613D01*
X23984Y27541D01*
X23938Y27471D01*
X23889Y27404D01*
X23836Y27338D01*
X23781Y27276D01*
X23723Y27216D01*
X23662Y27158D01*
X23599Y27104D01*
X23533Y27052D01*
X23465Y27004D01*
X23394Y26959D01*
X23322Y26917D01*
X23247Y26879D01*
X23171Y26844D01*
X23094Y26813D01*
X23015Y26785D01*
X21774Y29424D02*
X21827Y29478D01*
X21884Y29529D01*
X21943Y29577D01*
X22004Y29622D01*
X22067Y29663D01*
X22133Y29702D01*
X22200Y29737D01*
X22269Y29769D01*
X22340Y29797D01*
X22411Y29821D01*
X22484Y29842D01*
X22558Y29859D01*
X22633Y29873D01*
X22708Y29882D01*
X22784Y29888D01*
X22860Y29890D01*
X21773Y29425D02*
X18669Y26786D01*
X18669Y29890D01*
X21463Y32272D02*
X21594Y32274D01*
X21724Y32279D01*
X21854Y32289D01*
X21984Y32302D01*
X22114Y32318D01*
X22243Y32338D01*
X22371Y32362D01*
X22498Y32390D01*
X22625Y32421D01*
X22751Y32456D01*
X22876Y32494D01*
X23000Y32536D01*
X23122Y32581D01*
X23243Y32630D01*
X23363Y32682D01*
X23481Y32738D01*
X23481Y32737D02*
X23541Y32760D01*
X23601Y32786D01*
X23658Y32815D01*
X23714Y32848D01*
X23768Y32884D01*
X23820Y32922D01*
X23870Y32964D01*
X23917Y33008D01*
X23962Y33055D01*
X24004Y33105D01*
X24043Y33156D01*
X24079Y33210D01*
X24112Y33266D01*
X24142Y33323D01*
X24169Y33382D01*
X24192Y33443D01*
X24212Y33504D01*
X24228Y33567D01*
X24241Y33631D01*
X24250Y33695D01*
X24255Y33759D01*
X24257Y33824D01*
X24255Y33889D01*
X24250Y33953D01*
X24241Y34017D01*
X24228Y34081D01*
X24212Y34144D01*
X24192Y34205D01*
X24169Y34266D01*
X24142Y34325D01*
X24112Y34382D01*
X24079Y34438D01*
X24043Y34492D01*
X24004Y34543D01*
X23962Y34593D01*
X23917Y34640D01*
X23870Y34684D01*
X23820Y34726D01*
X23768Y34764D01*
X23714Y34800D01*
X23658Y34833D01*
X23601Y34862D01*
X23541Y34888D01*
X23481Y34911D01*
X23363Y34967D01*
X23243Y35019D01*
X23122Y35068D01*
X23000Y35113D01*
X22876Y35155D01*
X22751Y35193D01*
X22625Y35228D01*
X22499Y35259D01*
X22371Y35287D01*
X22243Y35311D01*
X22114Y35331D01*
X21984Y35347D01*
X21854Y35360D01*
X21724Y35370D01*
X21594Y35375D01*
X21463Y35377D01*
X21463Y32272D02*
X21332Y32274D01*
X21202Y32279D01*
X21072Y32289D01*
X20942Y32302D01*
X20812Y32318D01*
X20683Y32338D01*
X20555Y32362D01*
X20428Y32390D01*
X20301Y32421D01*
X20175Y32456D01*
X20050Y32494D01*
X19926Y32536D01*
X19804Y32581D01*
X19683Y32630D01*
X19563Y32682D01*
X19445Y32738D01*
X19445Y32737D02*
X19385Y32760D01*
X19325Y32786D01*
X19268Y32815D01*
X19212Y32848D01*
X19158Y32884D01*
X19106Y32922D01*
X19056Y32964D01*
X19009Y33008D01*
X18964Y33055D01*
X18922Y33105D01*
X18883Y33156D01*
X18847Y33210D01*
X18814Y33266D01*
X18784Y33323D01*
X18757Y33382D01*
X18734Y33443D01*
X18714Y33504D01*
X18698Y33567D01*
X18685Y33631D01*
X18676Y33695D01*
X18671Y33759D01*
X18669Y33824D01*
X19445Y34911D02*
X19563Y34967D01*
X19683Y35019D01*
X19804Y35068D01*
X19926Y35113D01*
X20050Y35155D01*
X20175Y35193D01*
X20301Y35228D01*
X20427Y35259D01*
X20555Y35287D01*
X20683Y35311D01*
X20812Y35331D01*
X20942Y35347D01*
X21072Y35360D01*
X21202Y35370D01*
X21332Y35375D01*
X21463Y35377D01*
X19445Y34911D02*
X19385Y34888D01*
X19325Y34862D01*
X19268Y34833D01*
X19212Y34800D01*
X19158Y34764D01*
X19106Y34726D01*
X19056Y34684D01*
X19009Y34640D01*
X18964Y34593D01*
X18922Y34543D01*
X18883Y34492D01*
X18847Y34438D01*
X18814Y34382D01*
X18784Y34325D01*
X18757Y34266D01*
X18734Y34205D01*
X18714Y34144D01*
X18698Y34081D01*
X18685Y34017D01*
X18676Y33953D01*
X18671Y33889D01*
X18669Y33824D01*
X19911Y32583D02*
X23015Y35066D01*
X24257Y39466D02*
X24255Y39539D01*
X24249Y39612D01*
X24240Y39685D01*
X24226Y39756D01*
X24209Y39828D01*
X24189Y39898D01*
X24164Y39967D01*
X24136Y40034D01*
X24105Y40100D01*
X24070Y40165D01*
X24032Y40227D01*
X23990Y40287D01*
X23946Y40345D01*
X23898Y40401D01*
X23848Y40454D01*
X23795Y40504D01*
X23739Y40552D01*
X23681Y40596D01*
X23621Y40638D01*
X23559Y40676D01*
X23494Y40711D01*
X23428Y40742D01*
X23361Y40770D01*
X23292Y40795D01*
X23222Y40815D01*
X23150Y40832D01*
X23079Y40846D01*
X23006Y40855D01*
X22933Y40861D01*
X22860Y40863D01*
X24257Y39466D02*
X24255Y39382D01*
X24249Y39299D01*
X24240Y39216D01*
X24226Y39134D01*
X24209Y39052D01*
X24187Y38971D01*
X24162Y38891D01*
X24134Y38813D01*
X24102Y38735D01*
X24066Y38660D01*
X24027Y38586D01*
X23984Y38514D01*
X23938Y38444D01*
X23889Y38377D01*
X23836Y38311D01*
X23781Y38249D01*
X23723Y38189D01*
X23662Y38131D01*
X23599Y38077D01*
X23533Y38025D01*
X23465Y37977D01*
X23394Y37932D01*
X23322Y37890D01*
X23247Y37852D01*
X23171Y37817D01*
X23094Y37786D01*
X23015Y37758D01*
X21774Y40397D02*
X21827Y40451D01*
X21884Y40502D01*
X21943Y40550D01*
X22004Y40595D01*
X22067Y40636D01*
X22133Y40675D01*
X22200Y40710D01*
X22269Y40742D01*
X22340Y40770D01*
X22411Y40794D01*
X22484Y40815D01*
X22558Y40832D01*
X22633Y40846D01*
X22708Y40855D01*
X22784Y40861D01*
X22860Y40863D01*
X21773Y40397D02*
X18669Y37759D01*
X18669Y40863D01*
X21463Y43245D02*
X21594Y43247D01*
X21724Y43252D01*
X21854Y43262D01*
X21984Y43275D01*
X22114Y43291D01*
X22243Y43311D01*
X22371Y43335D01*
X22498Y43363D01*
X22625Y43394D01*
X22751Y43429D01*
X22876Y43467D01*
X23000Y43509D01*
X23122Y43554D01*
X23243Y43603D01*
X23363Y43655D01*
X23481Y43711D01*
X23481Y43710D02*
X23541Y43733D01*
X23601Y43759D01*
X23658Y43788D01*
X23714Y43821D01*
X23768Y43857D01*
X23820Y43895D01*
X23870Y43937D01*
X23917Y43981D01*
X23962Y44028D01*
X24004Y44078D01*
X24043Y44129D01*
X24079Y44183D01*
X24112Y44239D01*
X24142Y44296D01*
X24169Y44355D01*
X24192Y44416D01*
X24212Y44477D01*
X24228Y44540D01*
X24241Y44604D01*
X24250Y44668D01*
X24255Y44732D01*
X24257Y44797D01*
X24255Y44862D01*
X24250Y44926D01*
X24241Y44990D01*
X24228Y45054D01*
X24212Y45117D01*
X24192Y45178D01*
X24169Y45239D01*
X24142Y45298D01*
X24112Y45355D01*
X24079Y45411D01*
X24043Y45465D01*
X24004Y45516D01*
X23962Y45566D01*
X23917Y45613D01*
X23870Y45657D01*
X23820Y45699D01*
X23768Y45737D01*
X23714Y45773D01*
X23658Y45806D01*
X23601Y45835D01*
X23541Y45861D01*
X23481Y45884D01*
X23363Y45940D01*
X23243Y45992D01*
X23122Y46041D01*
X23000Y46086D01*
X22876Y46128D01*
X22751Y46166D01*
X22625Y46201D01*
X22499Y46232D01*
X22371Y46260D01*
X22243Y46284D01*
X22114Y46304D01*
X21984Y46320D01*
X21854Y46333D01*
X21724Y46343D01*
X21594Y46348D01*
X21463Y46350D01*
X21463Y43245D02*
X21332Y43247D01*
X21202Y43252D01*
X21072Y43262D01*
X20942Y43275D01*
X20812Y43291D01*
X20683Y43311D01*
X20555Y43335D01*
X20428Y43363D01*
X20301Y43394D01*
X20175Y43429D01*
X20050Y43467D01*
X19926Y43509D01*
X19804Y43554D01*
X19683Y43603D01*
X19563Y43655D01*
X19445Y43711D01*
X19445Y43710D02*
X19385Y43733D01*
X19325Y43759D01*
X19268Y43788D01*
X19212Y43821D01*
X19158Y43857D01*
X19106Y43895D01*
X19056Y43937D01*
X19009Y43981D01*
X18964Y44028D01*
X18922Y44078D01*
X18883Y44129D01*
X18847Y44183D01*
X18814Y44239D01*
X18784Y44296D01*
X18757Y44355D01*
X18734Y44416D01*
X18714Y44477D01*
X18698Y44540D01*
X18685Y44604D01*
X18676Y44668D01*
X18671Y44732D01*
X18669Y44797D01*
X19445Y45883D02*
X19563Y45939D01*
X19683Y45991D01*
X19804Y46040D01*
X19926Y46085D01*
X20050Y46127D01*
X20175Y46165D01*
X20301Y46200D01*
X20427Y46231D01*
X20555Y46259D01*
X20683Y46283D01*
X20812Y46303D01*
X20942Y46319D01*
X21072Y46332D01*
X21202Y46342D01*
X21332Y46347D01*
X21463Y46349D01*
X19445Y45884D02*
X19385Y45861D01*
X19325Y45835D01*
X19268Y45806D01*
X19212Y45773D01*
X19158Y45737D01*
X19106Y45699D01*
X19056Y45657D01*
X19009Y45613D01*
X18964Y45566D01*
X18922Y45516D01*
X18883Y45465D01*
X18847Y45411D01*
X18814Y45355D01*
X18784Y45298D01*
X18757Y45239D01*
X18734Y45178D01*
X18714Y45117D01*
X18698Y45054D01*
X18685Y44990D01*
X18676Y44926D01*
X18671Y44862D01*
X18669Y44797D01*
X19911Y43555D02*
X23015Y46039D01*
M02*
