G04 EAGLE Gerber RS-274X export*
G75*
%MOMM*%
%FSLAX34Y34*%
%LPD*%
%INTop Copper*%
%IPPOS*%
%AMOC8*
5,1,8,0,0,1.08239X$1,22.5*%
G01*
%ADD10R,0.304800X0.965200*%
%ADD11R,0.965200X0.304800*%
%ADD12R,2.438400X2.438400*%
%ADD13R,1.600000X0.550000*%
%ADD14R,0.550000X1.600000*%
%ADD15R,1.300000X1.600000*%
%ADD16R,1.600000X1.300000*%
%ADD17C,1.320800*%
%ADD18C,1.422400*%
%ADD19R,1.300000X1.500000*%
%ADD20P,1.415766X8X292.500000*%
%ADD21R,2.150000X0.950000*%
%ADD22R,2.150000X3.250000*%
%ADD23C,1.000000*%
%ADD24C,0.203200*%
%ADD25C,0.685800*%
%ADD26C,0.304800*%

G36*
X285155Y14230D02*
X285155Y14230D01*
X285187Y14227D01*
X288893Y14492D01*
X288975Y14510D01*
X289036Y14513D01*
X292666Y15303D01*
X292745Y15332D01*
X292805Y15343D01*
X296285Y16641D01*
X296359Y16682D01*
X296417Y16702D01*
X299677Y18482D01*
X299745Y18532D01*
X299799Y18560D01*
X302773Y20786D01*
X302832Y20846D01*
X302882Y20881D01*
X305509Y23508D01*
X305559Y23575D01*
X305604Y23617D01*
X307830Y26591D01*
X307870Y26665D01*
X307908Y26713D01*
X309688Y29973D01*
X309701Y30007D01*
X309716Y30030D01*
X309729Y30072D01*
X309749Y30105D01*
X311047Y33585D01*
X311065Y33667D01*
X311087Y33724D01*
X311877Y37354D01*
X311879Y37384D01*
X311887Y37408D01*
X311888Y37457D01*
X311898Y37497D01*
X312163Y41203D01*
X312160Y41243D01*
X312165Y41275D01*
X312165Y208322D01*
X312160Y208359D01*
X312163Y208389D01*
X311772Y214351D01*
X311757Y214425D01*
X311755Y214482D01*
X310589Y220343D01*
X310564Y220415D01*
X310555Y220471D01*
X308634Y226129D01*
X308600Y226197D01*
X308584Y226251D01*
X305941Y231610D01*
X305898Y231673D01*
X305875Y231725D01*
X302555Y236693D01*
X302504Y236750D01*
X302474Y236799D01*
X298535Y241291D01*
X298477Y241340D01*
X298441Y241385D01*
X293949Y245324D01*
X293885Y245366D01*
X293843Y245405D01*
X288875Y248725D01*
X288806Y248758D01*
X288760Y248791D01*
X283401Y251434D01*
X283329Y251457D01*
X283279Y251484D01*
X277621Y253405D01*
X277546Y253419D01*
X277493Y253439D01*
X271632Y254605D01*
X271556Y254609D01*
X271501Y254622D01*
X265539Y255013D01*
X265502Y255010D01*
X265472Y255015D01*
X198999Y255015D01*
X198885Y254999D01*
X198770Y254989D01*
X198745Y254979D01*
X198717Y254975D01*
X198612Y254929D01*
X198505Y254887D01*
X198483Y254871D01*
X198458Y254859D01*
X198370Y254785D01*
X198278Y254716D01*
X198262Y254693D01*
X198241Y254676D01*
X198177Y254580D01*
X198108Y254488D01*
X198098Y254462D01*
X198083Y254439D01*
X198048Y254329D01*
X198008Y254222D01*
X198006Y254194D01*
X197997Y254168D01*
X197994Y254053D01*
X197985Y253939D01*
X197991Y253914D01*
X197990Y253884D01*
X198057Y253627D01*
X198061Y253612D01*
X198297Y253039D01*
X198298Y253038D01*
X198299Y253037D01*
X198375Y252909D01*
X198442Y252795D01*
X198443Y252794D01*
X198444Y252792D01*
X198551Y252692D01*
X198649Y252599D01*
X198650Y252599D01*
X198651Y252598D01*
X198777Y252533D01*
X198901Y252469D01*
X198903Y252469D01*
X198904Y252468D01*
X198919Y252466D01*
X199180Y252414D01*
X199211Y252417D01*
X199235Y252413D01*
X206315Y252413D01*
X216114Y242614D01*
X216184Y242562D01*
X216248Y242502D01*
X216297Y242476D01*
X216341Y242443D01*
X216423Y242412D01*
X216501Y242372D01*
X216548Y242364D01*
X216607Y242342D01*
X216754Y242330D01*
X216832Y242317D01*
X217073Y242317D01*
X217159Y242329D01*
X217247Y242332D01*
X217299Y242349D01*
X217354Y242357D01*
X217434Y242392D01*
X217517Y242419D01*
X217556Y242447D01*
X217613Y242473D01*
X217727Y242569D01*
X217790Y242614D01*
X222509Y247333D01*
X229611Y247333D01*
X234633Y242311D01*
X234633Y240718D01*
X234645Y240631D01*
X234648Y240544D01*
X234665Y240491D01*
X234673Y240436D01*
X234708Y240356D01*
X234735Y240273D01*
X234763Y240234D01*
X234789Y240177D01*
X234885Y240064D01*
X234930Y240000D01*
X237237Y237693D01*
X237237Y233034D01*
X237249Y232947D01*
X237252Y232860D01*
X237269Y232807D01*
X237277Y232752D01*
X237312Y232672D01*
X237339Y232589D01*
X237367Y232550D01*
X237393Y232493D01*
X237489Y232380D01*
X237534Y232316D01*
X238814Y231036D01*
X238838Y231018D01*
X238857Y230996D01*
X238951Y230933D01*
X239041Y230865D01*
X239069Y230855D01*
X239093Y230838D01*
X239201Y230804D01*
X239307Y230764D01*
X239336Y230761D01*
X239364Y230752D01*
X239478Y230750D01*
X239590Y230740D01*
X239619Y230746D01*
X239648Y230745D01*
X239758Y230774D01*
X239869Y230796D01*
X239895Y230810D01*
X239923Y230817D01*
X240021Y230875D01*
X240121Y230927D01*
X240143Y230947D01*
X240168Y230962D01*
X240245Y231045D01*
X240327Y231123D01*
X240342Y231148D01*
X240362Y231170D01*
X240414Y231270D01*
X240471Y231368D01*
X240478Y231397D01*
X240492Y231423D01*
X240505Y231500D01*
X240541Y231644D01*
X240539Y231706D01*
X240547Y231754D01*
X240547Y234902D01*
X241738Y236093D01*
X256422Y236093D01*
X257613Y234902D01*
X257613Y221484D01*
X257615Y221469D01*
X257613Y221453D01*
X257635Y221328D01*
X257653Y221203D01*
X257659Y221188D01*
X257662Y221173D01*
X257717Y221059D01*
X257769Y220943D01*
X257779Y220931D01*
X257786Y220917D01*
X257871Y220823D01*
X257952Y220726D01*
X257965Y220718D01*
X257976Y220706D01*
X258083Y220639D01*
X258189Y220569D01*
X258204Y220564D01*
X258217Y220556D01*
X258339Y220521D01*
X258460Y220483D01*
X258476Y220482D01*
X258491Y220478D01*
X258559Y220480D01*
X258744Y220476D01*
X258789Y220487D01*
X258826Y220488D01*
X259222Y220567D01*
X259318Y220601D01*
X259415Y220626D01*
X259451Y220647D01*
X259490Y220661D01*
X259573Y220720D01*
X259660Y220771D01*
X259688Y220802D01*
X259722Y220826D01*
X259785Y220905D01*
X259854Y220979D01*
X259873Y221016D01*
X259899Y221048D01*
X259938Y221142D01*
X259984Y221232D01*
X259990Y221268D01*
X260008Y221311D01*
X260028Y221495D01*
X260039Y221563D01*
X260039Y224029D01*
X267049Y224029D01*
X267049Y215519D01*
X266833Y215519D01*
X266775Y215511D01*
X266717Y215513D01*
X266635Y215491D01*
X266552Y215479D01*
X266498Y215455D01*
X266442Y215441D01*
X266369Y215398D01*
X266292Y215363D01*
X266247Y215325D01*
X266197Y215296D01*
X266140Y215234D01*
X266075Y215180D01*
X266043Y215131D01*
X266003Y215088D01*
X265964Y215013D01*
X265918Y214943D01*
X265900Y214887D01*
X265873Y214835D01*
X265862Y214767D01*
X265832Y214672D01*
X265829Y214572D01*
X265818Y214504D01*
X265818Y214017D01*
X265588Y212864D01*
X265471Y212581D01*
X265442Y212469D01*
X265408Y212360D01*
X265407Y212332D01*
X265400Y212305D01*
X265403Y212191D01*
X265400Y212076D01*
X265407Y212049D01*
X265408Y212021D01*
X265443Y211912D01*
X265472Y211801D01*
X265486Y211777D01*
X265495Y211750D01*
X265559Y211655D01*
X265617Y211556D01*
X265638Y211537D01*
X265653Y211514D01*
X265741Y211440D01*
X265825Y211362D01*
X265849Y211349D01*
X265871Y211331D01*
X265976Y211284D01*
X266078Y211232D01*
X266103Y211228D01*
X266131Y211216D01*
X266394Y211179D01*
X266409Y211177D01*
X283246Y211177D01*
X285121Y211177D01*
X285671Y211177D01*
X285702Y211181D01*
X285733Y211179D01*
X285809Y211196D01*
X285848Y211202D01*
X288106Y211202D01*
X290114Y210370D01*
X291650Y208834D01*
X292482Y206826D01*
X292482Y204654D01*
X291650Y202646D01*
X290114Y201110D01*
X288019Y200242D01*
X287920Y200184D01*
X287819Y200131D01*
X287799Y200112D01*
X287775Y200098D01*
X287696Y200014D01*
X287613Y199935D01*
X287599Y199911D01*
X287579Y199891D01*
X287527Y199789D01*
X287469Y199690D01*
X287462Y199663D01*
X287449Y199638D01*
X287427Y199526D01*
X287399Y199414D01*
X287400Y199387D01*
X287394Y199359D01*
X287404Y199245D01*
X287408Y199130D01*
X287416Y199104D01*
X287419Y199076D01*
X287460Y198969D01*
X287495Y198860D01*
X287510Y198839D01*
X287521Y198811D01*
X287681Y198599D01*
X287690Y198586D01*
X292557Y193719D01*
X292627Y193667D01*
X292691Y193607D01*
X292741Y193581D01*
X292785Y193548D01*
X292866Y193517D01*
X292944Y193477D01*
X292992Y193469D01*
X293050Y193447D01*
X293198Y193435D01*
X293275Y193422D01*
X295091Y193422D01*
X297099Y192590D01*
X298635Y191054D01*
X299467Y189046D01*
X299467Y186874D01*
X298635Y184866D01*
X297099Y183330D01*
X295091Y182498D01*
X293868Y182498D01*
X293810Y182490D01*
X293752Y182492D01*
X293670Y182470D01*
X293586Y182458D01*
X293533Y182435D01*
X293477Y182420D01*
X293404Y182377D01*
X293327Y182342D01*
X293282Y182304D01*
X293232Y182275D01*
X293174Y182213D01*
X293110Y182159D01*
X293078Y182110D01*
X293038Y182067D01*
X292999Y181992D01*
X292952Y181922D01*
X292935Y181866D01*
X292908Y181814D01*
X292897Y181746D01*
X292867Y181651D01*
X292864Y181551D01*
X292853Y181483D01*
X292853Y163878D01*
X291662Y162687D01*
X289294Y162687D01*
X289265Y162683D01*
X289235Y162686D01*
X289124Y162663D01*
X289012Y162647D01*
X288986Y162635D01*
X288957Y162630D01*
X288856Y162578D01*
X288753Y162531D01*
X288730Y162512D01*
X288704Y162499D01*
X288622Y162421D01*
X288536Y162348D01*
X288520Y162323D01*
X288498Y162303D01*
X288441Y162205D01*
X288378Y162111D01*
X288369Y162083D01*
X288355Y162058D01*
X288327Y161948D01*
X288292Y161840D01*
X288292Y161810D01*
X288284Y161782D01*
X288288Y161669D01*
X288285Y161556D01*
X288293Y161527D01*
X288294Y161498D01*
X288328Y161390D01*
X288357Y161281D01*
X288372Y161255D01*
X288381Y161227D01*
X288427Y161164D01*
X288502Y161036D01*
X288548Y160993D01*
X288576Y160954D01*
X294177Y155353D01*
X294177Y155258D01*
X294185Y155200D01*
X294183Y155142D01*
X294205Y155060D01*
X294217Y154976D01*
X294240Y154923D01*
X294255Y154867D01*
X294298Y154794D01*
X294333Y154717D01*
X294371Y154672D01*
X294400Y154622D01*
X294462Y154564D01*
X294516Y154500D01*
X294565Y154468D01*
X294608Y154428D01*
X294683Y154389D01*
X294753Y154342D01*
X294809Y154325D01*
X294861Y154298D01*
X294929Y154287D01*
X295024Y154257D01*
X295124Y154254D01*
X295192Y154243D01*
X302212Y154243D01*
X303403Y153052D01*
X303403Y141868D01*
X302212Y140677D01*
X295534Y140677D01*
X295420Y140661D01*
X295306Y140651D01*
X295280Y140641D01*
X295253Y140637D01*
X295148Y140590D01*
X295041Y140549D01*
X295019Y140533D01*
X294993Y140521D01*
X294906Y140447D01*
X294814Y140378D01*
X294797Y140355D01*
X294776Y140338D01*
X294713Y140242D01*
X294644Y140150D01*
X294634Y140124D01*
X294619Y140101D01*
X294584Y139991D01*
X294544Y139884D01*
X294541Y139856D01*
X294533Y139830D01*
X294530Y139715D01*
X294521Y139601D01*
X294526Y139576D01*
X294526Y139546D01*
X294593Y139289D01*
X294596Y139273D01*
X295022Y138246D01*
X295022Y136074D01*
X294190Y134066D01*
X293100Y132976D01*
X293082Y132952D01*
X293060Y132933D01*
X292997Y132839D01*
X292929Y132749D01*
X292919Y132721D01*
X292902Y132697D01*
X292868Y132589D01*
X292828Y132483D01*
X292825Y132454D01*
X292817Y132426D01*
X292814Y132312D01*
X292804Y132200D01*
X292810Y132171D01*
X292809Y132142D01*
X292838Y132032D01*
X292860Y131921D01*
X292874Y131895D01*
X292881Y131867D01*
X292939Y131769D01*
X292991Y131669D01*
X293011Y131647D01*
X293026Y131622D01*
X293109Y131545D01*
X293187Y131463D01*
X293212Y131448D01*
X293234Y131428D01*
X293334Y131376D01*
X293432Y131319D01*
X293461Y131312D01*
X293487Y131298D01*
X293564Y131285D01*
X293708Y131249D01*
X293770Y131251D01*
X293818Y131243D01*
X302212Y131243D01*
X303403Y130052D01*
X303403Y118868D01*
X302212Y117677D01*
X279028Y117677D01*
X277837Y118868D01*
X277837Y130052D01*
X278200Y130414D01*
X278235Y130461D01*
X278277Y130501D01*
X278320Y130574D01*
X278371Y130642D01*
X278392Y130696D01*
X278421Y130747D01*
X278442Y130828D01*
X278472Y130907D01*
X278477Y130966D01*
X278491Y131022D01*
X278488Y131107D01*
X278495Y131191D01*
X278484Y131248D01*
X278482Y131306D01*
X278456Y131387D01*
X278440Y131469D01*
X278413Y131521D01*
X278395Y131577D01*
X278355Y131633D01*
X278309Y131722D01*
X278240Y131794D01*
X278200Y131850D01*
X275138Y134912D01*
X272757Y137293D01*
X272757Y148512D01*
X272745Y148599D01*
X272742Y148686D01*
X272725Y148739D01*
X272717Y148794D01*
X272682Y148874D01*
X272655Y148957D01*
X272627Y148996D01*
X272601Y149053D01*
X272505Y149166D01*
X272460Y149230D01*
X268064Y153626D01*
X267994Y153678D01*
X267930Y153738D01*
X267881Y153764D01*
X267837Y153797D01*
X267755Y153828D01*
X267677Y153868D01*
X267630Y153876D01*
X267571Y153898D01*
X267424Y153910D01*
X267346Y153923D01*
X248274Y153923D01*
X248187Y153911D01*
X248100Y153908D01*
X248047Y153891D01*
X247992Y153883D01*
X247912Y153848D01*
X247829Y153821D01*
X247790Y153793D01*
X247733Y153767D01*
X247620Y153671D01*
X247556Y153626D01*
X238406Y144476D01*
X238388Y144452D01*
X238366Y144433D01*
X238303Y144339D01*
X238235Y144249D01*
X238225Y144221D01*
X238208Y144197D01*
X238174Y144089D01*
X238134Y143983D01*
X238131Y143954D01*
X238122Y143926D01*
X238120Y143812D01*
X238110Y143700D01*
X238116Y143671D01*
X238115Y143642D01*
X238144Y143532D01*
X238166Y143421D01*
X238180Y143395D01*
X238187Y143367D01*
X238245Y143269D01*
X238297Y143169D01*
X238317Y143147D01*
X238332Y143122D01*
X238415Y143045D01*
X238493Y142963D01*
X238518Y142948D01*
X238540Y142928D01*
X238640Y142876D01*
X238738Y142819D01*
X238767Y142812D01*
X238793Y142798D01*
X238870Y142785D01*
X239014Y142749D01*
X239076Y142751D01*
X239124Y142743D01*
X244212Y142743D01*
X245403Y141552D01*
X245403Y107368D01*
X244212Y106177D01*
X240954Y106177D01*
X240868Y106165D01*
X240783Y106163D01*
X240728Y106145D01*
X240672Y106137D01*
X240594Y106102D01*
X240512Y106076D01*
X240465Y106044D01*
X240413Y106021D01*
X240347Y105966D01*
X240276Y105918D01*
X240239Y105874D01*
X240196Y105838D01*
X240148Y105766D01*
X240093Y105700D01*
X240070Y105648D01*
X240038Y105601D01*
X240012Y105519D01*
X239977Y105440D01*
X239969Y105384D01*
X239952Y105330D01*
X239950Y105244D01*
X239938Y105159D01*
X239946Y105103D01*
X239945Y105046D01*
X239967Y104963D01*
X239979Y104878D01*
X240002Y104826D01*
X240017Y104771D01*
X240061Y104697D01*
X240096Y104618D01*
X240133Y104575D01*
X240162Y104526D01*
X240225Y104467D01*
X240280Y104402D01*
X240322Y104376D01*
X240369Y104332D01*
X240499Y104266D01*
X240565Y104224D01*
X241854Y103690D01*
X243390Y102154D01*
X244222Y100146D01*
X244222Y97974D01*
X243390Y95966D01*
X241854Y94430D01*
X240717Y93959D01*
X240618Y93900D01*
X240516Y93847D01*
X240496Y93828D01*
X240472Y93814D01*
X240393Y93731D01*
X240310Y93652D01*
X240296Y93628D01*
X240277Y93607D01*
X240224Y93505D01*
X240166Y93406D01*
X240159Y93379D01*
X240146Y93355D01*
X240124Y93242D01*
X240096Y93131D01*
X240097Y93103D01*
X240091Y93076D01*
X240101Y92961D01*
X240105Y92847D01*
X240113Y92820D01*
X240116Y92793D01*
X240157Y92686D01*
X240192Y92576D01*
X240207Y92556D01*
X240218Y92527D01*
X240378Y92315D01*
X240387Y92303D01*
X242317Y90373D01*
X242317Y88392D01*
X242325Y88334D01*
X242323Y88276D01*
X242345Y88194D01*
X242357Y88110D01*
X242380Y88057D01*
X242395Y88001D01*
X242438Y87928D01*
X242473Y87851D01*
X242511Y87806D01*
X242540Y87756D01*
X242602Y87698D01*
X242656Y87634D01*
X242705Y87602D01*
X242748Y87562D01*
X242823Y87523D01*
X242893Y87476D01*
X242949Y87459D01*
X243001Y87432D01*
X243069Y87421D01*
X243164Y87391D01*
X243264Y87388D01*
X243332Y87377D01*
X249412Y87377D01*
X249499Y87389D01*
X249586Y87392D01*
X249639Y87409D01*
X249694Y87417D01*
X249773Y87452D01*
X249857Y87479D01*
X249896Y87507D01*
X249953Y87533D01*
X250066Y87629D01*
X250130Y87674D01*
X250906Y88450D01*
X252914Y89282D01*
X255086Y89282D01*
X257094Y88450D01*
X258630Y86914D01*
X259462Y84906D01*
X259462Y82734D01*
X258630Y80726D01*
X257094Y79190D01*
X255086Y78358D01*
X252914Y78358D01*
X250906Y79190D01*
X250130Y79966D01*
X250060Y80018D01*
X249996Y80078D01*
X249947Y80104D01*
X249903Y80137D01*
X249821Y80168D01*
X249743Y80208D01*
X249696Y80216D01*
X249637Y80238D01*
X249489Y80250D01*
X249412Y80263D01*
X241297Y80263D01*
X241268Y80259D01*
X241239Y80262D01*
X241128Y80239D01*
X241016Y80223D01*
X240989Y80211D01*
X240960Y80206D01*
X240860Y80153D01*
X240757Y80107D01*
X240734Y80088D01*
X240708Y80075D01*
X240626Y79997D01*
X240540Y79924D01*
X240523Y79899D01*
X240502Y79879D01*
X240445Y79781D01*
X240382Y79687D01*
X240373Y79659D01*
X240358Y79634D01*
X240330Y79524D01*
X240296Y79416D01*
X240295Y79386D01*
X240288Y79358D01*
X240292Y79245D01*
X240289Y79132D01*
X240296Y79103D01*
X240297Y79074D01*
X240332Y78966D01*
X240361Y78857D01*
X240376Y78831D01*
X240385Y78803D01*
X240430Y78739D01*
X240506Y78612D01*
X240549Y78571D01*
X240553Y78565D01*
X240558Y78561D01*
X240580Y78530D01*
X241553Y77557D01*
X241553Y61946D01*
X241557Y61917D01*
X241554Y61888D01*
X241577Y61777D01*
X241593Y61665D01*
X241605Y61638D01*
X241610Y61609D01*
X241663Y61508D01*
X241709Y61405D01*
X241728Y61383D01*
X241741Y61357D01*
X241819Y61275D01*
X241892Y61188D01*
X241917Y61172D01*
X241937Y61151D01*
X242035Y61094D01*
X242129Y61031D01*
X242157Y61022D01*
X242182Y61007D01*
X242292Y60979D01*
X242400Y60945D01*
X242430Y60944D01*
X242458Y60937D01*
X242571Y60941D01*
X242684Y60938D01*
X242713Y60945D01*
X242742Y60946D01*
X242850Y60981D01*
X242959Y61009D01*
X242985Y61024D01*
X243013Y61034D01*
X243077Y61079D01*
X243204Y61155D01*
X243247Y61200D01*
X243286Y61228D01*
X243345Y61287D01*
X244322Y61940D01*
X245409Y62390D01*
X246135Y62535D01*
X246135Y56650D01*
X246143Y56592D01*
X246141Y56534D01*
X246163Y56452D01*
X246174Y56369D01*
X246198Y56315D01*
X246213Y56259D01*
X246256Y56186D01*
X246291Y56109D01*
X246328Y56065D01*
X246358Y56014D01*
X246359Y56014D01*
X246420Y55957D01*
X246474Y55892D01*
X246475Y55892D01*
X246523Y55859D01*
X246566Y55819D01*
X246641Y55781D01*
X246711Y55734D01*
X246767Y55717D01*
X246819Y55690D01*
X246887Y55679D01*
X246982Y55648D01*
X247082Y55646D01*
X247150Y55635D01*
X253035Y55635D01*
X252890Y54909D01*
X252440Y53822D01*
X251787Y52844D01*
X250956Y52013D01*
X249978Y51360D01*
X248882Y50906D01*
X248827Y50887D01*
X248756Y50872D01*
X248693Y50840D01*
X248627Y50816D01*
X248568Y50775D01*
X248504Y50741D01*
X248453Y50693D01*
X248395Y50652D01*
X248350Y50595D01*
X248298Y50546D01*
X248262Y50485D01*
X248218Y50429D01*
X248190Y50363D01*
X248154Y50300D01*
X248137Y50232D01*
X248110Y50167D01*
X248102Y50095D01*
X248084Y50025D01*
X248086Y49954D01*
X248078Y49884D01*
X248091Y49813D01*
X248093Y49741D01*
X248115Y49673D01*
X248127Y49604D01*
X248158Y49539D01*
X248180Y49470D01*
X248215Y49421D01*
X248251Y49348D01*
X248331Y49259D01*
X248375Y49197D01*
X255491Y42081D01*
X255561Y42029D01*
X255625Y41969D01*
X255674Y41943D01*
X255718Y41910D01*
X255800Y41879D01*
X255878Y41839D01*
X255925Y41831D01*
X255984Y41809D01*
X256131Y41797D01*
X256209Y41784D01*
X263397Y41784D01*
X263399Y41784D01*
X263400Y41784D01*
X263540Y41804D01*
X263679Y41824D01*
X263680Y41824D01*
X263682Y41824D01*
X263808Y41881D01*
X263938Y41940D01*
X263939Y41941D01*
X263941Y41942D01*
X264048Y42033D01*
X264155Y42123D01*
X264156Y42125D01*
X264157Y42126D01*
X264165Y42139D01*
X264313Y42360D01*
X264322Y42389D01*
X264335Y42410D01*
X264839Y43627D01*
X267269Y46057D01*
X270443Y47372D01*
X287087Y47372D01*
X290261Y46057D01*
X292691Y43627D01*
X294006Y40453D01*
X294006Y37017D01*
X292691Y33843D01*
X290261Y31413D01*
X287087Y30098D01*
X270443Y30098D01*
X267269Y31413D01*
X264839Y33843D01*
X264335Y35060D01*
X264334Y35061D01*
X264334Y35062D01*
X264262Y35183D01*
X264191Y35304D01*
X264189Y35305D01*
X264189Y35307D01*
X264085Y35404D01*
X263984Y35500D01*
X263983Y35500D01*
X263981Y35501D01*
X263856Y35566D01*
X263731Y35630D01*
X263730Y35630D01*
X263728Y35631D01*
X263713Y35633D01*
X263452Y35685D01*
X263422Y35682D01*
X263397Y35686D01*
X253263Y35686D01*
X252686Y36263D01*
X252662Y36281D01*
X252643Y36303D01*
X252595Y36336D01*
X252552Y36375D01*
X252503Y36400D01*
X252459Y36434D01*
X252431Y36444D01*
X252407Y36461D01*
X252351Y36478D01*
X252299Y36505D01*
X252252Y36513D01*
X252193Y36535D01*
X252164Y36538D01*
X252136Y36546D01*
X252035Y36549D01*
X251968Y36560D01*
X251939Y36556D01*
X251910Y36559D01*
X251881Y36553D01*
X251852Y36554D01*
X251769Y36532D01*
X251686Y36520D01*
X251660Y36509D01*
X251631Y36503D01*
X251605Y36489D01*
X251577Y36482D01*
X251503Y36438D01*
X251427Y36404D01*
X251405Y36386D01*
X251379Y36372D01*
X251357Y36352D01*
X251332Y36337D01*
X251274Y36274D01*
X251210Y36221D01*
X251194Y36196D01*
X251173Y36176D01*
X251158Y36151D01*
X251138Y36129D01*
X251099Y36054D01*
X251052Y35984D01*
X251044Y35956D01*
X251029Y35931D01*
X251022Y35902D01*
X251008Y35876D01*
X250997Y35808D01*
X250967Y35713D01*
X250966Y35684D01*
X250959Y35655D01*
X250961Y35593D01*
X250953Y35545D01*
X250953Y32511D01*
X242316Y32511D01*
X242258Y32503D01*
X242200Y32505D01*
X242118Y32483D01*
X242035Y32471D01*
X241981Y32447D01*
X241925Y32433D01*
X241852Y32390D01*
X241775Y32355D01*
X241731Y32317D01*
X241680Y32287D01*
X241623Y32226D01*
X241558Y32171D01*
X241526Y32123D01*
X241486Y32080D01*
X241447Y32005D01*
X241401Y31935D01*
X241383Y31879D01*
X241356Y31827D01*
X241345Y31759D01*
X241315Y31664D01*
X241312Y31564D01*
X241301Y31496D01*
X241301Y29464D01*
X241309Y29406D01*
X241308Y29348D01*
X241329Y29266D01*
X241341Y29183D01*
X241365Y29129D01*
X241379Y29073D01*
X241422Y29000D01*
X241457Y28923D01*
X241495Y28878D01*
X241525Y28828D01*
X241586Y28770D01*
X241641Y28706D01*
X241689Y28674D01*
X241732Y28634D01*
X241807Y28595D01*
X241877Y28549D01*
X241933Y28531D01*
X241985Y28504D01*
X242053Y28493D01*
X242148Y28463D01*
X242248Y28460D01*
X242316Y28449D01*
X250953Y28449D01*
X250953Y22608D01*
X250715Y21108D01*
X250246Y19663D01*
X249556Y18309D01*
X248663Y17080D01*
X247541Y15958D01*
X247523Y15934D01*
X247501Y15916D01*
X247438Y15821D01*
X247370Y15731D01*
X247360Y15703D01*
X247343Y15679D01*
X247309Y15571D01*
X247269Y15465D01*
X247266Y15436D01*
X247258Y15408D01*
X247255Y15295D01*
X247245Y15182D01*
X247251Y15153D01*
X247250Y15124D01*
X247279Y15014D01*
X247301Y14903D01*
X247315Y14877D01*
X247322Y14849D01*
X247380Y14752D01*
X247432Y14651D01*
X247452Y14629D01*
X247467Y14604D01*
X247550Y14527D01*
X247628Y14445D01*
X247653Y14430D01*
X247675Y14410D01*
X247776Y14358D01*
X247873Y14301D01*
X247902Y14294D01*
X247928Y14280D01*
X248005Y14267D01*
X248149Y14231D01*
X248211Y14233D01*
X248259Y14225D01*
X285115Y14225D01*
X285155Y14230D01*
G37*
G36*
X88320Y152921D02*
X88320Y152921D01*
X88407Y152924D01*
X88460Y152941D01*
X88515Y152949D01*
X88594Y152984D01*
X88678Y153011D01*
X88717Y153039D01*
X88774Y153065D01*
X88887Y153161D01*
X88951Y153206D01*
X90235Y154490D01*
X92243Y155322D01*
X94415Y155322D01*
X95353Y154933D01*
X95465Y154905D01*
X95574Y154870D01*
X95602Y154869D01*
X95629Y154862D01*
X95743Y154865D01*
X95858Y154863D01*
X95885Y154870D01*
X95913Y154870D01*
X96022Y154905D01*
X96133Y154934D01*
X96157Y154949D01*
X96184Y154957D01*
X96279Y155021D01*
X96378Y155080D01*
X96397Y155100D01*
X96420Y155115D01*
X96494Y155203D01*
X96572Y155287D01*
X96585Y155312D01*
X96603Y155333D01*
X96649Y155438D01*
X96702Y155540D01*
X96706Y155565D01*
X96718Y155593D01*
X96755Y155856D01*
X96757Y155871D01*
X96757Y164322D01*
X96749Y164380D01*
X96751Y164438D01*
X96729Y164520D01*
X96717Y164604D01*
X96694Y164657D01*
X96679Y164713D01*
X96636Y164786D01*
X96601Y164863D01*
X96563Y164908D01*
X96534Y164958D01*
X96472Y165016D01*
X96418Y165080D01*
X96369Y165112D01*
X96326Y165152D01*
X96251Y165191D01*
X96181Y165238D01*
X96125Y165255D01*
X96073Y165282D01*
X96005Y165293D01*
X95910Y165323D01*
X95810Y165326D01*
X95742Y165337D01*
X78198Y165337D01*
X77007Y166528D01*
X77007Y189537D01*
X76994Y189634D01*
X76989Y189731D01*
X76975Y189768D01*
X76967Y189819D01*
X76897Y189976D01*
X76871Y190045D01*
X76672Y190389D01*
X76499Y191036D01*
X76499Y192746D01*
X86681Y192746D01*
X86739Y192754D01*
X86797Y192752D01*
X86879Y192774D01*
X86962Y192786D01*
X87016Y192809D01*
X87040Y192816D01*
X87068Y192801D01*
X87136Y192790D01*
X87231Y192760D01*
X87331Y192757D01*
X87399Y192746D01*
X97581Y192746D01*
X97581Y191035D01*
X97576Y191017D01*
X97570Y190968D01*
X97555Y190922D01*
X97553Y190828D01*
X97541Y190735D01*
X97549Y190686D01*
X97548Y190638D01*
X97572Y190547D01*
X97586Y190454D01*
X97607Y190410D01*
X97620Y190363D01*
X97668Y190282D01*
X97708Y190197D01*
X97740Y190160D01*
X97765Y190118D01*
X97833Y190054D01*
X97895Y189983D01*
X97937Y189957D01*
X97972Y189924D01*
X98056Y189881D01*
X98135Y189830D01*
X98182Y189816D01*
X98225Y189794D01*
X98298Y189782D01*
X98408Y189750D01*
X98494Y189749D01*
X98556Y189739D01*
X99044Y189739D01*
X99131Y189751D01*
X99218Y189754D01*
X99271Y189771D01*
X99326Y189779D01*
X99405Y189814D01*
X99489Y189841D01*
X99528Y189869D01*
X99585Y189895D01*
X99698Y189991D01*
X99762Y190036D01*
X101099Y191373D01*
X101166Y191413D01*
X101177Y191424D01*
X101190Y191433D01*
X101275Y191527D01*
X101362Y191620D01*
X101369Y191634D01*
X101379Y191645D01*
X101434Y191760D01*
X101492Y191872D01*
X101495Y191888D01*
X101502Y191902D01*
X101522Y192027D01*
X101547Y192151D01*
X101546Y192167D01*
X101548Y192182D01*
X101533Y192309D01*
X101523Y192434D01*
X101517Y192449D01*
X101515Y192465D01*
X101487Y192528D01*
X101421Y192700D01*
X101400Y192727D01*
X100940Y193839D01*
X100795Y194565D01*
X106680Y194565D01*
X112565Y194565D01*
X112420Y193839D01*
X111970Y192752D01*
X111317Y191774D01*
X110486Y190943D01*
X109459Y190257D01*
X109383Y190190D01*
X109303Y190128D01*
X109278Y190095D01*
X109247Y190068D01*
X109193Y189982D01*
X109132Y189901D01*
X109118Y189862D01*
X109096Y189827D01*
X109068Y189729D01*
X109032Y189635D01*
X109029Y189593D01*
X109017Y189553D01*
X109017Y189452D01*
X109009Y189351D01*
X109018Y189315D01*
X109018Y189269D01*
X109069Y189092D01*
X109085Y189024D01*
X109602Y187776D01*
X109602Y185604D01*
X108770Y183596D01*
X107234Y182060D01*
X105226Y181228D01*
X103054Y181228D01*
X101046Y182060D01*
X99762Y183344D01*
X99692Y183396D01*
X99628Y183456D01*
X99579Y183482D01*
X99535Y183515D01*
X99453Y183546D01*
X99375Y183586D01*
X99328Y183594D01*
X99269Y183616D01*
X99121Y183628D01*
X99044Y183641D01*
X98088Y183641D01*
X98030Y183633D01*
X97972Y183635D01*
X97890Y183613D01*
X97806Y183601D01*
X97753Y183578D01*
X97697Y183563D01*
X97624Y183520D01*
X97547Y183485D01*
X97502Y183447D01*
X97452Y183418D01*
X97394Y183356D01*
X97330Y183302D01*
X97298Y183253D01*
X97258Y183210D01*
X97219Y183135D01*
X97172Y183065D01*
X97155Y183009D01*
X97128Y182957D01*
X97117Y182889D01*
X97087Y182794D01*
X97084Y182694D01*
X97073Y182626D01*
X97073Y166668D01*
X97081Y166610D01*
X97079Y166552D01*
X97101Y166470D01*
X97113Y166386D01*
X97136Y166333D01*
X97151Y166277D01*
X97194Y166204D01*
X97229Y166127D01*
X97267Y166082D01*
X97296Y166032D01*
X97358Y165974D01*
X97412Y165910D01*
X97461Y165878D01*
X97504Y165838D01*
X97579Y165799D01*
X97649Y165752D01*
X97705Y165735D01*
X97757Y165708D01*
X97825Y165697D01*
X97920Y165667D01*
X98020Y165664D01*
X98088Y165653D01*
X145681Y165653D01*
X145767Y165665D01*
X145855Y165668D01*
X145907Y165685D01*
X145962Y165693D01*
X146042Y165728D01*
X146125Y165755D01*
X146164Y165783D01*
X146222Y165809D01*
X146335Y165905D01*
X146399Y165950D01*
X149181Y168732D01*
X149233Y168802D01*
X149293Y168866D01*
X149319Y168916D01*
X149352Y168960D01*
X149383Y169041D01*
X149423Y169119D01*
X149431Y169167D01*
X149453Y169225D01*
X149465Y169373D01*
X149478Y169450D01*
X149478Y171266D01*
X150310Y173274D01*
X151846Y174810D01*
X153854Y175642D01*
X155075Y175642D01*
X155188Y175658D01*
X155303Y175668D01*
X155329Y175678D01*
X155356Y175682D01*
X155461Y175728D01*
X155568Y175770D01*
X155590Y175787D01*
X155615Y175798D01*
X155703Y175872D01*
X155795Y175941D01*
X155811Y175964D01*
X155832Y175981D01*
X155896Y176077D01*
X155965Y176169D01*
X155975Y176195D01*
X155990Y176218D01*
X156025Y176328D01*
X156065Y176435D01*
X156067Y176463D01*
X156076Y176489D01*
X156079Y176604D01*
X156088Y176718D01*
X156082Y176743D01*
X156083Y176773D01*
X156016Y177031D01*
X156012Y177046D01*
X155955Y177184D01*
X155955Y179356D01*
X156386Y180396D01*
X156394Y180426D01*
X156408Y180454D01*
X156421Y180531D01*
X156457Y180672D01*
X156455Y180736D01*
X156463Y180785D01*
X156463Y194513D01*
X159627Y197677D01*
X160540Y197677D01*
X160589Y197684D01*
X160637Y197681D01*
X160729Y197703D01*
X160822Y197717D01*
X160866Y197737D01*
X160914Y197748D01*
X160995Y197794D01*
X161081Y197833D01*
X161118Y197864D01*
X161161Y197889D01*
X161227Y197956D01*
X161298Y198016D01*
X161325Y198057D01*
X161359Y198092D01*
X161404Y198175D01*
X161456Y198253D01*
X161471Y198300D01*
X161494Y198343D01*
X161513Y198435D01*
X161542Y198524D01*
X161543Y198573D01*
X161553Y198621D01*
X161546Y198695D01*
X161549Y198808D01*
X161527Y198892D01*
X161521Y198955D01*
X161499Y199036D01*
X161499Y200746D01*
X171681Y200746D01*
X171739Y200754D01*
X171797Y200752D01*
X171879Y200774D01*
X171962Y200786D01*
X172016Y200809D01*
X172040Y200816D01*
X172068Y200801D01*
X172136Y200790D01*
X172231Y200760D01*
X172331Y200757D01*
X172399Y200746D01*
X182581Y200746D01*
X182581Y199036D01*
X182408Y198389D01*
X182209Y198045D01*
X182172Y197955D01*
X182128Y197868D01*
X182122Y197829D01*
X182102Y197781D01*
X182085Y197610D01*
X182073Y197537D01*
X182073Y189708D01*
X182077Y189679D01*
X182074Y189650D01*
X182097Y189538D01*
X182113Y189426D01*
X182125Y189400D01*
X182130Y189371D01*
X182183Y189270D01*
X182229Y189167D01*
X182248Y189145D01*
X182261Y189118D01*
X182339Y189036D01*
X182412Y188950D01*
X182437Y188934D01*
X182457Y188912D01*
X182555Y188855D01*
X182649Y188792D01*
X182677Y188783D01*
X182702Y188769D01*
X182812Y188741D01*
X182920Y188707D01*
X182950Y188706D01*
X182978Y188699D01*
X183091Y188702D01*
X183204Y188699D01*
X183233Y188707D01*
X183262Y188708D01*
X183370Y188742D01*
X183479Y188771D01*
X183505Y188786D01*
X183533Y188795D01*
X183597Y188841D01*
X183724Y188916D01*
X183767Y188962D01*
X183806Y188990D01*
X184866Y190050D01*
X186230Y190615D01*
X186328Y190673D01*
X186430Y190726D01*
X186451Y190745D01*
X186474Y190759D01*
X186553Y190843D01*
X186637Y190922D01*
X186651Y190946D01*
X186670Y190966D01*
X186722Y191068D01*
X186780Y191167D01*
X186787Y191194D01*
X186800Y191219D01*
X186822Y191332D01*
X186850Y191443D01*
X186849Y191471D01*
X186855Y191498D01*
X186845Y191612D01*
X186841Y191727D01*
X186833Y191753D01*
X186830Y191781D01*
X186789Y191888D01*
X186754Y191998D01*
X186739Y192018D01*
X186728Y192046D01*
X186567Y192259D01*
X186559Y192271D01*
X186459Y192371D01*
X185806Y193348D01*
X185356Y194435D01*
X185211Y195161D01*
X191096Y195161D01*
X191154Y195169D01*
X191212Y195167D01*
X191294Y195189D01*
X191377Y195201D01*
X191431Y195224D01*
X191487Y195239D01*
X191560Y195282D01*
X191637Y195317D01*
X191681Y195355D01*
X191732Y195384D01*
X191789Y195446D01*
X191854Y195500D01*
X191886Y195549D01*
X191926Y195592D01*
X191965Y195667D01*
X192011Y195737D01*
X192029Y195793D01*
X192056Y195845D01*
X192067Y195913D01*
X192097Y196008D01*
X192100Y196108D01*
X192111Y196176D01*
X192103Y196234D01*
X192104Y196268D01*
X192104Y196293D01*
X192083Y196374D01*
X192071Y196458D01*
X192047Y196511D01*
X192033Y196568D01*
X191989Y196640D01*
X191955Y196717D01*
X191917Y196762D01*
X191887Y196812D01*
X191826Y196870D01*
X191771Y196934D01*
X191723Y196967D01*
X191680Y197007D01*
X191605Y197045D01*
X191535Y197092D01*
X191479Y197109D01*
X191427Y197136D01*
X191359Y197147D01*
X191264Y197178D01*
X191164Y197180D01*
X191096Y197192D01*
X185211Y197192D01*
X185356Y197918D01*
X185806Y199004D01*
X186459Y199982D01*
X187291Y200813D01*
X188268Y201466D01*
X188552Y201584D01*
X188650Y201642D01*
X188752Y201695D01*
X188773Y201714D01*
X188796Y201728D01*
X188875Y201812D01*
X188959Y201891D01*
X188973Y201915D01*
X188992Y201935D01*
X189044Y202037D01*
X189102Y202136D01*
X189109Y202163D01*
X189122Y202188D01*
X189144Y202300D01*
X189172Y202412D01*
X189171Y202439D01*
X189177Y202467D01*
X189167Y202581D01*
X189163Y202696D01*
X189155Y202722D01*
X189152Y202750D01*
X189111Y202857D01*
X189076Y202966D01*
X189061Y202987D01*
X189050Y203015D01*
X188889Y203228D01*
X188881Y203240D01*
X188023Y204097D01*
X188023Y218873D01*
X188007Y218987D01*
X187997Y219101D01*
X187987Y219127D01*
X187983Y219155D01*
X187936Y219260D01*
X187895Y219367D01*
X187879Y219389D01*
X187867Y219414D01*
X187793Y219502D01*
X187724Y219593D01*
X187701Y219610D01*
X187684Y219631D01*
X187588Y219695D01*
X187496Y219764D01*
X187470Y219773D01*
X187447Y219789D01*
X187337Y219823D01*
X187230Y219864D01*
X187202Y219866D01*
X187176Y219875D01*
X187061Y219878D01*
X186947Y219887D01*
X186922Y219881D01*
X186892Y219882D01*
X186635Y219815D01*
X186619Y219811D01*
X185083Y219175D01*
X183088Y219175D01*
X183030Y219167D01*
X182972Y219168D01*
X182890Y219147D01*
X182806Y219135D01*
X182753Y219111D01*
X182697Y219096D01*
X182624Y219053D01*
X182547Y219019D01*
X182502Y218981D01*
X182452Y218951D01*
X182394Y218889D01*
X182330Y218835D01*
X182298Y218786D01*
X182258Y218744D01*
X182219Y218669D01*
X182172Y218598D01*
X182155Y218543D01*
X182128Y218491D01*
X182117Y218423D01*
X182087Y218327D01*
X182084Y218228D01*
X182073Y218160D01*
X182073Y206703D01*
X182086Y206607D01*
X182091Y206510D01*
X182105Y206472D01*
X182113Y206421D01*
X182183Y206264D01*
X182209Y206195D01*
X182408Y205851D01*
X182581Y205204D01*
X182581Y203494D01*
X172399Y203494D01*
X172341Y203486D01*
X172283Y203488D01*
X172201Y203466D01*
X172118Y203454D01*
X172064Y203431D01*
X172040Y203424D01*
X172012Y203439D01*
X171944Y203450D01*
X171849Y203480D01*
X171749Y203483D01*
X171681Y203494D01*
X161499Y203494D01*
X161499Y205204D01*
X161672Y205851D01*
X161871Y206195D01*
X161908Y206285D01*
X161952Y206372D01*
X161958Y206411D01*
X161978Y206459D01*
X161995Y206630D01*
X162007Y206703D01*
X162007Y207804D01*
X161991Y207918D01*
X161981Y208032D01*
X161971Y208058D01*
X161967Y208086D01*
X161920Y208190D01*
X161879Y208298D01*
X161863Y208320D01*
X161851Y208345D01*
X161777Y208433D01*
X161708Y208524D01*
X161685Y208541D01*
X161668Y208562D01*
X161572Y208626D01*
X161480Y208694D01*
X161454Y208704D01*
X161431Y208720D01*
X161321Y208754D01*
X161214Y208795D01*
X161186Y208797D01*
X161160Y208805D01*
X161045Y208808D01*
X160931Y208818D01*
X160906Y208812D01*
X160876Y208813D01*
X160619Y208746D01*
X160603Y208742D01*
X158566Y207898D01*
X156394Y207898D01*
X154386Y208730D01*
X152850Y210266D01*
X152018Y212274D01*
X152018Y214446D01*
X152850Y216454D01*
X154118Y217722D01*
X154153Y217769D01*
X154196Y217809D01*
X154238Y217882D01*
X154289Y217949D01*
X154310Y218004D01*
X154339Y218054D01*
X154360Y218136D01*
X154390Y218215D01*
X154395Y218273D01*
X154409Y218330D01*
X154407Y218414D01*
X154414Y218498D01*
X154402Y218556D01*
X154400Y218614D01*
X154374Y218694D01*
X154358Y218777D01*
X154331Y218829D01*
X154313Y218885D01*
X154273Y218941D01*
X154227Y219029D01*
X154158Y219102D01*
X154118Y219158D01*
X152850Y220426D01*
X152018Y222434D01*
X152018Y224606D01*
X152850Y226614D01*
X154386Y228150D01*
X155554Y228634D01*
X155628Y228678D01*
X155707Y228713D01*
X155750Y228750D01*
X155799Y228779D01*
X155858Y228841D01*
X155924Y228897D01*
X155955Y228944D01*
X155994Y228985D01*
X156034Y229062D01*
X156081Y229133D01*
X156098Y229187D01*
X156124Y229238D01*
X156141Y229322D01*
X156167Y229404D01*
X156169Y229461D01*
X156180Y229517D01*
X156172Y229602D01*
X156174Y229688D01*
X156160Y229743D01*
X156155Y229800D01*
X156124Y229881D01*
X156103Y229963D01*
X156074Y230012D01*
X156053Y230065D01*
X156001Y230134D01*
X155957Y230208D01*
X155916Y230247D01*
X155881Y230292D01*
X155813Y230344D01*
X155750Y230402D01*
X155699Y230428D01*
X155654Y230462D01*
X155573Y230493D01*
X155497Y230532D01*
X155448Y230540D01*
X155388Y230563D01*
X155243Y230574D01*
X155166Y230587D01*
X143171Y230587D01*
X143057Y230571D01*
X142943Y230561D01*
X142917Y230551D01*
X142890Y230547D01*
X142785Y230500D01*
X142678Y230459D01*
X142656Y230443D01*
X142630Y230431D01*
X142543Y230357D01*
X142451Y230288D01*
X142434Y230265D01*
X142413Y230248D01*
X142350Y230152D01*
X142281Y230060D01*
X142271Y230034D01*
X142256Y230011D01*
X142221Y229901D01*
X142180Y229794D01*
X142178Y229766D01*
X142170Y229740D01*
X142167Y229625D01*
X142158Y229511D01*
X142163Y229486D01*
X142163Y229456D01*
X142230Y229199D01*
X142233Y229183D01*
X142622Y228245D01*
X142622Y226073D01*
X141790Y224065D01*
X140254Y222529D01*
X138246Y221697D01*
X136074Y221697D01*
X134066Y222529D01*
X133290Y223305D01*
X133220Y223357D01*
X133156Y223417D01*
X133107Y223443D01*
X133063Y223476D01*
X132981Y223507D01*
X132903Y223547D01*
X132856Y223555D01*
X132797Y223577D01*
X132649Y223589D01*
X132572Y223602D01*
X104593Y223602D01*
X104506Y223590D01*
X104419Y223587D01*
X104366Y223570D01*
X104311Y223562D01*
X104231Y223527D01*
X104148Y223500D01*
X104109Y223472D01*
X104052Y223446D01*
X103939Y223350D01*
X103875Y223305D01*
X102914Y222344D01*
X102862Y222274D01*
X102802Y222210D01*
X102776Y222161D01*
X102743Y222117D01*
X102712Y222035D01*
X102672Y221957D01*
X102664Y221910D01*
X102642Y221851D01*
X102630Y221704D01*
X102617Y221626D01*
X102617Y201878D01*
X102633Y201764D01*
X102643Y201650D01*
X102653Y201624D01*
X102657Y201596D01*
X102704Y201492D01*
X102745Y201384D01*
X102761Y201362D01*
X102773Y201337D01*
X102847Y201249D01*
X102916Y201158D01*
X102939Y201141D01*
X102956Y201120D01*
X103052Y201056D01*
X103144Y200988D01*
X103170Y200978D01*
X103193Y200962D01*
X103303Y200928D01*
X103410Y200887D01*
X103438Y200885D01*
X103464Y200877D01*
X103579Y200874D01*
X103693Y200865D01*
X103718Y200870D01*
X103748Y200869D01*
X104005Y200936D01*
X104021Y200940D01*
X104939Y201320D01*
X105665Y201465D01*
X105665Y196595D01*
X100795Y196595D01*
X100953Y197388D01*
X100968Y197427D01*
X100972Y197483D01*
X100987Y197538D01*
X100984Y197624D01*
X100991Y197710D01*
X100980Y197766D01*
X100979Y197822D01*
X100952Y197905D01*
X100935Y197989D01*
X100909Y198039D01*
X100892Y198093D01*
X100844Y198165D01*
X100804Y198241D01*
X100766Y198282D01*
X100734Y198329D01*
X100668Y198385D01*
X100609Y198447D01*
X100560Y198476D01*
X100517Y198512D01*
X100438Y198548D01*
X100363Y198591D01*
X100309Y198605D01*
X100257Y198628D01*
X100171Y198640D01*
X100088Y198661D01*
X100031Y198659D01*
X99975Y198667D01*
X99890Y198655D01*
X99804Y198652D01*
X99750Y198635D01*
X99694Y198627D01*
X99615Y198591D01*
X99533Y198565D01*
X99531Y198563D01*
X98540Y198563D01*
X98491Y198556D01*
X98443Y198559D01*
X98351Y198537D01*
X98258Y198523D01*
X98214Y198503D01*
X98166Y198492D01*
X98085Y198446D01*
X97999Y198407D01*
X97962Y198376D01*
X97919Y198351D01*
X97853Y198284D01*
X97782Y198224D01*
X97755Y198183D01*
X97721Y198148D01*
X97676Y198065D01*
X97624Y197987D01*
X97609Y197940D01*
X97586Y197897D01*
X97567Y197805D01*
X97538Y197716D01*
X97537Y197667D01*
X97527Y197619D01*
X97534Y197545D01*
X97531Y197432D01*
X97553Y197348D01*
X97559Y197285D01*
X97581Y197204D01*
X97581Y195494D01*
X87399Y195494D01*
X87341Y195486D01*
X87283Y195488D01*
X87201Y195466D01*
X87118Y195454D01*
X87064Y195431D01*
X87040Y195424D01*
X87012Y195439D01*
X86944Y195450D01*
X86849Y195480D01*
X86749Y195483D01*
X86681Y195494D01*
X76499Y195494D01*
X76499Y197204D01*
X76521Y197285D01*
X76527Y197334D01*
X76542Y197380D01*
X76544Y197474D01*
X76555Y197567D01*
X76548Y197616D01*
X76549Y197664D01*
X76525Y197755D01*
X76510Y197848D01*
X76489Y197892D01*
X76477Y197939D01*
X76429Y198020D01*
X76389Y198105D01*
X76357Y198142D01*
X76332Y198184D01*
X76263Y198248D01*
X76201Y198319D01*
X76160Y198345D01*
X76124Y198378D01*
X76041Y198421D01*
X75962Y198472D01*
X75915Y198486D01*
X75871Y198508D01*
X75798Y198520D01*
X75689Y198552D01*
X75602Y198553D01*
X75540Y198563D01*
X74548Y198563D01*
X74490Y198555D01*
X74432Y198557D01*
X74350Y198535D01*
X74266Y198523D01*
X74213Y198500D01*
X74157Y198485D01*
X74084Y198442D01*
X74007Y198407D01*
X73962Y198369D01*
X73912Y198340D01*
X73854Y198278D01*
X73790Y198224D01*
X73758Y198175D01*
X73718Y198132D01*
X73679Y198057D01*
X73632Y197987D01*
X73615Y197931D01*
X73588Y197879D01*
X73577Y197811D01*
X73547Y197716D01*
X73544Y197616D01*
X73533Y197548D01*
X73533Y195698D01*
X72342Y194507D01*
X54658Y194507D01*
X53467Y195698D01*
X53467Y198468D01*
X53459Y198526D01*
X53461Y198584D01*
X53439Y198666D01*
X53427Y198750D01*
X53404Y198803D01*
X53389Y198859D01*
X53346Y198932D01*
X53311Y199009D01*
X53273Y199054D01*
X53244Y199104D01*
X53182Y199162D01*
X53128Y199226D01*
X53079Y199258D01*
X53036Y199298D01*
X52961Y199337D01*
X52891Y199384D01*
X52835Y199401D01*
X52783Y199428D01*
X52715Y199439D01*
X52620Y199469D01*
X52520Y199472D01*
X52452Y199483D01*
X49768Y199483D01*
X49682Y199471D01*
X49594Y199468D01*
X49542Y199451D01*
X49487Y199443D01*
X49407Y199408D01*
X49324Y199381D01*
X49285Y199353D01*
X49227Y199327D01*
X49114Y199231D01*
X49050Y199186D01*
X47852Y197987D01*
X44491Y196595D01*
X26629Y196595D01*
X23268Y197987D01*
X23070Y198185D01*
X23046Y198203D01*
X23027Y198226D01*
X22933Y198288D01*
X22843Y198356D01*
X22815Y198367D01*
X22791Y198383D01*
X22683Y198417D01*
X22577Y198458D01*
X22548Y198460D01*
X22520Y198469D01*
X22407Y198472D01*
X22294Y198481D01*
X22265Y198475D01*
X22236Y198476D01*
X22126Y198448D01*
X22015Y198425D01*
X21989Y198412D01*
X21961Y198404D01*
X21863Y198347D01*
X21763Y198294D01*
X21741Y198274D01*
X21716Y198259D01*
X21639Y198177D01*
X21557Y198099D01*
X21542Y198073D01*
X21522Y198052D01*
X21470Y197951D01*
X21413Y197853D01*
X21406Y197825D01*
X21392Y197799D01*
X21379Y197721D01*
X21343Y197578D01*
X21345Y197515D01*
X21337Y197468D01*
X21337Y188612D01*
X21341Y188583D01*
X21338Y188554D01*
X21361Y188443D01*
X21377Y188331D01*
X21389Y188304D01*
X21394Y188275D01*
X21446Y188175D01*
X21493Y188071D01*
X21512Y188049D01*
X21525Y188023D01*
X21603Y187941D01*
X21676Y187854D01*
X21701Y187838D01*
X21721Y187817D01*
X21819Y187760D01*
X21913Y187697D01*
X21941Y187688D01*
X21966Y187673D01*
X22076Y187645D01*
X22184Y187611D01*
X22213Y187610D01*
X22242Y187603D01*
X22355Y187607D01*
X22468Y187604D01*
X22497Y187611D01*
X22526Y187612D01*
X22634Y187647D01*
X22743Y187676D01*
X22769Y187691D01*
X22797Y187700D01*
X22860Y187745D01*
X22988Y187821D01*
X23031Y187866D01*
X23070Y187895D01*
X23268Y188093D01*
X26629Y189485D01*
X44491Y189485D01*
X47852Y188093D01*
X50425Y185520D01*
X51006Y184116D01*
X51050Y184042D01*
X51085Y183964D01*
X51122Y183920D01*
X51151Y183871D01*
X51213Y183812D01*
X51269Y183747D01*
X51316Y183715D01*
X51357Y183676D01*
X51434Y183637D01*
X51505Y183589D01*
X51559Y183572D01*
X51610Y183546D01*
X51694Y183529D01*
X51776Y183503D01*
X51833Y183502D01*
X51889Y183491D01*
X51974Y183498D01*
X52060Y183496D01*
X52115Y183511D01*
X52172Y183515D01*
X52252Y183546D01*
X52335Y183568D01*
X52384Y183597D01*
X52437Y183617D01*
X52506Y183669D01*
X52580Y183713D01*
X52619Y183755D01*
X52664Y183789D01*
X52716Y183858D01*
X52774Y183921D01*
X52800Y183971D01*
X52834Y184017D01*
X52865Y184097D01*
X52904Y184174D01*
X52912Y184222D01*
X52935Y184283D01*
X52946Y184427D01*
X52959Y184505D01*
X52959Y189874D01*
X53132Y190521D01*
X53467Y191100D01*
X53940Y191573D01*
X54519Y191908D01*
X55166Y192081D01*
X61469Y192081D01*
X61469Y184056D01*
X61477Y183998D01*
X61475Y183940D01*
X61497Y183858D01*
X61509Y183775D01*
X61533Y183721D01*
X61547Y183665D01*
X61590Y183592D01*
X61625Y183515D01*
X61663Y183471D01*
X61693Y183420D01*
X61754Y183363D01*
X61809Y183298D01*
X61857Y183266D01*
X61900Y183226D01*
X61975Y183187D01*
X62045Y183141D01*
X62101Y183123D01*
X62153Y183096D01*
X62221Y183085D01*
X62316Y183055D01*
X62416Y183052D01*
X62484Y183041D01*
X63501Y183041D01*
X63501Y183039D01*
X62484Y183039D01*
X62426Y183031D01*
X62368Y183032D01*
X62286Y183011D01*
X62203Y182999D01*
X62149Y182975D01*
X62093Y182961D01*
X62020Y182918D01*
X61943Y182883D01*
X61898Y182845D01*
X61848Y182815D01*
X61790Y182754D01*
X61726Y182699D01*
X61694Y182651D01*
X61654Y182608D01*
X61615Y182533D01*
X61569Y182463D01*
X61551Y182407D01*
X61524Y182355D01*
X61513Y182287D01*
X61483Y182192D01*
X61480Y182092D01*
X61469Y182024D01*
X61469Y173999D01*
X55166Y173999D01*
X54519Y174172D01*
X53940Y174507D01*
X53467Y174980D01*
X53132Y175559D01*
X52950Y176239D01*
X52947Y176260D01*
X52945Y176346D01*
X52927Y176401D01*
X52919Y176457D01*
X52884Y176535D01*
X52858Y176617D01*
X52826Y176664D01*
X52803Y176716D01*
X52748Y176782D01*
X52700Y176853D01*
X52656Y176890D01*
X52620Y176933D01*
X52548Y176981D01*
X52482Y177036D01*
X52430Y177059D01*
X52383Y177091D01*
X52301Y177117D01*
X52222Y177152D01*
X52166Y177159D01*
X52112Y177177D01*
X52026Y177179D01*
X51941Y177191D01*
X51885Y177182D01*
X51828Y177184D01*
X51745Y177162D01*
X51659Y177150D01*
X51608Y177126D01*
X51553Y177112D01*
X51479Y177068D01*
X51400Y177033D01*
X51357Y176996D01*
X51308Y176967D01*
X51249Y176904D01*
X51184Y176848D01*
X51158Y176807D01*
X51114Y176760D01*
X51048Y176630D01*
X51006Y176564D01*
X50425Y175160D01*
X47852Y172587D01*
X44491Y171195D01*
X41307Y171195D01*
X41278Y171191D01*
X41249Y171194D01*
X41138Y171171D01*
X41026Y171155D01*
X40999Y171143D01*
X40970Y171138D01*
X40870Y171085D01*
X40766Y171039D01*
X40744Y171020D01*
X40718Y171007D01*
X40636Y170929D01*
X40549Y170856D01*
X40533Y170831D01*
X40512Y170811D01*
X40455Y170713D01*
X40392Y170619D01*
X40383Y170591D01*
X40368Y170566D01*
X40340Y170456D01*
X40306Y170348D01*
X40305Y170318D01*
X40298Y170290D01*
X40302Y170177D01*
X40299Y170064D01*
X40306Y170035D01*
X40307Y170006D01*
X40342Y169898D01*
X40371Y169789D01*
X40385Y169763D01*
X40395Y169735D01*
X40440Y169671D01*
X40516Y169544D01*
X40561Y169501D01*
X40589Y169462D01*
X41605Y168446D01*
X41675Y168394D01*
X41739Y168334D01*
X41789Y168308D01*
X41833Y168275D01*
X41914Y168244D01*
X41992Y168204D01*
X42040Y168196D01*
X42098Y168174D01*
X42246Y168162D01*
X42323Y168149D01*
X48143Y168149D01*
X51529Y164763D01*
X51599Y164711D01*
X51663Y164651D01*
X51712Y164625D01*
X51756Y164592D01*
X51838Y164561D01*
X51916Y164521D01*
X51963Y164513D01*
X52022Y164491D01*
X52169Y164479D01*
X52247Y164466D01*
X63484Y164466D01*
X63571Y164478D01*
X63658Y164481D01*
X63711Y164498D01*
X63766Y164506D01*
X63845Y164541D01*
X63929Y164568D01*
X63968Y164596D01*
X64025Y164622D01*
X64138Y164718D01*
X64202Y164763D01*
X65486Y166047D01*
X67494Y166879D01*
X69666Y166879D01*
X71674Y166047D01*
X73210Y164511D01*
X74042Y162503D01*
X74042Y160331D01*
X73210Y158323D01*
X71674Y156787D01*
X69666Y155955D01*
X67494Y155955D01*
X65392Y156826D01*
X65389Y156828D01*
X65361Y156839D01*
X65336Y156856D01*
X65228Y156890D01*
X65123Y156930D01*
X65093Y156932D01*
X65065Y156941D01*
X64952Y156944D01*
X64840Y156954D01*
X64811Y156948D01*
X64781Y156949D01*
X64672Y156920D01*
X64561Y156898D01*
X64534Y156884D01*
X64506Y156877D01*
X64409Y156819D01*
X64309Y156768D01*
X64287Y156747D01*
X64261Y156732D01*
X64184Y156649D01*
X64102Y156572D01*
X64087Y156546D01*
X64067Y156524D01*
X64015Y156424D01*
X63958Y156327D01*
X63951Y156298D01*
X63937Y156271D01*
X63924Y156194D01*
X63888Y156051D01*
X63890Y155988D01*
X63882Y155940D01*
X63882Y153924D01*
X63890Y153866D01*
X63888Y153808D01*
X63910Y153726D01*
X63922Y153642D01*
X63945Y153589D01*
X63960Y153533D01*
X64003Y153460D01*
X64038Y153383D01*
X64076Y153338D01*
X64105Y153288D01*
X64167Y153230D01*
X64221Y153166D01*
X64270Y153134D01*
X64313Y153094D01*
X64388Y153055D01*
X64458Y153008D01*
X64514Y152991D01*
X64566Y152964D01*
X64634Y152953D01*
X64729Y152923D01*
X64829Y152920D01*
X64897Y152909D01*
X88233Y152909D01*
X88320Y152921D01*
G37*
G36*
X196090Y98689D02*
X196090Y98689D01*
X196148Y98687D01*
X196230Y98709D01*
X196314Y98721D01*
X196367Y98744D01*
X196423Y98759D01*
X196496Y98802D01*
X196573Y98837D01*
X196618Y98875D01*
X196668Y98904D01*
X196726Y98966D01*
X196790Y99020D01*
X196822Y99069D01*
X196862Y99112D01*
X196901Y99187D01*
X196948Y99257D01*
X196965Y99313D01*
X196992Y99365D01*
X197003Y99433D01*
X197033Y99528D01*
X197036Y99628D01*
X197047Y99696D01*
X197047Y115522D01*
X198238Y116713D01*
X202904Y116713D01*
X203018Y116729D01*
X203132Y116739D01*
X203158Y116749D01*
X203185Y116753D01*
X203290Y116800D01*
X203397Y116841D01*
X203419Y116857D01*
X203445Y116869D01*
X203532Y116943D01*
X203624Y117012D01*
X203641Y117035D01*
X203662Y117052D01*
X203725Y117148D01*
X203794Y117240D01*
X203804Y117266D01*
X203819Y117289D01*
X203854Y117399D01*
X203895Y117506D01*
X203897Y117534D01*
X203905Y117560D01*
X203908Y117675D01*
X203917Y117789D01*
X203912Y117814D01*
X203912Y117844D01*
X203845Y118101D01*
X203842Y118117D01*
X203453Y119055D01*
X203453Y121032D01*
X203445Y121090D01*
X203447Y121148D01*
X203425Y121230D01*
X203413Y121314D01*
X203390Y121367D01*
X203375Y121423D01*
X203332Y121496D01*
X203297Y121573D01*
X203259Y121618D01*
X203230Y121668D01*
X203168Y121726D01*
X203114Y121790D01*
X203065Y121822D01*
X203022Y121862D01*
X202947Y121901D01*
X202877Y121948D01*
X202821Y121965D01*
X202769Y121992D01*
X202701Y122003D01*
X202606Y122033D01*
X202506Y122036D01*
X202438Y122047D01*
X200778Y122047D01*
X199587Y123238D01*
X199587Y137795D01*
X199579Y137853D01*
X199581Y137911D01*
X199559Y137993D01*
X199547Y138077D01*
X199524Y138130D01*
X199509Y138186D01*
X199466Y138259D01*
X199431Y138336D01*
X199393Y138381D01*
X199364Y138431D01*
X199302Y138489D01*
X199248Y138553D01*
X199199Y138585D01*
X199156Y138625D01*
X199081Y138664D01*
X199011Y138711D01*
X198955Y138728D01*
X198903Y138755D01*
X198835Y138766D01*
X198740Y138796D01*
X198640Y138799D01*
X198572Y138810D01*
X198176Y138810D01*
X198118Y138802D01*
X198060Y138804D01*
X197978Y138782D01*
X197894Y138770D01*
X197841Y138747D01*
X197785Y138732D01*
X197712Y138689D01*
X197635Y138654D01*
X197590Y138616D01*
X197540Y138587D01*
X197482Y138525D01*
X197418Y138471D01*
X197386Y138422D01*
X197346Y138379D01*
X197307Y138304D01*
X197260Y138234D01*
X197243Y138178D01*
X197216Y138126D01*
X197205Y138058D01*
X197175Y137963D01*
X197172Y137863D01*
X197161Y137795D01*
X197161Y134111D01*
X190151Y134111D01*
X190151Y142621D01*
X191226Y142621D01*
X191241Y142623D01*
X191256Y142621D01*
X191382Y142643D01*
X191507Y142661D01*
X191521Y142667D01*
X191537Y142670D01*
X191650Y142725D01*
X191767Y142777D01*
X191779Y142787D01*
X191792Y142794D01*
X191886Y142878D01*
X191984Y142960D01*
X191992Y142973D01*
X192004Y142984D01*
X192071Y143091D01*
X192141Y143197D01*
X192146Y143212D01*
X192154Y143225D01*
X192189Y143347D01*
X192227Y143468D01*
X192227Y143484D01*
X192232Y143499D01*
X192230Y143567D01*
X192234Y143752D01*
X192231Y143765D01*
X198120Y143765D01*
X204005Y143765D01*
X203917Y143326D01*
X203917Y143311D01*
X203912Y143296D01*
X203909Y143169D01*
X203902Y143042D01*
X203905Y143027D01*
X203905Y143012D01*
X203937Y142889D01*
X203965Y142765D01*
X203973Y142751D01*
X203976Y142737D01*
X204041Y142628D01*
X204103Y142516D01*
X204114Y142506D01*
X204122Y142492D01*
X204215Y142405D01*
X204304Y142316D01*
X204318Y142308D01*
X204329Y142298D01*
X204442Y142240D01*
X204553Y142179D01*
X204568Y142175D01*
X204582Y142168D01*
X204650Y142157D01*
X204831Y142116D01*
X204877Y142119D01*
X204913Y142113D01*
X210300Y142113D01*
X210372Y142123D01*
X210444Y142123D01*
X210512Y142143D01*
X210582Y142153D01*
X210648Y142182D01*
X210717Y142202D01*
X210777Y142240D01*
X210841Y142269D01*
X210896Y142315D01*
X210957Y142354D01*
X211004Y142407D01*
X211058Y142452D01*
X211098Y142513D01*
X211146Y142567D01*
X211177Y142630D01*
X211216Y142689D01*
X211238Y142758D01*
X211269Y142823D01*
X211280Y142893D01*
X211302Y142960D01*
X211303Y143032D01*
X211315Y143104D01*
X211307Y143174D01*
X211309Y143244D01*
X211291Y143314D01*
X211282Y143386D01*
X211258Y143441D01*
X211237Y143519D01*
X211176Y143623D01*
X211144Y143692D01*
X210610Y144492D01*
X210160Y145579D01*
X210015Y146305D01*
X215900Y146305D01*
X215958Y146313D01*
X216016Y146311D01*
X216098Y146333D01*
X216181Y146344D01*
X216235Y146368D01*
X216291Y146383D01*
X216364Y146426D01*
X216441Y146461D01*
X216485Y146498D01*
X216535Y146528D01*
X216593Y146590D01*
X216658Y146644D01*
X216690Y146693D01*
X216730Y146736D01*
X216768Y146811D01*
X216815Y146881D01*
X216833Y146937D01*
X216859Y146989D01*
X216871Y147057D01*
X216901Y147152D01*
X216904Y147252D01*
X216915Y147320D01*
X216907Y147378D01*
X216907Y147390D01*
X216908Y147436D01*
X216887Y147518D01*
X216875Y147602D01*
X216851Y147655D01*
X216836Y147712D01*
X216793Y147784D01*
X216759Y147861D01*
X216721Y147906D01*
X216691Y147956D01*
X216630Y148014D01*
X216575Y148078D01*
X216527Y148110D01*
X216484Y148150D01*
X216409Y148189D01*
X216339Y148236D01*
X216283Y148253D01*
X216231Y148280D01*
X216163Y148291D01*
X216068Y148321D01*
X215968Y148324D01*
X215900Y148335D01*
X210008Y148335D01*
X210010Y148423D01*
X210017Y148550D01*
X210014Y148565D01*
X210014Y148580D01*
X209982Y148703D01*
X209954Y148827D01*
X209946Y148841D01*
X209942Y148855D01*
X209878Y148964D01*
X209816Y149076D01*
X209805Y149087D01*
X209797Y149100D01*
X209705Y149187D01*
X209615Y149276D01*
X209601Y149284D01*
X209590Y149294D01*
X209477Y149352D01*
X209366Y149413D01*
X209351Y149417D01*
X209337Y149424D01*
X209269Y149435D01*
X209088Y149476D01*
X209042Y149473D01*
X209006Y149479D01*
X207931Y149479D01*
X207931Y157989D01*
X214941Y157989D01*
X214941Y154305D01*
X214948Y154251D01*
X214947Y154213D01*
X214948Y154211D01*
X214947Y154189D01*
X214969Y154107D01*
X214981Y154023D01*
X215004Y153970D01*
X215019Y153914D01*
X215062Y153841D01*
X215097Y153764D01*
X215135Y153719D01*
X215164Y153669D01*
X215226Y153611D01*
X215280Y153547D01*
X215329Y153515D01*
X215372Y153475D01*
X215447Y153436D01*
X215517Y153389D01*
X215573Y153372D01*
X215625Y153345D01*
X215693Y153334D01*
X215788Y153304D01*
X215888Y153301D01*
X215956Y153290D01*
X216352Y153290D01*
X216410Y153298D01*
X216468Y153296D01*
X216550Y153318D01*
X216634Y153330D01*
X216687Y153353D01*
X216743Y153368D01*
X216816Y153411D01*
X216893Y153446D01*
X216938Y153484D01*
X216988Y153513D01*
X217046Y153575D01*
X217110Y153629D01*
X217142Y153678D01*
X217182Y153721D01*
X217221Y153796D01*
X217268Y153866D01*
X217285Y153922D01*
X217312Y153974D01*
X217323Y154042D01*
X217353Y154137D01*
X217356Y154237D01*
X217367Y154305D01*
X217367Y168862D01*
X218558Y170053D01*
X233242Y170053D01*
X234433Y168862D01*
X234433Y153014D01*
X234437Y152985D01*
X234434Y152955D01*
X234457Y152844D01*
X234473Y152732D01*
X234485Y152706D01*
X234490Y152677D01*
X234542Y152576D01*
X234589Y152473D01*
X234608Y152450D01*
X234621Y152424D01*
X234699Y152342D01*
X234772Y152256D01*
X234797Y152240D01*
X234817Y152218D01*
X234915Y152161D01*
X235009Y152098D01*
X235037Y152089D01*
X235062Y152075D01*
X235172Y152047D01*
X235280Y152012D01*
X235310Y152012D01*
X235338Y152004D01*
X235451Y152008D01*
X235564Y152005D01*
X235593Y152013D01*
X235622Y152014D01*
X235730Y152048D01*
X235839Y152077D01*
X235865Y152092D01*
X235893Y152101D01*
X235956Y152147D01*
X236084Y152222D01*
X236127Y152268D01*
X236166Y152296D01*
X244907Y161037D01*
X255459Y161037D01*
X255488Y161041D01*
X255517Y161038D01*
X255629Y161061D01*
X255741Y161077D01*
X255767Y161089D01*
X255796Y161094D01*
X255897Y161147D01*
X256000Y161193D01*
X256022Y161212D01*
X256048Y161225D01*
X256131Y161303D01*
X256217Y161376D01*
X256233Y161401D01*
X256255Y161421D01*
X256312Y161519D01*
X256375Y161613D01*
X256383Y161641D01*
X256398Y161666D01*
X256426Y161776D01*
X256460Y161884D01*
X256461Y161914D01*
X256468Y161942D01*
X256465Y162055D01*
X256468Y162168D01*
X256460Y162197D01*
X256459Y162226D01*
X256424Y162334D01*
X256396Y162443D01*
X256381Y162469D01*
X256372Y162497D01*
X256326Y162561D01*
X256251Y162688D01*
X256205Y162731D01*
X256177Y162770D01*
X255787Y163160D01*
X255452Y163739D01*
X255279Y164386D01*
X255279Y170689D01*
X263304Y170689D01*
X263362Y170697D01*
X263420Y170695D01*
X263502Y170717D01*
X263585Y170729D01*
X263639Y170753D01*
X263695Y170767D01*
X263768Y170810D01*
X263845Y170845D01*
X263889Y170883D01*
X263940Y170913D01*
X263997Y170974D01*
X264062Y171029D01*
X264094Y171077D01*
X264134Y171120D01*
X264173Y171195D01*
X264219Y171265D01*
X264237Y171321D01*
X264264Y171373D01*
X264275Y171441D01*
X264305Y171536D01*
X264308Y171636D01*
X264319Y171704D01*
X264319Y172721D01*
X264321Y172721D01*
X264321Y171704D01*
X264329Y171646D01*
X264328Y171588D01*
X264349Y171506D01*
X264361Y171423D01*
X264385Y171369D01*
X264399Y171313D01*
X264442Y171240D01*
X264477Y171163D01*
X264515Y171118D01*
X264545Y171068D01*
X264606Y171010D01*
X264661Y170946D01*
X264709Y170914D01*
X264752Y170874D01*
X264827Y170835D01*
X264897Y170789D01*
X264953Y170771D01*
X265005Y170744D01*
X265073Y170733D01*
X265168Y170703D01*
X265268Y170700D01*
X265336Y170689D01*
X273361Y170689D01*
X273361Y164386D01*
X273188Y163739D01*
X272853Y163160D01*
X272380Y162687D01*
X271801Y162352D01*
X271604Y162300D01*
X271568Y162284D01*
X271530Y162277D01*
X271438Y162229D01*
X271342Y162188D01*
X271312Y162164D01*
X271277Y162146D01*
X271202Y162074D01*
X271122Y162009D01*
X271100Y161977D01*
X271071Y161950D01*
X271019Y161861D01*
X270960Y161775D01*
X270947Y161738D01*
X270928Y161705D01*
X270902Y161604D01*
X270869Y161506D01*
X270867Y161467D01*
X270857Y161429D01*
X270861Y161326D01*
X270856Y161222D01*
X270865Y161184D01*
X270866Y161145D01*
X270898Y161046D01*
X270923Y160946D01*
X270942Y160912D01*
X270954Y160875D01*
X270999Y160811D01*
X271063Y160699D01*
X271116Y160647D01*
X271149Y160601D01*
X273094Y158656D01*
X277550Y154200D01*
X277596Y154165D01*
X277637Y154123D01*
X277710Y154080D01*
X277777Y154029D01*
X277832Y154008D01*
X277882Y153979D01*
X277964Y153958D01*
X278043Y153928D01*
X278101Y153923D01*
X278158Y153909D01*
X278242Y153912D01*
X278326Y153905D01*
X278383Y153916D01*
X278442Y153918D01*
X278522Y153944D01*
X278605Y153960D01*
X278657Y153987D01*
X278712Y154005D01*
X278768Y154045D01*
X278857Y154091D01*
X278929Y154160D01*
X278986Y154200D01*
X279028Y154243D01*
X282776Y154243D01*
X282805Y154247D01*
X282835Y154244D01*
X282946Y154267D01*
X283058Y154283D01*
X283084Y154295D01*
X283113Y154300D01*
X283214Y154353D01*
X283317Y154399D01*
X283340Y154418D01*
X283366Y154431D01*
X283448Y154509D01*
X283534Y154582D01*
X283550Y154607D01*
X283572Y154627D01*
X283629Y154725D01*
X283692Y154819D01*
X283701Y154847D01*
X283715Y154872D01*
X283743Y154982D01*
X283778Y155090D01*
X283778Y155120D01*
X283786Y155148D01*
X283782Y155261D01*
X283785Y155374D01*
X283777Y155403D01*
X283776Y155432D01*
X283742Y155540D01*
X283713Y155649D01*
X283698Y155675D01*
X283689Y155703D01*
X283643Y155766D01*
X283568Y155894D01*
X283522Y155937D01*
X283494Y155976D01*
X280763Y158707D01*
X280763Y161672D01*
X280755Y161730D01*
X280757Y161788D01*
X280735Y161870D01*
X280723Y161954D01*
X280700Y162007D01*
X280685Y162063D01*
X280642Y162136D01*
X280607Y162213D01*
X280569Y162258D01*
X280540Y162308D01*
X280478Y162366D01*
X280424Y162430D01*
X280375Y162462D01*
X280332Y162502D01*
X280257Y162541D01*
X280187Y162588D01*
X280131Y162605D01*
X280079Y162632D01*
X280011Y162643D01*
X279916Y162673D01*
X279816Y162676D01*
X279748Y162687D01*
X276978Y162687D01*
X275787Y163878D01*
X275787Y181562D01*
X276978Y182753D01*
X289037Y182753D01*
X289066Y182757D01*
X289096Y182754D01*
X289207Y182777D01*
X289319Y182793D01*
X289345Y182805D01*
X289374Y182810D01*
X289475Y182863D01*
X289578Y182909D01*
X289600Y182928D01*
X289627Y182941D01*
X289709Y183019D01*
X289795Y183092D01*
X289811Y183117D01*
X289833Y183137D01*
X289890Y183235D01*
X289953Y183329D01*
X289962Y183357D01*
X289976Y183382D01*
X290004Y183492D01*
X290038Y183600D01*
X290039Y183630D01*
X290046Y183658D01*
X290043Y183771D01*
X290046Y183884D01*
X290038Y183913D01*
X290037Y183942D01*
X290003Y184050D01*
X289974Y184159D01*
X289959Y184185D01*
X289950Y184213D01*
X289904Y184277D01*
X289829Y184404D01*
X289825Y184407D01*
X289783Y184447D01*
X289755Y184486D01*
X289375Y184866D01*
X288543Y186874D01*
X288543Y188690D01*
X288531Y188776D01*
X288528Y188864D01*
X288511Y188916D01*
X288503Y188971D01*
X288468Y189051D01*
X288441Y189134D01*
X288413Y189173D01*
X288387Y189231D01*
X288291Y189344D01*
X288246Y189408D01*
X285420Y192234D01*
X285350Y192286D01*
X285286Y192346D01*
X285236Y192372D01*
X285192Y192405D01*
X285111Y192436D01*
X285033Y192476D01*
X284985Y192484D01*
X284927Y192506D01*
X284779Y192518D01*
X284702Y192531D01*
X283208Y192531D01*
X283150Y192523D01*
X283092Y192525D01*
X283010Y192503D01*
X282926Y192491D01*
X282873Y192468D01*
X282817Y192453D01*
X282744Y192410D01*
X282667Y192375D01*
X282622Y192337D01*
X282572Y192308D01*
X282514Y192246D01*
X282450Y192192D01*
X282418Y192143D01*
X282378Y192100D01*
X282339Y192025D01*
X282292Y191955D01*
X282275Y191899D01*
X282248Y191847D01*
X282237Y191779D01*
X282207Y191684D01*
X282204Y191584D01*
X282193Y191516D01*
X282193Y187238D01*
X281002Y186047D01*
X266318Y186047D01*
X264878Y187487D01*
X264831Y187522D01*
X264791Y187565D01*
X264718Y187608D01*
X264651Y187658D01*
X264596Y187679D01*
X264546Y187709D01*
X264464Y187729D01*
X264385Y187760D01*
X264327Y187764D01*
X264270Y187779D01*
X264186Y187776D01*
X264102Y187783D01*
X264044Y187772D01*
X263986Y187770D01*
X263906Y187744D01*
X263823Y187727D01*
X263771Y187700D01*
X263715Y187682D01*
X263659Y187642D01*
X263571Y187596D01*
X263498Y187528D01*
X263442Y187487D01*
X262002Y186047D01*
X247318Y186047D01*
X246127Y187238D01*
X246127Y203922D01*
X247318Y205113D01*
X249686Y205113D01*
X249715Y205117D01*
X249745Y205114D01*
X249856Y205137D01*
X249968Y205153D01*
X249994Y205165D01*
X250023Y205170D01*
X250124Y205222D01*
X250227Y205269D01*
X250250Y205288D01*
X250276Y205301D01*
X250358Y205379D01*
X250444Y205452D01*
X250460Y205477D01*
X250482Y205497D01*
X250539Y205595D01*
X250602Y205689D01*
X250611Y205717D01*
X250625Y205742D01*
X250653Y205852D01*
X250688Y205960D01*
X250688Y205990D01*
X250696Y206018D01*
X250692Y206131D01*
X250695Y206244D01*
X250687Y206273D01*
X250686Y206302D01*
X250652Y206410D01*
X250623Y206519D01*
X250608Y206545D01*
X250599Y206573D01*
X250553Y206636D01*
X250478Y206764D01*
X250432Y206807D01*
X250404Y206846D01*
X245523Y211727D01*
X245523Y215012D01*
X245515Y215070D01*
X245517Y215128D01*
X245495Y215210D01*
X245483Y215294D01*
X245460Y215347D01*
X245445Y215403D01*
X245402Y215476D01*
X245367Y215553D01*
X245329Y215598D01*
X245300Y215648D01*
X245238Y215706D01*
X245184Y215770D01*
X245135Y215802D01*
X245092Y215842D01*
X245017Y215881D01*
X244947Y215928D01*
X244891Y215945D01*
X244839Y215972D01*
X244771Y215983D01*
X244676Y216013D01*
X244576Y216016D01*
X244508Y216027D01*
X241738Y216027D01*
X240547Y217218D01*
X240547Y221488D01*
X240539Y221546D01*
X240541Y221604D01*
X240519Y221686D01*
X240507Y221770D01*
X240484Y221823D01*
X240469Y221879D01*
X240426Y221952D01*
X240391Y222029D01*
X240353Y222074D01*
X240324Y222124D01*
X240262Y222182D01*
X240208Y222246D01*
X240159Y222278D01*
X240116Y222318D01*
X240041Y222357D01*
X239971Y222404D01*
X239915Y222421D01*
X239863Y222448D01*
X239795Y222459D01*
X239700Y222489D01*
X239600Y222492D01*
X239532Y222503D01*
X237287Y222503D01*
X229900Y229890D01*
X229830Y229942D01*
X229766Y230002D01*
X229717Y230028D01*
X229673Y230061D01*
X229591Y230092D01*
X229513Y230132D01*
X229466Y230140D01*
X229407Y230162D01*
X229260Y230174D01*
X229182Y230187D01*
X222509Y230187D01*
X217790Y234906D01*
X217721Y234958D01*
X217657Y235018D01*
X217607Y235044D01*
X217563Y235077D01*
X217482Y235108D01*
X217404Y235148D01*
X217356Y235156D01*
X217298Y235178D01*
X217150Y235190D01*
X217073Y235203D01*
X213465Y235203D01*
X210966Y237702D01*
X210942Y237720D01*
X210923Y237742D01*
X210829Y237805D01*
X210739Y237873D01*
X210711Y237883D01*
X210687Y237900D01*
X210579Y237934D01*
X210473Y237974D01*
X210444Y237977D01*
X210416Y237985D01*
X210302Y237988D01*
X210190Y237998D01*
X210161Y237992D01*
X210132Y237993D01*
X210022Y237964D01*
X209911Y237942D01*
X209885Y237928D01*
X209857Y237921D01*
X209759Y237863D01*
X209659Y237811D01*
X209637Y237791D01*
X209612Y237776D01*
X209535Y237693D01*
X209453Y237615D01*
X209438Y237590D01*
X209418Y237568D01*
X209366Y237468D01*
X209309Y237370D01*
X209302Y237341D01*
X209288Y237315D01*
X209275Y237238D01*
X209239Y237094D01*
X209241Y237032D01*
X209233Y236984D01*
X209233Y235209D01*
X204006Y229982D01*
X203954Y229913D01*
X203894Y229849D01*
X203868Y229799D01*
X203835Y229755D01*
X203804Y229673D01*
X203764Y229596D01*
X203756Y229548D01*
X203734Y229490D01*
X203722Y229342D01*
X203709Y229265D01*
X203709Y228603D01*
X203721Y228516D01*
X203724Y228429D01*
X203741Y228376D01*
X203749Y228321D01*
X203784Y228242D01*
X203811Y228158D01*
X203839Y228119D01*
X203865Y228062D01*
X203961Y227949D01*
X204006Y227885D01*
X213297Y218594D01*
X213297Y207137D01*
X213305Y207079D01*
X213303Y207021D01*
X213325Y206939D01*
X213337Y206855D01*
X213360Y206802D01*
X213375Y206746D01*
X213418Y206673D01*
X213453Y206596D01*
X213491Y206551D01*
X213520Y206501D01*
X213582Y206443D01*
X213636Y206379D01*
X213685Y206347D01*
X213728Y206307D01*
X213803Y206268D01*
X213873Y206221D01*
X213929Y206204D01*
X213981Y206177D01*
X214049Y206166D01*
X214144Y206136D01*
X214244Y206133D01*
X214312Y206122D01*
X214446Y206122D01*
X216454Y205290D01*
X217990Y203754D01*
X218672Y202109D01*
X218730Y202010D01*
X218783Y201908D01*
X218802Y201888D01*
X218816Y201864D01*
X218900Y201785D01*
X218979Y201702D01*
X219003Y201688D01*
X219023Y201669D01*
X219125Y201616D01*
X219224Y201558D01*
X219251Y201551D01*
X219276Y201538D01*
X219389Y201516D01*
X219500Y201488D01*
X219527Y201489D01*
X219555Y201483D01*
X219669Y201493D01*
X219784Y201497D01*
X219810Y201505D01*
X219838Y201508D01*
X219945Y201549D01*
X220054Y201584D01*
X220075Y201599D01*
X220103Y201610D01*
X220316Y201771D01*
X220328Y201779D01*
X220330Y201781D01*
X222205Y203656D01*
X222240Y203703D01*
X222282Y203743D01*
X222325Y203816D01*
X222375Y203883D01*
X222396Y203938D01*
X222426Y203988D01*
X222447Y204070D01*
X222477Y204149D01*
X222481Y204207D01*
X222496Y204264D01*
X222493Y204348D01*
X222500Y204432D01*
X222489Y204490D01*
X222487Y204548D01*
X222461Y204628D01*
X222444Y204711D01*
X222417Y204763D01*
X222399Y204818D01*
X222359Y204875D01*
X222313Y204963D01*
X222245Y205036D01*
X222205Y205092D01*
X217487Y209809D01*
X217487Y216911D01*
X222509Y221933D01*
X229611Y221933D01*
X234633Y216911D01*
X234633Y209777D01*
X234609Y209749D01*
X234598Y209723D01*
X234581Y209701D01*
X234540Y209594D01*
X234494Y209489D01*
X234490Y209461D01*
X234480Y209436D01*
X234471Y209321D01*
X234455Y209207D01*
X234459Y209180D01*
X234456Y209152D01*
X234479Y209040D01*
X234495Y208926D01*
X234507Y208901D01*
X234512Y208874D01*
X234565Y208772D01*
X234613Y208667D01*
X234631Y208646D01*
X234643Y208621D01*
X234722Y208538D01*
X234797Y208451D01*
X234818Y208437D01*
X234839Y208415D01*
X235069Y208281D01*
X235082Y208273D01*
X235365Y208155D01*
X236343Y207502D01*
X237174Y206671D01*
X237827Y205693D01*
X238277Y204606D01*
X238422Y203880D01*
X232537Y203880D01*
X232479Y203872D01*
X232421Y203874D01*
X232339Y203852D01*
X232256Y203841D01*
X232202Y203817D01*
X232146Y203802D01*
X232073Y203759D01*
X231996Y203724D01*
X231952Y203687D01*
X231902Y203657D01*
X231901Y203656D01*
X231843Y203595D01*
X231779Y203541D01*
X231779Y203540D01*
X231747Y203492D01*
X231706Y203449D01*
X231668Y203374D01*
X231621Y203304D01*
X231604Y203248D01*
X231577Y203196D01*
X231566Y203128D01*
X231536Y203033D01*
X231533Y202933D01*
X231522Y202865D01*
X231522Y196348D01*
X231502Y196319D01*
X231493Y196291D01*
X231479Y196266D01*
X231451Y196156D01*
X231417Y196048D01*
X231416Y196018D01*
X231409Y195990D01*
X231412Y195877D01*
X231409Y195764D01*
X231417Y195735D01*
X231418Y195706D01*
X231452Y195598D01*
X231481Y195489D01*
X231496Y195463D01*
X231505Y195435D01*
X231551Y195372D01*
X231626Y195244D01*
X231672Y195201D01*
X231700Y195162D01*
X235141Y191721D01*
X235141Y189959D01*
X228059Y189959D01*
X228059Y197231D01*
X228139Y197307D01*
X228226Y197380D01*
X228242Y197405D01*
X228263Y197425D01*
X228320Y197523D01*
X228383Y197617D01*
X228392Y197645D01*
X228407Y197670D01*
X228435Y197780D01*
X228469Y197888D01*
X228470Y197917D01*
X228477Y197946D01*
X228473Y198059D01*
X228476Y198172D01*
X228469Y198201D01*
X228468Y198230D01*
X228433Y198338D01*
X228405Y198447D01*
X228390Y198473D01*
X228380Y198501D01*
X228335Y198564D01*
X228259Y198692D01*
X228214Y198735D01*
X228186Y198774D01*
X227873Y199086D01*
X227814Y199149D01*
X227729Y199243D01*
X227716Y199252D01*
X227706Y199263D01*
X227596Y199327D01*
X227488Y199394D01*
X227474Y199399D01*
X227460Y199406D01*
X227338Y199438D01*
X227215Y199473D01*
X227200Y199473D01*
X227185Y199477D01*
X227058Y199473D01*
X226931Y199472D01*
X226916Y199468D01*
X226901Y199468D01*
X226780Y199428D01*
X226658Y199393D01*
X226645Y199385D01*
X226630Y199380D01*
X226574Y199340D01*
X226418Y199241D01*
X226387Y199207D01*
X226357Y199185D01*
X224358Y197186D01*
X224306Y197117D01*
X224246Y197053D01*
X224220Y197003D01*
X224187Y196959D01*
X224156Y196878D01*
X224116Y196800D01*
X224108Y196752D01*
X224086Y196694D01*
X224074Y196546D01*
X224061Y196469D01*
X224061Y188944D01*
X224069Y188886D01*
X224067Y188828D01*
X224089Y188746D01*
X224101Y188663D01*
X224124Y188609D01*
X224139Y188553D01*
X224182Y188480D01*
X224217Y188403D01*
X224255Y188359D01*
X224284Y188308D01*
X224346Y188251D01*
X224400Y188186D01*
X224449Y188154D01*
X224492Y188114D01*
X224567Y188075D01*
X224637Y188029D01*
X224693Y188011D01*
X224745Y187984D01*
X224813Y187973D01*
X224855Y187960D01*
X224794Y187951D01*
X224741Y187927D01*
X224685Y187913D01*
X224612Y187869D01*
X224535Y187835D01*
X224490Y187797D01*
X224440Y187767D01*
X224382Y187706D01*
X224318Y187651D01*
X224286Y187603D01*
X224246Y187560D01*
X224207Y187485D01*
X224160Y187415D01*
X224143Y187359D01*
X224116Y187307D01*
X224105Y187239D01*
X224075Y187144D01*
X224072Y187044D01*
X224061Y186976D01*
X224061Y178879D01*
X222299Y178879D01*
X219094Y182084D01*
X219070Y182102D01*
X219051Y182124D01*
X218957Y182187D01*
X218867Y182255D01*
X218839Y182265D01*
X218815Y182282D01*
X218707Y182316D01*
X218601Y182356D01*
X218572Y182359D01*
X218544Y182367D01*
X218430Y182370D01*
X218318Y182380D01*
X218289Y182374D01*
X218260Y182375D01*
X218150Y182346D01*
X218039Y182324D01*
X218013Y182310D01*
X217985Y182303D01*
X217887Y182245D01*
X217787Y182193D01*
X217765Y182173D01*
X217740Y182158D01*
X217663Y182075D01*
X217581Y181997D01*
X217566Y181972D01*
X217546Y181950D01*
X217494Y181850D01*
X217437Y181752D01*
X217430Y181723D01*
X217416Y181697D01*
X217403Y181620D01*
X217367Y181476D01*
X217369Y181414D01*
X217361Y181366D01*
X217361Y181042D01*
X215278Y178959D01*
X215277Y178959D01*
X209661Y173343D01*
X208612Y172294D01*
X208599Y172276D01*
X208585Y172264D01*
X208582Y172260D01*
X208572Y172251D01*
X208509Y172157D01*
X208441Y172067D01*
X208431Y172039D01*
X208415Y172015D01*
X208380Y171907D01*
X208340Y171801D01*
X208338Y171772D01*
X208329Y171744D01*
X208326Y171630D01*
X208317Y171518D01*
X208322Y171489D01*
X208322Y171460D01*
X208350Y171350D01*
X208372Y171239D01*
X208386Y171213D01*
X208393Y171185D01*
X208451Y171087D01*
X208503Y170987D01*
X208524Y170965D01*
X208539Y170940D01*
X208621Y170863D01*
X208699Y170781D01*
X208725Y170766D01*
X208746Y170746D01*
X208847Y170694D01*
X208945Y170637D01*
X208973Y170630D01*
X208999Y170616D01*
X209076Y170603D01*
X209220Y170567D01*
X209283Y170569D01*
X209330Y170561D01*
X212734Y170561D01*
X213381Y170388D01*
X213960Y170053D01*
X214433Y169580D01*
X214768Y169001D01*
X214941Y168354D01*
X214941Y162051D01*
X206916Y162051D01*
X206858Y162043D01*
X206800Y162044D01*
X206718Y162023D01*
X206635Y162011D01*
X206581Y161987D01*
X206525Y161973D01*
X206452Y161930D01*
X206375Y161895D01*
X206331Y161857D01*
X206280Y161827D01*
X206223Y161766D01*
X206158Y161711D01*
X206126Y161663D01*
X206086Y161620D01*
X206047Y161545D01*
X206001Y161475D01*
X205983Y161419D01*
X205956Y161367D01*
X205945Y161299D01*
X205915Y161204D01*
X205912Y161104D01*
X205901Y161036D01*
X205901Y160019D01*
X205899Y160019D01*
X205899Y161036D01*
X205891Y161094D01*
X205892Y161152D01*
X205871Y161234D01*
X205859Y161317D01*
X205835Y161371D01*
X205821Y161427D01*
X205778Y161500D01*
X205743Y161577D01*
X205705Y161621D01*
X205675Y161672D01*
X205614Y161729D01*
X205559Y161794D01*
X205511Y161826D01*
X205468Y161866D01*
X205393Y161905D01*
X205323Y161951D01*
X205267Y161969D01*
X205215Y161996D01*
X205147Y162007D01*
X205052Y162037D01*
X204952Y162040D01*
X204884Y162051D01*
X196859Y162051D01*
X196859Y168354D01*
X197052Y169074D01*
X197054Y169093D01*
X197061Y169112D01*
X197072Y169234D01*
X197086Y169356D01*
X197083Y169375D01*
X197085Y169395D01*
X197061Y169516D01*
X197041Y169637D01*
X197033Y169654D01*
X197029Y169674D01*
X196973Y169783D01*
X196920Y169894D01*
X196907Y169909D01*
X196898Y169926D01*
X196814Y170015D01*
X196732Y170107D01*
X196716Y170118D01*
X196702Y170132D01*
X196596Y170194D01*
X196493Y170260D01*
X196474Y170266D01*
X196457Y170276D01*
X196338Y170306D01*
X196220Y170341D01*
X196200Y170341D01*
X196181Y170346D01*
X196059Y170342D01*
X195936Y170343D01*
X195917Y170338D01*
X195897Y170337D01*
X195781Y170299D01*
X195662Y170266D01*
X195645Y170255D01*
X195627Y170249D01*
X195567Y170207D01*
X195421Y170116D01*
X195386Y170078D01*
X195353Y170055D01*
X188655Y163357D01*
X188655Y163356D01*
X186572Y161273D01*
X181587Y161273D01*
X181585Y161273D01*
X181584Y161273D01*
X181444Y161253D01*
X181305Y161233D01*
X181304Y161233D01*
X181302Y161233D01*
X181176Y161176D01*
X181046Y161117D01*
X181045Y161116D01*
X181043Y161115D01*
X180936Y161024D01*
X180829Y160934D01*
X180828Y160932D01*
X180827Y160931D01*
X180819Y160918D01*
X180671Y160697D01*
X180662Y160668D01*
X180649Y160647D01*
X179890Y158815D01*
X178354Y157279D01*
X176346Y156447D01*
X174174Y156447D01*
X173664Y156658D01*
X173635Y156666D01*
X173609Y156679D01*
X173498Y156701D01*
X173388Y156729D01*
X173359Y156729D01*
X173330Y156734D01*
X173217Y156724D01*
X173104Y156721D01*
X173076Y156712D01*
X173047Y156710D01*
X172942Y156669D01*
X172834Y156635D01*
X172809Y156618D01*
X172782Y156608D01*
X172691Y156539D01*
X172597Y156476D01*
X172579Y156454D01*
X172555Y156436D01*
X172487Y156345D01*
X172414Y156259D01*
X172403Y156232D01*
X172385Y156208D01*
X172345Y156102D01*
X172299Y155999D01*
X172295Y155970D01*
X172285Y155942D01*
X172275Y155830D01*
X172260Y155717D01*
X172264Y155688D01*
X172262Y155659D01*
X172279Y155583D01*
X172301Y155436D01*
X172326Y155379D01*
X172337Y155332D01*
X173102Y153486D01*
X173102Y151314D01*
X172270Y149306D01*
X170734Y147770D01*
X170341Y147607D01*
X170267Y147563D01*
X170188Y147528D01*
X170145Y147491D01*
X170096Y147462D01*
X170037Y147400D01*
X169971Y147344D01*
X169940Y147297D01*
X169901Y147256D01*
X169861Y147179D01*
X169814Y147108D01*
X169797Y147054D01*
X169771Y147003D01*
X169754Y146919D01*
X169728Y146837D01*
X169726Y146780D01*
X169715Y146724D01*
X169723Y146639D01*
X169721Y146553D01*
X169735Y146498D01*
X169740Y146441D01*
X169771Y146361D01*
X169792Y146278D01*
X169821Y146229D01*
X169842Y146176D01*
X169894Y146107D01*
X169938Y146033D01*
X169979Y145994D01*
X170014Y145949D01*
X170082Y145897D01*
X170145Y145839D01*
X170196Y145813D01*
X170241Y145779D01*
X170322Y145748D01*
X170398Y145709D01*
X170447Y145701D01*
X170507Y145678D01*
X170652Y145667D01*
X170729Y145654D01*
X174039Y145654D01*
X174040Y145653D01*
X174121Y145622D01*
X174199Y145582D01*
X174247Y145574D01*
X174305Y145552D01*
X174453Y145540D01*
X174530Y145527D01*
X176346Y145527D01*
X178354Y144695D01*
X179891Y143158D01*
X179958Y143044D01*
X180024Y142928D01*
X180030Y142923D01*
X180034Y142916D01*
X180132Y142823D01*
X180228Y142730D01*
X180235Y142726D01*
X180241Y142721D01*
X180359Y142659D01*
X180478Y142596D01*
X180486Y142594D01*
X180493Y142590D01*
X180624Y142565D01*
X180756Y142536D01*
X180764Y142537D01*
X180772Y142535D01*
X181056Y142560D01*
X181074Y142567D01*
X181090Y142568D01*
X181285Y142621D01*
X186089Y142621D01*
X186089Y134111D01*
X179079Y134111D01*
X179079Y134216D01*
X179063Y134330D01*
X179053Y134444D01*
X179043Y134470D01*
X179039Y134497D01*
X178992Y134602D01*
X178951Y134709D01*
X178935Y134731D01*
X178923Y134757D01*
X178849Y134844D01*
X178780Y134936D01*
X178757Y134953D01*
X178740Y134974D01*
X178644Y135037D01*
X178552Y135106D01*
X178526Y135116D01*
X178503Y135131D01*
X178393Y135166D01*
X178286Y135207D01*
X178258Y135209D01*
X178232Y135217D01*
X178117Y135220D01*
X178003Y135229D01*
X177978Y135224D01*
X177948Y135224D01*
X177691Y135157D01*
X177675Y135154D01*
X176346Y134603D01*
X174174Y134603D01*
X172166Y135435D01*
X170630Y136971D01*
X169819Y138930D01*
X169818Y138931D01*
X169817Y138932D01*
X169746Y139053D01*
X169674Y139174D01*
X169673Y139175D01*
X169672Y139177D01*
X169569Y139273D01*
X169467Y139370D01*
X169466Y139370D01*
X169465Y139371D01*
X169340Y139435D01*
X169215Y139500D01*
X169213Y139500D01*
X169212Y139501D01*
X169197Y139503D01*
X168936Y139555D01*
X168905Y139552D01*
X168881Y139556D01*
X156073Y139556D01*
X156015Y139548D01*
X155957Y139550D01*
X155875Y139528D01*
X155791Y139516D01*
X155738Y139493D01*
X155682Y139478D01*
X155609Y139435D01*
X155532Y139400D01*
X155487Y139362D01*
X155437Y139333D01*
X155379Y139271D01*
X155315Y139217D01*
X155283Y139168D01*
X155243Y139125D01*
X155204Y139050D01*
X155157Y138980D01*
X155140Y138924D01*
X155113Y138872D01*
X155102Y138804D01*
X155072Y138709D01*
X155069Y138609D01*
X155058Y138541D01*
X155058Y134874D01*
X155066Y134816D01*
X155064Y134758D01*
X155086Y134676D01*
X155098Y134592D01*
X155121Y134539D01*
X155136Y134483D01*
X155179Y134410D01*
X155214Y134333D01*
X155252Y134288D01*
X155281Y134238D01*
X155343Y134180D01*
X155397Y134116D01*
X155446Y134084D01*
X155489Y134044D01*
X155564Y134005D01*
X155634Y133958D01*
X155690Y133941D01*
X155742Y133914D01*
X155810Y133903D01*
X155905Y133873D01*
X156005Y133870D01*
X156073Y133859D01*
X157473Y133859D01*
X158572Y132759D01*
X158642Y132707D01*
X158706Y132647D01*
X158756Y132621D01*
X158800Y132588D01*
X158881Y132557D01*
X158959Y132517D01*
X159007Y132509D01*
X159065Y132487D01*
X159213Y132475D01*
X159290Y132462D01*
X161106Y132462D01*
X163114Y131630D01*
X164650Y130094D01*
X165482Y128086D01*
X165482Y125914D01*
X164650Y123906D01*
X163114Y122370D01*
X161106Y121538D01*
X158934Y121538D01*
X156926Y122370D01*
X156791Y122505D01*
X156767Y122523D01*
X156748Y122545D01*
X156654Y122608D01*
X156564Y122676D01*
X156536Y122686D01*
X156512Y122703D01*
X156404Y122737D01*
X156298Y122777D01*
X156269Y122780D01*
X156241Y122788D01*
X156128Y122791D01*
X156015Y122801D01*
X155986Y122795D01*
X155957Y122796D01*
X155847Y122767D01*
X155736Y122745D01*
X155710Y122731D01*
X155682Y122724D01*
X155584Y122666D01*
X155484Y122614D01*
X155462Y122594D01*
X155437Y122579D01*
X155360Y122496D01*
X155278Y122418D01*
X155263Y122393D01*
X155243Y122371D01*
X155191Y122271D01*
X155134Y122173D01*
X155127Y122144D01*
X155113Y122118D01*
X155100Y122041D01*
X155090Y122000D01*
X153867Y120777D01*
X146763Y120777D01*
X146715Y120770D01*
X146666Y120773D01*
X146574Y120751D01*
X146481Y120737D01*
X146437Y120718D01*
X146389Y120706D01*
X146308Y120660D01*
X146222Y120621D01*
X146185Y120590D01*
X146142Y120566D01*
X146077Y120498D01*
X146005Y120438D01*
X145978Y120397D01*
X145944Y120362D01*
X145900Y120279D01*
X145847Y120201D01*
X145833Y120154D01*
X145810Y120111D01*
X145790Y120019D01*
X145762Y119930D01*
X145760Y119881D01*
X145750Y119833D01*
X145757Y119759D01*
X145754Y119646D01*
X145776Y119562D01*
X145782Y119499D01*
X145895Y119079D01*
X145895Y114934D01*
X141830Y114934D01*
X141772Y114926D01*
X141714Y114928D01*
X141632Y114906D01*
X141549Y114895D01*
X141495Y114871D01*
X141439Y114856D01*
X141366Y114813D01*
X141289Y114778D01*
X141245Y114741D01*
X141195Y114711D01*
X141137Y114649D01*
X141072Y114595D01*
X141040Y114546D01*
X141000Y114503D01*
X140962Y114428D01*
X140915Y114358D01*
X140897Y114302D01*
X140871Y114250D01*
X140859Y114182D01*
X140829Y114087D01*
X140826Y113987D01*
X140815Y113919D01*
X140823Y113861D01*
X140822Y113803D01*
X140822Y113802D01*
X140843Y113721D01*
X140855Y113637D01*
X140879Y113584D01*
X140894Y113527D01*
X140937Y113455D01*
X140971Y113378D01*
X141009Y113333D01*
X141039Y113283D01*
X141100Y113225D01*
X141155Y113161D01*
X141203Y113129D01*
X141246Y113088D01*
X141321Y113050D01*
X141391Y113003D01*
X141447Y112986D01*
X141499Y112959D01*
X141567Y112948D01*
X141662Y112918D01*
X141762Y112915D01*
X141830Y112904D01*
X145895Y112904D01*
X145895Y108758D01*
X145843Y108565D01*
X145837Y108516D01*
X145822Y108470D01*
X145820Y108376D01*
X145808Y108283D01*
X145816Y108234D01*
X145815Y108186D01*
X145839Y108095D01*
X145854Y108002D01*
X145874Y107958D01*
X145887Y107911D01*
X145935Y107830D01*
X145975Y107745D01*
X146007Y107708D01*
X146032Y107666D01*
X146100Y107602D01*
X146163Y107531D01*
X146204Y107505D01*
X146239Y107472D01*
X146323Y107429D01*
X146402Y107378D01*
X146449Y107364D01*
X146492Y107342D01*
X146565Y107330D01*
X146675Y107298D01*
X146762Y107297D01*
X146823Y107287D01*
X157892Y107287D01*
X157917Y107277D01*
X157972Y107273D01*
X157977Y107221D01*
X158008Y107137D01*
X158031Y107051D01*
X158058Y107005D01*
X158077Y106955D01*
X158121Y106898D01*
X158176Y106806D01*
X158244Y106743D01*
X158284Y106691D01*
X158285Y106691D01*
X158337Y106655D01*
X158383Y106612D01*
X158383Y106611D01*
X158454Y106575D01*
X158520Y106531D01*
X158580Y106511D01*
X158637Y106482D01*
X158702Y106471D01*
X158790Y106442D01*
X158897Y106438D01*
X158968Y106427D01*
X165100Y106427D01*
X170985Y106427D01*
X170840Y105701D01*
X170390Y104614D01*
X169737Y103636D01*
X168906Y102805D01*
X168668Y102646D01*
X168572Y102561D01*
X168474Y102477D01*
X168466Y102466D01*
X168456Y102457D01*
X168387Y102348D01*
X168316Y102241D01*
X168312Y102228D01*
X168305Y102216D01*
X168269Y102092D01*
X168230Y101970D01*
X168230Y101956D01*
X168226Y101943D01*
X168226Y101814D01*
X168223Y101686D01*
X168227Y101672D01*
X168227Y101658D01*
X168263Y101535D01*
X168295Y101411D01*
X168302Y101399D01*
X168306Y101385D01*
X168375Y101276D01*
X168440Y101166D01*
X168450Y101157D01*
X168458Y101145D01*
X168554Y101060D01*
X168648Y100972D01*
X168660Y100965D01*
X168670Y100956D01*
X168786Y100901D01*
X168901Y100842D01*
X168913Y100840D01*
X168927Y100834D01*
X169207Y100787D01*
X169221Y100789D01*
X169232Y100787D01*
X175524Y100787D01*
X175582Y100795D01*
X175640Y100793D01*
X175722Y100815D01*
X175806Y100827D01*
X175859Y100850D01*
X175915Y100865D01*
X175988Y100908D01*
X176065Y100943D01*
X176110Y100981D01*
X176160Y101010D01*
X176218Y101072D01*
X176282Y101126D01*
X176314Y101175D01*
X176354Y101218D01*
X176393Y101293D01*
X176440Y101363D01*
X176457Y101419D01*
X176484Y101471D01*
X176495Y101539D01*
X176525Y101634D01*
X176528Y101734D01*
X176539Y101802D01*
X176539Y104649D01*
X184564Y104649D01*
X184622Y104657D01*
X184680Y104655D01*
X184762Y104677D01*
X184845Y104689D01*
X184899Y104713D01*
X184955Y104727D01*
X185028Y104770D01*
X185105Y104805D01*
X185149Y104843D01*
X185200Y104873D01*
X185257Y104934D01*
X185322Y104989D01*
X185354Y105037D01*
X185394Y105080D01*
X185433Y105155D01*
X185479Y105225D01*
X185497Y105281D01*
X185524Y105333D01*
X185535Y105401D01*
X185565Y105496D01*
X185568Y105596D01*
X185579Y105664D01*
X185579Y106681D01*
X185581Y106681D01*
X185581Y105664D01*
X185589Y105606D01*
X185588Y105548D01*
X185609Y105466D01*
X185621Y105383D01*
X185645Y105329D01*
X185659Y105273D01*
X185702Y105200D01*
X185737Y105123D01*
X185775Y105078D01*
X185805Y105028D01*
X185866Y104970D01*
X185921Y104906D01*
X185969Y104874D01*
X186012Y104834D01*
X186087Y104795D01*
X186157Y104749D01*
X186213Y104731D01*
X186265Y104704D01*
X186333Y104693D01*
X186428Y104663D01*
X186528Y104660D01*
X186596Y104649D01*
X194621Y104649D01*
X194621Y99696D01*
X194629Y99638D01*
X194627Y99580D01*
X194649Y99498D01*
X194661Y99414D01*
X194684Y99361D01*
X194699Y99305D01*
X194742Y99232D01*
X194777Y99155D01*
X194815Y99110D01*
X194844Y99060D01*
X194906Y99002D01*
X194960Y98938D01*
X195009Y98906D01*
X195052Y98866D01*
X195127Y98827D01*
X195197Y98780D01*
X195253Y98763D01*
X195305Y98736D01*
X195373Y98725D01*
X195468Y98695D01*
X195568Y98692D01*
X195636Y98681D01*
X196032Y98681D01*
X196090Y98689D01*
G37*
G36*
X109120Y58393D02*
X109120Y58393D01*
X109151Y58392D01*
X109407Y58459D01*
X109423Y58463D01*
X110019Y58709D01*
X110434Y58792D01*
X110530Y58825D01*
X110627Y58851D01*
X110663Y58872D01*
X110702Y58886D01*
X110785Y58945D01*
X110872Y58996D01*
X110900Y59026D01*
X110934Y59051D01*
X110997Y59130D01*
X111066Y59203D01*
X111085Y59240D01*
X111111Y59273D01*
X111150Y59367D01*
X111196Y59457D01*
X111202Y59493D01*
X111220Y59536D01*
X111240Y59720D01*
X111251Y59788D01*
X111251Y67662D01*
X111243Y67720D01*
X111245Y67779D01*
X111223Y67860D01*
X111211Y67944D01*
X111188Y67997D01*
X111173Y68054D01*
X111130Y68126D01*
X111095Y68203D01*
X111057Y68248D01*
X111028Y68298D01*
X110966Y68356D01*
X110912Y68420D01*
X110863Y68453D01*
X110820Y68493D01*
X110745Y68531D01*
X110675Y68578D01*
X110619Y68595D01*
X110567Y68622D01*
X110499Y68633D01*
X110404Y68664D01*
X110304Y68666D01*
X110236Y68678D01*
X108895Y68678D01*
X106887Y69509D01*
X105351Y71045D01*
X104519Y73053D01*
X104519Y75226D01*
X105351Y77233D01*
X106913Y78796D01*
X106920Y78799D01*
X106963Y78836D01*
X107012Y78864D01*
X107071Y78927D01*
X107137Y78983D01*
X107169Y79030D01*
X107208Y79071D01*
X107247Y79147D01*
X107295Y79219D01*
X107312Y79273D01*
X107338Y79324D01*
X107355Y79408D01*
X107380Y79490D01*
X107382Y79547D01*
X107393Y79603D01*
X107386Y79688D01*
X107388Y79774D01*
X107373Y79829D01*
X107369Y79886D01*
X107338Y79966D01*
X107316Y80049D01*
X107287Y80098D01*
X107267Y80151D01*
X107215Y80220D01*
X107171Y80294D01*
X107129Y80333D01*
X107095Y80378D01*
X107026Y80429D01*
X106963Y80488D01*
X106913Y80514D01*
X106867Y80548D01*
X106787Y80579D01*
X106710Y80618D01*
X106662Y80626D01*
X106601Y80649D01*
X106489Y80658D01*
X105282Y81864D01*
X105282Y86596D01*
X105448Y86762D01*
X105483Y86809D01*
X105526Y86849D01*
X105569Y86922D01*
X105619Y86989D01*
X105640Y87044D01*
X105670Y87094D01*
X105691Y87176D01*
X105721Y87255D01*
X105725Y87313D01*
X105740Y87370D01*
X105737Y87454D01*
X105744Y87538D01*
X105733Y87596D01*
X105731Y87654D01*
X105705Y87734D01*
X105688Y87817D01*
X105661Y87869D01*
X105643Y87925D01*
X105603Y87981D01*
X105557Y88069D01*
X105489Y88142D01*
X105448Y88198D01*
X105282Y88364D01*
X105282Y93096D01*
X105448Y93262D01*
X105483Y93309D01*
X105526Y93349D01*
X105569Y93422D01*
X105619Y93489D01*
X105640Y93544D01*
X105670Y93594D01*
X105691Y93676D01*
X105721Y93755D01*
X105725Y93813D01*
X105740Y93870D01*
X105737Y93954D01*
X105744Y94038D01*
X105733Y94096D01*
X105731Y94154D01*
X105705Y94234D01*
X105688Y94317D01*
X105661Y94369D01*
X105643Y94425D01*
X105603Y94481D01*
X105557Y94569D01*
X105489Y94642D01*
X105448Y94698D01*
X105282Y94864D01*
X105282Y99379D01*
X105278Y99408D01*
X105281Y99437D01*
X105258Y99548D01*
X105242Y99660D01*
X105230Y99687D01*
X105225Y99716D01*
X105172Y99816D01*
X105126Y99920D01*
X105107Y99942D01*
X105094Y99968D01*
X105016Y100050D01*
X104943Y100137D01*
X104918Y100153D01*
X104898Y100174D01*
X104800Y100231D01*
X104706Y100294D01*
X104678Y100303D01*
X104653Y100318D01*
X104543Y100346D01*
X104435Y100380D01*
X104405Y100381D01*
X104377Y100388D01*
X104264Y100384D01*
X104151Y100387D01*
X104122Y100380D01*
X104093Y100379D01*
X103985Y100344D01*
X103876Y100315D01*
X103850Y100301D01*
X103822Y100291D01*
X103758Y100246D01*
X103631Y100170D01*
X103588Y100125D01*
X103549Y100097D01*
X102866Y99413D01*
X102763Y99344D01*
X102688Y99277D01*
X102607Y99216D01*
X102582Y99183D01*
X102551Y99155D01*
X102497Y99069D01*
X102437Y98988D01*
X102422Y98949D01*
X102400Y98914D01*
X102372Y98817D01*
X102336Y98722D01*
X102333Y98681D01*
X102322Y98641D01*
X102322Y98540D01*
X102314Y98439D01*
X102322Y98403D01*
X102322Y98357D01*
X102373Y98181D01*
X102374Y98177D01*
X102389Y98112D01*
X103162Y96246D01*
X103162Y94074D01*
X102330Y92066D01*
X100794Y90530D01*
X98786Y89698D01*
X96614Y89698D01*
X94606Y90530D01*
X93070Y92066D01*
X92238Y94074D01*
X92238Y95890D01*
X92226Y95976D01*
X92223Y96064D01*
X92206Y96116D01*
X92198Y96171D01*
X92163Y96251D01*
X92136Y96334D01*
X92108Y96373D01*
X92082Y96430D01*
X91986Y96544D01*
X91941Y96607D01*
X86867Y101681D01*
X86867Y120643D01*
X88950Y122726D01*
X88951Y122726D01*
X98878Y132653D01*
X98947Y132745D01*
X99021Y132833D01*
X99032Y132858D01*
X99049Y132880D01*
X99090Y132988D01*
X99136Y133093D01*
X99140Y133120D01*
X99150Y133146D01*
X99159Y133261D01*
X99175Y133374D01*
X99171Y133402D01*
X99173Y133429D01*
X99151Y133542D01*
X99134Y133656D01*
X99123Y133681D01*
X99118Y133708D01*
X99065Y133810D01*
X99017Y133915D01*
X98999Y133936D01*
X98987Y133961D01*
X98908Y134044D01*
X98833Y134131D01*
X98812Y134144D01*
X98791Y134167D01*
X98562Y134301D01*
X98548Y134309D01*
X96712Y135070D01*
X95176Y136606D01*
X94344Y138614D01*
X94344Y139319D01*
X94336Y139377D01*
X94338Y139435D01*
X94316Y139517D01*
X94304Y139601D01*
X94281Y139654D01*
X94266Y139710D01*
X94223Y139783D01*
X94188Y139860D01*
X94150Y139905D01*
X94121Y139955D01*
X94059Y140013D01*
X94005Y140077D01*
X93956Y140109D01*
X93913Y140149D01*
X93838Y140188D01*
X93768Y140235D01*
X93712Y140252D01*
X93660Y140279D01*
X93592Y140290D01*
X93497Y140320D01*
X93397Y140323D01*
X93329Y140334D01*
X90821Y140334D01*
X90792Y140330D01*
X90763Y140333D01*
X90651Y140310D01*
X90539Y140294D01*
X90513Y140282D01*
X90484Y140277D01*
X90383Y140224D01*
X90280Y140178D01*
X90258Y140159D01*
X90231Y140146D01*
X90149Y140068D01*
X90063Y139995D01*
X90047Y139970D01*
X90025Y139950D01*
X89968Y139852D01*
X89905Y139758D01*
X89896Y139730D01*
X89882Y139705D01*
X89854Y139595D01*
X89820Y139487D01*
X89819Y139457D01*
X89812Y139429D01*
X89815Y139316D01*
X89812Y139203D01*
X89820Y139174D01*
X89821Y139145D01*
X89855Y139037D01*
X89884Y138928D01*
X89899Y138902D01*
X89908Y138874D01*
X89954Y138810D01*
X90029Y138683D01*
X90075Y138640D01*
X90103Y138601D01*
X90990Y137714D01*
X91822Y135706D01*
X91822Y133534D01*
X90990Y131526D01*
X89454Y129990D01*
X87446Y129158D01*
X85274Y129158D01*
X83266Y129990D01*
X81982Y131274D01*
X81912Y131326D01*
X81848Y131386D01*
X81799Y131412D01*
X81755Y131445D01*
X81673Y131476D01*
X81595Y131516D01*
X81548Y131524D01*
X81489Y131546D01*
X81341Y131558D01*
X81264Y131571D01*
X79804Y131571D01*
X79718Y131559D01*
X79630Y131556D01*
X79578Y131539D01*
X79523Y131531D01*
X79443Y131496D01*
X79360Y131469D01*
X79320Y131441D01*
X79263Y131415D01*
X79150Y131319D01*
X79086Y131274D01*
X77606Y129793D01*
X71025Y129793D01*
X70939Y129781D01*
X70851Y129778D01*
X70799Y129761D01*
X70744Y129753D01*
X70664Y129718D01*
X70581Y129691D01*
X70542Y129663D01*
X70484Y129637D01*
X70371Y129541D01*
X70307Y129496D01*
X69386Y128575D01*
X69334Y128505D01*
X69274Y128441D01*
X69248Y128391D01*
X69215Y128347D01*
X69184Y128266D01*
X69144Y128188D01*
X69136Y128140D01*
X69114Y128082D01*
X69102Y127934D01*
X69089Y127857D01*
X69089Y127128D01*
X69089Y127126D01*
X69089Y127125D01*
X69109Y126985D01*
X69129Y126846D01*
X69129Y126845D01*
X69129Y126843D01*
X69188Y126713D01*
X69245Y126587D01*
X69246Y126586D01*
X69247Y126584D01*
X69338Y126477D01*
X69428Y126370D01*
X69430Y126369D01*
X69431Y126368D01*
X69444Y126360D01*
X69665Y126212D01*
X69694Y126203D01*
X69715Y126190D01*
X70932Y125686D01*
X73362Y123256D01*
X74677Y120082D01*
X74677Y103438D01*
X73362Y100264D01*
X70932Y97834D01*
X67758Y96519D01*
X64322Y96519D01*
X61148Y97834D01*
X58718Y100264D01*
X57403Y103438D01*
X57403Y120082D01*
X58718Y123256D01*
X61148Y125686D01*
X62365Y126190D01*
X62366Y126191D01*
X62367Y126191D01*
X62488Y126263D01*
X62609Y126334D01*
X62610Y126336D01*
X62612Y126336D01*
X62709Y126440D01*
X62805Y126541D01*
X62805Y126542D01*
X62806Y126544D01*
X62871Y126669D01*
X62935Y126794D01*
X62935Y126795D01*
X62936Y126797D01*
X62938Y126812D01*
X62990Y127073D01*
X62987Y127103D01*
X62991Y127128D01*
X62991Y130803D01*
X67981Y135792D01*
X67982Y135794D01*
X67983Y135795D01*
X68068Y135908D01*
X68152Y136020D01*
X68152Y136021D01*
X68153Y136022D01*
X68203Y136154D01*
X68253Y136285D01*
X68253Y136287D01*
X68254Y136288D01*
X68265Y136433D01*
X68276Y136569D01*
X68276Y136570D01*
X68276Y136572D01*
X68273Y136587D01*
X68221Y136847D01*
X68207Y136874D01*
X68201Y136899D01*
X67920Y137578D01*
X67775Y138304D01*
X73660Y138304D01*
X79705Y138304D01*
X79708Y138293D01*
X79751Y138220D01*
X79786Y138143D01*
X79824Y138098D01*
X79853Y138048D01*
X79915Y137990D01*
X79969Y137926D01*
X80018Y137894D01*
X80061Y137854D01*
X80136Y137815D01*
X80206Y137768D01*
X80262Y137751D01*
X80314Y137724D01*
X80382Y137713D01*
X80477Y137683D01*
X80577Y137680D01*
X80645Y137669D01*
X81264Y137669D01*
X81351Y137681D01*
X81438Y137684D01*
X81491Y137701D01*
X81546Y137709D01*
X81625Y137744D01*
X81709Y137771D01*
X81748Y137799D01*
X81805Y137825D01*
X81918Y137921D01*
X81982Y137966D01*
X83266Y139250D01*
X85274Y140082D01*
X87185Y140082D01*
X87214Y140086D01*
X87243Y140083D01*
X87354Y140106D01*
X87466Y140122D01*
X87493Y140134D01*
X87522Y140139D01*
X87623Y140192D01*
X87726Y140238D01*
X87748Y140257D01*
X87774Y140270D01*
X87856Y140348D01*
X87943Y140421D01*
X87959Y140446D01*
X87980Y140466D01*
X88038Y140564D01*
X88100Y140658D01*
X88109Y140686D01*
X88124Y140711D01*
X88152Y140821D01*
X88186Y140929D01*
X88187Y140959D01*
X88194Y140987D01*
X88190Y141100D01*
X88193Y141213D01*
X88186Y141242D01*
X88185Y141271D01*
X88150Y141379D01*
X88122Y141488D01*
X88107Y141514D01*
X88098Y141542D01*
X88052Y141606D01*
X87976Y141733D01*
X87945Y141762D01*
X87942Y141767D01*
X87926Y141782D01*
X87903Y141815D01*
X87268Y142450D01*
X87198Y142503D01*
X87134Y142562D01*
X87085Y142588D01*
X87040Y142621D01*
X86959Y142652D01*
X86881Y142692D01*
X86833Y142700D01*
X86775Y142722D01*
X86627Y142734D01*
X86550Y142747D01*
X80221Y142747D01*
X80107Y142731D01*
X79993Y142721D01*
X79967Y142711D01*
X79939Y142707D01*
X79835Y142660D01*
X79727Y142619D01*
X79705Y142603D01*
X79680Y142591D01*
X79592Y142517D01*
X79501Y142448D01*
X79484Y142425D01*
X79463Y142408D01*
X79399Y142312D01*
X79331Y142220D01*
X79321Y142194D01*
X79305Y142171D01*
X79271Y142061D01*
X79230Y141954D01*
X79228Y141926D01*
X79220Y141900D01*
X79217Y141784D01*
X79208Y141671D01*
X79213Y141646D01*
X79212Y141616D01*
X79280Y141358D01*
X79283Y141343D01*
X79400Y141060D01*
X79545Y140334D01*
X73660Y140334D01*
X67137Y140334D01*
X67050Y140322D01*
X66963Y140319D01*
X66910Y140302D01*
X66855Y140295D01*
X66775Y140259D01*
X66692Y140232D01*
X66653Y140204D01*
X66596Y140178D01*
X66483Y140082D01*
X66419Y140037D01*
X66401Y140013D01*
X66379Y139995D01*
X66378Y139994D01*
X66316Y139900D01*
X66248Y139810D01*
X66237Y139782D01*
X66228Y139768D01*
X66167Y139725D01*
X66039Y139649D01*
X65996Y139603D01*
X65957Y139575D01*
X64049Y137667D01*
X29115Y137667D01*
X29086Y137663D01*
X29057Y137666D01*
X28946Y137643D01*
X28834Y137627D01*
X28807Y137615D01*
X28778Y137610D01*
X28678Y137558D01*
X28574Y137511D01*
X28552Y137492D01*
X28526Y137479D01*
X28444Y137401D01*
X28357Y137328D01*
X28341Y137303D01*
X28320Y137283D01*
X28263Y137185D01*
X28200Y137091D01*
X28191Y137063D01*
X28176Y137038D01*
X28148Y136928D01*
X28114Y136820D01*
X28113Y136790D01*
X28106Y136762D01*
X28110Y136649D01*
X28107Y136536D01*
X28114Y136507D01*
X28115Y136478D01*
X28150Y136370D01*
X28179Y136261D01*
X28194Y136235D01*
X28203Y136207D01*
X28248Y136144D01*
X28324Y136016D01*
X28369Y135973D01*
X28397Y135934D01*
X34037Y130295D01*
X34037Y126850D01*
X34043Y126802D01*
X34043Y126801D01*
X34044Y126800D01*
X34047Y126778D01*
X34047Y126706D01*
X34067Y126638D01*
X34077Y126568D01*
X34106Y126502D01*
X34126Y126433D01*
X34164Y126373D01*
X34193Y126309D01*
X34239Y126254D01*
X34278Y126192D01*
X34331Y126145D01*
X34376Y126092D01*
X34437Y126052D01*
X34491Y126004D01*
X34554Y125973D01*
X34613Y125934D01*
X34682Y125912D01*
X34747Y125881D01*
X34817Y125870D01*
X34884Y125848D01*
X34956Y125846D01*
X35028Y125835D01*
X35098Y125843D01*
X35168Y125841D01*
X35238Y125859D01*
X35310Y125868D01*
X35365Y125892D01*
X35443Y125913D01*
X35547Y125974D01*
X35616Y126005D01*
X36308Y126468D01*
X37973Y127157D01*
X38609Y127284D01*
X38609Y112776D01*
X38617Y112718D01*
X38615Y112660D01*
X38637Y112578D01*
X38649Y112495D01*
X38673Y112441D01*
X38687Y112385D01*
X38730Y112312D01*
X38765Y112235D01*
X38803Y112191D01*
X38833Y112140D01*
X38894Y112083D01*
X38949Y112018D01*
X38997Y111986D01*
X39040Y111946D01*
X39115Y111907D01*
X39185Y111861D01*
X39241Y111843D01*
X39293Y111816D01*
X39361Y111805D01*
X39456Y111775D01*
X39556Y111772D01*
X39624Y111761D01*
X40641Y111761D01*
X40641Y111759D01*
X39624Y111759D01*
X39566Y111751D01*
X39508Y111752D01*
X39426Y111731D01*
X39343Y111719D01*
X39289Y111695D01*
X39233Y111681D01*
X39160Y111638D01*
X39083Y111603D01*
X39038Y111565D01*
X38988Y111535D01*
X38930Y111474D01*
X38866Y111419D01*
X38834Y111371D01*
X38794Y111328D01*
X38755Y111253D01*
X38709Y111183D01*
X38691Y111127D01*
X38664Y111075D01*
X38653Y111007D01*
X38623Y110912D01*
X38620Y110812D01*
X38609Y110744D01*
X38609Y98269D01*
X38621Y98183D01*
X38624Y98095D01*
X38641Y98043D01*
X38649Y97988D01*
X38684Y97908D01*
X38711Y97825D01*
X38739Y97786D01*
X38765Y97728D01*
X38861Y97615D01*
X38906Y97551D01*
X39131Y97326D01*
X39201Y97274D01*
X39265Y97214D01*
X39315Y97188D01*
X39359Y97155D01*
X39440Y97124D01*
X39518Y97084D01*
X39566Y97076D01*
X39624Y97054D01*
X39772Y97042D01*
X39849Y97029D01*
X41656Y97029D01*
X41714Y97037D01*
X41772Y97035D01*
X41854Y97057D01*
X41937Y97069D01*
X41991Y97092D01*
X42047Y97107D01*
X42120Y97150D01*
X42197Y97185D01*
X42242Y97223D01*
X42292Y97252D01*
X42350Y97314D01*
X42414Y97368D01*
X42446Y97417D01*
X42486Y97460D01*
X42525Y97535D01*
X42571Y97605D01*
X42589Y97661D01*
X42616Y97713D01*
X42627Y97781D01*
X42657Y97876D01*
X42660Y97976D01*
X42671Y98044D01*
X42671Y109729D01*
X49785Y109729D01*
X49785Y104255D01*
X49433Y102489D01*
X48744Y100824D01*
X47743Y99326D01*
X46470Y98053D01*
X45269Y97251D01*
X45258Y97241D01*
X45244Y97233D01*
X45152Y97146D01*
X45057Y97061D01*
X45049Y97048D01*
X45038Y97038D01*
X44973Y96928D01*
X44906Y96821D01*
X44902Y96806D01*
X44894Y96792D01*
X44863Y96670D01*
X44828Y96547D01*
X44828Y96532D01*
X44824Y96517D01*
X44828Y96390D01*
X44828Y96263D01*
X44833Y96248D01*
X44833Y96233D01*
X44872Y96112D01*
X44907Y95990D01*
X44916Y95977D01*
X44920Y95962D01*
X44960Y95906D01*
X45059Y95750D01*
X45094Y95719D01*
X45115Y95689D01*
X47542Y93262D01*
X47612Y93210D01*
X47676Y93150D01*
X47725Y93124D01*
X47769Y93091D01*
X47851Y93060D01*
X47929Y93020D01*
X47976Y93012D01*
X48035Y92990D01*
X48183Y92978D01*
X48260Y92965D01*
X88479Y92965D01*
X102489Y78955D01*
X102489Y71456D01*
X102501Y71370D01*
X102504Y71282D01*
X102521Y71230D01*
X102529Y71175D01*
X102564Y71095D01*
X102591Y71012D01*
X102619Y70973D01*
X102645Y70916D01*
X102741Y70802D01*
X102786Y70739D01*
X108019Y65505D01*
X108019Y59401D01*
X108035Y59287D01*
X108045Y59172D01*
X108055Y59146D01*
X108059Y59119D01*
X108106Y59014D01*
X108147Y58907D01*
X108164Y58885D01*
X108175Y58860D01*
X108249Y58772D01*
X108319Y58680D01*
X108341Y58664D01*
X108359Y58643D01*
X108455Y58579D01*
X108547Y58510D01*
X108572Y58500D01*
X108596Y58485D01*
X108705Y58450D01*
X108813Y58410D01*
X108840Y58408D01*
X108867Y58399D01*
X108982Y58396D01*
X109096Y58387D01*
X109120Y58393D01*
G37*
G36*
X76079Y214098D02*
X76079Y214098D01*
X76108Y214097D01*
X76218Y214126D01*
X76329Y214148D01*
X76355Y214162D01*
X76383Y214169D01*
X76481Y214227D01*
X76581Y214279D01*
X76603Y214299D01*
X76628Y214314D01*
X76705Y214397D01*
X76787Y214475D01*
X76802Y214500D01*
X76822Y214522D01*
X76874Y214622D01*
X76931Y214720D01*
X76938Y214749D01*
X76952Y214775D01*
X76965Y214852D01*
X77001Y214996D01*
X76999Y215058D01*
X77007Y215106D01*
X77007Y229712D01*
X78198Y230903D01*
X95742Y230903D01*
X95800Y230911D01*
X95858Y230909D01*
X95940Y230931D01*
X96024Y230943D01*
X96077Y230966D01*
X96133Y230981D01*
X96206Y231024D01*
X96283Y231059D01*
X96328Y231097D01*
X96378Y231126D01*
X96436Y231188D01*
X96500Y231242D01*
X96532Y231291D01*
X96572Y231334D01*
X96611Y231409D01*
X96658Y231479D01*
X96675Y231535D01*
X96702Y231587D01*
X96713Y231655D01*
X96743Y231750D01*
X96746Y231850D01*
X96757Y231918D01*
X96757Y247475D01*
X96753Y247504D01*
X96756Y247533D01*
X96733Y247644D01*
X96717Y247756D01*
X96705Y247783D01*
X96700Y247812D01*
X96648Y247912D01*
X96601Y248016D01*
X96582Y248038D01*
X96569Y248064D01*
X96491Y248146D01*
X96418Y248233D01*
X96393Y248249D01*
X96373Y248270D01*
X96275Y248327D01*
X96181Y248390D01*
X96153Y248399D01*
X96128Y248414D01*
X96018Y248442D01*
X95910Y248476D01*
X95880Y248477D01*
X95852Y248484D01*
X95739Y248480D01*
X95626Y248483D01*
X95597Y248476D01*
X95568Y248475D01*
X95460Y248440D01*
X95351Y248411D01*
X95325Y248396D01*
X95297Y248387D01*
X95234Y248342D01*
X95106Y248266D01*
X95063Y248221D01*
X95024Y248193D01*
X89147Y242315D01*
X45925Y242315D01*
X45801Y242298D01*
X45676Y242284D01*
X45660Y242278D01*
X45643Y242275D01*
X45529Y242224D01*
X45413Y242177D01*
X45399Y242166D01*
X45384Y242159D01*
X45289Y242078D01*
X45190Y242000D01*
X45180Y241986D01*
X45167Y241976D01*
X45098Y241871D01*
X45025Y241769D01*
X45019Y241753D01*
X45009Y241739D01*
X44972Y241619D01*
X44930Y241501D01*
X44929Y241484D01*
X44924Y241468D01*
X44920Y241342D01*
X44913Y241217D01*
X44917Y241201D01*
X44916Y241184D01*
X44948Y241062D01*
X44976Y240940D01*
X44984Y240925D01*
X44988Y240909D01*
X45052Y240801D01*
X45113Y240691D01*
X45125Y240679D01*
X45133Y240664D01*
X45225Y240578D01*
X45314Y240490D01*
X45327Y240482D01*
X45341Y240470D01*
X45594Y240340D01*
X45603Y240339D01*
X45611Y240334D01*
X46377Y240086D01*
X47731Y239396D01*
X48960Y238503D01*
X50035Y237428D01*
X50928Y236199D01*
X51466Y235143D01*
X51476Y235128D01*
X51483Y235111D01*
X51558Y235012D01*
X51629Y234911D01*
X51643Y234899D01*
X51655Y234884D01*
X51754Y234810D01*
X51850Y234732D01*
X51867Y234725D01*
X51882Y234714D01*
X51999Y234670D01*
X52113Y234622D01*
X52131Y234620D01*
X52148Y234614D01*
X52272Y234604D01*
X52395Y234589D01*
X52413Y234592D01*
X52432Y234591D01*
X52503Y234607D01*
X52675Y234636D01*
X52720Y234657D01*
X52759Y234666D01*
X53504Y234975D01*
X54230Y235119D01*
X54230Y229235D01*
X54230Y229234D01*
X54230Y225505D01*
X54244Y225407D01*
X54249Y225309D01*
X54264Y225267D01*
X54270Y225224D01*
X54310Y225134D01*
X54343Y225040D01*
X54368Y225004D01*
X54386Y224964D01*
X54450Y224889D01*
X54507Y224808D01*
X54541Y224781D01*
X54570Y224747D01*
X54652Y224693D01*
X54729Y224631D01*
X54770Y224614D01*
X54806Y224590D01*
X54901Y224560D01*
X54992Y224522D01*
X55035Y224517D01*
X55077Y224504D01*
X55176Y224501D01*
X55274Y224490D01*
X55318Y224498D01*
X55361Y224497D01*
X55457Y224522D01*
X55554Y224538D01*
X55594Y224557D01*
X55637Y224568D01*
X55721Y224619D01*
X55810Y224662D01*
X55843Y224691D01*
X55881Y224714D01*
X55948Y224786D01*
X56022Y224852D01*
X56042Y224885D01*
X56075Y224921D01*
X56156Y225079D01*
X56193Y225141D01*
X56193Y225142D01*
X56197Y225159D01*
X56205Y225174D01*
X56205Y225175D01*
X56217Y225246D01*
X56257Y225419D01*
X56254Y225468D01*
X56261Y225506D01*
X56261Y228219D01*
X61438Y228219D01*
X61439Y228218D01*
X61500Y228160D01*
X61555Y228096D01*
X61603Y228064D01*
X61646Y228024D01*
X61721Y227985D01*
X61791Y227938D01*
X61847Y227921D01*
X61899Y227894D01*
X61921Y227891D01*
X64054Y227007D01*
X65590Y225471D01*
X66422Y223463D01*
X66422Y221291D01*
X66033Y220353D01*
X66005Y220241D01*
X65970Y220132D01*
X65969Y220104D01*
X65962Y220077D01*
X65965Y219963D01*
X65963Y219848D01*
X65970Y219821D01*
X65970Y219793D01*
X66005Y219684D01*
X66034Y219573D01*
X66049Y219549D01*
X66057Y219522D01*
X66121Y219427D01*
X66180Y219328D01*
X66200Y219309D01*
X66215Y219286D01*
X66303Y219212D01*
X66387Y219134D01*
X66412Y219121D01*
X66433Y219103D01*
X66538Y219057D01*
X66640Y219004D01*
X66665Y219000D01*
X66693Y218988D01*
X66956Y218951D01*
X66971Y218949D01*
X70713Y218949D01*
X75274Y214388D01*
X75298Y214370D01*
X75317Y214348D01*
X75411Y214285D01*
X75501Y214217D01*
X75529Y214207D01*
X75553Y214190D01*
X75661Y214156D01*
X75767Y214116D01*
X75796Y214113D01*
X75824Y214105D01*
X75938Y214102D01*
X76050Y214092D01*
X76079Y214098D01*
G37*
G36*
X99118Y103043D02*
X99118Y103043D01*
X99176Y103041D01*
X99258Y103063D01*
X99341Y103074D01*
X99395Y103098D01*
X99451Y103113D01*
X99524Y103156D01*
X99601Y103191D01*
X99645Y103228D01*
X99695Y103258D01*
X99753Y103320D01*
X99818Y103374D01*
X99818Y103375D01*
X99850Y103423D01*
X99890Y103466D01*
X99929Y103541D01*
X99976Y103611D01*
X99993Y103667D01*
X100020Y103719D01*
X100031Y103787D01*
X100061Y103882D01*
X100064Y103982D01*
X100075Y104050D01*
X100075Y109935D01*
X100801Y109790D01*
X101888Y109340D01*
X102866Y108687D01*
X103697Y107856D01*
X104349Y106879D01*
X104360Y106867D01*
X104367Y106854D01*
X104454Y106762D01*
X104539Y106667D01*
X104552Y106659D01*
X104563Y106648D01*
X104673Y106583D01*
X104780Y106516D01*
X104795Y106512D01*
X104808Y106504D01*
X104931Y106473D01*
X105053Y106438D01*
X105069Y106438D01*
X105083Y106434D01*
X105210Y106438D01*
X105337Y106438D01*
X105352Y106442D01*
X105368Y106443D01*
X105489Y106482D01*
X105610Y106517D01*
X105623Y106526D01*
X105638Y106530D01*
X105694Y106570D01*
X105851Y106669D01*
X105881Y106704D01*
X105911Y106725D01*
X106473Y107287D01*
X117707Y107287D01*
X117794Y107299D01*
X117882Y107302D01*
X117934Y107319D01*
X117989Y107327D01*
X118069Y107362D01*
X118152Y107389D01*
X118191Y107417D01*
X118248Y107443D01*
X118362Y107539D01*
X118389Y107558D01*
X118394Y107561D01*
X118396Y107563D01*
X118425Y107584D01*
X118476Y107635D01*
X118528Y107704D01*
X118588Y107768D01*
X118614Y107818D01*
X118647Y107862D01*
X118678Y107944D01*
X118718Y108021D01*
X118726Y108069D01*
X118748Y108127D01*
X118760Y108275D01*
X118773Y108353D01*
X118773Y119861D01*
X118788Y119918D01*
X118785Y120002D01*
X118792Y120085D01*
X118780Y120143D01*
X118779Y120202D01*
X118753Y120282D01*
X118736Y120364D01*
X118709Y120416D01*
X118691Y120472D01*
X118651Y120528D01*
X118605Y120616D01*
X118536Y120689D01*
X118496Y120746D01*
X117992Y121250D01*
X117657Y121829D01*
X117484Y122476D01*
X117484Y128779D01*
X125509Y128779D01*
X125567Y128787D01*
X125625Y128785D01*
X125707Y128807D01*
X125790Y128819D01*
X125844Y128843D01*
X125900Y128857D01*
X125973Y128900D01*
X126050Y128935D01*
X126094Y128973D01*
X126145Y129003D01*
X126202Y129064D01*
X126267Y129119D01*
X126299Y129167D01*
X126339Y129210D01*
X126378Y129285D01*
X126424Y129355D01*
X126442Y129411D01*
X126469Y129463D01*
X126480Y129531D01*
X126510Y129626D01*
X126513Y129726D01*
X126524Y129794D01*
X126524Y131826D01*
X126516Y131884D01*
X126517Y131942D01*
X126496Y132024D01*
X126484Y132107D01*
X126460Y132161D01*
X126446Y132217D01*
X126403Y132290D01*
X126368Y132367D01*
X126330Y132411D01*
X126300Y132462D01*
X126239Y132519D01*
X126184Y132584D01*
X126136Y132616D01*
X126093Y132656D01*
X126018Y132695D01*
X125948Y132741D01*
X125892Y132759D01*
X125840Y132786D01*
X125772Y132797D01*
X125677Y132827D01*
X125577Y132830D01*
X125509Y132841D01*
X117484Y132841D01*
X117484Y138541D01*
X117476Y138599D01*
X117478Y138657D01*
X117456Y138739D01*
X117444Y138823D01*
X117421Y138876D01*
X117406Y138932D01*
X117363Y139005D01*
X117328Y139082D01*
X117290Y139127D01*
X117261Y139177D01*
X117199Y139235D01*
X117145Y139299D01*
X117096Y139331D01*
X117053Y139371D01*
X116978Y139410D01*
X116908Y139457D01*
X116852Y139474D01*
X116800Y139501D01*
X116732Y139512D01*
X116637Y139542D01*
X116537Y139545D01*
X116469Y139556D01*
X114824Y139556D01*
X114738Y139544D01*
X114650Y139541D01*
X114598Y139524D01*
X114543Y139516D01*
X114463Y139481D01*
X114380Y139454D01*
X114341Y139426D01*
X114283Y139400D01*
X114170Y139304D01*
X114106Y139259D01*
X93262Y118415D01*
X93210Y118345D01*
X93150Y118281D01*
X93124Y118231D01*
X93091Y118187D01*
X93060Y118106D01*
X93020Y118028D01*
X93012Y117980D01*
X92990Y117922D01*
X92978Y117774D01*
X92965Y117697D01*
X92965Y108848D01*
X92969Y108819D01*
X92966Y108790D01*
X92989Y108679D01*
X93005Y108567D01*
X93017Y108540D01*
X93022Y108511D01*
X93075Y108410D01*
X93121Y108307D01*
X93140Y108285D01*
X93153Y108259D01*
X93231Y108177D01*
X93304Y108090D01*
X93329Y108074D01*
X93349Y108053D01*
X93447Y107995D01*
X93541Y107933D01*
X93569Y107924D01*
X93594Y107909D01*
X93704Y107881D01*
X93812Y107847D01*
X93842Y107846D01*
X93870Y107839D01*
X93983Y107843D01*
X94096Y107840D01*
X94125Y107847D01*
X94154Y107848D01*
X94262Y107883D01*
X94371Y107911D01*
X94397Y107926D01*
X94425Y107935D01*
X94489Y107981D01*
X94616Y108057D01*
X94659Y108102D01*
X94698Y108130D01*
X95255Y108687D01*
X96232Y109340D01*
X97319Y109790D01*
X98045Y109935D01*
X98045Y105065D01*
X94557Y105065D01*
X94504Y105058D01*
X94451Y105060D01*
X94364Y105038D01*
X94276Y105026D01*
X94227Y105004D01*
X94175Y104991D01*
X94098Y104946D01*
X94016Y104909D01*
X93975Y104875D01*
X93929Y104848D01*
X93867Y104783D01*
X93799Y104726D01*
X93770Y104681D01*
X93733Y104642D01*
X93691Y104563D01*
X93642Y104489D01*
X93625Y104438D01*
X93601Y104391D01*
X93583Y104303D01*
X93556Y104218D01*
X93554Y104164D01*
X93544Y104112D01*
X93551Y104023D01*
X93549Y103934D01*
X93562Y103882D01*
X93566Y103829D01*
X93598Y103745D01*
X93620Y103659D01*
X93648Y103613D01*
X93667Y103563D01*
X93711Y103506D01*
X93766Y103414D01*
X93833Y103351D01*
X93874Y103299D01*
X93875Y103299D01*
X93927Y103263D01*
X93973Y103220D01*
X93973Y103219D01*
X94044Y103183D01*
X94110Y103139D01*
X94170Y103119D01*
X94226Y103090D01*
X94291Y103079D01*
X94380Y103050D01*
X94487Y103046D01*
X94557Y103035D01*
X99060Y103035D01*
X99118Y103043D01*
G37*
%LPC*%
G36*
X292084Y216991D02*
X292084Y216991D01*
X292056Y216990D01*
X292034Y216996D01*
X291335Y217057D01*
X291194Y217050D01*
X291053Y217043D01*
X291052Y217042D01*
X291051Y217042D01*
X291031Y217035D01*
X290846Y217085D01*
X290741Y217097D01*
X290672Y217115D01*
X290480Y217132D01*
X290252Y217242D01*
X290225Y217247D01*
X290204Y217257D01*
X289526Y217438D01*
X289384Y217456D01*
X289246Y217473D01*
X289245Y217473D01*
X289244Y217473D01*
X289223Y217469D01*
X289050Y217550D01*
X288949Y217581D01*
X288884Y217610D01*
X288697Y217660D01*
X288492Y217809D01*
X288466Y217818D01*
X288447Y217831D01*
X287811Y218128D01*
X287681Y218167D01*
X287541Y218210D01*
X287540Y218210D01*
X287539Y218210D01*
X287518Y218211D01*
X287362Y218320D01*
X287268Y218368D01*
X287208Y218409D01*
X287033Y218490D01*
X286857Y218672D01*
X286833Y218686D01*
X286817Y218702D01*
X286242Y219104D01*
X286116Y219168D01*
X285991Y219232D01*
X285990Y219232D01*
X285988Y219233D01*
X285968Y219237D01*
X285833Y219372D01*
X285748Y219436D01*
X285697Y219486D01*
X285539Y219596D01*
X285397Y219806D01*
X285376Y219824D01*
X285363Y219842D01*
X284868Y220337D01*
X284866Y220339D01*
X284760Y220418D01*
X284641Y220508D01*
X284640Y220509D01*
X284639Y220509D01*
X284619Y220517D01*
X284510Y220673D01*
X284437Y220751D01*
X284396Y220809D01*
X284259Y220945D01*
X284156Y221176D01*
X284138Y221197D01*
X284128Y221218D01*
X283726Y221793D01*
X283632Y221893D01*
X283533Y221999D01*
X283532Y222000D01*
X283532Y222001D01*
X283513Y222012D01*
X283433Y222184D01*
X283375Y222273D01*
X283344Y222338D01*
X283233Y222496D01*
X283172Y222741D01*
X283158Y222765D01*
X283152Y222787D01*
X282855Y223423D01*
X282781Y223537D01*
X282701Y223660D01*
X282701Y223661D01*
X282700Y223662D01*
X282684Y223676D01*
X282634Y223860D01*
X282593Y223957D01*
X282574Y224026D01*
X282492Y224201D01*
X282474Y224454D01*
X282464Y224480D01*
X282462Y224502D01*
X282281Y225178D01*
X282281Y225180D01*
X282231Y225298D01*
X282170Y225440D01*
X282170Y225441D01*
X282169Y225442D01*
X282156Y225458D01*
X282139Y225648D01*
X282115Y225751D01*
X282109Y225822D01*
X282059Y226009D01*
X282084Y226261D01*
X282079Y226288D01*
X282081Y226311D01*
X282020Y227010D01*
X281989Y227143D01*
X281957Y227285D01*
X281956Y227286D01*
X281956Y227287D01*
X281945Y227306D01*
X281962Y227495D01*
X281956Y227601D01*
X281962Y227673D01*
X281945Y227865D01*
X282015Y228108D01*
X282014Y228136D01*
X282020Y228158D01*
X282081Y228857D01*
X282074Y228995D01*
X282067Y229139D01*
X282066Y229140D01*
X282066Y229141D01*
X282059Y229161D01*
X282109Y229346D01*
X282121Y229451D01*
X282139Y229520D01*
X282156Y229712D01*
X282266Y229940D01*
X282271Y229967D01*
X282281Y229988D01*
X282462Y230666D01*
X282479Y230806D01*
X282497Y230946D01*
X282497Y230947D01*
X282497Y230948D01*
X282493Y230969D01*
X282574Y231142D01*
X282605Y231243D01*
X282634Y231308D01*
X282684Y231495D01*
X282833Y231700D01*
X282842Y231726D01*
X282855Y231745D01*
X283152Y232381D01*
X283191Y232511D01*
X283234Y232651D01*
X283234Y232652D01*
X283234Y232653D01*
X283235Y232674D01*
X283344Y232830D01*
X283392Y232924D01*
X283433Y232984D01*
X283514Y233159D01*
X283696Y233335D01*
X283710Y233359D01*
X283726Y233375D01*
X284128Y233950D01*
X284169Y234031D01*
X284212Y234095D01*
X284228Y234147D01*
X284256Y234201D01*
X284256Y234202D01*
X284257Y234204D01*
X284261Y234224D01*
X284396Y234359D01*
X284460Y234444D01*
X284510Y234495D01*
X284620Y234653D01*
X284644Y234669D01*
X284691Y234690D01*
X284755Y234744D01*
X284830Y234795D01*
X284848Y234816D01*
X284866Y234829D01*
X285361Y235324D01*
X285363Y235326D01*
X285442Y235432D01*
X285532Y235551D01*
X285533Y235552D01*
X285533Y235553D01*
X285541Y235573D01*
X285697Y235682D01*
X285775Y235755D01*
X285833Y235796D01*
X285969Y235933D01*
X286200Y236036D01*
X286221Y236054D01*
X286242Y236064D01*
X286817Y236466D01*
X286919Y236562D01*
X287023Y236659D01*
X287024Y236660D01*
X287025Y236660D01*
X287036Y236679D01*
X287208Y236759D01*
X287297Y236817D01*
X287362Y236848D01*
X287520Y236959D01*
X287765Y237020D01*
X287789Y237034D01*
X287811Y237040D01*
X288447Y237337D01*
X288563Y237412D01*
X288684Y237491D01*
X288685Y237491D01*
X288686Y237492D01*
X288700Y237508D01*
X288884Y237558D01*
X288981Y237599D01*
X289050Y237618D01*
X289225Y237700D01*
X289478Y237718D01*
X289504Y237728D01*
X289526Y237730D01*
X290202Y237911D01*
X290204Y237911D01*
X290331Y237965D01*
X290464Y238022D01*
X290465Y238022D01*
X290466Y238023D01*
X290482Y238036D01*
X290672Y238053D01*
X290775Y238077D01*
X290846Y238083D01*
X291033Y238133D01*
X291285Y238108D01*
X291312Y238113D01*
X291335Y238111D01*
X292032Y238172D01*
X292034Y238172D01*
X292168Y238203D01*
X292309Y238235D01*
X292310Y238236D01*
X292311Y238236D01*
X292330Y238247D01*
X292519Y238230D01*
X292625Y238236D01*
X292697Y238230D01*
X292889Y238247D01*
X293132Y238177D01*
X293160Y238178D01*
X293182Y238172D01*
X293881Y238111D01*
X294022Y238118D01*
X294163Y238125D01*
X294164Y238126D01*
X294165Y238126D01*
X294185Y238133D01*
X294370Y238083D01*
X294475Y238071D01*
X294544Y238053D01*
X294736Y238036D01*
X294964Y237926D01*
X294991Y237921D01*
X295012Y237911D01*
X295690Y237730D01*
X295832Y237712D01*
X295970Y237695D01*
X295971Y237695D01*
X295972Y237695D01*
X295993Y237699D01*
X296166Y237618D01*
X296267Y237587D01*
X296332Y237558D01*
X296519Y237508D01*
X296724Y237359D01*
X296750Y237350D01*
X296769Y237337D01*
X297405Y237040D01*
X297535Y237001D01*
X297675Y236958D01*
X297676Y236958D01*
X297677Y236958D01*
X297698Y236957D01*
X297854Y236848D01*
X297948Y236800D01*
X298008Y236759D01*
X298183Y236678D01*
X298359Y236496D01*
X298383Y236482D01*
X298399Y236466D01*
X298974Y236064D01*
X299101Y235999D01*
X299225Y235936D01*
X299226Y235936D01*
X299228Y235935D01*
X299248Y235931D01*
X299383Y235796D01*
X299468Y235732D01*
X299519Y235682D01*
X299677Y235572D01*
X299819Y235362D01*
X299840Y235344D01*
X299853Y235326D01*
X300348Y234831D01*
X300350Y234829D01*
X300420Y234777D01*
X300482Y234719D01*
X300528Y234695D01*
X300575Y234660D01*
X300576Y234659D01*
X300577Y234659D01*
X300597Y234651D01*
X300706Y234495D01*
X300779Y234417D01*
X300820Y234359D01*
X300957Y234223D01*
X300969Y234195D01*
X300983Y234143D01*
X301023Y234075D01*
X301060Y233992D01*
X301078Y233971D01*
X301088Y233950D01*
X301490Y233375D01*
X301588Y233271D01*
X301683Y233169D01*
X301684Y233168D01*
X301684Y233167D01*
X301703Y233156D01*
X301783Y232984D01*
X301841Y232895D01*
X301872Y232830D01*
X301983Y232672D01*
X302044Y232427D01*
X302058Y232403D01*
X302064Y232381D01*
X302361Y231745D01*
X302444Y231618D01*
X302515Y231508D01*
X302515Y231507D01*
X302516Y231506D01*
X302532Y231492D01*
X302582Y231308D01*
X302623Y231211D01*
X302642Y231142D01*
X302724Y230967D01*
X302742Y230714D01*
X302752Y230688D01*
X302754Y230666D01*
X302935Y229990D01*
X302935Y229988D01*
X302990Y229860D01*
X303046Y229728D01*
X303046Y229727D01*
X303047Y229726D01*
X303060Y229710D01*
X303077Y229520D01*
X303101Y229417D01*
X303107Y229346D01*
X303157Y229159D01*
X303132Y228907D01*
X303137Y228880D01*
X303135Y228857D01*
X303196Y228160D01*
X303196Y228158D01*
X303227Y228024D01*
X303259Y227883D01*
X303260Y227882D01*
X303260Y227881D01*
X303271Y227862D01*
X303254Y227672D01*
X303260Y227567D01*
X303254Y227495D01*
X303271Y227303D01*
X303201Y227059D01*
X303202Y227032D01*
X303196Y227010D01*
X303135Y226311D01*
X303143Y226161D01*
X303149Y226029D01*
X303150Y226028D01*
X303150Y226027D01*
X303157Y226007D01*
X303107Y225822D01*
X303095Y225717D01*
X303077Y225648D01*
X303060Y225456D01*
X302950Y225228D01*
X302945Y225201D01*
X302935Y225180D01*
X302754Y224502D01*
X302736Y224358D01*
X302719Y224222D01*
X302719Y224221D01*
X302719Y224220D01*
X302723Y224199D01*
X302642Y224026D01*
X302611Y223925D01*
X302582Y223860D01*
X302532Y223673D01*
X302383Y223468D01*
X302374Y223442D01*
X302361Y223423D01*
X302064Y222787D01*
X302024Y222655D01*
X301982Y222517D01*
X301982Y222516D01*
X301982Y222515D01*
X301981Y222494D01*
X301872Y222338D01*
X301824Y222244D01*
X301783Y222184D01*
X301702Y222009D01*
X301520Y221833D01*
X301506Y221809D01*
X301490Y221793D01*
X301088Y221218D01*
X301019Y221083D01*
X300960Y220967D01*
X300960Y220966D01*
X300959Y220964D01*
X300955Y220943D01*
X300820Y220809D01*
X300757Y220724D01*
X300706Y220673D01*
X300596Y220515D01*
X300386Y220373D01*
X300368Y220352D01*
X300350Y220339D01*
X299855Y219844D01*
X299853Y219842D01*
X299771Y219733D01*
X299684Y219617D01*
X299683Y219616D01*
X299683Y219615D01*
X299675Y219595D01*
X299519Y219486D01*
X299441Y219413D01*
X299383Y219372D01*
X299247Y219235D01*
X299016Y219132D01*
X298995Y219114D01*
X298974Y219104D01*
X298399Y218702D01*
X298295Y218604D01*
X298193Y218509D01*
X298192Y218508D01*
X298191Y218508D01*
X298180Y218489D01*
X298008Y218409D01*
X297919Y218351D01*
X297854Y218320D01*
X297696Y218209D01*
X297450Y218147D01*
X297427Y218134D01*
X297405Y218128D01*
X296771Y217832D01*
X296770Y217832D01*
X296769Y217831D01*
X296661Y217761D01*
X296532Y217677D01*
X296531Y217676D01*
X296530Y217676D01*
X296516Y217660D01*
X296332Y217610D01*
X296235Y217569D01*
X296166Y217550D01*
X295991Y217468D01*
X295738Y217450D01*
X295712Y217440D01*
X295690Y217438D01*
X295014Y217257D01*
X295012Y217257D01*
X294884Y217202D01*
X294752Y217146D01*
X294751Y217146D01*
X294750Y217145D01*
X294734Y217132D01*
X294544Y217115D01*
X294441Y217091D01*
X294370Y217085D01*
X294183Y217035D01*
X293931Y217060D01*
X293904Y217055D01*
X293881Y217057D01*
X293184Y216996D01*
X293182Y216996D01*
X293048Y216965D01*
X292907Y216933D01*
X292906Y216932D01*
X292905Y216932D01*
X292886Y216921D01*
X292697Y216938D01*
X292591Y216932D01*
X292519Y216938D01*
X292327Y216921D01*
X292084Y216991D01*
G37*
%LPD*%
G36*
X127116Y40193D02*
X127116Y40193D01*
X127174Y40195D01*
X127254Y40221D01*
X127337Y40238D01*
X127389Y40265D01*
X127445Y40283D01*
X127501Y40323D01*
X127589Y40369D01*
X127662Y40438D01*
X127718Y40478D01*
X129158Y41918D01*
X140389Y41918D01*
X140447Y41926D01*
X140505Y41924D01*
X140587Y41946D01*
X140671Y41958D01*
X140724Y41981D01*
X140780Y41996D01*
X140853Y42039D01*
X140930Y42074D01*
X140975Y42112D01*
X141025Y42141D01*
X141083Y42203D01*
X141101Y42219D01*
X147374Y42219D01*
X147432Y42227D01*
X147490Y42225D01*
X147572Y42247D01*
X147655Y42258D01*
X147709Y42282D01*
X147765Y42297D01*
X147838Y42340D01*
X147915Y42375D01*
X147959Y42412D01*
X148009Y42442D01*
X148010Y42443D01*
X148067Y42504D01*
X148132Y42558D01*
X148132Y42559D01*
X148164Y42607D01*
X148204Y42650D01*
X148243Y42725D01*
X148290Y42795D01*
X148307Y42851D01*
X148334Y42903D01*
X148345Y42971D01*
X148375Y43066D01*
X148378Y43166D01*
X148389Y43234D01*
X148389Y49213D01*
X148415Y49220D01*
X148539Y49248D01*
X148552Y49256D01*
X148567Y49260D01*
X148676Y49324D01*
X148787Y49386D01*
X148798Y49397D01*
X148812Y49405D01*
X148898Y49497D01*
X148988Y49587D01*
X148996Y49601D01*
X149006Y49612D01*
X149064Y49725D01*
X149125Y49836D01*
X149129Y49851D01*
X149136Y49865D01*
X149147Y49933D01*
X149188Y50113D01*
X149185Y50160D01*
X149191Y50196D01*
X149191Y53849D01*
X153583Y53849D01*
X153697Y53865D01*
X153811Y53875D01*
X153837Y53885D01*
X153865Y53889D01*
X153970Y53936D01*
X154077Y53977D01*
X154099Y53994D01*
X154124Y54005D01*
X154212Y54079D01*
X154303Y54148D01*
X154320Y54171D01*
X154341Y54189D01*
X154405Y54284D01*
X154474Y54376D01*
X154483Y54402D01*
X154499Y54425D01*
X154533Y54535D01*
X154574Y54642D01*
X154576Y54670D01*
X154585Y54696D01*
X154588Y54811D01*
X154597Y54925D01*
X154591Y54950D01*
X154592Y54980D01*
X154525Y55237D01*
X154521Y55253D01*
X153680Y57284D01*
X153679Y57286D01*
X153678Y57287D01*
X153609Y57404D01*
X153535Y57529D01*
X153534Y57530D01*
X153533Y57532D01*
X153434Y57625D01*
X153328Y57724D01*
X153327Y57725D01*
X153326Y57726D01*
X153204Y57788D01*
X153076Y57855D01*
X153074Y57855D01*
X153073Y57856D01*
X153058Y57858D01*
X152797Y57910D01*
X152766Y57907D01*
X152742Y57911D01*
X148176Y57911D01*
X148118Y57903D01*
X148060Y57904D01*
X147978Y57883D01*
X147895Y57871D01*
X147841Y57847D01*
X147785Y57833D01*
X147712Y57790D01*
X147635Y57755D01*
X147591Y57717D01*
X147540Y57687D01*
X147483Y57626D01*
X147418Y57571D01*
X147386Y57523D01*
X147346Y57480D01*
X147307Y57405D01*
X147261Y57335D01*
X147243Y57279D01*
X147216Y57227D01*
X147205Y57159D01*
X147175Y57064D01*
X147172Y56964D01*
X147161Y56896D01*
X147161Y55879D01*
X147159Y55879D01*
X147159Y56896D01*
X147152Y56949D01*
X147152Y56982D01*
X147152Y56984D01*
X147152Y57012D01*
X147131Y57094D01*
X147119Y57177D01*
X147095Y57231D01*
X147081Y57287D01*
X147038Y57360D01*
X147003Y57437D01*
X146965Y57481D01*
X146935Y57532D01*
X146874Y57589D01*
X146819Y57654D01*
X146771Y57686D01*
X146728Y57726D01*
X146653Y57765D01*
X146583Y57811D01*
X146527Y57829D01*
X146475Y57856D01*
X146407Y57867D01*
X146312Y57897D01*
X146212Y57900D01*
X146144Y57911D01*
X138119Y57911D01*
X138119Y64214D01*
X138292Y64861D01*
X138627Y65440D01*
X138636Y65449D01*
X138654Y65473D01*
X138676Y65492D01*
X138739Y65586D01*
X138807Y65676D01*
X138817Y65704D01*
X138834Y65728D01*
X138868Y65836D01*
X138908Y65942D01*
X138911Y65971D01*
X138919Y65999D01*
X138922Y66112D01*
X138932Y66225D01*
X138926Y66254D01*
X138927Y66283D01*
X138898Y66393D01*
X138876Y66504D01*
X138862Y66530D01*
X138855Y66558D01*
X138797Y66656D01*
X138745Y66756D01*
X138725Y66778D01*
X138710Y66803D01*
X138627Y66880D01*
X138549Y66962D01*
X138524Y66977D01*
X138502Y66997D01*
X138401Y67049D01*
X138304Y67106D01*
X138275Y67113D01*
X138249Y67127D01*
X138172Y67140D01*
X138028Y67176D01*
X137966Y67174D01*
X137918Y67182D01*
X135683Y67182D01*
X135654Y67178D01*
X135625Y67181D01*
X135514Y67158D01*
X135402Y67142D01*
X135375Y67130D01*
X135346Y67125D01*
X135246Y67072D01*
X135143Y67026D01*
X135120Y67007D01*
X135094Y66994D01*
X135012Y66916D01*
X134926Y66843D01*
X134909Y66818D01*
X134888Y66798D01*
X134831Y66700D01*
X134768Y66606D01*
X134759Y66578D01*
X134744Y66553D01*
X134716Y66443D01*
X134682Y66335D01*
X134681Y66305D01*
X134674Y66277D01*
X134678Y66164D01*
X134675Y66051D01*
X134682Y66022D01*
X134683Y65993D01*
X134718Y65885D01*
X134747Y65776D01*
X134762Y65750D01*
X134771Y65722D01*
X134816Y65658D01*
X134892Y65531D01*
X134938Y65488D01*
X134966Y65449D01*
X135693Y64722D01*
X135693Y47038D01*
X134502Y45847D01*
X120935Y45847D01*
X120906Y45843D01*
X120877Y45846D01*
X120766Y45823D01*
X120654Y45807D01*
X120627Y45795D01*
X120598Y45790D01*
X120498Y45737D01*
X120394Y45691D01*
X120372Y45672D01*
X120346Y45659D01*
X120264Y45581D01*
X120177Y45508D01*
X120161Y45483D01*
X120140Y45463D01*
X120083Y45365D01*
X120020Y45271D01*
X120011Y45243D01*
X119996Y45218D01*
X119968Y45108D01*
X119934Y45000D01*
X119933Y44970D01*
X119926Y44942D01*
X119930Y44829D01*
X119927Y44716D01*
X119934Y44687D01*
X119935Y44658D01*
X119970Y44550D01*
X119999Y44441D01*
X120013Y44415D01*
X120023Y44387D01*
X120068Y44323D01*
X120144Y44196D01*
X120189Y44153D01*
X120217Y44114D01*
X120549Y43783D01*
X120549Y42933D01*
X120557Y42875D01*
X120555Y42817D01*
X120577Y42735D01*
X120589Y42651D01*
X120612Y42598D01*
X120627Y42542D01*
X120670Y42469D01*
X120705Y42392D01*
X120743Y42347D01*
X120772Y42297D01*
X120834Y42239D01*
X120888Y42175D01*
X120937Y42143D01*
X120980Y42103D01*
X121055Y42064D01*
X121125Y42017D01*
X121181Y42000D01*
X121233Y41973D01*
X121301Y41962D01*
X121396Y41932D01*
X121496Y41929D01*
X121564Y41918D01*
X124842Y41918D01*
X126282Y40478D01*
X126329Y40442D01*
X126369Y40400D01*
X126442Y40357D01*
X126509Y40307D01*
X126564Y40286D01*
X126614Y40256D01*
X126696Y40236D01*
X126775Y40205D01*
X126833Y40201D01*
X126890Y40186D01*
X126974Y40189D01*
X127058Y40182D01*
X127116Y40193D01*
G37*
G36*
X234370Y14229D02*
X234370Y14229D01*
X234399Y14226D01*
X234511Y14249D01*
X234623Y14265D01*
X234649Y14277D01*
X234678Y14282D01*
X234779Y14335D01*
X234882Y14381D01*
X234904Y14400D01*
X234931Y14413D01*
X235013Y14491D01*
X235099Y14565D01*
X235115Y14589D01*
X235137Y14609D01*
X235194Y14707D01*
X235257Y14801D01*
X235266Y14829D01*
X235280Y14854D01*
X235308Y14964D01*
X235342Y15072D01*
X235343Y15102D01*
X235350Y15130D01*
X235347Y15243D01*
X235350Y15356D01*
X235342Y15385D01*
X235341Y15414D01*
X235307Y15522D01*
X235278Y15631D01*
X235263Y15657D01*
X235254Y15685D01*
X235208Y15749D01*
X235133Y15876D01*
X235087Y15919D01*
X235059Y15958D01*
X233937Y17080D01*
X233044Y18309D01*
X232354Y19663D01*
X231885Y21108D01*
X231647Y22608D01*
X231647Y28449D01*
X240284Y28449D01*
X240342Y28457D01*
X240400Y28455D01*
X240482Y28477D01*
X240565Y28489D01*
X240619Y28513D01*
X240675Y28527D01*
X240748Y28570D01*
X240825Y28605D01*
X240869Y28643D01*
X240920Y28673D01*
X240977Y28734D01*
X241042Y28789D01*
X241074Y28837D01*
X241114Y28880D01*
X241153Y28955D01*
X241199Y29025D01*
X241217Y29081D01*
X241244Y29133D01*
X241255Y29201D01*
X241285Y29296D01*
X241288Y29396D01*
X241299Y29464D01*
X241299Y31496D01*
X241291Y31552D01*
X241292Y31600D01*
X241292Y31601D01*
X241292Y31612D01*
X241271Y31694D01*
X241259Y31777D01*
X241235Y31831D01*
X241221Y31887D01*
X241178Y31960D01*
X241143Y32037D01*
X241105Y32082D01*
X241075Y32132D01*
X241014Y32190D01*
X240959Y32254D01*
X240911Y32286D01*
X240868Y32326D01*
X240793Y32365D01*
X240723Y32411D01*
X240667Y32429D01*
X240615Y32456D01*
X240547Y32467D01*
X240452Y32497D01*
X240352Y32500D01*
X240284Y32511D01*
X231647Y32511D01*
X231647Y38352D01*
X231885Y39852D01*
X232354Y41297D01*
X232433Y41452D01*
X232456Y41517D01*
X232487Y41578D01*
X232501Y41651D01*
X232525Y41720D01*
X232529Y41790D01*
X232542Y41857D01*
X232536Y41931D01*
X232540Y42004D01*
X232524Y42072D01*
X232518Y42141D01*
X232491Y42209D01*
X232474Y42281D01*
X232441Y42341D01*
X232416Y42406D01*
X232371Y42465D01*
X232335Y42529D01*
X232286Y42577D01*
X232244Y42633D01*
X232185Y42677D01*
X232133Y42728D01*
X232072Y42761D01*
X232016Y42803D01*
X231948Y42829D01*
X231883Y42864D01*
X231815Y42879D01*
X231750Y42903D01*
X231677Y42909D01*
X231605Y42925D01*
X231536Y42920D01*
X231467Y42926D01*
X231406Y42912D01*
X231321Y42906D01*
X231213Y42867D01*
X231140Y42850D01*
X230341Y42520D01*
X229615Y42375D01*
X229615Y47245D01*
X234485Y47245D01*
X234369Y46664D01*
X234367Y46615D01*
X234355Y46567D01*
X234359Y46474D01*
X234353Y46381D01*
X234364Y46332D01*
X234366Y46283D01*
X234396Y46195D01*
X234417Y46103D01*
X234441Y46060D01*
X234456Y46014D01*
X234509Y45937D01*
X234555Y45855D01*
X234590Y45820D01*
X234618Y45779D01*
X234690Y45720D01*
X234756Y45654D01*
X234799Y45630D01*
X234837Y45599D01*
X234923Y45562D01*
X235005Y45517D01*
X235053Y45506D01*
X235098Y45487D01*
X235191Y45475D01*
X235282Y45454D01*
X235332Y45457D01*
X235381Y45451D01*
X235473Y45466D01*
X235566Y45471D01*
X235613Y45488D01*
X235661Y45495D01*
X235727Y45528D01*
X235834Y45566D01*
X235905Y45617D01*
X235962Y45645D01*
X236241Y45848D01*
X237595Y46538D01*
X239040Y47007D01*
X239577Y47092D01*
X239665Y47119D01*
X239755Y47137D01*
X239800Y47161D01*
X239849Y47176D01*
X239926Y47226D01*
X240008Y47268D01*
X240044Y47303D01*
X240087Y47331D01*
X240147Y47401D01*
X240214Y47464D01*
X240239Y47508D01*
X240272Y47546D01*
X240311Y47630D01*
X240357Y47709D01*
X240370Y47758D01*
X240391Y47805D01*
X240405Y47896D01*
X240427Y47985D01*
X240426Y48035D01*
X240433Y48086D01*
X240421Y48177D01*
X240418Y48269D01*
X240403Y48317D01*
X240396Y48368D01*
X240359Y48452D01*
X240331Y48539D01*
X240305Y48576D01*
X240282Y48628D01*
X240181Y48750D01*
X240136Y48813D01*
X237558Y51391D01*
X237488Y51443D01*
X237424Y51503D01*
X237375Y51529D01*
X237331Y51562D01*
X237249Y51593D01*
X237171Y51633D01*
X237124Y51641D01*
X237065Y51663D01*
X236917Y51675D01*
X236840Y51688D01*
X235161Y51688D01*
X235047Y51672D01*
X234933Y51662D01*
X234907Y51652D01*
X234879Y51648D01*
X234775Y51602D01*
X234668Y51560D01*
X234645Y51544D01*
X234620Y51532D01*
X234532Y51458D01*
X234441Y51389D01*
X234424Y51366D01*
X234403Y51349D01*
X234339Y51253D01*
X234271Y51161D01*
X234261Y51135D01*
X234245Y51112D01*
X234211Y51002D01*
X234170Y50895D01*
X234168Y50867D01*
X234160Y50841D01*
X234157Y50726D01*
X234148Y50612D01*
X234153Y50587D01*
X234152Y50557D01*
X234219Y50300D01*
X234223Y50284D01*
X234340Y50001D01*
X234485Y49275D01*
X228600Y49275D01*
X228542Y49267D01*
X228484Y49269D01*
X228402Y49247D01*
X228319Y49236D01*
X228265Y49212D01*
X228209Y49197D01*
X228136Y49154D01*
X228059Y49119D01*
X228015Y49082D01*
X227965Y49052D01*
X227964Y49051D01*
X227906Y48990D01*
X227842Y48936D01*
X227842Y48935D01*
X227810Y48887D01*
X227769Y48844D01*
X227731Y48769D01*
X227684Y48699D01*
X227667Y48643D01*
X227640Y48591D01*
X227629Y48523D01*
X227599Y48428D01*
X227596Y48328D01*
X227585Y48260D01*
X227585Y42375D01*
X226859Y42520D01*
X225772Y42970D01*
X225511Y43144D01*
X225396Y43200D01*
X225281Y43259D01*
X225267Y43262D01*
X225255Y43268D01*
X225128Y43289D01*
X225002Y43314D01*
X224988Y43313D01*
X224975Y43315D01*
X224846Y43300D01*
X224719Y43289D01*
X224706Y43284D01*
X224692Y43283D01*
X224573Y43234D01*
X224453Y43187D01*
X224442Y43179D01*
X224430Y43174D01*
X224329Y43093D01*
X224227Y43016D01*
X224219Y43005D01*
X224208Y42996D01*
X224133Y42891D01*
X224057Y42788D01*
X224052Y42775D01*
X224044Y42764D01*
X224002Y42643D01*
X223956Y42522D01*
X223955Y42508D01*
X223951Y42495D01*
X223944Y42367D01*
X223934Y42239D01*
X223936Y42226D01*
X223936Y42211D01*
X224000Y41934D01*
X224006Y41923D01*
X224009Y41912D01*
X225045Y39411D01*
X225045Y21549D01*
X223653Y18188D01*
X221423Y15958D01*
X221405Y15934D01*
X221382Y15916D01*
X221320Y15821D01*
X221252Y15731D01*
X221241Y15703D01*
X221225Y15679D01*
X221191Y15571D01*
X221150Y15465D01*
X221148Y15436D01*
X221139Y15408D01*
X221136Y15294D01*
X221127Y15182D01*
X221133Y15153D01*
X221132Y15124D01*
X221160Y15014D01*
X221183Y14903D01*
X221196Y14877D01*
X221204Y14849D01*
X221261Y14751D01*
X221314Y14651D01*
X221334Y14629D01*
X221349Y14604D01*
X221431Y14527D01*
X221509Y14445D01*
X221535Y14430D01*
X221556Y14410D01*
X221657Y14358D01*
X221755Y14301D01*
X221783Y14294D01*
X221809Y14280D01*
X221887Y14267D01*
X222030Y14231D01*
X222093Y14233D01*
X222140Y14225D01*
X234341Y14225D01*
X234370Y14229D01*
G37*
G36*
X182257Y16261D02*
X182257Y16261D01*
X182286Y16258D01*
X182397Y16281D01*
X182509Y16297D01*
X182536Y16309D01*
X182565Y16314D01*
X182665Y16366D01*
X182769Y16413D01*
X182791Y16432D01*
X182817Y16445D01*
X182899Y16523D01*
X182986Y16596D01*
X183002Y16621D01*
X183023Y16641D01*
X183080Y16739D01*
X183143Y16833D01*
X183152Y16861D01*
X183167Y16886D01*
X183195Y16996D01*
X183229Y17104D01*
X183230Y17133D01*
X183237Y17162D01*
X183233Y17275D01*
X183236Y17388D01*
X183229Y17417D01*
X183228Y17446D01*
X183193Y17554D01*
X183164Y17663D01*
X183149Y17689D01*
X183140Y17717D01*
X183095Y17780D01*
X183019Y17908D01*
X182974Y17951D01*
X182945Y17990D01*
X182747Y18188D01*
X181355Y21549D01*
X181355Y39411D01*
X182747Y42772D01*
X184614Y44638D01*
X184666Y44708D01*
X184726Y44772D01*
X184752Y44821D01*
X184785Y44866D01*
X184816Y44947D01*
X184856Y45025D01*
X184864Y45073D01*
X184886Y45131D01*
X184898Y45279D01*
X184911Y45356D01*
X184911Y45704D01*
X184903Y45761D01*
X184905Y45814D01*
X184897Y45841D01*
X184896Y45878D01*
X184879Y45931D01*
X184871Y45986D01*
X184843Y46048D01*
X184833Y46089D01*
X184823Y46106D01*
X184809Y46149D01*
X184781Y46188D01*
X184755Y46245D01*
X184704Y46305D01*
X184688Y46333D01*
X184656Y46363D01*
X184614Y46422D01*
X183330Y47706D01*
X182823Y48930D01*
X182808Y48955D01*
X182799Y48983D01*
X182736Y49078D01*
X182678Y49175D01*
X182657Y49195D01*
X182641Y49219D01*
X182554Y49292D01*
X182472Y49370D01*
X182446Y49383D01*
X182423Y49402D01*
X182320Y49448D01*
X182219Y49500D01*
X182190Y49506D01*
X182163Y49518D01*
X182051Y49533D01*
X181940Y49555D01*
X181911Y49553D01*
X181882Y49557D01*
X181769Y49540D01*
X181657Y49531D01*
X181629Y49520D01*
X181600Y49516D01*
X181497Y49469D01*
X181391Y49429D01*
X181368Y49411D01*
X181341Y49399D01*
X181255Y49326D01*
X181165Y49257D01*
X181147Y49233D01*
X181125Y49215D01*
X181084Y49148D01*
X180995Y49029D01*
X180972Y48971D01*
X180947Y48930D01*
X180550Y47972D01*
X179897Y46994D01*
X179066Y46163D01*
X178088Y45510D01*
X177001Y45060D01*
X176275Y44915D01*
X176275Y50800D01*
X176268Y50854D01*
X176269Y50890D01*
X176268Y50892D01*
X176269Y50916D01*
X176247Y50998D01*
X176236Y51081D01*
X176212Y51134D01*
X176197Y51191D01*
X176154Y51264D01*
X176119Y51341D01*
X176082Y51385D01*
X176052Y51435D01*
X175990Y51493D01*
X175936Y51558D01*
X175887Y51590D01*
X175844Y51630D01*
X175769Y51668D01*
X175699Y51715D01*
X175643Y51733D01*
X175591Y51759D01*
X175523Y51771D01*
X175428Y51801D01*
X175328Y51804D01*
X175260Y51815D01*
X175202Y51807D01*
X175144Y51808D01*
X175143Y51808D01*
X175062Y51787D01*
X174978Y51775D01*
X174925Y51751D01*
X174868Y51736D01*
X174796Y51693D01*
X174719Y51659D01*
X174674Y51621D01*
X174624Y51591D01*
X174566Y51530D01*
X174502Y51475D01*
X174470Y51427D01*
X174429Y51384D01*
X174391Y51309D01*
X174344Y51239D01*
X174327Y51183D01*
X174300Y51131D01*
X174289Y51063D01*
X174259Y50968D01*
X174256Y50868D01*
X174245Y50800D01*
X174245Y44915D01*
X173519Y45060D01*
X173192Y45195D01*
X173109Y45217D01*
X173028Y45247D01*
X172972Y45252D01*
X172916Y45266D01*
X172831Y45264D01*
X172745Y45271D01*
X172689Y45260D01*
X172632Y45258D01*
X172550Y45232D01*
X172466Y45215D01*
X172416Y45189D01*
X172362Y45171D01*
X172290Y45123D01*
X172214Y45084D01*
X172173Y45045D01*
X172125Y45013D01*
X172070Y44947D01*
X172008Y44888D01*
X171979Y44839D01*
X171942Y44795D01*
X171907Y44717D01*
X171864Y44643D01*
X171850Y44588D01*
X171827Y44536D01*
X171815Y44450D01*
X171794Y44367D01*
X171796Y44311D01*
X171788Y44254D01*
X171800Y44169D01*
X171803Y44083D01*
X171820Y44029D01*
X171829Y43973D01*
X171864Y43894D01*
X171890Y43813D01*
X171919Y43772D01*
X171946Y43714D01*
X172040Y43603D01*
X172085Y43539D01*
X172853Y42772D01*
X174245Y39411D01*
X174245Y21549D01*
X172853Y18188D01*
X172655Y17990D01*
X172637Y17966D01*
X172614Y17947D01*
X172552Y17853D01*
X172484Y17763D01*
X172473Y17735D01*
X172457Y17711D01*
X172423Y17603D01*
X172382Y17497D01*
X172380Y17468D01*
X172371Y17440D01*
X172368Y17327D01*
X172359Y17214D01*
X172365Y17185D01*
X172364Y17156D01*
X172392Y17046D01*
X172415Y16935D01*
X172428Y16909D01*
X172436Y16881D01*
X172493Y16783D01*
X172546Y16683D01*
X172566Y16661D01*
X172581Y16636D01*
X172663Y16559D01*
X172741Y16477D01*
X172767Y16462D01*
X172788Y16442D01*
X172889Y16390D01*
X172987Y16333D01*
X173015Y16326D01*
X173041Y16312D01*
X173119Y16299D01*
X173262Y16263D01*
X173325Y16265D01*
X173372Y16257D01*
X182228Y16257D01*
X182257Y16261D01*
G37*
G36*
X200746Y35431D02*
X200746Y35431D01*
X200776Y35430D01*
X201033Y35497D01*
X201049Y35501D01*
X202114Y35942D01*
X204286Y35942D01*
X205351Y35501D01*
X205463Y35472D01*
X205572Y35437D01*
X205600Y35437D01*
X205627Y35430D01*
X205741Y35433D01*
X205856Y35430D01*
X205883Y35437D01*
X205911Y35438D01*
X206020Y35473D01*
X206131Y35502D01*
X206155Y35516D01*
X206182Y35524D01*
X206277Y35588D01*
X206376Y35647D01*
X206395Y35667D01*
X206418Y35683D01*
X206492Y35770D01*
X206570Y35854D01*
X206583Y35879D01*
X206601Y35900D01*
X206647Y36005D01*
X206700Y36107D01*
X206704Y36132D01*
X206716Y36160D01*
X206753Y36424D01*
X206755Y36439D01*
X206755Y39411D01*
X208147Y42772D01*
X210720Y45345D01*
X214257Y46809D01*
X214258Y46810D01*
X214259Y46811D01*
X214343Y46860D01*
X214362Y46869D01*
X214373Y46878D01*
X214377Y46881D01*
X214501Y46954D01*
X214502Y46955D01*
X214504Y46956D01*
X214598Y47056D01*
X214697Y47161D01*
X214697Y47162D01*
X214698Y47163D01*
X214760Y47285D01*
X214827Y47413D01*
X214827Y47415D01*
X214828Y47416D01*
X214830Y47431D01*
X214882Y47692D01*
X214879Y47723D01*
X214883Y47747D01*
X214883Y51446D01*
X214871Y51533D01*
X214868Y51620D01*
X214851Y51673D01*
X214843Y51728D01*
X214808Y51808D01*
X214781Y51891D01*
X214753Y51930D01*
X214727Y51987D01*
X214631Y52100D01*
X214586Y52164D01*
X212445Y54305D01*
X212375Y54357D01*
X212311Y54417D01*
X212262Y54443D01*
X212218Y54476D01*
X212136Y54507D01*
X212058Y54547D01*
X212011Y54555D01*
X211952Y54577D01*
X211805Y54589D01*
X211727Y54602D01*
X204526Y54602D01*
X204412Y54586D01*
X204298Y54576D01*
X204272Y54566D01*
X204245Y54562D01*
X204140Y54515D01*
X204033Y54474D01*
X204010Y54458D01*
X203985Y54446D01*
X203898Y54372D01*
X203806Y54303D01*
X203789Y54280D01*
X203768Y54263D01*
X203705Y54167D01*
X203636Y54075D01*
X203626Y54049D01*
X203611Y54026D01*
X203576Y53916D01*
X203535Y53809D01*
X203533Y53781D01*
X203525Y53755D01*
X203522Y53640D01*
X203513Y53526D01*
X203518Y53501D01*
X203517Y53471D01*
X203585Y53214D01*
X203588Y53198D01*
X203860Y52541D01*
X204005Y51815D01*
X198120Y51815D01*
X198062Y51807D01*
X198004Y51809D01*
X197922Y51787D01*
X197839Y51776D01*
X197785Y51752D01*
X197729Y51737D01*
X197656Y51694D01*
X197579Y51659D01*
X197535Y51622D01*
X197485Y51592D01*
X197427Y51530D01*
X197362Y51476D01*
X197330Y51427D01*
X197290Y51384D01*
X197252Y51309D01*
X197205Y51239D01*
X197187Y51183D01*
X197161Y51131D01*
X197149Y51063D01*
X197119Y50968D01*
X197116Y50868D01*
X197105Y50800D01*
X197113Y50742D01*
X197112Y50684D01*
X197112Y50683D01*
X197133Y50602D01*
X197145Y50518D01*
X197169Y50465D01*
X197184Y50408D01*
X197227Y50336D01*
X197261Y50259D01*
X197299Y50214D01*
X197329Y50164D01*
X197390Y50106D01*
X197445Y50042D01*
X197493Y50010D01*
X197536Y49969D01*
X197611Y49931D01*
X197681Y49884D01*
X197737Y49867D01*
X197789Y49840D01*
X197857Y49829D01*
X197952Y49799D01*
X198052Y49796D01*
X198120Y49785D01*
X204005Y49785D01*
X203860Y49059D01*
X203410Y47972D01*
X202757Y46994D01*
X201926Y46163D01*
X200948Y45510D01*
X199861Y45060D01*
X198708Y44830D01*
X198645Y44830D01*
X198616Y44826D01*
X198587Y44829D01*
X198476Y44806D01*
X198364Y44790D01*
X198337Y44778D01*
X198308Y44773D01*
X198208Y44720D01*
X198104Y44674D01*
X198082Y44655D01*
X198056Y44642D01*
X197974Y44564D01*
X197887Y44491D01*
X197871Y44466D01*
X197850Y44446D01*
X197793Y44348D01*
X197730Y44254D01*
X197721Y44226D01*
X197706Y44201D01*
X197678Y44091D01*
X197644Y43983D01*
X197643Y43953D01*
X197636Y43925D01*
X197640Y43812D01*
X197637Y43699D01*
X197644Y43670D01*
X197645Y43641D01*
X197680Y43533D01*
X197709Y43424D01*
X197724Y43398D01*
X197733Y43370D01*
X197778Y43306D01*
X197854Y43179D01*
X197899Y43136D01*
X197927Y43097D01*
X198253Y42772D01*
X199645Y39411D01*
X199645Y36439D01*
X199661Y36325D01*
X199671Y36210D01*
X199681Y36184D01*
X199685Y36157D01*
X199732Y36052D01*
X199773Y35945D01*
X199789Y35923D01*
X199801Y35898D01*
X199875Y35810D01*
X199944Y35718D01*
X199967Y35702D01*
X199984Y35681D01*
X200080Y35617D01*
X200172Y35548D01*
X200198Y35538D01*
X200221Y35523D01*
X200331Y35488D01*
X200438Y35448D01*
X200466Y35446D01*
X200492Y35437D01*
X200607Y35434D01*
X200721Y35425D01*
X200746Y35431D01*
G37*
G36*
X14227Y216373D02*
X14227Y216373D01*
X14340Y216371D01*
X14369Y216378D01*
X14398Y216379D01*
X14506Y216414D01*
X14615Y216442D01*
X14641Y216457D01*
X14669Y216466D01*
X14732Y216512D01*
X14860Y216588D01*
X14903Y216633D01*
X14942Y216661D01*
X19210Y220929D01*
X21391Y223110D01*
X21426Y223157D01*
X21469Y223197D01*
X21511Y223270D01*
X21562Y223337D01*
X21583Y223392D01*
X21612Y223443D01*
X21633Y223524D01*
X21663Y223603D01*
X21668Y223661D01*
X21682Y223718D01*
X21680Y223803D01*
X21687Y223886D01*
X21675Y223944D01*
X21673Y224002D01*
X21647Y224083D01*
X21631Y224165D01*
X21604Y224217D01*
X21586Y224273D01*
X21546Y224329D01*
X21500Y224417D01*
X21431Y224490D01*
X21391Y224546D01*
X21085Y224852D01*
X20192Y226081D01*
X19502Y227435D01*
X19033Y228880D01*
X18997Y229109D01*
X34544Y229109D01*
X34602Y229117D01*
X34660Y229115D01*
X34742Y229137D01*
X34825Y229149D01*
X34879Y229173D01*
X34935Y229187D01*
X35008Y229230D01*
X35085Y229265D01*
X35129Y229303D01*
X35180Y229333D01*
X35237Y229394D01*
X35302Y229449D01*
X35334Y229497D01*
X35374Y229540D01*
X35413Y229615D01*
X35459Y229685D01*
X35477Y229741D01*
X35504Y229793D01*
X35515Y229861D01*
X35545Y229956D01*
X35548Y230056D01*
X35559Y230124D01*
X35559Y232156D01*
X35551Y232214D01*
X35552Y232272D01*
X35531Y232354D01*
X35519Y232437D01*
X35495Y232491D01*
X35481Y232547D01*
X35438Y232620D01*
X35403Y232697D01*
X35365Y232742D01*
X35335Y232792D01*
X35274Y232850D01*
X35219Y232914D01*
X35171Y232946D01*
X35128Y232986D01*
X35053Y233025D01*
X34983Y233071D01*
X34927Y233089D01*
X34875Y233116D01*
X34807Y233127D01*
X34712Y233157D01*
X34612Y233160D01*
X34544Y233171D01*
X18997Y233171D01*
X19033Y233400D01*
X19502Y234845D01*
X19868Y235563D01*
X19909Y235682D01*
X19954Y235799D01*
X19955Y235816D01*
X19961Y235832D01*
X19967Y235958D01*
X19977Y236082D01*
X19974Y236099D01*
X19975Y236116D01*
X19946Y236238D01*
X19921Y236361D01*
X19913Y236376D01*
X19910Y236393D01*
X19848Y236502D01*
X19790Y236613D01*
X19779Y236626D01*
X19770Y236641D01*
X19681Y236729D01*
X19595Y236820D01*
X19580Y236828D01*
X19568Y236840D01*
X19457Y236900D01*
X19349Y236963D01*
X19333Y236967D01*
X19318Y236976D01*
X19195Y237003D01*
X19074Y237033D01*
X19057Y237033D01*
X19040Y237037D01*
X18914Y237028D01*
X18790Y237024D01*
X18774Y237019D01*
X18757Y237018D01*
X18638Y236975D01*
X18519Y236937D01*
X18507Y236928D01*
X18489Y236922D01*
X18259Y236755D01*
X18253Y236747D01*
X18246Y236742D01*
X13506Y232002D01*
X13454Y231933D01*
X13394Y231869D01*
X13368Y231819D01*
X13335Y231775D01*
X13304Y231693D01*
X13264Y231616D01*
X13256Y231568D01*
X13234Y231510D01*
X13222Y231362D01*
X13209Y231284D01*
X13209Y217379D01*
X13213Y217350D01*
X13210Y217321D01*
X13233Y217210D01*
X13249Y217098D01*
X13261Y217071D01*
X13266Y217042D01*
X13318Y216942D01*
X13365Y216838D01*
X13384Y216816D01*
X13397Y216790D01*
X13475Y216708D01*
X13548Y216621D01*
X13573Y216605D01*
X13593Y216584D01*
X13691Y216526D01*
X13785Y216464D01*
X13813Y216455D01*
X13838Y216440D01*
X13948Y216412D01*
X14056Y216378D01*
X14086Y216377D01*
X14114Y216370D01*
X14227Y216373D01*
G37*
G36*
X199450Y76589D02*
X199450Y76589D01*
X199508Y76587D01*
X199590Y76609D01*
X199674Y76621D01*
X199727Y76644D01*
X199783Y76659D01*
X199856Y76702D01*
X199933Y76737D01*
X199978Y76775D01*
X200028Y76804D01*
X200086Y76866D01*
X200150Y76920D01*
X200182Y76969D01*
X200222Y77012D01*
X200261Y77087D01*
X200308Y77157D01*
X200325Y77213D01*
X200352Y77265D01*
X200363Y77333D01*
X200393Y77428D01*
X200396Y77528D01*
X200407Y77596D01*
X200407Y79661D01*
X208776Y88030D01*
X209803Y89057D01*
X209821Y89081D01*
X209843Y89100D01*
X209906Y89194D01*
X209974Y89284D01*
X209985Y89312D01*
X210001Y89336D01*
X210035Y89444D01*
X210076Y89550D01*
X210078Y89579D01*
X210087Y89607D01*
X210090Y89721D01*
X210099Y89833D01*
X210093Y89862D01*
X210094Y89892D01*
X210065Y90001D01*
X210043Y90112D01*
X210030Y90138D01*
X210022Y90167D01*
X209965Y90264D01*
X209912Y90365D01*
X209892Y90386D01*
X209877Y90411D01*
X209794Y90489D01*
X209716Y90571D01*
X209691Y90585D01*
X209670Y90606D01*
X209569Y90657D01*
X209471Y90714D01*
X209443Y90722D01*
X209417Y90735D01*
X209339Y90748D01*
X209196Y90784D01*
X209133Y90782D01*
X209086Y90790D01*
X208668Y90790D01*
X208582Y90778D01*
X208494Y90775D01*
X208442Y90758D01*
X208387Y90751D01*
X208307Y90715D01*
X208224Y90688D01*
X208185Y90660D01*
X208127Y90634D01*
X208014Y90538D01*
X207950Y90493D01*
X204961Y87503D01*
X183530Y87503D01*
X183501Y87499D01*
X183472Y87502D01*
X183360Y87479D01*
X183248Y87463D01*
X183222Y87451D01*
X183193Y87446D01*
X183092Y87393D01*
X182989Y87347D01*
X182967Y87328D01*
X182940Y87315D01*
X182858Y87237D01*
X182772Y87164D01*
X182756Y87139D01*
X182734Y87119D01*
X182677Y87021D01*
X182614Y86927D01*
X182605Y86899D01*
X182591Y86874D01*
X182563Y86764D01*
X182529Y86656D01*
X182528Y86626D01*
X182521Y86598D01*
X182524Y86485D01*
X182521Y86372D01*
X182529Y86343D01*
X182530Y86314D01*
X182564Y86206D01*
X182593Y86097D01*
X182608Y86071D01*
X182617Y86043D01*
X182663Y85979D01*
X182738Y85852D01*
X182784Y85809D01*
X182812Y85770D01*
X184208Y84374D01*
X184647Y83315D01*
X184705Y83216D01*
X184758Y83114D01*
X184777Y83094D01*
X184791Y83070D01*
X184875Y82991D01*
X184954Y82908D01*
X184978Y82894D01*
X184998Y82875D01*
X185100Y82822D01*
X185199Y82764D01*
X185226Y82757D01*
X185251Y82744D01*
X185363Y82722D01*
X185475Y82694D01*
X185503Y82695D01*
X185530Y82689D01*
X185644Y82699D01*
X185759Y82703D01*
X185785Y82712D01*
X185813Y82714D01*
X185920Y82755D01*
X186029Y82790D01*
X186050Y82805D01*
X186078Y82816D01*
X186290Y82976D01*
X186303Y82985D01*
X186695Y83377D01*
X187672Y84030D01*
X188759Y84480D01*
X189485Y84625D01*
X189485Y78740D01*
X189493Y78682D01*
X189491Y78624D01*
X189513Y78542D01*
X189524Y78459D01*
X189548Y78405D01*
X189563Y78349D01*
X189606Y78276D01*
X189641Y78199D01*
X189678Y78155D01*
X189708Y78105D01*
X189709Y78104D01*
X189770Y78047D01*
X189824Y77982D01*
X189825Y77982D01*
X189873Y77950D01*
X189916Y77909D01*
X189991Y77871D01*
X190061Y77824D01*
X190117Y77807D01*
X190169Y77780D01*
X190237Y77769D01*
X190332Y77739D01*
X190432Y77736D01*
X190500Y77725D01*
X196392Y77725D01*
X196390Y77637D01*
X196383Y77510D01*
X196386Y77495D01*
X196386Y77480D01*
X196418Y77357D01*
X196446Y77233D01*
X196454Y77219D01*
X196458Y77205D01*
X196522Y77096D01*
X196584Y76984D01*
X196595Y76973D01*
X196603Y76960D01*
X196695Y76873D01*
X196785Y76784D01*
X196799Y76776D01*
X196810Y76766D01*
X196923Y76708D01*
X197034Y76647D01*
X197049Y76643D01*
X197063Y76636D01*
X197131Y76625D01*
X197312Y76584D01*
X197358Y76587D01*
X197394Y76581D01*
X199392Y76581D01*
X199450Y76589D01*
G37*
%LPC*%
G36*
X198120Y145795D02*
X198120Y145795D01*
X192235Y145795D01*
X192380Y146521D01*
X192830Y147608D01*
X193483Y148586D01*
X194314Y149417D01*
X195292Y150070D01*
X196270Y150475D01*
X196384Y150543D01*
X196502Y150610D01*
X196508Y150616D01*
X196515Y150620D01*
X196606Y150717D01*
X196700Y150813D01*
X196704Y150820D01*
X196710Y150826D01*
X196771Y150945D01*
X196835Y151064D01*
X196836Y151072D01*
X196840Y151079D01*
X196866Y151210D01*
X196894Y151342D01*
X196893Y151349D01*
X196895Y151358D01*
X196871Y151641D01*
X196863Y151660D01*
X196862Y151676D01*
X196859Y151686D01*
X196859Y157989D01*
X203869Y157989D01*
X203869Y149455D01*
X203848Y149449D01*
X203778Y149439D01*
X203712Y149410D01*
X203642Y149390D01*
X203583Y149352D01*
X203518Y149323D01*
X203463Y149277D01*
X203402Y149238D01*
X203355Y149185D01*
X203301Y149140D01*
X203261Y149079D01*
X203213Y149025D01*
X203183Y148962D01*
X203144Y148903D01*
X203122Y148834D01*
X203091Y148769D01*
X203079Y148699D01*
X203058Y148632D01*
X203056Y148560D01*
X203044Y148488D01*
X203052Y148418D01*
X203051Y148348D01*
X203069Y148278D01*
X203077Y148206D01*
X203102Y148152D01*
X203122Y148073D01*
X203184Y147969D01*
X203215Y147900D01*
X203410Y147608D01*
X203860Y146521D01*
X204005Y145795D01*
X198120Y145795D01*
X198120Y145795D01*
G37*
%LPD*%
%LPC*%
G36*
X252475Y177800D02*
X252475Y177800D01*
X252475Y183685D01*
X253201Y183540D01*
X254288Y183090D01*
X254979Y182628D01*
X255071Y182584D01*
X255158Y182533D01*
X255198Y182523D01*
X255236Y182505D01*
X255335Y182488D01*
X255433Y182463D01*
X255475Y182464D01*
X255516Y182457D01*
X255617Y182469D01*
X255718Y182472D01*
X255757Y182485D01*
X255798Y182490D01*
X255892Y182528D01*
X255988Y182560D01*
X256018Y182581D01*
X256061Y182599D01*
X256205Y182714D01*
X256257Y182752D01*
X256839Y183088D01*
X257486Y183261D01*
X262289Y183261D01*
X262289Y174751D01*
X257145Y174751D01*
X257101Y174745D01*
X257056Y174747D01*
X256961Y174725D01*
X256864Y174711D01*
X256823Y174693D01*
X256779Y174683D01*
X256694Y174635D01*
X256604Y174595D01*
X256570Y174566D01*
X256531Y174544D01*
X256479Y174489D01*
X256387Y174411D01*
X256342Y174344D01*
X256301Y174300D01*
X256097Y173994D01*
X255266Y173163D01*
X254345Y172548D01*
X254250Y172463D01*
X254189Y172411D01*
X254178Y172409D01*
X254148Y172410D01*
X253891Y172342D01*
X253875Y172339D01*
X253201Y172060D01*
X252475Y171915D01*
X252475Y177800D01*
G37*
%LPD*%
G36*
X137035Y120786D02*
X137035Y120786D01*
X137093Y120784D01*
X137175Y120806D01*
X137259Y120818D01*
X137312Y120841D01*
X137368Y120856D01*
X137441Y120899D01*
X137518Y120934D01*
X137563Y120972D01*
X137613Y121001D01*
X137671Y121063D01*
X137735Y121117D01*
X137767Y121166D01*
X137807Y121209D01*
X137846Y121284D01*
X137893Y121354D01*
X137910Y121410D01*
X137937Y121462D01*
X137948Y121530D01*
X137978Y121625D01*
X137981Y121725D01*
X137992Y121793D01*
X137992Y138541D01*
X137984Y138599D01*
X137986Y138657D01*
X137964Y138739D01*
X137952Y138823D01*
X137929Y138876D01*
X137914Y138932D01*
X137871Y139005D01*
X137836Y139082D01*
X137798Y139127D01*
X137769Y139177D01*
X137707Y139235D01*
X137653Y139299D01*
X137604Y139331D01*
X137561Y139371D01*
X137486Y139410D01*
X137416Y139457D01*
X137360Y139474D01*
X137308Y139501D01*
X137240Y139512D01*
X137145Y139542D01*
X137045Y139545D01*
X136977Y139556D01*
X136581Y139556D01*
X136523Y139548D01*
X136465Y139550D01*
X136383Y139528D01*
X136299Y139516D01*
X136246Y139493D01*
X136190Y139478D01*
X136117Y139435D01*
X136040Y139400D01*
X135995Y139362D01*
X135945Y139333D01*
X135887Y139271D01*
X135823Y139217D01*
X135791Y139168D01*
X135751Y139125D01*
X135712Y139050D01*
X135665Y138980D01*
X135648Y138924D01*
X135621Y138872D01*
X135610Y138804D01*
X135580Y138709D01*
X135577Y138609D01*
X135566Y138541D01*
X135566Y132841D01*
X127541Y132841D01*
X127483Y132833D01*
X127425Y132834D01*
X127343Y132813D01*
X127260Y132801D01*
X127206Y132777D01*
X127150Y132763D01*
X127077Y132720D01*
X127000Y132685D01*
X126956Y132647D01*
X126905Y132617D01*
X126848Y132556D01*
X126783Y132501D01*
X126751Y132453D01*
X126711Y132410D01*
X126672Y132335D01*
X126626Y132265D01*
X126608Y132209D01*
X126581Y132157D01*
X126570Y132089D01*
X126540Y131994D01*
X126537Y131894D01*
X126526Y131826D01*
X126526Y129794D01*
X126534Y129736D01*
X126533Y129678D01*
X126554Y129596D01*
X126566Y129513D01*
X126590Y129459D01*
X126604Y129403D01*
X126647Y129330D01*
X126682Y129253D01*
X126720Y129208D01*
X126750Y129158D01*
X126811Y129100D01*
X126866Y129036D01*
X126914Y129004D01*
X126957Y128964D01*
X127032Y128925D01*
X127102Y128879D01*
X127158Y128861D01*
X127210Y128834D01*
X127278Y128823D01*
X127373Y128793D01*
X127473Y128790D01*
X127541Y128779D01*
X135566Y128779D01*
X135566Y122476D01*
X135453Y122056D01*
X135449Y122019D01*
X135446Y122009D01*
X135445Y122001D01*
X135433Y121961D01*
X135430Y121867D01*
X135419Y121774D01*
X135427Y121725D01*
X135425Y121677D01*
X135449Y121586D01*
X135464Y121493D01*
X135485Y121449D01*
X135497Y121402D01*
X135545Y121321D01*
X135585Y121236D01*
X135617Y121199D01*
X135642Y121157D01*
X135711Y121093D01*
X135773Y121022D01*
X135814Y120996D01*
X135850Y120963D01*
X135933Y120920D01*
X136013Y120869D01*
X136059Y120855D01*
X136103Y120833D01*
X136176Y120821D01*
X136285Y120789D01*
X136372Y120788D01*
X136434Y120778D01*
X136977Y120778D01*
X137035Y120786D01*
G37*
%LPC*%
G36*
X280796Y66166D02*
X280796Y66166D01*
X280796Y73280D01*
X286270Y73280D01*
X288036Y72928D01*
X289701Y72239D01*
X291199Y71238D01*
X292472Y69965D01*
X293473Y68467D01*
X294162Y66802D01*
X294289Y66166D01*
X280796Y66166D01*
G37*
%LPD*%
%LPC*%
G36*
X42671Y113791D02*
X42671Y113791D01*
X42671Y127284D01*
X43307Y127157D01*
X44972Y126468D01*
X46470Y125467D01*
X47743Y124194D01*
X48744Y122696D01*
X49433Y121031D01*
X49785Y119265D01*
X49785Y113791D01*
X42671Y113791D01*
G37*
%LPD*%
%LPC*%
G36*
X263241Y66166D02*
X263241Y66166D01*
X263368Y66802D01*
X264057Y68467D01*
X265058Y69965D01*
X266331Y71238D01*
X267829Y72239D01*
X269494Y72928D01*
X271260Y73280D01*
X276734Y73280D01*
X276734Y66166D01*
X263241Y66166D01*
G37*
%LPD*%
%LPC*%
G36*
X280796Y54990D02*
X280796Y54990D01*
X280796Y62104D01*
X294289Y62104D01*
X294162Y61468D01*
X293473Y59803D01*
X292472Y58305D01*
X291199Y57032D01*
X289701Y56031D01*
X288036Y55342D01*
X286270Y54990D01*
X280796Y54990D01*
G37*
%LPD*%
%LPC*%
G36*
X271260Y54990D02*
X271260Y54990D01*
X269494Y55342D01*
X267829Y56031D01*
X266331Y57032D01*
X265058Y58305D01*
X264057Y59803D01*
X263368Y61468D01*
X263241Y62104D01*
X276734Y62104D01*
X276734Y54990D01*
X271260Y54990D01*
G37*
%LPD*%
G36*
X192757Y54226D02*
X192757Y54226D01*
X192773Y54225D01*
X192896Y54254D01*
X193020Y54279D01*
X193035Y54286D01*
X193050Y54290D01*
X193160Y54351D01*
X193273Y54410D01*
X193284Y54420D01*
X193298Y54428D01*
X193346Y54479D01*
X193381Y54513D01*
X193412Y54535D01*
X194314Y55437D01*
X194460Y55534D01*
X194493Y55564D01*
X194532Y55587D01*
X194599Y55658D01*
X194672Y55724D01*
X194696Y55761D01*
X194726Y55794D01*
X194771Y55882D01*
X194823Y55964D01*
X194835Y56007D01*
X194856Y56047D01*
X194868Y56122D01*
X194901Y56238D01*
X194901Y56319D01*
X194911Y56378D01*
X194911Y65024D01*
X194904Y65076D01*
X194904Y65104D01*
X194904Y65107D01*
X194904Y65140D01*
X194883Y65222D01*
X194871Y65305D01*
X194847Y65359D01*
X194833Y65415D01*
X194790Y65488D01*
X194755Y65565D01*
X194717Y65609D01*
X194687Y65660D01*
X194626Y65717D01*
X194571Y65782D01*
X194523Y65814D01*
X194480Y65854D01*
X194405Y65893D01*
X194335Y65939D01*
X194279Y65957D01*
X194227Y65984D01*
X194159Y65995D01*
X194064Y66025D01*
X193964Y66028D01*
X193896Y66039D01*
X192879Y66039D01*
X192879Y67056D01*
X192872Y67108D01*
X192872Y67134D01*
X192872Y67138D01*
X192872Y67172D01*
X192851Y67254D01*
X192839Y67337D01*
X192815Y67391D01*
X192801Y67447D01*
X192758Y67520D01*
X192723Y67597D01*
X192685Y67641D01*
X192655Y67692D01*
X192594Y67749D01*
X192539Y67814D01*
X192491Y67846D01*
X192448Y67886D01*
X192373Y67925D01*
X192303Y67971D01*
X192247Y67989D01*
X192195Y68016D01*
X192127Y68027D01*
X192032Y68057D01*
X191932Y68060D01*
X191864Y68071D01*
X186436Y68071D01*
X186349Y68059D01*
X186262Y68056D01*
X186209Y68039D01*
X186154Y68031D01*
X186075Y67996D01*
X185991Y67969D01*
X185952Y67941D01*
X185895Y67915D01*
X185782Y67819D01*
X185718Y67774D01*
X183686Y65742D01*
X183668Y65718D01*
X183646Y65700D01*
X183583Y65605D01*
X183515Y65515D01*
X183505Y65487D01*
X183488Y65463D01*
X183454Y65355D01*
X183414Y65249D01*
X183412Y65220D01*
X183403Y65192D01*
X183400Y65079D01*
X183390Y64966D01*
X183396Y64937D01*
X183395Y64908D01*
X183424Y64798D01*
X183446Y64687D01*
X183460Y64661D01*
X183467Y64633D01*
X183525Y64535D01*
X183577Y64435D01*
X183597Y64413D01*
X183612Y64388D01*
X183695Y64311D01*
X183773Y64229D01*
X183798Y64214D01*
X183820Y64194D01*
X183921Y64142D01*
X184018Y64085D01*
X184047Y64078D01*
X184073Y64064D01*
X184150Y64051D01*
X184294Y64015D01*
X184356Y64017D01*
X184404Y64009D01*
X190849Y64009D01*
X190849Y56056D01*
X190861Y55969D01*
X190864Y55882D01*
X190881Y55829D01*
X190889Y55774D01*
X190924Y55694D01*
X190951Y55611D01*
X190979Y55572D01*
X191005Y55515D01*
X191101Y55402D01*
X191146Y55338D01*
X191966Y54518D01*
X191978Y54509D01*
X191988Y54497D01*
X192091Y54424D01*
X192193Y54348D01*
X192208Y54342D01*
X192220Y54333D01*
X192340Y54292D01*
X192458Y54246D01*
X192474Y54245D01*
X192489Y54240D01*
X192615Y54233D01*
X192742Y54223D01*
X192757Y54226D01*
G37*
%LPC*%
G36*
X141473Y44249D02*
X141473Y44249D01*
X141474Y44283D01*
X141481Y44410D01*
X141477Y44425D01*
X141478Y44440D01*
X141446Y44563D01*
X141417Y44687D01*
X141410Y44700D01*
X141406Y44715D01*
X141341Y44824D01*
X141279Y44936D01*
X141268Y44946D01*
X141261Y44960D01*
X141168Y45047D01*
X141078Y45136D01*
X141065Y45144D01*
X141053Y45154D01*
X140940Y45212D01*
X140829Y45273D01*
X140814Y45277D01*
X140800Y45284D01*
X140732Y45295D01*
X140552Y45336D01*
X140505Y45333D01*
X140469Y45339D01*
X140326Y45339D01*
X139679Y45512D01*
X139100Y45847D01*
X138627Y46320D01*
X138292Y46899D01*
X138119Y47546D01*
X138119Y53849D01*
X145129Y53849D01*
X145129Y50111D01*
X145131Y50096D01*
X145129Y50080D01*
X145151Y49956D01*
X145169Y49830D01*
X145175Y49816D01*
X145178Y49800D01*
X145233Y49686D01*
X145285Y49570D01*
X145295Y49558D01*
X145302Y49545D01*
X145387Y49450D01*
X145469Y49353D01*
X145481Y49345D01*
X145492Y49333D01*
X145599Y49266D01*
X145705Y49196D01*
X145720Y49191D01*
X145733Y49183D01*
X145855Y49148D01*
X145976Y49110D01*
X145992Y49109D01*
X146007Y49105D01*
X146075Y49107D01*
X146260Y49103D01*
X146305Y49114D01*
X146342Y49115D01*
X146359Y49119D01*
X146359Y44249D01*
X141473Y44249D01*
G37*
%LPD*%
%LPC*%
G36*
X187611Y108711D02*
X187611Y108711D01*
X187611Y117221D01*
X192414Y117221D01*
X193061Y117048D01*
X193640Y116713D01*
X194113Y116240D01*
X194448Y115661D01*
X194621Y115014D01*
X194621Y108711D01*
X187611Y108711D01*
G37*
%LPD*%
%LPC*%
G36*
X65531Y185071D02*
X65531Y185071D01*
X65531Y192081D01*
X71834Y192081D01*
X72481Y191908D01*
X73060Y191573D01*
X73533Y191100D01*
X73868Y190521D01*
X74041Y189874D01*
X74041Y185071D01*
X65531Y185071D01*
G37*
%LPD*%
%LPC*%
G36*
X266351Y174751D02*
X266351Y174751D01*
X266351Y183261D01*
X271154Y183261D01*
X271801Y183088D01*
X272380Y182753D01*
X272853Y182280D01*
X273188Y181701D01*
X273361Y181054D01*
X273361Y174751D01*
X266351Y174751D01*
G37*
%LPD*%
%LPC*%
G36*
X271111Y228091D02*
X271111Y228091D01*
X271111Y236601D01*
X275914Y236601D01*
X276561Y236428D01*
X277140Y236093D01*
X277613Y235620D01*
X277948Y235041D01*
X278121Y234394D01*
X278121Y228091D01*
X271111Y228091D01*
G37*
%LPD*%
%LPC*%
G36*
X190151Y121539D02*
X190151Y121539D01*
X190151Y130049D01*
X197161Y130049D01*
X197161Y123746D01*
X196988Y123099D01*
X196653Y122520D01*
X196180Y122047D01*
X195601Y121712D01*
X194954Y121539D01*
X190151Y121539D01*
G37*
%LPD*%
%LPC*%
G36*
X271111Y215519D02*
X271111Y215519D01*
X271111Y224029D01*
X278121Y224029D01*
X278121Y217726D01*
X277948Y217079D01*
X277613Y216500D01*
X277140Y216027D01*
X276561Y215692D01*
X275914Y215519D01*
X271111Y215519D01*
G37*
%LPD*%
%LPC*%
G36*
X260039Y228091D02*
X260039Y228091D01*
X260039Y234394D01*
X260212Y235041D01*
X260547Y235620D01*
X261020Y236093D01*
X261599Y236428D01*
X262246Y236601D01*
X267049Y236601D01*
X267049Y228091D01*
X260039Y228091D01*
G37*
%LPD*%
%LPC*%
G36*
X176539Y108711D02*
X176539Y108711D01*
X176539Y115014D01*
X176712Y115661D01*
X177047Y116240D01*
X177520Y116713D01*
X178099Y117048D01*
X178746Y117221D01*
X183549Y117221D01*
X183549Y108711D01*
X176539Y108711D01*
G37*
%LPD*%
%LPC*%
G36*
X65531Y173999D02*
X65531Y173999D01*
X65531Y181009D01*
X74041Y181009D01*
X74041Y176206D01*
X73868Y175559D01*
X73533Y174980D01*
X73060Y174507D01*
X72481Y174172D01*
X71834Y173999D01*
X65531Y173999D01*
G37*
%LPD*%
%LPC*%
G36*
X181286Y121539D02*
X181286Y121539D01*
X180639Y121712D01*
X180060Y122047D01*
X179587Y122520D01*
X179252Y123099D01*
X179079Y123746D01*
X179079Y130049D01*
X186089Y130049D01*
X186089Y121539D01*
X181286Y121539D01*
G37*
%LPD*%
%LPC*%
G36*
X292651Y103491D02*
X292651Y103491D01*
X292651Y108751D01*
X301704Y108751D01*
X302351Y108578D01*
X302930Y108243D01*
X303403Y107770D01*
X303738Y107191D01*
X303911Y106544D01*
X303911Y103491D01*
X292651Y103491D01*
G37*
%LPD*%
%LPC*%
G36*
X277329Y103491D02*
X277329Y103491D01*
X277329Y106544D01*
X277502Y107191D01*
X277837Y107770D01*
X278310Y108243D01*
X278889Y108578D01*
X279536Y108751D01*
X288589Y108751D01*
X288589Y103491D01*
X277329Y103491D01*
G37*
%LPD*%
%LPC*%
G36*
X292651Y94169D02*
X292651Y94169D01*
X292651Y99429D01*
X303911Y99429D01*
X303911Y96376D01*
X303738Y95729D01*
X303403Y95150D01*
X302930Y94677D01*
X302351Y94342D01*
X301704Y94169D01*
X292651Y94169D01*
G37*
%LPD*%
%LPC*%
G36*
X279536Y94169D02*
X279536Y94169D01*
X278889Y94342D01*
X278310Y94677D01*
X277837Y95150D01*
X277502Y95729D01*
X277329Y96376D01*
X277329Y99429D01*
X288589Y99429D01*
X288589Y94169D01*
X279536Y94169D01*
G37*
%LPD*%
%LPC*%
G36*
X228059Y178879D02*
X228059Y178879D01*
X228059Y185961D01*
X235141Y185961D01*
X235141Y184199D01*
X229821Y178879D01*
X228059Y178879D01*
G37*
%LPD*%
G36*
X182000Y52060D02*
X182000Y52060D01*
X182113Y52069D01*
X182140Y52080D01*
X182169Y52084D01*
X182272Y52131D01*
X182378Y52171D01*
X182402Y52189D01*
X182428Y52201D01*
X182515Y52274D01*
X182605Y52343D01*
X182623Y52366D01*
X182645Y52385D01*
X182686Y52452D01*
X182775Y52571D01*
X182797Y52629D01*
X182823Y52670D01*
X183330Y53894D01*
X184414Y54978D01*
X184449Y55024D01*
X184491Y55065D01*
X184534Y55138D01*
X184584Y55205D01*
X184605Y55259D01*
X184635Y55310D01*
X184656Y55392D01*
X184686Y55470D01*
X184690Y55529D01*
X184705Y55585D01*
X184702Y55670D01*
X184709Y55754D01*
X184698Y55811D01*
X184696Y55870D01*
X184670Y55950D01*
X184653Y56032D01*
X184626Y56084D01*
X184608Y56140D01*
X184568Y56196D01*
X184522Y56285D01*
X184454Y56357D01*
X184413Y56413D01*
X184347Y56480D01*
X184012Y57059D01*
X183839Y57706D01*
X183839Y63444D01*
X183835Y63473D01*
X183838Y63502D01*
X183815Y63613D01*
X183799Y63726D01*
X183787Y63752D01*
X183782Y63781D01*
X183729Y63882D01*
X183683Y63985D01*
X183664Y64007D01*
X183651Y64033D01*
X183573Y64116D01*
X183500Y64202D01*
X183475Y64218D01*
X183455Y64240D01*
X183357Y64297D01*
X183263Y64360D01*
X183235Y64368D01*
X183210Y64383D01*
X183100Y64411D01*
X182992Y64445D01*
X182963Y64446D01*
X182934Y64453D01*
X182821Y64450D01*
X182708Y64453D01*
X182679Y64445D01*
X182650Y64444D01*
X182542Y64409D01*
X182433Y64381D01*
X182407Y64366D01*
X182379Y64357D01*
X182315Y64311D01*
X182188Y64236D01*
X182145Y64190D01*
X182106Y64162D01*
X181710Y63766D01*
X181658Y63696D01*
X181598Y63632D01*
X181572Y63583D01*
X181539Y63539D01*
X181508Y63457D01*
X181468Y63379D01*
X181460Y63331D01*
X181438Y63273D01*
X181426Y63125D01*
X181413Y63048D01*
X181413Y57198D01*
X180055Y55840D01*
X179994Y55759D01*
X179927Y55684D01*
X179909Y55646D01*
X179884Y55613D01*
X179848Y55518D01*
X179804Y55427D01*
X179798Y55386D01*
X179783Y55347D01*
X179774Y55247D01*
X179758Y55147D01*
X179763Y55105D01*
X179759Y55064D01*
X179779Y54965D01*
X179791Y54864D01*
X179806Y54831D01*
X179815Y54785D01*
X179900Y54621D01*
X179929Y54558D01*
X180550Y53628D01*
X180947Y52670D01*
X180962Y52645D01*
X180971Y52617D01*
X181034Y52523D01*
X181091Y52425D01*
X181113Y52405D01*
X181129Y52381D01*
X181216Y52308D01*
X181298Y52230D01*
X181324Y52217D01*
X181347Y52198D01*
X181450Y52152D01*
X181551Y52100D01*
X181580Y52094D01*
X181606Y52082D01*
X181719Y52067D01*
X181830Y52045D01*
X181859Y52047D01*
X181888Y52043D01*
X182000Y52060D01*
G37*
%LPC*%
G36*
X166115Y108457D02*
X166115Y108457D01*
X166115Y113327D01*
X166841Y113182D01*
X167928Y112732D01*
X168906Y112079D01*
X169737Y111248D01*
X170390Y110270D01*
X170840Y109183D01*
X170985Y108457D01*
X166115Y108457D01*
G37*
%LPD*%
%LPC*%
G36*
X191515Y79755D02*
X191515Y79755D01*
X191515Y84625D01*
X192241Y84480D01*
X193328Y84030D01*
X194306Y83377D01*
X195137Y82546D01*
X195790Y81568D01*
X196240Y80481D01*
X196385Y79755D01*
X191515Y79755D01*
G37*
%LPD*%
%LPC*%
G36*
X107695Y196595D02*
X107695Y196595D01*
X107695Y201465D01*
X108421Y201320D01*
X109508Y200870D01*
X110486Y200217D01*
X111317Y199386D01*
X111970Y198408D01*
X112420Y197321D01*
X112565Y196595D01*
X107695Y196595D01*
G37*
%LPD*%
%LPC*%
G36*
X56261Y230250D02*
X56261Y230250D01*
X56261Y235119D01*
X56987Y234975D01*
X58073Y234525D01*
X59051Y233872D01*
X59882Y233040D01*
X60536Y232062D01*
X60986Y230976D01*
X61130Y230250D01*
X56261Y230250D01*
G37*
%LPD*%
%LPC*%
G36*
X248165Y57665D02*
X248165Y57665D01*
X248165Y62535D01*
X248891Y62390D01*
X249978Y61940D01*
X250956Y61287D01*
X251787Y60456D01*
X252440Y59478D01*
X252890Y58391D01*
X253035Y57665D01*
X248165Y57665D01*
G37*
%LPD*%
%LPC*%
G36*
X159215Y108457D02*
X159215Y108457D01*
X159360Y109183D01*
X159810Y110270D01*
X160463Y111248D01*
X161294Y112079D01*
X162272Y112732D01*
X163359Y113182D01*
X164085Y113327D01*
X164085Y108457D01*
X159215Y108457D01*
G37*
%LPD*%
%LPC*%
G36*
X245575Y178815D02*
X245575Y178815D01*
X245720Y179541D01*
X246170Y180628D01*
X246823Y181606D01*
X247654Y182437D01*
X248632Y183090D01*
X249719Y183540D01*
X250445Y183685D01*
X250445Y178815D01*
X245575Y178815D01*
G37*
%LPD*%
%LPC*%
G36*
X233552Y201850D02*
X233552Y201850D01*
X238422Y201850D01*
X238277Y201124D01*
X237827Y200037D01*
X237174Y199059D01*
X236343Y198228D01*
X235365Y197575D01*
X234278Y197125D01*
X233552Y196980D01*
X233552Y201850D01*
G37*
%LPD*%
%LPC*%
G36*
X249719Y172060D02*
X249719Y172060D01*
X248632Y172510D01*
X247654Y173163D01*
X246823Y173994D01*
X246170Y174972D01*
X245720Y176059D01*
X245575Y176785D01*
X250445Y176785D01*
X250445Y171915D01*
X249719Y172060D01*
G37*
%LPD*%
%LPC*%
G36*
X278764Y64134D02*
X278764Y64134D01*
X278764Y64136D01*
X278766Y64136D01*
X278766Y64134D01*
X278764Y64134D01*
G37*
%LPD*%
%LPC*%
G36*
X290619Y101459D02*
X290619Y101459D01*
X290619Y101461D01*
X290621Y101461D01*
X290621Y101459D01*
X290619Y101459D01*
G37*
%LPD*%
%LPC*%
G36*
X188119Y132079D02*
X188119Y132079D01*
X188119Y132081D01*
X188121Y132081D01*
X188121Y132079D01*
X188119Y132079D01*
G37*
%LPD*%
%LPC*%
G36*
X269079Y226059D02*
X269079Y226059D01*
X269079Y226061D01*
X269081Y226061D01*
X269081Y226059D01*
X269079Y226059D01*
G37*
%LPD*%
D10*
X141830Y113919D03*
X135330Y113919D03*
X128830Y113919D03*
X122330Y113919D03*
D11*
X112141Y103730D03*
X112141Y97230D03*
X112141Y90730D03*
X112141Y84230D03*
D10*
X122330Y74041D03*
X128830Y74041D03*
X135330Y74041D03*
X141830Y74041D03*
D11*
X152019Y84230D03*
X152019Y90730D03*
X152019Y97230D03*
X152019Y103730D03*
D12*
X132080Y93980D03*
D13*
X87040Y226120D03*
X87040Y218120D03*
X87040Y210120D03*
X87040Y202120D03*
X87040Y194120D03*
X87040Y186120D03*
X87040Y178120D03*
X87040Y170120D03*
X172040Y170120D03*
X172040Y178120D03*
X172040Y186120D03*
X172040Y194120D03*
X172040Y202120D03*
X172040Y210120D03*
X172040Y218120D03*
X172040Y226120D03*
D14*
X101540Y155620D03*
X109540Y155620D03*
X117540Y155620D03*
X125540Y155620D03*
X133540Y155620D03*
X141540Y155620D03*
X149540Y155620D03*
X157540Y155620D03*
X157540Y240620D03*
X149540Y240620D03*
X141540Y240620D03*
X133540Y240620D03*
X125540Y240620D03*
X117540Y240620D03*
X109540Y240620D03*
X101540Y240620D03*
D15*
X185580Y106680D03*
X205580Y106680D03*
X192880Y66040D03*
X172880Y66040D03*
X147160Y55880D03*
X127160Y55880D03*
D16*
X63500Y183040D03*
X63500Y203040D03*
D15*
X269080Y226060D03*
X249080Y226060D03*
X205900Y160020D03*
X225900Y160020D03*
X264320Y172720D03*
X284320Y172720D03*
D17*
X66040Y118364D02*
X66040Y105156D01*
X40640Y105156D02*
X40640Y118364D01*
D18*
X215900Y37592D02*
X215900Y23368D01*
X241300Y23368D02*
X241300Y37592D01*
X165100Y37592D02*
X165100Y23368D01*
X190500Y23368D02*
X190500Y37592D01*
X42672Y154940D02*
X28448Y154940D01*
X28448Y180340D02*
X42672Y180340D01*
X42672Y205740D02*
X28448Y205740D01*
X28448Y231140D02*
X42672Y231140D01*
D19*
X254660Y195580D03*
X273660Y195580D03*
D20*
X226060Y213360D03*
X200660Y213360D03*
X226060Y238760D03*
X200660Y238760D03*
X200660Y187960D03*
X226060Y187960D03*
D21*
X290620Y101460D03*
X290620Y124460D03*
X290620Y147460D03*
D22*
X232620Y124460D03*
D17*
X272161Y38735D02*
X285369Y38735D01*
X285369Y64135D02*
X272161Y64135D01*
D19*
X214020Y69215D03*
X233020Y69215D03*
X117500Y32385D03*
X136500Y32385D03*
D15*
X126525Y130810D03*
X146525Y130810D03*
X188120Y132080D03*
X208120Y132080D03*
D23*
X292608Y227584D03*
X55201Y76955D03*
D24*
X58420Y154940D02*
X35560Y154940D01*
D25*
X58420Y154940D03*
X157480Y213360D03*
D24*
X162240Y218120D01*
X172040Y218120D01*
X154923Y66928D02*
X148943Y66928D01*
X154923Y66928D02*
X155811Y66040D01*
X172880Y66040D01*
D25*
X179578Y81280D03*
D24*
X179578Y76962D01*
X182880Y73660D01*
X182880Y69247D01*
X179673Y66040D02*
X172880Y66040D01*
X179673Y66040D02*
X182880Y69247D01*
X148943Y66928D02*
X147320Y68551D01*
X147320Y73660D01*
X146939Y74041D01*
X141830Y74041D01*
X35560Y170180D02*
X35560Y180340D01*
D25*
X68580Y161417D03*
D24*
X40640Y165100D02*
X35560Y170180D01*
X40640Y165100D02*
X46880Y165100D01*
X50563Y161417D01*
X68580Y161417D01*
D25*
X157480Y223520D03*
D24*
X160080Y226120D01*
X172040Y226120D01*
X128830Y74041D02*
X128830Y65330D01*
X127000Y63500D01*
X127000Y56040D01*
X127160Y55880D01*
X172040Y226120D02*
X182513Y226120D01*
X183997Y224637D01*
D25*
X183997Y224637D03*
X175260Y140065D03*
D24*
X172720Y142605D01*
X113141Y142605D01*
X89916Y119380D01*
X89916Y102944D01*
X97700Y95160D01*
D25*
X97700Y95160D03*
X109981Y74139D03*
D24*
X114300Y69820D01*
X114300Y60960D01*
X119220Y56040D02*
X127000Y56040D01*
X119220Y56040D02*
X114300Y60960D01*
X72763Y193492D02*
X66492Y193492D01*
X72763Y193492D02*
X73391Y194120D01*
X87040Y194120D01*
X66492Y193492D02*
X63500Y190500D01*
X228600Y43180D02*
X241300Y30480D01*
X228600Y43180D02*
X228600Y48260D01*
D25*
X228600Y48260D03*
X198120Y50800D03*
D24*
X192880Y56040D01*
X192880Y66040D01*
D25*
X247150Y56650D03*
D24*
X247150Y65810D02*
X266557Y85217D01*
D25*
X157980Y48760D03*
X175260Y50800D03*
D24*
X179452Y54992D01*
X180643Y54992D01*
X182880Y57230D01*
X182880Y63500D01*
X185420Y66040D01*
X192880Y66040D01*
X43180Y136652D02*
X40640Y134112D01*
D25*
X73660Y139319D03*
D24*
X64470Y136652D02*
X43180Y136652D01*
X67137Y139319D02*
X73660Y139319D01*
X67137Y139319D02*
X64470Y136652D01*
D25*
X106680Y195580D03*
D24*
X105220Y194120D01*
X87040Y194120D01*
X42672Y224028D02*
X35560Y231140D01*
X42672Y224028D02*
X50800Y224028D01*
X55245Y228473D01*
X55245Y229235D01*
D25*
X55245Y229235D03*
X259848Y214605D03*
X251460Y177800D03*
D24*
X256540Y172720D01*
X264320Y172720D01*
X259848Y224288D02*
X261620Y226060D01*
X269080Y226060D01*
X185152Y202120D02*
X172040Y202120D01*
X185152Y202120D02*
X191096Y196176D01*
D25*
X191096Y196176D03*
X232537Y202865D03*
D24*
X232537Y194437D01*
X226060Y187960D01*
X205900Y160020D02*
X205900Y149700D01*
X208280Y147320D01*
X215900Y147320D01*
D25*
X215900Y147320D03*
D24*
X145161Y113919D02*
X141830Y113919D01*
D25*
X165100Y107442D03*
D24*
X158108Y108302D02*
X150778Y108302D01*
X158108Y108302D02*
X158968Y107442D01*
X165100Y107442D01*
D25*
X190500Y78740D03*
D24*
X192880Y76360D01*
X192880Y66040D01*
X150778Y108302D02*
X145161Y113919D01*
X259848Y214605D02*
X259848Y224288D01*
X40640Y134112D02*
X40640Y111760D01*
X185420Y106680D02*
X185580Y106680D01*
X185420Y106680D02*
X165862Y106680D01*
X165100Y107442D01*
X154940Y51800D02*
X157980Y48760D01*
X154940Y51800D02*
X154940Y53340D01*
X152400Y55880D01*
X147320Y55880D01*
X147160Y55880D01*
D25*
X198120Y144780D03*
D24*
X190500Y144780D01*
X188120Y142400D01*
X188120Y132080D01*
D25*
X111760Y52969D03*
D24*
X109035Y55695D01*
D25*
X147374Y43234D03*
D24*
X149860Y45720D01*
X149860Y53340D01*
X147320Y55880D01*
X188120Y122080D02*
X188120Y132080D01*
X188120Y122080D02*
X185420Y119380D01*
X185420Y106680D01*
X126525Y130810D02*
X107093Y130810D01*
X94224Y117940D02*
X94224Y104384D01*
X94557Y104050D01*
X99060Y104050D01*
D25*
X99060Y104050D03*
D24*
X94224Y117940D02*
X107093Y130810D01*
X63500Y183040D02*
X63500Y190500D01*
X290620Y101460D02*
X290620Y92500D01*
X283337Y85217D01*
X266557Y85217D01*
X283337Y85217D02*
X283337Y79883D01*
X292100Y71120D02*
X292100Y66040D01*
X290195Y64135D01*
X278765Y64135D01*
X292100Y71120D02*
X283337Y79883D01*
X247150Y65810D02*
X247150Y56650D01*
X40640Y101600D02*
X40640Y111760D01*
X40640Y101600D02*
X48260Y93980D01*
X88900Y93980D01*
X103504Y79376D01*
X109035Y65926D02*
X109035Y55695D01*
X103504Y71456D02*
X103504Y79376D01*
X103504Y71456D02*
X109035Y65926D01*
D26*
X238760Y226060D02*
X249080Y226060D01*
X233680Y231140D02*
X233680Y236220D01*
X231140Y238760D01*
X226060Y238760D01*
X233680Y231140D02*
X238760Y226060D01*
X254660Y207620D02*
X254660Y195580D01*
X249080Y213200D02*
X249080Y226060D01*
X249080Y213200D02*
X254660Y207620D01*
X215900Y43180D02*
X215900Y30480D01*
X215900Y43180D02*
X218440Y45720D01*
X218440Y53340D01*
X233680Y99060D02*
X238760Y99060D01*
D25*
X238760Y99060D03*
X287020Y205740D03*
D26*
X285140Y207620D01*
X254660Y207620D01*
X99060Y203200D02*
X97980Y202120D01*
X99060Y203200D02*
X99060Y223520D01*
X102699Y227159D01*
X137160Y227159D01*
D25*
X137160Y227159D03*
X167640Y241300D03*
D26*
X167640Y248839D01*
X164303Y252176D01*
X152400Y252176D01*
X149540Y249316D01*
D25*
X193040Y251460D03*
D26*
X214938Y238760D02*
X226060Y238760D01*
X195644Y248856D02*
X193040Y251460D01*
X204842Y248856D02*
X214938Y238760D01*
X204842Y248856D02*
X195644Y248856D01*
X87040Y202120D02*
X74740Y202120D01*
X87040Y202120D02*
X97980Y202120D01*
X167640Y241300D02*
X172720Y236220D01*
X172720Y234331D01*
D25*
X172720Y234331D03*
X187960Y185420D03*
D26*
X187960Y180340D01*
X185420Y177800D01*
X172360Y177800D01*
X172040Y178120D01*
X203964Y60242D02*
X206047Y58159D01*
X203964Y60242D02*
X203964Y78188D01*
X228953Y86854D02*
X233045Y90946D01*
X213621Y58159D02*
X218440Y53340D01*
X213621Y58159D02*
X206047Y58159D01*
X233045Y98425D02*
X233680Y99060D01*
X233045Y98425D02*
X233045Y90946D01*
X212630Y86854D02*
X203964Y78188D01*
X212630Y86854D02*
X228953Y86854D01*
X208120Y120936D02*
X208120Y132080D01*
X208120Y120936D02*
X208915Y120141D01*
D25*
X208915Y120141D03*
D26*
X284320Y160180D02*
X284320Y172720D01*
X290620Y153880D02*
X290620Y147460D01*
X290620Y153880D02*
X284320Y160180D01*
D25*
X289560Y137160D03*
D26*
X290620Y138220D01*
X290620Y147460D01*
X233680Y69875D02*
X233020Y69215D01*
X233680Y69875D02*
X233680Y78740D01*
X238760Y83820D01*
X254000Y83820D01*
D25*
X254000Y83820D03*
D26*
X236714Y90946D02*
X233045Y90946D01*
X236714Y90946D02*
X238760Y88900D01*
X238760Y83820D01*
X147955Y32385D02*
X136500Y32385D01*
D25*
X152400Y27940D03*
X203200Y30480D03*
D26*
X215900Y30480D01*
X152400Y27940D02*
X147955Y32385D01*
X149540Y240620D02*
X149540Y249316D01*
X161100Y194120D02*
X172040Y194120D01*
X161100Y194120D02*
X160020Y193040D01*
X160020Y179667D01*
X161417Y178270D01*
D25*
X161417Y178270D03*
D26*
X74740Y202120D02*
X73660Y203200D01*
X63660Y203200D01*
X63500Y203040D01*
X48260Y205740D02*
X35560Y205740D01*
X50960Y203040D02*
X63500Y203040D01*
X50960Y203040D02*
X48260Y205740D01*
D25*
X213360Y200660D03*
D24*
X200660Y226920D02*
X200660Y238760D01*
X210248Y203772D02*
X213360Y200660D01*
X210248Y217332D02*
X200660Y226920D01*
X210248Y217332D02*
X210248Y203772D01*
D25*
X167640Y152400D03*
D24*
X160760Y152400D01*
X157540Y155620D01*
X206315Y174308D02*
X214312Y182305D01*
D25*
X175260Y161909D03*
D24*
X177673Y164322D01*
X185309Y164322D02*
X195295Y174308D01*
X185309Y164322D02*
X177673Y164322D01*
D25*
X154940Y170180D03*
D24*
X149540Y164780D02*
X149540Y155620D01*
X195295Y174308D02*
X206315Y174308D01*
X154940Y170180D02*
X149540Y164780D01*
X226060Y203200D02*
X226060Y213360D01*
X226060Y203200D02*
X214312Y191452D01*
X214312Y182305D01*
X210248Y183989D02*
X210248Y191932D01*
X210248Y183989D02*
X204632Y178372D01*
X200660Y201520D02*
X200660Y213360D01*
X200660Y201520D02*
X210248Y191932D01*
X185360Y170120D02*
X172040Y170120D01*
X193612Y178372D02*
X204632Y178372D01*
X193612Y178372D02*
X185360Y170120D01*
X125540Y240620D02*
X125540Y251460D01*
X125540Y252540D01*
X130256Y257256D01*
X177800Y257256D01*
X200660Y195772D02*
X200660Y187960D01*
X191072Y243984D02*
X177800Y257256D01*
X191072Y243984D02*
X191072Y205360D01*
X200660Y195772D01*
X125540Y251460D02*
X120460Y256540D01*
X10160Y147365D02*
X20873Y136652D01*
X23368Y136652D01*
X10160Y147365D02*
X10160Y232968D01*
X30988Y129032D02*
X30988Y101600D01*
X117500Y42520D02*
X117500Y32385D01*
X30988Y129032D02*
X23368Y136652D01*
X113528Y46492D02*
X117500Y42520D01*
X120460Y256540D02*
X99060Y256540D01*
X22556Y245364D02*
X10160Y232968D01*
X22556Y245364D02*
X87884Y245364D01*
X99060Y256540D01*
X146525Y130810D02*
X156210Y130810D01*
X160020Y127000D01*
D25*
X160020Y127000D03*
X206539Y14441D03*
D24*
X195942Y14441D01*
X194708Y13208D01*
X160892Y13208D02*
X154940Y19160D01*
X154940Y20320D01*
X160892Y13208D02*
X194708Y13208D01*
X154940Y20320D02*
X153797Y21463D01*
X127715Y22860D02*
X119380Y22860D01*
X129112Y21463D02*
X153797Y21463D01*
X129112Y21463D02*
X127715Y22860D01*
X119380Y22860D02*
X117500Y24740D01*
X117500Y32385D01*
X30988Y101158D02*
X30988Y101600D01*
X30988Y101158D02*
X38166Y93980D01*
X42513Y93980D01*
X99440Y77693D02*
X99440Y69773D01*
X109077Y46492D02*
X113528Y46492D01*
X104971Y50599D02*
X104971Y64243D01*
X104971Y50599D02*
X109077Y46492D01*
X46577Y89916D02*
X42513Y93980D01*
X46577Y89916D02*
X87217Y89916D01*
X99440Y77693D01*
X99440Y69773D02*
X104971Y64243D01*
X190500Y40640D02*
X190500Y30480D01*
X190500Y40640D02*
X187960Y43180D01*
X187960Y50800D01*
D25*
X187960Y50800D03*
X99806Y139700D03*
D24*
X90646Y143383D02*
X88233Y145796D01*
X96123Y143383D02*
X99806Y139700D01*
X96123Y143383D02*
X90646Y143383D01*
D25*
X60960Y222377D03*
D24*
X67866Y145796D02*
X62786Y140716D01*
X22556Y140716D01*
X14224Y149048D01*
X14224Y211632D01*
X22556Y219964D01*
X58547Y219964D01*
X60960Y222377D01*
X67866Y145796D02*
X88233Y145796D01*
D25*
X104140Y186690D03*
D24*
X87610Y186690D01*
X87040Y186120D01*
D25*
X159121Y58420D03*
X93329Y149860D03*
D24*
X24240Y144780D02*
X18288Y150732D01*
X18288Y209948D02*
X24240Y215900D01*
X75231Y210120D02*
X87040Y210120D01*
X69451Y215900D02*
X24240Y215900D01*
X69451Y215900D02*
X75231Y210120D01*
X61103Y144780D02*
X24240Y144780D01*
X18288Y150732D02*
X18288Y209948D01*
X66183Y149860D02*
X93329Y149860D01*
X66183Y149860D02*
X61103Y144780D01*
X159121Y58420D02*
X159121Y56779D01*
X165100Y50800D01*
X165100Y30480D01*
D26*
X232620Y124460D02*
X232620Y143300D01*
X225900Y150020D02*
X225900Y160020D01*
X225900Y150020D02*
X232620Y143300D01*
X276314Y138766D02*
X290620Y124460D01*
X276314Y138766D02*
X276314Y150406D01*
X269240Y157480D01*
X246380Y157480D01*
X232620Y143720D02*
X232620Y143300D01*
X232620Y143720D02*
X246380Y157480D01*
X175501Y97230D02*
X152019Y97230D01*
X175501Y97230D02*
X177607Y95124D01*
X201804Y95124D01*
X205740Y99060D01*
X205740Y106520D01*
X205580Y106680D01*
X213360Y106680D01*
X215900Y109220D01*
X215900Y119380D01*
X220980Y124460D01*
X232620Y124460D01*
D24*
X254525Y38735D02*
X278765Y38735D01*
X254525Y38735D02*
X238523Y54737D01*
X227203Y54737D01*
X223472Y68580D02*
X222837Y69215D01*
X214020Y69215D01*
X223472Y58468D02*
X227203Y54737D01*
X223472Y58468D02*
X223472Y68580D01*
D25*
X294005Y187960D03*
X226060Y93839D03*
X162560Y86360D03*
D24*
X273660Y195580D02*
X286385Y195580D01*
X294005Y187960D01*
X226060Y93839D02*
X206985Y93839D01*
X203698Y90552D01*
X166752Y90552D02*
X162560Y86360D01*
X166752Y90552D02*
X203698Y90552D01*
D25*
X86360Y134620D03*
D24*
X78121Y134620D01*
X76343Y132842D01*
X69342Y132842D01*
X66040Y129540D02*
X66040Y111760D01*
X66040Y129540D02*
X69342Y132842D01*
M02*
