G04 EAGLE Gerber RS-274X export*
G75*
%MOMM*%
%FSLAX34Y34*%
%LPD*%
%INSoldermask Top*%
%IPPOS*%
%AMOC8*
5,1,8,0,0,1.08239X$1,22.5*%
G01*
%ADD10R,0.406400X1.066800*%
%ADD11R,1.066800X0.406400*%
%ADD12R,2.540000X2.540000*%
%ADD13R,1.701600X0.651600*%
%ADD14R,0.651600X1.701600*%
%ADD15R,1.401600X1.701600*%
%ADD16R,1.701600X1.401600*%
%ADD17C,1.422400*%
%ADD18C,1.524000*%
%ADD19R,1.401600X1.601600*%
%ADD20P,1.525737X8X292.500000*%
%ADD21R,2.251600X1.051600*%
%ADD22R,2.251600X3.351600*%

G36*
X294400Y217104D02*
X294400Y217104D01*
X294443Y217116D01*
X294509Y217123D01*
X296192Y217574D01*
X296233Y217593D01*
X296296Y217612D01*
X297876Y218349D01*
X297913Y218375D01*
X297972Y218404D01*
X299400Y219404D01*
X299431Y219436D01*
X299484Y219475D01*
X300717Y220708D01*
X300742Y220744D01*
X300788Y220792D01*
X301788Y222220D01*
X301806Y222261D01*
X301843Y222316D01*
X302580Y223896D01*
X302591Y223939D01*
X302618Y224000D01*
X303069Y225683D01*
X303071Y225715D01*
X303078Y225736D01*
X303078Y225751D01*
X303088Y225792D01*
X303240Y227529D01*
X303236Y227573D01*
X303240Y227639D01*
X303088Y229376D01*
X303076Y229419D01*
X303069Y229485D01*
X302618Y231168D01*
X302599Y231209D01*
X302580Y231272D01*
X301843Y232852D01*
X301817Y232889D01*
X301788Y232948D01*
X300788Y234376D01*
X300756Y234407D01*
X300717Y234460D01*
X299484Y235693D01*
X299448Y235718D01*
X299400Y235764D01*
X297972Y236764D01*
X297931Y236782D01*
X297876Y236819D01*
X296296Y237556D01*
X296253Y237567D01*
X296192Y237594D01*
X294509Y238045D01*
X294464Y238048D01*
X294400Y238064D01*
X292663Y238216D01*
X292619Y238212D01*
X292553Y238216D01*
X290816Y238064D01*
X290773Y238052D01*
X290707Y238045D01*
X289024Y237594D01*
X288983Y237575D01*
X288920Y237556D01*
X287340Y236819D01*
X287303Y236793D01*
X287244Y236764D01*
X285816Y235764D01*
X285785Y235732D01*
X285732Y235693D01*
X284499Y234460D01*
X284474Y234424D01*
X284428Y234376D01*
X283428Y232948D01*
X283410Y232907D01*
X283373Y232852D01*
X282636Y231272D01*
X282625Y231229D01*
X282598Y231168D01*
X282147Y229485D01*
X282144Y229440D01*
X282128Y229376D01*
X281976Y227639D01*
X281980Y227595D01*
X281976Y227529D01*
X282128Y225792D01*
X282140Y225749D01*
X282144Y225715D01*
X282144Y225699D01*
X282146Y225694D01*
X282147Y225683D01*
X282598Y224000D01*
X282617Y223959D01*
X282636Y223896D01*
X283373Y222316D01*
X283399Y222279D01*
X283428Y222220D01*
X284428Y220792D01*
X284460Y220761D01*
X284499Y220708D01*
X285732Y219475D01*
X285768Y219450D01*
X285816Y219404D01*
X287244Y218404D01*
X287285Y218386D01*
X287340Y218349D01*
X288920Y217612D01*
X288963Y217601D01*
X289024Y217574D01*
X290707Y217123D01*
X290752Y217120D01*
X290816Y217104D01*
X292553Y216952D01*
X292597Y216956D01*
X292663Y216952D01*
X294400Y217104D01*
G37*
G36*
X56993Y66475D02*
X56993Y66475D01*
X57036Y66487D01*
X57102Y66494D01*
X58786Y66945D01*
X58826Y66964D01*
X58890Y66983D01*
X60469Y67720D01*
X60506Y67745D01*
X60565Y67775D01*
X61993Y68775D01*
X62024Y68806D01*
X62078Y68846D01*
X63310Y70078D01*
X63336Y70115D01*
X63381Y70163D01*
X64381Y71591D01*
X64400Y71631D01*
X64436Y71687D01*
X65173Y73266D01*
X65184Y73310D01*
X65211Y73370D01*
X65662Y75054D01*
X65665Y75085D01*
X65672Y75106D01*
X65671Y75122D01*
X65681Y75163D01*
X65833Y76899D01*
X65829Y76944D01*
X65833Y77010D01*
X65681Y78746D01*
X65670Y78790D01*
X65662Y78855D01*
X65211Y80539D01*
X65192Y80580D01*
X65173Y80643D01*
X64436Y82223D01*
X64411Y82259D01*
X64381Y82319D01*
X63381Y83746D01*
X63350Y83778D01*
X63310Y83831D01*
X62078Y85064D01*
X62041Y85089D01*
X61993Y85135D01*
X60565Y86135D01*
X60525Y86153D01*
X60469Y86190D01*
X58890Y86926D01*
X58846Y86938D01*
X58786Y86964D01*
X57102Y87415D01*
X57057Y87419D01*
X56993Y87435D01*
X55257Y87587D01*
X55212Y87583D01*
X55146Y87587D01*
X53410Y87435D01*
X53366Y87423D01*
X53301Y87415D01*
X51617Y86964D01*
X51576Y86945D01*
X51513Y86926D01*
X49933Y86190D01*
X49897Y86164D01*
X49838Y86135D01*
X48410Y85135D01*
X48378Y85103D01*
X48325Y85064D01*
X47092Y83831D01*
X47067Y83794D01*
X47021Y83746D01*
X46022Y82319D01*
X46003Y82278D01*
X45966Y82223D01*
X45230Y80643D01*
X45218Y80600D01*
X45192Y80539D01*
X44741Y78855D01*
X44737Y78811D01*
X44721Y78746D01*
X44569Y77010D01*
X44573Y76966D01*
X44569Y76899D01*
X44721Y75163D01*
X44733Y75120D01*
X44737Y75086D01*
X44737Y75069D01*
X44739Y75065D01*
X44741Y75054D01*
X45192Y73370D01*
X45211Y73330D01*
X45230Y73266D01*
X45966Y71687D01*
X45992Y71650D01*
X46022Y71591D01*
X47021Y70163D01*
X47053Y70132D01*
X47092Y70078D01*
X48325Y68846D01*
X48362Y68820D01*
X48410Y68775D01*
X49838Y67775D01*
X49878Y67756D01*
X49933Y67720D01*
X51513Y66983D01*
X51556Y66972D01*
X51617Y66945D01*
X53301Y66494D01*
X53345Y66490D01*
X53410Y66475D01*
X55146Y66323D01*
X55191Y66327D01*
X55257Y66323D01*
X56993Y66475D01*
G37*
D10*
X141830Y113919D03*
X135330Y113919D03*
X128830Y113919D03*
X122330Y113919D03*
D11*
X112141Y103730D03*
X112141Y97230D03*
X112141Y90730D03*
X112141Y84230D03*
D10*
X122330Y74041D03*
X128830Y74041D03*
X135330Y74041D03*
X141830Y74041D03*
D11*
X152019Y84230D03*
X152019Y90730D03*
X152019Y97230D03*
X152019Y103730D03*
D12*
X132080Y93980D03*
D13*
X87040Y226120D03*
X87040Y218120D03*
X87040Y210120D03*
X87040Y202120D03*
X87040Y194120D03*
X87040Y186120D03*
X87040Y178120D03*
X87040Y170120D03*
X172040Y170120D03*
X172040Y178120D03*
X172040Y186120D03*
X172040Y194120D03*
X172040Y202120D03*
X172040Y210120D03*
X172040Y218120D03*
X172040Y226120D03*
D14*
X101540Y155620D03*
X109540Y155620D03*
X117540Y155620D03*
X125540Y155620D03*
X133540Y155620D03*
X141540Y155620D03*
X149540Y155620D03*
X157540Y155620D03*
X157540Y240620D03*
X149540Y240620D03*
X141540Y240620D03*
X133540Y240620D03*
X125540Y240620D03*
X117540Y240620D03*
X109540Y240620D03*
X101540Y240620D03*
D15*
X185580Y106680D03*
X205580Y106680D03*
X192880Y66040D03*
X172880Y66040D03*
X147160Y55880D03*
X127160Y55880D03*
D16*
X63500Y183040D03*
X63500Y203040D03*
D15*
X269080Y226060D03*
X249080Y226060D03*
X205900Y160020D03*
X225900Y160020D03*
X264320Y172720D03*
X284320Y172720D03*
D17*
X66040Y118364D02*
X66040Y105156D01*
X40640Y105156D02*
X40640Y118364D01*
D18*
X215900Y37592D02*
X215900Y23368D01*
X241300Y23368D02*
X241300Y37592D01*
X165100Y37592D02*
X165100Y23368D01*
X190500Y23368D02*
X190500Y37592D01*
X42672Y154940D02*
X28448Y154940D01*
X28448Y180340D02*
X42672Y180340D01*
X42672Y205740D02*
X28448Y205740D01*
X28448Y231140D02*
X42672Y231140D01*
D19*
X254660Y195580D03*
X273660Y195580D03*
D20*
X226060Y213360D03*
X200660Y213360D03*
X226060Y238760D03*
X200660Y238760D03*
X200660Y187960D03*
X226060Y187960D03*
D21*
X290620Y101460D03*
X290620Y124460D03*
X290620Y147460D03*
D22*
X232620Y124460D03*
D17*
X272161Y38735D02*
X285369Y38735D01*
X285369Y64135D02*
X272161Y64135D01*
D19*
X214020Y69215D03*
X233020Y69215D03*
X117500Y32385D03*
X136500Y32385D03*
D15*
X126525Y130810D03*
X146525Y130810D03*
X188120Y132080D03*
X208120Y132080D03*
M02*
