G04 EAGLE Gerber RS-274X export*
G75*
%MOMM*%
%FSLAX34Y34*%
%LPD*%
%INSolderpaste Top*%
%IPPOS*%
%AMOC8*
5,1,8,0,0,1.08239X$1,22.5*%
G01*
%ADD10R,0.304800X0.965200*%
%ADD11R,0.965200X0.304800*%
%ADD12R,2.438400X2.438400*%
%ADD13R,1.600000X0.550000*%
%ADD14R,0.550000X1.600000*%
%ADD15R,1.600000X1.300000*%
%ADD16R,1.300000X1.600000*%
%ADD17R,1.300000X1.500000*%
%ADD18R,2.150000X0.950000*%
%ADD19R,2.150000X3.250000*%


D10*
X139290Y108839D03*
X132790Y108839D03*
X126290Y108839D03*
X119790Y108839D03*
D11*
X109601Y98650D03*
X109601Y92150D03*
X109601Y85650D03*
X109601Y79150D03*
D10*
X119790Y68961D03*
X126290Y68961D03*
X132790Y68961D03*
X139290Y68961D03*
D11*
X149479Y79150D03*
X149479Y85650D03*
X149479Y92150D03*
X149479Y98650D03*
D12*
X129540Y88900D03*
D13*
X84500Y221040D03*
X84500Y213040D03*
X84500Y205040D03*
X84500Y197040D03*
X84500Y189040D03*
X84500Y181040D03*
X84500Y173040D03*
X84500Y165040D03*
X169500Y165040D03*
X169500Y173040D03*
X169500Y181040D03*
X169500Y189040D03*
X169500Y197040D03*
X169500Y205040D03*
X169500Y213040D03*
X169500Y221040D03*
D14*
X99000Y150540D03*
X107000Y150540D03*
X115000Y150540D03*
X123000Y150540D03*
X131000Y150540D03*
X139000Y150540D03*
X147000Y150540D03*
X155000Y150540D03*
X155000Y235540D03*
X147000Y235540D03*
X139000Y235540D03*
X131000Y235540D03*
X123000Y235540D03*
X115000Y235540D03*
X107000Y235540D03*
X99000Y235540D03*
D15*
X93980Y70960D03*
X93980Y50960D03*
D16*
X203040Y96520D03*
X183040Y96520D03*
X190340Y60960D03*
X170340Y60960D03*
X144620Y50800D03*
X124620Y50800D03*
D15*
X60960Y177960D03*
X60960Y197960D03*
D16*
X266540Y220980D03*
X246540Y220980D03*
X203360Y154940D03*
X223360Y154940D03*
X261780Y167640D03*
X281780Y167640D03*
D17*
X233020Y63500D03*
X214020Y63500D03*
X252120Y190500D03*
X271120Y190500D03*
D18*
X288080Y96380D03*
X288080Y119380D03*
X288080Y142380D03*
D19*
X230080Y119380D03*
M02*
