G04 EAGLE Gerber RS-274X export*
G75*
%MOMM*%
%FSLAX34Y34*%
%LPD*%
%IN*%
%IPPOS*%
%AMOC8*
5,1,8,0,0,1.08239X$1,22.5*%
G01*
%ADD10C,0.254000*%


D10*
X0Y0D02*
X279971Y0D01*
X283106Y-168D01*
X286244Y-62D01*
X289360Y317D01*
X292432Y966D01*
X295435Y1880D01*
X298347Y3052D01*
X301146Y4474D01*
X303810Y6135D01*
X306320Y8021D01*
X308656Y10119D01*
X310799Y12412D01*
X312735Y14884D01*
X314448Y17515D01*
X315926Y20285D01*
X317156Y23173D01*
X318129Y26158D01*
X318839Y29216D01*
X319280Y32324D01*
X319280Y215466D01*
X319119Y219786D01*
X318582Y224075D01*
X317674Y228301D01*
X316401Y232431D01*
X314772Y236435D01*
X312801Y240282D01*
X310502Y243942D01*
X307893Y247388D01*
X304993Y250594D01*
X301825Y253534D01*
X298412Y256188D01*
X294782Y258533D01*
X290961Y260554D01*
X286978Y262233D01*
X282864Y263560D01*
X278650Y264522D01*
X274368Y265114D01*
X270051Y265330D01*
X42929Y265330D01*
X38817Y264762D01*
X34770Y263838D01*
X30819Y262565D01*
X26994Y260953D01*
X23324Y259013D01*
X19838Y256761D01*
X16560Y254213D01*
X13518Y251389D01*
X10733Y248311D01*
X8226Y245002D01*
X6018Y241487D01*
X4124Y237793D01*
X2560Y233948D01*
X1337Y229982D01*
X464Y225924D01*
X-52Y221805D01*
X-207Y217657D01*
X0Y213511D01*
X0Y0D01*
X47965Y55909D02*
X47910Y55560D01*
X47800Y55223D01*
X47640Y54907D01*
X47431Y54621D01*
X47181Y54370D01*
X46894Y54162D01*
X46579Y54001D01*
X46242Y53892D01*
X45892Y53836D01*
X45538Y53836D01*
X45188Y53892D01*
X44852Y54001D01*
X44536Y54162D01*
X44249Y54370D01*
X43999Y54621D01*
X43791Y54907D01*
X43630Y55223D01*
X43521Y55560D01*
X43465Y55909D01*
X43465Y56264D01*
X43521Y56613D01*
X43630Y56950D01*
X43791Y57266D01*
X43999Y57552D01*
X44249Y57803D01*
X44536Y58011D01*
X44852Y58172D01*
X45188Y58281D01*
X45538Y58336D01*
X45892Y58336D01*
X46242Y58281D01*
X46579Y58172D01*
X46894Y58011D01*
X47181Y57803D01*
X47431Y57552D01*
X47640Y57266D01*
X47800Y56950D01*
X47910Y56613D01*
X47965Y56264D01*
X47965Y55909D01*
X288395Y225014D02*
X288340Y224664D01*
X288230Y224328D01*
X288069Y224012D01*
X287861Y223726D01*
X287611Y223475D01*
X287324Y223267D01*
X287009Y223106D01*
X286672Y222997D01*
X286322Y222941D01*
X285968Y222941D01*
X285618Y222997D01*
X285281Y223106D01*
X284966Y223267D01*
X284679Y223475D01*
X284429Y223726D01*
X284221Y224012D01*
X284060Y224328D01*
X283950Y224664D01*
X283895Y225014D01*
X283895Y225368D01*
X283950Y225718D01*
X284060Y226055D01*
X284221Y226371D01*
X284429Y226657D01*
X284679Y226908D01*
X284966Y227116D01*
X285281Y227276D01*
X285618Y227386D01*
X285968Y227441D01*
X286322Y227441D01*
X286672Y227386D01*
X287009Y227276D01*
X287324Y227116D01*
X287611Y226908D01*
X287861Y226657D01*
X288069Y226371D01*
X288230Y226055D01*
X288340Y225718D01*
X288395Y225368D01*
X288395Y225014D01*
M02*
