G04 EAGLE Gerber RS-274X export*
G75*
%MOMM*%
%FSLAX34Y34*%
%LPD*%
%INBottom Copper*%
%IPPOS*%
%AMOC8*
5,1,8,0,0,1.08239X$1,22.5*%
G01*
%ADD10C,1.320800*%
%ADD11C,1.422400*%
%ADD12P,1.415766X8X292.500000*%
%ADD13C,0.685800*%
%ADD14C,0.203200*%
%ADD15C,0.304800*%

G36*
X207149Y9149D02*
X207149Y9149D01*
X207178Y9146D01*
X207289Y9169D01*
X207401Y9185D01*
X207428Y9197D01*
X207457Y9202D01*
X207557Y9255D01*
X207661Y9301D01*
X207683Y9320D01*
X207709Y9333D01*
X207791Y9411D01*
X207878Y9485D01*
X207894Y9509D01*
X207915Y9529D01*
X207972Y9627D01*
X208035Y9721D01*
X208044Y9749D01*
X208059Y9774D01*
X208087Y9884D01*
X208121Y9992D01*
X208122Y10022D01*
X208129Y10050D01*
X208125Y10163D01*
X208128Y10276D01*
X208121Y10305D01*
X208120Y10334D01*
X208085Y10442D01*
X208056Y10551D01*
X208041Y10577D01*
X208032Y10605D01*
X207987Y10668D01*
X207911Y10796D01*
X207865Y10839D01*
X207837Y10878D01*
X205607Y13108D01*
X204215Y16469D01*
X204215Y34331D01*
X205607Y37692D01*
X208180Y40265D01*
X211541Y41657D01*
X215179Y41657D01*
X218540Y40265D01*
X218799Y40005D01*
X218868Y39954D01*
X218930Y39895D01*
X218981Y39869D01*
X219026Y39834D01*
X219107Y39804D01*
X219183Y39764D01*
X219239Y39753D01*
X219292Y39733D01*
X219378Y39726D01*
X219462Y39709D01*
X219519Y39714D01*
X219575Y39710D01*
X219660Y39727D01*
X219745Y39734D01*
X219798Y39754D01*
X219854Y39766D01*
X219930Y39805D01*
X220011Y39836D01*
X220056Y39870D01*
X220106Y39896D01*
X220169Y39956D01*
X220237Y40008D01*
X220271Y40053D01*
X220313Y40092D01*
X220356Y40167D01*
X220407Y40235D01*
X220428Y40288D01*
X220456Y40338D01*
X220478Y40421D01*
X220508Y40501D01*
X220512Y40558D01*
X220526Y40613D01*
X220524Y40699D01*
X220531Y40785D01*
X220519Y40833D01*
X220517Y40897D01*
X220473Y41035D01*
X220455Y41112D01*
X220320Y41439D01*
X220175Y42165D01*
X225045Y42165D01*
X225045Y37295D01*
X224319Y37440D01*
X223232Y37890D01*
X222971Y38064D01*
X222855Y38120D01*
X222741Y38179D01*
X222727Y38182D01*
X222715Y38188D01*
X222588Y38209D01*
X222462Y38234D01*
X222448Y38233D01*
X222435Y38235D01*
X222306Y38220D01*
X222179Y38209D01*
X222166Y38204D01*
X222152Y38203D01*
X222033Y38153D01*
X221913Y38107D01*
X221902Y38099D01*
X221890Y38094D01*
X221789Y38013D01*
X221687Y37936D01*
X221678Y37925D01*
X221668Y37916D01*
X221593Y37811D01*
X221517Y37708D01*
X221512Y37695D01*
X221504Y37684D01*
X221462Y37562D01*
X221416Y37442D01*
X221415Y37428D01*
X221411Y37415D01*
X221404Y37287D01*
X221393Y37159D01*
X221396Y37146D01*
X221396Y37131D01*
X221460Y36854D01*
X221466Y36843D01*
X221469Y36832D01*
X222505Y34331D01*
X222505Y16469D01*
X221113Y13108D01*
X218883Y10878D01*
X218865Y10854D01*
X218842Y10836D01*
X218780Y10741D01*
X218712Y10651D01*
X218701Y10623D01*
X218685Y10599D01*
X218651Y10491D01*
X218610Y10385D01*
X218608Y10356D01*
X218599Y10328D01*
X218596Y10214D01*
X218587Y10102D01*
X218593Y10073D01*
X218592Y10044D01*
X218620Y9934D01*
X218643Y9823D01*
X218656Y9797D01*
X218664Y9769D01*
X218721Y9671D01*
X218774Y9571D01*
X218794Y9549D01*
X218809Y9524D01*
X218891Y9447D01*
X218969Y9365D01*
X218995Y9350D01*
X219016Y9330D01*
X219117Y9278D01*
X219215Y9221D01*
X219243Y9214D01*
X219269Y9200D01*
X219347Y9187D01*
X219490Y9151D01*
X219553Y9153D01*
X219600Y9145D01*
X231801Y9145D01*
X231830Y9149D01*
X231859Y9146D01*
X231971Y9169D01*
X232083Y9185D01*
X232109Y9197D01*
X232138Y9202D01*
X232239Y9255D01*
X232342Y9301D01*
X232364Y9320D01*
X232391Y9333D01*
X232473Y9411D01*
X232559Y9485D01*
X232575Y9509D01*
X232597Y9529D01*
X232654Y9627D01*
X232717Y9721D01*
X232726Y9749D01*
X232740Y9774D01*
X232768Y9884D01*
X232802Y9992D01*
X232803Y10022D01*
X232810Y10050D01*
X232807Y10163D01*
X232810Y10276D01*
X232802Y10305D01*
X232801Y10334D01*
X232767Y10442D01*
X232738Y10551D01*
X232723Y10577D01*
X232714Y10605D01*
X232668Y10669D01*
X232593Y10796D01*
X232547Y10839D01*
X232519Y10878D01*
X231397Y12000D01*
X230504Y13229D01*
X229814Y14583D01*
X229345Y16028D01*
X229107Y17528D01*
X229107Y23369D01*
X237744Y23369D01*
X237802Y23377D01*
X237860Y23375D01*
X237942Y23397D01*
X238025Y23409D01*
X238079Y23433D01*
X238135Y23447D01*
X238208Y23490D01*
X238285Y23525D01*
X238329Y23563D01*
X238380Y23593D01*
X238437Y23654D01*
X238502Y23709D01*
X238534Y23757D01*
X238574Y23800D01*
X238613Y23875D01*
X238659Y23945D01*
X238677Y24001D01*
X238704Y24053D01*
X238715Y24121D01*
X238745Y24216D01*
X238748Y24316D01*
X238759Y24384D01*
X238759Y25401D01*
X238761Y25401D01*
X238761Y24384D01*
X238769Y24326D01*
X238768Y24268D01*
X238789Y24186D01*
X238801Y24103D01*
X238825Y24049D01*
X238839Y23993D01*
X238882Y23920D01*
X238917Y23843D01*
X238955Y23798D01*
X238985Y23748D01*
X239046Y23690D01*
X239101Y23626D01*
X239149Y23594D01*
X239192Y23554D01*
X239267Y23515D01*
X239337Y23469D01*
X239393Y23451D01*
X239445Y23424D01*
X239513Y23413D01*
X239608Y23383D01*
X239708Y23380D01*
X239776Y23369D01*
X248413Y23369D01*
X248413Y17528D01*
X248175Y16028D01*
X247706Y14583D01*
X247016Y13229D01*
X246123Y12000D01*
X245001Y10878D01*
X244983Y10854D01*
X244961Y10836D01*
X244898Y10741D01*
X244830Y10651D01*
X244820Y10623D01*
X244803Y10599D01*
X244769Y10491D01*
X244729Y10385D01*
X244726Y10356D01*
X244718Y10328D01*
X244715Y10215D01*
X244705Y10102D01*
X244711Y10073D01*
X244710Y10044D01*
X244739Y9934D01*
X244761Y9823D01*
X244775Y9797D01*
X244782Y9769D01*
X244840Y9672D01*
X244892Y9571D01*
X244912Y9549D01*
X244927Y9524D01*
X245010Y9447D01*
X245088Y9365D01*
X245113Y9350D01*
X245135Y9330D01*
X245236Y9278D01*
X245333Y9221D01*
X245362Y9214D01*
X245388Y9200D01*
X245465Y9187D01*
X245609Y9151D01*
X245671Y9153D01*
X245719Y9145D01*
X283210Y9145D01*
X283250Y9150D01*
X283282Y9147D01*
X286897Y9406D01*
X286979Y9424D01*
X287041Y9426D01*
X290582Y10197D01*
X290661Y10226D01*
X290721Y10238D01*
X294116Y11504D01*
X294190Y11544D01*
X294248Y11564D01*
X297429Y13301D01*
X297493Y13349D01*
X297522Y13362D01*
X297530Y13369D01*
X297551Y13379D01*
X300452Y15551D01*
X300511Y15611D01*
X300561Y15646D01*
X303124Y18209D01*
X303174Y18276D01*
X303219Y18318D01*
X305391Y21219D01*
X305431Y21293D01*
X305469Y21341D01*
X307206Y24522D01*
X307235Y24601D01*
X307266Y24654D01*
X308532Y28049D01*
X308550Y28131D01*
X308573Y28188D01*
X309344Y31729D01*
X309350Y31813D01*
X309364Y31873D01*
X309623Y35488D01*
X309620Y35528D01*
X309625Y35560D01*
X309625Y206186D01*
X309620Y206222D01*
X309623Y206252D01*
X309257Y211830D01*
X309242Y211905D01*
X309240Y211962D01*
X308150Y217444D01*
X308124Y217516D01*
X308115Y217572D01*
X306318Y222866D01*
X306284Y222934D01*
X306268Y222988D01*
X303795Y228002D01*
X303752Y228065D01*
X303729Y228117D01*
X300623Y232765D01*
X300572Y232822D01*
X300542Y232870D01*
X296857Y237073D01*
X296799Y237123D01*
X296763Y237167D01*
X292560Y240852D01*
X292496Y240894D01*
X292455Y240933D01*
X287807Y244039D01*
X287738Y244072D01*
X287692Y244105D01*
X282678Y246578D01*
X282606Y246601D01*
X282556Y246628D01*
X277262Y248425D01*
X277187Y248439D01*
X277134Y248460D01*
X271652Y249550D01*
X271575Y249554D01*
X271520Y249567D01*
X265942Y249933D01*
X265905Y249930D01*
X265876Y249935D01*
X196459Y249935D01*
X196345Y249919D01*
X196230Y249909D01*
X196204Y249899D01*
X196177Y249895D01*
X196072Y249848D01*
X195965Y249807D01*
X195943Y249791D01*
X195918Y249779D01*
X195830Y249705D01*
X195738Y249636D01*
X195722Y249613D01*
X195701Y249596D01*
X195637Y249500D01*
X195568Y249408D01*
X195558Y249382D01*
X195543Y249359D01*
X195508Y249249D01*
X195468Y249142D01*
X195466Y249114D01*
X195457Y249088D01*
X195454Y248973D01*
X195445Y248859D01*
X195451Y248834D01*
X195450Y248804D01*
X195517Y248547D01*
X195521Y248531D01*
X195962Y247466D01*
X195962Y245294D01*
X195284Y243657D01*
X195255Y243545D01*
X195220Y243436D01*
X195220Y243408D01*
X195213Y243381D01*
X195216Y243267D01*
X195213Y243152D01*
X195220Y243125D01*
X195221Y243097D01*
X195256Y242988D01*
X195285Y242877D01*
X195299Y242853D01*
X195307Y242826D01*
X195371Y242731D01*
X195430Y242632D01*
X195450Y242613D01*
X195466Y242590D01*
X195554Y242516D01*
X195637Y242438D01*
X195662Y242425D01*
X195683Y242407D01*
X195788Y242361D01*
X195891Y242308D01*
X195915Y242304D01*
X195943Y242292D01*
X196207Y242255D01*
X196222Y242253D01*
X201671Y242253D01*
X206693Y237231D01*
X206693Y230129D01*
X201671Y225107D01*
X194569Y225107D01*
X189547Y230129D01*
X189547Y237231D01*
X191501Y239185D01*
X191519Y239209D01*
X191542Y239228D01*
X191604Y239322D01*
X191672Y239412D01*
X191683Y239440D01*
X191699Y239464D01*
X191733Y239572D01*
X191774Y239678D01*
X191776Y239707D01*
X191785Y239735D01*
X191788Y239849D01*
X191797Y239961D01*
X191791Y239990D01*
X191792Y240019D01*
X191764Y240129D01*
X191741Y240240D01*
X191728Y240266D01*
X191720Y240294D01*
X191663Y240392D01*
X191610Y240492D01*
X191590Y240514D01*
X191575Y240539D01*
X191493Y240616D01*
X191415Y240698D01*
X191389Y240713D01*
X191368Y240733D01*
X191267Y240785D01*
X191169Y240842D01*
X191141Y240849D01*
X191115Y240863D01*
X191037Y240876D01*
X190894Y240912D01*
X190831Y240910D01*
X190784Y240918D01*
X189414Y240918D01*
X187406Y241750D01*
X186630Y242526D01*
X186560Y242578D01*
X186496Y242638D01*
X186447Y242664D01*
X186403Y242697D01*
X186321Y242728D01*
X186243Y242768D01*
X186196Y242776D01*
X186137Y242798D01*
X185989Y242810D01*
X185912Y242823D01*
X184774Y242823D01*
X184687Y242811D01*
X184600Y242808D01*
X184547Y242791D01*
X184492Y242783D01*
X184412Y242748D01*
X184329Y242721D01*
X184290Y242693D01*
X184233Y242667D01*
X184120Y242571D01*
X184056Y242526D01*
X174193Y232663D01*
X169688Y232663D01*
X169601Y232651D01*
X169514Y232648D01*
X169461Y232631D01*
X169406Y232623D01*
X169327Y232588D01*
X169243Y232561D01*
X169204Y232533D01*
X169147Y232507D01*
X169034Y232411D01*
X168970Y232366D01*
X168194Y231590D01*
X166186Y230758D01*
X165089Y230758D01*
X165002Y230746D01*
X164915Y230743D01*
X164862Y230726D01*
X164807Y230718D01*
X164727Y230683D01*
X164644Y230656D01*
X164605Y230628D01*
X164548Y230602D01*
X164435Y230506D01*
X164371Y230461D01*
X160699Y226789D01*
X158225Y224315D01*
X158190Y224268D01*
X158147Y224228D01*
X158105Y224155D01*
X158054Y224088D01*
X158033Y224033D01*
X158004Y223983D01*
X157983Y223901D01*
X157953Y223822D01*
X157948Y223764D01*
X157934Y223707D01*
X157936Y223623D01*
X157929Y223539D01*
X157941Y223482D01*
X157943Y223423D01*
X157969Y223343D01*
X157985Y223260D01*
X158012Y223208D01*
X158030Y223153D01*
X158070Y223096D01*
X158116Y223008D01*
X158185Y222935D01*
X158225Y222879D01*
X159570Y221534D01*
X160402Y219526D01*
X160402Y217354D01*
X159570Y215346D01*
X158302Y214078D01*
X158267Y214031D01*
X158224Y213991D01*
X158182Y213918D01*
X158131Y213851D01*
X158110Y213796D01*
X158081Y213746D01*
X158060Y213664D01*
X158030Y213585D01*
X158025Y213527D01*
X158011Y213470D01*
X158013Y213386D01*
X158006Y213302D01*
X158018Y213244D01*
X158020Y213186D01*
X158046Y213106D01*
X158062Y213023D01*
X158089Y212971D01*
X158107Y212915D01*
X158147Y212859D01*
X158193Y212771D01*
X158262Y212698D01*
X158302Y212642D01*
X159570Y211374D01*
X160402Y209366D01*
X160402Y207194D01*
X159570Y205186D01*
X158034Y203650D01*
X156075Y202839D01*
X156074Y202838D01*
X156073Y202837D01*
X155952Y202766D01*
X155831Y202694D01*
X155830Y202693D01*
X155828Y202692D01*
X155731Y202588D01*
X155635Y202487D01*
X155635Y202486D01*
X155634Y202485D01*
X155569Y202359D01*
X155505Y202235D01*
X155505Y202233D01*
X155504Y202232D01*
X155502Y202217D01*
X155450Y201956D01*
X155453Y201925D01*
X155449Y201901D01*
X155449Y172997D01*
X154226Y171775D01*
X154157Y171683D01*
X154083Y171595D01*
X154072Y171570D01*
X154055Y171547D01*
X154014Y171440D01*
X153968Y171335D01*
X153964Y171308D01*
X153954Y171282D01*
X153945Y171167D01*
X153929Y171054D01*
X153933Y171026D01*
X153931Y170999D01*
X153953Y170886D01*
X153970Y170772D01*
X153981Y170747D01*
X153987Y170720D01*
X154039Y170618D01*
X154087Y170513D01*
X154105Y170492D01*
X154117Y170467D01*
X154197Y170384D01*
X154271Y170297D01*
X154292Y170284D01*
X154313Y170261D01*
X154543Y170127D01*
X154556Y170119D01*
X155494Y169730D01*
X156778Y168446D01*
X156848Y168394D01*
X156912Y168334D01*
X156961Y168308D01*
X157005Y168275D01*
X157087Y168244D01*
X157165Y168204D01*
X157212Y168196D01*
X157271Y168174D01*
X157419Y168162D01*
X157496Y168149D01*
X165712Y168149D01*
X171272Y162588D01*
X171342Y162536D01*
X171406Y162476D01*
X171456Y162450D01*
X171500Y162417D01*
X171581Y162386D01*
X171659Y162346D01*
X171707Y162338D01*
X171765Y162316D01*
X171913Y162304D01*
X171990Y162291D01*
X173806Y162291D01*
X175814Y161459D01*
X177350Y159923D01*
X178182Y157915D01*
X178182Y156145D01*
X178186Y156116D01*
X178183Y156087D01*
X178206Y155975D01*
X178222Y155863D01*
X178234Y155837D01*
X178239Y155808D01*
X178291Y155707D01*
X178338Y155604D01*
X178357Y155581D01*
X178370Y155555D01*
X178448Y155473D01*
X178521Y155387D01*
X178546Y155371D01*
X178566Y155349D01*
X178664Y155292D01*
X178758Y155229D01*
X178786Y155220D01*
X178811Y155206D01*
X178921Y155178D01*
X179029Y155144D01*
X179059Y155143D01*
X179087Y155136D01*
X179200Y155139D01*
X179313Y155136D01*
X179342Y155144D01*
X179371Y155145D01*
X179479Y155179D01*
X179588Y155208D01*
X179614Y155223D01*
X179642Y155232D01*
X179705Y155278D01*
X179833Y155353D01*
X179876Y155399D01*
X179915Y155427D01*
X197062Y172574D01*
X197080Y172598D01*
X197102Y172617D01*
X197165Y172711D01*
X197233Y172801D01*
X197243Y172829D01*
X197260Y172853D01*
X197294Y172961D01*
X197334Y173067D01*
X197337Y173096D01*
X197345Y173124D01*
X197348Y173238D01*
X197358Y173350D01*
X197352Y173379D01*
X197353Y173408D01*
X197324Y173518D01*
X197302Y173629D01*
X197288Y173655D01*
X197281Y173683D01*
X197223Y173781D01*
X197171Y173881D01*
X197151Y173903D01*
X197136Y173928D01*
X197053Y174005D01*
X196975Y174087D01*
X196950Y174102D01*
X196928Y174122D01*
X196828Y174174D01*
X196730Y174231D01*
X196701Y174238D01*
X196675Y174252D01*
X196598Y174265D01*
X196454Y174301D01*
X196392Y174299D01*
X196344Y174307D01*
X194569Y174307D01*
X189547Y179329D01*
X189547Y184111D01*
X189539Y184169D01*
X189541Y184227D01*
X189519Y184309D01*
X189507Y184393D01*
X189484Y184446D01*
X189469Y184503D01*
X189426Y184575D01*
X189391Y184652D01*
X189353Y184697D01*
X189324Y184747D01*
X189262Y184805D01*
X189208Y184869D01*
X189159Y184901D01*
X189116Y184941D01*
X189041Y184980D01*
X188971Y185027D01*
X188915Y185044D01*
X188863Y185071D01*
X188795Y185082D01*
X188700Y185112D01*
X188600Y185115D01*
X188532Y185126D01*
X187968Y185126D01*
X186815Y185356D01*
X185728Y185806D01*
X184751Y186459D01*
X183919Y187291D01*
X183266Y188268D01*
X182816Y189355D01*
X182671Y190081D01*
X188556Y190081D01*
X192777Y190081D01*
X192839Y190090D01*
X192903Y190089D01*
X192980Y190109D01*
X193058Y190121D01*
X193116Y190146D01*
X193177Y190163D01*
X193233Y190199D01*
X193317Y190237D01*
X193399Y190306D01*
X193459Y190345D01*
X193460Y190345D01*
X193494Y190386D01*
X193534Y190420D01*
X193534Y190421D01*
X193535Y190421D01*
X193584Y190495D01*
X193641Y190564D01*
X193663Y190613D01*
X193692Y190657D01*
X193719Y190743D01*
X193755Y190824D01*
X193762Y190877D01*
X193778Y190928D01*
X193780Y191018D01*
X193792Y191106D01*
X193784Y191159D01*
X193785Y191213D01*
X193763Y191299D01*
X193749Y191387D01*
X193727Y191436D01*
X193714Y191488D01*
X193668Y191564D01*
X193631Y191646D01*
X193596Y191686D01*
X193568Y191732D01*
X193503Y191793D01*
X193445Y191861D01*
X193400Y191890D01*
X193361Y191927D01*
X193281Y191967D01*
X193207Y192016D01*
X193156Y192032D01*
X193108Y192056D01*
X193037Y192068D01*
X192935Y192099D01*
X192842Y192101D01*
X192777Y192112D01*
X189572Y192112D01*
X189572Y196981D01*
X190298Y196836D01*
X191384Y196386D01*
X192362Y195733D01*
X193193Y194902D01*
X193846Y193924D01*
X194296Y192838D01*
X194409Y192270D01*
X194443Y192174D01*
X194468Y192077D01*
X194490Y192041D01*
X194503Y192002D01*
X194562Y191919D01*
X194614Y191832D01*
X194644Y191804D01*
X194668Y191770D01*
X194747Y191707D01*
X194821Y191638D01*
X194858Y191619D01*
X194890Y191593D01*
X194984Y191554D01*
X195074Y191508D01*
X195110Y191502D01*
X195153Y191484D01*
X195337Y191464D01*
X195405Y191453D01*
X201671Y191453D01*
X202926Y190198D01*
X202950Y190180D01*
X202969Y190157D01*
X203063Y190095D01*
X203153Y190027D01*
X203181Y190016D01*
X203205Y190000D01*
X203313Y189966D01*
X203419Y189925D01*
X203448Y189923D01*
X203476Y189914D01*
X203590Y189911D01*
X203702Y189902D01*
X203731Y189908D01*
X203760Y189907D01*
X203870Y189935D01*
X203981Y189958D01*
X204007Y189971D01*
X204035Y189979D01*
X204133Y190036D01*
X204233Y190089D01*
X204255Y190109D01*
X204280Y190124D01*
X204357Y190206D01*
X204439Y190284D01*
X204454Y190310D01*
X204474Y190331D01*
X204526Y190432D01*
X204583Y190530D01*
X204590Y190558D01*
X204604Y190584D01*
X204617Y190662D01*
X204653Y190805D01*
X204651Y190868D01*
X204659Y190915D01*
X204659Y193731D01*
X205061Y194132D01*
X205113Y194202D01*
X205173Y194266D01*
X205199Y194316D01*
X205232Y194360D01*
X205263Y194441D01*
X205303Y194519D01*
X205311Y194567D01*
X205333Y194625D01*
X205345Y194773D01*
X205358Y194850D01*
X205358Y196666D01*
X206190Y198674D01*
X207726Y200210D01*
X209734Y201042D01*
X211906Y201042D01*
X213914Y200210D01*
X215450Y198674D01*
X216282Y196666D01*
X216282Y194494D01*
X215450Y192486D01*
X213914Y190950D01*
X211906Y190118D01*
X211772Y190118D01*
X211714Y190110D01*
X211656Y190112D01*
X211574Y190090D01*
X211490Y190078D01*
X211437Y190055D01*
X211381Y190040D01*
X211308Y189997D01*
X211231Y189962D01*
X211186Y189924D01*
X211136Y189895D01*
X211078Y189833D01*
X211014Y189779D01*
X210982Y189730D01*
X210942Y189687D01*
X210903Y189612D01*
X210856Y189542D01*
X210839Y189486D01*
X210812Y189434D01*
X210801Y189366D01*
X210771Y189271D01*
X210768Y189171D01*
X210757Y189103D01*
X210757Y177646D01*
X206540Y173429D01*
X206522Y173405D01*
X206500Y173386D01*
X206437Y173292D01*
X206369Y173201D01*
X206358Y173174D01*
X206342Y173149D01*
X206308Y173041D01*
X206267Y172936D01*
X206265Y172906D01*
X206256Y172878D01*
X206253Y172765D01*
X206244Y172652D01*
X206250Y172624D01*
X206249Y172594D01*
X206277Y172485D01*
X206300Y172374D01*
X206313Y172348D01*
X206321Y172319D01*
X206379Y172222D01*
X206431Y172121D01*
X206451Y172100D01*
X206466Y172075D01*
X206548Y171997D01*
X206627Y171915D01*
X206652Y171900D01*
X206673Y171880D01*
X206774Y171829D01*
X206872Y171771D01*
X206900Y171764D01*
X206926Y171751D01*
X207004Y171738D01*
X207147Y171701D01*
X207210Y171703D01*
X207257Y171695D01*
X207258Y171695D01*
X207344Y171708D01*
X207432Y171710D01*
X207484Y171727D01*
X207539Y171735D01*
X207619Y171771D01*
X207702Y171798D01*
X207741Y171826D01*
X207798Y171851D01*
X207912Y171947D01*
X207975Y171993D01*
X209259Y173277D01*
X211267Y174108D01*
X213440Y174108D01*
X215447Y173277D01*
X216984Y171741D01*
X217763Y169860D01*
X217821Y169761D01*
X217874Y169659D01*
X217893Y169639D01*
X217907Y169615D01*
X217990Y169536D01*
X218070Y169453D01*
X218094Y169439D01*
X218114Y169420D01*
X218216Y169367D01*
X218315Y169309D01*
X218342Y169302D01*
X218366Y169290D01*
X218479Y169267D01*
X218590Y169239D01*
X218618Y169240D01*
X218645Y169235D01*
X218760Y169244D01*
X218875Y169248D01*
X218901Y169257D01*
X218929Y169259D01*
X219036Y169300D01*
X219145Y169336D01*
X219165Y169350D01*
X219194Y169361D01*
X219406Y169522D01*
X219418Y169530D01*
X221954Y172066D01*
X221972Y172090D01*
X221994Y172109D01*
X222057Y172203D01*
X222125Y172293D01*
X222135Y172321D01*
X222152Y172345D01*
X222186Y172453D01*
X222226Y172559D01*
X222229Y172588D01*
X222237Y172616D01*
X222240Y172730D01*
X222250Y172842D01*
X222244Y172871D01*
X222245Y172900D01*
X222216Y173010D01*
X222194Y173121D01*
X222180Y173147D01*
X222173Y173175D01*
X222115Y173273D01*
X222063Y173373D01*
X222043Y173395D01*
X222028Y173420D01*
X221945Y173497D01*
X221867Y173579D01*
X221842Y173594D01*
X221820Y173614D01*
X221720Y173666D01*
X221622Y173723D01*
X221593Y173730D01*
X221567Y173744D01*
X221490Y173757D01*
X221346Y173793D01*
X221284Y173791D01*
X221236Y173799D01*
X219759Y173799D01*
X214439Y179119D01*
X214439Y180881D01*
X222536Y180881D01*
X222594Y180889D01*
X222652Y180887D01*
X222734Y180909D01*
X222817Y180921D01*
X222871Y180944D01*
X222927Y180959D01*
X223000Y181002D01*
X223077Y181037D01*
X223121Y181075D01*
X223172Y181104D01*
X223229Y181166D01*
X223294Y181220D01*
X223326Y181269D01*
X223366Y181312D01*
X223405Y181387D01*
X223451Y181457D01*
X223469Y181513D01*
X223496Y181565D01*
X223507Y181633D01*
X223537Y181728D01*
X223540Y181828D01*
X223551Y181896D01*
X223551Y182849D01*
X224504Y182849D01*
X224562Y182857D01*
X224620Y182856D01*
X224702Y182877D01*
X224786Y182889D01*
X224839Y182913D01*
X224895Y182927D01*
X224968Y182971D01*
X225045Y183005D01*
X225090Y183043D01*
X225140Y183073D01*
X225198Y183134D01*
X225262Y183189D01*
X225294Y183237D01*
X225334Y183280D01*
X225373Y183355D01*
X225420Y183425D01*
X225437Y183481D01*
X225464Y183533D01*
X225475Y183601D01*
X225505Y183696D01*
X225508Y183796D01*
X225519Y183864D01*
X225519Y192151D01*
X225599Y192227D01*
X225686Y192300D01*
X225702Y192325D01*
X225723Y192345D01*
X225780Y192443D01*
X225843Y192537D01*
X225852Y192565D01*
X225867Y192590D01*
X225895Y192700D01*
X225929Y192808D01*
X225930Y192837D01*
X225937Y192866D01*
X225933Y192979D01*
X225936Y193092D01*
X225929Y193121D01*
X225928Y193150D01*
X225893Y193258D01*
X225865Y193367D01*
X225850Y193393D01*
X225840Y193421D01*
X225795Y193484D01*
X225719Y193612D01*
X225674Y193655D01*
X225646Y193694D01*
X225360Y193979D01*
X224707Y194957D01*
X224257Y196044D01*
X224112Y196770D01*
X228982Y196770D01*
X228982Y191268D01*
X228962Y191239D01*
X228953Y191211D01*
X228939Y191186D01*
X228911Y191076D01*
X228877Y190968D01*
X228876Y190938D01*
X228869Y190910D01*
X228872Y190797D01*
X228869Y190684D01*
X228877Y190655D01*
X228878Y190626D01*
X228912Y190518D01*
X228941Y190409D01*
X228956Y190383D01*
X228965Y190355D01*
X229011Y190292D01*
X229086Y190164D01*
X229132Y190121D01*
X229160Y190082D01*
X231692Y187550D01*
X231716Y187532D01*
X231735Y187510D01*
X231829Y187447D01*
X231919Y187379D01*
X231947Y187369D01*
X231971Y187352D01*
X232079Y187318D01*
X232185Y187278D01*
X232214Y187275D01*
X232242Y187267D01*
X232356Y187264D01*
X232468Y187254D01*
X232497Y187260D01*
X232526Y187259D01*
X232636Y187288D01*
X232747Y187310D01*
X232773Y187324D01*
X232801Y187331D01*
X232899Y187389D01*
X232999Y187441D01*
X233021Y187461D01*
X233046Y187476D01*
X233123Y187559D01*
X233205Y187637D01*
X233220Y187662D01*
X233240Y187684D01*
X233292Y187784D01*
X233349Y187882D01*
X233356Y187911D01*
X233370Y187937D01*
X233383Y188014D01*
X233419Y188158D01*
X233417Y188220D01*
X233425Y188268D01*
X233425Y191224D01*
X233409Y191338D01*
X233399Y191452D01*
X233389Y191478D01*
X233385Y191506D01*
X233339Y191610D01*
X233297Y191717D01*
X233281Y191740D01*
X233269Y191765D01*
X233195Y191853D01*
X233126Y191944D01*
X233103Y191961D01*
X233086Y191982D01*
X232990Y192046D01*
X232898Y192114D01*
X232872Y192124D01*
X232849Y192140D01*
X232739Y192174D01*
X232632Y192215D01*
X232604Y192217D01*
X232578Y192225D01*
X232463Y192228D01*
X232349Y192237D01*
X232324Y192232D01*
X232294Y192233D01*
X232037Y192166D01*
X232021Y192162D01*
X231738Y192045D01*
X231012Y191900D01*
X231012Y197785D01*
X231004Y197843D01*
X231006Y197901D01*
X230984Y197983D01*
X230973Y198066D01*
X230949Y198120D01*
X230934Y198176D01*
X230891Y198249D01*
X230856Y198326D01*
X230819Y198370D01*
X230789Y198420D01*
X230788Y198421D01*
X230727Y198478D01*
X230673Y198543D01*
X230672Y198543D01*
X230624Y198575D01*
X230581Y198615D01*
X230506Y198654D01*
X230436Y198701D01*
X230380Y198718D01*
X230328Y198745D01*
X230260Y198756D01*
X230165Y198786D01*
X230065Y198789D01*
X229997Y198800D01*
X224064Y198800D01*
X224064Y198808D01*
X224032Y198931D01*
X224004Y199055D01*
X223996Y199068D01*
X223992Y199083D01*
X223928Y199192D01*
X223866Y199303D01*
X223855Y199315D01*
X223847Y199328D01*
X223755Y199414D01*
X223665Y199504D01*
X223651Y199512D01*
X223640Y199522D01*
X223527Y199580D01*
X223416Y199641D01*
X223401Y199645D01*
X223387Y199652D01*
X223319Y199663D01*
X223138Y199704D01*
X223092Y199701D01*
X223056Y199707D01*
X219969Y199707D01*
X214947Y204729D01*
X214947Y211831D01*
X216202Y213086D01*
X216220Y213110D01*
X216243Y213129D01*
X216305Y213223D01*
X216373Y213313D01*
X216384Y213341D01*
X216400Y213365D01*
X216434Y213473D01*
X216475Y213579D01*
X216477Y213608D01*
X216486Y213636D01*
X216489Y213750D01*
X216498Y213862D01*
X216492Y213891D01*
X216493Y213920D01*
X216465Y214030D01*
X216442Y214141D01*
X216429Y214167D01*
X216421Y214195D01*
X216364Y214293D01*
X216311Y214393D01*
X216291Y214415D01*
X216276Y214440D01*
X216194Y214517D01*
X216116Y214599D01*
X216090Y214614D01*
X216069Y214634D01*
X215968Y214686D01*
X215870Y214743D01*
X215842Y214750D01*
X215816Y214764D01*
X215738Y214777D01*
X215595Y214813D01*
X215532Y214811D01*
X215485Y214819D01*
X206155Y214819D01*
X206126Y214815D01*
X206097Y214818D01*
X205986Y214795D01*
X205874Y214779D01*
X205847Y214767D01*
X205818Y214762D01*
X205718Y214709D01*
X205614Y214663D01*
X205592Y214644D01*
X205566Y214631D01*
X205484Y214553D01*
X205397Y214480D01*
X205381Y214455D01*
X205360Y214435D01*
X205303Y214337D01*
X205240Y214243D01*
X205231Y214215D01*
X205216Y214190D01*
X205188Y214080D01*
X205154Y213972D01*
X205153Y213942D01*
X205146Y213914D01*
X205150Y213801D01*
X205147Y213688D01*
X205154Y213659D01*
X205155Y213630D01*
X205190Y213522D01*
X205219Y213413D01*
X205234Y213387D01*
X205243Y213359D01*
X205288Y213295D01*
X205364Y213168D01*
X205410Y213125D01*
X205438Y213086D01*
X206693Y211831D01*
X206693Y204729D01*
X201671Y199707D01*
X194569Y199707D01*
X189547Y204729D01*
X189547Y211831D01*
X190802Y213086D01*
X190820Y213110D01*
X190843Y213129D01*
X190905Y213223D01*
X190973Y213313D01*
X190984Y213341D01*
X191000Y213365D01*
X191034Y213473D01*
X191075Y213579D01*
X191077Y213608D01*
X191086Y213636D01*
X191089Y213750D01*
X191098Y213862D01*
X191092Y213891D01*
X191093Y213920D01*
X191065Y214030D01*
X191042Y214141D01*
X191029Y214167D01*
X191021Y214195D01*
X190964Y214293D01*
X190911Y214393D01*
X190891Y214415D01*
X190876Y214440D01*
X190794Y214517D01*
X190716Y214599D01*
X190690Y214614D01*
X190669Y214634D01*
X190568Y214686D01*
X190470Y214743D01*
X190442Y214750D01*
X190416Y214764D01*
X190338Y214777D01*
X190195Y214813D01*
X190132Y214811D01*
X190085Y214819D01*
X184494Y214819D01*
X184463Y214815D01*
X184433Y214817D01*
X184356Y214800D01*
X184212Y214779D01*
X184154Y214753D01*
X184105Y214742D01*
X182543Y214095D01*
X180370Y214095D01*
X178363Y214926D01*
X176826Y216463D01*
X175995Y218470D01*
X175995Y220643D01*
X176826Y222650D01*
X178363Y224187D01*
X180370Y225018D01*
X182543Y225018D01*
X184550Y224187D01*
X186087Y222650D01*
X186545Y221543D01*
X186546Y221542D01*
X186546Y221541D01*
X186618Y221420D01*
X186690Y221299D01*
X186691Y221298D01*
X186692Y221296D01*
X186796Y221199D01*
X186896Y221103D01*
X186898Y221103D01*
X186899Y221102D01*
X187025Y221037D01*
X187149Y220973D01*
X187151Y220973D01*
X187152Y220972D01*
X187167Y220970D01*
X187428Y220918D01*
X187459Y220921D01*
X187483Y220917D01*
X228754Y220917D01*
X239523Y210148D01*
X239523Y181012D01*
X217632Y159121D01*
X204147Y159121D01*
X204061Y159109D01*
X203973Y159106D01*
X203921Y159089D01*
X203866Y159081D01*
X203786Y159045D01*
X203703Y159018D01*
X203663Y158990D01*
X203606Y158965D01*
X203493Y158869D01*
X203429Y158824D01*
X178625Y134020D01*
X178625Y134019D01*
X178096Y133491D01*
X178078Y133466D01*
X178054Y133446D01*
X178012Y133379D01*
X177925Y133263D01*
X177903Y133203D01*
X177876Y133161D01*
X177350Y131891D01*
X175814Y130355D01*
X173806Y129523D01*
X171634Y129523D01*
X169626Y130355D01*
X168090Y131891D01*
X167258Y133899D01*
X167258Y136071D01*
X168090Y138079D01*
X169358Y139347D01*
X169393Y139394D01*
X169436Y139434D01*
X169478Y139507D01*
X169529Y139574D01*
X169550Y139629D01*
X169579Y139680D01*
X169600Y139761D01*
X169630Y139840D01*
X169635Y139898D01*
X169649Y139955D01*
X169647Y140039D01*
X169654Y140123D01*
X169642Y140181D01*
X169640Y140239D01*
X169614Y140319D01*
X169598Y140402D01*
X169571Y140454D01*
X169553Y140510D01*
X169513Y140566D01*
X169467Y140654D01*
X169398Y140727D01*
X169393Y140734D01*
X169385Y140748D01*
X169380Y140752D01*
X169360Y140780D01*
X168903Y141885D01*
X168873Y141935D01*
X168852Y141989D01*
X168801Y142057D01*
X168758Y142129D01*
X168716Y142170D01*
X168680Y142216D01*
X168613Y142267D01*
X168552Y142325D01*
X168500Y142351D01*
X168453Y142386D01*
X168374Y142416D01*
X168299Y142455D01*
X168241Y142466D01*
X168187Y142487D01*
X168103Y142493D01*
X168020Y142510D01*
X167962Y142505D01*
X167903Y142509D01*
X167836Y142494D01*
X167737Y142485D01*
X167643Y142449D01*
X167576Y142434D01*
X166186Y141858D01*
X164014Y141858D01*
X162006Y142690D01*
X160470Y144226D01*
X159638Y146234D01*
X159638Y148406D01*
X160470Y150414D01*
X162006Y151950D01*
X164014Y152782D01*
X165830Y152782D01*
X165916Y152794D01*
X166004Y152797D01*
X166056Y152814D01*
X166111Y152822D01*
X166191Y152857D01*
X166274Y152884D01*
X166313Y152912D01*
X166371Y152938D01*
X166484Y153034D01*
X166548Y153079D01*
X166891Y153423D01*
X166937Y153427D01*
X166963Y153437D01*
X166990Y153441D01*
X167095Y153488D01*
X167202Y153529D01*
X167224Y153545D01*
X167250Y153557D01*
X167337Y153631D01*
X167429Y153700D01*
X167446Y153723D01*
X167467Y153740D01*
X167530Y153836D01*
X167599Y153928D01*
X167609Y153954D01*
X167624Y153977D01*
X167659Y154087D01*
X167700Y154194D01*
X167702Y154222D01*
X167710Y154248D01*
X167713Y154363D01*
X167722Y154477D01*
X167717Y154502D01*
X167717Y154532D01*
X167650Y154789D01*
X167647Y154805D01*
X167258Y155743D01*
X167258Y157559D01*
X167246Y157645D01*
X167243Y157733D01*
X167226Y157785D01*
X167218Y157840D01*
X167183Y157920D01*
X167156Y158003D01*
X167128Y158042D01*
X167102Y158100D01*
X167006Y158213D01*
X166961Y158277D01*
X163484Y161754D01*
X163414Y161806D01*
X163350Y161866D01*
X163300Y161892D01*
X163256Y161925D01*
X163175Y161956D01*
X163097Y161996D01*
X163049Y162004D01*
X162991Y162026D01*
X162843Y162038D01*
X162766Y162051D01*
X157496Y162051D01*
X157409Y162039D01*
X157322Y162036D01*
X157269Y162019D01*
X157214Y162011D01*
X157135Y161976D01*
X157051Y161949D01*
X157012Y161921D01*
X156955Y161895D01*
X156842Y161799D01*
X156778Y161754D01*
X155494Y160470D01*
X153486Y159638D01*
X151314Y159638D01*
X149306Y160470D01*
X148872Y160904D01*
X148825Y160939D01*
X148785Y160982D01*
X148712Y161025D01*
X148644Y161075D01*
X148590Y161096D01*
X148539Y161126D01*
X148458Y161146D01*
X148379Y161176D01*
X148320Y161181D01*
X148264Y161196D01*
X148180Y161193D01*
X148096Y161200D01*
X148038Y161188D01*
X147980Y161187D01*
X147899Y161161D01*
X147817Y161144D01*
X147765Y161117D01*
X147709Y161099D01*
X147653Y161059D01*
X147564Y161013D01*
X147492Y160944D01*
X147436Y160904D01*
X147269Y160738D01*
X147234Y160691D01*
X147192Y160651D01*
X147149Y160578D01*
X147099Y160511D01*
X147078Y160456D01*
X147048Y160406D01*
X147027Y160324D01*
X146997Y160245D01*
X146992Y160187D01*
X146978Y160130D01*
X146981Y160046D01*
X146974Y159962D01*
X146985Y159904D01*
X146987Y159846D01*
X147013Y159766D01*
X147030Y159683D01*
X147057Y159631D01*
X147075Y159575D01*
X147115Y159519D01*
X147161Y159431D01*
X147229Y159358D01*
X147269Y159302D01*
X150825Y155746D01*
X150826Y155746D01*
X152909Y153663D01*
X152909Y148597D01*
X146043Y141731D01*
X108363Y141731D01*
X108277Y141719D01*
X108189Y141716D01*
X108137Y141699D01*
X108082Y141691D01*
X108002Y141656D01*
X107919Y141629D01*
X107880Y141601D01*
X107822Y141575D01*
X107709Y141479D01*
X107645Y141434D01*
X107486Y141275D01*
X107434Y141205D01*
X107374Y141141D01*
X107348Y141091D01*
X107315Y141047D01*
X107284Y140966D01*
X107244Y140888D01*
X107236Y140840D01*
X107214Y140782D01*
X107202Y140634D01*
X107189Y140557D01*
X107189Y124938D01*
X107201Y124851D01*
X107204Y124764D01*
X107221Y124711D01*
X107229Y124657D01*
X107264Y124577D01*
X107291Y124494D01*
X107319Y124454D01*
X107345Y124397D01*
X107441Y124284D01*
X107486Y124220D01*
X132475Y99231D01*
X132545Y99179D01*
X132609Y99119D01*
X132658Y99093D01*
X132702Y99060D01*
X132784Y99029D01*
X132862Y98989D01*
X132910Y98981D01*
X132968Y98959D01*
X133116Y98947D01*
X133193Y98934D01*
X155999Y98934D01*
X156113Y98950D01*
X156227Y98960D01*
X156253Y98970D01*
X156281Y98974D01*
X156385Y99021D01*
X156493Y99062D01*
X156515Y99078D01*
X156540Y99090D01*
X156628Y99164D01*
X156719Y99233D01*
X156736Y99256D01*
X156757Y99273D01*
X156821Y99369D01*
X156889Y99461D01*
X156899Y99487D01*
X156915Y99510D01*
X156949Y99620D01*
X156990Y99727D01*
X156992Y99755D01*
X157000Y99781D01*
X157003Y99896D01*
X157012Y100010D01*
X157007Y100035D01*
X157008Y100065D01*
X156940Y100323D01*
X156937Y100338D01*
X156820Y100621D01*
X156675Y101347D01*
X162560Y101347D01*
X168445Y101347D01*
X168300Y100621D01*
X167825Y99472D01*
X167821Y99466D01*
X167770Y99378D01*
X167760Y99338D01*
X167742Y99301D01*
X167725Y99201D01*
X167700Y99103D01*
X167701Y99062D01*
X167694Y99021D01*
X167706Y98920D01*
X167709Y98819D01*
X167722Y98779D01*
X167727Y98738D01*
X167765Y98645D01*
X167797Y98548D01*
X167818Y98518D01*
X167836Y98476D01*
X167952Y98330D01*
X167991Y98275D01*
X175590Y90676D01*
X175591Y90676D01*
X177674Y88592D01*
X177674Y82527D01*
X177674Y82525D01*
X177674Y82524D01*
X177694Y82384D01*
X177714Y82245D01*
X177714Y82244D01*
X177714Y82242D01*
X177771Y82116D01*
X177830Y81986D01*
X177831Y81985D01*
X177832Y81983D01*
X177923Y81876D01*
X178013Y81769D01*
X178015Y81768D01*
X178016Y81767D01*
X178029Y81759D01*
X178250Y81611D01*
X178279Y81602D01*
X178300Y81589D01*
X180132Y80830D01*
X181668Y79294D01*
X182107Y78235D01*
X182165Y78136D01*
X182218Y78034D01*
X182237Y78014D01*
X182251Y77990D01*
X182335Y77911D01*
X182414Y77828D01*
X182438Y77814D01*
X182458Y77795D01*
X182560Y77742D01*
X182659Y77684D01*
X182686Y77677D01*
X182711Y77664D01*
X182823Y77642D01*
X182935Y77614D01*
X182963Y77615D01*
X182990Y77609D01*
X183104Y77619D01*
X183219Y77623D01*
X183245Y77632D01*
X183273Y77634D01*
X183380Y77675D01*
X183489Y77710D01*
X183510Y77725D01*
X183538Y77736D01*
X183750Y77896D01*
X183763Y77905D01*
X184155Y78297D01*
X185132Y78950D01*
X186219Y79400D01*
X186945Y79545D01*
X186945Y73660D01*
X186945Y67775D01*
X186219Y67920D01*
X185132Y68370D01*
X184154Y69023D01*
X183323Y69854D01*
X182670Y70832D01*
X182292Y71745D01*
X182233Y71843D01*
X182181Y71945D01*
X182161Y71965D01*
X182147Y71989D01*
X182064Y72068D01*
X181985Y72151D01*
X181961Y72166D01*
X181941Y72185D01*
X181839Y72237D01*
X181739Y72295D01*
X181713Y72302D01*
X181688Y72315D01*
X181575Y72337D01*
X181464Y72365D01*
X181436Y72364D01*
X181409Y72370D01*
X181294Y72360D01*
X181180Y72356D01*
X181153Y72348D01*
X181126Y72345D01*
X181019Y72304D01*
X180909Y72269D01*
X180889Y72254D01*
X180860Y72243D01*
X180648Y72083D01*
X180636Y72074D01*
X180132Y71570D01*
X178124Y70738D01*
X175952Y70738D01*
X175014Y71127D01*
X174902Y71155D01*
X174793Y71190D01*
X174765Y71191D01*
X174738Y71198D01*
X174624Y71195D01*
X174509Y71197D01*
X174482Y71190D01*
X174454Y71190D01*
X174345Y71155D01*
X174234Y71126D01*
X174210Y71111D01*
X174183Y71103D01*
X174088Y71039D01*
X173989Y70980D01*
X173970Y70960D01*
X173947Y70945D01*
X173873Y70857D01*
X173795Y70773D01*
X173782Y70748D01*
X173764Y70727D01*
X173718Y70622D01*
X173665Y70520D01*
X173661Y70495D01*
X173649Y70467D01*
X173612Y70204D01*
X173610Y70189D01*
X173610Y56261D01*
X173618Y56203D01*
X173616Y56145D01*
X173638Y56063D01*
X173650Y55979D01*
X173673Y55926D01*
X173688Y55870D01*
X173731Y55797D01*
X173766Y55720D01*
X173804Y55675D01*
X173833Y55625D01*
X173895Y55567D01*
X173949Y55503D01*
X173998Y55471D01*
X174041Y55431D01*
X174116Y55392D01*
X174186Y55345D01*
X174242Y55328D01*
X174294Y55301D01*
X174362Y55290D01*
X174457Y55260D01*
X174557Y55257D01*
X174625Y55246D01*
X176666Y55246D01*
X177765Y54146D01*
X177835Y54094D01*
X177899Y54034D01*
X177948Y54008D01*
X177992Y53975D01*
X178074Y53944D01*
X178152Y53904D01*
X178200Y53896D01*
X178258Y53874D01*
X178406Y53862D01*
X178483Y53849D01*
X184143Y53849D01*
X186385Y51606D01*
X186882Y51110D01*
X186906Y51091D01*
X186926Y51068D01*
X186993Y51026D01*
X187109Y50939D01*
X187169Y50916D01*
X187211Y50890D01*
X188514Y50350D01*
X189426Y49438D01*
X189438Y49429D01*
X189448Y49417D01*
X189551Y49344D01*
X189653Y49268D01*
X189668Y49262D01*
X189680Y49253D01*
X189800Y49212D01*
X189918Y49166D01*
X189934Y49165D01*
X189949Y49160D01*
X190075Y49153D01*
X190202Y49143D01*
X190217Y49146D01*
X190233Y49145D01*
X190356Y49174D01*
X190480Y49199D01*
X190495Y49206D01*
X190510Y49210D01*
X190620Y49271D01*
X190733Y49330D01*
X190744Y49340D01*
X190758Y49348D01*
X190806Y49399D01*
X190841Y49433D01*
X190872Y49455D01*
X191774Y50357D01*
X192752Y51010D01*
X193839Y51460D01*
X194565Y51605D01*
X194565Y45720D01*
X194573Y45662D01*
X194571Y45604D01*
X194593Y45522D01*
X194604Y45439D01*
X194628Y45385D01*
X194643Y45329D01*
X194686Y45256D01*
X194721Y45179D01*
X194758Y45135D01*
X194788Y45085D01*
X194789Y45084D01*
X194850Y45027D01*
X194904Y44962D01*
X194905Y44962D01*
X194953Y44930D01*
X194996Y44889D01*
X195071Y44851D01*
X195141Y44804D01*
X195197Y44787D01*
X195249Y44760D01*
X195317Y44749D01*
X195412Y44719D01*
X195512Y44716D01*
X195580Y44705D01*
X201465Y44705D01*
X201320Y43979D01*
X200870Y42892D01*
X200217Y41914D01*
X199386Y41083D01*
X198408Y40430D01*
X197321Y39980D01*
X196168Y39750D01*
X196105Y39750D01*
X196076Y39746D01*
X196047Y39749D01*
X195936Y39726D01*
X195824Y39710D01*
X195797Y39698D01*
X195768Y39693D01*
X195668Y39640D01*
X195564Y39594D01*
X195542Y39575D01*
X195516Y39562D01*
X195434Y39484D01*
X195347Y39411D01*
X195331Y39386D01*
X195310Y39366D01*
X195253Y39268D01*
X195190Y39174D01*
X195181Y39146D01*
X195166Y39121D01*
X195138Y39011D01*
X195104Y38903D01*
X195103Y38873D01*
X195096Y38845D01*
X195100Y38732D01*
X195097Y38619D01*
X195104Y38590D01*
X195105Y38561D01*
X195140Y38453D01*
X195169Y38344D01*
X195184Y38318D01*
X195193Y38290D01*
X195238Y38226D01*
X195314Y38099D01*
X195359Y38056D01*
X195387Y38017D01*
X195713Y37692D01*
X197105Y34331D01*
X197105Y16469D01*
X195713Y13108D01*
X193483Y10878D01*
X193465Y10854D01*
X193442Y10836D01*
X193380Y10741D01*
X193312Y10651D01*
X193301Y10623D01*
X193285Y10599D01*
X193251Y10491D01*
X193210Y10385D01*
X193208Y10356D01*
X193199Y10328D01*
X193196Y10214D01*
X193187Y10102D01*
X193193Y10073D01*
X193192Y10044D01*
X193220Y9934D01*
X193243Y9823D01*
X193256Y9797D01*
X193264Y9769D01*
X193321Y9671D01*
X193374Y9571D01*
X193394Y9549D01*
X193409Y9524D01*
X193491Y9447D01*
X193569Y9365D01*
X193595Y9350D01*
X193616Y9330D01*
X193717Y9278D01*
X193815Y9221D01*
X193843Y9214D01*
X193869Y9200D01*
X193947Y9187D01*
X194090Y9151D01*
X194153Y9153D01*
X194200Y9145D01*
X207120Y9145D01*
X207149Y9149D01*
G37*
G36*
X99801Y9149D02*
X99801Y9149D01*
X99831Y9146D01*
X99942Y9169D01*
X100054Y9185D01*
X100080Y9197D01*
X100109Y9202D01*
X100210Y9255D01*
X100313Y9301D01*
X100336Y9320D01*
X100362Y9333D01*
X100444Y9411D01*
X100530Y9485D01*
X100546Y9509D01*
X100568Y9529D01*
X100625Y9627D01*
X100688Y9721D01*
X100697Y9749D01*
X100711Y9774D01*
X100739Y9884D01*
X100774Y9992D01*
X100774Y10022D01*
X100781Y10050D01*
X100778Y10163D01*
X100781Y10276D01*
X100773Y10305D01*
X100772Y10334D01*
X100738Y10442D01*
X100709Y10551D01*
X100694Y10577D01*
X100685Y10605D01*
X100639Y10668D01*
X100564Y10796D01*
X100518Y10839D01*
X100490Y10878D01*
X98551Y12817D01*
X98551Y33686D01*
X98539Y33773D01*
X98536Y33860D01*
X98519Y33913D01*
X98511Y33968D01*
X98476Y34048D01*
X98449Y34131D01*
X98421Y34170D01*
X98395Y34227D01*
X98299Y34340D01*
X98254Y34404D01*
X81967Y50692D01*
X81897Y50744D01*
X81833Y50804D01*
X81784Y50829D01*
X81739Y50862D01*
X81658Y50894D01*
X81580Y50933D01*
X81532Y50941D01*
X81474Y50964D01*
X81326Y50976D01*
X81249Y50989D01*
X79433Y50989D01*
X77425Y51820D01*
X75889Y53357D01*
X75057Y55364D01*
X75057Y57537D01*
X75889Y59545D01*
X77425Y61081D01*
X79433Y61912D01*
X81605Y61912D01*
X83613Y61081D01*
X85149Y59545D01*
X85981Y57537D01*
X85981Y55721D01*
X85993Y55634D01*
X85996Y55547D01*
X86013Y55494D01*
X86021Y55439D01*
X86056Y55360D01*
X86083Y55276D01*
X86111Y55237D01*
X86137Y55180D01*
X86233Y55067D01*
X86278Y55003D01*
X103080Y38201D01*
X103127Y38166D01*
X103167Y38123D01*
X103240Y38081D01*
X103308Y38030D01*
X103362Y38009D01*
X103413Y37980D01*
X103494Y37959D01*
X103573Y37929D01*
X103632Y37924D01*
X103688Y37909D01*
X103772Y37912D01*
X103857Y37905D01*
X103914Y37917D01*
X103972Y37918D01*
X104053Y37944D01*
X104135Y37961D01*
X104187Y37988D01*
X104243Y38006D01*
X104299Y38046D01*
X104388Y38092D01*
X104460Y38161D01*
X104516Y38201D01*
X105435Y39120D01*
X105504Y39211D01*
X105578Y39299D01*
X105589Y39325D01*
X105606Y39347D01*
X105647Y39454D01*
X105694Y39559D01*
X105697Y39587D01*
X105707Y39613D01*
X105717Y39727D01*
X105732Y39841D01*
X105729Y39868D01*
X105731Y39896D01*
X105708Y40008D01*
X105692Y40122D01*
X105680Y40147D01*
X105675Y40175D01*
X105622Y40277D01*
X105575Y40381D01*
X105557Y40402D01*
X105544Y40427D01*
X105465Y40510D01*
X105390Y40598D01*
X105369Y40611D01*
X105348Y40633D01*
X105118Y40768D01*
X105106Y40776D01*
X104347Y41090D01*
X102811Y42626D01*
X101979Y44634D01*
X101979Y46806D01*
X102811Y48814D01*
X103587Y49590D01*
X103639Y49660D01*
X103699Y49724D01*
X103725Y49773D01*
X103758Y49817D01*
X103789Y49899D01*
X103829Y49977D01*
X103837Y50024D01*
X103859Y50083D01*
X103871Y50231D01*
X103884Y50308D01*
X103884Y60654D01*
X105615Y62385D01*
X105684Y62476D01*
X105758Y62564D01*
X105769Y62590D01*
X105786Y62612D01*
X105827Y62719D01*
X105873Y62824D01*
X105877Y62852D01*
X105887Y62877D01*
X105896Y62992D01*
X105912Y63106D01*
X105908Y63133D01*
X105910Y63161D01*
X105888Y63273D01*
X105871Y63387D01*
X105860Y63412D01*
X105854Y63440D01*
X105802Y63541D01*
X105754Y63646D01*
X105736Y63667D01*
X105723Y63692D01*
X105644Y63775D01*
X105570Y63863D01*
X105549Y63876D01*
X105528Y63898D01*
X105298Y64033D01*
X105285Y64041D01*
X104347Y64429D01*
X102811Y65965D01*
X101979Y67973D01*
X101979Y69789D01*
X101967Y69876D01*
X101964Y69963D01*
X101947Y70016D01*
X101939Y70070D01*
X101904Y70150D01*
X101877Y70234D01*
X101849Y70273D01*
X101823Y70330D01*
X101727Y70443D01*
X101682Y70507D01*
X92111Y80078D01*
X92111Y84984D01*
X92099Y85071D01*
X92096Y85158D01*
X92079Y85211D01*
X92071Y85266D01*
X92036Y85345D01*
X92009Y85429D01*
X91981Y85468D01*
X91955Y85525D01*
X91859Y85638D01*
X91814Y85702D01*
X90530Y86986D01*
X89698Y88994D01*
X89698Y91166D01*
X90530Y93174D01*
X92066Y94710D01*
X94074Y95542D01*
X96246Y95542D01*
X98254Y94710D01*
X99790Y93174D01*
X100622Y91166D01*
X100622Y88994D01*
X99790Y86986D01*
X98506Y85702D01*
X98454Y85632D01*
X98394Y85568D01*
X98368Y85519D01*
X98335Y85475D01*
X98304Y85393D01*
X98264Y85315D01*
X98256Y85268D01*
X98234Y85209D01*
X98222Y85061D01*
X98209Y84984D01*
X98209Y83024D01*
X98221Y82937D01*
X98224Y82850D01*
X98241Y82797D01*
X98248Y82742D01*
X98284Y82662D01*
X98311Y82579D01*
X98339Y82540D01*
X98365Y82483D01*
X98460Y82370D01*
X98506Y82306D01*
X105993Y74818D01*
X106063Y74766D01*
X106127Y74706D01*
X106176Y74681D01*
X106221Y74648D01*
X106302Y74616D01*
X106380Y74577D01*
X106428Y74569D01*
X106486Y74546D01*
X106634Y74534D01*
X106711Y74521D01*
X108527Y74521D01*
X110535Y73690D01*
X112071Y72153D01*
X112460Y71215D01*
X112518Y71116D01*
X112571Y71014D01*
X112590Y70994D01*
X112604Y70970D01*
X112688Y70891D01*
X112767Y70808D01*
X112791Y70794D01*
X112811Y70775D01*
X112913Y70722D01*
X113012Y70664D01*
X113039Y70658D01*
X113064Y70645D01*
X113177Y70623D01*
X113288Y70594D01*
X113315Y70595D01*
X113343Y70590D01*
X113457Y70600D01*
X113572Y70603D01*
X113598Y70612D01*
X113626Y70614D01*
X113733Y70656D01*
X113842Y70691D01*
X113863Y70705D01*
X113891Y70716D01*
X114104Y70877D01*
X114116Y70886D01*
X122987Y79757D01*
X153543Y79757D01*
X153601Y79765D01*
X153659Y79763D01*
X153741Y79785D01*
X153825Y79797D01*
X153878Y79820D01*
X153934Y79835D01*
X154007Y79878D01*
X154084Y79913D01*
X154129Y79951D01*
X154179Y79980D01*
X154237Y80042D01*
X154301Y80096D01*
X154333Y80145D01*
X154373Y80188D01*
X154412Y80263D01*
X154459Y80333D01*
X154476Y80389D01*
X154503Y80441D01*
X154514Y80509D01*
X154544Y80604D01*
X154547Y80704D01*
X154558Y80772D01*
X154558Y82366D01*
X154947Y83304D01*
X154975Y83416D01*
X155010Y83525D01*
X155011Y83553D01*
X155018Y83580D01*
X155015Y83694D01*
X155017Y83809D01*
X155010Y83836D01*
X155010Y83864D01*
X154975Y83973D01*
X154946Y84084D01*
X154931Y84108D01*
X154923Y84135D01*
X154859Y84230D01*
X154800Y84329D01*
X154780Y84348D01*
X154765Y84371D01*
X154677Y84445D01*
X154593Y84523D01*
X154568Y84536D01*
X154547Y84554D01*
X154442Y84600D01*
X154340Y84653D01*
X154315Y84657D01*
X154287Y84669D01*
X154024Y84706D01*
X154009Y84708D01*
X126880Y84708D01*
X106028Y105561D01*
X105936Y105630D01*
X105848Y105704D01*
X105823Y105715D01*
X105800Y105732D01*
X105693Y105773D01*
X105588Y105819D01*
X105561Y105823D01*
X105535Y105833D01*
X105420Y105842D01*
X105307Y105858D01*
X105279Y105854D01*
X105251Y105857D01*
X105139Y105834D01*
X105025Y105818D01*
X105000Y105806D01*
X104973Y105801D01*
X104871Y105748D01*
X104766Y105700D01*
X104745Y105682D01*
X104720Y105670D01*
X104637Y105591D01*
X104550Y105516D01*
X104536Y105495D01*
X104514Y105474D01*
X104380Y105244D01*
X104372Y105231D01*
X103690Y103586D01*
X102154Y102050D01*
X100146Y101218D01*
X97974Y101218D01*
X95966Y102050D01*
X94682Y103334D01*
X94612Y103386D01*
X94548Y103446D01*
X94499Y103472D01*
X94455Y103505D01*
X94373Y103536D01*
X94295Y103576D01*
X94248Y103584D01*
X94189Y103606D01*
X94041Y103618D01*
X93964Y103631D01*
X93123Y103631D01*
X93037Y103619D01*
X92949Y103616D01*
X92897Y103599D01*
X92842Y103591D01*
X92762Y103556D01*
X92679Y103529D01*
X92640Y103501D01*
X92582Y103475D01*
X92469Y103379D01*
X92405Y103334D01*
X78776Y89705D01*
X78724Y89635D01*
X78664Y89571D01*
X78638Y89522D01*
X78605Y89477D01*
X78574Y89396D01*
X78534Y89318D01*
X78526Y89270D01*
X78504Y89212D01*
X78492Y89064D01*
X78479Y88987D01*
X78479Y83066D01*
X78491Y82979D01*
X78494Y82892D01*
X78511Y82839D01*
X78519Y82784D01*
X78554Y82705D01*
X78581Y82621D01*
X78609Y82582D01*
X78635Y82525D01*
X78731Y82412D01*
X78776Y82348D01*
X80060Y81064D01*
X80892Y79056D01*
X80892Y76884D01*
X80060Y74876D01*
X78524Y73340D01*
X76516Y72508D01*
X74344Y72508D01*
X72336Y73340D01*
X70800Y74876D01*
X69968Y76884D01*
X69968Y79056D01*
X70800Y81064D01*
X72084Y82348D01*
X72136Y82418D01*
X72196Y82482D01*
X72222Y82531D01*
X72255Y82575D01*
X72286Y82657D01*
X72326Y82735D01*
X72334Y82782D01*
X72356Y82841D01*
X72368Y82989D01*
X72381Y83066D01*
X72381Y91933D01*
X90177Y109729D01*
X93964Y109729D01*
X94051Y109741D01*
X94138Y109744D01*
X94191Y109761D01*
X94246Y109769D01*
X94325Y109804D01*
X94409Y109831D01*
X94448Y109859D01*
X94505Y109885D01*
X94618Y109981D01*
X94682Y110026D01*
X95966Y111310D01*
X97611Y111992D01*
X97710Y112050D01*
X97812Y112103D01*
X97832Y112122D01*
X97856Y112136D01*
X97935Y112220D01*
X98018Y112299D01*
X98032Y112323D01*
X98051Y112343D01*
X98104Y112445D01*
X98162Y112544D01*
X98169Y112571D01*
X98182Y112596D01*
X98204Y112709D01*
X98232Y112820D01*
X98231Y112847D01*
X98237Y112875D01*
X98227Y112989D01*
X98223Y113104D01*
X98215Y113130D01*
X98212Y113158D01*
X98171Y113265D01*
X98136Y113374D01*
X98121Y113395D01*
X98110Y113423D01*
X97949Y113636D01*
X97941Y113648D01*
X87740Y123848D01*
X87740Y128365D01*
X87736Y128394D01*
X87739Y128423D01*
X87716Y128535D01*
X87700Y128647D01*
X87688Y128673D01*
X87683Y128702D01*
X87630Y128803D01*
X87584Y128906D01*
X87565Y128928D01*
X87552Y128955D01*
X87474Y129037D01*
X87401Y129123D01*
X87376Y129139D01*
X87356Y129161D01*
X87258Y129218D01*
X87164Y129281D01*
X87136Y129290D01*
X87111Y129304D01*
X87001Y129332D01*
X86893Y129366D01*
X86863Y129367D01*
X86835Y129374D01*
X86722Y129371D01*
X86609Y129374D01*
X86580Y129366D01*
X86551Y129365D01*
X86443Y129331D01*
X86334Y129302D01*
X86308Y129287D01*
X86280Y129278D01*
X86216Y129232D01*
X86089Y129157D01*
X86046Y129111D01*
X86007Y129083D01*
X84374Y127450D01*
X82415Y126639D01*
X82414Y126638D01*
X82413Y126637D01*
X82294Y126567D01*
X82171Y126494D01*
X82170Y126493D01*
X82168Y126492D01*
X82071Y126388D01*
X81975Y126287D01*
X81975Y126286D01*
X81974Y126285D01*
X81909Y126159D01*
X81845Y126035D01*
X81845Y126033D01*
X81844Y126032D01*
X81842Y126017D01*
X81790Y125756D01*
X81793Y125725D01*
X81789Y125701D01*
X81789Y121936D01*
X81801Y121849D01*
X81804Y121762D01*
X81821Y121709D01*
X81829Y121654D01*
X81864Y121575D01*
X81891Y121491D01*
X81919Y121452D01*
X81945Y121395D01*
X82041Y121282D01*
X82086Y121218D01*
X83370Y119934D01*
X84202Y117926D01*
X84202Y115754D01*
X83370Y113746D01*
X81834Y112210D01*
X79826Y111378D01*
X77654Y111378D01*
X75646Y112210D01*
X74110Y113746D01*
X74090Y113794D01*
X74046Y113868D01*
X74011Y113946D01*
X73974Y113990D01*
X73945Y114039D01*
X73883Y114098D01*
X73827Y114163D01*
X73780Y114195D01*
X73739Y114234D01*
X73662Y114273D01*
X73591Y114321D01*
X73537Y114338D01*
X73486Y114364D01*
X73402Y114381D01*
X73320Y114407D01*
X73263Y114408D01*
X73207Y114419D01*
X73122Y114412D01*
X73036Y114414D01*
X72981Y114400D01*
X72924Y114395D01*
X72844Y114364D01*
X72761Y114342D01*
X72712Y114313D01*
X72659Y114293D01*
X72590Y114241D01*
X72516Y114197D01*
X72477Y114155D01*
X72432Y114121D01*
X72381Y114052D01*
X72322Y113990D01*
X72296Y113939D01*
X72262Y113894D01*
X72231Y113813D01*
X72192Y113737D01*
X72184Y113688D01*
X72161Y113628D01*
X72150Y113483D01*
X72137Y113406D01*
X72137Y98358D01*
X70822Y95184D01*
X68392Y92754D01*
X65218Y91439D01*
X61782Y91439D01*
X58608Y92754D01*
X56178Y95184D01*
X54863Y98358D01*
X54863Y115002D01*
X56178Y118176D01*
X58608Y120606D01*
X61782Y121921D01*
X65218Y121921D01*
X68392Y120606D01*
X70822Y118176D01*
X71325Y116962D01*
X71369Y116888D01*
X71404Y116809D01*
X71441Y116766D01*
X71470Y116717D01*
X71532Y116658D01*
X71588Y116592D01*
X71635Y116561D01*
X71676Y116522D01*
X71753Y116482D01*
X71824Y116435D01*
X71878Y116417D01*
X71929Y116391D01*
X72013Y116375D01*
X72095Y116349D01*
X72152Y116347D01*
X72208Y116336D01*
X72293Y116344D01*
X72379Y116341D01*
X72434Y116356D01*
X72491Y116361D01*
X72571Y116392D01*
X72654Y116413D01*
X72703Y116442D01*
X72756Y116463D01*
X72825Y116515D01*
X72899Y116559D01*
X72938Y116600D01*
X72983Y116634D01*
X73035Y116703D01*
X73093Y116766D01*
X73119Y116816D01*
X73153Y116862D01*
X73184Y116943D01*
X73223Y117019D01*
X73231Y117068D01*
X73254Y117128D01*
X73265Y117273D01*
X73278Y117350D01*
X73278Y117926D01*
X74110Y119934D01*
X75394Y121218D01*
X75446Y121288D01*
X75506Y121352D01*
X75532Y121401D01*
X75565Y121445D01*
X75596Y121527D01*
X75636Y121605D01*
X75644Y121652D01*
X75666Y121711D01*
X75678Y121859D01*
X75691Y121936D01*
X75691Y128214D01*
X75681Y128286D01*
X75681Y128358D01*
X75661Y128426D01*
X75651Y128496D01*
X75622Y128562D01*
X75602Y128631D01*
X75564Y128691D01*
X75535Y128755D01*
X75489Y128810D01*
X75450Y128871D01*
X75397Y128918D01*
X75352Y128972D01*
X75291Y129012D01*
X75237Y129060D01*
X75174Y129091D01*
X75115Y129130D01*
X75046Y129152D01*
X74981Y129183D01*
X74911Y129194D01*
X74844Y129216D01*
X74772Y129217D01*
X74700Y129229D01*
X74630Y129221D01*
X74560Y129223D01*
X74490Y129205D01*
X74418Y129196D01*
X74363Y129172D01*
X74285Y129151D01*
X74181Y129090D01*
X74112Y129058D01*
X73948Y128949D01*
X72861Y128499D01*
X72135Y128354D01*
X72135Y134239D01*
X72135Y140124D01*
X72861Y139979D01*
X73948Y139529D01*
X74926Y138876D01*
X75757Y138045D01*
X76410Y137067D01*
X76453Y136963D01*
X76512Y136864D01*
X76565Y136762D01*
X76584Y136742D01*
X76598Y136718D01*
X76681Y136639D01*
X76760Y136556D01*
X76784Y136542D01*
X76805Y136523D01*
X76907Y136470D01*
X77006Y136412D01*
X77033Y136405D01*
X77057Y136393D01*
X77170Y136370D01*
X77281Y136342D01*
X77309Y136343D01*
X77336Y136337D01*
X77451Y136347D01*
X77565Y136351D01*
X77592Y136360D01*
X77619Y136362D01*
X77727Y136403D01*
X77836Y136438D01*
X77856Y136453D01*
X77885Y136464D01*
X78098Y136625D01*
X78109Y136633D01*
X78111Y136635D01*
X78111Y136636D01*
X78186Y136710D01*
X80194Y137542D01*
X82366Y137542D01*
X84374Y136710D01*
X86007Y135077D01*
X86031Y135059D01*
X86050Y135037D01*
X86144Y134974D01*
X86234Y134906D01*
X86262Y134896D01*
X86286Y134879D01*
X86394Y134845D01*
X86500Y134805D01*
X86529Y134802D01*
X86557Y134794D01*
X86671Y134791D01*
X86783Y134781D01*
X86812Y134787D01*
X86841Y134786D01*
X86951Y134815D01*
X87062Y134837D01*
X87088Y134851D01*
X87116Y134858D01*
X87214Y134916D01*
X87314Y134968D01*
X87336Y134988D01*
X87361Y135003D01*
X87438Y135086D01*
X87520Y135164D01*
X87535Y135189D01*
X87555Y135211D01*
X87607Y135311D01*
X87664Y135409D01*
X87671Y135438D01*
X87685Y135464D01*
X87698Y135541D01*
X87734Y135685D01*
X87732Y135747D01*
X87740Y135795D01*
X87740Y139684D01*
X87728Y139771D01*
X87725Y139858D01*
X87708Y139911D01*
X87700Y139966D01*
X87665Y140045D01*
X87638Y140129D01*
X87610Y140168D01*
X87584Y140225D01*
X87488Y140338D01*
X87443Y140402D01*
X86159Y141686D01*
X85327Y143694D01*
X85327Y145796D01*
X85319Y145854D01*
X85321Y145912D01*
X85299Y145994D01*
X85287Y146078D01*
X85264Y146131D01*
X85249Y146187D01*
X85206Y146260D01*
X85171Y146337D01*
X85133Y146382D01*
X85104Y146432D01*
X85042Y146490D01*
X84988Y146554D01*
X84939Y146586D01*
X84896Y146626D01*
X84821Y146665D01*
X84751Y146712D01*
X84695Y146729D01*
X84643Y146756D01*
X84575Y146767D01*
X84480Y146797D01*
X84380Y146800D01*
X84312Y146811D01*
X60976Y146811D01*
X60889Y146799D01*
X60802Y146796D01*
X60749Y146779D01*
X60694Y146771D01*
X60615Y146736D01*
X60531Y146709D01*
X60492Y146681D01*
X60435Y146655D01*
X60322Y146559D01*
X60258Y146514D01*
X58974Y145230D01*
X56966Y144398D01*
X54794Y144398D01*
X52786Y145230D01*
X51250Y146766D01*
X50937Y147521D01*
X50922Y147546D01*
X50913Y147574D01*
X50850Y147668D01*
X50793Y147766D01*
X50771Y147786D01*
X50755Y147810D01*
X50668Y147883D01*
X50586Y147961D01*
X50560Y147974D01*
X50537Y147993D01*
X50434Y148039D01*
X50333Y148091D01*
X50305Y148097D01*
X50278Y148109D01*
X50166Y148124D01*
X50054Y148146D01*
X50025Y148144D01*
X49996Y148148D01*
X49884Y148131D01*
X49771Y148122D01*
X49744Y148111D01*
X49715Y148107D01*
X49612Y148060D01*
X49506Y148020D01*
X49482Y148002D01*
X49456Y147990D01*
X49370Y147916D01*
X49279Y147848D01*
X49262Y147824D01*
X49239Y147805D01*
X49198Y147739D01*
X49109Y147620D01*
X49087Y147562D01*
X49061Y147521D01*
X47885Y144680D01*
X45312Y142107D01*
X41951Y140715D01*
X24089Y140715D01*
X20728Y142107D01*
X18155Y144680D01*
X16763Y148041D01*
X16763Y151679D01*
X18155Y155040D01*
X20728Y157613D01*
X24089Y159005D01*
X41951Y159005D01*
X45312Y157613D01*
X47885Y155040D01*
X49061Y152199D01*
X49076Y152174D01*
X49085Y152146D01*
X49148Y152052D01*
X49206Y151954D01*
X49227Y151934D01*
X49243Y151910D01*
X49330Y151837D01*
X49412Y151759D01*
X49439Y151746D01*
X49461Y151727D01*
X49564Y151681D01*
X49665Y151629D01*
X49694Y151623D01*
X49721Y151611D01*
X49833Y151596D01*
X49944Y151574D01*
X49973Y151576D01*
X50002Y151572D01*
X50115Y151589D01*
X50227Y151598D01*
X50255Y151609D01*
X50284Y151613D01*
X50387Y151660D01*
X50493Y151700D01*
X50516Y151718D01*
X50543Y151730D01*
X50629Y151804D01*
X50719Y151872D01*
X50737Y151895D01*
X50759Y151915D01*
X50801Y151981D01*
X50890Y152100D01*
X50912Y152158D01*
X50937Y152199D01*
X51250Y152954D01*
X52786Y154490D01*
X54794Y155322D01*
X56966Y155322D01*
X59068Y154451D01*
X59071Y154449D01*
X59099Y154438D01*
X59124Y154421D01*
X59190Y154400D01*
X59228Y154381D01*
X59264Y154375D01*
X59337Y154347D01*
X59367Y154345D01*
X59395Y154336D01*
X59508Y154333D01*
X59525Y154331D01*
X59559Y154326D01*
X59563Y154326D01*
X59574Y154327D01*
X59620Y154323D01*
X59649Y154329D01*
X59679Y154328D01*
X59788Y154357D01*
X59800Y154359D01*
X59845Y154365D01*
X59855Y154370D01*
X59899Y154379D01*
X59926Y154393D01*
X59954Y154400D01*
X60051Y154458D01*
X60057Y154461D01*
X60104Y154482D01*
X60114Y154490D01*
X60151Y154509D01*
X60173Y154530D01*
X60199Y154545D01*
X60275Y154626D01*
X60321Y154665D01*
X60330Y154678D01*
X60358Y154705D01*
X60373Y154731D01*
X60393Y154753D01*
X60440Y154845D01*
X60479Y154902D01*
X60484Y154921D01*
X60502Y154950D01*
X60509Y154979D01*
X60523Y155006D01*
X60536Y155082D01*
X60564Y155173D01*
X60565Y155197D01*
X60572Y155226D01*
X60570Y155289D01*
X60578Y155337D01*
X60578Y157423D01*
X60862Y158107D01*
X60890Y158219D01*
X60925Y158328D01*
X60926Y158356D01*
X60933Y158383D01*
X60929Y158497D01*
X60932Y158612D01*
X60925Y158639D01*
X60924Y158667D01*
X60889Y158776D01*
X60860Y158887D01*
X60846Y158911D01*
X60838Y158938D01*
X60774Y159033D01*
X60715Y159132D01*
X60695Y159151D01*
X60680Y159174D01*
X60592Y159248D01*
X60508Y159326D01*
X60483Y159339D01*
X60462Y159357D01*
X60357Y159403D01*
X60255Y159456D01*
X60230Y159460D01*
X60202Y159472D01*
X59938Y159509D01*
X59924Y159511D01*
X54617Y159511D01*
X50291Y163837D01*
X50291Y170786D01*
X50279Y170871D01*
X50277Y170957D01*
X50259Y171012D01*
X50251Y171068D01*
X50216Y171146D01*
X50190Y171228D01*
X50158Y171275D01*
X50135Y171327D01*
X50080Y171393D01*
X50032Y171464D01*
X49988Y171501D01*
X49952Y171544D01*
X49880Y171592D01*
X49814Y171647D01*
X49762Y171670D01*
X49715Y171702D01*
X49633Y171728D01*
X49554Y171763D01*
X49498Y171770D01*
X49444Y171788D01*
X49358Y171790D01*
X49273Y171802D01*
X49217Y171793D01*
X49160Y171795D01*
X49077Y171773D01*
X48991Y171761D01*
X48940Y171737D01*
X48885Y171723D01*
X48811Y171679D01*
X48732Y171644D01*
X48689Y171607D01*
X48640Y171578D01*
X48581Y171515D01*
X48516Y171459D01*
X48490Y171418D01*
X48446Y171371D01*
X48380Y171241D01*
X48338Y171175D01*
X47885Y170080D01*
X45312Y167507D01*
X41951Y166115D01*
X24089Y166115D01*
X20728Y167507D01*
X18155Y170080D01*
X16763Y173441D01*
X16763Y177079D01*
X18155Y180440D01*
X20728Y183013D01*
X24089Y184405D01*
X41022Y184405D01*
X41080Y184413D01*
X41138Y184411D01*
X41220Y184433D01*
X41304Y184445D01*
X41357Y184468D01*
X41413Y184483D01*
X41486Y184526D01*
X41563Y184561D01*
X41608Y184599D01*
X41658Y184628D01*
X41716Y184690D01*
X41780Y184744D01*
X41812Y184793D01*
X41852Y184836D01*
X41891Y184911D01*
X41938Y184981D01*
X41955Y185037D01*
X41982Y185089D01*
X41993Y185157D01*
X42023Y185252D01*
X42026Y185352D01*
X42037Y185420D01*
X42037Y186760D01*
X42869Y188768D01*
X44405Y190304D01*
X46413Y191136D01*
X48585Y191136D01*
X50593Y190304D01*
X52129Y188768D01*
X52961Y186760D01*
X52961Y186216D01*
X52965Y186187D01*
X52962Y186158D01*
X52985Y186047D01*
X53001Y185935D01*
X53013Y185908D01*
X53018Y185879D01*
X53071Y185779D01*
X53117Y185675D01*
X53136Y185653D01*
X53149Y185627D01*
X53227Y185545D01*
X53300Y185458D01*
X53325Y185442D01*
X53345Y185421D01*
X53443Y185364D01*
X53537Y185301D01*
X53565Y185292D01*
X53590Y185277D01*
X53700Y185249D01*
X53808Y185215D01*
X53838Y185214D01*
X53866Y185207D01*
X53979Y185211D01*
X54092Y185208D01*
X54121Y185215D01*
X54150Y185216D01*
X54258Y185251D01*
X54367Y185279D01*
X54393Y185294D01*
X54421Y185303D01*
X54485Y185349D01*
X54612Y185425D01*
X54655Y185470D01*
X54694Y185498D01*
X55124Y185929D01*
X92433Y185929D01*
X92881Y185481D01*
X92905Y185463D01*
X92924Y185441D01*
X93018Y185378D01*
X93108Y185310D01*
X93136Y185299D01*
X93160Y185283D01*
X93268Y185249D01*
X93374Y185208D01*
X93403Y185206D01*
X93431Y185197D01*
X93545Y185194D01*
X93657Y185185D01*
X93686Y185191D01*
X93715Y185190D01*
X93825Y185218D01*
X93936Y185241D01*
X93962Y185254D01*
X93990Y185262D01*
X94088Y185319D01*
X94188Y185372D01*
X94210Y185392D01*
X94235Y185407D01*
X94312Y185490D01*
X94394Y185568D01*
X94409Y185593D01*
X94429Y185614D01*
X94481Y185715D01*
X94538Y185813D01*
X94545Y185841D01*
X94559Y185867D01*
X94572Y185945D01*
X94608Y186088D01*
X94606Y186151D01*
X94614Y186198D01*
X94614Y194446D01*
X97397Y197229D01*
X97450Y197298D01*
X97510Y197362D01*
X97535Y197412D01*
X97568Y197456D01*
X97599Y197538D01*
X97639Y197616D01*
X97647Y197663D01*
X97669Y197722D01*
X97676Y197798D01*
X97681Y197813D01*
X97682Y197872D01*
X97695Y197947D01*
X97695Y204057D01*
X97682Y204143D01*
X97680Y204231D01*
X97663Y204283D01*
X97655Y204338D01*
X97619Y204418D01*
X97592Y204501D01*
X97564Y204540D01*
X97539Y204598D01*
X97479Y204668D01*
X97455Y204709D01*
X97423Y204738D01*
X97397Y204774D01*
X97238Y204934D01*
X97168Y204986D01*
X97104Y205046D01*
X97055Y205072D01*
X97011Y205105D01*
X96929Y205136D01*
X96851Y205176D01*
X96804Y205184D01*
X96745Y205206D01*
X96597Y205218D01*
X96520Y205231D01*
X74937Y205231D01*
X66218Y213951D01*
X66148Y214003D01*
X66084Y214063D01*
X66034Y214089D01*
X65990Y214122D01*
X65909Y214153D01*
X65831Y214193D01*
X65783Y214201D01*
X65725Y214223D01*
X65577Y214235D01*
X65500Y214248D01*
X63516Y214248D01*
X63429Y214236D01*
X63342Y214233D01*
X63289Y214216D01*
X63234Y214208D01*
X63155Y214173D01*
X63071Y214146D01*
X63032Y214118D01*
X62975Y214092D01*
X62862Y213996D01*
X62798Y213951D01*
X61514Y212667D01*
X59506Y211835D01*
X57334Y211835D01*
X55326Y212667D01*
X53790Y214203D01*
X52958Y216211D01*
X52958Y217185D01*
X52944Y217285D01*
X52938Y217386D01*
X52924Y217425D01*
X52918Y217466D01*
X52877Y217558D01*
X52843Y217654D01*
X52819Y217688D01*
X52802Y217725D01*
X52737Y217803D01*
X52678Y217885D01*
X52645Y217911D01*
X52619Y217942D01*
X52534Y217999D01*
X52455Y218061D01*
X52421Y218074D01*
X52382Y218100D01*
X52205Y218156D01*
X52141Y218180D01*
X50964Y218414D01*
X49878Y218864D01*
X48900Y219518D01*
X48788Y219629D01*
X48741Y219665D01*
X48701Y219707D01*
X48628Y219750D01*
X48561Y219800D01*
X48506Y219821D01*
X48456Y219851D01*
X48374Y219871D01*
X48295Y219901D01*
X48237Y219906D01*
X48180Y219921D01*
X48096Y219918D01*
X48012Y219925D01*
X47955Y219914D01*
X47896Y219912D01*
X47816Y219886D01*
X47733Y219869D01*
X47681Y219842D01*
X47626Y219824D01*
X47569Y219784D01*
X47481Y219738D01*
X47409Y219669D01*
X47352Y219629D01*
X46420Y218697D01*
X45191Y217804D01*
X43837Y217114D01*
X42392Y216645D01*
X40892Y216407D01*
X35051Y216407D01*
X35051Y225044D01*
X35043Y225102D01*
X35045Y225160D01*
X35023Y225242D01*
X35011Y225325D01*
X34987Y225379D01*
X34973Y225435D01*
X34930Y225508D01*
X34895Y225585D01*
X34857Y225629D01*
X34827Y225680D01*
X34766Y225737D01*
X34711Y225802D01*
X34663Y225834D01*
X34620Y225874D01*
X34545Y225913D01*
X34475Y225959D01*
X34419Y225977D01*
X34367Y226004D01*
X34299Y226015D01*
X34204Y226045D01*
X34104Y226048D01*
X34036Y226059D01*
X33019Y226059D01*
X33019Y226061D01*
X34036Y226061D01*
X34094Y226069D01*
X34152Y226068D01*
X34234Y226089D01*
X34317Y226101D01*
X34371Y226125D01*
X34427Y226139D01*
X34500Y226182D01*
X34577Y226217D01*
X34622Y226255D01*
X34672Y226285D01*
X34730Y226346D01*
X34794Y226401D01*
X34826Y226449D01*
X34866Y226492D01*
X34905Y226567D01*
X34951Y226637D01*
X34969Y226693D01*
X34996Y226745D01*
X35007Y226813D01*
X35037Y226908D01*
X35040Y227008D01*
X35051Y227076D01*
X35051Y235713D01*
X40892Y235713D01*
X42392Y235475D01*
X43837Y235006D01*
X45191Y234316D01*
X46420Y233423D01*
X47495Y232348D01*
X48388Y231119D01*
X48926Y230063D01*
X48936Y230048D01*
X48943Y230031D01*
X49018Y229932D01*
X49089Y229831D01*
X49103Y229819D01*
X49115Y229804D01*
X49214Y229730D01*
X49310Y229652D01*
X49327Y229645D01*
X49342Y229634D01*
X49459Y229590D01*
X49573Y229542D01*
X49591Y229540D01*
X49608Y229534D01*
X49732Y229524D01*
X49855Y229509D01*
X49873Y229512D01*
X49892Y229511D01*
X49963Y229527D01*
X50135Y229556D01*
X50180Y229577D01*
X50219Y229586D01*
X50964Y229895D01*
X51690Y230039D01*
X51690Y224155D01*
X51698Y224097D01*
X51697Y224039D01*
X51718Y223957D01*
X51730Y223874D01*
X51754Y223820D01*
X51768Y223764D01*
X51811Y223691D01*
X51846Y223614D01*
X51884Y223569D01*
X51914Y223519D01*
X51975Y223461D01*
X52030Y223397D01*
X52079Y223364D01*
X52121Y223324D01*
X52197Y223286D01*
X52267Y223239D01*
X52323Y223221D01*
X52375Y223195D01*
X52443Y223183D01*
X52538Y223153D01*
X52638Y223151D01*
X52706Y223139D01*
X58898Y223139D01*
X58899Y223138D01*
X58960Y223080D01*
X59015Y223016D01*
X59063Y222984D01*
X59106Y222944D01*
X59181Y222905D01*
X59251Y222858D01*
X59307Y222841D01*
X59359Y222814D01*
X59381Y222811D01*
X61514Y221927D01*
X62798Y220643D01*
X62868Y220591D01*
X62932Y220531D01*
X62981Y220505D01*
X63025Y220472D01*
X63107Y220441D01*
X63185Y220401D01*
X63232Y220393D01*
X63291Y220371D01*
X63439Y220359D01*
X63516Y220346D01*
X68446Y220346D01*
X77165Y211626D01*
X77235Y211574D01*
X77299Y211514D01*
X77349Y211488D01*
X77393Y211455D01*
X77474Y211424D01*
X77552Y211384D01*
X77600Y211376D01*
X77658Y211354D01*
X77806Y211342D01*
X77883Y211329D01*
X99466Y211329D01*
X101549Y209246D01*
X101550Y209245D01*
X101709Y209086D01*
X103792Y207003D01*
X103792Y197485D01*
X103800Y197427D01*
X103799Y197369D01*
X103820Y197287D01*
X103832Y197203D01*
X103856Y197150D01*
X103871Y197094D01*
X103914Y197021D01*
X103948Y196944D01*
X103986Y196899D01*
X104016Y196849D01*
X104077Y196791D01*
X104132Y196727D01*
X104180Y196695D01*
X104223Y196655D01*
X104298Y196616D01*
X104368Y196569D01*
X104424Y196552D01*
X104476Y196525D01*
X104544Y196514D01*
X104640Y196484D01*
X104660Y196483D01*
X105881Y196240D01*
X106164Y196123D01*
X106276Y196094D01*
X106385Y196060D01*
X106413Y196059D01*
X106440Y196052D01*
X106555Y196055D01*
X106669Y196052D01*
X106696Y196059D01*
X106724Y196060D01*
X106834Y196095D01*
X106944Y196124D01*
X106968Y196138D01*
X106995Y196147D01*
X107090Y196211D01*
X107189Y196269D01*
X107208Y196290D01*
X107231Y196305D01*
X107305Y196393D01*
X107383Y196477D01*
X107396Y196501D01*
X107414Y196523D01*
X107460Y196627D01*
X107513Y196730D01*
X107517Y196755D01*
X107529Y196782D01*
X107566Y197046D01*
X107568Y197061D01*
X107568Y207740D01*
X107556Y207826D01*
X107553Y207914D01*
X107536Y207966D01*
X107528Y208021D01*
X107493Y208101D01*
X107466Y208184D01*
X107438Y208223D01*
X107412Y208281D01*
X107316Y208394D01*
X107271Y208458D01*
X90999Y224730D01*
X90952Y224765D01*
X90912Y224807D01*
X90839Y224850D01*
X90771Y224901D01*
X90717Y224922D01*
X90666Y224951D01*
X90585Y224972D01*
X90506Y225002D01*
X90448Y225007D01*
X90391Y225021D01*
X90306Y225019D01*
X90222Y225025D01*
X90165Y225014D01*
X90107Y225012D01*
X90026Y224986D01*
X89944Y224970D01*
X89892Y224943D01*
X89836Y224925D01*
X89780Y224885D01*
X89691Y224839D01*
X89619Y224770D01*
X89563Y224730D01*
X89454Y224621D01*
X87446Y223789D01*
X85274Y223789D01*
X83266Y224621D01*
X81730Y226157D01*
X80898Y228165D01*
X80898Y230337D01*
X81730Y232345D01*
X83266Y233881D01*
X85274Y234713D01*
X87446Y234713D01*
X89454Y233881D01*
X90738Y232597D01*
X90808Y232545D01*
X90872Y232485D01*
X90921Y232459D01*
X90965Y232426D01*
X91047Y232395D01*
X91125Y232355D01*
X91172Y232347D01*
X91231Y232325D01*
X91379Y232313D01*
X91456Y232300D01*
X92052Y232300D01*
X113666Y210686D01*
X113666Y180204D01*
X111583Y178121D01*
X111582Y178121D01*
X106391Y172930D01*
X106374Y172906D01*
X106351Y172887D01*
X106288Y172793D01*
X106220Y172703D01*
X106210Y172675D01*
X106194Y172651D01*
X106159Y172543D01*
X106119Y172437D01*
X106117Y172408D01*
X106108Y172380D01*
X106105Y172266D01*
X106096Y172154D01*
X106101Y172125D01*
X106101Y172096D01*
X106129Y171986D01*
X106151Y171875D01*
X106165Y171849D01*
X106172Y171821D01*
X106230Y171723D01*
X106282Y171623D01*
X106303Y171601D01*
X106318Y171576D01*
X106400Y171499D01*
X106478Y171417D01*
X106504Y171402D01*
X106525Y171382D01*
X106626Y171330D01*
X106724Y171273D01*
X106752Y171266D01*
X106778Y171252D01*
X106855Y171239D01*
X106999Y171203D01*
X107062Y171205D01*
X107109Y171197D01*
X133731Y171197D01*
X133789Y171205D01*
X133847Y171203D01*
X133929Y171225D01*
X134013Y171237D01*
X134066Y171260D01*
X134122Y171275D01*
X134195Y171318D01*
X134272Y171353D01*
X134317Y171391D01*
X134367Y171420D01*
X134425Y171482D01*
X134489Y171536D01*
X134521Y171585D01*
X134561Y171628D01*
X134600Y171703D01*
X134647Y171773D01*
X134664Y171829D01*
X134691Y171881D01*
X134702Y171949D01*
X134732Y172044D01*
X134735Y172144D01*
X134746Y172212D01*
X134746Y172412D01*
X140926Y178592D01*
X140978Y178662D01*
X141038Y178726D01*
X141064Y178775D01*
X141097Y178819D01*
X141128Y178901D01*
X141168Y178979D01*
X141176Y179026D01*
X141198Y179085D01*
X141210Y179233D01*
X141223Y179310D01*
X141223Y218159D01*
X141219Y218189D01*
X141221Y218220D01*
X141204Y218297D01*
X141183Y218440D01*
X141157Y218499D01*
X141146Y218547D01*
X141044Y218794D01*
X140986Y218892D01*
X140933Y218994D01*
X140913Y219015D01*
X140899Y219038D01*
X140816Y219117D01*
X140737Y219201D01*
X140713Y219215D01*
X140693Y219234D01*
X140590Y219286D01*
X140492Y219344D01*
X140465Y219351D01*
X140440Y219364D01*
X140327Y219386D01*
X140216Y219414D01*
X140188Y219413D01*
X140161Y219419D01*
X140047Y219409D01*
X139932Y219405D01*
X139905Y219397D01*
X139878Y219394D01*
X139771Y219353D01*
X139661Y219318D01*
X139641Y219303D01*
X139612Y219292D01*
X139400Y219132D01*
X139388Y219123D01*
X137714Y217449D01*
X135706Y216617D01*
X133534Y216617D01*
X131526Y217449D01*
X129990Y218985D01*
X129158Y220993D01*
X129158Y223165D01*
X129990Y225173D01*
X131526Y226709D01*
X133534Y227541D01*
X135706Y227541D01*
X136491Y227216D01*
X136493Y227215D01*
X136494Y227215D01*
X136627Y227181D01*
X136766Y227145D01*
X136768Y227145D01*
X136770Y227144D01*
X136910Y227149D01*
X137051Y227153D01*
X137052Y227153D01*
X137054Y227153D01*
X137189Y227197D01*
X137321Y227240D01*
X137323Y227240D01*
X137324Y227241D01*
X137337Y227250D01*
X137557Y227398D01*
X137577Y227421D01*
X137598Y227436D01*
X139303Y229141D01*
X141683Y231522D01*
X154951Y231522D01*
X155038Y231534D01*
X155125Y231537D01*
X155178Y231554D01*
X155233Y231562D01*
X155313Y231597D01*
X155396Y231624D01*
X155435Y231652D01*
X155492Y231678D01*
X155605Y231774D01*
X155669Y231819D01*
X159341Y235491D01*
X159393Y235561D01*
X159453Y235625D01*
X159479Y235674D01*
X159512Y235718D01*
X159543Y235800D01*
X159583Y235878D01*
X159591Y235925D01*
X159613Y235984D01*
X159625Y236131D01*
X159638Y236209D01*
X159638Y237306D01*
X160470Y239314D01*
X162006Y240850D01*
X164014Y241682D01*
X166186Y241682D01*
X168194Y240850D01*
X168970Y240074D01*
X169040Y240022D01*
X169104Y239962D01*
X169153Y239936D01*
X169197Y239903D01*
X169279Y239872D01*
X169357Y239832D01*
X169404Y239824D01*
X169463Y239802D01*
X169611Y239790D01*
X169688Y239777D01*
X170826Y239777D01*
X170913Y239789D01*
X171000Y239792D01*
X171053Y239809D01*
X171108Y239817D01*
X171188Y239852D01*
X171271Y239879D01*
X171310Y239907D01*
X171367Y239933D01*
X171480Y240029D01*
X171544Y240074D01*
X179672Y248202D01*
X179690Y248226D01*
X179712Y248245D01*
X179775Y248339D01*
X179843Y248429D01*
X179853Y248457D01*
X179870Y248481D01*
X179904Y248589D01*
X179944Y248695D01*
X179947Y248724D01*
X179956Y248752D01*
X179958Y248866D01*
X179968Y248978D01*
X179962Y249007D01*
X179963Y249036D01*
X179934Y249146D01*
X179912Y249257D01*
X179898Y249283D01*
X179891Y249311D01*
X179833Y249409D01*
X179781Y249509D01*
X179761Y249531D01*
X179746Y249556D01*
X179663Y249633D01*
X179585Y249715D01*
X179560Y249730D01*
X179538Y249750D01*
X179438Y249802D01*
X179340Y249859D01*
X179311Y249866D01*
X179285Y249880D01*
X179208Y249893D01*
X179064Y249929D01*
X179002Y249927D01*
X178954Y249935D01*
X39299Y249935D01*
X39259Y249930D01*
X39227Y249933D01*
X34357Y249584D01*
X34275Y249567D01*
X34213Y249564D01*
X29443Y248526D01*
X29364Y248497D01*
X29304Y248485D01*
X24729Y246779D01*
X24655Y246739D01*
X24597Y246719D01*
X20312Y244379D01*
X20245Y244329D01*
X20190Y244301D01*
X16282Y241375D01*
X16222Y241315D01*
X16172Y241280D01*
X12720Y237828D01*
X12670Y237760D01*
X12625Y237718D01*
X9699Y233810D01*
X9659Y233736D01*
X9621Y233688D01*
X7281Y229403D01*
X7252Y229324D01*
X7221Y229271D01*
X5515Y224696D01*
X5497Y224614D01*
X5474Y224557D01*
X4436Y219787D01*
X4430Y219703D01*
X4416Y219643D01*
X4067Y214773D01*
X4070Y214733D01*
X4065Y214701D01*
X4065Y10160D01*
X4073Y10102D01*
X4071Y10044D01*
X4093Y9962D01*
X4105Y9879D01*
X4129Y9825D01*
X4143Y9769D01*
X4186Y9696D01*
X4221Y9619D01*
X4259Y9574D01*
X4289Y9524D01*
X4350Y9466D01*
X4405Y9402D01*
X4453Y9370D01*
X4496Y9330D01*
X4571Y9291D01*
X4641Y9245D01*
X4697Y9227D01*
X4749Y9200D01*
X4817Y9189D01*
X4912Y9159D01*
X5012Y9156D01*
X5080Y9145D01*
X99772Y9145D01*
X99801Y9149D01*
G37*
G36*
X156349Y9149D02*
X156349Y9149D01*
X156378Y9146D01*
X156489Y9169D01*
X156601Y9185D01*
X156628Y9197D01*
X156657Y9202D01*
X156757Y9255D01*
X156861Y9301D01*
X156883Y9320D01*
X156909Y9333D01*
X156991Y9411D01*
X157078Y9485D01*
X157094Y9509D01*
X157115Y9529D01*
X157172Y9627D01*
X157235Y9721D01*
X157244Y9749D01*
X157259Y9774D01*
X157287Y9884D01*
X157321Y9992D01*
X157322Y10022D01*
X157329Y10050D01*
X157325Y10163D01*
X157328Y10276D01*
X157321Y10305D01*
X157320Y10334D01*
X157285Y10442D01*
X157256Y10551D01*
X157241Y10577D01*
X157232Y10605D01*
X157187Y10668D01*
X157111Y10796D01*
X157065Y10839D01*
X157037Y10878D01*
X154807Y13108D01*
X153415Y16469D01*
X153415Y34331D01*
X154344Y36574D01*
X154349Y36592D01*
X154358Y36608D01*
X154370Y36666D01*
X154379Y36685D01*
X154386Y36735D01*
X154415Y36850D01*
X154415Y36868D01*
X154419Y36885D01*
X154415Y36945D01*
X154418Y36967D01*
X154411Y37017D01*
X154407Y37134D01*
X154402Y37151D01*
X154401Y37169D01*
X154381Y37225D01*
X154377Y37248D01*
X154355Y37297D01*
X154321Y37404D01*
X154311Y37420D01*
X154304Y37437D01*
X154271Y37483D01*
X154260Y37507D01*
X154221Y37553D01*
X154162Y37641D01*
X154148Y37652D01*
X154138Y37667D01*
X154096Y37700D01*
X154076Y37724D01*
X154029Y37753D01*
X153945Y37824D01*
X153928Y37831D01*
X153914Y37842D01*
X153846Y37867D01*
X153844Y37868D01*
X153791Y37901D01*
X152612Y38390D01*
X151634Y39043D01*
X150803Y39874D01*
X150150Y40852D01*
X149700Y41939D01*
X149555Y42665D01*
X155440Y42665D01*
X161354Y42665D01*
X161350Y42586D01*
X161353Y42571D01*
X161353Y42556D01*
X161385Y42433D01*
X161413Y42309D01*
X161421Y42296D01*
X161425Y42281D01*
X161489Y42172D01*
X161551Y42060D01*
X161562Y42050D01*
X161570Y42036D01*
X161662Y41949D01*
X161752Y41860D01*
X161766Y41852D01*
X161777Y41842D01*
X161890Y41784D01*
X162001Y41723D01*
X162017Y41719D01*
X162030Y41712D01*
X162098Y41701D01*
X162279Y41660D01*
X162325Y41663D01*
X162361Y41657D01*
X164379Y41657D01*
X166647Y40717D01*
X166771Y40685D01*
X166895Y40650D01*
X166908Y40650D01*
X166922Y40647D01*
X167050Y40650D01*
X167179Y40650D01*
X167192Y40654D01*
X167206Y40655D01*
X167328Y40694D01*
X167452Y40730D01*
X167464Y40737D01*
X167477Y40741D01*
X167584Y40813D01*
X167692Y40882D01*
X167701Y40892D01*
X167713Y40900D01*
X167796Y40998D01*
X167881Y41094D01*
X167887Y41107D01*
X167896Y41117D01*
X167948Y41235D01*
X168003Y41351D01*
X168006Y41364D01*
X168011Y41377D01*
X168029Y41504D01*
X168050Y41631D01*
X168048Y41645D01*
X168050Y41659D01*
X168032Y41786D01*
X168017Y41913D01*
X168012Y41925D01*
X168010Y41940D01*
X167893Y42199D01*
X167884Y42209D01*
X167879Y42220D01*
X167430Y42892D01*
X166980Y43979D01*
X166835Y44705D01*
X171705Y44705D01*
X171705Y39835D01*
X170979Y39980D01*
X170652Y40115D01*
X170569Y40137D01*
X170488Y40167D01*
X170432Y40172D01*
X170376Y40186D01*
X170291Y40184D01*
X170205Y40191D01*
X170149Y40180D01*
X170092Y40178D01*
X170011Y40152D01*
X169926Y40135D01*
X169876Y40109D01*
X169822Y40091D01*
X169750Y40043D01*
X169674Y40004D01*
X169633Y39965D01*
X169585Y39933D01*
X169530Y39867D01*
X169468Y39808D01*
X169439Y39759D01*
X169402Y39715D01*
X169368Y39637D01*
X169324Y39563D01*
X169310Y39508D01*
X169287Y39456D01*
X169275Y39370D01*
X169254Y39287D01*
X169256Y39230D01*
X169248Y39174D01*
X169260Y39089D01*
X169263Y39003D01*
X169281Y38949D01*
X169289Y38893D01*
X169324Y38814D01*
X169350Y38733D01*
X169379Y38692D01*
X169406Y38634D01*
X169500Y38523D01*
X169545Y38459D01*
X170313Y37692D01*
X171705Y34331D01*
X171705Y16469D01*
X170313Y13108D01*
X168083Y10878D01*
X168065Y10854D01*
X168042Y10836D01*
X167980Y10741D01*
X167912Y10651D01*
X167901Y10623D01*
X167885Y10599D01*
X167851Y10491D01*
X167810Y10385D01*
X167808Y10356D01*
X167799Y10328D01*
X167796Y10214D01*
X167787Y10102D01*
X167793Y10073D01*
X167792Y10044D01*
X167820Y9934D01*
X167843Y9823D01*
X167856Y9797D01*
X167864Y9769D01*
X167921Y9671D01*
X167974Y9571D01*
X167994Y9549D01*
X168009Y9524D01*
X168091Y9447D01*
X168169Y9365D01*
X168195Y9350D01*
X168216Y9330D01*
X168317Y9278D01*
X168415Y9221D01*
X168443Y9214D01*
X168469Y9200D01*
X168547Y9187D01*
X168690Y9151D01*
X168753Y9153D01*
X168800Y9145D01*
X181720Y9145D01*
X181749Y9149D01*
X181778Y9146D01*
X181889Y9169D01*
X182001Y9185D01*
X182028Y9197D01*
X182057Y9202D01*
X182157Y9255D01*
X182261Y9301D01*
X182283Y9320D01*
X182309Y9333D01*
X182391Y9411D01*
X182478Y9485D01*
X182494Y9509D01*
X182515Y9529D01*
X182572Y9627D01*
X182635Y9721D01*
X182644Y9749D01*
X182659Y9774D01*
X182687Y9884D01*
X182721Y9992D01*
X182722Y10022D01*
X182729Y10050D01*
X182725Y10163D01*
X182728Y10276D01*
X182721Y10305D01*
X182720Y10334D01*
X182685Y10442D01*
X182656Y10551D01*
X182641Y10577D01*
X182632Y10605D01*
X182587Y10668D01*
X182511Y10796D01*
X182465Y10839D01*
X182437Y10878D01*
X180207Y13108D01*
X178815Y16469D01*
X178815Y34331D01*
X180207Y37692D01*
X182248Y39732D01*
X182283Y39779D01*
X182325Y39819D01*
X182368Y39892D01*
X182419Y39960D01*
X182439Y40014D01*
X182469Y40065D01*
X182490Y40146D01*
X182520Y40225D01*
X182525Y40284D01*
X182539Y40340D01*
X182536Y40424D01*
X182543Y40509D01*
X182532Y40566D01*
X182530Y40624D01*
X182504Y40705D01*
X182488Y40787D01*
X182461Y40839D01*
X182443Y40895D01*
X182403Y40951D01*
X182357Y41040D01*
X182288Y41112D01*
X182248Y41168D01*
X180790Y42626D01*
X180283Y43850D01*
X180268Y43875D01*
X180259Y43903D01*
X180196Y43998D01*
X180138Y44095D01*
X180117Y44115D01*
X180101Y44139D01*
X180014Y44212D01*
X179932Y44290D01*
X179906Y44303D01*
X179883Y44322D01*
X179780Y44368D01*
X179679Y44420D01*
X179650Y44426D01*
X179623Y44438D01*
X179511Y44453D01*
X179400Y44475D01*
X179371Y44473D01*
X179342Y44477D01*
X179229Y44460D01*
X179117Y44451D01*
X179089Y44440D01*
X179060Y44436D01*
X178957Y44389D01*
X178851Y44349D01*
X178828Y44331D01*
X178801Y44319D01*
X178715Y44246D01*
X178625Y44177D01*
X178607Y44153D01*
X178585Y44135D01*
X178544Y44068D01*
X178455Y43949D01*
X178432Y43891D01*
X178407Y43850D01*
X178010Y42892D01*
X177357Y41914D01*
X176526Y41083D01*
X175548Y40430D01*
X174461Y39980D01*
X173735Y39835D01*
X173735Y45720D01*
X173728Y45774D01*
X173729Y45810D01*
X173728Y45812D01*
X173729Y45836D01*
X173707Y45918D01*
X173696Y46001D01*
X173672Y46055D01*
X173657Y46111D01*
X173614Y46184D01*
X173579Y46261D01*
X173542Y46305D01*
X173512Y46355D01*
X173511Y46356D01*
X173450Y46413D01*
X173396Y46478D01*
X173395Y46478D01*
X173347Y46510D01*
X173304Y46550D01*
X173229Y46589D01*
X173159Y46636D01*
X173103Y46653D01*
X173051Y46680D01*
X172983Y46691D01*
X172888Y46721D01*
X172788Y46724D01*
X172720Y46735D01*
X166835Y46735D01*
X166980Y47461D01*
X167430Y48548D01*
X168083Y49525D01*
X168864Y50306D01*
X168899Y50353D01*
X168941Y50393D01*
X168984Y50466D01*
X169034Y50533D01*
X169055Y50588D01*
X169085Y50638D01*
X169106Y50720D01*
X169136Y50799D01*
X169141Y50857D01*
X169155Y50914D01*
X169152Y50998D01*
X169159Y51082D01*
X169148Y51139D01*
X169146Y51198D01*
X169120Y51278D01*
X169103Y51361D01*
X169076Y51413D01*
X169058Y51468D01*
X169018Y51525D01*
X168972Y51613D01*
X168904Y51686D01*
X168864Y51742D01*
X167512Y53093D01*
X167512Y72850D01*
X167508Y72879D01*
X167511Y72908D01*
X167488Y73019D01*
X167472Y73131D01*
X167460Y73158D01*
X167455Y73187D01*
X167403Y73287D01*
X167356Y73391D01*
X167337Y73413D01*
X167324Y73439D01*
X167246Y73521D01*
X167173Y73608D01*
X167148Y73624D01*
X167128Y73645D01*
X167030Y73702D01*
X166936Y73765D01*
X166908Y73774D01*
X166883Y73789D01*
X166773Y73817D01*
X166665Y73851D01*
X166635Y73852D01*
X166607Y73859D01*
X166494Y73855D01*
X166381Y73858D01*
X166352Y73851D01*
X166323Y73850D01*
X166215Y73815D01*
X166106Y73787D01*
X166080Y73772D01*
X166052Y73763D01*
X165989Y73717D01*
X165861Y73641D01*
X165818Y73596D01*
X165779Y73568D01*
X159927Y67716D01*
X159915Y67699D01*
X159903Y67690D01*
X159873Y67644D01*
X159815Y67582D01*
X159789Y67533D01*
X159756Y67488D01*
X159725Y67407D01*
X159685Y67329D01*
X159677Y67281D01*
X159655Y67223D01*
X159643Y67075D01*
X159630Y66998D01*
X159630Y58436D01*
X159642Y58349D01*
X159645Y58262D01*
X159662Y58209D01*
X159670Y58154D01*
X159705Y58075D01*
X159732Y57991D01*
X159760Y57952D01*
X159786Y57895D01*
X159882Y57782D01*
X159927Y57718D01*
X161211Y56434D01*
X162043Y54426D01*
X162043Y52254D01*
X161211Y50246D01*
X159982Y49017D01*
X159947Y48970D01*
X159904Y48930D01*
X159861Y48857D01*
X159811Y48790D01*
X159790Y48735D01*
X159760Y48684D01*
X159740Y48603D01*
X159710Y48524D01*
X159705Y48465D01*
X159690Y48409D01*
X159693Y48325D01*
X159686Y48241D01*
X159698Y48183D01*
X159699Y48125D01*
X159725Y48045D01*
X159742Y47962D01*
X159769Y47910D01*
X159787Y47854D01*
X159827Y47798D01*
X159873Y47709D01*
X159942Y47637D01*
X159982Y47581D01*
X160077Y47486D01*
X160730Y46508D01*
X161180Y45421D01*
X161325Y44695D01*
X155440Y44695D01*
X149555Y44695D01*
X149700Y45421D01*
X150150Y46508D01*
X150803Y47486D01*
X151634Y48317D01*
X151952Y48529D01*
X151964Y48539D01*
X151977Y48547D01*
X152069Y48634D01*
X152164Y48719D01*
X152172Y48732D01*
X152183Y48742D01*
X152248Y48852D01*
X152315Y48959D01*
X152319Y48974D01*
X152327Y48988D01*
X152358Y49111D01*
X152393Y49233D01*
X152393Y49248D01*
X152397Y49263D01*
X152393Y49390D01*
X152393Y49517D01*
X152389Y49532D01*
X152388Y49547D01*
X152349Y49668D01*
X152314Y49790D01*
X152305Y49803D01*
X152301Y49818D01*
X152261Y49874D01*
X152162Y50030D01*
X152127Y50061D01*
X152106Y50091D01*
X151951Y50246D01*
X151119Y52254D01*
X151119Y54426D01*
X151951Y56434D01*
X153235Y57718D01*
X153287Y57788D01*
X153347Y57852D01*
X153373Y57901D01*
X153406Y57945D01*
X153437Y58027D01*
X153477Y58105D01*
X153485Y58152D01*
X153507Y58211D01*
X153519Y58359D01*
X153532Y58436D01*
X153532Y69944D01*
X154498Y70910D01*
X154516Y70934D01*
X154538Y70953D01*
X154601Y71047D01*
X154669Y71137D01*
X154680Y71165D01*
X154696Y71189D01*
X154730Y71297D01*
X154771Y71403D01*
X154773Y71432D01*
X154782Y71460D01*
X154785Y71574D01*
X154794Y71686D01*
X154788Y71715D01*
X154789Y71744D01*
X154761Y71854D01*
X154738Y71965D01*
X154725Y71991D01*
X154717Y72019D01*
X154660Y72117D01*
X154607Y72217D01*
X154587Y72239D01*
X154572Y72264D01*
X154490Y72341D01*
X154411Y72423D01*
X154386Y72438D01*
X154365Y72458D01*
X154264Y72510D01*
X154166Y72567D01*
X154138Y72574D01*
X154112Y72588D01*
X154034Y72601D01*
X153891Y72637D01*
X153828Y72635D01*
X153781Y72643D01*
X126354Y72643D01*
X126267Y72631D01*
X126180Y72628D01*
X126127Y72611D01*
X126072Y72603D01*
X125992Y72568D01*
X125909Y72541D01*
X125870Y72513D01*
X125813Y72487D01*
X125700Y72391D01*
X125636Y72346D01*
X111295Y58005D01*
X111243Y57935D01*
X111183Y57871D01*
X111157Y57822D01*
X111124Y57778D01*
X111093Y57696D01*
X111053Y57618D01*
X111045Y57571D01*
X111023Y57512D01*
X111011Y57365D01*
X110998Y57287D01*
X110998Y50308D01*
X111010Y50221D01*
X111013Y50134D01*
X111030Y50081D01*
X111038Y50026D01*
X111073Y49947D01*
X111100Y49863D01*
X111128Y49824D01*
X111154Y49767D01*
X111250Y49654D01*
X111295Y49590D01*
X112071Y48814D01*
X112903Y46806D01*
X112903Y44634D01*
X112251Y43061D01*
X112222Y42949D01*
X112188Y42840D01*
X112187Y42812D01*
X112180Y42785D01*
X112183Y42671D01*
X112181Y42556D01*
X112188Y42529D01*
X112188Y42501D01*
X112223Y42392D01*
X112252Y42281D01*
X112266Y42257D01*
X112275Y42230D01*
X112339Y42135D01*
X112398Y42036D01*
X112418Y42017D01*
X112433Y41994D01*
X112521Y41920D01*
X112605Y41842D01*
X112630Y41829D01*
X112651Y41811D01*
X112756Y41765D01*
X112858Y41712D01*
X112883Y41708D01*
X112911Y41696D01*
X113174Y41659D01*
X113189Y41657D01*
X113579Y41657D01*
X116940Y40265D01*
X119513Y37692D01*
X120905Y34331D01*
X120905Y28819D01*
X120921Y28705D01*
X120931Y28590D01*
X120941Y28564D01*
X120945Y28537D01*
X120992Y28432D01*
X121033Y28325D01*
X121049Y28303D01*
X121061Y28278D01*
X121135Y28190D01*
X121204Y28098D01*
X121227Y28082D01*
X121244Y28061D01*
X121340Y27997D01*
X121432Y27928D01*
X121458Y27918D01*
X121481Y27903D01*
X121591Y27868D01*
X121698Y27828D01*
X121726Y27826D01*
X121752Y27817D01*
X121867Y27814D01*
X121981Y27805D01*
X122006Y27811D01*
X122036Y27810D01*
X122293Y27877D01*
X122309Y27881D01*
X123374Y28322D01*
X125546Y28322D01*
X126611Y27881D01*
X126723Y27852D01*
X126832Y27817D01*
X126860Y27817D01*
X126887Y27810D01*
X127001Y27813D01*
X127116Y27810D01*
X127143Y27817D01*
X127171Y27818D01*
X127280Y27853D01*
X127391Y27882D01*
X127415Y27896D01*
X127442Y27904D01*
X127537Y27968D01*
X127636Y28027D01*
X127655Y28047D01*
X127678Y28063D01*
X127752Y28150D01*
X127830Y28234D01*
X127843Y28259D01*
X127861Y28280D01*
X127907Y28385D01*
X127960Y28487D01*
X127964Y28512D01*
X127976Y28540D01*
X128013Y28804D01*
X128015Y28819D01*
X128015Y34331D01*
X129407Y37692D01*
X131980Y40265D01*
X135341Y41657D01*
X138979Y41657D01*
X142340Y40265D01*
X144913Y37692D01*
X146305Y34331D01*
X146305Y16469D01*
X144913Y13108D01*
X142683Y10878D01*
X142665Y10854D01*
X142642Y10836D01*
X142580Y10741D01*
X142512Y10651D01*
X142501Y10623D01*
X142485Y10599D01*
X142451Y10491D01*
X142410Y10385D01*
X142408Y10356D01*
X142399Y10328D01*
X142396Y10214D01*
X142387Y10102D01*
X142393Y10073D01*
X142392Y10044D01*
X142420Y9934D01*
X142443Y9823D01*
X142456Y9797D01*
X142464Y9769D01*
X142521Y9671D01*
X142574Y9571D01*
X142594Y9549D01*
X142609Y9524D01*
X142691Y9447D01*
X142769Y9365D01*
X142795Y9350D01*
X142816Y9330D01*
X142917Y9278D01*
X143015Y9221D01*
X143043Y9214D01*
X143069Y9200D01*
X143147Y9187D01*
X143290Y9151D01*
X143353Y9153D01*
X143400Y9145D01*
X156320Y9145D01*
X156349Y9149D01*
G37*
%LPC*%
G36*
X235134Y88518D02*
X235134Y88518D01*
X233126Y89350D01*
X231590Y90886D01*
X230713Y93003D01*
X230655Y93102D01*
X230602Y93204D01*
X230582Y93224D01*
X230568Y93248D01*
X230485Y93327D01*
X230406Y93410D01*
X230382Y93424D01*
X230362Y93443D01*
X230260Y93496D01*
X230160Y93554D01*
X230134Y93561D01*
X230109Y93574D01*
X229996Y93596D01*
X229885Y93624D01*
X229857Y93623D01*
X229830Y93629D01*
X229716Y93619D01*
X229601Y93615D01*
X229574Y93607D01*
X229547Y93604D01*
X229440Y93563D01*
X229330Y93528D01*
X229310Y93513D01*
X229281Y93502D01*
X229070Y93342D01*
X229057Y93333D01*
X228736Y93012D01*
X227759Y92359D01*
X226672Y91909D01*
X225946Y91764D01*
X225946Y96634D01*
X230729Y96634D01*
X230816Y96646D01*
X230903Y96649D01*
X230956Y96666D01*
X231011Y96674D01*
X231090Y96709D01*
X231174Y96736D01*
X231213Y96764D01*
X231270Y96790D01*
X231383Y96886D01*
X231447Y96931D01*
X231465Y96955D01*
X231487Y96973D01*
X231487Y96974D01*
X231550Y97068D01*
X231618Y97159D01*
X231629Y97186D01*
X231645Y97210D01*
X231679Y97318D01*
X231719Y97424D01*
X231722Y97453D01*
X231731Y97481D01*
X231734Y97595D01*
X231743Y97708D01*
X231737Y97736D01*
X231737Y97744D01*
X231794Y97746D01*
X231864Y97738D01*
X231935Y97750D01*
X232007Y97753D01*
X232074Y97774D01*
X232144Y97786D01*
X232209Y97818D01*
X232278Y97840D01*
X232326Y97875D01*
X232400Y97911D01*
X232489Y97991D01*
X232551Y98035D01*
X233126Y98610D01*
X235134Y99442D01*
X236231Y99442D01*
X236318Y99454D01*
X236405Y99457D01*
X236458Y99474D01*
X236513Y99482D01*
X236593Y99517D01*
X236676Y99544D01*
X236715Y99572D01*
X236772Y99598D01*
X236885Y99694D01*
X236949Y99739D01*
X239986Y102776D01*
X240038Y102846D01*
X240098Y102910D01*
X240124Y102959D01*
X240157Y103003D01*
X240188Y103085D01*
X240228Y103163D01*
X240236Y103210D01*
X240258Y103269D01*
X240268Y103392D01*
X240269Y103395D01*
X240270Y103409D01*
X240270Y103416D01*
X240283Y103494D01*
X240283Y148793D01*
X252527Y161037D01*
X277506Y161037D01*
X277593Y161049D01*
X277680Y161052D01*
X277733Y161069D01*
X277788Y161077D01*
X277868Y161112D01*
X277951Y161139D01*
X277990Y161167D01*
X278047Y161193D01*
X278160Y161289D01*
X278224Y161334D01*
X280626Y163736D01*
X280678Y163806D01*
X280738Y163870D01*
X280764Y163919D01*
X280797Y163963D01*
X280828Y164045D01*
X280868Y164123D01*
X280876Y164170D01*
X280898Y164229D01*
X280903Y164291D01*
X280909Y164310D01*
X280911Y164381D01*
X280923Y164454D01*
X280923Y196072D01*
X280911Y196159D01*
X280908Y196246D01*
X280891Y196299D01*
X280883Y196354D01*
X280848Y196433D01*
X280821Y196517D01*
X280793Y196556D01*
X280767Y196613D01*
X280671Y196726D01*
X280626Y196790D01*
X279850Y197566D01*
X279018Y199574D01*
X279018Y201746D01*
X279850Y203754D01*
X281386Y205290D01*
X283394Y206122D01*
X285566Y206122D01*
X287574Y205290D01*
X289110Y203754D01*
X289942Y201746D01*
X289942Y199574D01*
X289110Y197566D01*
X288334Y196790D01*
X288282Y196720D01*
X288222Y196656D01*
X288196Y196607D01*
X288163Y196563D01*
X288132Y196481D01*
X288092Y196403D01*
X288084Y196356D01*
X288062Y196297D01*
X288050Y196149D01*
X288037Y196072D01*
X288037Y161087D01*
X280873Y153923D01*
X255894Y153923D01*
X255807Y153911D01*
X255720Y153908D01*
X255667Y153891D01*
X255612Y153883D01*
X255532Y153848D01*
X255449Y153821D01*
X255410Y153793D01*
X255353Y153767D01*
X255240Y153671D01*
X255176Y153626D01*
X247694Y146144D01*
X247642Y146074D01*
X247582Y146010D01*
X247556Y145961D01*
X247523Y145917D01*
X247492Y145835D01*
X247452Y145757D01*
X247444Y145710D01*
X247422Y145651D01*
X247410Y145504D01*
X247397Y145426D01*
X247397Y100127D01*
X241979Y94709D01*
X241927Y94639D01*
X241867Y94575D01*
X241841Y94526D01*
X241808Y94482D01*
X241777Y94400D01*
X241737Y94322D01*
X241729Y94275D01*
X241707Y94216D01*
X241695Y94069D01*
X241682Y93991D01*
X241682Y92894D01*
X240850Y90886D01*
X239314Y89350D01*
X237306Y88518D01*
X235134Y88518D01*
G37*
%LPD*%
%LPC*%
G36*
X268538Y52323D02*
X268538Y52323D01*
X265364Y53638D01*
X262934Y56068D01*
X261619Y59242D01*
X261619Y62678D01*
X262934Y65852D01*
X264303Y67222D01*
X264372Y67313D01*
X264446Y67401D01*
X264458Y67427D01*
X264474Y67449D01*
X264515Y67556D01*
X264562Y67661D01*
X264566Y67688D01*
X264575Y67714D01*
X264585Y67829D01*
X264601Y67943D01*
X264597Y67970D01*
X264599Y67998D01*
X264576Y68110D01*
X264560Y68224D01*
X264549Y68249D01*
X264543Y68276D01*
X264490Y68378D01*
X264443Y68483D01*
X264425Y68504D01*
X264412Y68529D01*
X264333Y68612D01*
X264259Y68699D01*
X264238Y68713D01*
X264216Y68735D01*
X263987Y68870D01*
X263974Y68877D01*
X263606Y69030D01*
X262070Y70566D01*
X261238Y72574D01*
X261238Y74746D01*
X262070Y76754D01*
X262846Y77530D01*
X262898Y77600D01*
X262958Y77664D01*
X262984Y77713D01*
X263017Y77757D01*
X263048Y77839D01*
X263088Y77917D01*
X263096Y77964D01*
X263118Y78023D01*
X263130Y78171D01*
X263143Y78248D01*
X263143Y80213D01*
X265524Y82594D01*
X273006Y90076D01*
X273058Y90146D01*
X273118Y90210D01*
X273144Y90259D01*
X273177Y90303D01*
X273208Y90385D01*
X273248Y90463D01*
X273256Y90510D01*
X273278Y90569D01*
X273290Y90716D01*
X273303Y90794D01*
X273303Y131013D01*
X275684Y133394D01*
X277927Y135637D01*
X282432Y135637D01*
X282519Y135649D01*
X282606Y135652D01*
X282659Y135669D01*
X282714Y135677D01*
X282793Y135712D01*
X282877Y135739D01*
X282916Y135767D01*
X282973Y135793D01*
X283086Y135889D01*
X283150Y135934D01*
X283926Y136710D01*
X285934Y137542D01*
X288106Y137542D01*
X290114Y136710D01*
X291650Y135174D01*
X292482Y133166D01*
X292482Y130994D01*
X291650Y128986D01*
X290114Y127450D01*
X288106Y126618D01*
X285934Y126618D01*
X283926Y127450D01*
X283150Y128226D01*
X283080Y128278D01*
X283016Y128338D01*
X282967Y128364D01*
X282923Y128397D01*
X282841Y128428D01*
X282763Y128468D01*
X282716Y128476D01*
X282657Y128498D01*
X282509Y128510D01*
X282432Y128523D01*
X281432Y128523D01*
X281374Y128515D01*
X281316Y128517D01*
X281234Y128495D01*
X281150Y128483D01*
X281097Y128460D01*
X281041Y128445D01*
X280968Y128402D01*
X280891Y128367D01*
X280846Y128329D01*
X280796Y128300D01*
X280738Y128238D01*
X280674Y128184D01*
X280642Y128135D01*
X280602Y128092D01*
X280563Y128017D01*
X280516Y127947D01*
X280499Y127891D01*
X280472Y127839D01*
X280461Y127771D01*
X280431Y127676D01*
X280428Y127576D01*
X280417Y127508D01*
X280417Y87427D01*
X278036Y85046D01*
X271255Y78265D01*
X271220Y78218D01*
X271177Y78178D01*
X271135Y78105D01*
X271084Y78038D01*
X271063Y77983D01*
X271034Y77933D01*
X271013Y77851D01*
X270983Y77772D01*
X270978Y77714D01*
X270964Y77657D01*
X270966Y77573D01*
X270959Y77489D01*
X270971Y77431D01*
X270973Y77373D01*
X270999Y77293D01*
X271015Y77210D01*
X271042Y77158D01*
X271060Y77103D01*
X271100Y77046D01*
X271146Y76958D01*
X271215Y76885D01*
X271255Y76829D01*
X271330Y76754D01*
X272162Y74746D01*
X272162Y72574D01*
X271510Y71001D01*
X271482Y70889D01*
X271447Y70780D01*
X271446Y70752D01*
X271439Y70725D01*
X271442Y70611D01*
X271440Y70496D01*
X271447Y70469D01*
X271447Y70441D01*
X271482Y70332D01*
X271511Y70221D01*
X271526Y70197D01*
X271534Y70170D01*
X271598Y70075D01*
X271657Y69976D01*
X271677Y69957D01*
X271692Y69934D01*
X271780Y69860D01*
X271864Y69782D01*
X271889Y69769D01*
X271910Y69751D01*
X272015Y69705D01*
X272117Y69652D01*
X272142Y69648D01*
X272170Y69636D01*
X272433Y69599D01*
X272448Y69597D01*
X285182Y69597D01*
X288356Y68282D01*
X290786Y65852D01*
X292101Y62678D01*
X292101Y59242D01*
X290786Y56068D01*
X288356Y53638D01*
X285182Y52323D01*
X268538Y52323D01*
G37*
%LPD*%
%LPC*%
G36*
X40131Y108711D02*
X40131Y108711D01*
X40131Y122945D01*
X40192Y123056D01*
X40196Y123071D01*
X40203Y123085D01*
X40214Y123152D01*
X40255Y123333D01*
X40252Y123379D01*
X40258Y123416D01*
X40258Y125190D01*
X40246Y125276D01*
X40243Y125364D01*
X40226Y125416D01*
X40218Y125471D01*
X40183Y125551D01*
X40156Y125634D01*
X40128Y125673D01*
X40102Y125731D01*
X40006Y125844D01*
X39961Y125908D01*
X33579Y132290D01*
X33509Y132342D01*
X33445Y132402D01*
X33395Y132428D01*
X33351Y132461D01*
X33270Y132492D01*
X33192Y132532D01*
X33144Y132540D01*
X33086Y132562D01*
X32938Y132574D01*
X32861Y132587D01*
X18753Y132587D01*
X8635Y142705D01*
X8635Y207815D01*
X11480Y210659D01*
X11533Y210729D01*
X11593Y210793D01*
X11618Y210843D01*
X11651Y210887D01*
X11682Y210968D01*
X11722Y211046D01*
X11730Y211094D01*
X11752Y211152D01*
X11764Y211300D01*
X11777Y211377D01*
X11777Y213758D01*
X11765Y213845D01*
X11762Y213932D01*
X11745Y213985D01*
X11738Y214040D01*
X11702Y214119D01*
X11675Y214203D01*
X11647Y214242D01*
X11621Y214299D01*
X11526Y214412D01*
X11480Y214476D01*
X10196Y215760D01*
X9364Y217767D01*
X9364Y219940D01*
X10196Y221948D01*
X11732Y223484D01*
X13740Y224316D01*
X15913Y224316D01*
X16418Y224106D01*
X16448Y224098D01*
X16476Y224084D01*
X16553Y224071D01*
X16694Y224035D01*
X16758Y224037D01*
X16807Y224029D01*
X30989Y224029D01*
X30989Y216407D01*
X25148Y216407D01*
X23648Y216645D01*
X22203Y217114D01*
X21377Y217535D01*
X21284Y217567D01*
X21194Y217607D01*
X21150Y217613D01*
X21108Y217628D01*
X21010Y217632D01*
X20913Y217646D01*
X20869Y217640D01*
X20824Y217642D01*
X20728Y217619D01*
X20631Y217605D01*
X20591Y217587D01*
X20547Y217577D01*
X20462Y217528D01*
X20372Y217488D01*
X20338Y217459D01*
X20299Y217437D01*
X20231Y217367D01*
X20156Y217304D01*
X20135Y217270D01*
X20100Y217235D01*
X20016Y217081D01*
X19978Y217019D01*
X19456Y215760D01*
X18172Y214476D01*
X18120Y214406D01*
X18060Y214342D01*
X18035Y214293D01*
X18001Y214249D01*
X17970Y214167D01*
X17930Y214089D01*
X17922Y214042D01*
X17900Y213983D01*
X17888Y213835D01*
X17875Y213758D01*
X17875Y208431D01*
X15030Y205586D01*
X14978Y205517D01*
X14918Y205453D01*
X14892Y205403D01*
X14859Y205359D01*
X14828Y205277D01*
X14788Y205200D01*
X14780Y205152D01*
X14758Y205093D01*
X14746Y204946D01*
X14733Y204868D01*
X14733Y145652D01*
X14745Y145565D01*
X14748Y145478D01*
X14765Y145425D01*
X14773Y145370D01*
X14808Y145290D01*
X14835Y145207D01*
X14863Y145168D01*
X14889Y145111D01*
X14985Y144997D01*
X15030Y144934D01*
X20982Y138982D01*
X21051Y138930D01*
X21115Y138870D01*
X21165Y138844D01*
X21209Y138811D01*
X21291Y138780D01*
X21368Y138740D01*
X21416Y138732D01*
X21475Y138710D01*
X21622Y138698D01*
X21700Y138685D01*
X35807Y138685D01*
X37890Y136602D01*
X37890Y136601D01*
X44272Y130219D01*
X44342Y130167D01*
X44406Y130107D01*
X44456Y130081D01*
X44500Y130048D01*
X44581Y130017D01*
X44659Y129977D01*
X44707Y129969D01*
X44765Y129947D01*
X44913Y129935D01*
X44990Y129922D01*
X46806Y129922D01*
X48814Y129090D01*
X50350Y127554D01*
X51182Y125546D01*
X51182Y123374D01*
X50350Y121366D01*
X48814Y119830D01*
X46741Y118971D01*
X46691Y118942D01*
X46636Y118921D01*
X46569Y118870D01*
X46497Y118827D01*
X46456Y118784D01*
X46410Y118749D01*
X46359Y118681D01*
X46301Y118620D01*
X46275Y118568D01*
X46240Y118521D01*
X46210Y118442D01*
X46171Y118367D01*
X46160Y118310D01*
X46139Y118255D01*
X46132Y118171D01*
X46116Y118088D01*
X46121Y118030D01*
X46116Y117972D01*
X46132Y117905D01*
X46141Y117805D01*
X46176Y117712D01*
X46192Y117645D01*
X46893Y115951D01*
X47245Y114185D01*
X47245Y108711D01*
X40131Y108711D01*
G37*
%LPD*%
%LPC*%
G36*
X24089Y191515D02*
X24089Y191515D01*
X20728Y192907D01*
X18155Y195480D01*
X16763Y198841D01*
X16763Y202479D01*
X18155Y205840D01*
X20728Y208413D01*
X24089Y209805D01*
X41951Y209805D01*
X45312Y208413D01*
X47885Y205840D01*
X49277Y202479D01*
X49277Y198841D01*
X47885Y195480D01*
X45312Y192907D01*
X41951Y191515D01*
X24089Y191515D01*
G37*
%LPD*%
%LPC*%
G36*
X268538Y26923D02*
X268538Y26923D01*
X265364Y28238D01*
X262934Y30668D01*
X261619Y33842D01*
X261619Y37278D01*
X262934Y40452D01*
X265364Y42882D01*
X268538Y44197D01*
X285182Y44197D01*
X288356Y42882D01*
X290786Y40452D01*
X292101Y37278D01*
X292101Y33842D01*
X290786Y30668D01*
X288356Y28238D01*
X285182Y26923D01*
X268538Y26923D01*
G37*
%LPD*%
%LPC*%
G36*
X219969Y225107D02*
X219969Y225107D01*
X214947Y230129D01*
X214947Y237231D01*
X219969Y242253D01*
X227071Y242253D01*
X232093Y237231D01*
X232093Y230129D01*
X227071Y225107D01*
X219969Y225107D01*
G37*
%LPD*%
%LPC*%
G36*
X229107Y27431D02*
X229107Y27431D01*
X229107Y33272D01*
X229345Y34772D01*
X229814Y36217D01*
X229893Y36372D01*
X229916Y36437D01*
X229947Y36499D01*
X229961Y36571D01*
X229985Y36640D01*
X229989Y36710D01*
X230002Y36777D01*
X229996Y36851D01*
X230000Y36924D01*
X229984Y36992D01*
X229978Y37061D01*
X229951Y37129D01*
X229934Y37201D01*
X229901Y37261D01*
X229876Y37326D01*
X229831Y37385D01*
X229795Y37449D01*
X229746Y37498D01*
X229704Y37553D01*
X229645Y37597D01*
X229593Y37648D01*
X229532Y37681D01*
X229476Y37723D01*
X229407Y37749D01*
X229343Y37784D01*
X229275Y37799D01*
X229210Y37823D01*
X229137Y37829D01*
X229065Y37845D01*
X228996Y37840D01*
X228927Y37846D01*
X228867Y37832D01*
X228781Y37826D01*
X228673Y37787D01*
X228600Y37771D01*
X227801Y37440D01*
X227075Y37295D01*
X227075Y42165D01*
X231945Y42165D01*
X231829Y41584D01*
X231827Y41535D01*
X231815Y41487D01*
X231819Y41394D01*
X231813Y41301D01*
X231824Y41252D01*
X231826Y41203D01*
X231856Y41115D01*
X231877Y41023D01*
X231901Y40980D01*
X231916Y40933D01*
X231969Y40856D01*
X232015Y40775D01*
X232050Y40740D01*
X232078Y40699D01*
X232150Y40640D01*
X232216Y40574D01*
X232259Y40550D01*
X232297Y40519D01*
X232383Y40482D01*
X232465Y40437D01*
X232513Y40426D01*
X232558Y40407D01*
X232651Y40395D01*
X232742Y40374D01*
X232792Y40377D01*
X232841Y40371D01*
X232933Y40386D01*
X233026Y40391D01*
X233073Y40408D01*
X233121Y40415D01*
X233188Y40448D01*
X233294Y40486D01*
X233365Y40537D01*
X233422Y40565D01*
X233701Y40768D01*
X235055Y41458D01*
X236500Y41927D01*
X236729Y41963D01*
X236729Y27431D01*
X229107Y27431D01*
G37*
%LPD*%
%LPC*%
G36*
X240791Y27431D02*
X240791Y27431D01*
X240791Y41963D01*
X241020Y41927D01*
X242465Y41458D01*
X243819Y40768D01*
X245048Y39875D01*
X246123Y38800D01*
X247016Y37571D01*
X247706Y36217D01*
X248175Y34772D01*
X248413Y33272D01*
X248413Y27431D01*
X240791Y27431D01*
G37*
%LPD*%
%LPC*%
G36*
X16457Y228091D02*
X16457Y228091D01*
X16493Y228320D01*
X16962Y229765D01*
X17652Y231119D01*
X18545Y232348D01*
X19620Y233423D01*
X20849Y234316D01*
X22203Y235006D01*
X23648Y235475D01*
X25148Y235713D01*
X30989Y235713D01*
X30989Y228091D01*
X16457Y228091D01*
G37*
%LPD*%
%LPC*%
G36*
X40131Y104649D02*
X40131Y104649D01*
X47245Y104649D01*
X47245Y99175D01*
X46893Y97409D01*
X46204Y95744D01*
X45203Y94246D01*
X43930Y92973D01*
X42432Y91972D01*
X40767Y91283D01*
X40131Y91156D01*
X40131Y104649D01*
G37*
%LPD*%
%LPC*%
G36*
X28955Y108711D02*
X28955Y108711D01*
X28955Y114185D01*
X29307Y115951D01*
X29996Y117616D01*
X30997Y119114D01*
X32270Y120387D01*
X33768Y121388D01*
X35433Y122077D01*
X36069Y122204D01*
X36069Y108711D01*
X28955Y108711D01*
G37*
%LPD*%
%LPC*%
G36*
X35433Y91283D02*
X35433Y91283D01*
X33768Y91972D01*
X32270Y92973D01*
X30997Y94246D01*
X29996Y95744D01*
X29307Y97409D01*
X28955Y99175D01*
X28955Y104649D01*
X36069Y104649D01*
X36069Y91156D01*
X35433Y91283D01*
G37*
%LPD*%
%LPC*%
G36*
X281621Y215321D02*
X281621Y215321D01*
X278814Y218127D01*
X278814Y222096D01*
X281621Y224902D01*
X285589Y224902D01*
X288396Y222096D01*
X288396Y218127D01*
X285589Y215321D01*
X281621Y215321D01*
G37*
%LPD*%
%LPC*%
G36*
X41191Y46216D02*
X41191Y46216D01*
X38384Y49022D01*
X38384Y52991D01*
X41191Y55797D01*
X45160Y55797D01*
X47966Y52991D01*
X47966Y49022D01*
X45160Y46216D01*
X41191Y46216D01*
G37*
%LPD*%
%LPC*%
G36*
X214439Y184879D02*
X214439Y184879D01*
X214439Y186641D01*
X219759Y191961D01*
X221521Y191961D01*
X221521Y184879D01*
X214439Y184879D01*
G37*
%LPD*%
%LPC*%
G36*
X230729Y98665D02*
X230729Y98665D01*
X225946Y98665D01*
X225946Y103534D01*
X226672Y103389D01*
X227759Y102939D01*
X228736Y102286D01*
X229568Y101455D01*
X230221Y100477D01*
X230671Y99391D01*
X230817Y98658D01*
X230777Y98657D01*
X230729Y98665D01*
G37*
%LPD*%
%LPC*%
G36*
X53721Y225170D02*
X53721Y225170D01*
X53721Y230039D01*
X54447Y229895D01*
X55533Y229445D01*
X56511Y228792D01*
X57342Y227960D01*
X57996Y226982D01*
X58446Y225896D01*
X58590Y225170D01*
X53721Y225170D01*
G37*
%LPD*%
%LPC*%
G36*
X214375Y143255D02*
X214375Y143255D01*
X214375Y148125D01*
X215101Y147980D01*
X216188Y147530D01*
X217166Y146877D01*
X217997Y146046D01*
X218650Y145068D01*
X219100Y143981D01*
X219245Y143255D01*
X214375Y143255D01*
G37*
%LPD*%
%LPC*%
G36*
X258323Y210540D02*
X258323Y210540D01*
X258323Y215410D01*
X259049Y215265D01*
X260136Y214815D01*
X261114Y214162D01*
X261945Y213331D01*
X262598Y212353D01*
X263048Y211266D01*
X263193Y210540D01*
X258323Y210540D01*
G37*
%LPD*%
%LPC*%
G36*
X245625Y52585D02*
X245625Y52585D01*
X245625Y57455D01*
X246351Y57310D01*
X247438Y56860D01*
X248416Y56207D01*
X249247Y55376D01*
X249900Y54398D01*
X250350Y53311D01*
X250495Y52585D01*
X245625Y52585D01*
G37*
%LPD*%
%LPC*%
G36*
X249935Y173735D02*
X249935Y173735D01*
X249935Y178605D01*
X250661Y178460D01*
X251748Y178010D01*
X252726Y177357D01*
X253557Y176526D01*
X254210Y175548D01*
X254660Y174461D01*
X254805Y173735D01*
X249935Y173735D01*
G37*
%LPD*%
%LPC*%
G36*
X188975Y74675D02*
X188975Y74675D01*
X188975Y79545D01*
X189701Y79400D01*
X190788Y78950D01*
X191766Y78297D01*
X192597Y77466D01*
X193250Y76488D01*
X193700Y75401D01*
X193845Y74675D01*
X188975Y74675D01*
G37*
%LPD*%
%LPC*%
G36*
X163575Y103377D02*
X163575Y103377D01*
X163575Y108247D01*
X164301Y108102D01*
X165388Y107652D01*
X166366Y106999D01*
X167197Y106168D01*
X167850Y105190D01*
X168300Y104103D01*
X168445Y103377D01*
X163575Y103377D01*
G37*
%LPD*%
%LPC*%
G36*
X196595Y46735D02*
X196595Y46735D01*
X196595Y51605D01*
X197321Y51460D01*
X198408Y51010D01*
X199386Y50357D01*
X200217Y49526D01*
X200870Y48548D01*
X201320Y47461D01*
X201465Y46735D01*
X196595Y46735D01*
G37*
%LPD*%
%LPC*%
G36*
X227075Y44195D02*
X227075Y44195D01*
X227075Y49065D01*
X227801Y48920D01*
X228888Y48470D01*
X229866Y47817D01*
X230697Y46986D01*
X231350Y46008D01*
X231800Y44921D01*
X231945Y44195D01*
X227075Y44195D01*
G37*
%LPD*%
%LPC*%
G36*
X207475Y143255D02*
X207475Y143255D01*
X207620Y143981D01*
X208070Y145068D01*
X208723Y146046D01*
X209554Y146877D01*
X210532Y147530D01*
X211619Y147980D01*
X212345Y148125D01*
X212345Y143255D01*
X207475Y143255D01*
G37*
%LPD*%
%LPC*%
G36*
X156675Y103377D02*
X156675Y103377D01*
X156820Y104103D01*
X157270Y105190D01*
X157923Y106168D01*
X158754Y106999D01*
X159732Y107652D01*
X160819Y108102D01*
X161545Y108247D01*
X161545Y103377D01*
X156675Y103377D01*
G37*
%LPD*%
%LPC*%
G36*
X249935Y171705D02*
X249935Y171705D01*
X254805Y171705D01*
X254660Y170979D01*
X254210Y169892D01*
X253557Y168914D01*
X252726Y168083D01*
X251748Y167430D01*
X250661Y166980D01*
X249935Y166835D01*
X249935Y171705D01*
G37*
%LPD*%
%LPC*%
G36*
X219046Y98665D02*
X219046Y98665D01*
X219191Y99391D01*
X219641Y100477D01*
X220294Y101455D01*
X221125Y102286D01*
X222103Y102939D01*
X223189Y103389D01*
X223915Y103534D01*
X223915Y98665D01*
X219046Y98665D01*
G37*
%LPD*%
%LPC*%
G36*
X65235Y135254D02*
X65235Y135254D01*
X65380Y135980D01*
X65830Y137067D01*
X66483Y138045D01*
X67314Y138876D01*
X68292Y139529D01*
X69379Y139979D01*
X70105Y140124D01*
X70105Y135254D01*
X65235Y135254D01*
G37*
%LPD*%
%LPC*%
G36*
X188975Y72645D02*
X188975Y72645D01*
X193845Y72645D01*
X193700Y71919D01*
X193250Y70832D01*
X192597Y69854D01*
X191766Y69023D01*
X190788Y68370D01*
X189701Y67920D01*
X188975Y67775D01*
X188975Y72645D01*
G37*
%LPD*%
%LPC*%
G36*
X238725Y52585D02*
X238725Y52585D01*
X238870Y53311D01*
X239320Y54398D01*
X239973Y55376D01*
X240804Y56207D01*
X241782Y56860D01*
X242869Y57310D01*
X243595Y57455D01*
X243595Y52585D01*
X238725Y52585D01*
G37*
%LPD*%
%LPC*%
G36*
X251423Y210540D02*
X251423Y210540D01*
X251568Y211266D01*
X252018Y212353D01*
X252671Y213331D01*
X253502Y214162D01*
X254480Y214815D01*
X255567Y215265D01*
X256293Y215410D01*
X256293Y210540D01*
X251423Y210540D01*
G37*
%LPD*%
%LPC*%
G36*
X258323Y208510D02*
X258323Y208510D01*
X263193Y208510D01*
X263048Y207784D01*
X262598Y206697D01*
X261945Y205719D01*
X261114Y204888D01*
X260136Y204235D01*
X259049Y203785D01*
X258323Y203640D01*
X258323Y208510D01*
G37*
%LPD*%
%LPC*%
G36*
X182671Y192112D02*
X182671Y192112D01*
X182816Y192838D01*
X183266Y193924D01*
X183919Y194902D01*
X184751Y195733D01*
X185728Y196386D01*
X186815Y196836D01*
X187541Y196981D01*
X187541Y192112D01*
X182671Y192112D01*
G37*
%LPD*%
%LPC*%
G36*
X243035Y173735D02*
X243035Y173735D01*
X243180Y174461D01*
X243630Y175548D01*
X244283Y176526D01*
X245114Y177357D01*
X246092Y178010D01*
X247179Y178460D01*
X247905Y178605D01*
X247905Y173735D01*
X243035Y173735D01*
G37*
%LPD*%
%LPC*%
G36*
X220175Y44195D02*
X220175Y44195D01*
X220320Y44921D01*
X220770Y46008D01*
X221423Y46986D01*
X222254Y47817D01*
X223232Y48470D01*
X224319Y48920D01*
X225045Y49065D01*
X225045Y44195D01*
X220175Y44195D01*
G37*
%LPD*%
%LPC*%
G36*
X214375Y141225D02*
X214375Y141225D01*
X219245Y141225D01*
X219100Y140499D01*
X218650Y139412D01*
X217997Y138434D01*
X217166Y137603D01*
X216188Y136950D01*
X215101Y136500D01*
X214375Y136355D01*
X214375Y141225D01*
G37*
%LPD*%
%LPC*%
G36*
X245625Y50555D02*
X245625Y50555D01*
X250495Y50555D01*
X250350Y49829D01*
X249900Y48742D01*
X249247Y47764D01*
X248416Y46933D01*
X247438Y46280D01*
X246351Y45830D01*
X245625Y45685D01*
X245625Y50555D01*
G37*
%LPD*%
%LPC*%
G36*
X69379Y128499D02*
X69379Y128499D01*
X68292Y128949D01*
X67314Y129602D01*
X66483Y130433D01*
X65830Y131411D01*
X65380Y132498D01*
X65235Y133224D01*
X70105Y133224D01*
X70105Y128354D01*
X69379Y128499D01*
G37*
%LPD*%
%LPC*%
G36*
X242869Y45830D02*
X242869Y45830D01*
X241782Y46280D01*
X240804Y46933D01*
X239973Y47764D01*
X239320Y48742D01*
X238870Y49829D01*
X238725Y50555D01*
X243595Y50555D01*
X243595Y45685D01*
X242869Y45830D01*
G37*
%LPD*%
%LPC*%
G36*
X255567Y203785D02*
X255567Y203785D01*
X254480Y204235D01*
X253502Y204888D01*
X252671Y205719D01*
X252018Y206697D01*
X251568Y207784D01*
X251423Y208510D01*
X256293Y208510D01*
X256293Y203640D01*
X255567Y203785D01*
G37*
%LPD*%
%LPC*%
G36*
X223189Y91909D02*
X223189Y91909D01*
X222103Y92359D01*
X221125Y93012D01*
X220294Y93844D01*
X219641Y94821D01*
X219191Y95908D01*
X219046Y96634D01*
X223915Y96634D01*
X223915Y91764D01*
X223189Y91909D01*
G37*
%LPD*%
%LPC*%
G36*
X211619Y136500D02*
X211619Y136500D01*
X210532Y136950D01*
X209554Y137603D01*
X208723Y138434D01*
X208070Y139412D01*
X207620Y140499D01*
X207475Y141225D01*
X212345Y141225D01*
X212345Y136355D01*
X211619Y136500D01*
G37*
%LPD*%
%LPC*%
G36*
X247179Y166980D02*
X247179Y166980D01*
X246092Y167430D01*
X245114Y168083D01*
X244283Y168914D01*
X243630Y169892D01*
X243180Y170979D01*
X243035Y171705D01*
X247905Y171705D01*
X247905Y166835D01*
X247179Y166980D01*
G37*
%LPD*%
%LPC*%
G36*
X38099Y106679D02*
X38099Y106679D01*
X38099Y106681D01*
X38101Y106681D01*
X38101Y106679D01*
X38099Y106679D01*
G37*
%LPD*%
D10*
X63500Y113284D02*
X63500Y100076D01*
X38100Y100076D02*
X38100Y113284D01*
D11*
X213360Y32512D02*
X213360Y18288D01*
X238760Y18288D02*
X238760Y32512D01*
X162560Y32512D02*
X162560Y18288D01*
X187960Y18288D02*
X187960Y32512D01*
X111760Y32512D02*
X111760Y18288D01*
X137160Y18288D02*
X137160Y32512D01*
X40132Y149860D02*
X25908Y149860D01*
X25908Y175260D02*
X40132Y175260D01*
X40132Y200660D02*
X25908Y200660D01*
X25908Y226060D02*
X40132Y226060D01*
D10*
X270256Y35560D02*
X283464Y35560D01*
X283464Y60960D02*
X270256Y60960D01*
D12*
X223520Y208280D03*
X198120Y208280D03*
X223520Y233680D03*
X198120Y233680D03*
X198120Y182880D03*
X223520Y182880D03*
D13*
X55880Y149860D03*
D14*
X83820Y149860D01*
X93980Y160020D02*
X142240Y160020D01*
X145923Y163703D01*
X145923Y167783D01*
X152400Y174260D01*
X152400Y205740D02*
X154940Y208280D01*
D13*
X154940Y208280D03*
D14*
X93980Y160020D02*
X83820Y149860D01*
X152400Y174260D02*
X152400Y205740D01*
D13*
X177038Y76200D03*
D14*
X131510Y95885D02*
X104140Y123255D01*
X131510Y95885D02*
X166070Y95885D01*
X174625Y87330D01*
X174625Y78613D01*
X177038Y76200D01*
X104140Y123255D02*
X104140Y142240D01*
X142240Y160020D02*
X149860Y152400D01*
X149860Y149860D01*
X106680Y144780D02*
X104140Y142240D01*
X144780Y144780D02*
X149860Y149860D01*
X144780Y144780D02*
X106680Y144780D01*
D13*
X47499Y185674D03*
D14*
X53340Y179833D01*
X53340Y165100D01*
X55880Y162560D01*
X63357Y162814D02*
X68723Y162814D01*
X71136Y160401D01*
X82866Y160401D01*
X63103Y162560D02*
X55880Y162560D01*
X63103Y162560D02*
X63357Y162814D01*
X82866Y160401D02*
X90613Y168148D01*
X144272Y177627D02*
X144272Y219202D01*
X146050Y220980D01*
D13*
X146050Y220980D03*
D14*
X135636Y168148D02*
X90613Y168148D01*
X137795Y170307D02*
X137795Y171150D01*
X144272Y177627D01*
X137795Y170307D02*
X135636Y168148D01*
D13*
X45720Y124460D03*
X14826Y218854D03*
D14*
X34544Y135636D02*
X45720Y124460D01*
X34544Y135636D02*
X20016Y135636D01*
X14826Y209694D02*
X14826Y218854D01*
X11684Y143968D02*
X20016Y135636D01*
X11684Y143968D02*
X11684Y206552D01*
X14826Y209694D01*
D13*
X86360Y229251D03*
D14*
X90789Y229251D01*
X98917Y175133D02*
X104283Y175133D01*
X110617Y181467D01*
X110617Y209423D01*
X91170Y182880D02*
X98917Y175133D01*
X56387Y182880D02*
X53340Y179833D01*
X90789Y229251D02*
X110617Y209423D01*
X91170Y182880D02*
X56387Y182880D01*
D13*
X66040Y156337D03*
D14*
X84550Y156337D01*
X92297Y164084D01*
X140557Y164084D02*
X141859Y165386D01*
X140557Y164084D02*
X92297Y164084D01*
X141859Y165386D02*
X141859Y169466D01*
X148336Y175943D01*
X148336Y211836D02*
X154940Y218440D01*
D13*
X154940Y218440D03*
D14*
X148336Y211836D02*
X148336Y175943D01*
D13*
X181457Y219557D03*
D14*
X227492Y217868D02*
X236474Y208886D01*
X236474Y182275D01*
X216369Y162170D01*
X202464Y162170D01*
X183145Y217868D02*
X181457Y219557D01*
X183145Y217868D02*
X227492Y217868D01*
X175279Y134985D02*
X172720Y134985D01*
D13*
X172720Y134985D03*
X95160Y90080D03*
D14*
X95160Y81340D01*
X107441Y69059D01*
D13*
X107441Y69059D03*
D14*
X175279Y134985D02*
X202464Y162170D01*
D13*
X226060Y43180D03*
D14*
X198120Y43180D01*
X195580Y45720D01*
D13*
X195580Y45720D03*
X244610Y51570D03*
D14*
X236220Y43180D01*
X226060Y43180D01*
D13*
X155440Y43680D03*
D14*
X170680Y43680D01*
X172720Y45720D01*
D13*
X172720Y45720D03*
X71120Y134239D03*
D14*
X21700Y139700D02*
X15748Y145652D01*
X65659Y139700D02*
X71120Y134239D01*
X65659Y139700D02*
X21700Y139700D01*
X15748Y145652D02*
X15748Y204868D01*
X100743Y212344D02*
X104807Y208280D01*
X104807Y191167D01*
X104140Y190500D01*
D13*
X104140Y190500D03*
D14*
X68580Y231140D02*
X42020Y231140D01*
X15748Y204868D01*
D13*
X52705Y224155D03*
D14*
X66073Y224155D01*
X84836Y212344D02*
X100743Y212344D01*
X71787Y218440D02*
X66073Y224155D01*
X71787Y218440D02*
X78740Y218440D01*
X84836Y212344D01*
X78740Y218440D02*
X78740Y220980D01*
X68580Y231140D01*
D13*
X257308Y209525D03*
D14*
X246380Y198597D01*
X246380Y175260D02*
X248920Y172720D01*
D13*
X248920Y172720D03*
D14*
X246380Y175260D02*
X246380Y198597D01*
D13*
X188556Y191096D03*
X229997Y197785D03*
D14*
X192777Y191096D02*
X188556Y191096D01*
X192777Y191096D02*
X194149Y192468D01*
X208137Y202057D02*
X213503Y202057D01*
X217775Y197785D01*
X229997Y197785D01*
X198548Y192468D02*
X194149Y192468D01*
X198548Y192468D02*
X208137Y202057D01*
D13*
X224931Y97649D03*
D14*
X230729Y97649D01*
X239268Y149214D02*
X250767Y160713D01*
X239268Y149214D02*
X239268Y106188D01*
X230729Y97649D01*
X250767Y160713D02*
X250767Y170873D01*
X248920Y172720D01*
D13*
X213360Y142240D03*
D14*
X228600Y142240D01*
X235574Y149214D02*
X239268Y149214D01*
X235574Y149214D02*
X228600Y142240D01*
X246380Y198597D02*
X240538Y204439D01*
X184139Y226034D02*
X178774Y226034D01*
X174980Y222239D01*
X174980Y216874D01*
X229175Y221932D02*
X240538Y210569D01*
X229175Y221932D02*
X188241Y221932D01*
X184139Y226034D01*
X188556Y203297D02*
X188556Y191096D01*
X188556Y203297D02*
X174980Y216874D01*
X240538Y210569D02*
X240538Y204439D01*
D13*
X162560Y102362D03*
D14*
X164973Y99949D01*
X167753Y99949D01*
X180340Y87362D01*
X180340Y82058D01*
X187960Y74438D02*
X187960Y73660D01*
D13*
X187960Y73660D03*
D14*
X187960Y74438D02*
X180340Y82058D01*
D13*
X236220Y93980D03*
D15*
X243840Y101600D01*
X243840Y147320D01*
X254000Y157480D01*
X279400Y157480D02*
X284480Y162560D01*
X284480Y200660D01*
D13*
X284480Y200660D03*
D15*
X279400Y157480D02*
X254000Y157480D01*
D13*
X134620Y222079D03*
X165100Y236220D03*
D15*
X137271Y222079D02*
X134620Y222079D01*
X137271Y222079D02*
X143157Y227965D01*
X156845Y227965D02*
X165100Y236220D01*
X156845Y227965D02*
X143157Y227965D01*
D13*
X190500Y246380D03*
D15*
X182880Y246380D01*
X172720Y236220D01*
X165100Y236220D01*
D13*
X124460Y22860D03*
X80519Y56451D03*
D14*
X121920Y14080D02*
X115968Y8128D01*
X107552Y8128D01*
X101600Y14080D01*
X121920Y20320D02*
X124460Y22860D01*
X121920Y20320D02*
X121920Y14080D01*
X101600Y14080D02*
X101600Y35370D01*
X80519Y56451D01*
D13*
X75430Y77970D03*
D14*
X75430Y90670D01*
X91440Y106680D02*
X99060Y106680D01*
D13*
X99060Y106680D03*
D14*
X91440Y106680D02*
X75430Y90670D01*
D13*
X107441Y45720D03*
D15*
X107441Y59181D01*
X124460Y76200D02*
X157480Y76200D01*
X160020Y78740D01*
X160020Y81280D01*
D13*
X160020Y81280D03*
D15*
X124460Y76200D02*
X107441Y59181D01*
D13*
X210820Y195580D03*
X165100Y147320D03*
D14*
X207708Y192468D02*
X210820Y195580D01*
X207708Y192468D02*
X207708Y178909D01*
X168132Y150352D02*
X165100Y147320D01*
X179152Y150352D02*
X207708Y178909D01*
X179152Y150352D02*
X168132Y150352D01*
D13*
X172720Y156829D03*
D14*
X164449Y165100D01*
X152400Y165100D01*
D13*
X152400Y165100D03*
X185420Y45720D03*
D14*
X170561Y85646D02*
X164386Y91821D01*
X129826Y91821D01*
X97266Y124381D01*
X97266Y134620D01*
D13*
X97266Y134620D03*
X58420Y217297D03*
D14*
X67183Y217297D01*
X76200Y208280D01*
X170561Y54356D02*
X172720Y52197D01*
X175403Y52197D01*
X176800Y50800D01*
X182880Y50800D01*
X185420Y48260D01*
X185420Y45720D01*
X170561Y54356D02*
X170561Y85646D01*
X100743Y205740D02*
X98203Y208280D01*
D13*
X101600Y181610D03*
D14*
X100743Y196263D02*
X100743Y205740D01*
X100743Y196263D02*
X97663Y193183D01*
X97663Y187817D01*
X101600Y183880D02*
X101600Y181610D01*
X101600Y183880D02*
X97663Y187817D01*
X98203Y208280D02*
X76200Y208280D01*
D13*
X156581Y53340D03*
D14*
X166497Y78597D02*
X166497Y83963D01*
X162703Y87757D01*
X156581Y68681D02*
X156581Y53340D01*
X156581Y68681D02*
X166497Y78597D01*
X162703Y87757D02*
X128143Y87757D01*
X90789Y125111D02*
X90789Y144780D01*
D13*
X90789Y144780D03*
D14*
X90789Y125111D02*
X128143Y87757D01*
D13*
X212353Y168647D03*
X173990Y143875D03*
D14*
X203194Y168647D02*
X212353Y168647D01*
X203194Y168647D02*
X180835Y146288D01*
X176403Y146288D02*
X173990Y143875D01*
X176403Y146288D02*
X180835Y146288D01*
D13*
X78740Y116840D03*
D14*
X78740Y129540D01*
X81280Y132080D01*
D13*
X81280Y132080D03*
X266700Y73660D03*
D15*
X266700Y78740D01*
X276860Y88900D02*
X276860Y129540D01*
X279400Y132080D01*
X287020Y132080D01*
D13*
X287020Y132080D03*
D15*
X276860Y88900D02*
X266700Y78740D01*
M02*
