G04 EAGLE Gerber RS-274X export*
G75*
%MOMM*%
%FSLAX34Y34*%
%LPD*%
%INBottom Copper*%
%IPPOS*%
%AMOC8*
5,1,8,0,0,1.08239X$1,22.5*%
G01*
%ADD10C,1.320800*%
%ADD11C,1.422400*%
%ADD12P,1.415766X8X292.500000*%
%ADD13C,0.685800*%
%ADD14C,0.203200*%
%ADD15C,0.304800*%

G36*
X151704Y14229D02*
X151704Y14229D01*
X151734Y14226D01*
X151845Y14249D01*
X151957Y14265D01*
X151984Y14277D01*
X152012Y14282D01*
X152113Y14335D01*
X152216Y14381D01*
X152239Y14400D01*
X152265Y14413D01*
X152347Y14491D01*
X152433Y14565D01*
X152450Y14589D01*
X152471Y14609D01*
X152528Y14707D01*
X152591Y14801D01*
X152600Y14829D01*
X152615Y14854D01*
X152642Y14964D01*
X152677Y15072D01*
X152677Y15102D01*
X152685Y15130D01*
X152681Y15243D01*
X152684Y15356D01*
X152677Y15385D01*
X152676Y15414D01*
X152641Y15522D01*
X152612Y15631D01*
X152597Y15657D01*
X152588Y15685D01*
X152543Y15748D01*
X152467Y15876D01*
X152421Y15919D01*
X152393Y15958D01*
X150875Y17476D01*
X150875Y21981D01*
X150875Y21983D01*
X150875Y21985D01*
X150855Y22125D01*
X150835Y22263D01*
X150835Y22264D01*
X150835Y22266D01*
X150776Y22396D01*
X150719Y22522D01*
X150718Y22524D01*
X150717Y22525D01*
X150627Y22632D01*
X150536Y22739D01*
X150534Y22740D01*
X150533Y22741D01*
X150521Y22749D01*
X150299Y22897D01*
X150270Y22906D01*
X150249Y22919D01*
X149306Y23310D01*
X147770Y24846D01*
X146938Y26854D01*
X146938Y29026D01*
X147770Y31034D01*
X149306Y32570D01*
X151314Y33402D01*
X153486Y33402D01*
X154551Y32961D01*
X154663Y32932D01*
X154772Y32897D01*
X154800Y32897D01*
X154827Y32890D01*
X154941Y32893D01*
X155056Y32890D01*
X155083Y32897D01*
X155111Y32898D01*
X155220Y32933D01*
X155331Y32962D01*
X155355Y32976D01*
X155382Y32984D01*
X155477Y33048D01*
X155576Y33107D01*
X155595Y33127D01*
X155618Y33143D01*
X155692Y33230D01*
X155770Y33314D01*
X155783Y33339D01*
X155801Y33360D01*
X155847Y33465D01*
X155900Y33567D01*
X155904Y33592D01*
X155916Y33620D01*
X155953Y33884D01*
X155955Y33899D01*
X155955Y39411D01*
X156884Y41654D01*
X156889Y41672D01*
X156898Y41688D01*
X156910Y41746D01*
X156919Y41765D01*
X156926Y41815D01*
X156955Y41930D01*
X156955Y41948D01*
X156959Y41965D01*
X156955Y42025D01*
X156958Y42047D01*
X156951Y42097D01*
X156947Y42214D01*
X156942Y42231D01*
X156941Y42249D01*
X156921Y42305D01*
X156917Y42328D01*
X156895Y42377D01*
X156861Y42484D01*
X156851Y42500D01*
X156844Y42517D01*
X156811Y42563D01*
X156800Y42587D01*
X156761Y42633D01*
X156702Y42721D01*
X156688Y42732D01*
X156678Y42747D01*
X156636Y42780D01*
X156616Y42804D01*
X156569Y42833D01*
X156485Y42904D01*
X156468Y42911D01*
X156454Y42922D01*
X156386Y42947D01*
X156384Y42948D01*
X156331Y42981D01*
X155152Y43470D01*
X154923Y43623D01*
X154858Y43654D01*
X154798Y43694D01*
X154730Y43716D01*
X154667Y43746D01*
X154596Y43758D01*
X154527Y43780D01*
X154456Y43782D01*
X154387Y43794D01*
X154315Y43786D01*
X154243Y43787D01*
X154174Y43770D01*
X154104Y43762D01*
X154037Y43734D01*
X153968Y43716D01*
X153907Y43680D01*
X153842Y43652D01*
X153785Y43607D01*
X153723Y43570D01*
X153675Y43519D01*
X153620Y43475D01*
X153578Y43416D01*
X153529Y43363D01*
X153497Y43300D01*
X153456Y43242D01*
X153432Y43174D01*
X153399Y43110D01*
X153389Y43051D01*
X153363Y42974D01*
X153356Y42854D01*
X153344Y42779D01*
X153344Y42646D01*
X153114Y41493D01*
X152664Y40406D01*
X152011Y39428D01*
X151180Y38597D01*
X150202Y37944D01*
X149115Y37494D01*
X148389Y37349D01*
X148389Y43234D01*
X148389Y49119D01*
X149115Y48974D01*
X150202Y48524D01*
X150431Y48371D01*
X150496Y48340D01*
X150556Y48300D01*
X150624Y48278D01*
X150687Y48248D01*
X150758Y48236D01*
X150827Y48214D01*
X150898Y48212D01*
X150967Y48200D01*
X151039Y48209D01*
X151111Y48207D01*
X151180Y48224D01*
X151250Y48232D01*
X151317Y48260D01*
X151386Y48278D01*
X151447Y48314D01*
X151512Y48342D01*
X151569Y48387D01*
X151631Y48424D01*
X151679Y48475D01*
X151734Y48519D01*
X151776Y48578D01*
X151825Y48631D01*
X151858Y48694D01*
X151898Y48752D01*
X151922Y48820D01*
X151955Y48884D01*
X151965Y48943D01*
X151991Y49020D01*
X151998Y49140D01*
X152010Y49215D01*
X152010Y49348D01*
X152240Y50501D01*
X152690Y51588D01*
X153343Y52566D01*
X154174Y53397D01*
X154492Y53609D01*
X154504Y53619D01*
X154517Y53627D01*
X154609Y53714D01*
X154704Y53799D01*
X154712Y53812D01*
X154723Y53822D01*
X154788Y53932D01*
X154855Y54039D01*
X154859Y54054D01*
X154867Y54068D01*
X154898Y54191D01*
X154933Y54313D01*
X154933Y54328D01*
X154937Y54343D01*
X154933Y54470D01*
X154933Y54597D01*
X154929Y54612D01*
X154928Y54627D01*
X154889Y54748D01*
X154854Y54870D01*
X154845Y54883D01*
X154841Y54898D01*
X154801Y54954D01*
X154702Y55110D01*
X154667Y55141D01*
X154646Y55171D01*
X154491Y55326D01*
X153659Y57334D01*
X153659Y59506D01*
X154491Y61514D01*
X155775Y62798D01*
X155827Y62868D01*
X155887Y62932D01*
X155913Y62981D01*
X155946Y63025D01*
X155977Y63107D01*
X156017Y63185D01*
X156025Y63232D01*
X156047Y63291D01*
X156059Y63439D01*
X156072Y63516D01*
X156072Y75024D01*
X160734Y79685D01*
X160803Y79777D01*
X160877Y79865D01*
X160888Y79890D01*
X160905Y79913D01*
X160945Y80020D01*
X160992Y80125D01*
X160996Y80152D01*
X161006Y80178D01*
X161015Y80293D01*
X161031Y80406D01*
X161027Y80434D01*
X161029Y80462D01*
X161007Y80574D01*
X160990Y80688D01*
X160979Y80713D01*
X160973Y80740D01*
X160921Y80842D01*
X160873Y80947D01*
X160855Y80968D01*
X160842Y80993D01*
X160763Y81076D01*
X160689Y81163D01*
X160668Y81176D01*
X160647Y81199D01*
X160417Y81333D01*
X160404Y81341D01*
X159466Y81730D01*
X157930Y83266D01*
X157171Y85098D01*
X157170Y85099D01*
X157170Y85100D01*
X157098Y85221D01*
X157027Y85342D01*
X157026Y85343D01*
X157025Y85345D01*
X156921Y85442D01*
X156820Y85538D01*
X156819Y85538D01*
X156817Y85539D01*
X156692Y85604D01*
X156567Y85668D01*
X156566Y85668D01*
X156564Y85669D01*
X156549Y85671D01*
X156288Y85723D01*
X156258Y85720D01*
X156233Y85724D01*
X127737Y85724D01*
X106380Y107081D01*
X106312Y107132D01*
X106249Y107191D01*
X106198Y107218D01*
X106153Y107252D01*
X106073Y107282D01*
X105996Y107322D01*
X105941Y107333D01*
X105887Y107353D01*
X105802Y107360D01*
X105717Y107377D01*
X105661Y107372D01*
X105604Y107376D01*
X105520Y107360D01*
X105434Y107352D01*
X105381Y107332D01*
X105325Y107321D01*
X105249Y107281D01*
X105169Y107250D01*
X105124Y107216D01*
X105073Y107190D01*
X105011Y107130D01*
X104942Y107078D01*
X104908Y107033D01*
X104867Y106994D01*
X104823Y106920D01*
X104772Y106851D01*
X104752Y106797D01*
X104723Y106748D01*
X104702Y106665D01*
X104672Y106585D01*
X104667Y106528D01*
X104653Y106473D01*
X104656Y106387D01*
X104649Y106301D01*
X104660Y106253D01*
X104662Y106189D01*
X104707Y106051D01*
X104724Y105974D01*
X104800Y105791D01*
X104945Y105065D01*
X100075Y105065D01*
X100075Y109935D01*
X100801Y109790D01*
X100984Y109714D01*
X101068Y109693D01*
X101148Y109662D01*
X101205Y109658D01*
X101260Y109643D01*
X101346Y109646D01*
X101431Y109639D01*
X101487Y109650D01*
X101544Y109652D01*
X101626Y109678D01*
X101710Y109695D01*
X101760Y109721D01*
X101815Y109738D01*
X101886Y109786D01*
X101962Y109826D01*
X102003Y109865D01*
X102051Y109896D01*
X102106Y109962D01*
X102168Y110021D01*
X102197Y110071D01*
X102234Y110114D01*
X102269Y110193D01*
X102312Y110267D01*
X102326Y110322D01*
X102349Y110374D01*
X102361Y110459D01*
X102382Y110542D01*
X102380Y110599D01*
X102388Y110655D01*
X102376Y110741D01*
X102373Y110826D01*
X102356Y110880D01*
X102348Y110937D01*
X102312Y111015D01*
X102286Y111097D01*
X102257Y111137D01*
X102230Y111196D01*
X102165Y111273D01*
X102143Y111309D01*
X102116Y111335D01*
X102091Y111370D01*
X86216Y127245D01*
X86216Y128143D01*
X86208Y128201D01*
X86210Y128259D01*
X86188Y128341D01*
X86176Y128425D01*
X86153Y128478D01*
X86138Y128534D01*
X86095Y128607D01*
X86060Y128684D01*
X86022Y128729D01*
X85993Y128779D01*
X85931Y128837D01*
X85877Y128901D01*
X85828Y128933D01*
X85785Y128973D01*
X85710Y129012D01*
X85640Y129059D01*
X85584Y129076D01*
X85532Y129103D01*
X85464Y129114D01*
X85369Y129144D01*
X85303Y129146D01*
X83266Y129990D01*
X81730Y131526D01*
X80898Y133534D01*
X80898Y135706D01*
X81730Y137714D01*
X83266Y139250D01*
X85274Y140082D01*
X87446Y140082D01*
X88876Y139489D01*
X88988Y139461D01*
X89097Y139426D01*
X89125Y139425D01*
X89152Y139418D01*
X89266Y139422D01*
X89381Y139419D01*
X89408Y139426D01*
X89436Y139427D01*
X89545Y139462D01*
X89656Y139491D01*
X89680Y139505D01*
X89707Y139513D01*
X89802Y139577D01*
X89901Y139636D01*
X89920Y139656D01*
X89943Y139672D01*
X90017Y139759D01*
X90095Y139843D01*
X90108Y139868D01*
X90126Y139889D01*
X90172Y139994D01*
X90225Y140096D01*
X90229Y140121D01*
X90241Y140149D01*
X90278Y140413D01*
X90280Y140427D01*
X90280Y144764D01*
X90268Y144851D01*
X90265Y144938D01*
X90248Y144991D01*
X90240Y145046D01*
X90205Y145125D01*
X90178Y145209D01*
X90150Y145248D01*
X90124Y145305D01*
X90028Y145418D01*
X89983Y145482D01*
X88699Y146766D01*
X87867Y148774D01*
X87867Y150876D01*
X87859Y150934D01*
X87861Y150992D01*
X87839Y151074D01*
X87827Y151158D01*
X87804Y151211D01*
X87789Y151267D01*
X87746Y151340D01*
X87711Y151417D01*
X87673Y151462D01*
X87644Y151512D01*
X87582Y151570D01*
X87528Y151634D01*
X87479Y151666D01*
X87436Y151706D01*
X87361Y151745D01*
X87291Y151792D01*
X87235Y151809D01*
X87183Y151836D01*
X87115Y151847D01*
X87020Y151877D01*
X86920Y151880D01*
X86852Y151891D01*
X63516Y151891D01*
X63429Y151879D01*
X63342Y151876D01*
X63289Y151859D01*
X63234Y151851D01*
X63155Y151816D01*
X63071Y151789D01*
X63032Y151761D01*
X62975Y151735D01*
X62862Y151639D01*
X62798Y151594D01*
X61514Y150310D01*
X59506Y149478D01*
X57334Y149478D01*
X55326Y150310D01*
X53790Y151846D01*
X53477Y152601D01*
X53462Y152626D01*
X53453Y152654D01*
X53390Y152748D01*
X53333Y152846D01*
X53311Y152866D01*
X53295Y152890D01*
X53208Y152963D01*
X53126Y153041D01*
X53100Y153054D01*
X53077Y153073D01*
X52974Y153119D01*
X52873Y153171D01*
X52845Y153177D01*
X52818Y153189D01*
X52706Y153204D01*
X52594Y153226D01*
X52565Y153224D01*
X52536Y153228D01*
X52424Y153211D01*
X52311Y153202D01*
X52284Y153191D01*
X52255Y153187D01*
X52152Y153140D01*
X52046Y153100D01*
X52022Y153082D01*
X51996Y153070D01*
X51910Y152996D01*
X51819Y152928D01*
X51802Y152904D01*
X51779Y152885D01*
X51738Y152819D01*
X51649Y152700D01*
X51627Y152642D01*
X51601Y152601D01*
X50425Y149760D01*
X47852Y147187D01*
X44491Y145795D01*
X26629Y145795D01*
X23268Y147187D01*
X20695Y149760D01*
X19303Y153121D01*
X19303Y156759D01*
X20695Y160120D01*
X23268Y162693D01*
X26629Y164085D01*
X44491Y164085D01*
X47852Y162693D01*
X50425Y160120D01*
X51601Y157279D01*
X51616Y157254D01*
X51625Y157226D01*
X51688Y157132D01*
X51746Y157034D01*
X51767Y157014D01*
X51783Y156990D01*
X51870Y156917D01*
X51952Y156839D01*
X51979Y156826D01*
X52001Y156807D01*
X52104Y156761D01*
X52205Y156709D01*
X52234Y156703D01*
X52261Y156691D01*
X52373Y156676D01*
X52484Y156654D01*
X52513Y156656D01*
X52542Y156652D01*
X52655Y156669D01*
X52767Y156678D01*
X52795Y156689D01*
X52824Y156693D01*
X52927Y156740D01*
X53033Y156780D01*
X53056Y156798D01*
X53083Y156810D01*
X53169Y156884D01*
X53259Y156952D01*
X53277Y156975D01*
X53299Y156995D01*
X53341Y157061D01*
X53430Y157180D01*
X53452Y157238D01*
X53477Y157279D01*
X53790Y158034D01*
X55326Y159570D01*
X57334Y160402D01*
X59506Y160402D01*
X61608Y159531D01*
X61611Y159529D01*
X61639Y159518D01*
X61664Y159501D01*
X61730Y159480D01*
X61768Y159461D01*
X61804Y159455D01*
X61877Y159427D01*
X61907Y159425D01*
X61935Y159416D01*
X62048Y159413D01*
X62065Y159411D01*
X62099Y159406D01*
X62103Y159406D01*
X62114Y159407D01*
X62160Y159403D01*
X62189Y159409D01*
X62219Y159408D01*
X62328Y159437D01*
X62340Y159439D01*
X62385Y159445D01*
X62395Y159450D01*
X62439Y159459D01*
X62466Y159473D01*
X62494Y159480D01*
X62591Y159538D01*
X62597Y159541D01*
X62644Y159562D01*
X62654Y159570D01*
X62691Y159589D01*
X62713Y159610D01*
X62739Y159625D01*
X62815Y159706D01*
X62861Y159745D01*
X62870Y159758D01*
X62898Y159785D01*
X62913Y159811D01*
X62933Y159833D01*
X62980Y159925D01*
X63019Y159982D01*
X63024Y160001D01*
X63042Y160030D01*
X63049Y160059D01*
X63063Y160086D01*
X63076Y160162D01*
X63104Y160253D01*
X63105Y160277D01*
X63112Y160306D01*
X63110Y160369D01*
X63118Y160417D01*
X63118Y162503D01*
X63950Y164511D01*
X65486Y166047D01*
X67494Y166879D01*
X69666Y166879D01*
X71674Y166047D01*
X72958Y164763D01*
X73028Y164711D01*
X73092Y164651D01*
X73141Y164625D01*
X73185Y164592D01*
X73267Y164561D01*
X73345Y164521D01*
X73392Y164513D01*
X73451Y164491D01*
X73599Y164479D01*
X73676Y164466D01*
X85406Y164466D01*
X85493Y164478D01*
X85580Y164481D01*
X85633Y164498D01*
X85688Y164506D01*
X85768Y164541D01*
X85851Y164568D01*
X85890Y164596D01*
X85947Y164622D01*
X86060Y164718D01*
X86124Y164763D01*
X93574Y172213D01*
X140335Y172213D01*
X140393Y172221D01*
X140451Y172219D01*
X140533Y172241D01*
X140617Y172253D01*
X140670Y172276D01*
X140726Y172291D01*
X140799Y172334D01*
X140876Y172369D01*
X140921Y172407D01*
X140971Y172436D01*
X141029Y172498D01*
X141093Y172552D01*
X141125Y172601D01*
X141165Y172644D01*
X141204Y172719D01*
X141251Y172789D01*
X141268Y172845D01*
X141295Y172897D01*
X141306Y172965D01*
X141336Y173060D01*
X141339Y173160D01*
X141350Y173228D01*
X141350Y175809D01*
X147530Y181989D01*
X147582Y182058D01*
X147642Y182122D01*
X147668Y182172D01*
X147701Y182216D01*
X147732Y182298D01*
X147772Y182376D01*
X147780Y182423D01*
X147802Y182482D01*
X147810Y182578D01*
X147813Y182588D01*
X147814Y182630D01*
X147827Y182707D01*
X147827Y218179D01*
X151721Y222072D01*
X151773Y222142D01*
X151833Y222206D01*
X151859Y222256D01*
X151892Y222300D01*
X151923Y222381D01*
X151963Y222459D01*
X151971Y222507D01*
X151993Y222565D01*
X152005Y222713D01*
X152018Y222790D01*
X152018Y224606D01*
X152850Y226614D01*
X153991Y227755D01*
X153999Y227766D01*
X154001Y227767D01*
X154005Y227774D01*
X154009Y227779D01*
X154031Y227798D01*
X154094Y227892D01*
X154162Y227982D01*
X154172Y228010D01*
X154189Y228034D01*
X154223Y228142D01*
X154263Y228248D01*
X154266Y228277D01*
X154274Y228305D01*
X154277Y228419D01*
X154287Y228531D01*
X154281Y228560D01*
X154282Y228589D01*
X154253Y228699D01*
X154231Y228810D01*
X154217Y228836D01*
X154210Y228864D01*
X154152Y228962D01*
X154100Y229062D01*
X154080Y229084D01*
X154065Y229109D01*
X153982Y229186D01*
X153904Y229268D01*
X153879Y229283D01*
X153857Y229303D01*
X153757Y229355D01*
X153659Y229412D01*
X153630Y229419D01*
X153604Y229433D01*
X153527Y229446D01*
X153383Y229482D01*
X153321Y229480D01*
X153273Y229488D01*
X147590Y229488D01*
X147504Y229476D01*
X147416Y229473D01*
X147364Y229456D01*
X147309Y229448D01*
X147229Y229413D01*
X147146Y229386D01*
X147107Y229358D01*
X147050Y229332D01*
X146936Y229236D01*
X146873Y229191D01*
X141964Y224282D01*
X141945Y224257D01*
X141921Y224237D01*
X141880Y224171D01*
X141832Y224107D01*
X140254Y222529D01*
X138246Y221697D01*
X136074Y221697D01*
X134066Y222529D01*
X132530Y224065D01*
X131698Y226073D01*
X131698Y228245D01*
X132530Y230253D01*
X134066Y231789D01*
X136074Y232621D01*
X138246Y232621D01*
X139031Y232296D01*
X139033Y232295D01*
X139034Y232295D01*
X139167Y232261D01*
X139306Y232225D01*
X139308Y232225D01*
X139310Y232224D01*
X139450Y232229D01*
X139591Y232233D01*
X139592Y232233D01*
X139594Y232233D01*
X139729Y232277D01*
X139861Y232320D01*
X139863Y232320D01*
X139864Y232321D01*
X139877Y232330D01*
X140097Y232478D01*
X140117Y232501D01*
X140138Y232516D01*
X141843Y234221D01*
X144223Y236602D01*
X157491Y236602D01*
X157578Y236614D01*
X157665Y236617D01*
X157718Y236634D01*
X157773Y236642D01*
X157853Y236677D01*
X157936Y236704D01*
X157975Y236732D01*
X158032Y236758D01*
X158145Y236854D01*
X158209Y236899D01*
X161881Y240571D01*
X161933Y240641D01*
X161993Y240705D01*
X162019Y240754D01*
X162052Y240798D01*
X162083Y240880D01*
X162123Y240958D01*
X162131Y241005D01*
X162153Y241064D01*
X162165Y241211D01*
X162178Y241289D01*
X162178Y242386D01*
X163010Y244394D01*
X164546Y245930D01*
X166554Y246762D01*
X168726Y246762D01*
X170734Y245930D01*
X171510Y245154D01*
X171580Y245102D01*
X171644Y245042D01*
X171693Y245016D01*
X171737Y244983D01*
X171819Y244952D01*
X171897Y244912D01*
X171944Y244904D01*
X172003Y244882D01*
X172151Y244870D01*
X172228Y244857D01*
X173366Y244857D01*
X173453Y244869D01*
X173540Y244872D01*
X173593Y244889D01*
X173648Y244897D01*
X173728Y244932D01*
X173811Y244959D01*
X173850Y244987D01*
X173907Y245013D01*
X174020Y245109D01*
X174084Y245154D01*
X182212Y253282D01*
X182230Y253306D01*
X182252Y253325D01*
X182315Y253419D01*
X182383Y253509D01*
X182393Y253537D01*
X182410Y253561D01*
X182444Y253669D01*
X182484Y253775D01*
X182487Y253804D01*
X182496Y253832D01*
X182498Y253946D01*
X182508Y254058D01*
X182502Y254087D01*
X182503Y254116D01*
X182474Y254226D01*
X182452Y254337D01*
X182438Y254363D01*
X182431Y254391D01*
X182373Y254489D01*
X182321Y254589D01*
X182301Y254611D01*
X182286Y254636D01*
X182203Y254713D01*
X182125Y254795D01*
X182100Y254810D01*
X182078Y254830D01*
X181978Y254882D01*
X181880Y254939D01*
X181851Y254946D01*
X181825Y254960D01*
X181748Y254973D01*
X181604Y255009D01*
X181542Y255007D01*
X181494Y255015D01*
X41839Y255015D01*
X41799Y255010D01*
X41767Y255013D01*
X36897Y254664D01*
X36815Y254647D01*
X36753Y254644D01*
X31983Y253606D01*
X31904Y253577D01*
X31844Y253565D01*
X27269Y251859D01*
X27195Y251819D01*
X27137Y251799D01*
X22852Y249459D01*
X22785Y249409D01*
X22730Y249381D01*
X18822Y246455D01*
X18762Y246395D01*
X18712Y246360D01*
X15260Y242908D01*
X15210Y242840D01*
X15165Y242798D01*
X12239Y238890D01*
X12199Y238816D01*
X12161Y238768D01*
X9821Y234483D01*
X9792Y234404D01*
X9761Y234351D01*
X8055Y229776D01*
X8037Y229694D01*
X8014Y229637D01*
X6976Y224867D01*
X6970Y224783D01*
X6956Y224723D01*
X6607Y219853D01*
X6610Y219813D01*
X6605Y219781D01*
X6605Y15240D01*
X6613Y15182D01*
X6611Y15124D01*
X6633Y15042D01*
X6645Y14959D01*
X6669Y14905D01*
X6683Y14849D01*
X6726Y14776D01*
X6761Y14699D01*
X6799Y14654D01*
X6829Y14604D01*
X6890Y14546D01*
X6945Y14482D01*
X6993Y14450D01*
X7036Y14410D01*
X7111Y14371D01*
X7181Y14325D01*
X7237Y14307D01*
X7289Y14280D01*
X7357Y14269D01*
X7452Y14239D01*
X7552Y14236D01*
X7620Y14225D01*
X151675Y14225D01*
X151704Y14229D01*
G37*
G36*
X285790Y14230D02*
X285790Y14230D01*
X285822Y14227D01*
X289437Y14486D01*
X289519Y14504D01*
X289581Y14506D01*
X293122Y15277D01*
X293201Y15306D01*
X293261Y15318D01*
X296656Y16584D01*
X296730Y16624D01*
X296788Y16644D01*
X299969Y18381D01*
X300033Y18429D01*
X300062Y18442D01*
X300070Y18449D01*
X300091Y18459D01*
X302992Y20631D01*
X303051Y20691D01*
X303101Y20726D01*
X305664Y23289D01*
X305714Y23356D01*
X305759Y23398D01*
X307931Y26299D01*
X307971Y26373D01*
X308009Y26421D01*
X309746Y29602D01*
X309775Y29681D01*
X309806Y29734D01*
X311072Y33129D01*
X311090Y33211D01*
X311113Y33268D01*
X311884Y36809D01*
X311890Y36893D01*
X311904Y36953D01*
X312163Y40568D01*
X312160Y40608D01*
X312165Y40640D01*
X312165Y211266D01*
X312160Y211302D01*
X312163Y211332D01*
X311797Y216910D01*
X311782Y216985D01*
X311780Y217042D01*
X310690Y222524D01*
X310664Y222596D01*
X310655Y222652D01*
X308858Y227946D01*
X308824Y228014D01*
X308808Y228068D01*
X306335Y233082D01*
X306292Y233145D01*
X306269Y233197D01*
X303163Y237845D01*
X303112Y237902D01*
X303082Y237950D01*
X299397Y242153D01*
X299339Y242203D01*
X299303Y242247D01*
X295100Y245932D01*
X295036Y245974D01*
X294995Y246013D01*
X290347Y249119D01*
X290278Y249152D01*
X290232Y249185D01*
X285218Y251658D01*
X285146Y251681D01*
X285096Y251708D01*
X279802Y253505D01*
X279727Y253519D01*
X279674Y253540D01*
X274192Y254630D01*
X274115Y254634D01*
X274060Y254647D01*
X268482Y255013D01*
X268445Y255010D01*
X268416Y255015D01*
X198999Y255015D01*
X198885Y254999D01*
X198770Y254989D01*
X198744Y254979D01*
X198717Y254975D01*
X198612Y254928D01*
X198505Y254887D01*
X198483Y254871D01*
X198458Y254859D01*
X198370Y254785D01*
X198278Y254716D01*
X198262Y254693D01*
X198241Y254676D01*
X198177Y254580D01*
X198108Y254488D01*
X198098Y254462D01*
X198083Y254439D01*
X198048Y254329D01*
X198008Y254222D01*
X198006Y254194D01*
X197997Y254168D01*
X197994Y254053D01*
X197985Y253939D01*
X197991Y253914D01*
X197990Y253884D01*
X198057Y253627D01*
X198061Y253611D01*
X198502Y252546D01*
X198502Y250374D01*
X197824Y248737D01*
X197795Y248625D01*
X197760Y248516D01*
X197760Y248488D01*
X197753Y248461D01*
X197756Y248347D01*
X197753Y248232D01*
X197760Y248205D01*
X197761Y248177D01*
X197796Y248068D01*
X197825Y247957D01*
X197839Y247933D01*
X197847Y247906D01*
X197911Y247811D01*
X197970Y247712D01*
X197990Y247693D01*
X198006Y247670D01*
X198094Y247596D01*
X198177Y247518D01*
X198202Y247505D01*
X198223Y247487D01*
X198328Y247441D01*
X198431Y247388D01*
X198455Y247384D01*
X198483Y247372D01*
X198747Y247335D01*
X198762Y247333D01*
X204211Y247333D01*
X209233Y242311D01*
X209233Y235209D01*
X204211Y230187D01*
X197109Y230187D01*
X192087Y235209D01*
X192087Y242311D01*
X194041Y244265D01*
X194059Y244289D01*
X194082Y244308D01*
X194144Y244402D01*
X194212Y244492D01*
X194223Y244520D01*
X194239Y244544D01*
X194273Y244652D01*
X194314Y244758D01*
X194316Y244787D01*
X194325Y244815D01*
X194328Y244929D01*
X194337Y245041D01*
X194331Y245070D01*
X194332Y245099D01*
X194304Y245209D01*
X194281Y245320D01*
X194268Y245346D01*
X194260Y245374D01*
X194203Y245472D01*
X194150Y245572D01*
X194130Y245594D01*
X194115Y245619D01*
X194033Y245696D01*
X193955Y245778D01*
X193929Y245793D01*
X193908Y245813D01*
X193807Y245865D01*
X193709Y245922D01*
X193681Y245929D01*
X193655Y245943D01*
X193577Y245956D01*
X193434Y245992D01*
X193371Y245990D01*
X193324Y245998D01*
X191954Y245998D01*
X189946Y246830D01*
X189170Y247606D01*
X189100Y247658D01*
X189036Y247718D01*
X188987Y247744D01*
X188943Y247777D01*
X188861Y247808D01*
X188783Y247848D01*
X188736Y247856D01*
X188677Y247878D01*
X188529Y247890D01*
X188452Y247903D01*
X187314Y247903D01*
X187227Y247891D01*
X187140Y247888D01*
X187087Y247871D01*
X187032Y247863D01*
X186952Y247828D01*
X186869Y247801D01*
X186830Y247773D01*
X186773Y247747D01*
X186660Y247651D01*
X186596Y247606D01*
X179114Y240124D01*
X177556Y238566D01*
X177555Y238565D01*
X177554Y238564D01*
X177469Y238450D01*
X177385Y238339D01*
X177384Y238337D01*
X177383Y238336D01*
X177334Y238204D01*
X177284Y238073D01*
X177284Y238071D01*
X177283Y238070D01*
X177272Y237932D01*
X177260Y237790D01*
X177261Y237788D01*
X177260Y237787D01*
X177264Y237772D01*
X177316Y237511D01*
X177330Y237484D01*
X177336Y237460D01*
X178182Y235417D01*
X178182Y233245D01*
X177350Y231237D01*
X176574Y230461D01*
X176522Y230391D01*
X176462Y230327D01*
X176436Y230278D01*
X176403Y230234D01*
X176372Y230152D01*
X176332Y230074D01*
X176324Y230027D01*
X176302Y229968D01*
X176290Y229820D01*
X176277Y229743D01*
X176277Y222181D01*
X176289Y222094D01*
X176292Y222007D01*
X176309Y221954D01*
X176317Y221900D01*
X176352Y221820D01*
X176379Y221737D01*
X176407Y221697D01*
X176433Y221640D01*
X176529Y221527D01*
X176574Y221463D01*
X189900Y208137D01*
X189900Y203161D01*
X189909Y203103D01*
X189907Y203045D01*
X189928Y202963D01*
X189940Y202880D01*
X189964Y202826D01*
X189979Y202770D01*
X190022Y202697D01*
X190056Y202620D01*
X190081Y202592D01*
X190081Y196176D01*
X190089Y196119D01*
X190087Y196060D01*
X190109Y195978D01*
X190121Y195895D01*
X190144Y195842D01*
X190159Y195785D01*
X190202Y195713D01*
X190237Y195636D01*
X190275Y195591D01*
X190304Y195541D01*
X190305Y195540D01*
X190366Y195483D01*
X190420Y195419D01*
X190421Y195418D01*
X190470Y195386D01*
X190512Y195346D01*
X190587Y195307D01*
X190658Y195260D01*
X190713Y195243D01*
X190765Y195216D01*
X190833Y195205D01*
X190929Y195175D01*
X191028Y195172D01*
X191096Y195161D01*
X195317Y195161D01*
X195379Y195170D01*
X195443Y195169D01*
X195520Y195189D01*
X195598Y195201D01*
X195656Y195226D01*
X195717Y195243D01*
X195773Y195279D01*
X195857Y195317D01*
X195939Y195386D01*
X195999Y195425D01*
X196000Y195425D01*
X196034Y195466D01*
X196074Y195500D01*
X196074Y195501D01*
X196075Y195501D01*
X196124Y195575D01*
X196181Y195644D01*
X196203Y195693D01*
X196232Y195737D01*
X196259Y195823D01*
X196295Y195904D01*
X196302Y195957D01*
X196318Y196008D01*
X196320Y196098D01*
X196332Y196186D01*
X196324Y196239D01*
X196325Y196293D01*
X196303Y196379D01*
X196289Y196467D01*
X196267Y196516D01*
X196254Y196568D01*
X196208Y196644D01*
X196171Y196726D01*
X196136Y196766D01*
X196108Y196812D01*
X196043Y196873D01*
X195985Y196941D01*
X195940Y196970D01*
X195901Y197007D01*
X195821Y197047D01*
X195747Y197096D01*
X195696Y197112D01*
X195648Y197136D01*
X195577Y197148D01*
X195475Y197179D01*
X195382Y197181D01*
X195317Y197192D01*
X192112Y197192D01*
X192112Y202061D01*
X192838Y201916D01*
X193924Y201466D01*
X194902Y200813D01*
X195733Y199982D01*
X196386Y199004D01*
X196836Y197918D01*
X196949Y197350D01*
X196983Y197254D01*
X197008Y197157D01*
X197030Y197121D01*
X197043Y197082D01*
X197102Y196999D01*
X197154Y196912D01*
X197184Y196884D01*
X197208Y196850D01*
X197287Y196787D01*
X197361Y196718D01*
X197398Y196699D01*
X197430Y196673D01*
X197524Y196634D01*
X197614Y196588D01*
X197650Y196582D01*
X197693Y196564D01*
X197877Y196544D01*
X197945Y196533D01*
X204211Y196533D01*
X205466Y195278D01*
X205490Y195260D01*
X205509Y195237D01*
X205603Y195175D01*
X205693Y195107D01*
X205721Y195096D01*
X205745Y195080D01*
X205853Y195046D01*
X205959Y195005D01*
X205988Y195003D01*
X206016Y194994D01*
X206130Y194991D01*
X206242Y194982D01*
X206271Y194988D01*
X206300Y194987D01*
X206410Y195015D01*
X206521Y195038D01*
X206547Y195051D01*
X206575Y195059D01*
X206673Y195116D01*
X206773Y195169D01*
X206795Y195189D01*
X206820Y195204D01*
X206897Y195286D01*
X206979Y195364D01*
X206994Y195390D01*
X207014Y195411D01*
X207066Y195512D01*
X207123Y195610D01*
X207130Y195638D01*
X207144Y195664D01*
X207157Y195742D01*
X207193Y195885D01*
X207191Y195948D01*
X207199Y195995D01*
X207199Y198811D01*
X207601Y199212D01*
X207653Y199282D01*
X207713Y199346D01*
X207739Y199396D01*
X207772Y199440D01*
X207803Y199521D01*
X207843Y199599D01*
X207851Y199647D01*
X207873Y199705D01*
X207885Y199853D01*
X207898Y199930D01*
X207898Y201746D01*
X208730Y203754D01*
X210266Y205290D01*
X212274Y206122D01*
X214446Y206122D01*
X216454Y205290D01*
X217990Y203754D01*
X218822Y201746D01*
X218822Y199574D01*
X217990Y197566D01*
X216454Y196030D01*
X214446Y195198D01*
X214312Y195198D01*
X214254Y195190D01*
X214196Y195192D01*
X214114Y195170D01*
X214030Y195158D01*
X213977Y195135D01*
X213921Y195120D01*
X213848Y195077D01*
X213771Y195042D01*
X213726Y195004D01*
X213676Y194975D01*
X213618Y194913D01*
X213554Y194859D01*
X213522Y194810D01*
X213482Y194767D01*
X213443Y194692D01*
X213396Y194622D01*
X213379Y194566D01*
X213352Y194514D01*
X213341Y194446D01*
X213311Y194351D01*
X213308Y194251D01*
X213297Y194183D01*
X213297Y182726D01*
X182954Y152383D01*
X174117Y152383D01*
X174059Y152375D01*
X174001Y152377D01*
X173919Y152355D01*
X173835Y152343D01*
X173782Y152320D01*
X173726Y152305D01*
X173653Y152262D01*
X173576Y152227D01*
X173531Y152189D01*
X173481Y152160D01*
X173423Y152098D01*
X173359Y152044D01*
X173327Y151995D01*
X173287Y151952D01*
X173248Y151877D01*
X173201Y151807D01*
X173184Y151751D01*
X173157Y151699D01*
X173146Y151631D01*
X173116Y151536D01*
X173113Y151436D01*
X173102Y151368D01*
X173102Y151314D01*
X172270Y149306D01*
X170734Y147770D01*
X168726Y146938D01*
X166554Y146938D01*
X164546Y147770D01*
X163010Y149306D01*
X162178Y151314D01*
X162178Y153486D01*
X163010Y155494D01*
X164546Y157030D01*
X166554Y157862D01*
X168370Y157862D01*
X168456Y157874D01*
X168544Y157877D01*
X168596Y157894D01*
X168651Y157902D01*
X168731Y157937D01*
X168814Y157964D01*
X168853Y157992D01*
X168911Y158018D01*
X169024Y158114D01*
X169088Y158159D01*
X169431Y158503D01*
X169477Y158507D01*
X169503Y158517D01*
X169530Y158521D01*
X169635Y158567D01*
X169742Y158609D01*
X169764Y158625D01*
X169790Y158637D01*
X169877Y158711D01*
X169969Y158780D01*
X169986Y158803D01*
X170007Y158820D01*
X170070Y158916D01*
X170139Y159008D01*
X170149Y159034D01*
X170164Y159057D01*
X170199Y159167D01*
X170240Y159274D01*
X170242Y159302D01*
X170250Y159328D01*
X170253Y159443D01*
X170262Y159557D01*
X170257Y159582D01*
X170257Y159612D01*
X170190Y159869D01*
X170187Y159885D01*
X169798Y160823D01*
X169798Y162639D01*
X169786Y162725D01*
X169783Y162813D01*
X169766Y162865D01*
X169758Y162920D01*
X169723Y163000D01*
X169696Y163083D01*
X169668Y163122D01*
X169642Y163180D01*
X169546Y163293D01*
X169501Y163357D01*
X166024Y166834D01*
X165954Y166886D01*
X165890Y166946D01*
X165840Y166972D01*
X165796Y167005D01*
X165715Y167036D01*
X165637Y167076D01*
X165589Y167084D01*
X165531Y167106D01*
X165383Y167118D01*
X165306Y167131D01*
X160036Y167131D01*
X159949Y167119D01*
X159862Y167116D01*
X159809Y167099D01*
X159754Y167091D01*
X159675Y167056D01*
X159591Y167029D01*
X159552Y167001D01*
X159495Y166975D01*
X159382Y166879D01*
X159318Y166834D01*
X158034Y165550D01*
X156026Y164718D01*
X153854Y164718D01*
X151846Y165550D01*
X151412Y165984D01*
X151365Y166019D01*
X151325Y166062D01*
X151252Y166105D01*
X151184Y166155D01*
X151130Y166176D01*
X151079Y166206D01*
X150998Y166226D01*
X150919Y166256D01*
X150860Y166261D01*
X150804Y166276D01*
X150720Y166273D01*
X150635Y166280D01*
X150578Y166268D01*
X150520Y166267D01*
X150439Y166241D01*
X150357Y166224D01*
X150305Y166197D01*
X150249Y166179D01*
X150193Y166139D01*
X150104Y166093D01*
X150032Y166024D01*
X149976Y165984D01*
X149809Y165818D01*
X149774Y165771D01*
X149732Y165731D01*
X149689Y165658D01*
X149639Y165591D01*
X149618Y165536D01*
X149588Y165486D01*
X149567Y165404D01*
X149537Y165325D01*
X149532Y165267D01*
X149518Y165210D01*
X149521Y165126D01*
X149514Y165042D01*
X149525Y164984D01*
X149527Y164926D01*
X149553Y164846D01*
X149570Y164763D01*
X149597Y164711D01*
X149615Y164655D01*
X149655Y164599D01*
X149701Y164511D01*
X149769Y164438D01*
X149809Y164382D01*
X155449Y158743D01*
X155449Y153677D01*
X148583Y146811D01*
X110903Y146811D01*
X110817Y146799D01*
X110729Y146796D01*
X110677Y146779D01*
X110622Y146771D01*
X110542Y146736D01*
X110459Y146709D01*
X110420Y146681D01*
X110362Y146655D01*
X110249Y146559D01*
X110185Y146514D01*
X110026Y146355D01*
X109974Y146285D01*
X109914Y146221D01*
X109888Y146171D01*
X109855Y146127D01*
X109824Y146046D01*
X109784Y145968D01*
X109776Y145920D01*
X109754Y145862D01*
X109742Y145714D01*
X109729Y145637D01*
X109729Y130018D01*
X109741Y129931D01*
X109744Y129844D01*
X109761Y129791D01*
X109769Y129737D01*
X109804Y129657D01*
X109831Y129574D01*
X109859Y129534D01*
X109885Y129477D01*
X109981Y129364D01*
X110026Y129300D01*
X135015Y104311D01*
X135085Y104259D01*
X135149Y104199D01*
X135198Y104173D01*
X135242Y104140D01*
X135324Y104109D01*
X135402Y104069D01*
X135450Y104061D01*
X135508Y104039D01*
X135656Y104027D01*
X135733Y104014D01*
X158539Y104014D01*
X158653Y104030D01*
X158767Y104040D01*
X158793Y104050D01*
X158821Y104054D01*
X158925Y104101D01*
X159033Y104142D01*
X159055Y104158D01*
X159080Y104170D01*
X159168Y104244D01*
X159259Y104313D01*
X159276Y104336D01*
X159297Y104353D01*
X159361Y104449D01*
X159429Y104541D01*
X159439Y104567D01*
X159455Y104590D01*
X159489Y104700D01*
X159530Y104807D01*
X159532Y104835D01*
X159540Y104861D01*
X159543Y104976D01*
X159552Y105090D01*
X159547Y105115D01*
X159548Y105145D01*
X159480Y105403D01*
X159477Y105418D01*
X159360Y105701D01*
X159215Y106427D01*
X165100Y106427D01*
X165158Y106435D01*
X165216Y106433D01*
X165298Y106455D01*
X165381Y106466D01*
X165435Y106490D01*
X165491Y106505D01*
X165564Y106548D01*
X165641Y106583D01*
X165685Y106620D01*
X165735Y106650D01*
X165736Y106651D01*
X165793Y106712D01*
X165858Y106766D01*
X165858Y106767D01*
X165890Y106815D01*
X165930Y106858D01*
X165969Y106933D01*
X166016Y107003D01*
X166033Y107059D01*
X166060Y107111D01*
X166071Y107179D01*
X166101Y107274D01*
X166104Y107374D01*
X166115Y107442D01*
X166115Y113327D01*
X166910Y113169D01*
X167039Y113161D01*
X167167Y113151D01*
X167180Y113153D01*
X167194Y113153D01*
X167320Y113181D01*
X167445Y113207D01*
X167458Y113213D01*
X167471Y113216D01*
X167584Y113279D01*
X167698Y113338D01*
X167708Y113347D01*
X167720Y113354D01*
X167811Y113446D01*
X167904Y113533D01*
X167911Y113545D01*
X167921Y113555D01*
X167983Y113668D01*
X168048Y113779D01*
X168051Y113792D01*
X168058Y113804D01*
X168086Y113930D01*
X168118Y114054D01*
X168117Y114068D01*
X168120Y114082D01*
X168113Y114210D01*
X168109Y114338D01*
X168104Y114352D01*
X168103Y114365D01*
X168061Y114487D01*
X168021Y114609D01*
X168014Y114619D01*
X168009Y114633D01*
X167843Y114865D01*
X167833Y114873D01*
X167826Y114882D01*
X161468Y121241D01*
X161398Y121293D01*
X161334Y121353D01*
X161284Y121379D01*
X161240Y121412D01*
X161159Y121443D01*
X161081Y121483D01*
X161033Y121491D01*
X160975Y121513D01*
X160827Y121525D01*
X160750Y121538D01*
X158934Y121538D01*
X156926Y122370D01*
X155390Y123906D01*
X154558Y125914D01*
X154558Y128086D01*
X155390Y130094D01*
X156926Y131630D01*
X158934Y132462D01*
X161106Y132462D01*
X163114Y131630D01*
X164650Y130094D01*
X165482Y128086D01*
X165482Y126270D01*
X165494Y126184D01*
X165497Y126096D01*
X165514Y126044D01*
X165522Y125989D01*
X165557Y125909D01*
X165584Y125826D01*
X165612Y125787D01*
X165638Y125729D01*
X165734Y125616D01*
X165779Y125552D01*
X174626Y116706D01*
X174626Y111176D01*
X174638Y111089D01*
X174641Y111002D01*
X174658Y110949D01*
X174666Y110894D01*
X174701Y110814D01*
X174728Y110731D01*
X174756Y110692D01*
X174782Y110635D01*
X174878Y110522D01*
X174923Y110458D01*
X175322Y110059D01*
X175322Y110058D01*
X187909Y97471D01*
X187910Y97471D01*
X189993Y95388D01*
X189993Y90505D01*
X190005Y90418D01*
X190008Y90331D01*
X190025Y90278D01*
X190033Y90223D01*
X190068Y90143D01*
X190095Y90060D01*
X190123Y90021D01*
X190149Y89964D01*
X190245Y89851D01*
X190290Y89787D01*
X191514Y88563D01*
X191584Y88511D01*
X191647Y88451D01*
X191697Y88425D01*
X191741Y88392D01*
X191823Y88361D01*
X191901Y88321D01*
X191948Y88313D01*
X192007Y88291D01*
X192154Y88279D01*
X192232Y88266D01*
X194446Y88266D01*
X216238Y66473D01*
X216308Y66421D01*
X216372Y66361D01*
X216421Y66335D01*
X216466Y66302D01*
X216547Y66271D01*
X216625Y66231D01*
X216673Y66223D01*
X216731Y66201D01*
X216879Y66189D01*
X216956Y66176D01*
X251096Y66176D01*
X253179Y64093D01*
X253179Y64092D01*
X254592Y62679D01*
X254593Y62679D01*
X256676Y60596D01*
X256676Y20064D01*
X252570Y15958D01*
X252552Y15934D01*
X252530Y15916D01*
X252467Y15821D01*
X252399Y15731D01*
X252389Y15703D01*
X252372Y15679D01*
X252338Y15571D01*
X252298Y15465D01*
X252295Y15436D01*
X252286Y15408D01*
X252284Y15294D01*
X252274Y15182D01*
X252280Y15153D01*
X252279Y15124D01*
X252308Y15014D01*
X252330Y14903D01*
X252344Y14877D01*
X252351Y14849D01*
X252409Y14751D01*
X252461Y14651D01*
X252481Y14629D01*
X252496Y14604D01*
X252579Y14527D01*
X252657Y14445D01*
X252682Y14430D01*
X252704Y14410D01*
X252804Y14358D01*
X252902Y14301D01*
X252931Y14294D01*
X252957Y14280D01*
X253034Y14267D01*
X253178Y14231D01*
X253240Y14233D01*
X253288Y14225D01*
X285750Y14225D01*
X285790Y14230D01*
G37*
%LPC*%
G36*
X252914Y78358D02*
X252914Y78358D01*
X250906Y79190D01*
X249370Y80726D01*
X248538Y82734D01*
X248538Y84906D01*
X248902Y85784D01*
X248923Y85867D01*
X248954Y85947D01*
X248958Y86004D01*
X248973Y86059D01*
X248970Y86145D01*
X248977Y86231D01*
X248966Y86286D01*
X248964Y86343D01*
X248938Y86425D01*
X248921Y86509D01*
X248895Y86560D01*
X248878Y86614D01*
X248830Y86685D01*
X248790Y86762D01*
X248751Y86803D01*
X248720Y86850D01*
X248654Y86905D01*
X248595Y86968D01*
X248545Y86997D01*
X248502Y87033D01*
X248424Y87068D01*
X248349Y87111D01*
X248294Y87125D01*
X248242Y87149D01*
X248157Y87160D01*
X248074Y87182D01*
X248017Y87180D01*
X247961Y87188D01*
X247876Y87175D01*
X247790Y87173D01*
X247736Y87155D01*
X247679Y87147D01*
X247601Y87111D01*
X247519Y87085D01*
X247479Y87056D01*
X247420Y87030D01*
X247310Y86936D01*
X247246Y86890D01*
X246034Y85678D01*
X243653Y83297D01*
X221693Y83297D01*
X215518Y89473D01*
X215518Y98206D01*
X216067Y98755D01*
X216120Y98824D01*
X216180Y98888D01*
X216205Y98938D01*
X216238Y98982D01*
X216269Y99064D01*
X216309Y99141D01*
X216317Y99189D01*
X216339Y99248D01*
X216345Y99322D01*
X216351Y99338D01*
X216352Y99398D01*
X216365Y99473D01*
X216365Y101919D01*
X216352Y102006D01*
X216349Y102093D01*
X216332Y102146D01*
X216325Y102201D01*
X216289Y102280D01*
X216262Y102364D01*
X216234Y102403D01*
X216208Y102460D01*
X216113Y102573D01*
X216067Y102637D01*
X212851Y105853D01*
X212851Y110754D01*
X212839Y110841D01*
X212836Y110928D01*
X212819Y110981D01*
X212811Y111036D01*
X212776Y111116D01*
X212749Y111199D01*
X212721Y111238D01*
X212695Y111295D01*
X212599Y111408D01*
X212554Y111472D01*
X209644Y114382D01*
X209574Y114434D01*
X209510Y114494D01*
X209461Y114520D01*
X209417Y114553D01*
X209335Y114584D01*
X209257Y114624D01*
X209210Y114632D01*
X209151Y114654D01*
X209004Y114666D01*
X208926Y114679D01*
X207829Y114679D01*
X205821Y115511D01*
X204285Y117047D01*
X203453Y119055D01*
X203453Y121227D01*
X204285Y123235D01*
X205821Y124771D01*
X207829Y125603D01*
X210001Y125603D01*
X212009Y124771D01*
X213545Y123235D01*
X214377Y121227D01*
X214377Y120130D01*
X214389Y120043D01*
X214392Y119956D01*
X214409Y119903D01*
X214417Y119848D01*
X214452Y119768D01*
X214479Y119685D01*
X214507Y119646D01*
X214533Y119589D01*
X214629Y119476D01*
X214674Y119412D01*
X219965Y114121D01*
X219965Y109220D01*
X219977Y109133D01*
X219980Y109046D01*
X219997Y108993D01*
X220005Y108938D01*
X220040Y108859D01*
X220067Y108775D01*
X220095Y108736D01*
X220121Y108679D01*
X220217Y108566D01*
X220262Y108502D01*
X223478Y105286D01*
X223478Y100201D01*
X223494Y100087D01*
X223504Y99973D01*
X223514Y99947D01*
X223518Y99919D01*
X223565Y99815D01*
X223606Y99707D01*
X223623Y99685D01*
X223634Y99660D01*
X223708Y99572D01*
X223778Y99481D01*
X223800Y99464D01*
X223818Y99443D01*
X223913Y99379D01*
X224005Y99310D01*
X224031Y99301D01*
X224054Y99285D01*
X224164Y99251D01*
X224271Y99210D01*
X224299Y99208D01*
X224325Y99200D01*
X224440Y99197D01*
X224555Y99187D01*
X224579Y99193D01*
X224610Y99192D01*
X224867Y99259D01*
X224882Y99263D01*
X224974Y99301D01*
X227146Y99301D01*
X229154Y98469D01*
X230438Y97185D01*
X230508Y97133D01*
X230572Y97073D01*
X230621Y97048D01*
X230665Y97014D01*
X230747Y96983D01*
X230825Y96943D01*
X230872Y96935D01*
X230931Y96913D01*
X231079Y96901D01*
X231156Y96888D01*
X232283Y96888D01*
X232341Y96896D01*
X232399Y96895D01*
X232481Y96916D01*
X232565Y96928D01*
X232618Y96952D01*
X232674Y96966D01*
X232747Y97009D01*
X232824Y97044D01*
X232869Y97082D01*
X232919Y97112D01*
X232977Y97173D01*
X233041Y97228D01*
X233073Y97276D01*
X233113Y97319D01*
X233152Y97394D01*
X233199Y97464D01*
X233216Y97520D01*
X233243Y97572D01*
X233254Y97640D01*
X233284Y97735D01*
X233287Y97835D01*
X233298Y97903D01*
X233298Y100146D01*
X234130Y102154D01*
X235666Y103690D01*
X237674Y104522D01*
X238771Y104522D01*
X238858Y104534D01*
X238945Y104537D01*
X238998Y104554D01*
X239053Y104562D01*
X239133Y104597D01*
X239216Y104624D01*
X239255Y104652D01*
X239312Y104678D01*
X239425Y104774D01*
X239489Y104819D01*
X242526Y107856D01*
X242578Y107926D01*
X242638Y107990D01*
X242664Y108039D01*
X242697Y108083D01*
X242728Y108165D01*
X242768Y108243D01*
X242776Y108290D01*
X242798Y108349D01*
X242808Y108472D01*
X242809Y108475D01*
X242810Y108489D01*
X242810Y108496D01*
X242823Y108574D01*
X242823Y153873D01*
X255067Y166117D01*
X280046Y166117D01*
X280133Y166129D01*
X280220Y166132D01*
X280273Y166149D01*
X280328Y166157D01*
X280408Y166192D01*
X280491Y166219D01*
X280530Y166247D01*
X280587Y166273D01*
X280700Y166369D01*
X280764Y166414D01*
X283166Y168816D01*
X283218Y168886D01*
X283278Y168950D01*
X283304Y168999D01*
X283337Y169043D01*
X283368Y169125D01*
X283408Y169203D01*
X283416Y169250D01*
X283438Y169309D01*
X283443Y169371D01*
X283449Y169390D01*
X283451Y169461D01*
X283463Y169534D01*
X283463Y201152D01*
X283451Y201239D01*
X283448Y201326D01*
X283431Y201379D01*
X283423Y201434D01*
X283388Y201513D01*
X283361Y201597D01*
X283333Y201636D01*
X283307Y201693D01*
X283211Y201806D01*
X283166Y201870D01*
X282390Y202646D01*
X281558Y204654D01*
X281558Y206826D01*
X282390Y208834D01*
X283926Y210370D01*
X285934Y211202D01*
X288106Y211202D01*
X290114Y210370D01*
X290890Y209594D01*
X290960Y209542D01*
X291024Y209482D01*
X291073Y209456D01*
X291117Y209423D01*
X291199Y209392D01*
X291277Y209352D01*
X291324Y209344D01*
X291383Y209322D01*
X291531Y209310D01*
X291608Y209297D01*
X296113Y209297D01*
X304547Y200863D01*
X304547Y183593D01*
X300018Y179065D01*
X299966Y178995D01*
X299906Y178931D01*
X299880Y178882D01*
X299847Y178838D01*
X299816Y178756D01*
X299776Y178678D01*
X299768Y178630D01*
X299746Y178572D01*
X299734Y178424D01*
X299721Y178347D01*
X299721Y162379D01*
X286185Y148843D01*
X262498Y148843D01*
X262411Y148831D01*
X262324Y148828D01*
X262271Y148811D01*
X262216Y148803D01*
X262136Y148768D01*
X262053Y148741D01*
X262014Y148713D01*
X261957Y148687D01*
X261844Y148591D01*
X261780Y148546D01*
X259378Y146144D01*
X259326Y146074D01*
X259266Y146010D01*
X259240Y145961D01*
X259207Y145917D01*
X259176Y145835D01*
X259136Y145757D01*
X259128Y145710D01*
X259106Y145651D01*
X259094Y145504D01*
X259081Y145426D01*
X259081Y98725D01*
X256700Y96344D01*
X250930Y90574D01*
X250878Y90506D01*
X250819Y90443D01*
X250793Y90392D01*
X250759Y90347D01*
X250728Y90267D01*
X250689Y90190D01*
X250678Y90135D01*
X250658Y90081D01*
X250651Y89996D01*
X250634Y89911D01*
X250639Y89855D01*
X250634Y89798D01*
X250651Y89714D01*
X250658Y89628D01*
X250679Y89575D01*
X250690Y89519D01*
X250730Y89443D01*
X250760Y89363D01*
X250795Y89317D01*
X250821Y89267D01*
X250880Y89205D01*
X250932Y89136D01*
X250978Y89102D01*
X251017Y89061D01*
X251091Y89017D01*
X251160Y88966D01*
X251213Y88946D01*
X251262Y88917D01*
X251345Y88896D01*
X251426Y88866D01*
X251483Y88861D01*
X251538Y88847D01*
X251624Y88850D01*
X251709Y88843D01*
X251757Y88854D01*
X251822Y88856D01*
X251960Y88901D01*
X252036Y88918D01*
X252914Y89282D01*
X254011Y89282D01*
X254098Y89294D01*
X254185Y89297D01*
X254238Y89314D01*
X254293Y89322D01*
X254373Y89357D01*
X254456Y89384D01*
X254495Y89412D01*
X254552Y89438D01*
X254665Y89534D01*
X254729Y89579D01*
X257607Y92457D01*
X272426Y92457D01*
X272513Y92469D01*
X272600Y92472D01*
X272653Y92489D01*
X272708Y92497D01*
X272788Y92532D01*
X272871Y92559D01*
X272910Y92587D01*
X272967Y92613D01*
X273080Y92709D01*
X273144Y92754D01*
X275546Y95156D01*
X275598Y95226D01*
X275658Y95290D01*
X275684Y95339D01*
X275717Y95383D01*
X275748Y95465D01*
X275788Y95543D01*
X275796Y95590D01*
X275818Y95649D01*
X275830Y95796D01*
X275843Y95874D01*
X275843Y136093D01*
X280467Y140717D01*
X284972Y140717D01*
X285059Y140729D01*
X285146Y140732D01*
X285199Y140749D01*
X285254Y140757D01*
X285333Y140792D01*
X285417Y140819D01*
X285456Y140847D01*
X285513Y140873D01*
X285626Y140969D01*
X285690Y141014D01*
X286466Y141790D01*
X288474Y142622D01*
X290646Y142622D01*
X292654Y141790D01*
X294190Y140254D01*
X295022Y138246D01*
X295022Y136074D01*
X294190Y134066D01*
X292654Y132530D01*
X290646Y131698D01*
X288474Y131698D01*
X286466Y132530D01*
X285690Y133306D01*
X285620Y133358D01*
X285556Y133418D01*
X285507Y133444D01*
X285463Y133477D01*
X285381Y133508D01*
X285303Y133548D01*
X285256Y133556D01*
X285197Y133578D01*
X285049Y133590D01*
X284972Y133603D01*
X283972Y133603D01*
X283914Y133595D01*
X283856Y133597D01*
X283774Y133575D01*
X283690Y133563D01*
X283637Y133540D01*
X283581Y133525D01*
X283508Y133482D01*
X283431Y133447D01*
X283386Y133409D01*
X283336Y133380D01*
X283278Y133318D01*
X283214Y133264D01*
X283182Y133215D01*
X283142Y133172D01*
X283103Y133097D01*
X283056Y133027D01*
X283039Y132971D01*
X283012Y132919D01*
X283001Y132851D01*
X282971Y132756D01*
X282968Y132656D01*
X282957Y132588D01*
X282957Y92507D01*
X275793Y85343D01*
X260974Y85343D01*
X260887Y85331D01*
X260800Y85328D01*
X260747Y85311D01*
X260692Y85303D01*
X260612Y85268D01*
X260529Y85241D01*
X260490Y85213D01*
X260433Y85187D01*
X260320Y85091D01*
X260256Y85046D01*
X259759Y84549D01*
X259707Y84479D01*
X259647Y84415D01*
X259621Y84366D01*
X259588Y84322D01*
X259557Y84240D01*
X259517Y84162D01*
X259509Y84115D01*
X259487Y84056D01*
X259475Y83909D01*
X259462Y83831D01*
X259462Y82734D01*
X258630Y80726D01*
X257094Y79190D01*
X255086Y78358D01*
X252914Y78358D01*
G37*
%LPD*%
%LPC*%
G36*
X174174Y134603D02*
X174174Y134603D01*
X172166Y135435D01*
X170630Y136971D01*
X169798Y138979D01*
X169798Y141151D01*
X170630Y143159D01*
X172166Y144695D01*
X174174Y145527D01*
X176346Y145527D01*
X177574Y145018D01*
X177576Y145018D01*
X177577Y145017D01*
X177710Y144983D01*
X177850Y144947D01*
X177851Y144947D01*
X177853Y144947D01*
X177994Y144951D01*
X178134Y144955D01*
X178135Y144956D01*
X178137Y144956D01*
X178271Y144999D01*
X178405Y145042D01*
X178406Y145043D01*
X178407Y145043D01*
X178420Y145052D01*
X178641Y145200D01*
X178661Y145224D01*
X178681Y145238D01*
X201658Y168215D01*
X203741Y170298D01*
X217226Y170298D01*
X217312Y170311D01*
X217400Y170313D01*
X217452Y170330D01*
X217507Y170338D01*
X217587Y170374D01*
X217670Y170401D01*
X217710Y170429D01*
X217767Y170454D01*
X217880Y170550D01*
X217944Y170596D01*
X224494Y177146D01*
X224512Y177170D01*
X224534Y177189D01*
X224597Y177283D01*
X224665Y177373D01*
X224675Y177401D01*
X224692Y177425D01*
X224726Y177533D01*
X224766Y177639D01*
X224769Y177668D01*
X224777Y177696D01*
X224780Y177810D01*
X224790Y177922D01*
X224784Y177951D01*
X224785Y177980D01*
X224756Y178090D01*
X224734Y178201D01*
X224720Y178227D01*
X224713Y178255D01*
X224655Y178353D01*
X224603Y178453D01*
X224583Y178475D01*
X224568Y178500D01*
X224485Y178577D01*
X224407Y178659D01*
X224382Y178674D01*
X224360Y178694D01*
X224260Y178746D01*
X224162Y178803D01*
X224133Y178810D01*
X224107Y178824D01*
X224030Y178837D01*
X223886Y178873D01*
X223824Y178871D01*
X223776Y178879D01*
X222299Y178879D01*
X216979Y184199D01*
X216979Y185961D01*
X225076Y185961D01*
X225134Y185969D01*
X225192Y185967D01*
X225274Y185989D01*
X225357Y186001D01*
X225411Y186024D01*
X225467Y186039D01*
X225540Y186082D01*
X225617Y186117D01*
X225661Y186155D01*
X225712Y186184D01*
X225769Y186246D01*
X225834Y186300D01*
X225866Y186349D01*
X225906Y186392D01*
X225945Y186467D01*
X225991Y186537D01*
X226009Y186593D01*
X226036Y186645D01*
X226047Y186713D01*
X226077Y186808D01*
X226080Y186908D01*
X226091Y186976D01*
X226091Y187929D01*
X227044Y187929D01*
X227102Y187937D01*
X227160Y187936D01*
X227242Y187957D01*
X227326Y187969D01*
X227379Y187993D01*
X227435Y188007D01*
X227508Y188051D01*
X227585Y188085D01*
X227630Y188123D01*
X227680Y188153D01*
X227738Y188214D01*
X227802Y188269D01*
X227834Y188317D01*
X227874Y188360D01*
X227913Y188435D01*
X227960Y188505D01*
X227977Y188561D01*
X228004Y188613D01*
X228015Y188681D01*
X228045Y188776D01*
X228048Y188876D01*
X228059Y188944D01*
X228059Y197231D01*
X228139Y197307D01*
X228226Y197380D01*
X228242Y197405D01*
X228263Y197425D01*
X228320Y197523D01*
X228383Y197617D01*
X228392Y197645D01*
X228407Y197670D01*
X228435Y197780D01*
X228469Y197888D01*
X228470Y197917D01*
X228477Y197946D01*
X228473Y198059D01*
X228476Y198172D01*
X228469Y198201D01*
X228468Y198230D01*
X228433Y198338D01*
X228405Y198447D01*
X228390Y198473D01*
X228380Y198501D01*
X228335Y198564D01*
X228259Y198692D01*
X228214Y198735D01*
X228186Y198774D01*
X227900Y199059D01*
X227247Y200037D01*
X226797Y201124D01*
X226652Y201850D01*
X231522Y201850D01*
X231522Y196348D01*
X231502Y196319D01*
X231493Y196291D01*
X231479Y196266D01*
X231451Y196156D01*
X231417Y196048D01*
X231416Y196018D01*
X231409Y195990D01*
X231412Y195877D01*
X231409Y195764D01*
X231417Y195735D01*
X231418Y195706D01*
X231452Y195598D01*
X231481Y195489D01*
X231496Y195463D01*
X231505Y195435D01*
X231551Y195372D01*
X231626Y195244D01*
X231672Y195201D01*
X231700Y195162D01*
X234232Y192630D01*
X234256Y192612D01*
X234275Y192590D01*
X234369Y192527D01*
X234459Y192459D01*
X234487Y192449D01*
X234511Y192432D01*
X234619Y192398D01*
X234725Y192358D01*
X234754Y192355D01*
X234782Y192347D01*
X234896Y192344D01*
X235008Y192334D01*
X235037Y192340D01*
X235066Y192339D01*
X235176Y192368D01*
X235287Y192390D01*
X235313Y192404D01*
X235341Y192411D01*
X235439Y192469D01*
X235539Y192521D01*
X235561Y192541D01*
X235586Y192556D01*
X235663Y192639D01*
X235745Y192717D01*
X235760Y192742D01*
X235780Y192764D01*
X235832Y192864D01*
X235889Y192962D01*
X235896Y192991D01*
X235910Y193017D01*
X235923Y193094D01*
X235959Y193238D01*
X235957Y193300D01*
X235965Y193348D01*
X235965Y196304D01*
X235949Y196418D01*
X235939Y196532D01*
X235929Y196558D01*
X235925Y196586D01*
X235879Y196690D01*
X235837Y196797D01*
X235821Y196820D01*
X235809Y196845D01*
X235735Y196933D01*
X235666Y197024D01*
X235643Y197041D01*
X235626Y197062D01*
X235530Y197126D01*
X235438Y197194D01*
X235412Y197204D01*
X235389Y197220D01*
X235279Y197254D01*
X235172Y197295D01*
X235144Y197297D01*
X235118Y197305D01*
X235003Y197308D01*
X234889Y197317D01*
X234864Y197312D01*
X234834Y197313D01*
X234577Y197246D01*
X234561Y197242D01*
X234278Y197125D01*
X233552Y196980D01*
X233552Y202865D01*
X233544Y202923D01*
X233546Y202981D01*
X233524Y203063D01*
X233513Y203146D01*
X233489Y203200D01*
X233474Y203256D01*
X233431Y203329D01*
X233396Y203406D01*
X233359Y203450D01*
X233329Y203500D01*
X233328Y203501D01*
X233267Y203558D01*
X233213Y203623D01*
X233212Y203623D01*
X233164Y203655D01*
X233121Y203695D01*
X233046Y203734D01*
X232976Y203781D01*
X232920Y203798D01*
X232868Y203825D01*
X232800Y203836D01*
X232705Y203866D01*
X232605Y203869D01*
X232537Y203880D01*
X226604Y203880D01*
X226604Y203888D01*
X226572Y204011D01*
X226544Y204135D01*
X226536Y204148D01*
X226532Y204163D01*
X226468Y204272D01*
X226406Y204383D01*
X226395Y204395D01*
X226387Y204408D01*
X226295Y204494D01*
X226205Y204584D01*
X226191Y204592D01*
X226180Y204602D01*
X226067Y204660D01*
X225956Y204721D01*
X225941Y204725D01*
X225927Y204732D01*
X225859Y204743D01*
X225678Y204784D01*
X225632Y204781D01*
X225596Y204787D01*
X222509Y204787D01*
X217487Y209809D01*
X217487Y216911D01*
X218742Y218166D01*
X218760Y218190D01*
X218783Y218209D01*
X218845Y218303D01*
X218913Y218393D01*
X218924Y218421D01*
X218940Y218445D01*
X218974Y218553D01*
X219015Y218659D01*
X219017Y218688D01*
X219026Y218716D01*
X219029Y218830D01*
X219038Y218942D01*
X219032Y218971D01*
X219033Y219000D01*
X219005Y219110D01*
X218982Y219221D01*
X218969Y219247D01*
X218961Y219275D01*
X218904Y219373D01*
X218851Y219473D01*
X218831Y219495D01*
X218816Y219520D01*
X218734Y219597D01*
X218656Y219679D01*
X218630Y219694D01*
X218609Y219714D01*
X218508Y219766D01*
X218410Y219823D01*
X218382Y219830D01*
X218356Y219844D01*
X218278Y219857D01*
X218135Y219893D01*
X218072Y219891D01*
X218025Y219899D01*
X208695Y219899D01*
X208666Y219895D01*
X208637Y219898D01*
X208526Y219875D01*
X208414Y219859D01*
X208387Y219847D01*
X208358Y219842D01*
X208258Y219789D01*
X208154Y219743D01*
X208132Y219724D01*
X208106Y219711D01*
X208024Y219633D01*
X207937Y219560D01*
X207921Y219535D01*
X207900Y219515D01*
X207843Y219417D01*
X207780Y219323D01*
X207771Y219295D01*
X207756Y219270D01*
X207728Y219160D01*
X207694Y219052D01*
X207693Y219022D01*
X207686Y218994D01*
X207690Y218881D01*
X207687Y218768D01*
X207694Y218739D01*
X207695Y218710D01*
X207730Y218602D01*
X207759Y218493D01*
X207774Y218467D01*
X207783Y218439D01*
X207828Y218375D01*
X207904Y218248D01*
X207950Y218205D01*
X207978Y218166D01*
X209233Y216911D01*
X209233Y209809D01*
X204211Y204787D01*
X197109Y204787D01*
X192087Y209809D01*
X192087Y216911D01*
X193342Y218166D01*
X193360Y218190D01*
X193383Y218209D01*
X193445Y218303D01*
X193513Y218393D01*
X193524Y218421D01*
X193540Y218445D01*
X193574Y218553D01*
X193615Y218659D01*
X193617Y218688D01*
X193626Y218716D01*
X193629Y218830D01*
X193638Y218942D01*
X193632Y218971D01*
X193633Y219000D01*
X193605Y219110D01*
X193582Y219221D01*
X193569Y219247D01*
X193561Y219275D01*
X193504Y219373D01*
X193451Y219473D01*
X193431Y219495D01*
X193416Y219520D01*
X193334Y219597D01*
X193256Y219679D01*
X193230Y219694D01*
X193209Y219714D01*
X193108Y219766D01*
X193010Y219823D01*
X192982Y219830D01*
X192956Y219844D01*
X192878Y219857D01*
X192735Y219893D01*
X192672Y219891D01*
X192625Y219899D01*
X187034Y219899D01*
X187003Y219895D01*
X186973Y219897D01*
X186896Y219880D01*
X186752Y219859D01*
X186694Y219833D01*
X186645Y219822D01*
X185083Y219175D01*
X182910Y219175D01*
X180903Y220006D01*
X179366Y221543D01*
X178535Y223550D01*
X178535Y225723D01*
X179366Y227730D01*
X180903Y229267D01*
X182910Y230098D01*
X185083Y230098D01*
X187090Y229267D01*
X188627Y227730D01*
X189085Y226623D01*
X189086Y226622D01*
X189086Y226621D01*
X189158Y226500D01*
X189230Y226379D01*
X189231Y226378D01*
X189232Y226376D01*
X189338Y226276D01*
X189436Y226183D01*
X189438Y226183D01*
X189439Y226182D01*
X189565Y226117D01*
X189689Y226053D01*
X189691Y226053D01*
X189692Y226052D01*
X189707Y226050D01*
X189968Y225998D01*
X189999Y226001D01*
X190023Y225997D01*
X231294Y225997D01*
X242063Y215228D01*
X242063Y186092D01*
X220172Y164201D01*
X206687Y164201D01*
X206601Y164189D01*
X206513Y164186D01*
X206461Y164169D01*
X206406Y164161D01*
X206326Y164125D01*
X206243Y164098D01*
X206203Y164070D01*
X206146Y164045D01*
X206033Y163949D01*
X205969Y163904D01*
X193069Y151004D01*
X193044Y150969D01*
X193011Y150940D01*
X192958Y150856D01*
X192899Y150776D01*
X192883Y150736D01*
X192860Y150700D01*
X192833Y150604D01*
X192797Y150511D01*
X192794Y150468D01*
X192782Y150426D01*
X192782Y150327D01*
X192774Y150228D01*
X192782Y150185D01*
X192782Y150142D01*
X192792Y150110D01*
X192766Y150111D01*
X192724Y150122D01*
X192625Y150119D01*
X192525Y150124D01*
X192483Y150114D01*
X192440Y150113D01*
X192345Y150082D01*
X192248Y150060D01*
X192211Y150039D01*
X192170Y150025D01*
X192107Y149981D01*
X192000Y149921D01*
X191953Y149871D01*
X191896Y149831D01*
X180636Y138571D01*
X180618Y138546D01*
X180594Y138526D01*
X180552Y138459D01*
X180465Y138343D01*
X180443Y138283D01*
X180416Y138241D01*
X179890Y136971D01*
X178354Y135435D01*
X176346Y134603D01*
X174174Y134603D01*
G37*
%LPD*%
G36*
X232634Y16270D02*
X232634Y16270D01*
X232726Y16273D01*
X232774Y16289D01*
X232824Y16297D01*
X232908Y16334D01*
X232995Y16363D01*
X233037Y16392D01*
X233084Y16413D01*
X233154Y16472D01*
X233230Y16524D01*
X233262Y16564D01*
X233301Y16596D01*
X233352Y16673D01*
X233410Y16744D01*
X233430Y16791D01*
X233458Y16833D01*
X233486Y16921D01*
X233522Y17005D01*
X233529Y17056D01*
X233544Y17104D01*
X233546Y17196D01*
X233558Y17287D01*
X233550Y17338D01*
X233551Y17388D01*
X233528Y17477D01*
X233514Y17568D01*
X233494Y17608D01*
X233479Y17663D01*
X233398Y17800D01*
X233364Y17869D01*
X233044Y18309D01*
X232354Y19663D01*
X231885Y21108D01*
X231647Y22608D01*
X231647Y28449D01*
X240284Y28449D01*
X240342Y28457D01*
X240400Y28455D01*
X240482Y28477D01*
X240565Y28489D01*
X240619Y28513D01*
X240675Y28527D01*
X240748Y28570D01*
X240825Y28605D01*
X240869Y28643D01*
X240920Y28673D01*
X240977Y28734D01*
X241042Y28789D01*
X241074Y28837D01*
X241114Y28880D01*
X241153Y28955D01*
X241199Y29025D01*
X241217Y29081D01*
X241244Y29133D01*
X241255Y29201D01*
X241285Y29296D01*
X241288Y29396D01*
X241299Y29464D01*
X241299Y30481D01*
X242316Y30481D01*
X242374Y30489D01*
X242432Y30488D01*
X242514Y30509D01*
X242597Y30521D01*
X242651Y30545D01*
X242707Y30559D01*
X242780Y30602D01*
X242857Y30637D01*
X242902Y30675D01*
X242952Y30705D01*
X243010Y30766D01*
X243074Y30821D01*
X243106Y30869D01*
X243146Y30912D01*
X243185Y30987D01*
X243231Y31057D01*
X243249Y31113D01*
X243276Y31165D01*
X243287Y31233D01*
X243317Y31328D01*
X243320Y31428D01*
X243331Y31496D01*
X243331Y47043D01*
X243560Y47007D01*
X245005Y46538D01*
X246359Y45848D01*
X247588Y44955D01*
X248662Y43881D01*
X248741Y43772D01*
X248817Y43693D01*
X248887Y43611D01*
X248916Y43592D01*
X248939Y43567D01*
X249033Y43513D01*
X249124Y43453D01*
X249156Y43443D01*
X249186Y43426D01*
X249291Y43400D01*
X249395Y43367D01*
X249429Y43366D01*
X249462Y43358D01*
X249570Y43363D01*
X249679Y43360D01*
X249712Y43368D01*
X249746Y43370D01*
X249849Y43404D01*
X249954Y43432D01*
X249983Y43449D01*
X250016Y43460D01*
X250105Y43521D01*
X250199Y43577D01*
X250222Y43602D01*
X250250Y43621D01*
X250319Y43705D01*
X250393Y43784D01*
X250409Y43814D01*
X250430Y43840D01*
X250473Y43940D01*
X250523Y44037D01*
X250528Y44067D01*
X250543Y44102D01*
X250570Y44319D01*
X250578Y44368D01*
X250578Y50089D01*
X250562Y50203D01*
X250552Y50317D01*
X250542Y50343D01*
X250538Y50370D01*
X250491Y50475D01*
X250450Y50582D01*
X250433Y50605D01*
X250422Y50630D01*
X250348Y50718D01*
X250279Y50809D01*
X250256Y50826D01*
X250238Y50847D01*
X250143Y50911D01*
X250051Y50979D01*
X250025Y50989D01*
X250002Y51004D01*
X249892Y51039D01*
X249785Y51080D01*
X249757Y51082D01*
X249731Y51090D01*
X249616Y51093D01*
X249502Y51102D01*
X249477Y51097D01*
X249447Y51098D01*
X249190Y51030D01*
X249174Y51027D01*
X248891Y50910D01*
X248165Y50765D01*
X248165Y56650D01*
X248157Y56707D01*
X248159Y56766D01*
X248137Y56848D01*
X248126Y56931D01*
X248102Y56984D01*
X248087Y57041D01*
X248044Y57113D01*
X248009Y57191D01*
X247971Y57235D01*
X247942Y57285D01*
X247941Y57286D01*
X247880Y57343D01*
X247826Y57408D01*
X247825Y57408D01*
X247776Y57440D01*
X247734Y57480D01*
X247659Y57519D01*
X247588Y57566D01*
X247533Y57583D01*
X247481Y57610D01*
X247413Y57621D01*
X247317Y57651D01*
X247218Y57654D01*
X247150Y57665D01*
X241265Y57665D01*
X241410Y58391D01*
X241527Y58674D01*
X241556Y58785D01*
X241590Y58895D01*
X241591Y58923D01*
X241598Y58950D01*
X241595Y59064D01*
X241598Y59179D01*
X241590Y59206D01*
X241590Y59234D01*
X241555Y59343D01*
X241526Y59454D01*
X241512Y59478D01*
X241503Y59505D01*
X241439Y59600D01*
X241380Y59699D01*
X241360Y59718D01*
X241345Y59741D01*
X241257Y59815D01*
X241173Y59893D01*
X241148Y59906D01*
X241127Y59924D01*
X241022Y59971D01*
X240920Y60023D01*
X240895Y60027D01*
X240867Y60039D01*
X240604Y60076D01*
X240589Y60078D01*
X214010Y60078D01*
X211927Y62161D01*
X197563Y76525D01*
X197472Y76594D01*
X197384Y76668D01*
X197358Y76679D01*
X197336Y76696D01*
X197229Y76737D01*
X197124Y76783D01*
X197096Y76787D01*
X197071Y76797D01*
X196956Y76806D01*
X196842Y76822D01*
X196815Y76818D01*
X196787Y76821D01*
X196675Y76798D01*
X196561Y76782D01*
X196536Y76770D01*
X196509Y76765D01*
X196407Y76712D01*
X196302Y76664D01*
X196281Y76646D01*
X196256Y76634D01*
X196173Y76555D01*
X196086Y76480D01*
X196072Y76459D01*
X196050Y76438D01*
X195916Y76208D01*
X195908Y76195D01*
X195790Y75912D01*
X195137Y74934D01*
X194306Y74103D01*
X193328Y73450D01*
X192241Y73000D01*
X191515Y72855D01*
X191515Y78740D01*
X191515Y81153D01*
X191507Y81211D01*
X191509Y81269D01*
X191487Y81351D01*
X191476Y81435D01*
X191452Y81488D01*
X191437Y81544D01*
X191394Y81617D01*
X191359Y81694D01*
X191322Y81739D01*
X191292Y81789D01*
X191230Y81847D01*
X191176Y81911D01*
X191127Y81943D01*
X191084Y81983D01*
X191009Y82022D01*
X190939Y82069D01*
X190883Y82086D01*
X190831Y82113D01*
X190763Y82124D01*
X190668Y82154D01*
X190568Y82157D01*
X190500Y82168D01*
X190442Y82160D01*
X190384Y82162D01*
X190383Y82162D01*
X190302Y82140D01*
X190218Y82128D01*
X190165Y82105D01*
X190108Y82090D01*
X190036Y82047D01*
X189959Y82012D01*
X189914Y81974D01*
X189864Y81945D01*
X189806Y81883D01*
X189742Y81829D01*
X189710Y81780D01*
X189669Y81737D01*
X189631Y81662D01*
X189584Y81592D01*
X189567Y81536D01*
X189540Y81484D01*
X189529Y81416D01*
X189499Y81321D01*
X189496Y81221D01*
X189485Y81153D01*
X189485Y78740D01*
X189485Y72855D01*
X188759Y73000D01*
X187672Y73450D01*
X186694Y74103D01*
X185863Y74934D01*
X185210Y75912D01*
X184832Y76825D01*
X184773Y76923D01*
X184721Y77025D01*
X184701Y77045D01*
X184687Y77069D01*
X184604Y77148D01*
X184525Y77231D01*
X184501Y77246D01*
X184481Y77265D01*
X184379Y77317D01*
X184279Y77375D01*
X184253Y77382D01*
X184228Y77395D01*
X184115Y77417D01*
X184004Y77445D01*
X183976Y77444D01*
X183949Y77450D01*
X183834Y77440D01*
X183720Y77436D01*
X183693Y77428D01*
X183666Y77425D01*
X183559Y77384D01*
X183449Y77349D01*
X183429Y77334D01*
X183400Y77323D01*
X183188Y77163D01*
X183176Y77154D01*
X182672Y76650D01*
X180664Y75818D01*
X178492Y75818D01*
X177554Y76207D01*
X177442Y76235D01*
X177333Y76270D01*
X177305Y76271D01*
X177278Y76278D01*
X177164Y76275D01*
X177049Y76277D01*
X177022Y76270D01*
X176994Y76270D01*
X176885Y76235D01*
X176774Y76206D01*
X176750Y76191D01*
X176723Y76183D01*
X176628Y76119D01*
X176529Y76060D01*
X176510Y76040D01*
X176487Y76025D01*
X176413Y75937D01*
X176335Y75853D01*
X176322Y75828D01*
X176304Y75807D01*
X176258Y75702D01*
X176205Y75600D01*
X176201Y75575D01*
X176189Y75547D01*
X176152Y75284D01*
X176150Y75269D01*
X176150Y61341D01*
X176158Y61283D01*
X176156Y61225D01*
X176178Y61143D01*
X176190Y61059D01*
X176213Y61006D01*
X176228Y60950D01*
X176271Y60877D01*
X176306Y60800D01*
X176344Y60755D01*
X176373Y60705D01*
X176435Y60647D01*
X176489Y60583D01*
X176538Y60551D01*
X176581Y60511D01*
X176656Y60472D01*
X176726Y60425D01*
X176782Y60408D01*
X176834Y60381D01*
X176902Y60370D01*
X176997Y60340D01*
X177097Y60337D01*
X177165Y60326D01*
X179206Y60326D01*
X180305Y59226D01*
X180375Y59174D01*
X180439Y59114D01*
X180488Y59088D01*
X180533Y59055D01*
X180614Y59024D01*
X180692Y58984D01*
X180740Y58976D01*
X180798Y58954D01*
X180946Y58942D01*
X181023Y58929D01*
X186683Y58929D01*
X188925Y56686D01*
X189422Y56190D01*
X189446Y56171D01*
X189466Y56148D01*
X189533Y56106D01*
X189649Y56019D01*
X189709Y55996D01*
X189751Y55970D01*
X191054Y55430D01*
X191966Y54518D01*
X191978Y54509D01*
X191988Y54497D01*
X192091Y54424D01*
X192193Y54348D01*
X192208Y54342D01*
X192220Y54333D01*
X192340Y54292D01*
X192458Y54246D01*
X192474Y54245D01*
X192489Y54240D01*
X192615Y54233D01*
X192742Y54223D01*
X192757Y54226D01*
X192773Y54225D01*
X192896Y54254D01*
X193020Y54279D01*
X193035Y54286D01*
X193050Y54290D01*
X193160Y54351D01*
X193273Y54410D01*
X193284Y54420D01*
X193298Y54428D01*
X193346Y54479D01*
X193381Y54513D01*
X193412Y54535D01*
X194314Y55437D01*
X195292Y56090D01*
X196379Y56540D01*
X197105Y56685D01*
X197105Y50800D01*
X197113Y50742D01*
X197111Y50684D01*
X197133Y50602D01*
X197144Y50519D01*
X197168Y50465D01*
X197183Y50409D01*
X197226Y50336D01*
X197261Y50259D01*
X197298Y50215D01*
X197328Y50165D01*
X197329Y50164D01*
X197390Y50107D01*
X197444Y50042D01*
X197445Y50042D01*
X197493Y50010D01*
X197536Y49969D01*
X197611Y49931D01*
X197681Y49884D01*
X197737Y49867D01*
X197789Y49840D01*
X197857Y49829D01*
X197952Y49799D01*
X198052Y49796D01*
X198120Y49785D01*
X204005Y49785D01*
X203860Y49059D01*
X203410Y47972D01*
X202757Y46994D01*
X201926Y46163D01*
X200948Y45510D01*
X199861Y45060D01*
X198708Y44830D01*
X198645Y44830D01*
X198616Y44826D01*
X198587Y44829D01*
X198476Y44806D01*
X198364Y44790D01*
X198337Y44778D01*
X198308Y44773D01*
X198208Y44720D01*
X198104Y44674D01*
X198082Y44655D01*
X198056Y44642D01*
X197974Y44564D01*
X197887Y44491D01*
X197871Y44466D01*
X197850Y44446D01*
X197793Y44348D01*
X197730Y44254D01*
X197721Y44226D01*
X197706Y44201D01*
X197678Y44091D01*
X197644Y43983D01*
X197643Y43953D01*
X197636Y43925D01*
X197640Y43812D01*
X197637Y43699D01*
X197644Y43670D01*
X197645Y43641D01*
X197680Y43533D01*
X197709Y43424D01*
X197724Y43398D01*
X197733Y43370D01*
X197778Y43306D01*
X197854Y43179D01*
X197899Y43136D01*
X197927Y43097D01*
X198253Y42772D01*
X199645Y39411D01*
X199645Y36439D01*
X199661Y36325D01*
X199671Y36210D01*
X199681Y36184D01*
X199685Y36157D01*
X199732Y36052D01*
X199773Y35945D01*
X199789Y35923D01*
X199801Y35898D01*
X199875Y35810D01*
X199944Y35718D01*
X199967Y35702D01*
X199984Y35681D01*
X200080Y35617D01*
X200172Y35548D01*
X200198Y35538D01*
X200221Y35523D01*
X200331Y35488D01*
X200438Y35448D01*
X200466Y35446D01*
X200492Y35437D01*
X200607Y35434D01*
X200721Y35425D01*
X200746Y35431D01*
X200776Y35430D01*
X201033Y35497D01*
X201049Y35501D01*
X202114Y35942D01*
X204286Y35942D01*
X205351Y35501D01*
X205463Y35472D01*
X205572Y35437D01*
X205600Y35437D01*
X205627Y35430D01*
X205741Y35433D01*
X205856Y35430D01*
X205883Y35437D01*
X205911Y35438D01*
X206020Y35473D01*
X206131Y35502D01*
X206155Y35516D01*
X206182Y35524D01*
X206277Y35588D01*
X206376Y35647D01*
X206395Y35667D01*
X206418Y35683D01*
X206492Y35770D01*
X206570Y35854D01*
X206583Y35879D01*
X206601Y35900D01*
X206647Y36005D01*
X206700Y36107D01*
X206704Y36132D01*
X206716Y36160D01*
X206753Y36424D01*
X206755Y36439D01*
X206755Y39411D01*
X208147Y42772D01*
X210720Y45345D01*
X214081Y46737D01*
X217719Y46737D01*
X221080Y45345D01*
X221339Y45085D01*
X221408Y45034D01*
X221470Y44975D01*
X221521Y44949D01*
X221566Y44914D01*
X221647Y44884D01*
X221723Y44844D01*
X221779Y44833D01*
X221832Y44813D01*
X221918Y44806D01*
X222002Y44789D01*
X222059Y44794D01*
X222115Y44790D01*
X222200Y44807D01*
X222285Y44814D01*
X222338Y44834D01*
X222394Y44846D01*
X222470Y44885D01*
X222551Y44916D01*
X222596Y44950D01*
X222646Y44976D01*
X222709Y45036D01*
X222777Y45088D01*
X222811Y45133D01*
X222853Y45172D01*
X222896Y45247D01*
X222947Y45315D01*
X222968Y45368D01*
X222996Y45418D01*
X223018Y45501D01*
X223048Y45581D01*
X223052Y45638D01*
X223066Y45693D01*
X223064Y45779D01*
X223071Y45865D01*
X223059Y45913D01*
X223057Y45977D01*
X223013Y46115D01*
X222995Y46192D01*
X222860Y46519D01*
X222715Y47245D01*
X227585Y47245D01*
X227585Y42375D01*
X226859Y42520D01*
X225772Y42970D01*
X225511Y43144D01*
X225395Y43200D01*
X225281Y43259D01*
X225267Y43262D01*
X225255Y43268D01*
X225128Y43289D01*
X225002Y43314D01*
X224988Y43313D01*
X224975Y43315D01*
X224846Y43300D01*
X224719Y43289D01*
X224706Y43284D01*
X224692Y43283D01*
X224573Y43233D01*
X224453Y43187D01*
X224442Y43179D01*
X224430Y43174D01*
X224329Y43093D01*
X224227Y43016D01*
X224218Y43005D01*
X224208Y42996D01*
X224134Y42891D01*
X224057Y42788D01*
X224052Y42775D01*
X224044Y42764D01*
X224002Y42642D01*
X223956Y42522D01*
X223955Y42508D01*
X223951Y42495D01*
X223944Y42367D01*
X223933Y42239D01*
X223936Y42226D01*
X223936Y42211D01*
X224000Y41934D01*
X224006Y41923D01*
X224009Y41912D01*
X225045Y39411D01*
X225045Y21549D01*
X223653Y18188D01*
X223455Y17990D01*
X223437Y17966D01*
X223414Y17947D01*
X223352Y17853D01*
X223284Y17763D01*
X223273Y17735D01*
X223257Y17711D01*
X223223Y17603D01*
X223182Y17497D01*
X223180Y17468D01*
X223171Y17440D01*
X223168Y17327D01*
X223159Y17214D01*
X223165Y17185D01*
X223164Y17156D01*
X223192Y17046D01*
X223215Y16935D01*
X223228Y16909D01*
X223236Y16881D01*
X223293Y16783D01*
X223346Y16683D01*
X223366Y16661D01*
X223381Y16636D01*
X223463Y16559D01*
X223541Y16477D01*
X223567Y16462D01*
X223588Y16442D01*
X223689Y16390D01*
X223787Y16333D01*
X223815Y16326D01*
X223841Y16312D01*
X223919Y16299D01*
X224062Y16263D01*
X224125Y16265D01*
X224172Y16257D01*
X232543Y16257D01*
X232634Y16270D01*
G37*
%LPC*%
G36*
X103054Y181228D02*
X103054Y181228D01*
X101046Y182060D01*
X99510Y183596D01*
X98678Y185604D01*
X98678Y187776D01*
X99102Y188800D01*
X99103Y188802D01*
X99103Y188803D01*
X99137Y188935D01*
X99173Y189075D01*
X99173Y189077D01*
X99174Y189078D01*
X99169Y189219D01*
X99165Y189359D01*
X99165Y189361D01*
X99165Y189363D01*
X99121Y189497D01*
X99078Y189630D01*
X99078Y189632D01*
X99077Y189633D01*
X99068Y189646D01*
X98920Y189866D01*
X98897Y189886D01*
X98882Y189906D01*
X97154Y191634D01*
X97154Y199526D01*
X99937Y202309D01*
X99990Y202378D01*
X100050Y202442D01*
X100075Y202492D01*
X100108Y202536D01*
X100139Y202618D01*
X100179Y202696D01*
X100187Y202743D01*
X100209Y202802D01*
X100216Y202878D01*
X100221Y202893D01*
X100222Y202952D01*
X100235Y203027D01*
X100235Y209137D01*
X100222Y209223D01*
X100220Y209311D01*
X100203Y209363D01*
X100195Y209418D01*
X100159Y209498D01*
X100132Y209581D01*
X100104Y209620D01*
X100079Y209678D01*
X100019Y209748D01*
X99995Y209789D01*
X99963Y209818D01*
X99937Y209855D01*
X99778Y210014D01*
X99708Y210066D01*
X99644Y210126D01*
X99595Y210152D01*
X99551Y210185D01*
X99469Y210216D01*
X99391Y210256D01*
X99344Y210264D01*
X99285Y210286D01*
X99137Y210298D01*
X99060Y210311D01*
X77477Y210311D01*
X68758Y219031D01*
X68688Y219083D01*
X68624Y219143D01*
X68574Y219169D01*
X68530Y219202D01*
X68449Y219233D01*
X68371Y219273D01*
X68323Y219281D01*
X68265Y219303D01*
X68117Y219315D01*
X68040Y219328D01*
X66056Y219328D01*
X65969Y219316D01*
X65882Y219313D01*
X65829Y219296D01*
X65774Y219288D01*
X65695Y219253D01*
X65611Y219226D01*
X65572Y219198D01*
X65515Y219172D01*
X65402Y219076D01*
X65338Y219031D01*
X64054Y217747D01*
X62046Y216915D01*
X59874Y216915D01*
X57866Y217747D01*
X56330Y219283D01*
X55498Y221291D01*
X55498Y222265D01*
X55484Y222365D01*
X55478Y222466D01*
X55464Y222505D01*
X55458Y222546D01*
X55417Y222638D01*
X55383Y222734D01*
X55359Y222768D01*
X55342Y222805D01*
X55277Y222883D01*
X55218Y222965D01*
X55185Y222991D01*
X55159Y223022D01*
X55074Y223079D01*
X54995Y223141D01*
X54961Y223154D01*
X54922Y223180D01*
X54745Y223236D01*
X54681Y223260D01*
X53504Y223494D01*
X52418Y223944D01*
X51440Y224598D01*
X51328Y224709D01*
X51281Y224745D01*
X51241Y224787D01*
X51168Y224830D01*
X51101Y224880D01*
X51046Y224901D01*
X50996Y224931D01*
X50914Y224951D01*
X50835Y224981D01*
X50777Y224986D01*
X50720Y225001D01*
X50636Y224998D01*
X50552Y225005D01*
X50495Y224994D01*
X50436Y224992D01*
X50356Y224966D01*
X50273Y224949D01*
X50221Y224922D01*
X50166Y224904D01*
X50109Y224864D01*
X50021Y224818D01*
X49949Y224749D01*
X49892Y224709D01*
X48960Y223777D01*
X47731Y222884D01*
X46377Y222194D01*
X44932Y221725D01*
X43432Y221487D01*
X37591Y221487D01*
X37591Y230124D01*
X37583Y230182D01*
X37585Y230240D01*
X37563Y230322D01*
X37551Y230405D01*
X37527Y230459D01*
X37513Y230515D01*
X37470Y230588D01*
X37435Y230665D01*
X37397Y230709D01*
X37367Y230760D01*
X37306Y230817D01*
X37251Y230882D01*
X37203Y230914D01*
X37160Y230954D01*
X37085Y230993D01*
X37015Y231039D01*
X36959Y231057D01*
X36907Y231084D01*
X36839Y231095D01*
X36744Y231125D01*
X36644Y231128D01*
X36576Y231139D01*
X35559Y231139D01*
X35559Y231141D01*
X36576Y231141D01*
X36634Y231149D01*
X36692Y231148D01*
X36774Y231169D01*
X36857Y231181D01*
X36911Y231205D01*
X36967Y231219D01*
X37040Y231262D01*
X37117Y231297D01*
X37162Y231335D01*
X37212Y231365D01*
X37270Y231426D01*
X37334Y231481D01*
X37366Y231529D01*
X37406Y231572D01*
X37445Y231647D01*
X37491Y231717D01*
X37509Y231773D01*
X37536Y231825D01*
X37547Y231893D01*
X37577Y231988D01*
X37580Y232088D01*
X37591Y232156D01*
X37591Y240793D01*
X43432Y240793D01*
X44932Y240555D01*
X46377Y240086D01*
X47731Y239396D01*
X48960Y238503D01*
X50035Y237428D01*
X50928Y236199D01*
X51466Y235143D01*
X51476Y235128D01*
X51483Y235111D01*
X51558Y235012D01*
X51629Y234911D01*
X51643Y234899D01*
X51655Y234884D01*
X51754Y234810D01*
X51850Y234732D01*
X51867Y234725D01*
X51882Y234714D01*
X51999Y234670D01*
X52113Y234622D01*
X52131Y234620D01*
X52148Y234614D01*
X52272Y234604D01*
X52395Y234589D01*
X52413Y234592D01*
X52432Y234591D01*
X52503Y234607D01*
X52675Y234636D01*
X52720Y234657D01*
X52759Y234666D01*
X53504Y234975D01*
X54230Y235119D01*
X54230Y229235D01*
X54238Y229177D01*
X54237Y229119D01*
X54258Y229037D01*
X54270Y228954D01*
X54294Y228900D01*
X54308Y228844D01*
X54351Y228771D01*
X54386Y228694D01*
X54424Y228649D01*
X54454Y228599D01*
X54515Y228541D01*
X54570Y228477D01*
X54619Y228444D01*
X54661Y228404D01*
X54737Y228366D01*
X54807Y228319D01*
X54863Y228301D01*
X54915Y228275D01*
X54983Y228263D01*
X55078Y228233D01*
X55178Y228231D01*
X55246Y228219D01*
X61438Y228219D01*
X61439Y228218D01*
X61500Y228160D01*
X61555Y228096D01*
X61603Y228064D01*
X61646Y228024D01*
X61721Y227985D01*
X61791Y227938D01*
X61847Y227921D01*
X61899Y227894D01*
X61921Y227891D01*
X64054Y227007D01*
X65338Y225723D01*
X65408Y225671D01*
X65472Y225611D01*
X65521Y225585D01*
X65565Y225552D01*
X65647Y225521D01*
X65725Y225481D01*
X65772Y225473D01*
X65831Y225451D01*
X65979Y225439D01*
X66056Y225426D01*
X70986Y225426D01*
X79705Y216706D01*
X79775Y216654D01*
X79839Y216594D01*
X79889Y216568D01*
X79933Y216535D01*
X80014Y216504D01*
X80092Y216464D01*
X80140Y216456D01*
X80198Y216434D01*
X80346Y216422D01*
X80423Y216409D01*
X102006Y216409D01*
X104089Y214326D01*
X104089Y214325D01*
X104249Y214166D01*
X106332Y212083D01*
X106332Y202565D01*
X106340Y202507D01*
X106339Y202449D01*
X106360Y202367D01*
X106372Y202283D01*
X106396Y202230D01*
X106411Y202174D01*
X106454Y202101D01*
X106488Y202024D01*
X106526Y201979D01*
X106556Y201929D01*
X106617Y201871D01*
X106672Y201807D01*
X106720Y201775D01*
X106763Y201735D01*
X106838Y201696D01*
X106908Y201649D01*
X106964Y201632D01*
X107016Y201605D01*
X107084Y201594D01*
X107180Y201564D01*
X107200Y201563D01*
X108421Y201320D01*
X109508Y200870D01*
X110486Y200217D01*
X111317Y199386D01*
X111970Y198408D01*
X112420Y197321D01*
X112565Y196595D01*
X106680Y196595D01*
X106622Y196587D01*
X106564Y196589D01*
X106482Y196567D01*
X106399Y196556D01*
X106345Y196532D01*
X106289Y196517D01*
X106216Y196474D01*
X106139Y196439D01*
X106095Y196402D01*
X106045Y196372D01*
X105987Y196310D01*
X105922Y196256D01*
X105890Y196207D01*
X105850Y196164D01*
X105812Y196089D01*
X105765Y196019D01*
X105747Y195963D01*
X105721Y195911D01*
X105709Y195843D01*
X105679Y195748D01*
X105676Y195648D01*
X105665Y195580D01*
X105673Y195522D01*
X105672Y195464D01*
X105672Y195463D01*
X105693Y195382D01*
X105705Y195298D01*
X105729Y195245D01*
X105744Y195188D01*
X105787Y195116D01*
X105821Y195039D01*
X105859Y194994D01*
X105889Y194944D01*
X105950Y194886D01*
X106005Y194822D01*
X106053Y194790D01*
X106096Y194749D01*
X106171Y194711D01*
X106241Y194664D01*
X106297Y194647D01*
X106349Y194620D01*
X106417Y194609D01*
X106512Y194579D01*
X106612Y194576D01*
X106680Y194565D01*
X112565Y194565D01*
X112420Y193839D01*
X111970Y192752D01*
X111317Y191774D01*
X110486Y190943D01*
X109459Y190257D01*
X109383Y190190D01*
X109303Y190128D01*
X109278Y190095D01*
X109247Y190068D01*
X109193Y189982D01*
X109132Y189901D01*
X109118Y189862D01*
X109096Y189827D01*
X109068Y189729D01*
X109032Y189635D01*
X109029Y189593D01*
X109017Y189553D01*
X109017Y189452D01*
X109009Y189351D01*
X109018Y189315D01*
X109018Y189269D01*
X109069Y189092D01*
X109085Y189024D01*
X109602Y187776D01*
X109602Y185604D01*
X108770Y183596D01*
X107234Y182060D01*
X105226Y181228D01*
X103054Y181228D01*
G37*
%LPD*%
%LPC*%
G36*
X26629Y171195D02*
X26629Y171195D01*
X23268Y172587D01*
X20695Y175160D01*
X19303Y178521D01*
X19303Y182159D01*
X20695Y185520D01*
X23268Y188093D01*
X26629Y189485D01*
X44491Y189485D01*
X47852Y188093D01*
X50425Y185520D01*
X51817Y182159D01*
X51817Y178521D01*
X50425Y175160D01*
X47852Y172587D01*
X44491Y171195D01*
X26629Y171195D01*
G37*
%LPD*%
%LPC*%
G36*
X26629Y196595D02*
X26629Y196595D01*
X23268Y197987D01*
X20695Y200560D01*
X19303Y203921D01*
X19303Y207559D01*
X20695Y210920D01*
X23268Y213493D01*
X26629Y214885D01*
X44491Y214885D01*
X47852Y213493D01*
X50425Y210920D01*
X51817Y207559D01*
X51817Y203921D01*
X50425Y200560D01*
X47852Y197987D01*
X44491Y196595D01*
X26629Y196595D01*
G37*
%LPD*%
G36*
X182257Y16261D02*
X182257Y16261D01*
X182286Y16258D01*
X182397Y16281D01*
X182509Y16297D01*
X182536Y16309D01*
X182565Y16314D01*
X182665Y16366D01*
X182769Y16413D01*
X182791Y16432D01*
X182817Y16445D01*
X182899Y16523D01*
X182986Y16596D01*
X183002Y16621D01*
X183023Y16641D01*
X183080Y16739D01*
X183143Y16833D01*
X183152Y16861D01*
X183167Y16886D01*
X183195Y16996D01*
X183229Y17104D01*
X183230Y17133D01*
X183237Y17162D01*
X183233Y17275D01*
X183236Y17388D01*
X183229Y17417D01*
X183228Y17446D01*
X183193Y17554D01*
X183164Y17663D01*
X183149Y17689D01*
X183140Y17717D01*
X183095Y17780D01*
X183019Y17908D01*
X182974Y17951D01*
X182945Y17990D01*
X182747Y18188D01*
X181355Y21549D01*
X181355Y39411D01*
X182747Y42772D01*
X184788Y44812D01*
X184823Y44859D01*
X184865Y44899D01*
X184908Y44972D01*
X184959Y45040D01*
X184979Y45094D01*
X185009Y45145D01*
X185030Y45226D01*
X185060Y45305D01*
X185065Y45364D01*
X185079Y45420D01*
X185076Y45504D01*
X185083Y45589D01*
X185072Y45646D01*
X185070Y45704D01*
X185044Y45785D01*
X185028Y45867D01*
X185001Y45919D01*
X184983Y45975D01*
X184943Y46031D01*
X184897Y46120D01*
X184828Y46192D01*
X184788Y46248D01*
X183330Y47706D01*
X182823Y48930D01*
X182808Y48955D01*
X182799Y48983D01*
X182736Y49078D01*
X182678Y49175D01*
X182657Y49195D01*
X182641Y49219D01*
X182554Y49292D01*
X182472Y49370D01*
X182446Y49383D01*
X182423Y49402D01*
X182320Y49448D01*
X182219Y49500D01*
X182190Y49506D01*
X182163Y49518D01*
X182051Y49533D01*
X181940Y49555D01*
X181911Y49553D01*
X181882Y49557D01*
X181769Y49540D01*
X181657Y49531D01*
X181629Y49520D01*
X181600Y49516D01*
X181497Y49469D01*
X181391Y49429D01*
X181368Y49411D01*
X181341Y49399D01*
X181255Y49326D01*
X181165Y49257D01*
X181147Y49233D01*
X181125Y49215D01*
X181084Y49148D01*
X180995Y49029D01*
X180972Y48971D01*
X180947Y48930D01*
X180550Y47972D01*
X179897Y46994D01*
X179066Y46163D01*
X178088Y45510D01*
X177001Y45060D01*
X176275Y44915D01*
X176275Y50800D01*
X176268Y50854D01*
X176269Y50890D01*
X176268Y50892D01*
X176269Y50916D01*
X176247Y50998D01*
X176236Y51081D01*
X176212Y51134D01*
X176197Y51191D01*
X176154Y51264D01*
X176119Y51341D01*
X176082Y51385D01*
X176052Y51435D01*
X176051Y51436D01*
X175990Y51493D01*
X175936Y51558D01*
X175935Y51558D01*
X175887Y51590D01*
X175844Y51630D01*
X175769Y51669D01*
X175699Y51716D01*
X175643Y51733D01*
X175591Y51760D01*
X175523Y51771D01*
X175428Y51801D01*
X175328Y51804D01*
X175260Y51815D01*
X169375Y51815D01*
X169520Y52541D01*
X169970Y53628D01*
X170623Y54606D01*
X171404Y55386D01*
X171439Y55433D01*
X171481Y55473D01*
X171524Y55546D01*
X171574Y55613D01*
X171595Y55668D01*
X171625Y55718D01*
X171646Y55800D01*
X171676Y55879D01*
X171681Y55937D01*
X171695Y55994D01*
X171692Y56078D01*
X171699Y56162D01*
X171688Y56220D01*
X171686Y56278D01*
X171660Y56358D01*
X171643Y56441D01*
X171616Y56493D01*
X171598Y56549D01*
X171558Y56605D01*
X171512Y56693D01*
X171444Y56766D01*
X171404Y56822D01*
X170052Y58173D01*
X170052Y77930D01*
X170048Y77959D01*
X170051Y77988D01*
X170028Y78099D01*
X170012Y78211D01*
X170000Y78238D01*
X169995Y78267D01*
X169943Y78367D01*
X169896Y78471D01*
X169877Y78493D01*
X169864Y78519D01*
X169786Y78601D01*
X169713Y78688D01*
X169688Y78704D01*
X169668Y78725D01*
X169570Y78782D01*
X169476Y78845D01*
X169448Y78854D01*
X169423Y78869D01*
X169313Y78897D01*
X169205Y78931D01*
X169175Y78932D01*
X169147Y78939D01*
X169034Y78935D01*
X168921Y78938D01*
X168892Y78931D01*
X168863Y78930D01*
X168755Y78895D01*
X168646Y78867D01*
X168620Y78852D01*
X168592Y78843D01*
X168529Y78797D01*
X168401Y78721D01*
X168358Y78676D01*
X168319Y78648D01*
X162467Y72796D01*
X162455Y72779D01*
X162443Y72770D01*
X162413Y72724D01*
X162355Y72662D01*
X162329Y72613D01*
X162296Y72568D01*
X162265Y72487D01*
X162225Y72409D01*
X162217Y72361D01*
X162195Y72303D01*
X162183Y72155D01*
X162170Y72078D01*
X162170Y63516D01*
X162182Y63429D01*
X162185Y63342D01*
X162202Y63289D01*
X162210Y63234D01*
X162245Y63155D01*
X162272Y63071D01*
X162300Y63032D01*
X162326Y62975D01*
X162422Y62862D01*
X162467Y62798D01*
X163751Y61514D01*
X164583Y59506D01*
X164583Y57334D01*
X163751Y55326D01*
X162522Y54097D01*
X162487Y54050D01*
X162444Y54010D01*
X162401Y53937D01*
X162351Y53870D01*
X162330Y53815D01*
X162300Y53764D01*
X162280Y53683D01*
X162250Y53604D01*
X162245Y53545D01*
X162230Y53489D01*
X162233Y53405D01*
X162226Y53321D01*
X162238Y53263D01*
X162239Y53205D01*
X162265Y53125D01*
X162282Y53042D01*
X162309Y52990D01*
X162327Y52934D01*
X162367Y52878D01*
X162413Y52789D01*
X162482Y52717D01*
X162522Y52661D01*
X162617Y52566D01*
X163270Y51588D01*
X163720Y50501D01*
X163865Y49775D01*
X157980Y49775D01*
X157923Y49767D01*
X157864Y49769D01*
X157782Y49747D01*
X157699Y49736D01*
X157646Y49712D01*
X157589Y49697D01*
X157517Y49654D01*
X157439Y49619D01*
X157395Y49582D01*
X157345Y49552D01*
X157287Y49490D01*
X157222Y49436D01*
X157190Y49387D01*
X157150Y49344D01*
X157112Y49269D01*
X157065Y49199D01*
X157047Y49143D01*
X157021Y49091D01*
X157009Y49023D01*
X156979Y48928D01*
X156977Y48828D01*
X156965Y48760D01*
X156973Y48702D01*
X156972Y48644D01*
X156993Y48562D01*
X157005Y48478D01*
X157029Y48425D01*
X157044Y48368D01*
X157087Y48296D01*
X157121Y48219D01*
X157159Y48174D01*
X157189Y48124D01*
X157250Y48066D01*
X157305Y48002D01*
X157354Y47970D01*
X157396Y47930D01*
X157471Y47891D01*
X157542Y47844D01*
X157597Y47827D01*
X157649Y47800D01*
X157717Y47789D01*
X157813Y47759D01*
X157912Y47756D01*
X157980Y47745D01*
X163894Y47745D01*
X163890Y47666D01*
X163893Y47651D01*
X163893Y47636D01*
X163925Y47513D01*
X163953Y47389D01*
X163961Y47376D01*
X163965Y47361D01*
X164029Y47252D01*
X164091Y47140D01*
X164102Y47130D01*
X164110Y47116D01*
X164202Y47029D01*
X164292Y46940D01*
X164306Y46932D01*
X164317Y46922D01*
X164430Y46864D01*
X164541Y46803D01*
X164557Y46799D01*
X164570Y46792D01*
X164638Y46781D01*
X164819Y46740D01*
X164865Y46743D01*
X164901Y46737D01*
X166919Y46737D01*
X169187Y45797D01*
X169311Y45765D01*
X169435Y45730D01*
X169448Y45730D01*
X169462Y45727D01*
X169590Y45730D01*
X169719Y45730D01*
X169732Y45734D01*
X169746Y45735D01*
X169868Y45774D01*
X169992Y45810D01*
X170004Y45817D01*
X170017Y45821D01*
X170124Y45893D01*
X170232Y45962D01*
X170241Y45972D01*
X170253Y45980D01*
X170336Y46078D01*
X170421Y46174D01*
X170427Y46187D01*
X170436Y46197D01*
X170488Y46315D01*
X170543Y46431D01*
X170546Y46444D01*
X170551Y46457D01*
X170569Y46584D01*
X170590Y46711D01*
X170588Y46725D01*
X170590Y46739D01*
X170572Y46866D01*
X170557Y46993D01*
X170552Y47005D01*
X170550Y47020D01*
X170433Y47279D01*
X170424Y47289D01*
X170419Y47300D01*
X169970Y47972D01*
X169520Y49059D01*
X169375Y49785D01*
X174245Y49785D01*
X174245Y44915D01*
X173519Y45060D01*
X173192Y45195D01*
X173109Y45217D01*
X173028Y45247D01*
X172972Y45252D01*
X172916Y45266D01*
X172831Y45264D01*
X172745Y45271D01*
X172689Y45260D01*
X172632Y45258D01*
X172551Y45232D01*
X172466Y45215D01*
X172416Y45189D01*
X172362Y45171D01*
X172290Y45123D01*
X172214Y45084D01*
X172173Y45045D01*
X172125Y45013D01*
X172070Y44947D01*
X172008Y44888D01*
X171979Y44839D01*
X171942Y44795D01*
X171908Y44717D01*
X171864Y44643D01*
X171850Y44588D01*
X171827Y44536D01*
X171815Y44450D01*
X171794Y44367D01*
X171796Y44310D01*
X171788Y44254D01*
X171800Y44169D01*
X171803Y44083D01*
X171821Y44029D01*
X171829Y43973D01*
X171864Y43894D01*
X171890Y43813D01*
X171919Y43772D01*
X171946Y43714D01*
X172040Y43603D01*
X172085Y43539D01*
X172853Y42772D01*
X174245Y39411D01*
X174245Y21549D01*
X172853Y18188D01*
X172655Y17990D01*
X172637Y17966D01*
X172614Y17947D01*
X172552Y17853D01*
X172484Y17763D01*
X172473Y17735D01*
X172457Y17711D01*
X172423Y17603D01*
X172382Y17497D01*
X172380Y17468D01*
X172371Y17440D01*
X172368Y17327D01*
X172359Y17214D01*
X172365Y17185D01*
X172364Y17156D01*
X172392Y17046D01*
X172415Y16935D01*
X172428Y16909D01*
X172436Y16881D01*
X172493Y16783D01*
X172546Y16683D01*
X172566Y16661D01*
X172581Y16636D01*
X172663Y16559D01*
X172741Y16477D01*
X172767Y16462D01*
X172788Y16442D01*
X172889Y16390D01*
X172987Y16333D01*
X173015Y16326D01*
X173041Y16312D01*
X173119Y16299D01*
X173262Y16263D01*
X173325Y16265D01*
X173372Y16257D01*
X182228Y16257D01*
X182257Y16261D01*
G37*
%LPC*%
G36*
X270443Y30098D02*
X270443Y30098D01*
X267269Y31413D01*
X264839Y33843D01*
X263524Y37017D01*
X263524Y40453D01*
X264839Y43627D01*
X267269Y46057D01*
X270443Y47372D01*
X287087Y47372D01*
X290261Y46057D01*
X292691Y43627D01*
X294006Y40453D01*
X294006Y37017D01*
X292691Y33843D01*
X290261Y31413D01*
X287087Y30098D01*
X270443Y30098D01*
G37*
%LPD*%
%LPC*%
G36*
X64322Y96519D02*
X64322Y96519D01*
X61148Y97834D01*
X58718Y100264D01*
X57403Y103438D01*
X57403Y120082D01*
X58718Y123256D01*
X61148Y125686D01*
X64322Y127001D01*
X67758Y127001D01*
X70932Y125686D01*
X73362Y123256D01*
X74677Y120082D01*
X74677Y103438D01*
X73362Y100264D01*
X70932Y97834D01*
X67758Y96519D01*
X64322Y96519D01*
G37*
%LPD*%
%LPC*%
G36*
X108895Y68678D02*
X108895Y68678D01*
X106887Y69509D01*
X105351Y71045D01*
X104519Y73053D01*
X104519Y74869D01*
X104507Y74956D01*
X104504Y75043D01*
X104487Y75096D01*
X104479Y75150D01*
X104444Y75230D01*
X104417Y75313D01*
X104389Y75353D01*
X104363Y75410D01*
X104267Y75523D01*
X104222Y75587D01*
X94651Y85158D01*
X94651Y90064D01*
X94639Y90151D01*
X94636Y90238D01*
X94619Y90291D01*
X94611Y90346D01*
X94576Y90425D01*
X94549Y90509D01*
X94521Y90548D01*
X94495Y90605D01*
X94399Y90718D01*
X94354Y90782D01*
X93070Y92066D01*
X92238Y94074D01*
X92238Y96246D01*
X93070Y98254D01*
X94089Y99273D01*
X94150Y99354D01*
X94217Y99430D01*
X94235Y99467D01*
X94260Y99500D01*
X94296Y99595D01*
X94340Y99686D01*
X94346Y99727D01*
X94361Y99766D01*
X94370Y99867D01*
X94386Y99967D01*
X94381Y100008D01*
X94385Y100049D01*
X94365Y100148D01*
X94353Y100249D01*
X94338Y100283D01*
X94329Y100328D01*
X94244Y100493D01*
X94215Y100555D01*
X93770Y101222D01*
X93320Y102309D01*
X93175Y103035D01*
X99060Y103035D01*
X104945Y103035D01*
X104800Y102309D01*
X104350Y101222D01*
X103697Y100244D01*
X102866Y99413D01*
X102763Y99344D01*
X102688Y99277D01*
X102607Y99216D01*
X102582Y99183D01*
X102551Y99155D01*
X102497Y99069D01*
X102437Y98988D01*
X102422Y98949D01*
X102400Y98914D01*
X102372Y98817D01*
X102336Y98722D01*
X102333Y98681D01*
X102322Y98641D01*
X102322Y98540D01*
X102314Y98439D01*
X102322Y98403D01*
X102322Y98357D01*
X102373Y98181D01*
X102374Y98177D01*
X102389Y98112D01*
X103162Y96246D01*
X103162Y94074D01*
X102330Y92066D01*
X101046Y90782D01*
X100994Y90712D01*
X100934Y90648D01*
X100908Y90599D01*
X100875Y90555D01*
X100844Y90473D01*
X100804Y90395D01*
X100796Y90348D01*
X100774Y90289D01*
X100762Y90141D01*
X100749Y90064D01*
X100749Y88104D01*
X100761Y88017D01*
X100764Y87930D01*
X100781Y87877D01*
X100788Y87822D01*
X100824Y87742D01*
X100851Y87659D01*
X100879Y87620D01*
X100905Y87563D01*
X101001Y87450D01*
X101046Y87386D01*
X108533Y79898D01*
X108603Y79846D01*
X108667Y79786D01*
X108717Y79761D01*
X108761Y79728D01*
X108842Y79696D01*
X108920Y79657D01*
X108968Y79649D01*
X109026Y79626D01*
X109174Y79614D01*
X109251Y79601D01*
X111067Y79601D01*
X113075Y78770D01*
X114611Y77233D01*
X115443Y75226D01*
X115443Y73053D01*
X114611Y71045D01*
X113075Y69509D01*
X111067Y68678D01*
X108895Y68678D01*
G37*
%LPD*%
%LPC*%
G36*
X222509Y230187D02*
X222509Y230187D01*
X217487Y235209D01*
X217487Y242311D01*
X222509Y247333D01*
X229611Y247333D01*
X234633Y242311D01*
X234633Y235209D01*
X229611Y230187D01*
X222509Y230187D01*
G37*
%LPD*%
%LPC*%
G36*
X231647Y32511D02*
X231647Y32511D01*
X231647Y38352D01*
X231885Y39852D01*
X232354Y41297D01*
X232433Y41452D01*
X232456Y41517D01*
X232487Y41578D01*
X232501Y41651D01*
X232525Y41720D01*
X232529Y41790D01*
X232542Y41857D01*
X232536Y41931D01*
X232540Y42004D01*
X232524Y42072D01*
X232518Y42141D01*
X232491Y42209D01*
X232474Y42281D01*
X232441Y42341D01*
X232416Y42406D01*
X232371Y42465D01*
X232335Y42529D01*
X232286Y42577D01*
X232244Y42633D01*
X232185Y42677D01*
X232133Y42728D01*
X232072Y42761D01*
X232016Y42803D01*
X231948Y42829D01*
X231883Y42864D01*
X231815Y42879D01*
X231750Y42903D01*
X231677Y42909D01*
X231605Y42925D01*
X231536Y42920D01*
X231467Y42926D01*
X231406Y42912D01*
X231321Y42906D01*
X231213Y42867D01*
X231140Y42850D01*
X230341Y42520D01*
X229615Y42375D01*
X229615Y47245D01*
X234485Y47245D01*
X234369Y46664D01*
X234367Y46615D01*
X234355Y46567D01*
X234359Y46474D01*
X234353Y46381D01*
X234364Y46332D01*
X234366Y46283D01*
X234396Y46195D01*
X234417Y46103D01*
X234441Y46060D01*
X234456Y46013D01*
X234509Y45936D01*
X234555Y45855D01*
X234590Y45820D01*
X234618Y45779D01*
X234690Y45720D01*
X234756Y45654D01*
X234799Y45630D01*
X234837Y45599D01*
X234923Y45562D01*
X235005Y45517D01*
X235053Y45506D01*
X235098Y45487D01*
X235191Y45475D01*
X235282Y45454D01*
X235332Y45457D01*
X235381Y45451D01*
X235473Y45466D01*
X235566Y45471D01*
X235613Y45488D01*
X235661Y45495D01*
X235728Y45528D01*
X235834Y45566D01*
X235905Y45617D01*
X235962Y45645D01*
X236241Y45848D01*
X237595Y46538D01*
X239040Y47007D01*
X239269Y47043D01*
X239269Y32511D01*
X231647Y32511D01*
G37*
%LPD*%
%LPC*%
G36*
X18997Y233171D02*
X18997Y233171D01*
X19033Y233400D01*
X19502Y234845D01*
X20192Y236199D01*
X21085Y237428D01*
X22160Y238503D01*
X23389Y239396D01*
X24743Y240086D01*
X26188Y240555D01*
X27688Y240793D01*
X33529Y240793D01*
X33529Y233171D01*
X18997Y233171D01*
G37*
%LPD*%
%LPC*%
G36*
X27688Y221487D02*
X27688Y221487D01*
X26188Y221725D01*
X24743Y222194D01*
X23389Y222884D01*
X22160Y223777D01*
X21085Y224852D01*
X20192Y226081D01*
X19502Y227435D01*
X19033Y228880D01*
X18997Y229109D01*
X33529Y229109D01*
X33529Y221487D01*
X27688Y221487D01*
G37*
%LPD*%
%LPC*%
G36*
X42671Y113791D02*
X42671Y113791D01*
X42671Y127284D01*
X43307Y127157D01*
X44972Y126468D01*
X46470Y125467D01*
X47743Y124194D01*
X48744Y122696D01*
X49433Y121031D01*
X49785Y119265D01*
X49785Y113791D01*
X42671Y113791D01*
G37*
%LPD*%
%LPC*%
G36*
X280796Y66166D02*
X280796Y66166D01*
X280796Y73280D01*
X286270Y73280D01*
X288036Y72928D01*
X289701Y72239D01*
X291199Y71238D01*
X292472Y69965D01*
X293473Y68467D01*
X294162Y66802D01*
X294289Y66166D01*
X280796Y66166D01*
G37*
%LPD*%
%LPC*%
G36*
X42671Y109729D02*
X42671Y109729D01*
X49785Y109729D01*
X49785Y104255D01*
X49433Y102489D01*
X48744Y100824D01*
X47743Y99326D01*
X46470Y98053D01*
X44972Y97052D01*
X43307Y96363D01*
X42671Y96236D01*
X42671Y109729D01*
G37*
%LPD*%
%LPC*%
G36*
X263241Y66166D02*
X263241Y66166D01*
X263368Y66802D01*
X264057Y68467D01*
X265058Y69965D01*
X266331Y71238D01*
X267829Y72239D01*
X269494Y72928D01*
X271260Y73280D01*
X276734Y73280D01*
X276734Y66166D01*
X263241Y66166D01*
G37*
%LPD*%
%LPC*%
G36*
X280796Y54990D02*
X280796Y54990D01*
X280796Y62104D01*
X294289Y62104D01*
X294162Y61468D01*
X293473Y59803D01*
X292472Y58305D01*
X291199Y57032D01*
X289701Y56031D01*
X288036Y55342D01*
X286270Y54990D01*
X280796Y54990D01*
G37*
%LPD*%
%LPC*%
G36*
X31495Y113791D02*
X31495Y113791D01*
X31495Y119265D01*
X31847Y121031D01*
X32536Y122696D01*
X33537Y124194D01*
X34810Y125467D01*
X36308Y126468D01*
X37973Y127157D01*
X38609Y127284D01*
X38609Y113791D01*
X31495Y113791D01*
G37*
%LPD*%
%LPC*%
G36*
X271260Y54990D02*
X271260Y54990D01*
X269494Y55342D01*
X267829Y56031D01*
X266331Y57032D01*
X265058Y58305D01*
X264057Y59803D01*
X263368Y61468D01*
X263241Y62104D01*
X276734Y62104D01*
X276734Y54990D01*
X271260Y54990D01*
G37*
%LPD*%
%LPC*%
G36*
X37973Y96363D02*
X37973Y96363D01*
X36308Y97052D01*
X34810Y98053D01*
X33537Y99326D01*
X32536Y100824D01*
X31847Y102489D01*
X31495Y104255D01*
X31495Y109729D01*
X38609Y109729D01*
X38609Y96236D01*
X37973Y96363D01*
G37*
%LPD*%
%LPC*%
G36*
X284161Y220401D02*
X284161Y220401D01*
X281354Y223207D01*
X281354Y227176D01*
X284161Y229982D01*
X288129Y229982D01*
X290936Y227176D01*
X290936Y223207D01*
X288129Y220401D01*
X284161Y220401D01*
G37*
%LPD*%
%LPC*%
G36*
X43731Y51296D02*
X43731Y51296D01*
X40924Y54102D01*
X40924Y58071D01*
X43731Y60877D01*
X47700Y60877D01*
X50506Y58071D01*
X50506Y54102D01*
X47700Y51296D01*
X43731Y51296D01*
G37*
%LPD*%
G36*
X185644Y82699D02*
X185644Y82699D01*
X185759Y82703D01*
X185785Y82712D01*
X185813Y82714D01*
X185920Y82755D01*
X186029Y82790D01*
X186050Y82805D01*
X186078Y82816D01*
X186290Y82976D01*
X186303Y82985D01*
X186668Y83350D01*
X186703Y83397D01*
X186745Y83437D01*
X186788Y83510D01*
X186839Y83577D01*
X186859Y83632D01*
X186889Y83683D01*
X186910Y83764D01*
X186940Y83843D01*
X186945Y83901D01*
X186959Y83958D01*
X186956Y84042D01*
X186963Y84126D01*
X186952Y84184D01*
X186950Y84242D01*
X186924Y84323D01*
X186907Y84405D01*
X186881Y84457D01*
X186863Y84513D01*
X186823Y84569D01*
X186777Y84657D01*
X186708Y84730D01*
X186668Y84786D01*
X185979Y85475D01*
X185978Y85475D01*
X183895Y87558D01*
X183895Y92442D01*
X183888Y92493D01*
X183889Y92515D01*
X183883Y92538D01*
X183880Y92616D01*
X183863Y92669D01*
X183855Y92724D01*
X183820Y92803D01*
X183793Y92887D01*
X183765Y92926D01*
X183739Y92983D01*
X183643Y93096D01*
X183598Y93160D01*
X171967Y104791D01*
X171921Y104826D01*
X171880Y104868D01*
X171807Y104911D01*
X171740Y104961D01*
X171685Y104982D01*
X171635Y105012D01*
X171553Y105033D01*
X171474Y105063D01*
X171416Y105067D01*
X171360Y105082D01*
X171275Y105079D01*
X171191Y105086D01*
X171134Y105075D01*
X171075Y105073D01*
X170995Y105047D01*
X170912Y105030D01*
X170861Y105003D01*
X170805Y104985D01*
X170749Y104945D01*
X170660Y104899D01*
X170588Y104831D01*
X170532Y104791D01*
X170531Y104790D01*
X170496Y104744D01*
X170454Y104704D01*
X170454Y104703D01*
X170411Y104631D01*
X170361Y104563D01*
X170340Y104509D01*
X170310Y104458D01*
X170289Y104377D01*
X170259Y104298D01*
X170255Y104239D01*
X170240Y104183D01*
X170243Y104098D01*
X170236Y104014D01*
X170247Y103957D01*
X170249Y103899D01*
X170275Y103818D01*
X170292Y103736D01*
X170319Y103684D01*
X170337Y103628D01*
X170377Y103572D01*
X170423Y103483D01*
X170491Y103411D01*
X170531Y103355D01*
X178130Y95756D01*
X178131Y95756D01*
X180214Y93672D01*
X180214Y87607D01*
X180214Y87605D01*
X180214Y87604D01*
X180234Y87464D01*
X180254Y87325D01*
X180254Y87324D01*
X180254Y87322D01*
X180311Y87196D01*
X180370Y87066D01*
X180371Y87065D01*
X180372Y87063D01*
X180463Y86956D01*
X180553Y86849D01*
X180555Y86848D01*
X180556Y86847D01*
X180569Y86839D01*
X180790Y86691D01*
X180819Y86682D01*
X180840Y86669D01*
X182672Y85910D01*
X184208Y84374D01*
X184647Y83315D01*
X184705Y83216D01*
X184758Y83114D01*
X184777Y83094D01*
X184791Y83070D01*
X184875Y82991D01*
X184954Y82908D01*
X184978Y82894D01*
X184998Y82875D01*
X185100Y82822D01*
X185199Y82764D01*
X185226Y82757D01*
X185251Y82744D01*
X185363Y82722D01*
X185475Y82694D01*
X185503Y82695D01*
X185530Y82689D01*
X185644Y82699D01*
G37*
%LPC*%
G36*
X216979Y189959D02*
X216979Y189959D01*
X216979Y191721D01*
X222299Y197041D01*
X224061Y197041D01*
X224061Y189959D01*
X216979Y189959D01*
G37*
%LPD*%
%LPC*%
G36*
X192235Y145795D02*
X192235Y145795D01*
X192380Y146521D01*
X192830Y147608D01*
X193458Y148549D01*
X193477Y148588D01*
X193503Y148622D01*
X193538Y148715D01*
X193582Y148805D01*
X193589Y148847D01*
X193604Y148888D01*
X193612Y148987D01*
X193629Y149085D01*
X193624Y149128D01*
X193628Y149171D01*
X193608Y149269D01*
X193605Y149295D01*
X193677Y149277D01*
X193720Y149278D01*
X193763Y149271D01*
X193862Y149282D01*
X193961Y149286D01*
X194002Y149299D01*
X194045Y149304D01*
X194115Y149335D01*
X194232Y149373D01*
X194288Y149413D01*
X194351Y149442D01*
X195292Y150070D01*
X196379Y150520D01*
X197105Y150665D01*
X197105Y145795D01*
X192235Y145795D01*
G37*
%LPD*%
%LPC*%
G36*
X56261Y230250D02*
X56261Y230250D01*
X56261Y235119D01*
X56987Y234975D01*
X58073Y234525D01*
X59051Y233872D01*
X59882Y233040D01*
X60536Y232062D01*
X60986Y230976D01*
X61130Y230250D01*
X56261Y230250D01*
G37*
%LPD*%
%LPC*%
G36*
X260863Y215620D02*
X260863Y215620D01*
X260863Y220490D01*
X261589Y220345D01*
X262676Y219895D01*
X263654Y219242D01*
X264485Y218411D01*
X265138Y217433D01*
X265588Y216346D01*
X265733Y215620D01*
X260863Y215620D01*
G37*
%LPD*%
%LPC*%
G36*
X199135Y145795D02*
X199135Y145795D01*
X199135Y150665D01*
X199861Y150520D01*
X200948Y150070D01*
X201926Y149417D01*
X202757Y148586D01*
X203410Y147608D01*
X203860Y146521D01*
X204005Y145795D01*
X199135Y145795D01*
G37*
%LPD*%
%LPC*%
G36*
X252475Y178815D02*
X252475Y178815D01*
X252475Y183685D01*
X253201Y183540D01*
X254288Y183090D01*
X255266Y182437D01*
X256097Y181606D01*
X256750Y180628D01*
X257200Y179541D01*
X257345Y178815D01*
X252475Y178815D01*
G37*
%LPD*%
%LPC*%
G36*
X216915Y148335D02*
X216915Y148335D01*
X216915Y153205D01*
X217641Y153060D01*
X218728Y152610D01*
X219706Y151957D01*
X220537Y151126D01*
X221190Y150148D01*
X221640Y149061D01*
X221785Y148335D01*
X216915Y148335D01*
G37*
%LPD*%
%LPC*%
G36*
X74675Y140334D02*
X74675Y140334D01*
X74675Y145204D01*
X75401Y145059D01*
X76488Y144609D01*
X77466Y143956D01*
X78297Y143125D01*
X78950Y142147D01*
X79400Y141060D01*
X79545Y140334D01*
X74675Y140334D01*
G37*
%LPD*%
%LPC*%
G36*
X112775Y53984D02*
X112775Y53984D01*
X112775Y58854D01*
X113501Y58709D01*
X114588Y58259D01*
X115566Y57606D01*
X116397Y56775D01*
X117050Y55797D01*
X117500Y54710D01*
X117645Y53984D01*
X112775Y53984D01*
G37*
%LPD*%
%LPC*%
G36*
X199135Y51815D02*
X199135Y51815D01*
X199135Y56685D01*
X199861Y56540D01*
X200948Y56090D01*
X201926Y55437D01*
X202757Y54606D01*
X203410Y53628D01*
X203860Y52541D01*
X204005Y51815D01*
X199135Y51815D01*
G37*
%LPD*%
%LPC*%
G36*
X229615Y49275D02*
X229615Y49275D01*
X229615Y54145D01*
X230341Y54000D01*
X231428Y53550D01*
X232406Y52897D01*
X233237Y52066D01*
X233890Y51088D01*
X234340Y50001D01*
X234485Y49275D01*
X229615Y49275D01*
G37*
%LPD*%
%LPC*%
G36*
X210015Y148335D02*
X210015Y148335D01*
X210160Y149061D01*
X210610Y150148D01*
X211263Y151126D01*
X212094Y151957D01*
X213072Y152610D01*
X214159Y153060D01*
X214885Y153205D01*
X214885Y148335D01*
X210015Y148335D01*
G37*
%LPD*%
%LPC*%
G36*
X216915Y146305D02*
X216915Y146305D01*
X221785Y146305D01*
X221640Y145579D01*
X221190Y144492D01*
X220537Y143514D01*
X219706Y142683D01*
X218728Y142030D01*
X217641Y141580D01*
X216915Y141435D01*
X216915Y146305D01*
G37*
%LPD*%
%LPC*%
G36*
X67775Y140334D02*
X67775Y140334D01*
X67920Y141060D01*
X68370Y142147D01*
X69023Y143125D01*
X69854Y143956D01*
X70832Y144609D01*
X71919Y145059D01*
X72645Y145204D01*
X72645Y140334D01*
X67775Y140334D01*
G37*
%LPD*%
%LPC*%
G36*
X199135Y143765D02*
X199135Y143765D01*
X204005Y143765D01*
X203860Y143039D01*
X203410Y141952D01*
X202757Y140974D01*
X201926Y140143D01*
X200948Y139490D01*
X199861Y139040D01*
X199135Y138895D01*
X199135Y143765D01*
G37*
%LPD*%
%LPC*%
G36*
X93175Y105065D02*
X93175Y105065D01*
X93320Y105791D01*
X93770Y106878D01*
X94423Y107856D01*
X95254Y108687D01*
X96232Y109340D01*
X97319Y109790D01*
X98045Y109935D01*
X98045Y105065D01*
X93175Y105065D01*
G37*
%LPD*%
%LPC*%
G36*
X74675Y138304D02*
X74675Y138304D01*
X79545Y138304D01*
X79400Y137578D01*
X78950Y136491D01*
X78297Y135513D01*
X77466Y134682D01*
X76488Y134029D01*
X75401Y133579D01*
X74675Y133434D01*
X74675Y138304D01*
G37*
%LPD*%
%LPC*%
G36*
X105875Y53984D02*
X105875Y53984D01*
X106020Y54710D01*
X106470Y55797D01*
X107123Y56775D01*
X107954Y57606D01*
X108932Y58259D01*
X110019Y58709D01*
X110745Y58854D01*
X110745Y53984D01*
X105875Y53984D01*
G37*
%LPD*%
%LPC*%
G36*
X159215Y108457D02*
X159215Y108457D01*
X159360Y109183D01*
X159810Y110270D01*
X160463Y111248D01*
X161294Y112079D01*
X162272Y112732D01*
X163359Y113182D01*
X164085Y113327D01*
X164085Y108457D01*
X159215Y108457D01*
G37*
%LPD*%
%LPC*%
G36*
X253963Y215620D02*
X253963Y215620D01*
X254108Y216346D01*
X254558Y217433D01*
X255211Y218411D01*
X256042Y219242D01*
X257020Y219895D01*
X258107Y220345D01*
X258833Y220490D01*
X258833Y215620D01*
X253963Y215620D01*
G37*
%LPD*%
%LPC*%
G36*
X222715Y49275D02*
X222715Y49275D01*
X222860Y50001D01*
X223310Y51088D01*
X223963Y52066D01*
X224794Y52897D01*
X225772Y53550D01*
X226859Y54000D01*
X227585Y54145D01*
X227585Y49275D01*
X222715Y49275D01*
G37*
%LPD*%
%LPC*%
G36*
X260863Y213590D02*
X260863Y213590D01*
X265733Y213590D01*
X265588Y212864D01*
X265138Y211777D01*
X264485Y210799D01*
X263654Y209968D01*
X262676Y209315D01*
X261589Y208865D01*
X260863Y208720D01*
X260863Y213590D01*
G37*
%LPD*%
%LPC*%
G36*
X141489Y44249D02*
X141489Y44249D01*
X141634Y44975D01*
X142084Y46062D01*
X142737Y47040D01*
X143568Y47871D01*
X144546Y48524D01*
X145633Y48974D01*
X146359Y49119D01*
X146359Y44249D01*
X141489Y44249D01*
G37*
%LPD*%
%LPC*%
G36*
X245575Y178815D02*
X245575Y178815D01*
X245720Y179541D01*
X246170Y180628D01*
X246823Y181606D01*
X247654Y182437D01*
X248632Y183090D01*
X249719Y183540D01*
X250445Y183685D01*
X250445Y178815D01*
X245575Y178815D01*
G37*
%LPD*%
%LPC*%
G36*
X252475Y176785D02*
X252475Y176785D01*
X257345Y176785D01*
X257200Y176059D01*
X256750Y174972D01*
X256097Y173994D01*
X255266Y173163D01*
X254288Y172510D01*
X253201Y172060D01*
X252475Y171915D01*
X252475Y176785D01*
G37*
%LPD*%
%LPC*%
G36*
X112775Y51954D02*
X112775Y51954D01*
X117645Y51954D01*
X117500Y51228D01*
X117050Y50141D01*
X116397Y49163D01*
X115566Y48332D01*
X114588Y47679D01*
X113501Y47229D01*
X112775Y47084D01*
X112775Y51954D01*
G37*
%LPD*%
%LPC*%
G36*
X258107Y208865D02*
X258107Y208865D01*
X257020Y209315D01*
X256042Y209968D01*
X255211Y210799D01*
X254558Y211777D01*
X254108Y212864D01*
X253963Y213590D01*
X258833Y213590D01*
X258833Y208720D01*
X258107Y208865D01*
G37*
%LPD*%
%LPC*%
G36*
X214159Y141580D02*
X214159Y141580D01*
X213072Y142030D01*
X212094Y142683D01*
X211263Y143514D01*
X210610Y144492D01*
X210160Y145579D01*
X210015Y146305D01*
X214885Y146305D01*
X214885Y141435D01*
X214159Y141580D01*
G37*
%LPD*%
%LPC*%
G36*
X245409Y50910D02*
X245409Y50910D01*
X244322Y51360D01*
X243344Y52013D01*
X242513Y52844D01*
X241860Y53822D01*
X241410Y54909D01*
X241265Y55635D01*
X246135Y55635D01*
X246135Y50765D01*
X245409Y50910D01*
G37*
%LPD*%
%LPC*%
G36*
X249719Y172060D02*
X249719Y172060D01*
X248632Y172510D01*
X247654Y173163D01*
X246823Y173994D01*
X246170Y174972D01*
X245720Y176059D01*
X245575Y176785D01*
X250445Y176785D01*
X250445Y171915D01*
X249719Y172060D01*
G37*
%LPD*%
%LPC*%
G36*
X196379Y139040D02*
X196379Y139040D01*
X195292Y139490D01*
X194314Y140143D01*
X193483Y140974D01*
X192830Y141952D01*
X192380Y143039D01*
X192235Y143765D01*
X197105Y143765D01*
X197105Y138895D01*
X196379Y139040D01*
G37*
%LPD*%
%LPC*%
G36*
X71919Y133579D02*
X71919Y133579D01*
X70832Y134029D01*
X69854Y134682D01*
X69023Y135513D01*
X68370Y136491D01*
X67920Y137578D01*
X67775Y138304D01*
X72645Y138304D01*
X72645Y133434D01*
X71919Y133579D01*
G37*
%LPD*%
%LPC*%
G36*
X145633Y37494D02*
X145633Y37494D01*
X144546Y37944D01*
X143568Y38597D01*
X142737Y39428D01*
X142084Y40406D01*
X141634Y41493D01*
X141489Y42219D01*
X146359Y42219D01*
X146359Y37349D01*
X145633Y37494D01*
G37*
%LPD*%
%LPC*%
G36*
X110019Y47229D02*
X110019Y47229D01*
X108932Y47679D01*
X107954Y48332D01*
X107123Y49163D01*
X106470Y50141D01*
X106020Y51228D01*
X105875Y51954D01*
X110745Y51954D01*
X110745Y47084D01*
X110019Y47229D01*
G37*
%LPD*%
%LPC*%
G36*
X278764Y64134D02*
X278764Y64134D01*
X278764Y64136D01*
X278766Y64136D01*
X278766Y64134D01*
X278764Y64134D01*
G37*
%LPD*%
%LPC*%
G36*
X40639Y111759D02*
X40639Y111759D01*
X40639Y111761D01*
X40641Y111761D01*
X40641Y111759D01*
X40639Y111759D01*
G37*
%LPD*%
D10*
X66040Y118364D02*
X66040Y105156D01*
X40640Y105156D02*
X40640Y118364D01*
D11*
X215900Y37592D02*
X215900Y23368D01*
X241300Y23368D02*
X241300Y37592D01*
X165100Y37592D02*
X165100Y23368D01*
X190500Y23368D02*
X190500Y37592D01*
X42672Y154940D02*
X28448Y154940D01*
X28448Y180340D02*
X42672Y180340D01*
X42672Y205740D02*
X28448Y205740D01*
X28448Y231140D02*
X42672Y231140D01*
D12*
X226060Y213360D03*
X200660Y213360D03*
X226060Y238760D03*
X200660Y238760D03*
X200660Y187960D03*
X226060Y187960D03*
D10*
X272161Y38735D02*
X285369Y38735D01*
X285369Y64135D02*
X272161Y64135D01*
D13*
X58420Y154940D03*
D14*
X86360Y154940D01*
X96520Y165100D02*
X144780Y165100D01*
X148463Y168783D01*
X148463Y172863D01*
X154940Y179340D01*
X154940Y210820D02*
X157480Y213360D01*
D13*
X157480Y213360D03*
D14*
X96520Y165100D02*
X86360Y154940D01*
X154940Y179340D02*
X154940Y210820D01*
D13*
X179578Y81280D03*
D14*
X134050Y100965D02*
X106680Y128335D01*
X134050Y100965D02*
X168610Y100965D01*
X177165Y92410D01*
X177165Y83693D01*
X179578Y81280D01*
X106680Y128335D02*
X106680Y147320D01*
X144780Y165100D02*
X152400Y157480D01*
X152400Y154940D01*
X109220Y149860D02*
X106680Y147320D01*
X147320Y149860D02*
X152400Y154940D01*
X147320Y149860D02*
X109220Y149860D01*
D13*
X68580Y161417D03*
D14*
X87090Y161417D01*
X94837Y169164D01*
X143097Y169164D02*
X144399Y170466D01*
X143097Y169164D02*
X94837Y169164D01*
X144399Y170466D02*
X144399Y174546D01*
X150876Y181023D01*
X150876Y216916D02*
X157480Y223520D01*
D13*
X157480Y223520D03*
D14*
X150876Y216916D02*
X150876Y181023D01*
D13*
X183997Y224637D03*
D14*
X230032Y222948D02*
X239014Y213966D01*
X239014Y187355D01*
X218909Y167250D01*
X205004Y167250D01*
X185685Y222948D02*
X183997Y224637D01*
X185685Y222948D02*
X230032Y222948D01*
X177819Y140065D02*
X175260Y140065D01*
D13*
X175260Y140065D03*
X97700Y95160D03*
D14*
X97700Y86420D01*
X109981Y74139D01*
D13*
X109981Y74139D03*
D14*
X177819Y140065D02*
X205004Y167250D01*
D13*
X228600Y48260D03*
D14*
X200660Y48260D01*
X198120Y50800D01*
D13*
X198120Y50800D03*
X247150Y56650D03*
D14*
X238760Y48260D01*
X228600Y48260D01*
D13*
X157980Y48760D03*
D14*
X173220Y48760D01*
X175260Y50800D01*
D13*
X175260Y50800D03*
X73660Y139319D03*
D14*
X24240Y144780D02*
X18288Y150732D01*
X68199Y144780D02*
X73660Y139319D01*
X68199Y144780D02*
X24240Y144780D01*
X18288Y150732D02*
X18288Y209948D01*
X103283Y217424D02*
X107347Y213360D01*
X107347Y196247D01*
X106680Y195580D01*
D13*
X106680Y195580D03*
D14*
X71120Y236220D02*
X44560Y236220D01*
X18288Y209948D01*
D13*
X55245Y229235D03*
D14*
X68613Y229235D01*
X87376Y217424D02*
X103283Y217424D01*
X74327Y223520D02*
X68613Y229235D01*
X74327Y223520D02*
X81280Y223520D01*
X87376Y217424D01*
X81280Y223520D02*
X81280Y226060D01*
X71120Y236220D01*
D13*
X259848Y214605D03*
D14*
X248920Y203677D01*
X248920Y180340D02*
X251460Y177800D01*
D13*
X251460Y177800D03*
D14*
X248920Y180340D02*
X248920Y203677D01*
D13*
X191096Y196176D03*
X232537Y202865D03*
D14*
X195317Y196176D02*
X191096Y196176D01*
X195317Y196176D02*
X196689Y197548D01*
X210677Y207137D02*
X216043Y207137D01*
X220315Y202865D01*
X232537Y202865D01*
X201088Y197548D02*
X196689Y197548D01*
X201088Y197548D02*
X210677Y207137D01*
X227471Y102729D02*
X233269Y102729D01*
X241808Y154294D02*
X253307Y165793D01*
X241808Y154294D02*
X241808Y111268D01*
X233269Y102729D01*
X253307Y165793D02*
X253307Y175953D01*
X251460Y177800D01*
D13*
X215900Y147320D03*
D14*
X231140Y147320D01*
X238114Y154294D02*
X241808Y154294D01*
X238114Y154294D02*
X231140Y147320D01*
X248920Y203677D02*
X243078Y209519D01*
X186679Y231114D02*
X181314Y231114D01*
X177520Y227319D01*
X177520Y221954D01*
X231715Y227012D02*
X243078Y215649D01*
X231715Y227012D02*
X190781Y227012D01*
X186679Y231114D01*
X191096Y208377D02*
X191096Y196176D01*
X191096Y208377D02*
X177520Y221954D01*
X243078Y215649D02*
X243078Y209519D01*
D13*
X165100Y107442D03*
D14*
X167513Y105029D01*
X170293Y105029D01*
X182880Y92442D01*
X182880Y87138D01*
X190500Y79518D02*
X190500Y78740D01*
D13*
X190500Y78740D03*
D14*
X190500Y79518D02*
X182880Y87138D01*
X220980Y109220D02*
X227471Y102729D01*
X210820Y144780D02*
X198120Y144780D01*
D13*
X198120Y144780D03*
D14*
X220980Y134620D02*
X220980Y109220D01*
X220980Y134620D02*
X210820Y144780D01*
D13*
X111760Y52969D03*
D14*
X121495Y43234D01*
X147374Y43234D01*
D13*
X147374Y43234D03*
X99060Y104050D03*
D14*
X104177Y92477D02*
X104140Y92440D01*
X104140Y88900D01*
X104177Y98933D02*
X99060Y104050D01*
X104177Y98933D02*
X104177Y92477D01*
X112664Y80616D02*
X116458Y76822D01*
X116458Y71456D01*
X112424Y80616D02*
X104140Y88900D01*
X112424Y80616D02*
X112664Y80616D01*
X116458Y71456D02*
X111760Y66758D01*
X111760Y52969D01*
D13*
X238760Y99060D03*
D15*
X246380Y106680D01*
X246380Y152400D01*
X256540Y162560D01*
X281940Y162560D02*
X287020Y167640D01*
X287020Y205740D01*
D13*
X287020Y205740D03*
D15*
X281940Y162560D02*
X256540Y162560D01*
D13*
X137160Y227159D03*
X167640Y241300D03*
D15*
X139811Y227159D02*
X137160Y227159D01*
X139811Y227159D02*
X145697Y233045D01*
X159385Y233045D02*
X167640Y241300D01*
X159385Y233045D02*
X145697Y233045D01*
D13*
X193040Y251460D03*
D15*
X185420Y251460D01*
X175260Y241300D01*
X167640Y241300D01*
D13*
X172720Y234331D03*
D15*
X172720Y220287D01*
X186344Y206664D01*
D13*
X187960Y185420D03*
D15*
X184111Y193283D02*
X184111Y199069D01*
X184111Y193283D02*
X187960Y189434D01*
X187960Y185420D01*
X186344Y201302D02*
X186344Y206664D01*
X186344Y201302D02*
X184111Y199069D01*
D13*
X208915Y120141D03*
D15*
X216408Y112648D01*
X216408Y107326D01*
X219921Y103813D01*
X219921Y97579D01*
X219075Y96733D01*
X219075Y90946D01*
X223167Y86854D01*
X242180Y86854D01*
X255524Y100198D02*
X255524Y147320D01*
X260604Y152400D01*
X296164Y163852D02*
X296164Y180340D01*
X296164Y163852D02*
X284712Y152400D01*
X296898Y180975D02*
X300990Y185067D01*
X296799Y180975D02*
X296164Y180340D01*
X296799Y180975D02*
X296898Y180975D01*
X300990Y185067D02*
X300990Y199390D01*
X294640Y205740D01*
X287020Y205740D01*
X255524Y100198D02*
X242180Y86854D01*
X260604Y152400D02*
X284712Y152400D01*
X279400Y134620D02*
X279400Y93980D01*
X279400Y134620D02*
X281940Y137160D01*
X289560Y137160D01*
D13*
X289560Y137160D03*
X254000Y83820D03*
D15*
X259080Y88900D01*
X274320Y88900D02*
X279400Y93980D01*
X274320Y88900D02*
X259080Y88900D01*
D13*
X152400Y27940D03*
X203200Y30480D03*
D15*
X160681Y12700D02*
X154432Y18949D01*
X194919Y12700D02*
X201168Y18949D01*
X201168Y28448D01*
X203200Y30480D01*
X154432Y25908D02*
X152400Y27940D01*
X154432Y25908D02*
X154432Y18949D01*
X160681Y12700D02*
X194919Y12700D01*
D13*
X161417Y178270D03*
D15*
X185890Y178270D01*
X187960Y180340D01*
X187960Y185420D01*
D13*
X213360Y200660D03*
X167640Y152400D03*
D14*
X210248Y197548D02*
X213360Y200660D01*
X210248Y197548D02*
X210248Y183989D01*
X170672Y155432D02*
X167640Y152400D01*
X181692Y155432D02*
X210248Y183989D01*
X181692Y155432D02*
X170672Y155432D01*
D13*
X175260Y161909D03*
D14*
X166989Y170180D01*
X154940Y170180D01*
D13*
X154940Y170180D03*
X160020Y127000D03*
D14*
X171577Y115443D01*
X171577Y109220D01*
X171976Y109093D02*
X186944Y94125D01*
X186944Y88821D02*
X190548Y85217D01*
X186944Y88821D02*
X186944Y94125D01*
X171704Y109093D02*
X171577Y109220D01*
X171704Y109093D02*
X171976Y109093D01*
D13*
X206539Y14441D03*
D14*
X193183Y85217D02*
X190548Y85217D01*
X249833Y63127D02*
X253627Y59333D01*
X210458Y14441D02*
X211692Y13208D01*
X210458Y14441D02*
X206539Y14441D01*
X253627Y21327D02*
X253627Y59333D01*
X253627Y21327D02*
X245508Y13208D01*
X215273Y63127D02*
X193183Y85217D01*
X215273Y63127D02*
X249833Y63127D01*
X245508Y13208D02*
X211692Y13208D01*
D13*
X187960Y50800D03*
D14*
X173101Y90726D02*
X166926Y96901D01*
X132366Y96901D01*
X99806Y129461D01*
X99806Y139700D01*
D13*
X99806Y139700D03*
X60960Y222377D03*
D14*
X69723Y222377D01*
X78740Y213360D01*
X173101Y59436D02*
X175260Y57277D01*
X177943Y57277D01*
X179340Y55880D01*
X185420Y55880D01*
X187960Y53340D01*
X187960Y50800D01*
X173101Y59436D02*
X173101Y90726D01*
X103283Y210820D02*
X100743Y213360D01*
D13*
X104140Y186690D03*
D14*
X103283Y201343D02*
X103283Y210820D01*
X103283Y201343D02*
X100203Y198263D01*
X100203Y192897D01*
X104140Y188960D02*
X104140Y186690D01*
X104140Y188960D02*
X100203Y192897D01*
X100743Y213360D02*
X78740Y213360D01*
D13*
X159121Y58420D03*
D14*
X169037Y83677D02*
X169037Y89043D01*
X165243Y92837D01*
X159121Y73761D02*
X159121Y58420D01*
X159121Y73761D02*
X169037Y83677D01*
X165243Y92837D02*
X130683Y92837D01*
X93329Y130191D02*
X93329Y149860D01*
D13*
X93329Y149860D03*
D14*
X93329Y130191D02*
X130683Y92837D01*
D13*
X294005Y187960D03*
X226060Y93839D03*
X162560Y86360D03*
D14*
X294005Y187325D02*
X294005Y187960D01*
X294005Y187325D02*
X291592Y184912D01*
X291592Y165746D02*
X283326Y157480D01*
X258572Y157480D02*
X250952Y149860D01*
X241443Y92583D02*
X236077Y92583D01*
X234821Y93839D01*
X226060Y93839D01*
X250952Y102092D02*
X250952Y149860D01*
X250952Y102092D02*
X241443Y92583D01*
X291592Y165746D02*
X291592Y184912D01*
X283326Y157480D02*
X258572Y157480D01*
X162560Y86360D02*
X160147Y88773D01*
D13*
X86360Y134620D03*
D14*
X89265Y128508D02*
X129000Y88773D01*
X89265Y128508D02*
X89265Y131715D01*
X86360Y134620D01*
X129000Y88773D02*
X160147Y88773D01*
M02*
