G04 EAGLE Gerber RS-274X export*
G75*
%MOMM*%
%FSLAX34Y34*%
%LPD*%
%IN*%
%IPPOS*%
%AMOC8*
5,1,8,0,0,1.08239X$1,22.5*%
G01*
%ADD10C,0.254000*%


D10*
X0Y0D02*
X279971Y0D01*
X282875Y44D01*
X285764Y340D01*
X288616Y887D01*
X291410Y1681D01*
X294123Y2715D01*
X296737Y3982D01*
X299230Y5472D01*
X301584Y7173D01*
X303780Y9073D01*
X305803Y11157D01*
X307636Y13410D01*
X309266Y15813D01*
X310680Y18350D01*
X311867Y21000D01*
X312820Y23744D01*
X313529Y26560D01*
X313990Y29427D01*
X314200Y32324D01*
X314200Y215466D01*
X313953Y219228D01*
X313378Y222953D01*
X312482Y226614D01*
X311269Y230183D01*
X309750Y233633D01*
X307937Y236937D01*
X305842Y240070D01*
X303482Y243009D01*
X300875Y245732D01*
X298040Y248216D01*
X295000Y250444D01*
X291777Y252399D01*
X288396Y254065D01*
X284883Y255431D01*
X281264Y256485D01*
X277567Y257219D01*
X273820Y257629D01*
X270051Y257710D01*
X42929Y257710D01*
X39135Y257489D01*
X35374Y256938D01*
X31676Y256061D01*
X28068Y254866D01*
X24578Y253360D01*
X21232Y251556D01*
X18057Y249467D01*
X15075Y247110D01*
X12311Y244501D01*
X9784Y241662D01*
X7514Y238613D01*
X5519Y235378D01*
X3813Y231981D01*
X2410Y228449D01*
X1320Y224808D01*
X552Y221085D01*
X110Y217310D01*
X0Y213511D01*
X0Y0D01*
X45425Y50829D02*
X45370Y50480D01*
X45260Y50143D01*
X45100Y49827D01*
X44891Y49541D01*
X44641Y49290D01*
X44354Y49082D01*
X44039Y48921D01*
X43702Y48812D01*
X43352Y48756D01*
X42998Y48756D01*
X42648Y48812D01*
X42312Y48921D01*
X41996Y49082D01*
X41709Y49290D01*
X41459Y49541D01*
X41251Y49827D01*
X41090Y50143D01*
X40981Y50480D01*
X40925Y50829D01*
X40925Y51184D01*
X40981Y51533D01*
X41090Y51870D01*
X41251Y52186D01*
X41459Y52472D01*
X41709Y52723D01*
X41996Y52931D01*
X42312Y53092D01*
X42648Y53201D01*
X42998Y53256D01*
X43352Y53256D01*
X43702Y53201D01*
X44039Y53092D01*
X44354Y52931D01*
X44641Y52723D01*
X44891Y52472D01*
X45100Y52186D01*
X45260Y51870D01*
X45370Y51533D01*
X45425Y51184D01*
X45425Y50829D01*
X285855Y219934D02*
X285800Y219584D01*
X285690Y219248D01*
X285529Y218932D01*
X285321Y218646D01*
X285071Y218395D01*
X284784Y218187D01*
X284469Y218026D01*
X284132Y217917D01*
X283782Y217861D01*
X283428Y217861D01*
X283078Y217917D01*
X282741Y218026D01*
X282426Y218187D01*
X282139Y218395D01*
X281889Y218646D01*
X281681Y218932D01*
X281520Y219248D01*
X281410Y219584D01*
X281355Y219934D01*
X281355Y220288D01*
X281410Y220638D01*
X281520Y220975D01*
X281681Y221291D01*
X281889Y221577D01*
X282139Y221828D01*
X282426Y222036D01*
X282741Y222196D01*
X283078Y222306D01*
X283428Y222361D01*
X283782Y222361D01*
X284132Y222306D01*
X284469Y222196D01*
X284784Y222036D01*
X285071Y221828D01*
X285321Y221577D01*
X285529Y221291D01*
X285690Y220975D01*
X285800Y220638D01*
X285855Y220288D01*
X285855Y219934D01*
M02*
