G04 EAGLE Gerber RS-274X export*
G75*
%MOMM*%
%FSLAX34Y34*%
%LPD*%
%IN*%
%IPPOS*%
%AMOC8*
5,1,8,0,0,1.08239X$1,22.5*%
G01*
%ADD10C,0.254000*%


D10*
X0Y0D02*
X279971Y0D01*
X282733Y121D01*
X285474Y481D01*
X288173Y1080D01*
X290809Y1911D01*
X293363Y2969D01*
X295815Y4246D01*
X298147Y5731D01*
X300340Y7414D01*
X302379Y9282D01*
X304246Y11320D01*
X305929Y13513D01*
X307414Y15845D01*
X308691Y18297D01*
X309749Y20851D01*
X310580Y23487D01*
X311179Y26186D01*
X311539Y28927D01*
X311660Y31689D01*
X311660Y214831D01*
X311502Y218458D01*
X311028Y222057D01*
X310242Y225600D01*
X309151Y229062D01*
X307762Y232416D01*
X306086Y235636D01*
X304135Y238697D01*
X301925Y241577D01*
X299473Y244253D01*
X296797Y246705D01*
X293917Y248915D01*
X290856Y250866D01*
X287636Y252542D01*
X284282Y253931D01*
X280820Y255022D01*
X277277Y255808D01*
X273678Y256282D01*
X270051Y256440D01*
X42929Y256440D01*
X39188Y256277D01*
X35475Y255788D01*
X31818Y254977D01*
X28247Y253851D01*
X24787Y252418D01*
X21465Y250689D01*
X18306Y248676D01*
X15335Y246396D01*
X12574Y243866D01*
X10044Y241105D01*
X7764Y238134D01*
X5751Y234975D01*
X4022Y231653D01*
X2589Y228193D01*
X1463Y224622D01*
X652Y220965D01*
X163Y217252D01*
X0Y213511D01*
X0Y0D01*
X45425Y50829D02*
X45370Y50480D01*
X45260Y50143D01*
X45100Y49827D01*
X44891Y49541D01*
X44641Y49290D01*
X44354Y49082D01*
X44039Y48921D01*
X43702Y48812D01*
X43352Y48756D01*
X42998Y48756D01*
X42648Y48812D01*
X42312Y48921D01*
X41996Y49082D01*
X41709Y49290D01*
X41459Y49541D01*
X41251Y49827D01*
X41090Y50143D01*
X40981Y50480D01*
X40925Y50829D01*
X40925Y51184D01*
X40981Y51533D01*
X41090Y51870D01*
X41251Y52186D01*
X41459Y52472D01*
X41709Y52723D01*
X41996Y52931D01*
X42312Y53092D01*
X42648Y53201D01*
X42998Y53256D01*
X43352Y53256D01*
X43702Y53201D01*
X44039Y53092D01*
X44354Y52931D01*
X44641Y52723D01*
X44891Y52472D01*
X45100Y52186D01*
X45260Y51870D01*
X45370Y51533D01*
X45425Y51184D01*
X45425Y50829D01*
X285855Y219934D02*
X285800Y219584D01*
X285690Y219248D01*
X285529Y218932D01*
X285321Y218646D01*
X285071Y218395D01*
X284784Y218187D01*
X284469Y218026D01*
X284132Y217917D01*
X283782Y217861D01*
X283428Y217861D01*
X283078Y217917D01*
X282741Y218026D01*
X282426Y218187D01*
X282139Y218395D01*
X281889Y218646D01*
X281681Y218932D01*
X281520Y219248D01*
X281410Y219584D01*
X281355Y219934D01*
X281355Y220288D01*
X281410Y220638D01*
X281520Y220975D01*
X281681Y221291D01*
X281889Y221577D01*
X282139Y221828D01*
X282426Y222036D01*
X282741Y222196D01*
X283078Y222306D01*
X283428Y222361D01*
X283782Y222361D01*
X284132Y222306D01*
X284469Y222196D01*
X284784Y222036D01*
X285071Y221828D01*
X285321Y221577D01*
X285529Y221291D01*
X285690Y220975D01*
X285800Y220638D01*
X285855Y220288D01*
X285855Y219934D01*
M02*
