G04 EAGLE Gerber RS-274X export*
G75*
%MOMM*%
%FSLAX34Y34*%
%LPD*%
%INSilkscreen Bottom*%
%IPPOS*%
%AMOC8*
5,1,8,0,0,1.08239X$1,22.5*%
G01*
%ADD10R,1.013463X0.063500*%
%ADD11R,1.780538X0.063500*%
%ADD12R,2.796538X0.063500*%
%ADD13R,1.272538X0.063500*%
%ADD14R,0.949963X0.063500*%
%ADD15R,0.886463X0.063500*%
%ADD16R,0.822963X0.063500*%
%ADD17R,0.759463X0.063500*%
%ADD18R,0.695963X0.063500*%
%ADD19R,0.701037X0.063500*%
%ADD20R,0.637537X0.063500*%
%ADD21R,0.508000X0.063500*%
%ADD22R,0.510537X0.063500*%
%ADD23R,0.571500X0.063500*%
%ADD24R,0.568963X0.063500*%
%ADD25R,0.444500X0.063500*%
%ADD26R,0.825500X0.063500*%
%ADD27R,0.127000X0.063500*%
%ADD28R,0.447038X0.063500*%
%ADD29R,0.190500X0.063500*%
%ADD30R,0.381000X0.063500*%
%ADD31R,0.378463X0.063500*%
%ADD32R,0.441963X0.063500*%
%ADD33R,0.762000X0.063500*%
%ADD34R,1.076963X0.063500*%
%ADD35R,0.383538X0.063500*%
%ADD36R,1.203963X0.063500*%
%ADD37R,0.254000X0.063500*%
%ADD38R,1.460500X0.063500*%
%ADD39R,0.828038X0.063500*%
%ADD40R,0.320038X0.063500*%
%ADD41R,1.907538X0.063500*%
%ADD42R,1.018538X0.063500*%
%ADD43R,2.159000X0.063500*%
%ADD44R,1.651000X0.063500*%
%ADD45R,0.317500X0.063500*%
%ADD46R,0.314963X0.063500*%
%ADD47R,2.349500X0.063500*%
%ADD48R,4.127500X0.063500*%
%ADD49R,4.191000X0.063500*%
%ADD50R,4.257038X0.063500*%
%ADD51R,4.320538X0.063500*%
%ADD52R,4.381500X0.063500*%
%ADD53R,0.251463X0.063500*%
%ADD54R,4.378963X0.063500*%
%ADD55R,4.505962X0.063500*%
%ADD56R,4.569463X0.063500*%
%ADD57R,4.699000X0.063500*%
%ADD58R,4.762500X0.063500*%
%ADD59R,4.826000X0.063500*%
%ADD60R,5.013962X0.063500*%
%ADD61R,5.080000X0.063500*%
%ADD62R,0.256538X0.063500*%
%ADD63R,5.270500X0.063500*%
%ADD64R,5.397500X0.063500*%
%ADD65R,5.524500X0.063500*%
%ADD66R,5.588000X0.063500*%
%ADD67R,5.715000X0.063500*%
%ADD68R,5.778500X0.063500*%
%ADD69R,5.908038X0.063500*%
%ADD70R,2.410462X0.063500*%
%ADD71R,3.302000X0.063500*%
%ADD72R,2.473963X0.063500*%
%ADD73R,3.111500X0.063500*%
%ADD74R,0.193038X0.063500*%
%ADD75R,2.857500X0.063500*%
%ADD76R,2.923538X0.063500*%
%ADD77R,3.048000X0.063500*%
%ADD78R,3.299463X0.063500*%
%ADD79R,2.730500X0.063500*%
%ADD80R,0.187963X0.063500*%
%ADD81R,3.426462X0.063500*%
%ADD82R,1.209037X0.063500*%
%ADD83R,0.955038X0.063500*%
%ADD84R,3.556000X0.063500*%
%ADD85R,0.764538X0.063500*%
%ADD86R,3.810000X0.063500*%
%ADD87R,0.891538X0.063500*%
%ADD88R,3.934462X0.063500*%
%ADD89R,4.061463X0.063500*%
%ADD90R,4.251963X0.063500*%
%ADD91R,0.952500X0.063500*%
%ADD92R,0.574037X0.063500*%
%ADD93R,4.315463X0.063500*%
%ADD94R,2.854963X0.063500*%
%ADD95R,1.267463X0.063500*%
%ADD96R,2.540000X0.063500*%
%ADD97R,3.238500X0.063500*%
%ADD98R,3.619500X0.063500*%
%ADD99R,1.778000X0.063500*%
%ADD100R,3.807463X0.063500*%
%ADD101R,1.714500X0.063500*%
%ADD102R,4.318000X0.063500*%
%ADD103R,4.508500X0.063500*%
%ADD104R,1.524000X0.063500*%
%ADD105R,3.429000X0.063500*%
%ADD106R,0.889000X0.063500*%
%ADD107R,2.984500X0.063500*%
%ADD108R,1.397000X0.063500*%
%ADD109R,1.270000X0.063500*%
%ADD110R,1.587500X0.063500*%
%ADD111R,3.172462X0.063500*%
%ADD112R,3.495038X0.063500*%
%ADD113R,0.698500X0.063500*%
%ADD114R,3.622038X0.063500*%
%ADD115R,0.635000X0.063500*%
%ADD116R,3.683000X0.063500*%
%ADD117R,1.841500X0.063500*%
%ADD118R,5.651500X0.063500*%
%ADD119R,5.334000X0.063500*%
%ADD120R,5.143500X0.063500*%
%ADD121R,5.016500X0.063500*%
%ADD122R,4.953000X0.063500*%
%ADD123R,1.079500X0.063500*%
%ADD124R,1.206500X0.063500*%
%ADD125R,4.635500X0.063500*%
%ADD126R,4.445000X0.063500*%
%ADD127R,1.145538X0.063500*%
%ADD128R,1.968500X0.063500*%
%ADD129R,1.016000X0.063500*%
%ADD130R,1.838963X0.063500*%
%ADD131R,1.330963X0.063500*%
%ADD132R,1.711963X0.063500*%
%ADD133R,1.905000X0.063500*%
%ADD134R,1.143000X0.063500*%
%ADD135R,2.032000X0.063500*%
%ADD136R,2.156462X0.063500*%
%ADD137R,2.286000X0.063500*%
%ADD138R,2.413000X0.063500*%
%ADD139R,2.794000X0.063500*%
%ADD140R,1.648463X0.063500*%
%ADD141R,1.457963X0.063500*%
%ADD142R,7.871463X0.063500*%
%ADD143R,8.061962X0.063500*%
%ADD144R,1.965963X0.063500*%
%ADD145R,8.255000X0.063500*%
%ADD146R,2.095500X0.063500*%
%ADD147R,8.445500X0.063500*%
%ADD148R,2.219963X0.063500*%
%ADD149R,8.572500X0.063500*%
%ADD150R,8.763000X0.063500*%
%ADD151R,8.890000X0.063500*%
%ADD152R,9.017000X0.063500*%
%ADD153R,2.664462X0.063500*%
%ADD154R,9.144000X0.063500*%
%ADD155R,9.204963X0.063500*%
%ADD156R,9.268463X0.063500*%
%ADD157R,1.333500X0.063500*%
%ADD158R,9.331963X0.063500*%
%ADD159R,9.395463X0.063500*%
%ADD160R,1.140463X0.063500*%
%ADD161R,7.493000X0.063500*%
%ADD162R,7.239000X0.063500*%
%ADD163R,7.048500X0.063500*%
%ADD164R,6.860538X0.063500*%
%ADD165R,6.733538X0.063500*%
%ADD166R,6.479538X0.063500*%
%ADD167R,6.413500X0.063500*%
%ADD168R,6.286500X0.063500*%
%ADD169R,1.082037X0.063500*%
%ADD170R,6.093463X0.063500*%
%ADD171R,6.029962X0.063500*%
%ADD172R,1.336037X0.063500*%
%ADD173R,5.966463X0.063500*%
%ADD174R,1.399538X0.063500*%
%ADD175R,5.902963X0.063500*%
%ADD176R,5.775963X0.063500*%
%ADD177R,5.712462X0.063500*%
%ADD178R,5.458463X0.063500*%
%ADD179R,5.394963X0.063500*%
%ADD180R,0.063500X0.063500*%
%ADD181R,5.207000X0.063500*%
%ADD182R,5.146038X0.063500*%
%ADD183R,5.082537X0.063500*%
%ADD184R,5.140963X0.063500*%
%ADD185R,5.204462X0.063500*%
%ADD186R,5.209538X0.063500*%
%ADD187R,0.129537X0.063500*%
%ADD188R,5.077463X0.063500*%
%ADD189R,4.950463X0.063500*%
%ADD190R,4.886963X0.063500*%
%ADD191R,0.124463X0.063500*%
%ADD192R,4.823463X0.063500*%
%ADD193R,4.696462X0.063500*%
%ADD194R,4.632963X0.063500*%
%ADD195R,4.572000X0.063500*%
%ADD196R,4.447538X0.063500*%
%ADD197R,4.384037X0.063500*%
%ADD198R,4.188462X0.063500*%
%ADD199R,3.997963X0.063500*%
%ADD200R,3.746500X0.063500*%
%ADD201R,3.616963X0.063500*%
%ADD202R,3.489963X0.063500*%
%ADD203R,3.362963X0.063500*%
%ADD204R,3.045463X0.063500*%
%ADD205R,2.981963X0.063500*%
%ADD206R,2.667000X0.063500*%
%ADD207R,4.000500X0.063500*%
%ADD208R,1.521463X0.063500*%
%ADD209R,3.304538X0.063500*%
%ADD210R,3.114038X0.063500*%
%ADD211R,0.505463X0.063500*%
%ADD212R,2.603500X0.063500*%
%ADD213R,2.161538X0.063500*%
%ADD214R,2.476500X0.063500*%
%ADD215R,4.955538X0.063500*%
%ADD216R,4.124963X0.063500*%
%ADD217R,3.743963X0.063500*%
%ADD218R,3.241038X0.063500*%
%ADD219R,2.415538X0.063500*%
%ADD220C,0.050800*%


D10*
X147003Y44450D03*
D11*
X147003Y45085D03*
D12*
X147003Y45720D03*
D13*
X136843Y46355D03*
X157798Y46355D03*
D14*
X132715Y46990D03*
D15*
X161608Y46990D03*
D16*
X129540Y47625D03*
X165100Y47625D03*
D17*
X127318Y48260D03*
D18*
X167005Y48260D03*
D19*
X125095Y48895D03*
D20*
X169228Y48895D03*
D21*
X122885Y49530D03*
D22*
X171768Y49530D03*
D23*
X121298Y50165D03*
D22*
X173038Y50165D03*
D24*
X119380Y50800D03*
D23*
X145428Y50800D03*
D21*
X174955Y50800D03*
D25*
X118123Y51435D03*
D26*
X143523Y51435D03*
D21*
X176225Y51435D03*
D22*
X116523Y52070D03*
D20*
X140018Y52070D03*
D27*
X147015Y52070D03*
D21*
X177495Y52070D03*
D28*
X114935Y52705D03*
D22*
X136843Y52705D03*
D29*
X146698Y52705D03*
D25*
X179083Y52705D03*
D30*
X113995Y53340D03*
D24*
X135255Y53340D03*
D27*
X146380Y53340D03*
D31*
X180023Y53340D03*
D32*
X113030Y53975D03*
D33*
X133655Y53975D03*
D29*
X146063Y53975D03*
D32*
X181610Y53975D03*
X111760Y54610D03*
D16*
X132715Y54610D03*
D29*
X146063Y54610D03*
D31*
X182563Y54610D03*
X110808Y55245D03*
D14*
X131445Y55245D03*
D29*
X145428Y55245D03*
D30*
X183820Y55245D03*
X109550Y55880D03*
D34*
X130810Y55880D03*
D29*
X145428Y55880D03*
D35*
X185103Y55880D03*
X108268Y56515D03*
D36*
X130175Y56515D03*
D37*
X145110Y56515D03*
D35*
X185738Y56515D03*
X107633Y57150D03*
D38*
X129527Y57150D03*
D37*
X145110Y57150D03*
D39*
X156210Y57150D03*
D35*
X187008Y57150D03*
D40*
X106680Y57785D03*
D41*
X131128Y57785D03*
D37*
X145110Y57785D03*
D42*
X155258Y57785D03*
D40*
X187960Y57785D03*
D30*
X105740Y58420D03*
D43*
X130505Y58420D03*
D44*
X152095Y58420D03*
D45*
X188608Y58420D03*
D46*
X104775Y59055D03*
D47*
X130188Y59055D03*
D44*
X151460Y59055D03*
D45*
X189878Y59055D03*
D31*
X103823Y59690D03*
D48*
X138443Y59690D03*
D45*
X190513Y59690D03*
X102883Y60325D03*
D49*
X137490Y60325D03*
D45*
X191148Y60325D03*
X102248Y60960D03*
D50*
X136525Y60960D03*
D37*
X192100Y60960D03*
D35*
X101283Y61595D03*
D50*
X135890Y61595D03*
D45*
X193053Y61595D03*
D40*
X100330Y62230D03*
D51*
X134938Y62230D03*
D46*
X193675Y62230D03*
D45*
X99708Y62865D03*
D51*
X134303Y62865D03*
D37*
X194640Y62865D03*
D45*
X99073Y63500D03*
D52*
X133363Y63500D03*
D53*
X195263Y63500D03*
D45*
X98438Y64135D03*
D54*
X132715Y64135D03*
D37*
X195910Y64135D03*
D46*
X97790Y64770D03*
D55*
X132080Y64770D03*
D37*
X196520Y64770D03*
D45*
X97142Y65405D03*
D55*
X131445Y65405D03*
D37*
X197180Y65405D03*
D40*
X96520Y66040D03*
D56*
X131128Y66040D03*
D37*
X197790Y66040D03*
D45*
X95898Y66675D03*
D57*
X130480Y66675D03*
D37*
X198450Y66675D03*
D45*
X95263Y67310D03*
D58*
X130162Y67310D03*
D37*
X199060Y67310D03*
D45*
X94628Y67945D03*
D59*
X129845Y67945D03*
D37*
X199720Y67945D03*
D46*
X93980Y68580D03*
D60*
X129540Y68580D03*
D37*
X200330Y68580D03*
D46*
X93345Y69215D03*
D61*
X129870Y69215D03*
D37*
X200990Y69215D03*
D62*
X92393Y69850D03*
D63*
X129553Y69850D03*
D62*
X201613Y69850D03*
D40*
X92075Y70485D03*
D64*
X129553Y70485D03*
D37*
X202260Y70485D03*
D45*
X91453Y71120D03*
D65*
X129553Y71120D03*
D45*
X202578Y71120D03*
D37*
X91135Y71755D03*
D66*
X129235Y71755D03*
D29*
X203213Y71755D03*
D37*
X90500Y72390D03*
D67*
X129235Y72390D03*
D29*
X203848Y72390D03*
D53*
X89853Y73025D03*
D68*
X128918Y73025D03*
D37*
X204165Y73025D03*
D53*
X89218Y73660D03*
D69*
X128905Y73660D03*
D37*
X204800Y73660D03*
D53*
X89218Y74295D03*
D69*
X128905Y74295D03*
D29*
X205118Y74295D03*
D62*
X88583Y74930D03*
D70*
X110173Y74930D03*
D71*
X141935Y74930D03*
D29*
X205753Y74930D03*
D62*
X87948Y75565D03*
D72*
X110490Y75565D03*
D73*
X143523Y75565D03*
D53*
X206058Y75565D03*
D74*
X87630Y76200D03*
D75*
X111773Y76200D03*
D76*
X144463Y76200D03*
D37*
X206705Y76200D03*
X87325Y76835D03*
D77*
X112090Y76835D03*
D12*
X145098Y76835D03*
D29*
X207023Y76835D03*
D37*
X86690Y77470D03*
D78*
X112713Y77470D03*
D79*
X146063Y77470D03*
D53*
X207328Y77470D03*
D80*
X86360Y78105D03*
D81*
X113348Y78105D03*
D82*
X139700Y78105D03*
D83*
X154940Y78105D03*
D37*
X207975Y78105D03*
D53*
X86043Y78740D03*
D84*
X113335Y78740D03*
D42*
X140018Y78740D03*
D85*
X155893Y78740D03*
D74*
X208280Y78740D03*
D53*
X85408Y79375D03*
D86*
X113970Y79375D03*
D87*
X140653Y79375D03*
D19*
X156210Y79375D03*
D37*
X208585Y79375D03*
D29*
X85103Y80010D03*
D88*
X113983Y80010D03*
D83*
X141605Y80010D03*
D19*
X156845Y80010D03*
D37*
X209245Y80010D03*
D62*
X84773Y80645D03*
D89*
X114618Y80645D03*
D83*
X142875Y80645D03*
D20*
X157163Y80645D03*
D74*
X209550Y80645D03*
X84455Y81280D03*
D90*
X114935Y81280D03*
D91*
X144158Y81280D03*
D92*
X157480Y81280D03*
D37*
X209855Y81280D03*
X84150Y81915D03*
D93*
X115253Y81915D03*
D10*
X144463Y81915D03*
D92*
X157480Y81915D03*
D80*
X210185Y81915D03*
D37*
X83515Y82550D03*
D94*
X107315Y82550D03*
D95*
X131763Y82550D03*
D10*
X145733Y82550D03*
D92*
X157480Y82550D03*
D74*
X210820Y82550D03*
D29*
X83198Y83185D03*
D96*
X105740Y83185D03*
D26*
X133972Y83185D03*
D10*
X146368Y83185D03*
D20*
X157163Y83185D03*
D74*
X210820Y83185D03*
D62*
X82868Y83820D03*
D97*
X108598Y83820D03*
D33*
X135585Y83820D03*
D10*
X147003Y83820D03*
D19*
X156845Y83820D03*
D80*
X211455Y83820D03*
D29*
X82537Y84455D03*
D98*
X109868Y84455D03*
D92*
X137160Y84455D03*
D99*
X152095Y84455D03*
D80*
X211455Y84455D03*
D53*
X82233Y85090D03*
D100*
X110808Y85090D03*
D28*
X138430Y85090D03*
D101*
X152413Y85090D03*
D37*
X211785Y85090D03*
D29*
X81928Y85725D03*
D49*
X112065Y85725D03*
D28*
X139700Y85725D03*
D44*
X152730Y85725D03*
D37*
X212395Y85725D03*
X81610Y86360D03*
D102*
X112700Y86360D03*
D45*
X140983Y86360D03*
D44*
X153365Y86360D03*
D80*
X212725Y86360D03*
D29*
X81293Y86995D03*
D103*
X113652Y86995D03*
D37*
X141935Y86995D03*
D104*
X154000Y86995D03*
D80*
X212725Y86995D03*
D29*
X81293Y87630D03*
D57*
X113970Y87630D03*
D27*
X143205Y87630D03*
D38*
X154318Y87630D03*
D74*
X213360Y87630D03*
D29*
X80632Y88265D03*
D59*
X114605Y88265D03*
D27*
X143840Y88265D03*
D38*
X154318Y88265D03*
D74*
X213360Y88265D03*
D29*
X80632Y88900D03*
D105*
X107010Y88900D03*
D106*
X136220Y88900D03*
D27*
X145110Y88900D03*
D38*
X154953Y88900D03*
D80*
X213995Y88900D03*
D29*
X80023Y89535D03*
D107*
X104788Y89535D03*
D22*
X139383Y89535D03*
D27*
X145745Y89535D03*
D108*
X155270Y89535D03*
D80*
X213995Y89535D03*
D29*
X80023Y90170D03*
D75*
X104153Y90170D03*
D28*
X140970Y90170D03*
D27*
X147015Y90170D03*
D38*
X155588Y90170D03*
D74*
X214630Y90170D03*
D37*
X79705Y90805D03*
D14*
X94615Y90805D03*
D44*
X109550Y90805D03*
D109*
X125425Y90805D03*
D37*
X143205Y90805D03*
D110*
X154953Y90805D03*
D74*
X214630Y90805D03*
D29*
X79388Y91440D03*
D26*
X93993Y91440D03*
D111*
X119698Y91440D03*
D29*
X144793Y91440D03*
D44*
X155270Y91440D03*
D74*
X214630Y91440D03*
D62*
X79058Y92075D03*
D33*
X93675Y92075D03*
D112*
X122555Y92075D03*
D99*
X154635Y92075D03*
D37*
X214935Y92075D03*
D62*
X79058Y92710D03*
D113*
X93358Y92710D03*
D114*
X124460Y92710D03*
D99*
X155270Y92710D03*
D80*
X215265Y92710D03*
D62*
X79058Y93345D03*
D115*
X93040Y93345D03*
D116*
X126060Y93345D03*
D117*
X155588Y93345D03*
D37*
X215595Y93345D03*
D40*
X78740Y93980D03*
D115*
X93040Y93980D03*
D118*
X136538Y93980D03*
D74*
X215900Y93980D03*
D37*
X78410Y94615D03*
D115*
X93040Y94615D03*
D66*
X136855Y94615D03*
D74*
X215900Y94615D03*
D37*
X78410Y95250D03*
D113*
X92723Y95250D03*
D64*
X136538Y95250D03*
D37*
X216205Y95250D03*
X78410Y95885D03*
D113*
X92723Y95885D03*
D119*
X136855Y95885D03*
D80*
X216535Y95885D03*
D46*
X78105Y96520D03*
D33*
X93040Y96520D03*
D63*
X136538Y96520D03*
D80*
X216535Y96520D03*
D46*
X78105Y97155D03*
D113*
X93358Y97155D03*
D120*
X136538Y97155D03*
D80*
X216535Y97155D03*
D46*
X78105Y97790D03*
D33*
X93675Y97790D03*
D121*
X136538Y97790D03*
D74*
X217170Y97790D03*
D31*
X77788Y98425D03*
D26*
X93993Y98425D03*
D121*
X136538Y98425D03*
D74*
X217170Y98425D03*
D31*
X77788Y99060D03*
D14*
X94615Y99060D03*
D122*
X136220Y99060D03*
D74*
X217170Y99060D03*
D31*
X77788Y99695D03*
D123*
X95263Y99695D03*
D59*
X136220Y99695D03*
D29*
X217818Y99695D03*
D31*
X77788Y100330D03*
D124*
X95898Y100330D03*
D58*
X135903Y100330D03*
D29*
X217818Y100330D03*
D32*
X77470Y100965D03*
D124*
X95898Y100965D03*
D57*
X135585Y100965D03*
D29*
X217818Y100965D03*
D32*
X77470Y101600D03*
D109*
X96215Y101600D03*
D125*
X135268Y101600D03*
D29*
X217818Y101600D03*
D21*
X77800Y102235D03*
D109*
X96215Y102235D03*
D103*
X134633Y102235D03*
D29*
X217818Y102235D03*
D21*
X77800Y102870D03*
D82*
X96520Y102870D03*
D126*
X134315Y102870D03*
D37*
X218135Y102870D03*
D92*
X77470Y103505D03*
D127*
X96838Y103505D03*
D102*
X133680Y103505D03*
D74*
X218440Y103505D03*
D92*
X77470Y104140D03*
D127*
X96838Y104140D03*
D128*
X121933Y104140D03*
D44*
X145720Y104140D03*
D74*
X218440Y104140D03*
D20*
X77788Y104775D03*
D129*
X96850Y104775D03*
D130*
X121285Y104775D03*
D131*
X146050Y104775D03*
D74*
X218440Y104775D03*
D20*
X77788Y105410D03*
D91*
X97168Y105410D03*
D132*
X120650Y105410D03*
D15*
X146368Y105410D03*
D74*
X218440Y105410D03*
D20*
X77788Y106045D03*
D26*
X97168Y106045D03*
D101*
X120028Y106045D03*
D30*
X146380Y106045D03*
D62*
X218758Y106045D03*
D17*
X77788Y106680D03*
D23*
X97168Y106680D03*
D44*
X119710Y106680D03*
D29*
X219088Y106680D03*
D17*
X77788Y107315D03*
D29*
X97168Y107315D03*
D101*
X119393Y107315D03*
D29*
X219088Y107315D03*
D26*
X78118Y107950D03*
D44*
X119075Y107950D03*
D29*
X219088Y107950D03*
D26*
X78118Y108585D03*
D44*
X119075Y108585D03*
D29*
X219088Y108585D03*
D106*
X78435Y109220D03*
D101*
X118758Y109220D03*
D29*
X219088Y109220D03*
D14*
X78740Y109855D03*
D99*
X118440Y109855D03*
D29*
X219088Y109855D03*
D14*
X78740Y110490D03*
D117*
X118758Y110490D03*
D29*
X219723Y110490D03*
D129*
X79070Y111125D03*
D133*
X118440Y111125D03*
D29*
X219723Y111125D03*
D134*
X79705Y111760D03*
D135*
X118440Y111760D03*
D29*
X219723Y111760D03*
D134*
X79705Y112395D03*
D136*
X118428Y112395D03*
D29*
X219723Y112395D03*
D95*
X80328Y113030D03*
D137*
X118415Y113030D03*
D29*
X219723Y113030D03*
D131*
X80645Y113665D03*
D138*
X118415Y113665D03*
D29*
X219723Y113665D03*
D38*
X81293Y114300D03*
D139*
X119050Y114300D03*
D29*
X219723Y114300D03*
D110*
X81928Y114935D03*
D111*
X120333Y114935D03*
D29*
X219723Y114935D03*
D140*
X82233Y115570D03*
D116*
X120980Y115570D03*
D26*
X200038Y115570D03*
D29*
X219723Y115570D03*
D128*
X83198Y116205D03*
D102*
X122250Y116205D03*
D124*
X200038Y116205D03*
D29*
X219723Y116205D03*
D137*
X84785Y116840D03*
D122*
X122250Y116840D03*
D141*
X200025Y116840D03*
D29*
X219723Y116840D03*
D142*
X112713Y117475D03*
D132*
X200025Y117475D03*
D29*
X219723Y117475D03*
D143*
X113665Y118110D03*
D144*
X200025Y118110D03*
D29*
X219723Y118110D03*
D145*
X114630Y118745D03*
D146*
X200038Y118745D03*
D29*
X219723Y118745D03*
D147*
X116218Y119380D03*
D148*
X200025Y119380D03*
D29*
X219723Y119380D03*
D149*
X116853Y120015D03*
D47*
X200038Y120015D03*
D29*
X219723Y120015D03*
D150*
X117805Y120650D03*
D70*
X200343Y120650D03*
D29*
X219723Y120650D03*
D151*
X118440Y121285D03*
D96*
X200355Y121285D03*
D29*
X219723Y121285D03*
D152*
X119075Y121920D03*
D153*
X200343Y121920D03*
D29*
X219723Y121920D03*
D154*
X119710Y122555D03*
D79*
X200012Y122555D03*
D29*
X219723Y122555D03*
D155*
X120015Y123190D03*
D12*
X200343Y123190D03*
D29*
X219723Y123190D03*
D156*
X120333Y123825D03*
D157*
X192392Y123825D03*
D38*
X207023Y123825D03*
D29*
X219723Y123825D03*
D158*
X120650Y124460D03*
D123*
X191122Y124460D03*
D36*
X208915Y124460D03*
D29*
X219723Y124460D03*
D159*
X120968Y125095D03*
D129*
X190170Y125095D03*
D160*
X209233Y125095D03*
D29*
X219723Y125095D03*
D159*
X120968Y125730D03*
D83*
X189865Y125730D03*
D123*
X210198Y125730D03*
D29*
X219088Y125730D03*
D159*
X120968Y126365D03*
D83*
X189865Y126365D03*
D129*
X210515Y126365D03*
D29*
X219088Y126365D03*
D159*
X120968Y127000D03*
D87*
X189548Y127000D03*
D129*
X210515Y127000D03*
D29*
X219088Y127000D03*
D161*
X111455Y127635D03*
D38*
X160642Y127635D03*
D87*
X189548Y127635D03*
D10*
X211138Y127635D03*
D29*
X219088Y127635D03*
D162*
X110185Y128270D03*
D36*
X161290Y128270D03*
D87*
X189548Y128270D03*
D14*
X211455Y128270D03*
D29*
X219088Y128270D03*
D163*
X109233Y128905D03*
D10*
X161608Y128905D03*
D87*
X189548Y128905D03*
D14*
X211455Y128905D03*
D29*
X219088Y128905D03*
D164*
X108903Y129540D03*
D17*
X162243Y129540D03*
D87*
X189548Y129540D03*
D83*
X212090Y129540D03*
D29*
X219088Y129540D03*
D165*
X108268Y130175D03*
D25*
X161938Y130175D03*
D87*
X189548Y130175D03*
D83*
X212090Y130175D03*
D74*
X218440Y130175D03*
D166*
X106998Y130810D03*
D83*
X189865Y130810D03*
X212090Y130810D03*
D74*
X218440Y130810D03*
D167*
X106667Y131445D03*
D83*
X189865Y131445D03*
X212090Y131445D03*
D74*
X218440Y131445D03*
D168*
X106032Y132080D03*
D169*
X190500Y132080D03*
D82*
X213360Y132080D03*
D170*
X105728Y132715D03*
D82*
X191135Y132715D03*
D134*
X213690Y132715D03*
D171*
X105410Y133350D03*
D172*
X191770Y133350D03*
D123*
X213373Y133350D03*
D173*
X105093Y133985D03*
D174*
X192723Y133985D03*
D123*
X213373Y133985D03*
D175*
X104775Y134620D03*
D172*
X193040Y134620D03*
D123*
X213373Y134620D03*
D176*
X104775Y135255D03*
D108*
X193345Y135255D03*
D123*
X213373Y135255D03*
D177*
X104458Y135890D03*
D131*
X193675Y135890D03*
D129*
X213055Y135890D03*
D118*
X104153Y136525D03*
D157*
X194323Y136525D03*
D129*
X213055Y136525D03*
D66*
X103835Y137160D03*
D109*
X194640Y137160D03*
D129*
X213055Y137160D03*
D65*
X104153Y137795D03*
D124*
X194958Y137795D03*
D14*
X212725Y137795D03*
D178*
X103823Y138430D03*
D34*
X194945Y138430D03*
D14*
X212725Y138430D03*
D179*
X103505Y139065D03*
D106*
X195275Y139065D03*
D14*
X212725Y139065D03*
D63*
X103492Y139700D03*
D180*
X147968Y139700D03*
D26*
X195593Y139700D03*
D14*
X212725Y139700D03*
D181*
X103175Y140335D03*
D53*
X149543Y140335D03*
D74*
X196215Y140335D03*
D14*
X212725Y140335D03*
D181*
X103175Y140970D03*
D45*
X151117Y140970D03*
D83*
X212090Y140970D03*
D182*
X102870Y141605D03*
D180*
X147333Y141605D03*
D22*
X153988Y141605D03*
D83*
X212090Y141605D03*
D183*
X103188Y142240D03*
D27*
X147650Y142240D03*
D28*
X156210Y142240D03*
D106*
X211760Y142240D03*
D120*
X103492Y142875D03*
D80*
X149225Y142875D03*
D106*
X160350Y142875D03*
D29*
X173368Y142875D03*
D106*
X211760Y142875D03*
D184*
X104140Y143510D03*
D27*
X146380Y143510D03*
D29*
X150482Y143510D03*
D14*
X165735Y143510D03*
D106*
X211760Y143510D03*
D185*
X104458Y144145D03*
D27*
X147015Y144145D03*
D37*
X151435Y144145D03*
D39*
X211455Y144145D03*
D185*
X104458Y144780D03*
D27*
X147650Y144780D03*
D37*
X152705Y144780D03*
D106*
X211150Y144780D03*
D185*
X105093Y145415D03*
D27*
X148285Y145415D03*
D62*
X153988Y145415D03*
D16*
X210820Y145415D03*
D185*
X105093Y146050D03*
D80*
X149225Y146050D03*
D40*
X155575Y146050D03*
D16*
X210820Y146050D03*
D186*
X105728Y146685D03*
D80*
X149860Y146685D03*
D37*
X157175Y146685D03*
D15*
X210503Y146685D03*
D186*
X105728Y147320D03*
D29*
X150482Y147320D03*
D45*
X158763Y147320D03*
D26*
X210198Y147320D03*
D120*
X106058Y147955D03*
D37*
X151435Y147955D03*
D30*
X160985Y147955D03*
D106*
X209880Y147955D03*
D181*
X106375Y148590D03*
D29*
X152387Y148590D03*
D45*
X162573Y148590D03*
D16*
X209550Y148590D03*
D181*
X106375Y149225D03*
D29*
X153022Y149225D03*
D32*
X165100Y149225D03*
D15*
X209233Y149225D03*
D120*
X106693Y149860D03*
D29*
X140983Y149860D03*
X153657Y149860D03*
D22*
X169863Y149860D03*
D26*
X208928Y149860D03*
D185*
X106998Y150495D03*
D45*
X140983Y150495D03*
D187*
X154623Y150495D03*
D106*
X208610Y150495D03*
D120*
X107302Y151130D03*
D25*
X141618Y151130D03*
D74*
X155575Y151130D03*
D16*
X208280Y151130D03*
D188*
X107633Y151765D03*
D25*
X142253Y151765D03*
D27*
X156540Y151765D03*
D15*
X207963Y151765D03*
D188*
X107633Y152400D03*
D21*
X143205Y152400D03*
D29*
X157493Y152400D03*
D26*
X207658Y152400D03*
D60*
X107950Y153035D03*
D23*
X143523Y153035D03*
D29*
X158763Y153035D03*
D106*
X207340Y153035D03*
D60*
X107950Y153670D03*
D23*
X144793Y153670D03*
D29*
X159398Y153670D03*
D16*
X207010Y153670D03*
D121*
X108572Y154305D03*
D25*
X145428Y154305D03*
D29*
X160668Y154305D03*
D15*
X206693Y154305D03*
D121*
X108572Y154940D03*
D29*
X161938Y154940D03*
D87*
X206058Y154940D03*
D189*
X108903Y155575D03*
D29*
X163208Y155575D03*
D91*
X205753Y155575D03*
D190*
X109220Y156210D03*
D29*
X164478Y156210D03*
D15*
X205423Y156210D03*
D189*
X109538Y156845D03*
D191*
X166053Y156845D03*
D87*
X204788Y156845D03*
D190*
X109855Y157480D03*
D29*
X168897Y157480D03*
D91*
X204483Y157480D03*
D190*
X109855Y158115D03*
D15*
X204153Y158115D03*
D192*
X110173Y158750D03*
D87*
X203518Y158750D03*
D59*
X110795Y159385D03*
D15*
X202883Y159385D03*
D59*
X110795Y160020D03*
D91*
X202552Y160020D03*
D58*
X111112Y160655D03*
D91*
X201943Y160655D03*
D193*
X111443Y161290D03*
D83*
X201295Y161290D03*
D193*
X112078Y161925D03*
D129*
X200990Y161925D03*
D193*
X112078Y162560D03*
D42*
X200343Y162560D03*
D193*
X112713Y163195D03*
D129*
X199720Y163195D03*
D194*
X113030Y163830D03*
D129*
X199085Y163830D03*
D125*
X113652Y164465D03*
D129*
X198450Y164465D03*
D125*
X114287Y165100D03*
D123*
X198133Y165100D03*
D194*
X114935Y165735D03*
D123*
X197498Y165735D03*
D193*
X115253Y166370D03*
D123*
X196863Y166370D03*
D125*
X116218Y167005D03*
D34*
X196215Y167005D03*
D57*
X116535Y167640D03*
D123*
X195593Y167640D03*
D125*
X116853Y168275D03*
D34*
X194945Y168275D03*
D195*
X117170Y168910D03*
D123*
X194323Y168910D03*
D196*
X117158Y169545D03*
D160*
X193358Y169545D03*
D197*
X117475Y170180D03*
D134*
X192735Y170180D03*
D90*
X117475Y170815D03*
D134*
X192075Y170815D03*
D198*
X117793Y171450D03*
D82*
X191135Y171450D03*
D199*
X118110Y172085D03*
D124*
X190487Y172085D03*
D88*
X117793Y172720D03*
D82*
X189865Y172720D03*
D200*
X118097Y173355D03*
D109*
X188900Y173355D03*
D201*
X118110Y173990D03*
D82*
X187960Y173990D03*
D202*
X118110Y174625D03*
D109*
X187020Y174625D03*
D203*
X118110Y175260D03*
D157*
X186068Y175260D03*
D111*
X118428Y175895D03*
D157*
X185433Y175895D03*
D204*
X118428Y176530D03*
D157*
X184163Y176530D03*
D205*
X118745Y177165D03*
D108*
X183210Y177165D03*
D139*
X119050Y177800D03*
D29*
X146698Y177800D03*
D180*
X150482Y177800D03*
D38*
X182258Y177800D03*
D79*
X119367Y178435D03*
D25*
X145428Y178435D03*
D27*
X150800Y178435D03*
D38*
X180988Y178435D03*
D206*
X120320Y179070D03*
D113*
X144158Y179070D03*
D37*
X150800Y179070D03*
D38*
X179718Y179070D03*
D207*
X127648Y179705D03*
D37*
X150800Y179705D03*
D62*
X154623Y179705D03*
D208*
X178753Y179705D03*
D86*
X127965Y180340D03*
D19*
X153035Y180340D03*
D104*
X177470Y180340D03*
D200*
X128283Y180975D03*
D33*
X152730Y180975D03*
D44*
X176200Y180975D03*
D98*
X128918Y181610D03*
D113*
X152413Y181610D03*
D44*
X174930Y181610D03*
D105*
X129235Y182245D03*
D113*
X152413Y182245D03*
D140*
X173673Y182245D03*
D209*
X129858Y182880D03*
D113*
X151778Y182880D03*
D99*
X171780Y182880D03*
D210*
X130175Y183515D03*
D24*
X151130Y183515D03*
D117*
X170193Y183515D03*
D107*
X130823Y184150D03*
D211*
X150178Y184150D03*
D133*
X168605Y184150D03*
D79*
X131458Y184785D03*
D27*
X147650Y184785D03*
D128*
X166383Y184785D03*
D212*
X132093Y185420D03*
D213*
X164783Y185420D03*
D138*
X132410Y186055D03*
D214*
X161303Y186055D03*
D215*
X147003Y186690D03*
D194*
X147320Y187325D03*
D216*
X147320Y187960D03*
D217*
X147320Y188595D03*
D218*
X147320Y189230D03*
D219*
X147003Y189865D03*
D110*
X147333Y190500D03*
D220*
X84606Y36576D02*
X84606Y32004D01*
X85114Y32004D02*
X84098Y32004D01*
X84098Y36576D02*
X85114Y36576D01*
X81888Y33782D02*
X80618Y33274D01*
X81888Y33781D02*
X81934Y33802D01*
X81979Y33826D01*
X82021Y33854D01*
X82062Y33884D01*
X82100Y33918D01*
X82135Y33955D01*
X82167Y33994D01*
X82197Y34035D01*
X82222Y34079D01*
X82245Y34125D01*
X82264Y34172D01*
X82279Y34220D01*
X82290Y34270D01*
X82298Y34320D01*
X82302Y34371D01*
X82301Y34421D01*
X82297Y34472D01*
X82289Y34522D01*
X82277Y34572D01*
X82262Y34620D01*
X82242Y34667D01*
X82219Y34712D01*
X82193Y34756D01*
X82164Y34797D01*
X82131Y34836D01*
X82095Y34872D01*
X82057Y34906D01*
X82016Y34936D01*
X81974Y34963D01*
X81929Y34987D01*
X81882Y35007D01*
X81834Y35024D01*
X81785Y35037D01*
X81735Y35046D01*
X81684Y35051D01*
X81634Y35052D01*
X81527Y35048D01*
X81420Y35041D01*
X81313Y35029D01*
X81207Y35014D01*
X81102Y34994D01*
X80997Y34971D01*
X80894Y34944D01*
X80791Y34913D01*
X80690Y34878D01*
X80590Y34840D01*
X80491Y34798D01*
X80618Y33275D02*
X80572Y33254D01*
X80527Y33230D01*
X80485Y33202D01*
X80444Y33172D01*
X80406Y33138D01*
X80371Y33101D01*
X80339Y33062D01*
X80309Y33021D01*
X80284Y32977D01*
X80261Y32931D01*
X80242Y32884D01*
X80227Y32836D01*
X80216Y32786D01*
X80208Y32736D01*
X80204Y32685D01*
X80205Y32635D01*
X80209Y32584D01*
X80217Y32534D01*
X80229Y32484D01*
X80244Y32436D01*
X80264Y32389D01*
X80287Y32344D01*
X80313Y32300D01*
X80342Y32259D01*
X80375Y32220D01*
X80411Y32184D01*
X80449Y32150D01*
X80490Y32120D01*
X80532Y32093D01*
X80577Y32069D01*
X80624Y32049D01*
X80672Y32032D01*
X80721Y32019D01*
X80771Y32010D01*
X80822Y32005D01*
X80872Y32004D01*
X80872Y32003D02*
X81001Y32007D01*
X81131Y32015D01*
X81260Y32027D01*
X81389Y32042D01*
X81517Y32061D01*
X81644Y32085D01*
X81771Y32112D01*
X81897Y32142D01*
X82022Y32177D01*
X82146Y32215D01*
X82269Y32257D01*
X77444Y33782D02*
X76301Y33782D01*
X77444Y33782D02*
X77502Y33780D01*
X77560Y33774D01*
X77617Y33765D01*
X77674Y33752D01*
X77730Y33735D01*
X77784Y33714D01*
X77837Y33690D01*
X77888Y33663D01*
X77938Y33632D01*
X77985Y33598D01*
X78030Y33561D01*
X78073Y33522D01*
X78112Y33479D01*
X78149Y33434D01*
X78183Y33387D01*
X78214Y33338D01*
X78241Y33286D01*
X78265Y33233D01*
X78286Y33179D01*
X78303Y33123D01*
X78316Y33066D01*
X78325Y33009D01*
X78331Y32951D01*
X78333Y32893D01*
X78331Y32835D01*
X78325Y32777D01*
X78316Y32720D01*
X78303Y32663D01*
X78286Y32607D01*
X78265Y32553D01*
X78241Y32500D01*
X78214Y32449D01*
X78183Y32399D01*
X78149Y32352D01*
X78112Y32307D01*
X78073Y32264D01*
X78030Y32225D01*
X77985Y32188D01*
X77938Y32154D01*
X77889Y32123D01*
X77837Y32096D01*
X77784Y32072D01*
X77730Y32051D01*
X77674Y32034D01*
X77617Y32021D01*
X77560Y32012D01*
X77502Y32006D01*
X77444Y32004D01*
X76301Y32004D01*
X76301Y34290D01*
X76303Y34344D01*
X76309Y34398D01*
X76318Y34452D01*
X76332Y34505D01*
X76349Y34556D01*
X76370Y34607D01*
X76394Y34655D01*
X76422Y34702D01*
X76453Y34747D01*
X76487Y34789D01*
X76524Y34829D01*
X76564Y34866D01*
X76606Y34900D01*
X76651Y34931D01*
X76698Y34959D01*
X76746Y34983D01*
X76797Y35004D01*
X76848Y35021D01*
X76901Y35035D01*
X76955Y35044D01*
X77009Y35050D01*
X77063Y35052D01*
X78079Y35052D01*
X74013Y36576D02*
X74013Y32004D01*
X72743Y32004D01*
X72689Y32006D01*
X72635Y32012D01*
X72581Y32021D01*
X72528Y32035D01*
X72477Y32052D01*
X72426Y32073D01*
X72378Y32097D01*
X72331Y32125D01*
X72286Y32156D01*
X72244Y32190D01*
X72204Y32227D01*
X72167Y32267D01*
X72133Y32309D01*
X72102Y32354D01*
X72074Y32401D01*
X72050Y32449D01*
X72029Y32500D01*
X72012Y32551D01*
X71998Y32604D01*
X71989Y32658D01*
X71983Y32712D01*
X71981Y32766D01*
X71981Y34290D01*
X71983Y34344D01*
X71989Y34398D01*
X71998Y34452D01*
X72012Y34505D01*
X72029Y34556D01*
X72050Y34607D01*
X72074Y34655D01*
X72102Y34702D01*
X72133Y34747D01*
X72167Y34789D01*
X72204Y34829D01*
X72244Y34866D01*
X72286Y34900D01*
X72331Y34931D01*
X72378Y34959D01*
X72426Y34983D01*
X72477Y35004D01*
X72528Y35021D01*
X72581Y35035D01*
X72635Y35044D01*
X72689Y35050D01*
X72743Y35052D01*
X74013Y35052D01*
X69315Y32004D02*
X68045Y32004D01*
X69315Y32004D02*
X69369Y32006D01*
X69423Y32012D01*
X69477Y32021D01*
X69530Y32035D01*
X69581Y32052D01*
X69632Y32073D01*
X69680Y32097D01*
X69727Y32125D01*
X69772Y32156D01*
X69814Y32190D01*
X69854Y32227D01*
X69891Y32267D01*
X69925Y32309D01*
X69956Y32354D01*
X69984Y32401D01*
X70008Y32449D01*
X70029Y32500D01*
X70046Y32551D01*
X70060Y32604D01*
X70069Y32658D01*
X70075Y32712D01*
X70077Y32766D01*
X70077Y34036D01*
X70075Y34099D01*
X70069Y34161D01*
X70060Y34223D01*
X70046Y34284D01*
X70029Y34344D01*
X70008Y34403D01*
X69984Y34461D01*
X69956Y34517D01*
X69925Y34571D01*
X69890Y34623D01*
X69853Y34673D01*
X69812Y34720D01*
X69768Y34765D01*
X69722Y34808D01*
X69673Y34847D01*
X69622Y34883D01*
X69569Y34916D01*
X69514Y34945D01*
X69457Y34972D01*
X69399Y34994D01*
X69339Y35013D01*
X69278Y35028D01*
X69217Y35040D01*
X69155Y35048D01*
X69092Y35052D01*
X69030Y35052D01*
X68967Y35048D01*
X68905Y35040D01*
X68844Y35028D01*
X68783Y35013D01*
X68723Y34994D01*
X68665Y34972D01*
X68608Y34945D01*
X68553Y34916D01*
X68500Y34883D01*
X68449Y34847D01*
X68400Y34808D01*
X68354Y34765D01*
X68310Y34720D01*
X68269Y34673D01*
X68232Y34623D01*
X68197Y34571D01*
X68166Y34517D01*
X68138Y34461D01*
X68114Y34403D01*
X68093Y34344D01*
X68076Y34284D01*
X68062Y34223D01*
X68053Y34161D01*
X68047Y34099D01*
X68045Y34036D01*
X68045Y33528D01*
X70077Y33528D01*
X66066Y32766D02*
X66066Y36576D01*
X66066Y32766D02*
X66064Y32712D01*
X66058Y32658D01*
X66049Y32604D01*
X66035Y32551D01*
X66018Y32500D01*
X65997Y32449D01*
X65973Y32401D01*
X65945Y32354D01*
X65914Y32309D01*
X65880Y32267D01*
X65843Y32227D01*
X65803Y32190D01*
X65761Y32156D01*
X65716Y32125D01*
X65669Y32097D01*
X65621Y32073D01*
X65570Y32052D01*
X65519Y32035D01*
X65466Y32021D01*
X65412Y32012D01*
X65358Y32006D01*
X65304Y32004D01*
X63628Y32766D02*
X63628Y36576D01*
X63628Y32766D02*
X63626Y32712D01*
X63620Y32658D01*
X63611Y32604D01*
X63597Y32551D01*
X63580Y32500D01*
X63559Y32449D01*
X63535Y32401D01*
X63507Y32354D01*
X63476Y32309D01*
X63442Y32267D01*
X63405Y32227D01*
X63365Y32190D01*
X63323Y32156D01*
X63278Y32125D01*
X63231Y32097D01*
X63183Y32073D01*
X63132Y32052D01*
X63081Y32035D01*
X63028Y32021D01*
X62974Y32012D01*
X62920Y32006D01*
X62866Y32004D01*
X60375Y33782D02*
X59232Y33782D01*
X60375Y33782D02*
X60433Y33780D01*
X60491Y33774D01*
X60548Y33765D01*
X60605Y33752D01*
X60661Y33735D01*
X60715Y33714D01*
X60768Y33690D01*
X60819Y33663D01*
X60869Y33632D01*
X60916Y33598D01*
X60961Y33561D01*
X61004Y33522D01*
X61043Y33479D01*
X61080Y33434D01*
X61114Y33387D01*
X61145Y33338D01*
X61172Y33286D01*
X61196Y33233D01*
X61217Y33179D01*
X61234Y33123D01*
X61247Y33066D01*
X61256Y33009D01*
X61262Y32951D01*
X61264Y32893D01*
X61262Y32835D01*
X61256Y32777D01*
X61247Y32720D01*
X61234Y32663D01*
X61217Y32607D01*
X61196Y32553D01*
X61172Y32500D01*
X61145Y32449D01*
X61114Y32399D01*
X61080Y32352D01*
X61043Y32307D01*
X61004Y32264D01*
X60961Y32225D01*
X60916Y32188D01*
X60869Y32154D01*
X60820Y32123D01*
X60768Y32096D01*
X60715Y32072D01*
X60661Y32051D01*
X60605Y32034D01*
X60548Y32021D01*
X60491Y32012D01*
X60433Y32006D01*
X60375Y32004D01*
X59232Y32004D01*
X59232Y34290D01*
X59234Y34344D01*
X59240Y34398D01*
X59249Y34452D01*
X59263Y34505D01*
X59280Y34556D01*
X59301Y34607D01*
X59325Y34655D01*
X59353Y34702D01*
X59384Y34747D01*
X59418Y34789D01*
X59455Y34829D01*
X59495Y34866D01*
X59537Y34900D01*
X59582Y34931D01*
X59629Y34959D01*
X59677Y34983D01*
X59728Y35004D01*
X59779Y35021D01*
X59832Y35035D01*
X59886Y35044D01*
X59940Y35050D01*
X59994Y35052D01*
X61010Y35052D01*
X54482Y36576D02*
X54482Y32004D01*
X54482Y36576D02*
X53212Y36576D01*
X53143Y36574D01*
X53075Y36569D01*
X53007Y36559D01*
X52939Y36546D01*
X52872Y36530D01*
X52806Y36510D01*
X52742Y36486D01*
X52679Y36459D01*
X52617Y36428D01*
X52557Y36394D01*
X52499Y36357D01*
X52443Y36317D01*
X52390Y36274D01*
X52339Y36228D01*
X52290Y36179D01*
X52244Y36128D01*
X52201Y36075D01*
X52161Y36019D01*
X52124Y35961D01*
X52090Y35901D01*
X52059Y35839D01*
X52032Y35776D01*
X52008Y35712D01*
X51988Y35646D01*
X51972Y35579D01*
X51959Y35511D01*
X51949Y35443D01*
X51944Y35375D01*
X51942Y35306D01*
X51942Y33274D01*
X51944Y33205D01*
X51949Y33137D01*
X51959Y33069D01*
X51972Y33001D01*
X51988Y32934D01*
X52008Y32868D01*
X52032Y32804D01*
X52059Y32741D01*
X52090Y32679D01*
X52124Y32619D01*
X52161Y32561D01*
X52201Y32505D01*
X52244Y32452D01*
X52290Y32401D01*
X52339Y32352D01*
X52390Y32306D01*
X52443Y32263D01*
X52499Y32223D01*
X52557Y32186D01*
X52617Y32152D01*
X52679Y32121D01*
X52742Y32094D01*
X52806Y32070D01*
X52872Y32050D01*
X52939Y32034D01*
X53007Y32021D01*
X53075Y32011D01*
X53143Y32006D01*
X53212Y32004D01*
X54482Y32004D01*
X49859Y32004D02*
X49859Y35052D01*
X49986Y36322D02*
X49986Y36576D01*
X49732Y36576D01*
X49732Y36322D01*
X49986Y36322D01*
X45262Y34544D02*
X43992Y34544D01*
X43922Y34542D01*
X43852Y34536D01*
X43783Y34527D01*
X43714Y34513D01*
X43646Y34496D01*
X43580Y34475D01*
X43514Y34451D01*
X43450Y34423D01*
X43388Y34391D01*
X43327Y34356D01*
X43268Y34318D01*
X43212Y34276D01*
X43158Y34232D01*
X43106Y34184D01*
X43058Y34134D01*
X43012Y34081D01*
X42969Y34026D01*
X42929Y33969D01*
X42892Y33909D01*
X42859Y33847D01*
X42829Y33784D01*
X42803Y33719D01*
X42780Y33653D01*
X42761Y33586D01*
X42746Y33517D01*
X42734Y33448D01*
X42726Y33379D01*
X42722Y33309D01*
X42722Y33239D01*
X42726Y33169D01*
X42734Y33100D01*
X42746Y33031D01*
X42761Y32962D01*
X42780Y32895D01*
X42803Y32829D01*
X42829Y32764D01*
X42859Y32701D01*
X42892Y32639D01*
X42929Y32579D01*
X42969Y32522D01*
X43012Y32467D01*
X43058Y32414D01*
X43106Y32364D01*
X43158Y32316D01*
X43212Y32272D01*
X43268Y32230D01*
X43327Y32192D01*
X43388Y32157D01*
X43450Y32125D01*
X43514Y32097D01*
X43580Y32073D01*
X43646Y32052D01*
X43714Y32035D01*
X43783Y32021D01*
X43852Y32012D01*
X43922Y32006D01*
X43992Y32004D01*
X45262Y32004D01*
X45262Y36576D01*
X43992Y36576D01*
X43929Y36574D01*
X43867Y36568D01*
X43805Y36559D01*
X43744Y36545D01*
X43684Y36528D01*
X43625Y36507D01*
X43567Y36483D01*
X43511Y36455D01*
X43457Y36424D01*
X43405Y36389D01*
X43355Y36352D01*
X43308Y36311D01*
X43263Y36267D01*
X43220Y36221D01*
X43181Y36172D01*
X43145Y36121D01*
X43112Y36068D01*
X43083Y36013D01*
X43056Y35956D01*
X43034Y35898D01*
X43015Y35838D01*
X43000Y35777D01*
X42988Y35716D01*
X42980Y35654D01*
X42976Y35591D01*
X42976Y35529D01*
X42980Y35466D01*
X42988Y35404D01*
X43000Y35343D01*
X43015Y35282D01*
X43034Y35222D01*
X43056Y35164D01*
X43083Y35107D01*
X43112Y35052D01*
X43145Y34999D01*
X43181Y34948D01*
X43220Y34899D01*
X43263Y34853D01*
X43308Y34809D01*
X43355Y34768D01*
X43405Y34731D01*
X43457Y34696D01*
X43511Y34665D01*
X43567Y34637D01*
X43625Y34613D01*
X43684Y34592D01*
X43744Y34575D01*
X43805Y34561D01*
X43867Y34552D01*
X43929Y34546D01*
X43992Y34544D01*
X40969Y34036D02*
X40969Y33020D01*
X40969Y34036D02*
X40967Y34099D01*
X40961Y34161D01*
X40952Y34223D01*
X40938Y34284D01*
X40921Y34344D01*
X40900Y34403D01*
X40876Y34461D01*
X40848Y34517D01*
X40817Y34571D01*
X40782Y34623D01*
X40745Y34673D01*
X40704Y34720D01*
X40660Y34765D01*
X40614Y34808D01*
X40565Y34847D01*
X40514Y34883D01*
X40461Y34916D01*
X40406Y34945D01*
X40349Y34972D01*
X40291Y34994D01*
X40231Y35013D01*
X40170Y35028D01*
X40109Y35040D01*
X40047Y35048D01*
X39984Y35052D01*
X39922Y35052D01*
X39859Y35048D01*
X39797Y35040D01*
X39736Y35028D01*
X39675Y35013D01*
X39615Y34994D01*
X39557Y34972D01*
X39500Y34945D01*
X39445Y34916D01*
X39392Y34883D01*
X39341Y34847D01*
X39292Y34808D01*
X39246Y34765D01*
X39202Y34720D01*
X39161Y34673D01*
X39124Y34623D01*
X39089Y34571D01*
X39058Y34517D01*
X39030Y34461D01*
X39006Y34403D01*
X38985Y34344D01*
X38968Y34284D01*
X38954Y34223D01*
X38945Y34161D01*
X38939Y34099D01*
X38937Y34036D01*
X38937Y33020D01*
X38939Y32957D01*
X38945Y32895D01*
X38954Y32833D01*
X38968Y32772D01*
X38985Y32712D01*
X39006Y32653D01*
X39030Y32595D01*
X39058Y32539D01*
X39089Y32485D01*
X39124Y32433D01*
X39161Y32383D01*
X39202Y32336D01*
X39246Y32291D01*
X39292Y32248D01*
X39341Y32209D01*
X39392Y32173D01*
X39445Y32140D01*
X39500Y32111D01*
X39557Y32084D01*
X39615Y32062D01*
X39675Y32043D01*
X39736Y32028D01*
X39797Y32016D01*
X39859Y32008D01*
X39922Y32004D01*
X39984Y32004D01*
X40047Y32008D01*
X40109Y32016D01*
X40170Y32028D01*
X40231Y32043D01*
X40291Y32062D01*
X40349Y32084D01*
X40406Y32111D01*
X40461Y32140D01*
X40514Y32173D01*
X40565Y32209D01*
X40614Y32248D01*
X40660Y32291D01*
X40704Y32336D01*
X40745Y32383D01*
X40782Y32433D01*
X40817Y32485D01*
X40848Y32539D01*
X40876Y32595D01*
X40900Y32653D01*
X40921Y32712D01*
X40938Y32772D01*
X40952Y32833D01*
X40961Y32895D01*
X40967Y32957D01*
X40969Y33020D01*
X36854Y32004D02*
X36854Y35052D01*
X35584Y35052D01*
X35530Y35050D01*
X35476Y35044D01*
X35422Y35035D01*
X35369Y35021D01*
X35318Y35004D01*
X35267Y34983D01*
X35219Y34959D01*
X35172Y34931D01*
X35127Y34900D01*
X35085Y34866D01*
X35045Y34829D01*
X35008Y34789D01*
X34974Y34747D01*
X34943Y34702D01*
X34915Y34655D01*
X34891Y34607D01*
X34870Y34556D01*
X34853Y34505D01*
X34839Y34452D01*
X34830Y34398D01*
X34824Y34344D01*
X34822Y34290D01*
X34822Y32004D01*
X31877Y33782D02*
X30734Y33782D01*
X31877Y33782D02*
X31935Y33780D01*
X31993Y33774D01*
X32050Y33765D01*
X32107Y33752D01*
X32163Y33735D01*
X32217Y33714D01*
X32270Y33690D01*
X32321Y33663D01*
X32371Y33632D01*
X32418Y33598D01*
X32463Y33561D01*
X32506Y33522D01*
X32545Y33479D01*
X32582Y33434D01*
X32616Y33387D01*
X32647Y33338D01*
X32674Y33286D01*
X32698Y33233D01*
X32719Y33179D01*
X32736Y33123D01*
X32749Y33066D01*
X32758Y33009D01*
X32764Y32951D01*
X32766Y32893D01*
X32764Y32835D01*
X32758Y32777D01*
X32749Y32720D01*
X32736Y32663D01*
X32719Y32607D01*
X32698Y32553D01*
X32674Y32500D01*
X32647Y32449D01*
X32616Y32399D01*
X32582Y32352D01*
X32545Y32307D01*
X32506Y32264D01*
X32463Y32225D01*
X32418Y32188D01*
X32371Y32154D01*
X32322Y32123D01*
X32270Y32096D01*
X32217Y32072D01*
X32163Y32051D01*
X32107Y32034D01*
X32050Y32021D01*
X31993Y32012D01*
X31935Y32006D01*
X31877Y32004D01*
X30734Y32004D01*
X30734Y34290D01*
X30736Y34344D01*
X30742Y34398D01*
X30751Y34452D01*
X30765Y34505D01*
X30782Y34556D01*
X30803Y34607D01*
X30827Y34655D01*
X30855Y34702D01*
X30886Y34747D01*
X30920Y34789D01*
X30957Y34829D01*
X30997Y34866D01*
X31039Y34900D01*
X31084Y34931D01*
X31131Y34959D01*
X31179Y34983D01*
X31230Y35004D01*
X31281Y35021D01*
X31334Y35035D01*
X31388Y35044D01*
X31442Y35050D01*
X31496Y35052D01*
X32512Y35052D01*
X143891Y8001D02*
X143891Y3429D01*
X143891Y6477D02*
X142621Y6477D01*
X142567Y6475D01*
X142513Y6469D01*
X142459Y6460D01*
X142406Y6446D01*
X142355Y6429D01*
X142304Y6408D01*
X142256Y6384D01*
X142209Y6356D01*
X142164Y6325D01*
X142122Y6291D01*
X142082Y6254D01*
X142045Y6214D01*
X142011Y6172D01*
X141980Y6127D01*
X141952Y6080D01*
X141928Y6032D01*
X141907Y5981D01*
X141890Y5930D01*
X141876Y5877D01*
X141867Y5823D01*
X141861Y5769D01*
X141859Y5715D01*
X141859Y3429D01*
X140173Y6477D02*
X138649Y6477D01*
X139665Y8001D02*
X139665Y4191D01*
X139663Y4137D01*
X139657Y4083D01*
X139648Y4029D01*
X139634Y3976D01*
X139617Y3925D01*
X139596Y3874D01*
X139572Y3826D01*
X139544Y3779D01*
X139513Y3734D01*
X139479Y3692D01*
X139442Y3652D01*
X139402Y3615D01*
X139360Y3581D01*
X139315Y3550D01*
X139268Y3522D01*
X139220Y3498D01*
X139169Y3477D01*
X139118Y3460D01*
X139065Y3446D01*
X139011Y3437D01*
X138957Y3431D01*
X138903Y3429D01*
X138649Y3429D01*
X137278Y6477D02*
X135754Y6477D01*
X136770Y8001D02*
X136770Y4191D01*
X136768Y4137D01*
X136762Y4083D01*
X136753Y4029D01*
X136739Y3976D01*
X136722Y3925D01*
X136701Y3874D01*
X136677Y3826D01*
X136649Y3779D01*
X136618Y3734D01*
X136584Y3692D01*
X136547Y3652D01*
X136507Y3615D01*
X136465Y3581D01*
X136420Y3550D01*
X136373Y3522D01*
X136325Y3498D01*
X136274Y3477D01*
X136223Y3460D01*
X136170Y3446D01*
X136116Y3437D01*
X136062Y3431D01*
X136008Y3429D01*
X135754Y3429D01*
X133806Y1905D02*
X133806Y6477D01*
X132536Y6477D01*
X132482Y6475D01*
X132428Y6469D01*
X132374Y6460D01*
X132321Y6446D01*
X132270Y6429D01*
X132219Y6408D01*
X132171Y6384D01*
X132124Y6356D01*
X132079Y6325D01*
X132037Y6291D01*
X131997Y6254D01*
X131960Y6214D01*
X131926Y6172D01*
X131895Y6127D01*
X131867Y6080D01*
X131843Y6032D01*
X131822Y5981D01*
X131805Y5930D01*
X131791Y5877D01*
X131782Y5823D01*
X131776Y5769D01*
X131774Y5715D01*
X131774Y4191D01*
X131776Y4137D01*
X131782Y4083D01*
X131791Y4029D01*
X131805Y3976D01*
X131822Y3925D01*
X131843Y3874D01*
X131867Y3826D01*
X131895Y3779D01*
X131926Y3734D01*
X131960Y3692D01*
X131997Y3652D01*
X132037Y3615D01*
X132079Y3581D01*
X132124Y3550D01*
X132171Y3522D01*
X132219Y3498D01*
X132270Y3477D01*
X132321Y3460D01*
X132374Y3446D01*
X132428Y3437D01*
X132482Y3431D01*
X132536Y3429D01*
X133806Y3429D01*
X129489Y5207D02*
X128219Y4699D01*
X129490Y5206D02*
X129536Y5227D01*
X129581Y5251D01*
X129623Y5279D01*
X129664Y5309D01*
X129702Y5343D01*
X129737Y5380D01*
X129769Y5419D01*
X129799Y5460D01*
X129824Y5504D01*
X129847Y5550D01*
X129866Y5597D01*
X129881Y5645D01*
X129892Y5695D01*
X129900Y5745D01*
X129904Y5796D01*
X129903Y5846D01*
X129899Y5897D01*
X129891Y5947D01*
X129879Y5997D01*
X129864Y6045D01*
X129844Y6092D01*
X129821Y6137D01*
X129795Y6181D01*
X129766Y6222D01*
X129733Y6261D01*
X129697Y6297D01*
X129659Y6331D01*
X129618Y6361D01*
X129576Y6388D01*
X129531Y6412D01*
X129484Y6432D01*
X129436Y6449D01*
X129387Y6462D01*
X129337Y6471D01*
X129286Y6476D01*
X129236Y6477D01*
X129129Y6473D01*
X129022Y6466D01*
X128915Y6454D01*
X128809Y6439D01*
X128704Y6419D01*
X128599Y6396D01*
X128496Y6369D01*
X128393Y6338D01*
X128292Y6303D01*
X128192Y6265D01*
X128093Y6223D01*
X128219Y4700D02*
X128173Y4679D01*
X128128Y4655D01*
X128086Y4627D01*
X128045Y4597D01*
X128007Y4563D01*
X127972Y4526D01*
X127940Y4487D01*
X127910Y4446D01*
X127885Y4402D01*
X127862Y4356D01*
X127843Y4309D01*
X127828Y4261D01*
X127817Y4211D01*
X127809Y4161D01*
X127805Y4110D01*
X127806Y4060D01*
X127810Y4009D01*
X127818Y3959D01*
X127830Y3909D01*
X127845Y3861D01*
X127865Y3814D01*
X127888Y3769D01*
X127914Y3725D01*
X127943Y3684D01*
X127976Y3645D01*
X128012Y3609D01*
X128050Y3575D01*
X128091Y3545D01*
X128133Y3518D01*
X128178Y3494D01*
X128225Y3474D01*
X128273Y3457D01*
X128322Y3444D01*
X128372Y3435D01*
X128423Y3430D01*
X128473Y3429D01*
X128474Y3428D02*
X128603Y3432D01*
X128733Y3440D01*
X128862Y3452D01*
X128991Y3467D01*
X129119Y3486D01*
X129246Y3510D01*
X129373Y3537D01*
X129499Y3567D01*
X129624Y3602D01*
X129748Y3640D01*
X129871Y3682D01*
X125933Y3810D02*
X125933Y4064D01*
X125679Y4064D01*
X125679Y3810D01*
X125933Y3810D01*
X125933Y5842D02*
X125933Y6096D01*
X125679Y6096D01*
X125679Y5842D01*
X125933Y5842D01*
X123927Y2921D02*
X121895Y8509D01*
X118237Y8509D02*
X120269Y2921D01*
X115724Y3429D02*
X114454Y3429D01*
X115724Y3429D02*
X115778Y3431D01*
X115832Y3437D01*
X115886Y3446D01*
X115939Y3460D01*
X115990Y3477D01*
X116041Y3498D01*
X116089Y3522D01*
X116136Y3550D01*
X116181Y3581D01*
X116223Y3615D01*
X116263Y3652D01*
X116300Y3692D01*
X116334Y3734D01*
X116365Y3779D01*
X116393Y3826D01*
X116417Y3874D01*
X116438Y3925D01*
X116455Y3976D01*
X116469Y4029D01*
X116478Y4083D01*
X116484Y4137D01*
X116486Y4191D01*
X116486Y5715D01*
X116484Y5769D01*
X116478Y5823D01*
X116469Y5877D01*
X116455Y5930D01*
X116438Y5981D01*
X116417Y6032D01*
X116393Y6080D01*
X116365Y6127D01*
X116334Y6172D01*
X116300Y6214D01*
X116263Y6254D01*
X116223Y6291D01*
X116181Y6325D01*
X116136Y6356D01*
X116089Y6384D01*
X116041Y6408D01*
X115990Y6429D01*
X115939Y6446D01*
X115886Y6460D01*
X115832Y6469D01*
X115778Y6475D01*
X115724Y6477D01*
X114454Y6477D01*
X114454Y2667D01*
X114456Y2613D01*
X114462Y2559D01*
X114471Y2505D01*
X114485Y2452D01*
X114502Y2401D01*
X114523Y2350D01*
X114547Y2302D01*
X114575Y2255D01*
X114606Y2210D01*
X114640Y2168D01*
X114677Y2128D01*
X114717Y2091D01*
X114759Y2057D01*
X114804Y2026D01*
X114851Y1998D01*
X114899Y1974D01*
X114950Y1953D01*
X115001Y1936D01*
X115054Y1922D01*
X115108Y1913D01*
X115162Y1907D01*
X115216Y1905D01*
X116232Y1905D01*
X112395Y3429D02*
X112395Y6477D01*
X112522Y7747D02*
X112522Y8001D01*
X112268Y8001D01*
X112268Y7747D01*
X112522Y7747D01*
X110913Y6477D02*
X109389Y6477D01*
X110405Y8001D02*
X110405Y4191D01*
X110403Y4137D01*
X110397Y4083D01*
X110388Y4029D01*
X110374Y3976D01*
X110357Y3925D01*
X110336Y3874D01*
X110312Y3826D01*
X110284Y3779D01*
X110253Y3734D01*
X110219Y3692D01*
X110182Y3652D01*
X110142Y3615D01*
X110100Y3581D01*
X110055Y3550D01*
X110008Y3522D01*
X109960Y3498D01*
X109909Y3477D01*
X109858Y3460D01*
X109805Y3446D01*
X109751Y3437D01*
X109697Y3431D01*
X109643Y3429D01*
X109389Y3429D01*
X107468Y3429D02*
X107468Y8001D01*
X107468Y6477D02*
X106198Y6477D01*
X106144Y6475D01*
X106090Y6469D01*
X106036Y6460D01*
X105983Y6446D01*
X105932Y6429D01*
X105881Y6408D01*
X105833Y6384D01*
X105786Y6356D01*
X105741Y6325D01*
X105699Y6291D01*
X105659Y6254D01*
X105622Y6214D01*
X105588Y6172D01*
X105557Y6127D01*
X105529Y6080D01*
X105505Y6032D01*
X105484Y5981D01*
X105467Y5930D01*
X105453Y5877D01*
X105444Y5823D01*
X105438Y5769D01*
X105436Y5715D01*
X105436Y3429D01*
X103201Y4191D02*
X103201Y6477D01*
X103201Y4191D02*
X103199Y4137D01*
X103193Y4083D01*
X103184Y4029D01*
X103170Y3976D01*
X103153Y3925D01*
X103132Y3874D01*
X103108Y3826D01*
X103080Y3779D01*
X103049Y3734D01*
X103015Y3692D01*
X102978Y3652D01*
X102938Y3615D01*
X102896Y3581D01*
X102851Y3550D01*
X102804Y3522D01*
X102756Y3498D01*
X102705Y3477D01*
X102654Y3460D01*
X102601Y3446D01*
X102547Y3437D01*
X102493Y3431D01*
X102439Y3429D01*
X101169Y3429D01*
X101169Y6477D01*
X98907Y8001D02*
X98907Y3429D01*
X97637Y3429D01*
X97583Y3431D01*
X97529Y3437D01*
X97475Y3446D01*
X97422Y3460D01*
X97371Y3477D01*
X97320Y3498D01*
X97272Y3522D01*
X97225Y3550D01*
X97180Y3581D01*
X97138Y3615D01*
X97098Y3652D01*
X97061Y3692D01*
X97027Y3734D01*
X96996Y3779D01*
X96968Y3826D01*
X96944Y3874D01*
X96923Y3925D01*
X96906Y3976D01*
X96892Y4029D01*
X96883Y4083D01*
X96877Y4137D01*
X96875Y4191D01*
X96875Y5715D01*
X96877Y5769D01*
X96883Y5823D01*
X96892Y5877D01*
X96906Y5930D01*
X96923Y5981D01*
X96944Y6032D01*
X96968Y6080D01*
X96996Y6127D01*
X97027Y6172D01*
X97061Y6214D01*
X97098Y6254D01*
X97138Y6291D01*
X97180Y6325D01*
X97225Y6356D01*
X97272Y6384D01*
X97320Y6408D01*
X97371Y6429D01*
X97422Y6446D01*
X97475Y6460D01*
X97529Y6469D01*
X97583Y6475D01*
X97637Y6477D01*
X98907Y6477D01*
X95149Y3683D02*
X95149Y3429D01*
X95149Y3683D02*
X94895Y3683D01*
X94895Y3429D01*
X95149Y3429D01*
X92375Y3429D02*
X91359Y3429D01*
X92375Y3429D02*
X92429Y3431D01*
X92483Y3437D01*
X92537Y3446D01*
X92590Y3460D01*
X92641Y3477D01*
X92692Y3498D01*
X92740Y3522D01*
X92787Y3550D01*
X92832Y3581D01*
X92874Y3615D01*
X92914Y3652D01*
X92951Y3692D01*
X92985Y3734D01*
X93016Y3779D01*
X93044Y3826D01*
X93068Y3874D01*
X93089Y3925D01*
X93106Y3976D01*
X93120Y4029D01*
X93129Y4083D01*
X93135Y4137D01*
X93137Y4191D01*
X93137Y5715D01*
X93135Y5769D01*
X93129Y5823D01*
X93120Y5877D01*
X93106Y5930D01*
X93089Y5981D01*
X93068Y6032D01*
X93044Y6080D01*
X93016Y6127D01*
X92985Y6172D01*
X92951Y6214D01*
X92914Y6254D01*
X92874Y6291D01*
X92832Y6325D01*
X92787Y6356D01*
X92740Y6384D01*
X92692Y6408D01*
X92641Y6429D01*
X92590Y6446D01*
X92537Y6460D01*
X92483Y6469D01*
X92429Y6475D01*
X92375Y6477D01*
X91359Y6477D01*
X89637Y5461D02*
X89637Y4445D01*
X89637Y5461D02*
X89635Y5524D01*
X89629Y5586D01*
X89620Y5648D01*
X89606Y5709D01*
X89589Y5769D01*
X89568Y5828D01*
X89544Y5886D01*
X89516Y5942D01*
X89485Y5996D01*
X89450Y6048D01*
X89413Y6098D01*
X89372Y6145D01*
X89328Y6190D01*
X89282Y6233D01*
X89233Y6272D01*
X89182Y6308D01*
X89129Y6341D01*
X89074Y6370D01*
X89017Y6397D01*
X88959Y6419D01*
X88899Y6438D01*
X88838Y6453D01*
X88777Y6465D01*
X88715Y6473D01*
X88652Y6477D01*
X88590Y6477D01*
X88527Y6473D01*
X88465Y6465D01*
X88404Y6453D01*
X88343Y6438D01*
X88283Y6419D01*
X88225Y6397D01*
X88168Y6370D01*
X88113Y6341D01*
X88060Y6308D01*
X88009Y6272D01*
X87960Y6233D01*
X87914Y6190D01*
X87870Y6145D01*
X87829Y6098D01*
X87792Y6048D01*
X87757Y5996D01*
X87726Y5942D01*
X87698Y5886D01*
X87674Y5828D01*
X87653Y5769D01*
X87636Y5709D01*
X87622Y5648D01*
X87613Y5586D01*
X87607Y5524D01*
X87605Y5461D01*
X87605Y4445D01*
X87607Y4382D01*
X87613Y4320D01*
X87622Y4258D01*
X87636Y4197D01*
X87653Y4137D01*
X87674Y4078D01*
X87698Y4020D01*
X87726Y3964D01*
X87757Y3910D01*
X87792Y3858D01*
X87829Y3808D01*
X87870Y3761D01*
X87914Y3716D01*
X87960Y3673D01*
X88009Y3634D01*
X88060Y3598D01*
X88113Y3565D01*
X88168Y3536D01*
X88225Y3509D01*
X88283Y3487D01*
X88343Y3468D01*
X88404Y3453D01*
X88465Y3441D01*
X88527Y3433D01*
X88590Y3429D01*
X88652Y3429D01*
X88715Y3433D01*
X88777Y3441D01*
X88838Y3453D01*
X88899Y3468D01*
X88959Y3487D01*
X89017Y3509D01*
X89074Y3536D01*
X89129Y3565D01*
X89182Y3598D01*
X89233Y3634D01*
X89282Y3673D01*
X89328Y3716D01*
X89372Y3761D01*
X89413Y3808D01*
X89450Y3858D01*
X89485Y3910D01*
X89516Y3964D01*
X89544Y4020D01*
X89568Y4078D01*
X89589Y4137D01*
X89606Y4197D01*
X89620Y4258D01*
X89629Y4320D01*
X89635Y4382D01*
X89637Y4445D01*
X85421Y3429D02*
X85421Y6477D01*
X83135Y6477D01*
X83081Y6475D01*
X83027Y6469D01*
X82973Y6460D01*
X82920Y6446D01*
X82869Y6429D01*
X82818Y6408D01*
X82770Y6384D01*
X82723Y6356D01*
X82678Y6325D01*
X82636Y6291D01*
X82596Y6254D01*
X82559Y6214D01*
X82525Y6172D01*
X82494Y6127D01*
X82466Y6080D01*
X82442Y6032D01*
X82421Y5981D01*
X82404Y5930D01*
X82390Y5877D01*
X82381Y5823D01*
X82375Y5769D01*
X82373Y5715D01*
X82373Y3429D01*
X83897Y3429D02*
X83897Y6477D01*
X80341Y2921D02*
X78309Y8509D01*
X76582Y6477D02*
X76582Y3429D01*
X76709Y7747D02*
X76709Y8001D01*
X76455Y8001D01*
X76455Y7747D01*
X76709Y7747D01*
X72697Y8001D02*
X72697Y3429D01*
X73967Y3429D01*
X74021Y3431D01*
X74075Y3437D01*
X74129Y3446D01*
X74182Y3460D01*
X74233Y3477D01*
X74284Y3498D01*
X74332Y3522D01*
X74379Y3550D01*
X74424Y3581D01*
X74466Y3615D01*
X74506Y3652D01*
X74543Y3692D01*
X74577Y3734D01*
X74608Y3779D01*
X74636Y3826D01*
X74660Y3874D01*
X74681Y3925D01*
X74698Y3976D01*
X74712Y4029D01*
X74721Y4083D01*
X74727Y4137D01*
X74729Y4191D01*
X74729Y5715D01*
X74727Y5769D01*
X74721Y5823D01*
X74712Y5877D01*
X74698Y5930D01*
X74681Y5981D01*
X74660Y6032D01*
X74636Y6080D01*
X74608Y6127D01*
X74577Y6172D01*
X74543Y6214D01*
X74506Y6254D01*
X74466Y6291D01*
X74424Y6325D01*
X74379Y6356D01*
X74332Y6384D01*
X74284Y6408D01*
X74233Y6429D01*
X74182Y6446D01*
X74129Y6460D01*
X74075Y6469D01*
X74021Y6475D01*
X73967Y6477D01*
X72697Y6477D01*
X70638Y6477D02*
X70638Y3429D01*
X70765Y7747D02*
X70765Y8001D01*
X70511Y8001D01*
X70511Y7747D01*
X70765Y7747D01*
X68580Y8001D02*
X68580Y3429D01*
X67310Y3429D01*
X67256Y3431D01*
X67202Y3437D01*
X67148Y3446D01*
X67095Y3460D01*
X67044Y3477D01*
X66993Y3498D01*
X66945Y3522D01*
X66898Y3550D01*
X66853Y3581D01*
X66811Y3615D01*
X66771Y3652D01*
X66734Y3692D01*
X66700Y3734D01*
X66669Y3779D01*
X66641Y3826D01*
X66617Y3874D01*
X66596Y3925D01*
X66579Y3976D01*
X66565Y4029D01*
X66556Y4083D01*
X66550Y4137D01*
X66548Y4191D01*
X66548Y5715D01*
X66550Y5769D01*
X66556Y5823D01*
X66565Y5877D01*
X66579Y5930D01*
X66596Y5981D01*
X66617Y6032D01*
X66641Y6080D01*
X66669Y6127D01*
X66700Y6172D01*
X66734Y6214D01*
X66771Y6254D01*
X66811Y6291D01*
X66853Y6325D01*
X66898Y6356D01*
X66945Y6384D01*
X66993Y6408D01*
X67044Y6429D01*
X67095Y6446D01*
X67148Y6460D01*
X67202Y6469D01*
X67256Y6475D01*
X67310Y6477D01*
X68580Y6477D01*
X64644Y5461D02*
X64644Y4445D01*
X64644Y5461D02*
X64642Y5524D01*
X64636Y5586D01*
X64627Y5648D01*
X64613Y5709D01*
X64596Y5769D01*
X64575Y5828D01*
X64551Y5886D01*
X64523Y5942D01*
X64492Y5996D01*
X64457Y6048D01*
X64420Y6098D01*
X64379Y6145D01*
X64335Y6190D01*
X64289Y6233D01*
X64240Y6272D01*
X64189Y6308D01*
X64136Y6341D01*
X64081Y6370D01*
X64024Y6397D01*
X63966Y6419D01*
X63906Y6438D01*
X63845Y6453D01*
X63784Y6465D01*
X63722Y6473D01*
X63659Y6477D01*
X63597Y6477D01*
X63534Y6473D01*
X63472Y6465D01*
X63411Y6453D01*
X63350Y6438D01*
X63290Y6419D01*
X63232Y6397D01*
X63175Y6370D01*
X63120Y6341D01*
X63067Y6308D01*
X63016Y6272D01*
X62967Y6233D01*
X62921Y6190D01*
X62877Y6145D01*
X62836Y6098D01*
X62799Y6048D01*
X62764Y5996D01*
X62733Y5942D01*
X62705Y5886D01*
X62681Y5828D01*
X62660Y5769D01*
X62643Y5709D01*
X62629Y5648D01*
X62620Y5586D01*
X62614Y5524D01*
X62612Y5461D01*
X62612Y4445D01*
X62614Y4382D01*
X62620Y4320D01*
X62629Y4258D01*
X62643Y4197D01*
X62660Y4137D01*
X62681Y4078D01*
X62705Y4020D01*
X62733Y3964D01*
X62764Y3910D01*
X62799Y3858D01*
X62836Y3808D01*
X62877Y3761D01*
X62921Y3716D01*
X62967Y3673D01*
X63016Y3634D01*
X63067Y3598D01*
X63120Y3565D01*
X63175Y3536D01*
X63232Y3509D01*
X63290Y3487D01*
X63350Y3468D01*
X63411Y3453D01*
X63472Y3441D01*
X63534Y3433D01*
X63597Y3429D01*
X63659Y3429D01*
X63722Y3433D01*
X63784Y3441D01*
X63845Y3453D01*
X63906Y3468D01*
X63966Y3487D01*
X64024Y3509D01*
X64081Y3536D01*
X64136Y3565D01*
X64189Y3598D01*
X64240Y3634D01*
X64289Y3673D01*
X64335Y3716D01*
X64379Y3761D01*
X64420Y3808D01*
X64457Y3858D01*
X64492Y3910D01*
X64523Y3964D01*
X64551Y4020D01*
X64575Y4078D01*
X64596Y4137D01*
X64613Y4197D01*
X64627Y4258D01*
X64636Y4320D01*
X64642Y4382D01*
X64644Y4445D01*
X60529Y3429D02*
X60529Y6477D01*
X59259Y6477D01*
X59205Y6475D01*
X59151Y6469D01*
X59097Y6460D01*
X59044Y6446D01*
X58993Y6429D01*
X58942Y6408D01*
X58894Y6384D01*
X58847Y6356D01*
X58802Y6325D01*
X58760Y6291D01*
X58720Y6254D01*
X58683Y6214D01*
X58649Y6172D01*
X58618Y6127D01*
X58590Y6080D01*
X58566Y6032D01*
X58545Y5981D01*
X58528Y5930D01*
X58514Y5877D01*
X58505Y5823D01*
X58499Y5769D01*
X58497Y5715D01*
X58497Y3429D01*
X55552Y5207D02*
X54409Y5207D01*
X55552Y5207D02*
X55610Y5205D01*
X55668Y5199D01*
X55725Y5190D01*
X55782Y5177D01*
X55838Y5160D01*
X55892Y5139D01*
X55945Y5115D01*
X55996Y5088D01*
X56046Y5057D01*
X56093Y5023D01*
X56138Y4986D01*
X56181Y4947D01*
X56220Y4904D01*
X56257Y4859D01*
X56291Y4812D01*
X56322Y4763D01*
X56349Y4711D01*
X56373Y4658D01*
X56394Y4604D01*
X56411Y4548D01*
X56424Y4491D01*
X56433Y4434D01*
X56439Y4376D01*
X56441Y4318D01*
X56439Y4260D01*
X56433Y4202D01*
X56424Y4145D01*
X56411Y4088D01*
X56394Y4032D01*
X56373Y3978D01*
X56349Y3925D01*
X56322Y3874D01*
X56291Y3824D01*
X56257Y3777D01*
X56220Y3732D01*
X56181Y3689D01*
X56138Y3650D01*
X56093Y3613D01*
X56046Y3579D01*
X55997Y3548D01*
X55945Y3521D01*
X55892Y3497D01*
X55838Y3476D01*
X55782Y3459D01*
X55725Y3446D01*
X55668Y3437D01*
X55610Y3431D01*
X55552Y3429D01*
X54409Y3429D01*
X54409Y5715D01*
X54411Y5769D01*
X54417Y5823D01*
X54426Y5877D01*
X54440Y5930D01*
X54457Y5981D01*
X54478Y6032D01*
X54502Y6080D01*
X54530Y6127D01*
X54561Y6172D01*
X54595Y6214D01*
X54632Y6254D01*
X54672Y6291D01*
X54714Y6325D01*
X54759Y6356D01*
X54806Y6384D01*
X54854Y6408D01*
X54905Y6429D01*
X54956Y6446D01*
X55009Y6460D01*
X55063Y6469D01*
X55117Y6475D01*
X55171Y6477D01*
X56187Y6477D01*
X50852Y8001D02*
X50786Y7999D01*
X50719Y7993D01*
X50654Y7984D01*
X50588Y7970D01*
X50524Y7953D01*
X50461Y7932D01*
X50399Y7908D01*
X50339Y7879D01*
X50281Y7848D01*
X50224Y7813D01*
X50169Y7775D01*
X50117Y7734D01*
X50068Y7689D01*
X50021Y7642D01*
X49976Y7593D01*
X49935Y7541D01*
X49897Y7486D01*
X49862Y7430D01*
X49831Y7371D01*
X49802Y7311D01*
X49778Y7249D01*
X49757Y7186D01*
X49740Y7122D01*
X49726Y7056D01*
X49717Y6991D01*
X49711Y6924D01*
X49709Y6858D01*
X50852Y8001D02*
X50926Y7999D01*
X50999Y7994D01*
X51073Y7984D01*
X51145Y7971D01*
X51217Y7955D01*
X51288Y7935D01*
X51358Y7911D01*
X51427Y7884D01*
X51494Y7853D01*
X51560Y7819D01*
X51623Y7782D01*
X51685Y7742D01*
X51745Y7698D01*
X51802Y7652D01*
X51858Y7603D01*
X51910Y7551D01*
X51960Y7496D01*
X52007Y7439D01*
X52051Y7380D01*
X52092Y7319D01*
X52130Y7255D01*
X52165Y7190D01*
X52196Y7123D01*
X52224Y7055D01*
X52249Y6985D01*
X50090Y5969D02*
X50043Y6016D01*
X49999Y6065D01*
X49958Y6117D01*
X49919Y6171D01*
X49884Y6227D01*
X49851Y6285D01*
X49822Y6344D01*
X49796Y6405D01*
X49773Y6467D01*
X49753Y6531D01*
X49738Y6595D01*
X49725Y6660D01*
X49716Y6726D01*
X49711Y6792D01*
X49709Y6858D01*
X50090Y5969D02*
X52249Y3429D01*
X49709Y3429D01*
X47677Y7493D02*
X47677Y8001D01*
X45137Y8001D01*
X46407Y3429D01*
X43308Y2921D02*
X41276Y8509D01*
X39319Y6477D02*
X39319Y1905D01*
X39319Y6477D02*
X38049Y6477D01*
X37995Y6475D01*
X37941Y6469D01*
X37887Y6460D01*
X37834Y6446D01*
X37783Y6429D01*
X37732Y6408D01*
X37684Y6384D01*
X37637Y6356D01*
X37592Y6325D01*
X37550Y6291D01*
X37510Y6254D01*
X37473Y6214D01*
X37439Y6172D01*
X37408Y6127D01*
X37380Y6080D01*
X37356Y6032D01*
X37335Y5981D01*
X37318Y5930D01*
X37304Y5877D01*
X37295Y5823D01*
X37289Y5769D01*
X37287Y5715D01*
X37287Y4191D01*
X37289Y4137D01*
X37295Y4083D01*
X37304Y4029D01*
X37318Y3976D01*
X37335Y3925D01*
X37356Y3874D01*
X37380Y3826D01*
X37408Y3779D01*
X37439Y3734D01*
X37473Y3692D01*
X37510Y3652D01*
X37550Y3615D01*
X37592Y3581D01*
X37637Y3550D01*
X37684Y3522D01*
X37732Y3498D01*
X37783Y3477D01*
X37834Y3460D01*
X37887Y3446D01*
X37941Y3437D01*
X37995Y3431D01*
X38049Y3429D01*
X39319Y3429D01*
X34622Y3429D02*
X33352Y3429D01*
X34622Y3429D02*
X34676Y3431D01*
X34730Y3437D01*
X34784Y3446D01*
X34837Y3460D01*
X34888Y3477D01*
X34939Y3498D01*
X34987Y3522D01*
X35034Y3550D01*
X35079Y3581D01*
X35121Y3615D01*
X35161Y3652D01*
X35198Y3692D01*
X35232Y3734D01*
X35263Y3779D01*
X35291Y3826D01*
X35315Y3874D01*
X35336Y3925D01*
X35353Y3976D01*
X35367Y4029D01*
X35376Y4083D01*
X35382Y4137D01*
X35384Y4191D01*
X35384Y5461D01*
X35382Y5524D01*
X35376Y5586D01*
X35367Y5648D01*
X35353Y5709D01*
X35336Y5769D01*
X35315Y5828D01*
X35291Y5886D01*
X35263Y5942D01*
X35232Y5996D01*
X35197Y6048D01*
X35160Y6098D01*
X35119Y6145D01*
X35075Y6190D01*
X35029Y6233D01*
X34980Y6272D01*
X34929Y6308D01*
X34876Y6341D01*
X34821Y6370D01*
X34764Y6397D01*
X34706Y6419D01*
X34646Y6438D01*
X34585Y6453D01*
X34524Y6465D01*
X34462Y6473D01*
X34399Y6477D01*
X34337Y6477D01*
X34274Y6473D01*
X34212Y6465D01*
X34151Y6453D01*
X34090Y6438D01*
X34030Y6419D01*
X33972Y6397D01*
X33915Y6370D01*
X33860Y6341D01*
X33807Y6308D01*
X33756Y6272D01*
X33707Y6233D01*
X33661Y6190D01*
X33617Y6145D01*
X33576Y6098D01*
X33539Y6048D01*
X33504Y5996D01*
X33473Y5942D01*
X33445Y5886D01*
X33421Y5828D01*
X33400Y5769D01*
X33383Y5709D01*
X33369Y5648D01*
X33360Y5586D01*
X33354Y5524D01*
X33352Y5461D01*
X33352Y4953D01*
X35384Y4953D01*
X29416Y3429D02*
X29416Y8001D01*
X29416Y3429D02*
X30686Y3429D01*
X30740Y3431D01*
X30794Y3437D01*
X30848Y3446D01*
X30901Y3460D01*
X30952Y3477D01*
X31003Y3498D01*
X31051Y3522D01*
X31098Y3550D01*
X31143Y3581D01*
X31185Y3615D01*
X31225Y3652D01*
X31262Y3692D01*
X31296Y3734D01*
X31327Y3779D01*
X31355Y3826D01*
X31379Y3874D01*
X31400Y3925D01*
X31417Y3976D01*
X31431Y4029D01*
X31440Y4083D01*
X31446Y4137D01*
X31448Y4191D01*
X31448Y5715D01*
X31446Y5769D01*
X31440Y5823D01*
X31431Y5877D01*
X31417Y5930D01*
X31400Y5981D01*
X31379Y6032D01*
X31355Y6080D01*
X31327Y6127D01*
X31296Y6172D01*
X31262Y6214D01*
X31225Y6254D01*
X31185Y6291D01*
X31143Y6325D01*
X31098Y6356D01*
X31051Y6384D01*
X31003Y6408D01*
X30952Y6429D01*
X30901Y6446D01*
X30848Y6460D01*
X30794Y6469D01*
X30740Y6475D01*
X30686Y6477D01*
X29416Y6477D01*
X27306Y5461D02*
X27306Y4445D01*
X27306Y5461D02*
X27304Y5524D01*
X27298Y5586D01*
X27289Y5648D01*
X27275Y5709D01*
X27258Y5769D01*
X27237Y5828D01*
X27213Y5886D01*
X27185Y5942D01*
X27154Y5996D01*
X27119Y6048D01*
X27082Y6098D01*
X27041Y6145D01*
X26997Y6190D01*
X26951Y6233D01*
X26902Y6272D01*
X26851Y6308D01*
X26798Y6341D01*
X26743Y6370D01*
X26686Y6397D01*
X26628Y6419D01*
X26568Y6438D01*
X26507Y6453D01*
X26446Y6465D01*
X26384Y6473D01*
X26321Y6477D01*
X26259Y6477D01*
X26196Y6473D01*
X26134Y6465D01*
X26073Y6453D01*
X26012Y6438D01*
X25952Y6419D01*
X25894Y6397D01*
X25837Y6370D01*
X25782Y6341D01*
X25729Y6308D01*
X25678Y6272D01*
X25629Y6233D01*
X25583Y6190D01*
X25539Y6145D01*
X25498Y6098D01*
X25461Y6048D01*
X25426Y5996D01*
X25395Y5942D01*
X25367Y5886D01*
X25343Y5828D01*
X25322Y5769D01*
X25305Y5709D01*
X25291Y5648D01*
X25282Y5586D01*
X25276Y5524D01*
X25274Y5461D01*
X25274Y4445D01*
X25276Y4382D01*
X25282Y4320D01*
X25291Y4258D01*
X25305Y4197D01*
X25322Y4137D01*
X25343Y4078D01*
X25367Y4020D01*
X25395Y3964D01*
X25426Y3910D01*
X25461Y3858D01*
X25498Y3808D01*
X25539Y3761D01*
X25583Y3716D01*
X25629Y3673D01*
X25678Y3634D01*
X25729Y3598D01*
X25782Y3565D01*
X25837Y3536D01*
X25894Y3509D01*
X25952Y3487D01*
X26012Y3468D01*
X26073Y3453D01*
X26134Y3441D01*
X26196Y3433D01*
X26259Y3429D01*
X26321Y3429D01*
X26384Y3433D01*
X26446Y3441D01*
X26507Y3453D01*
X26568Y3468D01*
X26628Y3487D01*
X26686Y3509D01*
X26743Y3536D01*
X26798Y3565D01*
X26851Y3598D01*
X26902Y3634D01*
X26951Y3673D01*
X26997Y3716D01*
X27041Y3761D01*
X27082Y3808D01*
X27119Y3858D01*
X27154Y3910D01*
X27185Y3964D01*
X27213Y4020D01*
X27237Y4078D01*
X27258Y4137D01*
X27275Y4197D01*
X27289Y4258D01*
X27298Y4320D01*
X27304Y4382D01*
X27306Y4445D01*
X23090Y3429D02*
X23090Y6477D01*
X20804Y6477D01*
X20750Y6475D01*
X20696Y6469D01*
X20642Y6460D01*
X20589Y6446D01*
X20538Y6429D01*
X20487Y6408D01*
X20439Y6384D01*
X20392Y6356D01*
X20347Y6325D01*
X20305Y6291D01*
X20265Y6254D01*
X20228Y6214D01*
X20194Y6172D01*
X20163Y6127D01*
X20135Y6080D01*
X20111Y6032D01*
X20090Y5981D01*
X20073Y5930D01*
X20059Y5877D01*
X20050Y5823D01*
X20044Y5769D01*
X20042Y5715D01*
X20042Y3429D01*
X21566Y3429D02*
X21566Y6477D01*
X17096Y3429D02*
X15826Y3429D01*
X17096Y3429D02*
X17150Y3431D01*
X17204Y3437D01*
X17258Y3446D01*
X17311Y3460D01*
X17362Y3477D01*
X17413Y3498D01*
X17461Y3522D01*
X17508Y3550D01*
X17553Y3581D01*
X17595Y3615D01*
X17635Y3652D01*
X17672Y3692D01*
X17706Y3734D01*
X17737Y3779D01*
X17765Y3826D01*
X17789Y3874D01*
X17810Y3925D01*
X17827Y3976D01*
X17841Y4029D01*
X17850Y4083D01*
X17856Y4137D01*
X17858Y4191D01*
X17858Y5461D01*
X17856Y5524D01*
X17850Y5586D01*
X17841Y5648D01*
X17827Y5709D01*
X17810Y5769D01*
X17789Y5828D01*
X17765Y5886D01*
X17737Y5942D01*
X17706Y5996D01*
X17671Y6048D01*
X17634Y6098D01*
X17593Y6145D01*
X17549Y6190D01*
X17503Y6233D01*
X17454Y6272D01*
X17403Y6308D01*
X17350Y6341D01*
X17295Y6370D01*
X17238Y6397D01*
X17180Y6419D01*
X17120Y6438D01*
X17059Y6453D01*
X16998Y6465D01*
X16936Y6473D01*
X16873Y6477D01*
X16811Y6477D01*
X16748Y6473D01*
X16686Y6465D01*
X16625Y6453D01*
X16564Y6438D01*
X16504Y6419D01*
X16446Y6397D01*
X16389Y6370D01*
X16334Y6341D01*
X16281Y6308D01*
X16230Y6272D01*
X16181Y6233D01*
X16135Y6190D01*
X16091Y6145D01*
X16050Y6098D01*
X16013Y6048D01*
X15978Y5996D01*
X15947Y5942D01*
X15919Y5886D01*
X15895Y5828D01*
X15874Y5769D01*
X15857Y5709D01*
X15843Y5648D01*
X15834Y5586D01*
X15828Y5524D01*
X15826Y5461D01*
X15826Y4953D01*
X17858Y4953D01*
X14293Y6477D02*
X12769Y6477D01*
X13785Y8001D02*
X13785Y4191D01*
X13783Y4137D01*
X13777Y4083D01*
X13768Y4029D01*
X13754Y3976D01*
X13737Y3925D01*
X13716Y3874D01*
X13692Y3826D01*
X13664Y3779D01*
X13633Y3734D01*
X13599Y3692D01*
X13562Y3652D01*
X13522Y3615D01*
X13480Y3581D01*
X13435Y3550D01*
X13388Y3522D01*
X13340Y3498D01*
X13289Y3477D01*
X13238Y3460D01*
X13185Y3446D01*
X13131Y3437D01*
X13077Y3431D01*
X13023Y3429D01*
X12769Y3429D01*
X10238Y3429D02*
X8968Y3429D01*
X10238Y3429D02*
X10292Y3431D01*
X10346Y3437D01*
X10400Y3446D01*
X10453Y3460D01*
X10504Y3477D01*
X10555Y3498D01*
X10603Y3522D01*
X10650Y3550D01*
X10695Y3581D01*
X10737Y3615D01*
X10777Y3652D01*
X10814Y3692D01*
X10848Y3734D01*
X10879Y3779D01*
X10907Y3826D01*
X10931Y3874D01*
X10952Y3925D01*
X10969Y3976D01*
X10983Y4029D01*
X10992Y4083D01*
X10998Y4137D01*
X11000Y4191D01*
X11000Y5461D01*
X10998Y5524D01*
X10992Y5586D01*
X10983Y5648D01*
X10969Y5709D01*
X10952Y5769D01*
X10931Y5828D01*
X10907Y5886D01*
X10879Y5942D01*
X10848Y5996D01*
X10813Y6048D01*
X10776Y6098D01*
X10735Y6145D01*
X10691Y6190D01*
X10645Y6233D01*
X10596Y6272D01*
X10545Y6308D01*
X10492Y6341D01*
X10437Y6370D01*
X10380Y6397D01*
X10322Y6419D01*
X10262Y6438D01*
X10201Y6453D01*
X10140Y6465D01*
X10078Y6473D01*
X10015Y6477D01*
X9953Y6477D01*
X9890Y6473D01*
X9828Y6465D01*
X9767Y6453D01*
X9706Y6438D01*
X9646Y6419D01*
X9588Y6397D01*
X9531Y6370D01*
X9476Y6341D01*
X9423Y6308D01*
X9372Y6272D01*
X9323Y6233D01*
X9277Y6190D01*
X9233Y6145D01*
X9192Y6098D01*
X9155Y6048D01*
X9120Y5996D01*
X9089Y5942D01*
X9061Y5886D01*
X9037Y5828D01*
X9016Y5769D01*
X8999Y5709D01*
X8985Y5648D01*
X8976Y5586D01*
X8970Y5524D01*
X8968Y5461D01*
X8968Y4953D01*
X11000Y4953D01*
X6855Y3429D02*
X6855Y6477D01*
X5331Y6477D01*
X5331Y5969D01*
X82804Y25019D02*
X84836Y25019D01*
X84836Y29591D01*
X82804Y29591D01*
X83312Y27559D02*
X84836Y27559D01*
X80035Y25019D02*
X79019Y25019D01*
X80035Y25019D02*
X80096Y25021D01*
X80157Y25026D01*
X80218Y25036D01*
X80278Y25049D01*
X80337Y25065D01*
X80395Y25085D01*
X80452Y25109D01*
X80507Y25135D01*
X80561Y25166D01*
X80612Y25199D01*
X80662Y25235D01*
X80709Y25275D01*
X80753Y25317D01*
X80795Y25361D01*
X80835Y25408D01*
X80871Y25458D01*
X80904Y25509D01*
X80935Y25563D01*
X80961Y25618D01*
X80985Y25675D01*
X81005Y25733D01*
X81021Y25792D01*
X81034Y25852D01*
X81044Y25913D01*
X81049Y25974D01*
X81051Y26035D01*
X81051Y28575D01*
X81049Y28636D01*
X81044Y28697D01*
X81034Y28758D01*
X81021Y28818D01*
X81005Y28877D01*
X80985Y28935D01*
X80961Y28992D01*
X80935Y29047D01*
X80904Y29101D01*
X80871Y29152D01*
X80835Y29202D01*
X80795Y29249D01*
X80753Y29293D01*
X80709Y29335D01*
X80662Y29375D01*
X80612Y29411D01*
X80561Y29444D01*
X80507Y29475D01*
X80452Y29501D01*
X80395Y29525D01*
X80337Y29545D01*
X80278Y29561D01*
X80218Y29574D01*
X80157Y29584D01*
X80096Y29589D01*
X80035Y29591D01*
X79019Y29591D01*
X77064Y25019D02*
X75032Y25019D01*
X77064Y25019D02*
X77064Y29591D01*
X75032Y29591D01*
X75540Y27559D02*
X77064Y27559D01*
X70826Y25019D02*
X69556Y25019D01*
X69486Y25021D01*
X69416Y25027D01*
X69347Y25036D01*
X69278Y25050D01*
X69210Y25067D01*
X69144Y25088D01*
X69078Y25112D01*
X69014Y25140D01*
X68952Y25172D01*
X68891Y25207D01*
X68832Y25245D01*
X68776Y25287D01*
X68722Y25331D01*
X68670Y25379D01*
X68622Y25429D01*
X68576Y25482D01*
X68533Y25537D01*
X68493Y25594D01*
X68456Y25654D01*
X68423Y25716D01*
X68393Y25779D01*
X68367Y25844D01*
X68344Y25910D01*
X68325Y25977D01*
X68310Y26046D01*
X68298Y26115D01*
X68290Y26184D01*
X68286Y26254D01*
X68286Y26324D01*
X68290Y26394D01*
X68298Y26463D01*
X68310Y26532D01*
X68325Y26601D01*
X68344Y26668D01*
X68367Y26734D01*
X68393Y26799D01*
X68423Y26862D01*
X68456Y26924D01*
X68493Y26984D01*
X68533Y27041D01*
X68576Y27096D01*
X68622Y27149D01*
X68670Y27199D01*
X68722Y27247D01*
X68776Y27291D01*
X68832Y27333D01*
X68891Y27371D01*
X68952Y27406D01*
X69014Y27438D01*
X69078Y27466D01*
X69144Y27490D01*
X69210Y27511D01*
X69278Y27528D01*
X69347Y27542D01*
X69416Y27551D01*
X69486Y27557D01*
X69556Y27559D01*
X69302Y29591D02*
X70826Y29591D01*
X69302Y29591D02*
X69239Y29589D01*
X69177Y29583D01*
X69115Y29574D01*
X69054Y29560D01*
X68994Y29543D01*
X68935Y29522D01*
X68877Y29498D01*
X68821Y29470D01*
X68767Y29439D01*
X68715Y29404D01*
X68665Y29367D01*
X68618Y29326D01*
X68573Y29282D01*
X68530Y29236D01*
X68491Y29187D01*
X68455Y29136D01*
X68422Y29083D01*
X68393Y29028D01*
X68366Y28971D01*
X68344Y28913D01*
X68325Y28853D01*
X68310Y28792D01*
X68298Y28731D01*
X68290Y28669D01*
X68286Y28606D01*
X68286Y28544D01*
X68290Y28481D01*
X68298Y28419D01*
X68310Y28358D01*
X68325Y28297D01*
X68344Y28237D01*
X68366Y28179D01*
X68393Y28122D01*
X68422Y28067D01*
X68455Y28014D01*
X68491Y27963D01*
X68530Y27914D01*
X68573Y27868D01*
X68618Y27824D01*
X68665Y27783D01*
X68715Y27746D01*
X68767Y27711D01*
X68821Y27680D01*
X68877Y27652D01*
X68935Y27628D01*
X68994Y27607D01*
X69054Y27590D01*
X69115Y27576D01*
X69177Y27567D01*
X69239Y27561D01*
X69302Y27559D01*
X70318Y27559D01*
X66254Y26289D02*
X66252Y26359D01*
X66246Y26429D01*
X66237Y26498D01*
X66223Y26567D01*
X66206Y26635D01*
X66185Y26701D01*
X66161Y26767D01*
X66133Y26831D01*
X66101Y26893D01*
X66066Y26954D01*
X66028Y27013D01*
X65986Y27069D01*
X65942Y27123D01*
X65894Y27175D01*
X65844Y27223D01*
X65791Y27269D01*
X65736Y27312D01*
X65679Y27352D01*
X65619Y27389D01*
X65557Y27422D01*
X65494Y27452D01*
X65429Y27478D01*
X65363Y27501D01*
X65296Y27520D01*
X65227Y27535D01*
X65158Y27547D01*
X65089Y27555D01*
X65019Y27559D01*
X64949Y27559D01*
X64879Y27555D01*
X64810Y27547D01*
X64741Y27535D01*
X64672Y27520D01*
X64605Y27501D01*
X64539Y27478D01*
X64474Y27452D01*
X64411Y27422D01*
X64349Y27389D01*
X64289Y27352D01*
X64232Y27312D01*
X64177Y27269D01*
X64124Y27223D01*
X64074Y27175D01*
X64026Y27123D01*
X63982Y27069D01*
X63940Y27013D01*
X63902Y26954D01*
X63867Y26893D01*
X63835Y26831D01*
X63807Y26767D01*
X63783Y26701D01*
X63762Y26635D01*
X63745Y26567D01*
X63731Y26498D01*
X63722Y26429D01*
X63716Y26359D01*
X63714Y26289D01*
X63716Y26219D01*
X63722Y26149D01*
X63731Y26080D01*
X63745Y26011D01*
X63762Y25943D01*
X63783Y25877D01*
X63807Y25811D01*
X63835Y25747D01*
X63867Y25685D01*
X63902Y25624D01*
X63940Y25565D01*
X63982Y25509D01*
X64026Y25455D01*
X64074Y25403D01*
X64124Y25355D01*
X64177Y25309D01*
X64232Y25266D01*
X64289Y25226D01*
X64349Y25189D01*
X64411Y25156D01*
X64474Y25126D01*
X64539Y25100D01*
X64605Y25077D01*
X64672Y25058D01*
X64741Y25043D01*
X64810Y25031D01*
X64879Y25023D01*
X64949Y25019D01*
X65019Y25019D01*
X65089Y25023D01*
X65158Y25031D01*
X65227Y25043D01*
X65296Y25058D01*
X65363Y25077D01*
X65429Y25100D01*
X65494Y25126D01*
X65557Y25156D01*
X65619Y25189D01*
X65679Y25226D01*
X65736Y25266D01*
X65791Y25309D01*
X65844Y25355D01*
X65894Y25403D01*
X65942Y25455D01*
X65986Y25509D01*
X66028Y25565D01*
X66066Y25624D01*
X66101Y25685D01*
X66133Y25747D01*
X66161Y25811D01*
X66185Y25877D01*
X66206Y25943D01*
X66223Y26011D01*
X66237Y26080D01*
X66246Y26149D01*
X66252Y26219D01*
X66254Y26289D01*
X66000Y28575D02*
X65998Y28638D01*
X65992Y28700D01*
X65983Y28762D01*
X65969Y28823D01*
X65952Y28883D01*
X65931Y28942D01*
X65907Y29000D01*
X65879Y29056D01*
X65848Y29110D01*
X65813Y29162D01*
X65776Y29212D01*
X65735Y29259D01*
X65691Y29304D01*
X65645Y29347D01*
X65596Y29386D01*
X65545Y29422D01*
X65492Y29455D01*
X65437Y29484D01*
X65380Y29511D01*
X65322Y29533D01*
X65262Y29552D01*
X65201Y29567D01*
X65140Y29579D01*
X65078Y29587D01*
X65015Y29591D01*
X64953Y29591D01*
X64890Y29587D01*
X64828Y29579D01*
X64767Y29567D01*
X64706Y29552D01*
X64646Y29533D01*
X64588Y29511D01*
X64531Y29484D01*
X64476Y29455D01*
X64423Y29422D01*
X64372Y29386D01*
X64323Y29347D01*
X64277Y29304D01*
X64233Y29259D01*
X64192Y29212D01*
X64155Y29162D01*
X64120Y29110D01*
X64089Y29056D01*
X64061Y29000D01*
X64037Y28942D01*
X64016Y28883D01*
X63999Y28823D01*
X63985Y28762D01*
X63976Y28700D01*
X63970Y28638D01*
X63968Y28575D01*
X63970Y28512D01*
X63976Y28450D01*
X63985Y28388D01*
X63999Y28327D01*
X64016Y28267D01*
X64037Y28208D01*
X64061Y28150D01*
X64089Y28094D01*
X64120Y28040D01*
X64155Y27988D01*
X64192Y27938D01*
X64233Y27891D01*
X64277Y27846D01*
X64323Y27803D01*
X64372Y27764D01*
X64423Y27728D01*
X64476Y27695D01*
X64531Y27666D01*
X64588Y27639D01*
X64646Y27617D01*
X64706Y27598D01*
X64767Y27583D01*
X64828Y27571D01*
X64890Y27563D01*
X64953Y27559D01*
X65015Y27559D01*
X65078Y27563D01*
X65140Y27571D01*
X65201Y27583D01*
X65262Y27598D01*
X65322Y27617D01*
X65380Y27639D01*
X65437Y27666D01*
X65492Y27695D01*
X65545Y27728D01*
X65596Y27764D01*
X65645Y27803D01*
X65691Y27846D01*
X65735Y27891D01*
X65776Y27938D01*
X65813Y27988D01*
X65848Y28040D01*
X65879Y28094D01*
X65907Y28150D01*
X65931Y28208D01*
X65952Y28267D01*
X65969Y28327D01*
X65983Y28388D01*
X65992Y28450D01*
X65998Y28512D01*
X66000Y28575D01*
X61682Y26289D02*
X61680Y26359D01*
X61674Y26429D01*
X61665Y26498D01*
X61651Y26567D01*
X61634Y26635D01*
X61613Y26701D01*
X61589Y26767D01*
X61561Y26831D01*
X61529Y26893D01*
X61494Y26954D01*
X61456Y27013D01*
X61414Y27069D01*
X61370Y27123D01*
X61322Y27175D01*
X61272Y27223D01*
X61219Y27269D01*
X61164Y27312D01*
X61107Y27352D01*
X61047Y27389D01*
X60985Y27422D01*
X60922Y27452D01*
X60857Y27478D01*
X60791Y27501D01*
X60724Y27520D01*
X60655Y27535D01*
X60586Y27547D01*
X60517Y27555D01*
X60447Y27559D01*
X60377Y27559D01*
X60307Y27555D01*
X60238Y27547D01*
X60169Y27535D01*
X60100Y27520D01*
X60033Y27501D01*
X59967Y27478D01*
X59902Y27452D01*
X59839Y27422D01*
X59777Y27389D01*
X59717Y27352D01*
X59660Y27312D01*
X59605Y27269D01*
X59552Y27223D01*
X59502Y27175D01*
X59454Y27123D01*
X59410Y27069D01*
X59368Y27013D01*
X59330Y26954D01*
X59295Y26893D01*
X59263Y26831D01*
X59235Y26767D01*
X59211Y26701D01*
X59190Y26635D01*
X59173Y26567D01*
X59159Y26498D01*
X59150Y26429D01*
X59144Y26359D01*
X59142Y26289D01*
X59144Y26219D01*
X59150Y26149D01*
X59159Y26080D01*
X59173Y26011D01*
X59190Y25943D01*
X59211Y25877D01*
X59235Y25811D01*
X59263Y25747D01*
X59295Y25685D01*
X59330Y25624D01*
X59368Y25565D01*
X59410Y25509D01*
X59454Y25455D01*
X59502Y25403D01*
X59552Y25355D01*
X59605Y25309D01*
X59660Y25266D01*
X59717Y25226D01*
X59777Y25189D01*
X59839Y25156D01*
X59902Y25126D01*
X59967Y25100D01*
X60033Y25077D01*
X60100Y25058D01*
X60169Y25043D01*
X60238Y25031D01*
X60307Y25023D01*
X60377Y25019D01*
X60447Y25019D01*
X60517Y25023D01*
X60586Y25031D01*
X60655Y25043D01*
X60724Y25058D01*
X60791Y25077D01*
X60857Y25100D01*
X60922Y25126D01*
X60985Y25156D01*
X61047Y25189D01*
X61107Y25226D01*
X61164Y25266D01*
X61219Y25309D01*
X61272Y25355D01*
X61322Y25403D01*
X61370Y25455D01*
X61414Y25509D01*
X61456Y25565D01*
X61494Y25624D01*
X61529Y25685D01*
X61561Y25747D01*
X61589Y25811D01*
X61613Y25877D01*
X61634Y25943D01*
X61651Y26011D01*
X61665Y26080D01*
X61674Y26149D01*
X61680Y26219D01*
X61682Y26289D01*
X61428Y28575D02*
X61426Y28638D01*
X61420Y28700D01*
X61411Y28762D01*
X61397Y28823D01*
X61380Y28883D01*
X61359Y28942D01*
X61335Y29000D01*
X61307Y29056D01*
X61276Y29110D01*
X61241Y29162D01*
X61204Y29212D01*
X61163Y29259D01*
X61119Y29304D01*
X61073Y29347D01*
X61024Y29386D01*
X60973Y29422D01*
X60920Y29455D01*
X60865Y29484D01*
X60808Y29511D01*
X60750Y29533D01*
X60690Y29552D01*
X60629Y29567D01*
X60568Y29579D01*
X60506Y29587D01*
X60443Y29591D01*
X60381Y29591D01*
X60318Y29587D01*
X60256Y29579D01*
X60195Y29567D01*
X60134Y29552D01*
X60074Y29533D01*
X60016Y29511D01*
X59959Y29484D01*
X59904Y29455D01*
X59851Y29422D01*
X59800Y29386D01*
X59751Y29347D01*
X59705Y29304D01*
X59661Y29259D01*
X59620Y29212D01*
X59583Y29162D01*
X59548Y29110D01*
X59517Y29056D01*
X59489Y29000D01*
X59465Y28942D01*
X59444Y28883D01*
X59427Y28823D01*
X59413Y28762D01*
X59404Y28700D01*
X59398Y28638D01*
X59396Y28575D01*
X59398Y28512D01*
X59404Y28450D01*
X59413Y28388D01*
X59427Y28327D01*
X59444Y28267D01*
X59465Y28208D01*
X59489Y28150D01*
X59517Y28094D01*
X59548Y28040D01*
X59583Y27988D01*
X59620Y27938D01*
X59661Y27891D01*
X59705Y27846D01*
X59751Y27803D01*
X59800Y27764D01*
X59851Y27728D01*
X59904Y27695D01*
X59959Y27666D01*
X60016Y27639D01*
X60074Y27617D01*
X60134Y27598D01*
X60195Y27583D01*
X60256Y27571D01*
X60318Y27563D01*
X60381Y27559D01*
X60443Y27559D01*
X60506Y27563D01*
X60568Y27571D01*
X60629Y27583D01*
X60690Y27598D01*
X60750Y27617D01*
X60808Y27639D01*
X60865Y27666D01*
X60920Y27695D01*
X60973Y27728D01*
X61024Y27764D01*
X61073Y27803D01*
X61119Y27846D01*
X61163Y27891D01*
X61204Y27938D01*
X61241Y27988D01*
X61276Y28040D01*
X61307Y28094D01*
X61335Y28150D01*
X61359Y28208D01*
X61380Y28267D01*
X61397Y28327D01*
X61411Y28388D01*
X61420Y28450D01*
X61426Y28512D01*
X61428Y28575D01*
X54443Y29591D02*
X54443Y25019D01*
X54443Y29591D02*
X53173Y29591D01*
X53103Y29589D01*
X53033Y29583D01*
X52964Y29574D01*
X52895Y29560D01*
X52827Y29543D01*
X52761Y29522D01*
X52695Y29498D01*
X52631Y29470D01*
X52569Y29438D01*
X52508Y29403D01*
X52449Y29365D01*
X52393Y29323D01*
X52339Y29279D01*
X52287Y29231D01*
X52239Y29181D01*
X52193Y29128D01*
X52150Y29073D01*
X52110Y29016D01*
X52073Y28956D01*
X52040Y28894D01*
X52010Y28831D01*
X51984Y28766D01*
X51961Y28700D01*
X51942Y28633D01*
X51927Y28564D01*
X51915Y28495D01*
X51907Y28426D01*
X51903Y28356D01*
X51903Y28286D01*
X51907Y28216D01*
X51915Y28147D01*
X51927Y28078D01*
X51942Y28009D01*
X51961Y27942D01*
X51984Y27876D01*
X52010Y27811D01*
X52040Y27748D01*
X52073Y27686D01*
X52110Y27626D01*
X52150Y27569D01*
X52193Y27514D01*
X52239Y27461D01*
X52287Y27411D01*
X52339Y27363D01*
X52393Y27319D01*
X52449Y27277D01*
X52508Y27239D01*
X52569Y27204D01*
X52631Y27172D01*
X52695Y27144D01*
X52761Y27120D01*
X52827Y27099D01*
X52895Y27082D01*
X52964Y27068D01*
X53033Y27059D01*
X53103Y27053D01*
X53173Y27051D01*
X54443Y27051D01*
X49388Y25019D02*
X48118Y25019D01*
X49388Y25019D02*
X49442Y25021D01*
X49496Y25027D01*
X49550Y25036D01*
X49603Y25050D01*
X49654Y25067D01*
X49705Y25088D01*
X49753Y25112D01*
X49800Y25140D01*
X49845Y25171D01*
X49887Y25205D01*
X49927Y25242D01*
X49964Y25282D01*
X49998Y25324D01*
X50029Y25369D01*
X50057Y25416D01*
X50081Y25464D01*
X50102Y25515D01*
X50119Y25566D01*
X50133Y25619D01*
X50142Y25673D01*
X50148Y25727D01*
X50150Y25781D01*
X50150Y27051D01*
X50148Y27114D01*
X50142Y27176D01*
X50133Y27238D01*
X50119Y27299D01*
X50102Y27359D01*
X50081Y27418D01*
X50057Y27476D01*
X50029Y27532D01*
X49998Y27586D01*
X49963Y27638D01*
X49926Y27688D01*
X49885Y27735D01*
X49841Y27780D01*
X49795Y27823D01*
X49746Y27862D01*
X49695Y27898D01*
X49642Y27931D01*
X49587Y27960D01*
X49530Y27987D01*
X49472Y28009D01*
X49412Y28028D01*
X49351Y28043D01*
X49290Y28055D01*
X49228Y28063D01*
X49165Y28067D01*
X49103Y28067D01*
X49040Y28063D01*
X48978Y28055D01*
X48917Y28043D01*
X48856Y28028D01*
X48796Y28009D01*
X48738Y27987D01*
X48681Y27960D01*
X48626Y27931D01*
X48573Y27898D01*
X48522Y27862D01*
X48473Y27823D01*
X48427Y27780D01*
X48383Y27735D01*
X48342Y27688D01*
X48305Y27638D01*
X48270Y27586D01*
X48239Y27532D01*
X48211Y27476D01*
X48187Y27418D01*
X48166Y27359D01*
X48149Y27299D01*
X48135Y27238D01*
X48126Y27176D01*
X48120Y27114D01*
X48118Y27051D01*
X48118Y26543D01*
X50150Y26543D01*
X44182Y25019D02*
X44182Y29591D01*
X44182Y25019D02*
X45452Y25019D01*
X45506Y25021D01*
X45560Y25027D01*
X45614Y25036D01*
X45667Y25050D01*
X45718Y25067D01*
X45769Y25088D01*
X45817Y25112D01*
X45864Y25140D01*
X45909Y25171D01*
X45951Y25205D01*
X45991Y25242D01*
X46028Y25282D01*
X46062Y25324D01*
X46093Y25369D01*
X46121Y25416D01*
X46145Y25464D01*
X46166Y25515D01*
X46183Y25566D01*
X46197Y25619D01*
X46206Y25673D01*
X46212Y25727D01*
X46214Y25781D01*
X46214Y27305D01*
X46212Y27359D01*
X46206Y27413D01*
X46197Y27467D01*
X46183Y27520D01*
X46166Y27571D01*
X46145Y27622D01*
X46121Y27670D01*
X46093Y27717D01*
X46062Y27762D01*
X46028Y27804D01*
X45991Y27844D01*
X45951Y27881D01*
X45909Y27915D01*
X45864Y27946D01*
X45817Y27974D01*
X45769Y27998D01*
X45718Y28019D01*
X45667Y28036D01*
X45614Y28050D01*
X45560Y28059D01*
X45506Y28065D01*
X45452Y28067D01*
X44182Y28067D01*
X42073Y27051D02*
X42073Y26035D01*
X42073Y27051D02*
X42071Y27114D01*
X42065Y27176D01*
X42056Y27238D01*
X42042Y27299D01*
X42025Y27359D01*
X42004Y27418D01*
X41980Y27476D01*
X41952Y27532D01*
X41921Y27586D01*
X41886Y27638D01*
X41849Y27688D01*
X41808Y27735D01*
X41764Y27780D01*
X41718Y27823D01*
X41669Y27862D01*
X41618Y27898D01*
X41565Y27931D01*
X41510Y27960D01*
X41453Y27987D01*
X41395Y28009D01*
X41335Y28028D01*
X41274Y28043D01*
X41213Y28055D01*
X41151Y28063D01*
X41088Y28067D01*
X41026Y28067D01*
X40963Y28063D01*
X40901Y28055D01*
X40840Y28043D01*
X40779Y28028D01*
X40719Y28009D01*
X40661Y27987D01*
X40604Y27960D01*
X40549Y27931D01*
X40496Y27898D01*
X40445Y27862D01*
X40396Y27823D01*
X40350Y27780D01*
X40306Y27735D01*
X40265Y27688D01*
X40228Y27638D01*
X40193Y27586D01*
X40162Y27532D01*
X40134Y27476D01*
X40110Y27418D01*
X40089Y27359D01*
X40072Y27299D01*
X40058Y27238D01*
X40049Y27176D01*
X40043Y27114D01*
X40041Y27051D01*
X40041Y26035D01*
X40043Y25972D01*
X40049Y25910D01*
X40058Y25848D01*
X40072Y25787D01*
X40089Y25727D01*
X40110Y25668D01*
X40134Y25610D01*
X40162Y25554D01*
X40193Y25500D01*
X40228Y25448D01*
X40265Y25398D01*
X40306Y25351D01*
X40350Y25306D01*
X40396Y25263D01*
X40445Y25224D01*
X40496Y25188D01*
X40549Y25155D01*
X40604Y25126D01*
X40661Y25099D01*
X40719Y25077D01*
X40779Y25058D01*
X40840Y25043D01*
X40901Y25031D01*
X40963Y25023D01*
X41026Y25019D01*
X41088Y25019D01*
X41151Y25023D01*
X41213Y25031D01*
X41274Y25043D01*
X41335Y25058D01*
X41395Y25077D01*
X41453Y25099D01*
X41510Y25126D01*
X41565Y25155D01*
X41618Y25188D01*
X41669Y25224D01*
X41718Y25263D01*
X41764Y25306D01*
X41808Y25351D01*
X41849Y25398D01*
X41886Y25448D01*
X41921Y25500D01*
X41952Y25554D01*
X41980Y25610D01*
X42004Y25668D01*
X42025Y25727D01*
X42042Y25787D01*
X42056Y25848D01*
X42065Y25910D01*
X42071Y25972D01*
X42073Y26035D01*
X37857Y25019D02*
X37857Y28067D01*
X35571Y28067D01*
X35517Y28065D01*
X35463Y28059D01*
X35409Y28050D01*
X35356Y28036D01*
X35305Y28019D01*
X35254Y27998D01*
X35206Y27974D01*
X35159Y27946D01*
X35114Y27915D01*
X35072Y27881D01*
X35032Y27844D01*
X34995Y27804D01*
X34961Y27762D01*
X34930Y27717D01*
X34902Y27670D01*
X34878Y27622D01*
X34857Y27571D01*
X34840Y27520D01*
X34826Y27467D01*
X34817Y27413D01*
X34811Y27359D01*
X34809Y27305D01*
X34809Y25019D01*
X36333Y25019D02*
X36333Y28067D01*
X31862Y25019D02*
X30592Y25019D01*
X31862Y25019D02*
X31916Y25021D01*
X31970Y25027D01*
X32024Y25036D01*
X32077Y25050D01*
X32128Y25067D01*
X32179Y25088D01*
X32227Y25112D01*
X32274Y25140D01*
X32319Y25171D01*
X32361Y25205D01*
X32401Y25242D01*
X32438Y25282D01*
X32472Y25324D01*
X32503Y25369D01*
X32531Y25416D01*
X32555Y25464D01*
X32576Y25515D01*
X32593Y25566D01*
X32607Y25619D01*
X32616Y25673D01*
X32622Y25727D01*
X32624Y25781D01*
X32624Y27051D01*
X32622Y27114D01*
X32616Y27176D01*
X32607Y27238D01*
X32593Y27299D01*
X32576Y27359D01*
X32555Y27418D01*
X32531Y27476D01*
X32503Y27532D01*
X32472Y27586D01*
X32437Y27638D01*
X32400Y27688D01*
X32359Y27735D01*
X32315Y27780D01*
X32269Y27823D01*
X32220Y27862D01*
X32169Y27898D01*
X32116Y27931D01*
X32061Y27960D01*
X32004Y27987D01*
X31946Y28009D01*
X31886Y28028D01*
X31825Y28043D01*
X31764Y28055D01*
X31702Y28063D01*
X31639Y28067D01*
X31577Y28067D01*
X31514Y28063D01*
X31452Y28055D01*
X31391Y28043D01*
X31330Y28028D01*
X31270Y28009D01*
X31212Y27987D01*
X31155Y27960D01*
X31100Y27931D01*
X31047Y27898D01*
X30996Y27862D01*
X30947Y27823D01*
X30901Y27780D01*
X30857Y27735D01*
X30816Y27688D01*
X30779Y27638D01*
X30744Y27586D01*
X30713Y27532D01*
X30685Y27476D01*
X30661Y27418D01*
X30640Y27359D01*
X30623Y27299D01*
X30609Y27238D01*
X30600Y27176D01*
X30594Y27114D01*
X30592Y27051D01*
X30592Y26543D01*
X32624Y26543D01*
X29059Y28067D02*
X27535Y28067D01*
X28551Y29591D02*
X28551Y25781D01*
X28549Y25727D01*
X28543Y25673D01*
X28534Y25619D01*
X28520Y25566D01*
X28503Y25515D01*
X28482Y25464D01*
X28458Y25416D01*
X28430Y25369D01*
X28399Y25324D01*
X28365Y25282D01*
X28328Y25242D01*
X28288Y25205D01*
X28246Y25171D01*
X28201Y25140D01*
X28154Y25112D01*
X28106Y25088D01*
X28055Y25067D01*
X28004Y25050D01*
X27951Y25036D01*
X27897Y25027D01*
X27843Y25021D01*
X27789Y25019D01*
X27535Y25019D01*
X25004Y25019D02*
X23734Y25019D01*
X25004Y25019D02*
X25058Y25021D01*
X25112Y25027D01*
X25166Y25036D01*
X25219Y25050D01*
X25270Y25067D01*
X25321Y25088D01*
X25369Y25112D01*
X25416Y25140D01*
X25461Y25171D01*
X25503Y25205D01*
X25543Y25242D01*
X25580Y25282D01*
X25614Y25324D01*
X25645Y25369D01*
X25673Y25416D01*
X25697Y25464D01*
X25718Y25515D01*
X25735Y25566D01*
X25749Y25619D01*
X25758Y25673D01*
X25764Y25727D01*
X25766Y25781D01*
X25766Y27051D01*
X25764Y27114D01*
X25758Y27176D01*
X25749Y27238D01*
X25735Y27299D01*
X25718Y27359D01*
X25697Y27418D01*
X25673Y27476D01*
X25645Y27532D01*
X25614Y27586D01*
X25579Y27638D01*
X25542Y27688D01*
X25501Y27735D01*
X25457Y27780D01*
X25411Y27823D01*
X25362Y27862D01*
X25311Y27898D01*
X25258Y27931D01*
X25203Y27960D01*
X25146Y27987D01*
X25088Y28009D01*
X25028Y28028D01*
X24967Y28043D01*
X24906Y28055D01*
X24844Y28063D01*
X24781Y28067D01*
X24719Y28067D01*
X24656Y28063D01*
X24594Y28055D01*
X24533Y28043D01*
X24472Y28028D01*
X24412Y28009D01*
X24354Y27987D01*
X24297Y27960D01*
X24242Y27931D01*
X24189Y27898D01*
X24138Y27862D01*
X24089Y27823D01*
X24043Y27780D01*
X23999Y27735D01*
X23958Y27688D01*
X23921Y27638D01*
X23886Y27586D01*
X23855Y27532D01*
X23827Y27476D01*
X23803Y27418D01*
X23782Y27359D01*
X23765Y27299D01*
X23751Y27238D01*
X23742Y27176D01*
X23736Y27114D01*
X23734Y27051D01*
X23734Y26543D01*
X25766Y26543D01*
X21622Y25019D02*
X21622Y28067D01*
X20098Y28067D01*
X20098Y27559D01*
X85471Y23241D02*
X85471Y18669D01*
X85471Y23241D02*
X83439Y23241D01*
X83439Y21209D02*
X85471Y21209D01*
X80860Y20447D02*
X79717Y20447D01*
X80860Y20447D02*
X80918Y20445D01*
X80976Y20439D01*
X81033Y20430D01*
X81090Y20417D01*
X81146Y20400D01*
X81200Y20379D01*
X81253Y20355D01*
X81304Y20328D01*
X81354Y20297D01*
X81401Y20263D01*
X81446Y20226D01*
X81489Y20187D01*
X81528Y20144D01*
X81565Y20099D01*
X81599Y20052D01*
X81630Y20003D01*
X81657Y19951D01*
X81681Y19898D01*
X81702Y19844D01*
X81719Y19788D01*
X81732Y19731D01*
X81741Y19674D01*
X81747Y19616D01*
X81749Y19558D01*
X81747Y19500D01*
X81741Y19442D01*
X81732Y19385D01*
X81719Y19328D01*
X81702Y19272D01*
X81681Y19218D01*
X81657Y19165D01*
X81630Y19114D01*
X81599Y19064D01*
X81565Y19017D01*
X81528Y18972D01*
X81489Y18929D01*
X81446Y18890D01*
X81401Y18853D01*
X81354Y18819D01*
X81305Y18788D01*
X81253Y18761D01*
X81200Y18737D01*
X81146Y18716D01*
X81090Y18699D01*
X81033Y18686D01*
X80976Y18677D01*
X80918Y18671D01*
X80860Y18669D01*
X79717Y18669D01*
X79717Y20955D01*
X79719Y21009D01*
X79725Y21063D01*
X79734Y21117D01*
X79748Y21170D01*
X79765Y21221D01*
X79786Y21272D01*
X79810Y21320D01*
X79838Y21367D01*
X79869Y21412D01*
X79903Y21454D01*
X79940Y21494D01*
X79980Y21531D01*
X80022Y21565D01*
X80067Y21596D01*
X80114Y21624D01*
X80162Y21648D01*
X80213Y21669D01*
X80264Y21686D01*
X80317Y21700D01*
X80371Y21709D01*
X80425Y21715D01*
X80479Y21717D01*
X81495Y21717D01*
X77559Y23241D02*
X77559Y19431D01*
X77557Y19377D01*
X77551Y19323D01*
X77542Y19269D01*
X77528Y19216D01*
X77511Y19165D01*
X77490Y19114D01*
X77466Y19066D01*
X77438Y19019D01*
X77407Y18974D01*
X77373Y18932D01*
X77336Y18892D01*
X77296Y18855D01*
X77254Y18821D01*
X77209Y18790D01*
X77162Y18762D01*
X77114Y18738D01*
X77063Y18717D01*
X77012Y18700D01*
X76959Y18686D01*
X76905Y18677D01*
X76851Y18671D01*
X76797Y18669D01*
X75121Y19431D02*
X75121Y23241D01*
X75121Y19431D02*
X75119Y19377D01*
X75113Y19323D01*
X75104Y19269D01*
X75090Y19216D01*
X75073Y19165D01*
X75052Y19114D01*
X75028Y19066D01*
X75000Y19019D01*
X74969Y18974D01*
X74935Y18932D01*
X74898Y18892D01*
X74858Y18855D01*
X74816Y18821D01*
X74771Y18790D01*
X74724Y18762D01*
X74676Y18738D01*
X74625Y18717D01*
X74574Y18700D01*
X74521Y18686D01*
X74467Y18677D01*
X74413Y18671D01*
X74359Y18669D01*
X68844Y23241D02*
X68778Y23239D01*
X68711Y23233D01*
X68646Y23224D01*
X68580Y23210D01*
X68516Y23193D01*
X68453Y23172D01*
X68391Y23148D01*
X68331Y23119D01*
X68273Y23088D01*
X68216Y23053D01*
X68161Y23015D01*
X68109Y22974D01*
X68060Y22929D01*
X68013Y22882D01*
X67968Y22833D01*
X67927Y22781D01*
X67889Y22726D01*
X67854Y22670D01*
X67823Y22611D01*
X67794Y22551D01*
X67770Y22489D01*
X67749Y22426D01*
X67732Y22362D01*
X67718Y22296D01*
X67709Y22231D01*
X67703Y22164D01*
X67701Y22098D01*
X68844Y23241D02*
X68918Y23239D01*
X68991Y23234D01*
X69065Y23224D01*
X69137Y23211D01*
X69209Y23195D01*
X69280Y23175D01*
X69350Y23151D01*
X69419Y23124D01*
X69486Y23093D01*
X69552Y23059D01*
X69615Y23022D01*
X69677Y22982D01*
X69737Y22938D01*
X69794Y22892D01*
X69850Y22843D01*
X69902Y22791D01*
X69952Y22736D01*
X69999Y22679D01*
X70043Y22620D01*
X70084Y22559D01*
X70122Y22495D01*
X70157Y22430D01*
X70188Y22363D01*
X70216Y22295D01*
X70241Y22225D01*
X68082Y21209D02*
X68035Y21256D01*
X67991Y21305D01*
X67950Y21357D01*
X67911Y21411D01*
X67876Y21467D01*
X67843Y21525D01*
X67814Y21584D01*
X67788Y21645D01*
X67765Y21707D01*
X67745Y21771D01*
X67730Y21835D01*
X67717Y21900D01*
X67708Y21966D01*
X67703Y22032D01*
X67701Y22098D01*
X68082Y21209D02*
X70241Y18669D01*
X67701Y18669D01*
X65670Y20955D02*
X65668Y21077D01*
X65662Y21199D01*
X65652Y21321D01*
X65638Y21442D01*
X65621Y21563D01*
X65599Y21683D01*
X65574Y21802D01*
X65544Y21921D01*
X65511Y22038D01*
X65474Y22155D01*
X65433Y22270D01*
X65389Y22383D01*
X65341Y22496D01*
X65289Y22606D01*
X65288Y22606D02*
X65268Y22660D01*
X65244Y22714D01*
X65216Y22765D01*
X65186Y22815D01*
X65153Y22863D01*
X65116Y22908D01*
X65077Y22952D01*
X65036Y22992D01*
X64992Y23031D01*
X64945Y23066D01*
X64897Y23098D01*
X64847Y23128D01*
X64794Y23154D01*
X64741Y23177D01*
X64686Y23196D01*
X64630Y23212D01*
X64573Y23225D01*
X64515Y23234D01*
X64457Y23239D01*
X64399Y23241D01*
X64341Y23239D01*
X64283Y23234D01*
X64225Y23225D01*
X64168Y23212D01*
X64112Y23196D01*
X64057Y23177D01*
X64004Y23154D01*
X63951Y23128D01*
X63901Y23098D01*
X63853Y23066D01*
X63806Y23031D01*
X63762Y22992D01*
X63721Y22952D01*
X63682Y22908D01*
X63645Y22863D01*
X63612Y22815D01*
X63582Y22765D01*
X63554Y22714D01*
X63530Y22660D01*
X63510Y22606D01*
X63458Y22496D01*
X63410Y22383D01*
X63366Y22270D01*
X63325Y22155D01*
X63288Y22038D01*
X63255Y21921D01*
X63225Y21802D01*
X63200Y21683D01*
X63178Y21563D01*
X63161Y21442D01*
X63147Y21321D01*
X63137Y21199D01*
X63131Y21077D01*
X63129Y20955D01*
X65670Y20955D02*
X65668Y20833D01*
X65662Y20711D01*
X65652Y20589D01*
X65638Y20468D01*
X65621Y20347D01*
X65599Y20227D01*
X65574Y20108D01*
X65544Y19989D01*
X65511Y19872D01*
X65474Y19755D01*
X65433Y19640D01*
X65389Y19527D01*
X65341Y19414D01*
X65289Y19304D01*
X65288Y19304D02*
X65268Y19250D01*
X65244Y19196D01*
X65216Y19145D01*
X65186Y19095D01*
X65153Y19047D01*
X65116Y19002D01*
X65077Y18958D01*
X65036Y18918D01*
X64992Y18879D01*
X64945Y18844D01*
X64897Y18812D01*
X64847Y18782D01*
X64794Y18756D01*
X64741Y18733D01*
X64686Y18714D01*
X64630Y18698D01*
X64573Y18685D01*
X64515Y18676D01*
X64457Y18671D01*
X64399Y18669D01*
X63510Y19304D02*
X63458Y19414D01*
X63410Y19527D01*
X63366Y19640D01*
X63325Y19755D01*
X63288Y19872D01*
X63255Y19989D01*
X63225Y20108D01*
X63200Y20227D01*
X63178Y20347D01*
X63161Y20468D01*
X63147Y20589D01*
X63137Y20711D01*
X63131Y20833D01*
X63129Y20955D01*
X63510Y19304D02*
X63530Y19250D01*
X63554Y19196D01*
X63582Y19145D01*
X63612Y19095D01*
X63645Y19047D01*
X63682Y19002D01*
X63721Y18958D01*
X63762Y18918D01*
X63806Y18879D01*
X63853Y18844D01*
X63901Y18812D01*
X63951Y18782D01*
X64004Y18756D01*
X64057Y18733D01*
X64112Y18714D01*
X64168Y18698D01*
X64225Y18685D01*
X64283Y18676D01*
X64341Y18671D01*
X64399Y18669D01*
X65415Y19685D02*
X63383Y22225D01*
X59700Y23241D02*
X59634Y23239D01*
X59567Y23233D01*
X59502Y23224D01*
X59436Y23210D01*
X59372Y23193D01*
X59309Y23172D01*
X59247Y23148D01*
X59187Y23119D01*
X59129Y23088D01*
X59072Y23053D01*
X59017Y23015D01*
X58965Y22974D01*
X58916Y22929D01*
X58869Y22882D01*
X58824Y22833D01*
X58783Y22781D01*
X58745Y22726D01*
X58710Y22670D01*
X58679Y22611D01*
X58650Y22551D01*
X58626Y22489D01*
X58605Y22426D01*
X58588Y22362D01*
X58574Y22296D01*
X58565Y22231D01*
X58559Y22164D01*
X58557Y22098D01*
X59700Y23241D02*
X59774Y23239D01*
X59847Y23234D01*
X59921Y23224D01*
X59993Y23211D01*
X60065Y23195D01*
X60136Y23175D01*
X60206Y23151D01*
X60275Y23124D01*
X60342Y23093D01*
X60408Y23059D01*
X60471Y23022D01*
X60533Y22982D01*
X60593Y22938D01*
X60650Y22892D01*
X60706Y22843D01*
X60758Y22791D01*
X60808Y22736D01*
X60855Y22679D01*
X60899Y22620D01*
X60940Y22559D01*
X60978Y22495D01*
X61013Y22430D01*
X61044Y22363D01*
X61072Y22295D01*
X61097Y22225D01*
X58938Y21209D02*
X58891Y21256D01*
X58847Y21305D01*
X58806Y21357D01*
X58767Y21411D01*
X58732Y21467D01*
X58699Y21525D01*
X58670Y21584D01*
X58644Y21645D01*
X58621Y21707D01*
X58601Y21771D01*
X58586Y21835D01*
X58573Y21900D01*
X58564Y21966D01*
X58559Y22032D01*
X58557Y22098D01*
X58938Y21209D02*
X61097Y18669D01*
X58557Y18669D01*
X56526Y20955D02*
X56524Y21077D01*
X56518Y21199D01*
X56508Y21321D01*
X56494Y21442D01*
X56477Y21563D01*
X56455Y21683D01*
X56430Y21802D01*
X56400Y21921D01*
X56367Y22038D01*
X56330Y22155D01*
X56289Y22270D01*
X56245Y22383D01*
X56197Y22496D01*
X56145Y22606D01*
X56144Y22606D02*
X56124Y22660D01*
X56100Y22714D01*
X56072Y22765D01*
X56042Y22815D01*
X56009Y22863D01*
X55972Y22908D01*
X55933Y22952D01*
X55892Y22992D01*
X55848Y23031D01*
X55801Y23066D01*
X55753Y23098D01*
X55703Y23128D01*
X55650Y23154D01*
X55597Y23177D01*
X55542Y23196D01*
X55486Y23212D01*
X55429Y23225D01*
X55371Y23234D01*
X55313Y23239D01*
X55255Y23241D01*
X55197Y23239D01*
X55139Y23234D01*
X55081Y23225D01*
X55024Y23212D01*
X54968Y23196D01*
X54913Y23177D01*
X54860Y23154D01*
X54807Y23128D01*
X54757Y23098D01*
X54709Y23066D01*
X54662Y23031D01*
X54618Y22992D01*
X54577Y22952D01*
X54538Y22908D01*
X54501Y22863D01*
X54468Y22815D01*
X54438Y22765D01*
X54410Y22714D01*
X54386Y22660D01*
X54366Y22606D01*
X54314Y22496D01*
X54266Y22383D01*
X54222Y22270D01*
X54181Y22155D01*
X54144Y22038D01*
X54111Y21921D01*
X54081Y21802D01*
X54056Y21683D01*
X54034Y21563D01*
X54017Y21442D01*
X54003Y21321D01*
X53993Y21199D01*
X53987Y21077D01*
X53985Y20955D01*
X56526Y20955D02*
X56524Y20833D01*
X56518Y20711D01*
X56508Y20589D01*
X56494Y20468D01*
X56477Y20347D01*
X56455Y20227D01*
X56430Y20108D01*
X56400Y19989D01*
X56367Y19872D01*
X56330Y19755D01*
X56289Y19640D01*
X56245Y19527D01*
X56197Y19414D01*
X56145Y19304D01*
X56144Y19304D02*
X56124Y19250D01*
X56100Y19196D01*
X56072Y19145D01*
X56042Y19095D01*
X56009Y19047D01*
X55972Y19002D01*
X55933Y18958D01*
X55892Y18918D01*
X55848Y18879D01*
X55801Y18844D01*
X55753Y18812D01*
X55703Y18782D01*
X55650Y18756D01*
X55597Y18733D01*
X55542Y18714D01*
X55486Y18698D01*
X55429Y18685D01*
X55371Y18676D01*
X55313Y18671D01*
X55255Y18669D01*
X54366Y19304D02*
X54314Y19414D01*
X54266Y19527D01*
X54222Y19640D01*
X54181Y19755D01*
X54144Y19872D01*
X54111Y19989D01*
X54081Y20108D01*
X54056Y20227D01*
X54034Y20347D01*
X54017Y20468D01*
X54003Y20589D01*
X53993Y20711D01*
X53987Y20833D01*
X53985Y20955D01*
X54366Y19304D02*
X54386Y19250D01*
X54410Y19196D01*
X54438Y19145D01*
X54468Y19095D01*
X54501Y19047D01*
X54538Y19002D01*
X54577Y18958D01*
X54618Y18918D01*
X54662Y18879D01*
X54709Y18844D01*
X54757Y18812D01*
X54807Y18782D01*
X54860Y18756D01*
X54913Y18733D01*
X54968Y18714D01*
X55024Y18698D01*
X55081Y18685D01*
X55139Y18676D01*
X55197Y18671D01*
X55255Y18669D01*
X56271Y19685D02*
X54239Y22225D01*
M02*
