G04 EAGLE Gerber RS-274X export*
G75*
%MOMM*%
%FSLAX34Y34*%
%LPD*%
%INSoldermask Top*%
%IPPOS*%
%AMOC8*
5,1,8,0,0,1.08239X$1,22.5*%
G01*
%ADD10C,0.551600*%
%ADD11R,0.406400X1.066800*%
%ADD12R,1.066800X0.406400*%
%ADD13R,2.540000X2.540000*%
%ADD14R,1.701600X0.651600*%
%ADD15R,0.651600X1.701600*%
%ADD16R,1.401600X1.701600*%
%ADD17R,1.701600X1.401600*%
%ADD18C,1.422400*%
%ADD19C,1.524000*%
%ADD20R,1.401600X1.601600*%
%ADD21P,1.525737X8X292.500000*%
%ADD22R,2.251600X1.051600*%
%ADD23R,2.251600X3.351600*%


D10*
X45715Y56086D03*
X286145Y225191D03*
D11*
X141830Y113919D03*
X135330Y113919D03*
X128830Y113919D03*
X122330Y113919D03*
D12*
X112141Y103730D03*
X112141Y97230D03*
X112141Y90730D03*
X112141Y84230D03*
D11*
X122330Y74041D03*
X128830Y74041D03*
X135330Y74041D03*
X141830Y74041D03*
D12*
X152019Y84230D03*
X152019Y90730D03*
X152019Y97230D03*
X152019Y103730D03*
D13*
X132080Y93980D03*
D14*
X87040Y226120D03*
X87040Y218120D03*
X87040Y210120D03*
X87040Y202120D03*
X87040Y194120D03*
X87040Y186120D03*
X87040Y178120D03*
X87040Y170120D03*
X172040Y170120D03*
X172040Y178120D03*
X172040Y186120D03*
X172040Y194120D03*
X172040Y202120D03*
X172040Y210120D03*
X172040Y218120D03*
X172040Y226120D03*
D15*
X101540Y155620D03*
X109540Y155620D03*
X117540Y155620D03*
X125540Y155620D03*
X133540Y155620D03*
X141540Y155620D03*
X149540Y155620D03*
X157540Y155620D03*
X157540Y240620D03*
X149540Y240620D03*
X141540Y240620D03*
X133540Y240620D03*
X125540Y240620D03*
X117540Y240620D03*
X109540Y240620D03*
X101540Y240620D03*
D16*
X185580Y106680D03*
X205580Y106680D03*
X192880Y66040D03*
X172880Y66040D03*
X147160Y55880D03*
X127160Y55880D03*
D17*
X63500Y183040D03*
X63500Y203040D03*
D16*
X269080Y226060D03*
X249080Y226060D03*
X205900Y160020D03*
X225900Y160020D03*
X264320Y172720D03*
X284320Y172720D03*
D18*
X66040Y118364D02*
X66040Y105156D01*
X40640Y105156D02*
X40640Y118364D01*
D19*
X215900Y37592D02*
X215900Y23368D01*
X241300Y23368D02*
X241300Y37592D01*
X165100Y37592D02*
X165100Y23368D01*
X190500Y23368D02*
X190500Y37592D01*
X42672Y154940D02*
X28448Y154940D01*
X28448Y180340D02*
X42672Y180340D01*
X42672Y205740D02*
X28448Y205740D01*
X28448Y231140D02*
X42672Y231140D01*
D20*
X254660Y195580D03*
X273660Y195580D03*
D21*
X226060Y213360D03*
X200660Y213360D03*
X226060Y238760D03*
X200660Y238760D03*
X200660Y187960D03*
X226060Y187960D03*
D22*
X290620Y101460D03*
X290620Y124460D03*
X290620Y147460D03*
D23*
X232620Y124460D03*
D18*
X272161Y38735D02*
X285369Y38735D01*
X285369Y64135D02*
X272161Y64135D01*
D20*
X214020Y69215D03*
X233020Y69215D03*
X117500Y32385D03*
X136500Y32385D03*
D16*
X126525Y130810D03*
X146525Y130810D03*
X188120Y132080D03*
X208120Y132080D03*
M02*
