G04 EAGLE Gerber RS-274X export*
G75*
%MOMM*%
%FSLAX34Y34*%
%LPD*%
%INSilkscreen Top*%
%IPPOS*%
%AMOC8*
5,1,8,0,0,1.08239X$1,22.5*%
G01*
%ADD10R,0.083819X0.084581*%
%ADD11R,0.254000X0.084581*%
%ADD12R,0.170181X0.084581*%
%ADD13R,0.086363X0.084581*%
%ADD14R,0.167637X0.084581*%
%ADD15R,0.170181X0.084838*%
%ADD16R,0.083819X0.084838*%
%ADD17R,0.167637X0.084838*%
%ADD18R,0.086363X0.084838*%
%ADD19R,0.508000X0.084581*%
%ADD20R,0.421637X0.084581*%
%ADD21R,0.591819X0.084581*%
%ADD22R,0.340363X0.084838*%
%ADD23R,0.762000X0.084581*%
%ADD24R,1.270000X0.084581*%
%ADD25R,1.948181X0.084581*%
%ADD26R,0.845819X0.084581*%
%ADD27R,0.762000X0.084838*%
%ADD28R,0.421637X0.084838*%
%ADD29R,0.678181X0.084838*%
%ADD30R,0.254000X0.084838*%
%ADD31R,0.424181X0.084581*%
%ADD32R,0.594363X0.084581*%
%ADD33R,0.932181X0.084838*%
%ADD34R,1.437638X0.084838*%
%ADD35R,0.337819X0.084838*%
%ADD36R,0.337819X0.084581*%
%ADD37R,0.424181X0.084838*%
%ADD38R,0.340363X0.084581*%
%ADD39R,0.508000X0.084838*%
%ADD40R,0.675638X0.084838*%
%ADD41R,0.594363X0.084838*%
%ADD42R,0.678181X0.084581*%
%ADD43R,0.932181X0.084581*%
%ADD44C,0.152400*%
%ADD45C,0.076200*%
%ADD46C,0.150000*%
%ADD47C,0.500000*%
%ADD48C,0.127000*%
%ADD49C,0.101600*%
%ADD50C,0.200000*%

G36*
X130737Y64010D02*
X130737Y64010D01*
X130739Y64009D01*
X130782Y64029D01*
X130826Y64047D01*
X130826Y64049D01*
X130828Y64050D01*
X130861Y64135D01*
X130861Y66675D01*
X130860Y66677D01*
X130861Y66679D01*
X130841Y66722D01*
X130823Y66766D01*
X130821Y66766D01*
X130820Y66768D01*
X130735Y66801D01*
X126925Y66801D01*
X126923Y66800D01*
X126921Y66801D01*
X126878Y66781D01*
X126834Y66763D01*
X126834Y66761D01*
X126832Y66760D01*
X126799Y66675D01*
X126799Y64135D01*
X126800Y64133D01*
X126799Y64131D01*
X126819Y64088D01*
X126837Y64044D01*
X126839Y64044D01*
X126840Y64042D01*
X126925Y64009D01*
X130735Y64009D01*
X130737Y64010D01*
G37*
D10*
X33861Y23071D03*
D11*
X38090Y23071D03*
X27092Y23916D03*
D10*
X33023Y23916D03*
D12*
X35131Y23916D03*
D13*
X37252Y23916D03*
X39792Y23916D03*
D11*
X52492Y23916D03*
D14*
X56302Y23916D03*
D10*
X61801Y23916D03*
D15*
X24133Y24763D03*
D16*
X26241Y24763D03*
D17*
X28362Y24763D03*
D16*
X33023Y24763D03*
D15*
X36833Y24763D03*
X40211Y24763D03*
X50371Y24763D03*
D17*
X53762Y24763D03*
D18*
X57572Y24763D03*
D15*
X60531Y24763D03*
D18*
X62652Y24763D03*
D15*
X65611Y24763D03*
D10*
X23701Y25611D03*
D14*
X25822Y25611D03*
D19*
X30902Y25611D03*
D12*
X37671Y25611D03*
D20*
X42332Y25611D03*
D19*
X47843Y25611D03*
D13*
X52492Y25611D03*
D12*
X57153Y25611D03*
X59693Y25611D03*
D11*
X63490Y25611D03*
D10*
X23701Y26456D03*
D12*
X26673Y26456D03*
X30051Y26456D03*
D11*
X33873Y26456D03*
D10*
X38103Y26456D03*
D21*
X43183Y26456D03*
D10*
X49101Y26456D03*
D12*
X55451Y26456D03*
D11*
X58410Y26456D03*
D12*
X62233Y26456D03*
D10*
X66043Y26456D03*
D18*
X22012Y27303D03*
D15*
X24133Y27303D03*
D16*
X27943Y27303D03*
D17*
X30902Y27303D03*
D16*
X45723Y27303D03*
D15*
X57991Y27303D03*
D22*
X66462Y27303D03*
D13*
X22012Y28151D03*
D10*
X26241Y28151D03*
D12*
X31753Y28151D03*
D23*
X38953Y28151D03*
D24*
X50790Y28151D03*
D13*
X67732Y28151D03*
D14*
X23282Y28996D03*
D25*
X38941Y28996D03*
D26*
X55451Y28996D03*
D10*
X66881Y28996D03*
D15*
X24971Y29843D03*
D27*
X31333Y29843D03*
D28*
X44872Y29843D03*
D29*
X57991Y29843D03*
D30*
X65192Y29843D03*
D31*
X27943Y30691D03*
D12*
X32591Y30691D03*
D14*
X43602Y30691D03*
X46142Y30691D03*
D12*
X57153Y30691D03*
D31*
X61801Y30691D03*
D11*
X27092Y31536D03*
D12*
X31753Y31536D03*
D10*
X43183Y31536D03*
D14*
X46142Y31536D03*
D12*
X57991Y31536D03*
D11*
X62652Y31536D03*
D15*
X26673Y32383D03*
X31753Y32383D03*
D16*
X43183Y32383D03*
D15*
X46993Y32383D03*
X57991Y32383D03*
D30*
X63490Y32383D03*
D14*
X25822Y33231D03*
D12*
X31753Y33231D03*
D10*
X43183Y33231D03*
D12*
X46993Y33231D03*
X57991Y33231D03*
D14*
X63922Y33231D03*
X25822Y34076D03*
D12*
X31753Y34076D03*
X42751Y34076D03*
X46993Y34076D03*
X57991Y34076D03*
X64773Y34076D03*
D17*
X25822Y34923D03*
D15*
X31753Y34923D03*
D18*
X42332Y34923D03*
X47412Y34923D03*
D15*
X57991Y34923D03*
X64773Y34923D03*
D14*
X25822Y35771D03*
D12*
X32591Y35771D03*
D13*
X42332Y35771D03*
D12*
X47831Y35771D03*
X57991Y35771D03*
D13*
X65192Y35771D03*
D14*
X25822Y36616D03*
D12*
X32591Y36616D03*
D13*
X42332Y36616D03*
D12*
X47831Y36616D03*
X57991Y36616D03*
D13*
X65192Y36616D03*
D16*
X26241Y37463D03*
D30*
X33010Y37463D03*
D18*
X42332Y37463D03*
D16*
X48263Y37463D03*
D15*
X57991Y37463D03*
X65611Y37463D03*
D12*
X26673Y38311D03*
D14*
X33442Y38311D03*
D12*
X57153Y38311D03*
D13*
X65192Y38311D03*
D12*
X27511Y39156D03*
D14*
X33442Y39156D03*
D12*
X57153Y39156D03*
D13*
X65192Y39156D03*
D30*
X28793Y40003D03*
D15*
X34293Y40003D03*
D16*
X41481Y40003D03*
D17*
X56302Y40003D03*
D15*
X64773Y40003D03*
D32*
X32172Y40851D03*
D14*
X56302Y40851D03*
D11*
X64353Y40851D03*
D13*
X32172Y41696D03*
D11*
X34712Y41696D03*
X55870Y41696D03*
X63490Y41696D03*
D15*
X35131Y42543D03*
D33*
X59261Y42543D03*
D12*
X35131Y43391D03*
X54613Y43391D03*
D20*
X60112Y43391D03*
D14*
X35982Y44236D03*
D20*
X42332Y44236D03*
D11*
X54193Y44236D03*
D34*
X42332Y45083D03*
D17*
X53762Y45083D03*
D32*
X37252Y45931D03*
D21*
X48263Y45931D03*
D12*
X52911Y45931D03*
D20*
X34712Y46776D03*
D19*
X51222Y46776D03*
D35*
X32591Y47623D03*
X52911Y47623D03*
D11*
X31333Y48471D03*
D36*
X54613Y48471D03*
D11*
X30470Y49316D03*
X55870Y49316D03*
D28*
X22012Y50163D03*
D30*
X29632Y50163D03*
X56733Y50163D03*
D23*
X22012Y51011D03*
D11*
X28793Y51011D03*
X57572Y51011D03*
X18633Y51856D03*
D19*
X26660Y51856D03*
D14*
X58842Y51856D03*
D17*
X18202Y52703D03*
D30*
X27092Y52703D03*
D15*
X59693Y52703D03*
D12*
X17351Y53551D03*
X27511Y53551D03*
D11*
X60112Y53551D03*
D12*
X17351Y54396D03*
X26673Y54396D03*
X60531Y54396D03*
D15*
X16513Y55243D03*
X26673Y55243D03*
D37*
X33861Y55243D03*
D17*
X61382Y55243D03*
D12*
X16513Y56091D03*
D11*
X26253Y56091D03*
D36*
X32591Y56091D03*
D10*
X35563Y56091D03*
D14*
X61382Y56091D03*
D12*
X16513Y56936D03*
D14*
X25822Y56936D03*
D10*
X31321Y56936D03*
X33861Y56936D03*
X36401Y56936D03*
D12*
X62233Y56936D03*
D15*
X16513Y57783D03*
D17*
X25822Y57783D03*
D16*
X31321Y57783D03*
D30*
X35550Y57783D03*
D15*
X62233Y57783D03*
D12*
X16513Y58631D03*
D10*
X22863Y58631D03*
D14*
X25822Y58631D03*
X35982Y58631D03*
D13*
X62652Y58631D03*
D12*
X16513Y59476D03*
D14*
X25822Y59476D03*
D10*
X31321Y59476D03*
D14*
X35982Y59476D03*
D12*
X63071Y59476D03*
D18*
X16932Y60323D03*
D30*
X25390Y60323D03*
D18*
X32172Y60323D03*
D15*
X35131Y60323D03*
D37*
X53343Y60323D03*
D15*
X63071Y60323D03*
D12*
X17351Y61171D03*
D11*
X25390Y61171D03*
D36*
X52073Y61171D03*
D13*
X55032Y61171D03*
D12*
X63071Y61171D03*
X17351Y62016D03*
D38*
X25822Y62016D03*
D10*
X50803Y62016D03*
X53343Y62016D03*
X55883Y62016D03*
D11*
X63490Y62016D03*
D17*
X18202Y62863D03*
D15*
X24971Y62863D03*
D18*
X27092Y62863D03*
X49952Y62863D03*
D30*
X55032Y62863D03*
D39*
X63922Y62863D03*
D11*
X18633Y63711D03*
D12*
X24971Y63711D03*
D10*
X27943Y63711D03*
D13*
X42332Y63711D03*
D12*
X55451Y63711D03*
D21*
X64341Y63711D03*
D11*
X19472Y64556D03*
D36*
X24971Y64556D03*
D14*
X28362Y64556D03*
D12*
X41913Y64556D03*
D10*
X50803Y64556D03*
D12*
X55451Y64556D03*
D11*
X61813Y64556D03*
X66893Y64556D03*
D40*
X23282Y65403D03*
D16*
X28781Y65403D03*
X40643Y65403D03*
D18*
X42332Y65403D03*
D16*
X51641Y65403D03*
D15*
X54613Y65403D03*
D30*
X61813Y65403D03*
X67732Y65403D03*
D12*
X22431Y66251D03*
D14*
X25822Y66251D03*
D12*
X30051Y66251D03*
D13*
X39792Y66251D03*
D10*
X43183Y66251D03*
D38*
X61382Y66251D03*
D12*
X68151Y66251D03*
D14*
X25822Y67096D03*
X30902Y67096D03*
X38522Y67096D03*
X43602Y67096D03*
D13*
X60112Y67096D03*
D12*
X62233Y67096D03*
D11*
X68570Y67096D03*
D30*
X26253Y67943D03*
D41*
X34712Y67943D03*
D15*
X44453Y67943D03*
D16*
X59261Y67943D03*
D17*
X61382Y67943D03*
X69002Y67943D03*
D12*
X26673Y68791D03*
X45291Y68791D03*
D10*
X58423Y68791D03*
D14*
X61382Y68791D03*
X69002Y68791D03*
D12*
X26673Y69636D03*
X57153Y69636D03*
X60531Y69636D03*
D13*
X62652Y69636D03*
D14*
X69002Y69636D03*
D15*
X27511Y70483D03*
X47831Y70483D03*
D17*
X56302Y70483D03*
D15*
X60531Y70483D03*
D17*
X69002Y70483D03*
D12*
X27511Y71331D03*
D42*
X52073Y71331D03*
D12*
X59693Y71331D03*
D14*
X69002Y71331D03*
X28362Y72176D03*
X58842Y72176D03*
X69002Y72176D03*
D17*
X28362Y73023D03*
D30*
X58410Y73023D03*
X68570Y73023D03*
D12*
X29213Y73871D03*
X57991Y73871D03*
X68151Y73871D03*
D11*
X29632Y74716D03*
D20*
X57572Y74716D03*
D11*
X67732Y74716D03*
D15*
X30051Y75563D03*
D30*
X55870Y75563D03*
X59273Y75563D03*
X66893Y75563D03*
D14*
X30902Y76411D03*
D11*
X55032Y76411D03*
D43*
X63503Y76411D03*
D11*
X31333Y77256D03*
D13*
X34712Y77256D03*
D10*
X38941Y77256D03*
D11*
X53330Y77256D03*
D23*
X63490Y77256D03*
D30*
X32172Y78103D03*
D16*
X35563Y78103D03*
D30*
X41493Y78103D03*
D35*
X52073Y78103D03*
D30*
X63490Y78103D03*
D11*
X33010Y78951D03*
X37252Y78951D03*
D26*
X46993Y78951D03*
D20*
X34712Y79796D03*
D36*
X40211Y79796D03*
X46993Y79796D03*
D22*
X35982Y80643D03*
D39*
X43602Y80643D03*
D20*
X38945Y81491D03*
D12*
X39373Y82336D03*
D44*
X110236Y108458D02*
X110236Y115824D01*
X110236Y72136D02*
X117602Y72136D01*
X153924Y72136D02*
X153924Y79502D01*
X153924Y115824D02*
X146558Y115824D01*
X117602Y115824D02*
X110236Y115824D01*
X110236Y79502D02*
X110236Y72136D01*
X146558Y72136D02*
X153924Y72136D01*
X153924Y108458D02*
X153924Y115824D01*
D45*
X147687Y126781D02*
X143708Y126781D01*
X140723Y124460D01*
X143708Y126781D02*
X140723Y129103D01*
X143708Y126781D02*
X145034Y123134D01*
X143708Y126781D02*
X145034Y130429D01*
X158115Y105029D02*
X158115Y96407D01*
X158117Y96293D01*
X158123Y96178D01*
X158133Y96064D01*
X158147Y95951D01*
X158164Y95837D01*
X158186Y95725D01*
X158211Y95613D01*
X158241Y95503D01*
X158274Y95393D01*
X158311Y95285D01*
X158351Y95178D01*
X158396Y95072D01*
X158443Y94968D01*
X158495Y94866D01*
X158550Y94766D01*
X158608Y94667D01*
X158670Y94571D01*
X158735Y94476D01*
X158803Y94385D01*
X158875Y94295D01*
X158949Y94208D01*
X159026Y94124D01*
X159107Y94042D01*
X159190Y93963D01*
X159275Y93887D01*
X159364Y93814D01*
X159454Y93745D01*
X159547Y93678D01*
X159643Y93615D01*
X159740Y93555D01*
X159840Y93498D01*
X159941Y93445D01*
X160044Y93395D01*
X160149Y93349D01*
X160255Y93306D01*
X160363Y93268D01*
X160472Y93233D01*
X160582Y93202D01*
X160693Y93174D01*
X160805Y93151D01*
X160918Y93131D01*
X161031Y93115D01*
X161145Y93103D01*
X161259Y93095D01*
X161374Y93091D01*
X161488Y93091D01*
X161603Y93095D01*
X161717Y93103D01*
X161831Y93115D01*
X161944Y93131D01*
X162057Y93151D01*
X162169Y93174D01*
X162280Y93202D01*
X162390Y93233D01*
X162499Y93268D01*
X162607Y93306D01*
X162713Y93349D01*
X162818Y93395D01*
X162921Y93445D01*
X163022Y93498D01*
X163122Y93555D01*
X163219Y93615D01*
X163315Y93678D01*
X163408Y93745D01*
X163498Y93814D01*
X163587Y93887D01*
X163672Y93963D01*
X163755Y94042D01*
X163836Y94124D01*
X163913Y94208D01*
X163987Y94295D01*
X164059Y94385D01*
X164127Y94476D01*
X164192Y94571D01*
X164254Y94667D01*
X164312Y94766D01*
X164367Y94866D01*
X164419Y94968D01*
X164466Y95072D01*
X164511Y95178D01*
X164551Y95285D01*
X164588Y95393D01*
X164621Y95503D01*
X164651Y95613D01*
X164676Y95725D01*
X164698Y95837D01*
X164715Y95951D01*
X164729Y96064D01*
X164739Y96178D01*
X164745Y96293D01*
X164747Y96407D01*
X164747Y105029D01*
X173574Y105030D02*
X173681Y105028D01*
X173787Y105022D01*
X173893Y105013D01*
X173999Y105000D01*
X174104Y104983D01*
X174209Y104962D01*
X174312Y104937D01*
X174415Y104909D01*
X174517Y104877D01*
X174617Y104842D01*
X174716Y104803D01*
X174814Y104760D01*
X174910Y104714D01*
X175005Y104665D01*
X175097Y104612D01*
X175188Y104556D01*
X175276Y104497D01*
X175363Y104435D01*
X175447Y104369D01*
X175529Y104301D01*
X175608Y104230D01*
X175685Y104156D01*
X175759Y104079D01*
X175830Y104000D01*
X175898Y103918D01*
X175964Y103834D01*
X176026Y103747D01*
X176085Y103659D01*
X176141Y103568D01*
X176194Y103476D01*
X176243Y103381D01*
X176289Y103285D01*
X176332Y103187D01*
X176371Y103088D01*
X176406Y102988D01*
X176438Y102886D01*
X176466Y102783D01*
X176491Y102680D01*
X176512Y102575D01*
X176529Y102470D01*
X176542Y102364D01*
X176551Y102258D01*
X176557Y102152D01*
X176559Y102045D01*
X173574Y105029D02*
X173453Y105027D01*
X173333Y105021D01*
X173213Y105012D01*
X173093Y104999D01*
X172974Y104982D01*
X172855Y104961D01*
X172737Y104937D01*
X172620Y104908D01*
X172504Y104877D01*
X172388Y104841D01*
X172274Y104802D01*
X172162Y104759D01*
X172050Y104713D01*
X171940Y104664D01*
X171832Y104610D01*
X171726Y104554D01*
X171621Y104494D01*
X171518Y104431D01*
X171418Y104365D01*
X171319Y104296D01*
X171223Y104223D01*
X171129Y104148D01*
X171037Y104070D01*
X170948Y103988D01*
X170861Y103904D01*
X170778Y103818D01*
X170696Y103729D01*
X170618Y103637D01*
X170543Y103543D01*
X170471Y103446D01*
X170401Y103348D01*
X170335Y103247D01*
X170272Y103144D01*
X170213Y103039D01*
X170156Y102933D01*
X170103Y102824D01*
X170054Y102715D01*
X170008Y102603D01*
X169965Y102490D01*
X169927Y102376D01*
X175564Y99723D02*
X175644Y99803D01*
X175722Y99885D01*
X175796Y99969D01*
X175868Y100057D01*
X175936Y100147D01*
X176002Y100239D01*
X176064Y100333D01*
X176122Y100429D01*
X176177Y100528D01*
X176229Y100628D01*
X176277Y100730D01*
X176322Y100834D01*
X176362Y100939D01*
X176399Y101046D01*
X176433Y101154D01*
X176462Y101263D01*
X176488Y101373D01*
X176509Y101484D01*
X176527Y101595D01*
X176541Y101707D01*
X176551Y101819D01*
X176557Y101932D01*
X176559Y102045D01*
X175563Y99723D02*
X169926Y93091D01*
X176558Y93091D01*
D46*
X95040Y235620D02*
X92040Y235620D01*
X164040Y235620D02*
X167040Y235620D01*
X167040Y163620D02*
X167040Y160620D01*
X167040Y232620D02*
X167040Y235620D01*
X95040Y160620D02*
X92040Y160620D01*
X164040Y160620D02*
X167040Y160620D01*
X92040Y160620D02*
X92040Y163620D01*
X92040Y232620D02*
X92040Y235620D01*
D47*
X74040Y226120D03*
D45*
X107661Y136701D02*
X110227Y136701D01*
X110326Y136703D01*
X110426Y136709D01*
X110525Y136718D01*
X110623Y136732D01*
X110721Y136749D01*
X110819Y136770D01*
X110915Y136795D01*
X111010Y136824D01*
X111105Y136856D01*
X111197Y136892D01*
X111289Y136931D01*
X111379Y136974D01*
X111467Y137020D01*
X111553Y137070D01*
X111637Y137123D01*
X111719Y137179D01*
X111799Y137239D01*
X111876Y137301D01*
X111951Y137367D01*
X112024Y137435D01*
X112093Y137506D01*
X112160Y137580D01*
X112224Y137656D01*
X112285Y137735D01*
X112343Y137816D01*
X112398Y137899D01*
X112449Y137984D01*
X112497Y138071D01*
X112542Y138160D01*
X112583Y138251D01*
X112621Y138343D01*
X112655Y138436D01*
X112685Y138531D01*
X112712Y138627D01*
X112735Y138724D01*
X112754Y138821D01*
X112769Y138920D01*
X112781Y139019D01*
X112789Y139118D01*
X112793Y139217D01*
X112793Y139317D01*
X112789Y139416D01*
X112781Y139515D01*
X112769Y139614D01*
X112754Y139713D01*
X112735Y139810D01*
X112712Y139907D01*
X112685Y140003D01*
X112655Y140098D01*
X112621Y140191D01*
X112583Y140283D01*
X112542Y140374D01*
X112497Y140463D01*
X112449Y140550D01*
X112398Y140635D01*
X112343Y140718D01*
X112285Y140799D01*
X112224Y140878D01*
X112160Y140954D01*
X112093Y141028D01*
X112024Y141099D01*
X111951Y141167D01*
X111876Y141233D01*
X111799Y141295D01*
X111719Y141355D01*
X111637Y141411D01*
X111553Y141464D01*
X111467Y141514D01*
X111379Y141560D01*
X111289Y141603D01*
X111197Y141642D01*
X111105Y141678D01*
X111010Y141710D01*
X110915Y141739D01*
X110819Y141764D01*
X110721Y141785D01*
X110623Y141802D01*
X110525Y141816D01*
X110426Y141825D01*
X110326Y141831D01*
X110227Y141833D01*
X110740Y145939D02*
X107661Y145939D01*
X110740Y145939D02*
X110830Y145937D01*
X110919Y145931D01*
X111008Y145921D01*
X111096Y145908D01*
X111184Y145890D01*
X111271Y145869D01*
X111357Y145844D01*
X111442Y145815D01*
X111526Y145783D01*
X111608Y145747D01*
X111688Y145707D01*
X111767Y145664D01*
X111843Y145617D01*
X111918Y145568D01*
X111990Y145515D01*
X112060Y145459D01*
X112127Y145400D01*
X112192Y145338D01*
X112254Y145273D01*
X112313Y145206D01*
X112369Y145136D01*
X112422Y145064D01*
X112471Y144989D01*
X112518Y144913D01*
X112561Y144834D01*
X112601Y144754D01*
X112637Y144672D01*
X112669Y144588D01*
X112698Y144503D01*
X112723Y144417D01*
X112744Y144330D01*
X112762Y144242D01*
X112775Y144154D01*
X112785Y144065D01*
X112791Y143976D01*
X112793Y143886D01*
X112791Y143796D01*
X112785Y143707D01*
X112775Y143618D01*
X112762Y143530D01*
X112744Y143442D01*
X112723Y143355D01*
X112698Y143269D01*
X112669Y143184D01*
X112637Y143100D01*
X112601Y143018D01*
X112561Y142938D01*
X112518Y142860D01*
X112471Y142783D01*
X112422Y142708D01*
X112369Y142636D01*
X112313Y142566D01*
X112254Y142499D01*
X112192Y142434D01*
X112127Y142372D01*
X112060Y142313D01*
X111990Y142257D01*
X111918Y142204D01*
X111843Y142155D01*
X111767Y142108D01*
X111688Y142065D01*
X111608Y142025D01*
X111526Y141989D01*
X111442Y141957D01*
X111357Y141928D01*
X111271Y141903D01*
X111184Y141882D01*
X111096Y141864D01*
X111008Y141851D01*
X110919Y141841D01*
X110830Y141835D01*
X110740Y141833D01*
X108687Y141833D01*
X119484Y145939D02*
X119577Y145937D01*
X119670Y145932D01*
X119762Y145922D01*
X119855Y145909D01*
X119946Y145892D01*
X120037Y145872D01*
X120127Y145848D01*
X120216Y145820D01*
X120303Y145789D01*
X120389Y145754D01*
X120474Y145716D01*
X120558Y145674D01*
X120639Y145630D01*
X120719Y145581D01*
X120796Y145530D01*
X120872Y145476D01*
X120945Y145418D01*
X121016Y145358D01*
X121084Y145295D01*
X121150Y145229D01*
X121213Y145161D01*
X121273Y145090D01*
X121331Y145017D01*
X121385Y144941D01*
X121436Y144864D01*
X121485Y144784D01*
X121529Y144703D01*
X121571Y144619D01*
X121609Y144534D01*
X121644Y144448D01*
X121675Y144361D01*
X121703Y144272D01*
X121727Y144182D01*
X121747Y144091D01*
X121764Y144000D01*
X121777Y143907D01*
X121787Y143815D01*
X121792Y143722D01*
X121794Y143629D01*
X119484Y145939D02*
X119377Y145937D01*
X119271Y145931D01*
X119165Y145922D01*
X119059Y145908D01*
X118954Y145891D01*
X118849Y145870D01*
X118746Y145846D01*
X118643Y145817D01*
X118541Y145785D01*
X118441Y145750D01*
X118342Y145710D01*
X118244Y145667D01*
X118148Y145621D01*
X118054Y145571D01*
X117961Y145518D01*
X117871Y145462D01*
X117782Y145402D01*
X117696Y145340D01*
X117612Y145274D01*
X117531Y145205D01*
X117452Y145134D01*
X117375Y145059D01*
X117302Y144982D01*
X117231Y144903D01*
X117163Y144820D01*
X117098Y144736D01*
X117036Y144649D01*
X116978Y144560D01*
X116922Y144469D01*
X116870Y144376D01*
X116821Y144281D01*
X116776Y144185D01*
X116734Y144086D01*
X116696Y143987D01*
X116661Y143886D01*
X121024Y141832D02*
X121092Y141900D01*
X121157Y141970D01*
X121220Y142042D01*
X121280Y142117D01*
X121337Y142194D01*
X121390Y142273D01*
X121441Y142354D01*
X121489Y142437D01*
X121533Y142521D01*
X121574Y142608D01*
X121612Y142696D01*
X121646Y142785D01*
X121677Y142876D01*
X121704Y142967D01*
X121728Y143060D01*
X121748Y143154D01*
X121765Y143248D01*
X121777Y143343D01*
X121787Y143438D01*
X121792Y143533D01*
X121794Y143629D01*
X121023Y141833D02*
X116661Y136701D01*
X121793Y136701D01*
X125661Y139267D02*
X125663Y139366D01*
X125669Y139466D01*
X125678Y139565D01*
X125692Y139663D01*
X125709Y139761D01*
X125730Y139859D01*
X125755Y139955D01*
X125784Y140050D01*
X125816Y140145D01*
X125852Y140237D01*
X125891Y140329D01*
X125934Y140419D01*
X125980Y140507D01*
X126030Y140593D01*
X126083Y140677D01*
X126139Y140759D01*
X126199Y140839D01*
X126261Y140916D01*
X126327Y140991D01*
X126395Y141064D01*
X126466Y141133D01*
X126540Y141200D01*
X126616Y141264D01*
X126695Y141325D01*
X126776Y141383D01*
X126859Y141438D01*
X126944Y141489D01*
X127031Y141537D01*
X127120Y141582D01*
X127211Y141623D01*
X127303Y141661D01*
X127396Y141695D01*
X127491Y141725D01*
X127587Y141752D01*
X127684Y141775D01*
X127781Y141794D01*
X127880Y141809D01*
X127979Y141821D01*
X128078Y141829D01*
X128177Y141833D01*
X128277Y141833D01*
X128376Y141829D01*
X128475Y141821D01*
X128574Y141809D01*
X128673Y141794D01*
X128770Y141775D01*
X128867Y141752D01*
X128963Y141725D01*
X129058Y141695D01*
X129151Y141661D01*
X129243Y141623D01*
X129334Y141582D01*
X129423Y141537D01*
X129510Y141489D01*
X129595Y141438D01*
X129678Y141383D01*
X129759Y141325D01*
X129838Y141264D01*
X129914Y141200D01*
X129988Y141133D01*
X130059Y141064D01*
X130127Y140991D01*
X130193Y140916D01*
X130255Y140839D01*
X130315Y140759D01*
X130371Y140677D01*
X130424Y140593D01*
X130474Y140507D01*
X130520Y140419D01*
X130563Y140329D01*
X130602Y140237D01*
X130638Y140145D01*
X130670Y140050D01*
X130699Y139955D01*
X130724Y139859D01*
X130745Y139761D01*
X130762Y139663D01*
X130776Y139565D01*
X130785Y139466D01*
X130791Y139366D01*
X130793Y139267D01*
X130791Y139168D01*
X130785Y139068D01*
X130776Y138969D01*
X130762Y138871D01*
X130745Y138773D01*
X130724Y138675D01*
X130699Y138579D01*
X130670Y138484D01*
X130638Y138389D01*
X130602Y138297D01*
X130563Y138205D01*
X130520Y138115D01*
X130474Y138027D01*
X130424Y137941D01*
X130371Y137857D01*
X130315Y137775D01*
X130255Y137695D01*
X130193Y137618D01*
X130127Y137543D01*
X130059Y137470D01*
X129988Y137401D01*
X129914Y137334D01*
X129838Y137270D01*
X129759Y137209D01*
X129678Y137151D01*
X129595Y137096D01*
X129510Y137045D01*
X129423Y136997D01*
X129334Y136952D01*
X129243Y136911D01*
X129151Y136873D01*
X129058Y136839D01*
X128963Y136809D01*
X128867Y136782D01*
X128770Y136759D01*
X128673Y136740D01*
X128574Y136725D01*
X128475Y136713D01*
X128376Y136705D01*
X128277Y136701D01*
X128177Y136701D01*
X128078Y136705D01*
X127979Y136713D01*
X127880Y136725D01*
X127781Y136740D01*
X127684Y136759D01*
X127587Y136782D01*
X127491Y136809D01*
X127396Y136839D01*
X127303Y136873D01*
X127211Y136911D01*
X127120Y136952D01*
X127031Y136997D01*
X126944Y137045D01*
X126859Y137096D01*
X126776Y137151D01*
X126695Y137209D01*
X126616Y137270D01*
X126540Y137334D01*
X126466Y137401D01*
X126395Y137470D01*
X126327Y137543D01*
X126261Y137618D01*
X126199Y137695D01*
X126139Y137775D01*
X126083Y137857D01*
X126030Y137941D01*
X125980Y138027D01*
X125934Y138115D01*
X125891Y138205D01*
X125852Y138297D01*
X125816Y138389D01*
X125784Y138484D01*
X125755Y138579D01*
X125730Y138675D01*
X125709Y138773D01*
X125692Y138871D01*
X125678Y138969D01*
X125669Y139068D01*
X125663Y139168D01*
X125661Y139267D01*
X126174Y143886D02*
X126176Y143976D01*
X126182Y144065D01*
X126192Y144154D01*
X126205Y144242D01*
X126223Y144330D01*
X126244Y144417D01*
X126269Y144503D01*
X126298Y144588D01*
X126330Y144672D01*
X126366Y144754D01*
X126406Y144834D01*
X126449Y144913D01*
X126496Y144989D01*
X126545Y145064D01*
X126598Y145136D01*
X126654Y145206D01*
X126713Y145273D01*
X126775Y145338D01*
X126840Y145400D01*
X126907Y145459D01*
X126977Y145515D01*
X127049Y145568D01*
X127124Y145617D01*
X127201Y145664D01*
X127279Y145707D01*
X127359Y145747D01*
X127441Y145783D01*
X127525Y145815D01*
X127610Y145844D01*
X127696Y145869D01*
X127783Y145890D01*
X127871Y145908D01*
X127959Y145921D01*
X128048Y145931D01*
X128137Y145937D01*
X128227Y145939D01*
X128317Y145937D01*
X128406Y145931D01*
X128495Y145921D01*
X128583Y145908D01*
X128671Y145890D01*
X128758Y145869D01*
X128844Y145844D01*
X128929Y145815D01*
X129013Y145783D01*
X129095Y145747D01*
X129175Y145707D01*
X129254Y145664D01*
X129330Y145617D01*
X129405Y145568D01*
X129477Y145515D01*
X129547Y145459D01*
X129614Y145400D01*
X129679Y145338D01*
X129741Y145273D01*
X129800Y145206D01*
X129856Y145136D01*
X129909Y145064D01*
X129958Y144989D01*
X130005Y144913D01*
X130048Y144834D01*
X130088Y144754D01*
X130124Y144672D01*
X130156Y144588D01*
X130185Y144503D01*
X130210Y144417D01*
X130231Y144330D01*
X130249Y144242D01*
X130262Y144154D01*
X130272Y144065D01*
X130278Y143976D01*
X130280Y143886D01*
X130278Y143796D01*
X130272Y143707D01*
X130262Y143618D01*
X130249Y143530D01*
X130231Y143442D01*
X130210Y143355D01*
X130185Y143269D01*
X130156Y143184D01*
X130124Y143100D01*
X130088Y143018D01*
X130048Y142938D01*
X130005Y142860D01*
X129958Y142783D01*
X129909Y142708D01*
X129856Y142636D01*
X129800Y142566D01*
X129741Y142499D01*
X129679Y142434D01*
X129614Y142372D01*
X129547Y142313D01*
X129477Y142257D01*
X129405Y142204D01*
X129330Y142155D01*
X129254Y142108D01*
X129175Y142065D01*
X129095Y142025D01*
X129013Y141989D01*
X128929Y141957D01*
X128844Y141928D01*
X128758Y141903D01*
X128671Y141882D01*
X128583Y141864D01*
X128495Y141851D01*
X128406Y141841D01*
X128317Y141835D01*
X128227Y141833D01*
X128137Y141835D01*
X128048Y141841D01*
X127959Y141851D01*
X127871Y141864D01*
X127783Y141882D01*
X127696Y141903D01*
X127610Y141928D01*
X127525Y141957D01*
X127441Y141989D01*
X127359Y142025D01*
X127279Y142065D01*
X127201Y142108D01*
X127124Y142155D01*
X127049Y142204D01*
X126977Y142257D01*
X126907Y142313D01*
X126840Y142372D01*
X126775Y142434D01*
X126713Y142499D01*
X126654Y142566D01*
X126598Y142636D01*
X126545Y142708D01*
X126496Y142783D01*
X126449Y142860D01*
X126406Y142938D01*
X126366Y143018D01*
X126330Y143100D01*
X126298Y143184D01*
X126269Y143269D01*
X126244Y143355D01*
X126223Y143442D01*
X126205Y143530D01*
X126192Y143618D01*
X126182Y143707D01*
X126176Y143796D01*
X126174Y143886D01*
X135091Y145939D02*
X135091Y136701D01*
X135091Y145939D02*
X137657Y145939D01*
X137756Y145937D01*
X137856Y145931D01*
X137955Y145922D01*
X138053Y145908D01*
X138151Y145891D01*
X138249Y145870D01*
X138345Y145845D01*
X138440Y145816D01*
X138535Y145784D01*
X138627Y145748D01*
X138719Y145709D01*
X138809Y145666D01*
X138897Y145620D01*
X138983Y145570D01*
X139067Y145517D01*
X139149Y145461D01*
X139229Y145401D01*
X139306Y145339D01*
X139381Y145273D01*
X139454Y145205D01*
X139523Y145134D01*
X139590Y145060D01*
X139654Y144984D01*
X139715Y144905D01*
X139773Y144824D01*
X139828Y144741D01*
X139879Y144656D01*
X139927Y144569D01*
X139972Y144480D01*
X140013Y144389D01*
X140051Y144297D01*
X140085Y144204D01*
X140115Y144109D01*
X140142Y144013D01*
X140165Y143916D01*
X140184Y143819D01*
X140199Y143720D01*
X140211Y143621D01*
X140219Y143522D01*
X140223Y143423D01*
X140223Y143323D01*
X140219Y143224D01*
X140211Y143125D01*
X140199Y143026D01*
X140184Y142927D01*
X140165Y142830D01*
X140142Y142733D01*
X140115Y142637D01*
X140085Y142542D01*
X140051Y142449D01*
X140013Y142357D01*
X139972Y142266D01*
X139927Y142177D01*
X139879Y142090D01*
X139828Y142005D01*
X139773Y141922D01*
X139715Y141841D01*
X139654Y141762D01*
X139590Y141686D01*
X139523Y141612D01*
X139454Y141541D01*
X139381Y141473D01*
X139306Y141407D01*
X139229Y141345D01*
X139149Y141285D01*
X139067Y141229D01*
X138983Y141176D01*
X138897Y141126D01*
X138809Y141080D01*
X138719Y141037D01*
X138627Y140998D01*
X138535Y140962D01*
X138440Y140930D01*
X138345Y140901D01*
X138249Y140876D01*
X138151Y140855D01*
X138053Y140838D01*
X137955Y140824D01*
X137856Y140815D01*
X137756Y140809D01*
X137657Y140807D01*
X135091Y140807D01*
X144091Y141833D02*
X146657Y141833D01*
X146756Y141831D01*
X146856Y141825D01*
X146955Y141816D01*
X147053Y141802D01*
X147151Y141785D01*
X147249Y141764D01*
X147345Y141739D01*
X147440Y141710D01*
X147535Y141678D01*
X147627Y141642D01*
X147719Y141603D01*
X147809Y141560D01*
X147897Y141514D01*
X147983Y141464D01*
X148067Y141411D01*
X148149Y141355D01*
X148229Y141295D01*
X148306Y141233D01*
X148381Y141167D01*
X148454Y141099D01*
X148523Y141028D01*
X148590Y140954D01*
X148654Y140878D01*
X148715Y140799D01*
X148773Y140718D01*
X148828Y140635D01*
X148879Y140550D01*
X148927Y140463D01*
X148972Y140374D01*
X149013Y140283D01*
X149051Y140191D01*
X149085Y140098D01*
X149115Y140003D01*
X149142Y139907D01*
X149165Y139810D01*
X149184Y139713D01*
X149199Y139614D01*
X149211Y139515D01*
X149219Y139416D01*
X149223Y139317D01*
X149223Y139217D01*
X149219Y139118D01*
X149211Y139019D01*
X149199Y138920D01*
X149184Y138821D01*
X149165Y138724D01*
X149142Y138627D01*
X149115Y138531D01*
X149085Y138436D01*
X149051Y138343D01*
X149013Y138251D01*
X148972Y138160D01*
X148927Y138071D01*
X148879Y137984D01*
X148828Y137899D01*
X148773Y137816D01*
X148715Y137735D01*
X148654Y137656D01*
X148590Y137580D01*
X148523Y137506D01*
X148454Y137435D01*
X148381Y137367D01*
X148306Y137301D01*
X148229Y137239D01*
X148149Y137179D01*
X148067Y137123D01*
X147983Y137070D01*
X147897Y137020D01*
X147809Y136974D01*
X147719Y136931D01*
X147627Y136892D01*
X147535Y136856D01*
X147440Y136824D01*
X147345Y136795D01*
X147249Y136770D01*
X147151Y136749D01*
X147053Y136732D01*
X146955Y136718D01*
X146856Y136709D01*
X146756Y136703D01*
X146657Y136701D01*
X144091Y136701D01*
X144091Y145939D01*
X146657Y145939D01*
X146747Y145937D01*
X146836Y145931D01*
X146925Y145921D01*
X147013Y145908D01*
X147101Y145890D01*
X147188Y145869D01*
X147274Y145844D01*
X147359Y145815D01*
X147443Y145783D01*
X147525Y145747D01*
X147605Y145707D01*
X147684Y145664D01*
X147760Y145617D01*
X147835Y145568D01*
X147907Y145515D01*
X147977Y145459D01*
X148044Y145400D01*
X148109Y145338D01*
X148171Y145273D01*
X148230Y145206D01*
X148286Y145136D01*
X148339Y145064D01*
X148388Y144989D01*
X148435Y144913D01*
X148478Y144834D01*
X148518Y144754D01*
X148554Y144672D01*
X148586Y144588D01*
X148615Y144503D01*
X148640Y144417D01*
X148661Y144330D01*
X148679Y144242D01*
X148692Y144154D01*
X148702Y144065D01*
X148708Y143976D01*
X148710Y143886D01*
X148708Y143796D01*
X148702Y143707D01*
X148692Y143618D01*
X148679Y143530D01*
X148661Y143442D01*
X148640Y143355D01*
X148615Y143269D01*
X148586Y143184D01*
X148554Y143100D01*
X148518Y143018D01*
X148478Y142938D01*
X148435Y142860D01*
X148388Y142783D01*
X148339Y142708D01*
X148286Y142636D01*
X148230Y142566D01*
X148171Y142499D01*
X148109Y142434D01*
X148044Y142372D01*
X147977Y142313D01*
X147907Y142257D01*
X147835Y142204D01*
X147760Y142155D01*
X147684Y142108D01*
X147605Y142065D01*
X147525Y142025D01*
X147443Y141989D01*
X147359Y141957D01*
X147274Y141928D01*
X147188Y141903D01*
X147101Y141882D01*
X147013Y141864D01*
X146925Y141851D01*
X146836Y141841D01*
X146747Y141835D01*
X146657Y141833D01*
X188049Y115811D02*
X190138Y115811D01*
X188049Y115811D02*
X187960Y115813D01*
X187872Y115819D01*
X187784Y115828D01*
X187696Y115841D01*
X187609Y115858D01*
X187523Y115878D01*
X187438Y115903D01*
X187353Y115930D01*
X187270Y115962D01*
X187189Y115996D01*
X187109Y116035D01*
X187031Y116076D01*
X186954Y116121D01*
X186880Y116169D01*
X186807Y116220D01*
X186737Y116274D01*
X186670Y116332D01*
X186604Y116392D01*
X186542Y116454D01*
X186482Y116520D01*
X186424Y116587D01*
X186370Y116657D01*
X186319Y116730D01*
X186271Y116804D01*
X186226Y116881D01*
X186185Y116959D01*
X186146Y117039D01*
X186112Y117120D01*
X186080Y117203D01*
X186053Y117288D01*
X186028Y117373D01*
X186008Y117459D01*
X185991Y117546D01*
X185978Y117634D01*
X185969Y117722D01*
X185963Y117810D01*
X185961Y117899D01*
X185961Y123121D01*
X185963Y123212D01*
X185969Y123303D01*
X185979Y123394D01*
X185993Y123484D01*
X186010Y123573D01*
X186032Y123661D01*
X186058Y123749D01*
X186087Y123835D01*
X186120Y123920D01*
X186157Y124003D01*
X186197Y124085D01*
X186241Y124165D01*
X186288Y124243D01*
X186339Y124319D01*
X186392Y124392D01*
X186449Y124463D01*
X186510Y124532D01*
X186573Y124597D01*
X186638Y124660D01*
X186707Y124720D01*
X186778Y124778D01*
X186851Y124831D01*
X186927Y124882D01*
X187005Y124929D01*
X187085Y124973D01*
X187167Y125013D01*
X187250Y125050D01*
X187335Y125083D01*
X187421Y125112D01*
X187509Y125138D01*
X187597Y125160D01*
X187686Y125177D01*
X187776Y125191D01*
X187867Y125201D01*
X187958Y125207D01*
X188049Y125209D01*
X190138Y125209D01*
X193606Y118422D02*
X193608Y118523D01*
X193614Y118624D01*
X193624Y118725D01*
X193637Y118825D01*
X193655Y118925D01*
X193676Y119024D01*
X193702Y119122D01*
X193731Y119219D01*
X193763Y119315D01*
X193800Y119409D01*
X193840Y119502D01*
X193884Y119594D01*
X193931Y119683D01*
X193982Y119771D01*
X194036Y119857D01*
X194093Y119940D01*
X194153Y120022D01*
X194217Y120100D01*
X194283Y120177D01*
X194353Y120250D01*
X194425Y120321D01*
X194500Y120389D01*
X194578Y120454D01*
X194658Y120516D01*
X194740Y120575D01*
X194825Y120631D01*
X194912Y120683D01*
X195000Y120732D01*
X195091Y120778D01*
X195183Y120819D01*
X195277Y120858D01*
X195372Y120892D01*
X195468Y120923D01*
X195566Y120950D01*
X195664Y120974D01*
X195764Y120993D01*
X195864Y121009D01*
X195964Y121021D01*
X196065Y121029D01*
X196166Y121033D01*
X196268Y121033D01*
X196369Y121029D01*
X196470Y121021D01*
X196570Y121009D01*
X196670Y120993D01*
X196770Y120974D01*
X196868Y120950D01*
X196966Y120923D01*
X197062Y120892D01*
X197157Y120858D01*
X197251Y120819D01*
X197343Y120778D01*
X197434Y120732D01*
X197523Y120683D01*
X197609Y120631D01*
X197694Y120575D01*
X197776Y120516D01*
X197856Y120454D01*
X197934Y120389D01*
X198009Y120321D01*
X198081Y120250D01*
X198151Y120177D01*
X198217Y120100D01*
X198281Y120022D01*
X198341Y119940D01*
X198398Y119857D01*
X198452Y119771D01*
X198503Y119683D01*
X198550Y119594D01*
X198594Y119502D01*
X198634Y119409D01*
X198671Y119315D01*
X198703Y119219D01*
X198732Y119122D01*
X198758Y119024D01*
X198779Y118925D01*
X198797Y118825D01*
X198810Y118725D01*
X198820Y118624D01*
X198826Y118523D01*
X198828Y118422D01*
X198826Y118321D01*
X198820Y118220D01*
X198810Y118119D01*
X198797Y118019D01*
X198779Y117919D01*
X198758Y117820D01*
X198732Y117722D01*
X198703Y117625D01*
X198671Y117529D01*
X198634Y117435D01*
X198594Y117342D01*
X198550Y117250D01*
X198503Y117161D01*
X198452Y117073D01*
X198398Y116987D01*
X198341Y116904D01*
X198281Y116822D01*
X198217Y116744D01*
X198151Y116667D01*
X198081Y116594D01*
X198009Y116523D01*
X197934Y116455D01*
X197856Y116390D01*
X197776Y116328D01*
X197694Y116269D01*
X197609Y116213D01*
X197522Y116161D01*
X197434Y116112D01*
X197343Y116066D01*
X197251Y116025D01*
X197157Y115986D01*
X197062Y115952D01*
X196966Y115921D01*
X196868Y115894D01*
X196770Y115870D01*
X196670Y115851D01*
X196570Y115835D01*
X196470Y115823D01*
X196369Y115815D01*
X196268Y115811D01*
X196166Y115811D01*
X196065Y115815D01*
X195964Y115823D01*
X195864Y115835D01*
X195764Y115851D01*
X195664Y115870D01*
X195566Y115894D01*
X195468Y115921D01*
X195372Y115952D01*
X195277Y115986D01*
X195183Y116025D01*
X195091Y116066D01*
X195000Y116112D01*
X194912Y116161D01*
X194825Y116213D01*
X194740Y116269D01*
X194658Y116328D01*
X194578Y116390D01*
X194500Y116455D01*
X194425Y116523D01*
X194353Y116594D01*
X194283Y116667D01*
X194217Y116744D01*
X194153Y116822D01*
X194093Y116904D01*
X194036Y116987D01*
X193982Y117073D01*
X193931Y117161D01*
X193884Y117250D01*
X193840Y117342D01*
X193800Y117435D01*
X193763Y117529D01*
X193731Y117625D01*
X193702Y117722D01*
X193676Y117820D01*
X193655Y117919D01*
X193637Y118019D01*
X193624Y118119D01*
X193614Y118220D01*
X193608Y118321D01*
X193606Y118422D01*
X194129Y123121D02*
X194131Y123211D01*
X194137Y123300D01*
X194146Y123390D01*
X194160Y123479D01*
X194177Y123567D01*
X194198Y123654D01*
X194223Y123741D01*
X194252Y123826D01*
X194284Y123910D01*
X194319Y123992D01*
X194359Y124073D01*
X194401Y124152D01*
X194447Y124229D01*
X194497Y124304D01*
X194549Y124377D01*
X194605Y124448D01*
X194663Y124516D01*
X194725Y124581D01*
X194789Y124644D01*
X194856Y124704D01*
X194925Y124761D01*
X194997Y124815D01*
X195071Y124866D01*
X195147Y124914D01*
X195225Y124958D01*
X195305Y124999D01*
X195387Y125037D01*
X195470Y125071D01*
X195555Y125101D01*
X195641Y125128D01*
X195727Y125151D01*
X195815Y125170D01*
X195904Y125185D01*
X195993Y125197D01*
X196082Y125205D01*
X196172Y125209D01*
X196262Y125209D01*
X196352Y125205D01*
X196441Y125197D01*
X196530Y125185D01*
X196619Y125170D01*
X196707Y125151D01*
X196793Y125128D01*
X196879Y125101D01*
X196964Y125071D01*
X197047Y125037D01*
X197129Y124999D01*
X197209Y124958D01*
X197287Y124914D01*
X197363Y124866D01*
X197437Y124815D01*
X197509Y124761D01*
X197578Y124704D01*
X197645Y124644D01*
X197709Y124581D01*
X197771Y124516D01*
X197829Y124448D01*
X197885Y124377D01*
X197937Y124304D01*
X197987Y124229D01*
X198033Y124152D01*
X198075Y124073D01*
X198115Y123992D01*
X198150Y123910D01*
X198182Y123826D01*
X198211Y123741D01*
X198236Y123654D01*
X198257Y123567D01*
X198274Y123479D01*
X198288Y123390D01*
X198297Y123300D01*
X198303Y123211D01*
X198305Y123121D01*
X198303Y123031D01*
X198297Y122942D01*
X198288Y122852D01*
X198274Y122763D01*
X198257Y122675D01*
X198236Y122588D01*
X198211Y122501D01*
X198182Y122416D01*
X198150Y122332D01*
X198115Y122250D01*
X198075Y122169D01*
X198033Y122090D01*
X197987Y122013D01*
X197937Y121938D01*
X197885Y121865D01*
X197829Y121794D01*
X197771Y121726D01*
X197709Y121661D01*
X197645Y121598D01*
X197578Y121538D01*
X197509Y121481D01*
X197437Y121427D01*
X197363Y121376D01*
X197287Y121328D01*
X197209Y121284D01*
X197129Y121243D01*
X197047Y121205D01*
X196964Y121171D01*
X196879Y121141D01*
X196793Y121114D01*
X196707Y121091D01*
X196619Y121072D01*
X196530Y121057D01*
X196441Y121045D01*
X196352Y121037D01*
X196262Y121033D01*
X196172Y121033D01*
X196082Y121037D01*
X195993Y121045D01*
X195904Y121057D01*
X195815Y121072D01*
X195727Y121091D01*
X195641Y121114D01*
X195555Y121141D01*
X195470Y121171D01*
X195387Y121205D01*
X195305Y121243D01*
X195225Y121284D01*
X195147Y121328D01*
X195071Y121376D01*
X194997Y121427D01*
X194925Y121481D01*
X194856Y121538D01*
X194789Y121598D01*
X194725Y121661D01*
X194663Y121726D01*
X194605Y121794D01*
X194549Y121865D01*
X194497Y121938D01*
X194447Y122013D01*
X194401Y122090D01*
X194359Y122169D01*
X194319Y122250D01*
X194284Y122332D01*
X194252Y122416D01*
X194223Y122501D01*
X194198Y122588D01*
X194177Y122675D01*
X194160Y122763D01*
X194146Y122852D01*
X194137Y122942D01*
X194131Y123031D01*
X194129Y123121D01*
X171088Y76441D02*
X168999Y76441D01*
X168910Y76443D01*
X168822Y76449D01*
X168734Y76458D01*
X168646Y76471D01*
X168559Y76488D01*
X168473Y76508D01*
X168388Y76533D01*
X168303Y76560D01*
X168220Y76592D01*
X168139Y76626D01*
X168059Y76665D01*
X167981Y76706D01*
X167904Y76751D01*
X167830Y76799D01*
X167757Y76850D01*
X167687Y76904D01*
X167620Y76962D01*
X167554Y77022D01*
X167492Y77084D01*
X167432Y77150D01*
X167374Y77217D01*
X167320Y77287D01*
X167269Y77360D01*
X167221Y77434D01*
X167176Y77511D01*
X167135Y77589D01*
X167096Y77669D01*
X167062Y77750D01*
X167030Y77833D01*
X167003Y77918D01*
X166978Y78003D01*
X166958Y78089D01*
X166941Y78176D01*
X166928Y78264D01*
X166919Y78352D01*
X166913Y78440D01*
X166911Y78529D01*
X166911Y83751D01*
X166913Y83842D01*
X166919Y83933D01*
X166929Y84024D01*
X166943Y84114D01*
X166960Y84203D01*
X166982Y84291D01*
X167008Y84379D01*
X167037Y84465D01*
X167070Y84550D01*
X167107Y84633D01*
X167147Y84715D01*
X167191Y84795D01*
X167238Y84873D01*
X167289Y84949D01*
X167342Y85022D01*
X167399Y85093D01*
X167460Y85162D01*
X167523Y85227D01*
X167588Y85290D01*
X167657Y85350D01*
X167728Y85408D01*
X167801Y85461D01*
X167877Y85512D01*
X167955Y85559D01*
X168035Y85603D01*
X168117Y85643D01*
X168200Y85680D01*
X168285Y85713D01*
X168371Y85742D01*
X168459Y85768D01*
X168547Y85790D01*
X168636Y85807D01*
X168726Y85821D01*
X168817Y85831D01*
X168908Y85837D01*
X168999Y85839D01*
X171088Y85839D01*
X174557Y85839D02*
X174557Y84795D01*
X174557Y85839D02*
X179778Y85839D01*
X177167Y76441D01*
X118859Y56174D02*
X118859Y54086D01*
X118857Y53997D01*
X118851Y53909D01*
X118842Y53821D01*
X118829Y53733D01*
X118812Y53646D01*
X118792Y53560D01*
X118767Y53475D01*
X118740Y53390D01*
X118708Y53307D01*
X118674Y53226D01*
X118635Y53146D01*
X118594Y53068D01*
X118549Y52991D01*
X118501Y52917D01*
X118450Y52844D01*
X118396Y52774D01*
X118338Y52707D01*
X118278Y52641D01*
X118216Y52579D01*
X118150Y52519D01*
X118083Y52461D01*
X118013Y52407D01*
X117940Y52356D01*
X117866Y52308D01*
X117789Y52263D01*
X117711Y52222D01*
X117631Y52183D01*
X117550Y52149D01*
X117467Y52117D01*
X117382Y52090D01*
X117297Y52065D01*
X117211Y52045D01*
X117124Y52028D01*
X117036Y52015D01*
X116948Y52006D01*
X116860Y52000D01*
X116771Y51998D01*
X116771Y51997D02*
X111549Y51997D01*
X111458Y51999D01*
X111367Y52005D01*
X111276Y52015D01*
X111186Y52029D01*
X111097Y52047D01*
X111008Y52068D01*
X110921Y52094D01*
X110835Y52123D01*
X110750Y52156D01*
X110666Y52193D01*
X110584Y52233D01*
X110505Y52277D01*
X110427Y52324D01*
X110351Y52375D01*
X110277Y52429D01*
X110206Y52486D01*
X110138Y52546D01*
X110072Y52609D01*
X110009Y52675D01*
X109949Y52743D01*
X109892Y52814D01*
X109838Y52888D01*
X109787Y52964D01*
X109740Y53041D01*
X109696Y53121D01*
X109656Y53203D01*
X109619Y53287D01*
X109586Y53371D01*
X109557Y53458D01*
X109531Y53545D01*
X109510Y53634D01*
X109492Y53723D01*
X109478Y53813D01*
X109468Y53904D01*
X109462Y53995D01*
X109460Y54086D01*
X109461Y54086D02*
X109461Y56174D01*
X109461Y62515D02*
X109463Y62610D01*
X109469Y62704D01*
X109478Y62798D01*
X109491Y62892D01*
X109508Y62985D01*
X109529Y63077D01*
X109554Y63169D01*
X109582Y63259D01*
X109614Y63348D01*
X109649Y63436D01*
X109688Y63522D01*
X109730Y63607D01*
X109776Y63690D01*
X109825Y63771D01*
X109877Y63850D01*
X109932Y63927D01*
X109991Y64001D01*
X110052Y64073D01*
X110116Y64143D01*
X110183Y64210D01*
X110253Y64274D01*
X110325Y64335D01*
X110399Y64394D01*
X110476Y64449D01*
X110555Y64501D01*
X110636Y64550D01*
X110719Y64596D01*
X110804Y64638D01*
X110890Y64677D01*
X110978Y64712D01*
X111067Y64744D01*
X111157Y64772D01*
X111249Y64797D01*
X111341Y64818D01*
X111434Y64835D01*
X111528Y64848D01*
X111622Y64857D01*
X111716Y64863D01*
X111811Y64865D01*
X109461Y62515D02*
X109463Y62407D01*
X109469Y62298D01*
X109479Y62190D01*
X109492Y62083D01*
X109510Y61976D01*
X109531Y61869D01*
X109556Y61764D01*
X109585Y61659D01*
X109617Y61556D01*
X109654Y61454D01*
X109694Y61353D01*
X109737Y61254D01*
X109784Y61156D01*
X109835Y61060D01*
X109889Y60966D01*
X109946Y60874D01*
X110007Y60784D01*
X110071Y60696D01*
X110137Y60611D01*
X110207Y60528D01*
X110280Y60448D01*
X110356Y60370D01*
X110434Y60295D01*
X110515Y60223D01*
X110599Y60154D01*
X110685Y60088D01*
X110773Y60025D01*
X110864Y59966D01*
X110956Y59909D01*
X111051Y59856D01*
X111148Y59807D01*
X111246Y59761D01*
X111345Y59718D01*
X111447Y59679D01*
X111549Y59644D01*
X113639Y64081D02*
X113570Y64150D01*
X113499Y64216D01*
X113426Y64280D01*
X113350Y64341D01*
X113271Y64399D01*
X113191Y64453D01*
X113108Y64505D01*
X113024Y64553D01*
X112938Y64599D01*
X112850Y64640D01*
X112760Y64679D01*
X112669Y64714D01*
X112577Y64745D01*
X112484Y64773D01*
X112390Y64797D01*
X112295Y64817D01*
X112199Y64834D01*
X112102Y64847D01*
X112005Y64856D01*
X111908Y64862D01*
X111811Y64864D01*
X113638Y64081D02*
X118859Y59643D01*
X118859Y64864D01*
X61889Y164351D02*
X59801Y164351D01*
X59712Y164353D01*
X59624Y164359D01*
X59536Y164368D01*
X59448Y164381D01*
X59361Y164398D01*
X59275Y164418D01*
X59190Y164443D01*
X59105Y164470D01*
X59022Y164502D01*
X58941Y164536D01*
X58861Y164575D01*
X58783Y164616D01*
X58706Y164661D01*
X58632Y164709D01*
X58559Y164760D01*
X58489Y164814D01*
X58422Y164872D01*
X58356Y164932D01*
X58294Y164994D01*
X58234Y165060D01*
X58176Y165127D01*
X58122Y165197D01*
X58071Y165270D01*
X58023Y165344D01*
X57978Y165421D01*
X57937Y165499D01*
X57898Y165579D01*
X57864Y165660D01*
X57832Y165743D01*
X57805Y165828D01*
X57780Y165913D01*
X57760Y165999D01*
X57743Y166086D01*
X57730Y166174D01*
X57721Y166262D01*
X57715Y166350D01*
X57713Y166439D01*
X57712Y166439D02*
X57712Y171661D01*
X57713Y171661D02*
X57715Y171752D01*
X57721Y171843D01*
X57731Y171934D01*
X57745Y172024D01*
X57762Y172113D01*
X57784Y172201D01*
X57810Y172289D01*
X57839Y172375D01*
X57872Y172460D01*
X57909Y172543D01*
X57949Y172625D01*
X57993Y172705D01*
X58040Y172783D01*
X58091Y172859D01*
X58144Y172932D01*
X58201Y173003D01*
X58262Y173072D01*
X58325Y173137D01*
X58390Y173200D01*
X58459Y173260D01*
X58530Y173318D01*
X58603Y173371D01*
X58679Y173422D01*
X58757Y173469D01*
X58837Y173513D01*
X58919Y173553D01*
X59002Y173590D01*
X59087Y173623D01*
X59173Y173652D01*
X59261Y173678D01*
X59349Y173700D01*
X59438Y173717D01*
X59528Y173731D01*
X59619Y173741D01*
X59710Y173747D01*
X59801Y173749D01*
X61889Y173749D01*
X65358Y164351D02*
X67968Y164351D01*
X68069Y164353D01*
X68170Y164359D01*
X68271Y164369D01*
X68371Y164382D01*
X68471Y164400D01*
X68570Y164421D01*
X68668Y164447D01*
X68765Y164476D01*
X68861Y164508D01*
X68955Y164545D01*
X69048Y164585D01*
X69140Y164629D01*
X69229Y164676D01*
X69317Y164727D01*
X69403Y164781D01*
X69486Y164838D01*
X69568Y164898D01*
X69646Y164962D01*
X69723Y165028D01*
X69796Y165098D01*
X69867Y165170D01*
X69935Y165245D01*
X70000Y165323D01*
X70062Y165403D01*
X70121Y165485D01*
X70177Y165570D01*
X70229Y165656D01*
X70278Y165745D01*
X70324Y165836D01*
X70365Y165928D01*
X70404Y166022D01*
X70438Y166117D01*
X70469Y166213D01*
X70496Y166311D01*
X70520Y166409D01*
X70539Y166509D01*
X70555Y166609D01*
X70567Y166709D01*
X70575Y166810D01*
X70579Y166911D01*
X70579Y167013D01*
X70575Y167114D01*
X70567Y167215D01*
X70555Y167315D01*
X70539Y167415D01*
X70520Y167515D01*
X70496Y167613D01*
X70469Y167711D01*
X70438Y167807D01*
X70404Y167902D01*
X70365Y167996D01*
X70324Y168088D01*
X70278Y168179D01*
X70229Y168267D01*
X70177Y168354D01*
X70121Y168439D01*
X70062Y168521D01*
X70000Y168601D01*
X69935Y168679D01*
X69867Y168754D01*
X69796Y168826D01*
X69723Y168896D01*
X69646Y168962D01*
X69568Y169026D01*
X69486Y169086D01*
X69403Y169143D01*
X69317Y169197D01*
X69229Y169248D01*
X69140Y169295D01*
X69048Y169339D01*
X68955Y169379D01*
X68861Y169416D01*
X68765Y169448D01*
X68668Y169477D01*
X68570Y169503D01*
X68471Y169524D01*
X68371Y169542D01*
X68271Y169555D01*
X68170Y169565D01*
X68069Y169571D01*
X67968Y169573D01*
X68491Y173749D02*
X65358Y173749D01*
X68491Y173749D02*
X68581Y173747D01*
X68670Y173741D01*
X68760Y173732D01*
X68849Y173718D01*
X68937Y173701D01*
X69024Y173680D01*
X69111Y173655D01*
X69196Y173626D01*
X69280Y173594D01*
X69362Y173559D01*
X69443Y173519D01*
X69522Y173477D01*
X69599Y173431D01*
X69674Y173381D01*
X69747Y173329D01*
X69818Y173273D01*
X69886Y173215D01*
X69951Y173153D01*
X70014Y173089D01*
X70074Y173022D01*
X70131Y172953D01*
X70185Y172881D01*
X70236Y172807D01*
X70284Y172731D01*
X70328Y172653D01*
X70369Y172573D01*
X70407Y172491D01*
X70441Y172408D01*
X70471Y172323D01*
X70498Y172237D01*
X70521Y172151D01*
X70540Y172063D01*
X70555Y171974D01*
X70567Y171885D01*
X70575Y171796D01*
X70579Y171706D01*
X70579Y171616D01*
X70575Y171526D01*
X70567Y171437D01*
X70555Y171348D01*
X70540Y171259D01*
X70521Y171171D01*
X70498Y171085D01*
X70471Y170999D01*
X70441Y170914D01*
X70407Y170831D01*
X70369Y170749D01*
X70328Y170669D01*
X70284Y170591D01*
X70236Y170515D01*
X70185Y170441D01*
X70131Y170369D01*
X70074Y170300D01*
X70014Y170233D01*
X69951Y170169D01*
X69886Y170107D01*
X69818Y170049D01*
X69747Y169993D01*
X69674Y169941D01*
X69599Y169891D01*
X69522Y169845D01*
X69443Y169803D01*
X69362Y169763D01*
X69280Y169728D01*
X69196Y169696D01*
X69111Y169667D01*
X69024Y169642D01*
X68937Y169621D01*
X68849Y169604D01*
X68760Y169590D01*
X68670Y169581D01*
X68581Y169575D01*
X68491Y169573D01*
X68491Y169572D02*
X66402Y169572D01*
X257921Y235471D02*
X260009Y235471D01*
X257921Y235471D02*
X257832Y235473D01*
X257744Y235479D01*
X257656Y235488D01*
X257568Y235501D01*
X257481Y235518D01*
X257395Y235538D01*
X257310Y235563D01*
X257225Y235590D01*
X257142Y235622D01*
X257061Y235656D01*
X256981Y235695D01*
X256903Y235736D01*
X256826Y235781D01*
X256752Y235829D01*
X256679Y235880D01*
X256609Y235934D01*
X256542Y235992D01*
X256476Y236052D01*
X256414Y236114D01*
X256354Y236180D01*
X256296Y236247D01*
X256242Y236317D01*
X256191Y236390D01*
X256143Y236464D01*
X256098Y236541D01*
X256057Y236619D01*
X256018Y236699D01*
X255984Y236780D01*
X255952Y236863D01*
X255925Y236948D01*
X255900Y237033D01*
X255880Y237119D01*
X255863Y237206D01*
X255850Y237294D01*
X255841Y237382D01*
X255835Y237470D01*
X255833Y237559D01*
X255832Y237559D02*
X255832Y242781D01*
X255833Y242781D02*
X255835Y242872D01*
X255841Y242963D01*
X255851Y243054D01*
X255865Y243144D01*
X255882Y243233D01*
X255904Y243321D01*
X255930Y243409D01*
X255959Y243495D01*
X255992Y243580D01*
X256029Y243663D01*
X256069Y243745D01*
X256113Y243825D01*
X256160Y243903D01*
X256211Y243979D01*
X256264Y244052D01*
X256321Y244123D01*
X256382Y244192D01*
X256445Y244257D01*
X256510Y244320D01*
X256579Y244380D01*
X256650Y244438D01*
X256723Y244491D01*
X256799Y244542D01*
X256877Y244589D01*
X256957Y244633D01*
X257039Y244673D01*
X257122Y244710D01*
X257207Y244743D01*
X257293Y244772D01*
X257381Y244798D01*
X257469Y244820D01*
X257558Y244837D01*
X257648Y244851D01*
X257739Y244861D01*
X257830Y244867D01*
X257921Y244869D01*
X260009Y244869D01*
X265566Y244869D02*
X263478Y237559D01*
X268699Y237559D01*
X267133Y239648D02*
X267133Y235471D01*
X196609Y157118D02*
X196609Y155029D01*
X196607Y154940D01*
X196601Y154852D01*
X196592Y154764D01*
X196579Y154676D01*
X196562Y154589D01*
X196542Y154503D01*
X196517Y154418D01*
X196490Y154333D01*
X196458Y154250D01*
X196424Y154169D01*
X196385Y154089D01*
X196344Y154011D01*
X196299Y153934D01*
X196251Y153860D01*
X196200Y153787D01*
X196146Y153717D01*
X196088Y153650D01*
X196028Y153584D01*
X195966Y153522D01*
X195900Y153462D01*
X195833Y153404D01*
X195763Y153350D01*
X195690Y153299D01*
X195616Y153251D01*
X195539Y153206D01*
X195461Y153165D01*
X195381Y153126D01*
X195300Y153092D01*
X195217Y153060D01*
X195132Y153033D01*
X195047Y153008D01*
X194961Y152988D01*
X194874Y152971D01*
X194786Y152958D01*
X194698Y152949D01*
X194610Y152943D01*
X194521Y152941D01*
X189299Y152941D01*
X189208Y152943D01*
X189117Y152949D01*
X189026Y152959D01*
X188936Y152973D01*
X188847Y152991D01*
X188758Y153012D01*
X188671Y153038D01*
X188585Y153067D01*
X188500Y153100D01*
X188416Y153137D01*
X188334Y153177D01*
X188255Y153221D01*
X188177Y153268D01*
X188101Y153319D01*
X188027Y153373D01*
X187956Y153430D01*
X187888Y153490D01*
X187822Y153553D01*
X187759Y153619D01*
X187699Y153687D01*
X187642Y153758D01*
X187588Y153832D01*
X187537Y153908D01*
X187490Y153985D01*
X187446Y154065D01*
X187406Y154147D01*
X187369Y154231D01*
X187336Y154315D01*
X187307Y154402D01*
X187281Y154489D01*
X187260Y154578D01*
X187242Y154667D01*
X187228Y154757D01*
X187218Y154848D01*
X187212Y154939D01*
X187210Y155030D01*
X187211Y155029D02*
X187211Y157118D01*
X196609Y160587D02*
X196609Y163719D01*
X196607Y163808D01*
X196601Y163896D01*
X196592Y163984D01*
X196579Y164072D01*
X196562Y164159D01*
X196542Y164245D01*
X196517Y164330D01*
X196490Y164415D01*
X196458Y164498D01*
X196424Y164579D01*
X196385Y164659D01*
X196344Y164737D01*
X196299Y164814D01*
X196251Y164888D01*
X196200Y164961D01*
X196146Y165031D01*
X196088Y165098D01*
X196028Y165164D01*
X195966Y165226D01*
X195900Y165286D01*
X195833Y165344D01*
X195763Y165398D01*
X195690Y165449D01*
X195616Y165497D01*
X195539Y165542D01*
X195461Y165583D01*
X195381Y165622D01*
X195300Y165656D01*
X195217Y165688D01*
X195132Y165715D01*
X195047Y165740D01*
X194961Y165760D01*
X194874Y165777D01*
X194786Y165790D01*
X194698Y165799D01*
X194610Y165805D01*
X194521Y165807D01*
X194521Y165808D02*
X193476Y165808D01*
X193476Y165807D02*
X193387Y165805D01*
X193299Y165799D01*
X193211Y165790D01*
X193123Y165777D01*
X193036Y165760D01*
X192950Y165740D01*
X192865Y165715D01*
X192780Y165688D01*
X192697Y165656D01*
X192616Y165622D01*
X192536Y165583D01*
X192458Y165542D01*
X192381Y165497D01*
X192307Y165449D01*
X192234Y165398D01*
X192164Y165344D01*
X192097Y165286D01*
X192031Y165226D01*
X191969Y165164D01*
X191909Y165098D01*
X191851Y165031D01*
X191797Y164961D01*
X191746Y164888D01*
X191698Y164814D01*
X191653Y164737D01*
X191612Y164659D01*
X191573Y164579D01*
X191539Y164498D01*
X191507Y164415D01*
X191480Y164330D01*
X191455Y164245D01*
X191435Y164159D01*
X191418Y164072D01*
X191405Y163984D01*
X191396Y163896D01*
X191390Y163808D01*
X191388Y163719D01*
X191388Y160587D01*
X187211Y160587D01*
X187211Y165808D01*
X249949Y162198D02*
X249949Y160109D01*
X249947Y160020D01*
X249941Y159932D01*
X249932Y159844D01*
X249919Y159756D01*
X249902Y159669D01*
X249882Y159583D01*
X249857Y159498D01*
X249830Y159413D01*
X249798Y159330D01*
X249764Y159249D01*
X249725Y159169D01*
X249684Y159091D01*
X249639Y159014D01*
X249591Y158940D01*
X249540Y158867D01*
X249486Y158797D01*
X249428Y158730D01*
X249368Y158664D01*
X249306Y158602D01*
X249240Y158542D01*
X249173Y158484D01*
X249103Y158430D01*
X249030Y158379D01*
X248956Y158331D01*
X248879Y158286D01*
X248801Y158245D01*
X248721Y158206D01*
X248640Y158172D01*
X248557Y158140D01*
X248472Y158113D01*
X248387Y158088D01*
X248301Y158068D01*
X248214Y158051D01*
X248126Y158038D01*
X248038Y158029D01*
X247950Y158023D01*
X247861Y158021D01*
X242639Y158021D01*
X242548Y158023D01*
X242457Y158029D01*
X242366Y158039D01*
X242276Y158053D01*
X242187Y158071D01*
X242098Y158092D01*
X242011Y158118D01*
X241925Y158147D01*
X241840Y158180D01*
X241756Y158217D01*
X241674Y158257D01*
X241595Y158301D01*
X241517Y158348D01*
X241441Y158399D01*
X241367Y158453D01*
X241296Y158510D01*
X241228Y158570D01*
X241162Y158633D01*
X241099Y158699D01*
X241039Y158767D01*
X240982Y158838D01*
X240928Y158912D01*
X240877Y158988D01*
X240830Y159065D01*
X240786Y159145D01*
X240746Y159227D01*
X240709Y159311D01*
X240676Y159395D01*
X240647Y159482D01*
X240621Y159569D01*
X240600Y159658D01*
X240582Y159747D01*
X240568Y159837D01*
X240558Y159928D01*
X240552Y160019D01*
X240550Y160110D01*
X240551Y160109D02*
X240551Y162198D01*
X244728Y165667D02*
X244728Y168799D01*
X244730Y168888D01*
X244736Y168976D01*
X244745Y169064D01*
X244758Y169152D01*
X244775Y169239D01*
X244795Y169325D01*
X244820Y169410D01*
X244847Y169495D01*
X244879Y169578D01*
X244913Y169659D01*
X244952Y169739D01*
X244993Y169817D01*
X245038Y169894D01*
X245086Y169968D01*
X245137Y170041D01*
X245191Y170111D01*
X245249Y170178D01*
X245309Y170244D01*
X245371Y170306D01*
X245437Y170366D01*
X245504Y170424D01*
X245574Y170478D01*
X245647Y170529D01*
X245721Y170577D01*
X245798Y170622D01*
X245876Y170663D01*
X245956Y170702D01*
X246037Y170736D01*
X246120Y170768D01*
X246205Y170795D01*
X246290Y170820D01*
X246376Y170840D01*
X246463Y170857D01*
X246551Y170870D01*
X246639Y170879D01*
X246727Y170885D01*
X246816Y170887D01*
X246816Y170888D02*
X247338Y170888D01*
X247439Y170886D01*
X247540Y170880D01*
X247641Y170870D01*
X247741Y170857D01*
X247841Y170839D01*
X247940Y170818D01*
X248038Y170792D01*
X248135Y170763D01*
X248231Y170731D01*
X248325Y170694D01*
X248418Y170654D01*
X248510Y170610D01*
X248599Y170563D01*
X248687Y170512D01*
X248773Y170458D01*
X248856Y170401D01*
X248938Y170341D01*
X249016Y170277D01*
X249093Y170211D01*
X249166Y170141D01*
X249237Y170069D01*
X249305Y169994D01*
X249370Y169916D01*
X249432Y169836D01*
X249491Y169754D01*
X249547Y169669D01*
X249599Y169582D01*
X249648Y169494D01*
X249694Y169403D01*
X249735Y169311D01*
X249774Y169217D01*
X249808Y169122D01*
X249839Y169026D01*
X249866Y168928D01*
X249890Y168830D01*
X249909Y168730D01*
X249925Y168630D01*
X249937Y168530D01*
X249945Y168429D01*
X249949Y168328D01*
X249949Y168226D01*
X249945Y168125D01*
X249937Y168024D01*
X249925Y167924D01*
X249909Y167824D01*
X249890Y167724D01*
X249866Y167626D01*
X249839Y167528D01*
X249808Y167432D01*
X249774Y167337D01*
X249735Y167243D01*
X249694Y167151D01*
X249648Y167060D01*
X249599Y166971D01*
X249547Y166885D01*
X249491Y166800D01*
X249432Y166718D01*
X249370Y166638D01*
X249305Y166560D01*
X249237Y166485D01*
X249166Y166413D01*
X249093Y166343D01*
X249016Y166277D01*
X248938Y166213D01*
X248856Y166153D01*
X248773Y166096D01*
X248687Y166042D01*
X248599Y165991D01*
X248510Y165944D01*
X248418Y165900D01*
X248325Y165860D01*
X248231Y165823D01*
X248135Y165791D01*
X248038Y165762D01*
X247940Y165736D01*
X247841Y165715D01*
X247741Y165697D01*
X247641Y165684D01*
X247540Y165674D01*
X247439Y165668D01*
X247338Y165666D01*
X247338Y165667D02*
X244728Y165667D01*
X244599Y165669D01*
X244471Y165675D01*
X244343Y165685D01*
X244215Y165699D01*
X244087Y165716D01*
X243960Y165738D01*
X243834Y165764D01*
X243709Y165793D01*
X243585Y165826D01*
X243462Y165864D01*
X243340Y165904D01*
X243219Y165949D01*
X243100Y165997D01*
X242982Y166049D01*
X242866Y166105D01*
X242752Y166164D01*
X242640Y166227D01*
X242529Y166293D01*
X242421Y166362D01*
X242315Y166435D01*
X242211Y166511D01*
X242109Y166590D01*
X242010Y166672D01*
X241914Y166757D01*
X241820Y166845D01*
X241729Y166936D01*
X241641Y167030D01*
X241556Y167126D01*
X241474Y167225D01*
X241395Y167327D01*
X241319Y167431D01*
X241246Y167537D01*
X241177Y167645D01*
X241111Y167755D01*
X241048Y167868D01*
X240989Y167982D01*
X240933Y168098D01*
X240881Y168216D01*
X240833Y168335D01*
X240788Y168456D01*
X240748Y168578D01*
X240710Y168701D01*
X240677Y168825D01*
X240648Y168950D01*
X240622Y169076D01*
X240600Y169203D01*
X240583Y169331D01*
X240569Y169459D01*
X240559Y169587D01*
X240553Y169715D01*
X240551Y169844D01*
D44*
X85090Y92710D02*
X21590Y92710D01*
X21590Y130810D01*
X85090Y130810D01*
X85090Y92710D01*
X80010Y97790D02*
X26670Y97790D01*
X26670Y125730D01*
X80010Y125730D01*
X80010Y97790D01*
X228600Y40640D02*
X231140Y43180D01*
X228600Y40640D02*
X226060Y43180D01*
X228600Y20320D02*
X231140Y17780D01*
X228600Y20320D02*
X226060Y17780D01*
X205740Y17780D01*
X203200Y20320D01*
X251460Y17780D02*
X254000Y20320D01*
X251460Y17780D02*
X231140Y17780D01*
X254000Y20320D02*
X254000Y40640D01*
X251460Y43180D01*
X231140Y43180D01*
X226060Y43180D02*
X205740Y43180D01*
X203200Y40640D01*
X203200Y20320D01*
D48*
X218111Y17780D02*
X218111Y8890D01*
X218109Y8790D01*
X218103Y8691D01*
X218093Y8591D01*
X218080Y8493D01*
X218062Y8394D01*
X218041Y8297D01*
X218016Y8201D01*
X217987Y8105D01*
X217954Y8011D01*
X217918Y7918D01*
X217878Y7827D01*
X217834Y7737D01*
X217787Y7649D01*
X217737Y7563D01*
X217683Y7479D01*
X217626Y7397D01*
X217566Y7318D01*
X217502Y7240D01*
X217436Y7166D01*
X217367Y7094D01*
X217295Y7025D01*
X217221Y6959D01*
X217143Y6895D01*
X217064Y6835D01*
X216982Y6778D01*
X216898Y6724D01*
X216812Y6674D01*
X216724Y6627D01*
X216634Y6583D01*
X216543Y6543D01*
X216450Y6507D01*
X216356Y6474D01*
X216260Y6445D01*
X216164Y6420D01*
X216067Y6399D01*
X215968Y6381D01*
X215870Y6368D01*
X215770Y6358D01*
X215671Y6352D01*
X215571Y6350D01*
X214301Y6350D01*
X224092Y6350D02*
X224092Y17780D01*
X227267Y17780D01*
X227378Y17778D01*
X227488Y17772D01*
X227599Y17763D01*
X227709Y17749D01*
X227818Y17732D01*
X227927Y17711D01*
X228035Y17686D01*
X228142Y17657D01*
X228248Y17625D01*
X228353Y17589D01*
X228456Y17549D01*
X228558Y17506D01*
X228659Y17459D01*
X228758Y17408D01*
X228855Y17355D01*
X228949Y17298D01*
X229042Y17237D01*
X229133Y17174D01*
X229222Y17107D01*
X229308Y17037D01*
X229391Y16964D01*
X229473Y16889D01*
X229551Y16811D01*
X229626Y16729D01*
X229699Y16646D01*
X229769Y16560D01*
X229836Y16471D01*
X229899Y16380D01*
X229960Y16287D01*
X230017Y16192D01*
X230070Y16096D01*
X230121Y15997D01*
X230168Y15896D01*
X230211Y15794D01*
X230251Y15691D01*
X230287Y15586D01*
X230319Y15480D01*
X230348Y15373D01*
X230373Y15265D01*
X230394Y15156D01*
X230411Y15047D01*
X230425Y14937D01*
X230434Y14826D01*
X230440Y14716D01*
X230442Y14605D01*
X230440Y14494D01*
X230434Y14384D01*
X230425Y14273D01*
X230411Y14163D01*
X230394Y14054D01*
X230373Y13945D01*
X230348Y13837D01*
X230319Y13730D01*
X230287Y13624D01*
X230251Y13519D01*
X230211Y13416D01*
X230168Y13314D01*
X230121Y13213D01*
X230070Y13114D01*
X230017Y13017D01*
X229960Y12923D01*
X229899Y12830D01*
X229836Y12739D01*
X229769Y12650D01*
X229699Y12564D01*
X229626Y12481D01*
X229551Y12399D01*
X229473Y12321D01*
X229391Y12246D01*
X229308Y12173D01*
X229222Y12103D01*
X229133Y12036D01*
X229042Y11973D01*
X228949Y11912D01*
X228854Y11855D01*
X228758Y11802D01*
X228659Y11751D01*
X228558Y11704D01*
X228456Y11661D01*
X228353Y11621D01*
X228248Y11585D01*
X228142Y11553D01*
X228035Y11524D01*
X227927Y11499D01*
X227818Y11478D01*
X227709Y11461D01*
X227599Y11447D01*
X227488Y11438D01*
X227378Y11432D01*
X227267Y11430D01*
X224092Y11430D01*
X234950Y15240D02*
X238125Y17780D01*
X238125Y6350D01*
X234950Y6350D02*
X241300Y6350D01*
D44*
X180340Y43180D02*
X177800Y40640D01*
X175260Y43180D01*
X177800Y20320D02*
X180340Y17780D01*
X177800Y20320D02*
X175260Y17780D01*
X154940Y17780D01*
X152400Y20320D01*
X200660Y17780D02*
X203200Y20320D01*
X200660Y17780D02*
X180340Y17780D01*
X203200Y20320D02*
X203200Y40640D01*
X200660Y43180D01*
X180340Y43180D01*
X175260Y43180D02*
X154940Y43180D01*
X152400Y40640D01*
X152400Y20320D01*
D48*
X164465Y12700D02*
X164465Y3810D01*
X164463Y3710D01*
X164457Y3611D01*
X164447Y3511D01*
X164434Y3413D01*
X164416Y3314D01*
X164395Y3217D01*
X164370Y3121D01*
X164341Y3025D01*
X164308Y2931D01*
X164272Y2838D01*
X164232Y2747D01*
X164188Y2657D01*
X164141Y2569D01*
X164091Y2483D01*
X164037Y2399D01*
X163980Y2317D01*
X163920Y2238D01*
X163856Y2160D01*
X163790Y2086D01*
X163721Y2014D01*
X163649Y1945D01*
X163575Y1879D01*
X163497Y1815D01*
X163418Y1755D01*
X163336Y1698D01*
X163252Y1644D01*
X163166Y1594D01*
X163078Y1547D01*
X162988Y1503D01*
X162897Y1463D01*
X162804Y1427D01*
X162710Y1394D01*
X162614Y1365D01*
X162518Y1340D01*
X162421Y1319D01*
X162322Y1301D01*
X162224Y1288D01*
X162124Y1278D01*
X162025Y1272D01*
X161925Y1270D01*
X160655Y1270D01*
X170445Y1270D02*
X170445Y12700D01*
X173620Y12700D01*
X173731Y12698D01*
X173841Y12692D01*
X173952Y12683D01*
X174062Y12669D01*
X174171Y12652D01*
X174280Y12631D01*
X174388Y12606D01*
X174495Y12577D01*
X174601Y12545D01*
X174706Y12509D01*
X174809Y12469D01*
X174911Y12426D01*
X175012Y12379D01*
X175111Y12328D01*
X175208Y12275D01*
X175302Y12218D01*
X175395Y12157D01*
X175486Y12094D01*
X175575Y12027D01*
X175661Y11957D01*
X175744Y11884D01*
X175826Y11809D01*
X175904Y11731D01*
X175979Y11649D01*
X176052Y11566D01*
X176122Y11480D01*
X176189Y11391D01*
X176252Y11300D01*
X176313Y11207D01*
X176370Y11112D01*
X176423Y11016D01*
X176474Y10917D01*
X176521Y10816D01*
X176564Y10714D01*
X176604Y10611D01*
X176640Y10506D01*
X176672Y10400D01*
X176701Y10293D01*
X176726Y10185D01*
X176747Y10076D01*
X176764Y9967D01*
X176778Y9857D01*
X176787Y9746D01*
X176793Y9636D01*
X176795Y9525D01*
X176793Y9414D01*
X176787Y9304D01*
X176778Y9193D01*
X176764Y9083D01*
X176747Y8974D01*
X176726Y8865D01*
X176701Y8757D01*
X176672Y8650D01*
X176640Y8544D01*
X176604Y8439D01*
X176564Y8336D01*
X176521Y8234D01*
X176474Y8133D01*
X176423Y8034D01*
X176370Y7937D01*
X176313Y7843D01*
X176252Y7750D01*
X176189Y7659D01*
X176122Y7570D01*
X176052Y7484D01*
X175979Y7401D01*
X175904Y7319D01*
X175826Y7241D01*
X175744Y7166D01*
X175661Y7093D01*
X175575Y7023D01*
X175486Y6956D01*
X175395Y6893D01*
X175302Y6832D01*
X175207Y6775D01*
X175111Y6722D01*
X175012Y6671D01*
X174911Y6624D01*
X174809Y6581D01*
X174706Y6541D01*
X174601Y6505D01*
X174495Y6473D01*
X174388Y6444D01*
X174280Y6419D01*
X174171Y6398D01*
X174062Y6381D01*
X173952Y6367D01*
X173841Y6358D01*
X173731Y6352D01*
X173620Y6350D01*
X170445Y6350D01*
X184796Y12701D02*
X184900Y12699D01*
X185005Y12693D01*
X185109Y12684D01*
X185212Y12671D01*
X185315Y12653D01*
X185417Y12633D01*
X185519Y12608D01*
X185619Y12580D01*
X185719Y12548D01*
X185817Y12512D01*
X185914Y12473D01*
X186009Y12431D01*
X186103Y12385D01*
X186195Y12335D01*
X186285Y12283D01*
X186373Y12227D01*
X186459Y12167D01*
X186543Y12105D01*
X186624Y12040D01*
X186703Y11972D01*
X186780Y11900D01*
X186853Y11827D01*
X186925Y11750D01*
X186993Y11671D01*
X187058Y11590D01*
X187120Y11506D01*
X187180Y11420D01*
X187236Y11332D01*
X187288Y11242D01*
X187338Y11150D01*
X187384Y11056D01*
X187426Y10961D01*
X187465Y10864D01*
X187501Y10766D01*
X187533Y10666D01*
X187561Y10566D01*
X187586Y10464D01*
X187606Y10362D01*
X187624Y10259D01*
X187637Y10156D01*
X187646Y10052D01*
X187652Y9947D01*
X187654Y9843D01*
X184796Y12700D02*
X184678Y12698D01*
X184559Y12692D01*
X184441Y12683D01*
X184324Y12670D01*
X184207Y12652D01*
X184090Y12632D01*
X183974Y12607D01*
X183859Y12579D01*
X183746Y12546D01*
X183633Y12511D01*
X183521Y12471D01*
X183411Y12429D01*
X183302Y12382D01*
X183194Y12332D01*
X183089Y12279D01*
X182985Y12222D01*
X182883Y12162D01*
X182783Y12099D01*
X182685Y12032D01*
X182589Y11963D01*
X182496Y11890D01*
X182405Y11814D01*
X182316Y11736D01*
X182230Y11654D01*
X182147Y11570D01*
X182066Y11484D01*
X181989Y11394D01*
X181914Y11303D01*
X181842Y11209D01*
X181773Y11112D01*
X181708Y11014D01*
X181645Y10913D01*
X181586Y10810D01*
X181530Y10706D01*
X181478Y10600D01*
X181429Y10492D01*
X181384Y10383D01*
X181342Y10272D01*
X181304Y10160D01*
X186702Y7621D02*
X186778Y7696D01*
X186853Y7775D01*
X186924Y7856D01*
X186993Y7940D01*
X187058Y8026D01*
X187120Y8114D01*
X187180Y8204D01*
X187236Y8296D01*
X187289Y8391D01*
X187338Y8487D01*
X187384Y8585D01*
X187427Y8684D01*
X187466Y8785D01*
X187501Y8887D01*
X187533Y8990D01*
X187561Y9094D01*
X187586Y9199D01*
X187607Y9306D01*
X187624Y9412D01*
X187637Y9519D01*
X187646Y9627D01*
X187652Y9735D01*
X187654Y9843D01*
X186701Y7620D02*
X181304Y1270D01*
X187654Y1270D01*
D44*
X25400Y167640D02*
X22860Y170180D01*
X25400Y167640D02*
X22860Y165100D01*
X45720Y167640D02*
X48260Y170180D01*
X45720Y167640D02*
X48260Y165100D01*
X48260Y144780D01*
X45720Y142240D01*
X48260Y190500D02*
X45720Y193040D01*
X48260Y190500D02*
X48260Y170180D01*
X45720Y193040D02*
X25400Y193040D01*
X22860Y190500D01*
X22860Y170180D01*
X22860Y165100D02*
X22860Y144780D01*
X25400Y142240D01*
X45720Y142240D01*
D48*
X18415Y149225D02*
X9525Y149225D01*
X18415Y149225D02*
X18515Y149223D01*
X18614Y149217D01*
X18714Y149207D01*
X18812Y149194D01*
X18911Y149176D01*
X19008Y149155D01*
X19104Y149130D01*
X19200Y149101D01*
X19294Y149068D01*
X19387Y149032D01*
X19478Y148992D01*
X19568Y148948D01*
X19656Y148901D01*
X19742Y148851D01*
X19826Y148797D01*
X19908Y148740D01*
X19987Y148680D01*
X20065Y148616D01*
X20139Y148550D01*
X20211Y148481D01*
X20280Y148409D01*
X20346Y148335D01*
X20410Y148257D01*
X20470Y148178D01*
X20527Y148096D01*
X20581Y148012D01*
X20631Y147926D01*
X20678Y147838D01*
X20722Y147748D01*
X20762Y147657D01*
X20798Y147564D01*
X20831Y147470D01*
X20860Y147374D01*
X20885Y147278D01*
X20906Y147181D01*
X20924Y147082D01*
X20937Y146984D01*
X20947Y146884D01*
X20953Y146785D01*
X20955Y146685D01*
X20955Y145415D01*
X20955Y155205D02*
X9525Y155205D01*
X9525Y158380D01*
X9527Y158491D01*
X9533Y158601D01*
X9542Y158712D01*
X9556Y158822D01*
X9573Y158931D01*
X9594Y159040D01*
X9619Y159148D01*
X9648Y159255D01*
X9680Y159361D01*
X9716Y159466D01*
X9756Y159569D01*
X9799Y159671D01*
X9846Y159772D01*
X9897Y159871D01*
X9950Y159968D01*
X10007Y160062D01*
X10068Y160155D01*
X10131Y160246D01*
X10198Y160335D01*
X10268Y160421D01*
X10341Y160504D01*
X10416Y160586D01*
X10494Y160664D01*
X10576Y160739D01*
X10659Y160812D01*
X10745Y160882D01*
X10834Y160949D01*
X10925Y161012D01*
X11018Y161073D01*
X11112Y161130D01*
X11209Y161183D01*
X11308Y161234D01*
X11409Y161281D01*
X11511Y161324D01*
X11614Y161364D01*
X11719Y161400D01*
X11825Y161432D01*
X11932Y161461D01*
X12040Y161486D01*
X12149Y161507D01*
X12258Y161524D01*
X12368Y161538D01*
X12479Y161547D01*
X12589Y161553D01*
X12700Y161555D01*
X12811Y161553D01*
X12921Y161547D01*
X13032Y161538D01*
X13142Y161524D01*
X13251Y161507D01*
X13360Y161486D01*
X13468Y161461D01*
X13575Y161432D01*
X13681Y161400D01*
X13786Y161364D01*
X13889Y161324D01*
X13991Y161281D01*
X14092Y161234D01*
X14191Y161183D01*
X14287Y161130D01*
X14382Y161073D01*
X14475Y161012D01*
X14566Y160949D01*
X14655Y160882D01*
X14741Y160812D01*
X14824Y160739D01*
X14906Y160664D01*
X14984Y160586D01*
X15059Y160504D01*
X15132Y160421D01*
X15202Y160335D01*
X15269Y160246D01*
X15332Y160155D01*
X15393Y160062D01*
X15450Y159968D01*
X15503Y159871D01*
X15554Y159772D01*
X15601Y159671D01*
X15644Y159569D01*
X15684Y159466D01*
X15720Y159361D01*
X15752Y159255D01*
X15781Y159148D01*
X15806Y159040D01*
X15827Y158931D01*
X15844Y158822D01*
X15858Y158712D01*
X15867Y158601D01*
X15873Y158491D01*
X15875Y158380D01*
X15875Y155205D01*
X18415Y166064D02*
X9525Y168604D01*
X18415Y166064D02*
X18415Y172414D01*
X15875Y170509D02*
X20955Y170509D01*
D44*
X25400Y218440D02*
X22860Y220980D01*
X25400Y218440D02*
X22860Y215900D01*
X45720Y218440D02*
X48260Y220980D01*
X45720Y218440D02*
X48260Y215900D01*
X48260Y195580D01*
X45720Y193040D01*
X48260Y241300D02*
X45720Y243840D01*
X48260Y241300D02*
X48260Y220980D01*
X45720Y243840D02*
X25400Y243840D01*
X22860Y241300D01*
X22860Y220980D01*
X22860Y215900D02*
X22860Y195580D01*
X25400Y193040D01*
X45720Y193040D01*
D48*
X18415Y194945D02*
X9525Y194945D01*
X18415Y194945D02*
X18515Y194943D01*
X18614Y194937D01*
X18714Y194927D01*
X18812Y194914D01*
X18911Y194896D01*
X19008Y194875D01*
X19104Y194850D01*
X19200Y194821D01*
X19294Y194788D01*
X19387Y194752D01*
X19478Y194712D01*
X19568Y194668D01*
X19656Y194621D01*
X19742Y194571D01*
X19826Y194517D01*
X19908Y194460D01*
X19987Y194400D01*
X20065Y194336D01*
X20139Y194270D01*
X20211Y194201D01*
X20280Y194129D01*
X20346Y194055D01*
X20410Y193977D01*
X20470Y193898D01*
X20527Y193816D01*
X20581Y193732D01*
X20631Y193646D01*
X20678Y193558D01*
X20722Y193468D01*
X20762Y193377D01*
X20798Y193284D01*
X20831Y193190D01*
X20860Y193094D01*
X20885Y192998D01*
X20906Y192901D01*
X20924Y192802D01*
X20937Y192704D01*
X20947Y192604D01*
X20953Y192505D01*
X20955Y192405D01*
X20955Y191135D01*
X20955Y200925D02*
X9525Y200925D01*
X9525Y204100D01*
X9527Y204211D01*
X9533Y204321D01*
X9542Y204432D01*
X9556Y204542D01*
X9573Y204651D01*
X9594Y204760D01*
X9619Y204868D01*
X9648Y204975D01*
X9680Y205081D01*
X9716Y205186D01*
X9756Y205289D01*
X9799Y205391D01*
X9846Y205492D01*
X9897Y205591D01*
X9950Y205688D01*
X10007Y205782D01*
X10068Y205875D01*
X10131Y205966D01*
X10198Y206055D01*
X10268Y206141D01*
X10341Y206224D01*
X10416Y206306D01*
X10494Y206384D01*
X10576Y206459D01*
X10659Y206532D01*
X10745Y206602D01*
X10834Y206669D01*
X10925Y206732D01*
X11018Y206793D01*
X11112Y206850D01*
X11209Y206903D01*
X11308Y206954D01*
X11409Y207001D01*
X11511Y207044D01*
X11614Y207084D01*
X11719Y207120D01*
X11825Y207152D01*
X11932Y207181D01*
X12040Y207206D01*
X12149Y207227D01*
X12258Y207244D01*
X12368Y207258D01*
X12479Y207267D01*
X12589Y207273D01*
X12700Y207275D01*
X12811Y207273D01*
X12921Y207267D01*
X13032Y207258D01*
X13142Y207244D01*
X13251Y207227D01*
X13360Y207206D01*
X13468Y207181D01*
X13575Y207152D01*
X13681Y207120D01*
X13786Y207084D01*
X13889Y207044D01*
X13991Y207001D01*
X14092Y206954D01*
X14191Y206903D01*
X14287Y206850D01*
X14382Y206793D01*
X14475Y206732D01*
X14566Y206669D01*
X14655Y206602D01*
X14741Y206532D01*
X14824Y206459D01*
X14906Y206384D01*
X14984Y206306D01*
X15059Y206224D01*
X15132Y206141D01*
X15202Y206055D01*
X15269Y205966D01*
X15332Y205875D01*
X15393Y205782D01*
X15450Y205688D01*
X15503Y205591D01*
X15554Y205492D01*
X15601Y205391D01*
X15644Y205289D01*
X15684Y205186D01*
X15720Y205081D01*
X15752Y204975D01*
X15781Y204868D01*
X15806Y204760D01*
X15827Y204651D01*
X15844Y204542D01*
X15858Y204432D01*
X15867Y204321D01*
X15873Y204211D01*
X15875Y204100D01*
X15875Y200925D01*
X20955Y211784D02*
X20955Y215594D01*
X20953Y215694D01*
X20947Y215793D01*
X20937Y215893D01*
X20924Y215991D01*
X20906Y216090D01*
X20885Y216187D01*
X20860Y216283D01*
X20831Y216379D01*
X20798Y216473D01*
X20762Y216566D01*
X20722Y216657D01*
X20678Y216747D01*
X20631Y216835D01*
X20581Y216921D01*
X20527Y217005D01*
X20470Y217087D01*
X20410Y217166D01*
X20346Y217244D01*
X20280Y217318D01*
X20211Y217390D01*
X20139Y217459D01*
X20065Y217525D01*
X19987Y217589D01*
X19908Y217649D01*
X19826Y217706D01*
X19742Y217760D01*
X19656Y217810D01*
X19568Y217857D01*
X19478Y217901D01*
X19387Y217941D01*
X19294Y217977D01*
X19200Y218010D01*
X19104Y218039D01*
X19008Y218064D01*
X18911Y218085D01*
X18812Y218103D01*
X18714Y218116D01*
X18614Y218126D01*
X18515Y218132D01*
X18415Y218134D01*
X17145Y218134D01*
X17045Y218132D01*
X16946Y218126D01*
X16846Y218116D01*
X16748Y218103D01*
X16649Y218085D01*
X16552Y218064D01*
X16456Y218039D01*
X16360Y218010D01*
X16266Y217977D01*
X16173Y217941D01*
X16082Y217901D01*
X15992Y217857D01*
X15904Y217810D01*
X15818Y217760D01*
X15734Y217706D01*
X15652Y217649D01*
X15573Y217589D01*
X15495Y217525D01*
X15421Y217459D01*
X15349Y217390D01*
X15280Y217318D01*
X15214Y217244D01*
X15150Y217166D01*
X15090Y217087D01*
X15033Y217005D01*
X14979Y216921D01*
X14929Y216835D01*
X14882Y216747D01*
X14838Y216657D01*
X14798Y216566D01*
X14762Y216473D01*
X14729Y216379D01*
X14700Y216283D01*
X14675Y216187D01*
X14654Y216090D01*
X14636Y215991D01*
X14623Y215893D01*
X14613Y215793D01*
X14607Y215694D01*
X14605Y215594D01*
X14605Y211784D01*
X9525Y211784D01*
X9525Y218134D01*
D49*
X284988Y193735D02*
X296672Y193735D01*
X284988Y193735D02*
X284988Y196980D01*
X284990Y197093D01*
X284996Y197206D01*
X285006Y197319D01*
X285020Y197432D01*
X285037Y197544D01*
X285059Y197655D01*
X285084Y197765D01*
X285114Y197875D01*
X285147Y197983D01*
X285184Y198090D01*
X285224Y198196D01*
X285269Y198300D01*
X285317Y198403D01*
X285368Y198504D01*
X285423Y198603D01*
X285481Y198700D01*
X285543Y198795D01*
X285608Y198888D01*
X285676Y198978D01*
X285747Y199066D01*
X285822Y199152D01*
X285899Y199235D01*
X285979Y199315D01*
X286062Y199392D01*
X286148Y199467D01*
X286236Y199538D01*
X286326Y199606D01*
X286419Y199671D01*
X286514Y199733D01*
X286611Y199791D01*
X286710Y199846D01*
X286811Y199897D01*
X286914Y199945D01*
X287018Y199990D01*
X287124Y200030D01*
X287231Y200067D01*
X287339Y200100D01*
X287449Y200130D01*
X287559Y200155D01*
X287670Y200177D01*
X287782Y200194D01*
X287895Y200208D01*
X288008Y200218D01*
X288121Y200224D01*
X288234Y200226D01*
X288347Y200224D01*
X288460Y200218D01*
X288573Y200208D01*
X288686Y200194D01*
X288798Y200177D01*
X288909Y200155D01*
X289019Y200130D01*
X289129Y200100D01*
X289237Y200067D01*
X289344Y200030D01*
X289450Y199990D01*
X289554Y199945D01*
X289657Y199897D01*
X289758Y199846D01*
X289857Y199791D01*
X289954Y199733D01*
X290049Y199671D01*
X290142Y199606D01*
X290232Y199538D01*
X290320Y199467D01*
X290406Y199392D01*
X290489Y199315D01*
X290569Y199235D01*
X290646Y199152D01*
X290721Y199066D01*
X290792Y198978D01*
X290860Y198888D01*
X290925Y198795D01*
X290987Y198700D01*
X291045Y198603D01*
X291100Y198504D01*
X291151Y198403D01*
X291199Y198300D01*
X291244Y198196D01*
X291284Y198090D01*
X291321Y197983D01*
X291354Y197875D01*
X291384Y197765D01*
X291409Y197655D01*
X291431Y197544D01*
X291448Y197432D01*
X291462Y197319D01*
X291472Y197206D01*
X291478Y197093D01*
X291480Y196980D01*
X291479Y196980D02*
X291479Y193735D01*
X291479Y197629D02*
X296672Y200226D01*
X287909Y211582D02*
X287802Y211580D01*
X287696Y211574D01*
X287590Y211564D01*
X287484Y211551D01*
X287378Y211533D01*
X287274Y211512D01*
X287170Y211487D01*
X287067Y211458D01*
X286966Y211426D01*
X286866Y211389D01*
X286767Y211349D01*
X286669Y211306D01*
X286573Y211259D01*
X286479Y211208D01*
X286387Y211154D01*
X286297Y211097D01*
X286209Y211037D01*
X286124Y210973D01*
X286041Y210906D01*
X285960Y210836D01*
X285882Y210764D01*
X285806Y210688D01*
X285734Y210610D01*
X285664Y210529D01*
X285597Y210446D01*
X285533Y210361D01*
X285473Y210273D01*
X285416Y210183D01*
X285362Y210091D01*
X285311Y209997D01*
X285264Y209901D01*
X285221Y209803D01*
X285181Y209704D01*
X285144Y209604D01*
X285112Y209503D01*
X285083Y209400D01*
X285058Y209296D01*
X285037Y209192D01*
X285019Y209086D01*
X285006Y208980D01*
X284996Y208874D01*
X284990Y208768D01*
X284988Y208661D01*
X284990Y208540D01*
X284996Y208419D01*
X285006Y208299D01*
X285019Y208178D01*
X285037Y208059D01*
X285058Y207939D01*
X285083Y207821D01*
X285112Y207704D01*
X285145Y207587D01*
X285181Y207472D01*
X285222Y207358D01*
X285265Y207245D01*
X285313Y207133D01*
X285364Y207024D01*
X285419Y206916D01*
X285477Y206809D01*
X285538Y206705D01*
X285603Y206603D01*
X285671Y206503D01*
X285742Y206405D01*
X285816Y206309D01*
X285893Y206216D01*
X285974Y206126D01*
X286057Y206038D01*
X286143Y205953D01*
X286232Y205870D01*
X286323Y205791D01*
X286417Y205714D01*
X286513Y205641D01*
X286611Y205571D01*
X286712Y205504D01*
X286815Y205440D01*
X286920Y205380D01*
X287027Y205322D01*
X287135Y205269D01*
X287245Y205219D01*
X287357Y205173D01*
X287470Y205130D01*
X287585Y205091D01*
X290181Y210608D02*
X290103Y210687D01*
X290023Y210763D01*
X289940Y210836D01*
X289854Y210906D01*
X289767Y210973D01*
X289676Y211037D01*
X289584Y211097D01*
X289490Y211155D01*
X289393Y211209D01*
X289295Y211259D01*
X289195Y211306D01*
X289094Y211350D01*
X288991Y211390D01*
X288886Y211426D01*
X288781Y211458D01*
X288674Y211487D01*
X288567Y211512D01*
X288458Y211534D01*
X288349Y211551D01*
X288240Y211565D01*
X288130Y211574D01*
X288019Y211580D01*
X287909Y211582D01*
X290181Y210608D02*
X296672Y205091D01*
X296672Y211582D01*
D48*
X238760Y175260D02*
X238760Y251460D01*
X238760Y175260D02*
X187960Y175260D01*
X187960Y251460D01*
X238760Y251460D01*
D50*
X306620Y101460D02*
X306622Y101523D01*
X306628Y101585D01*
X306638Y101647D01*
X306651Y101709D01*
X306669Y101769D01*
X306690Y101828D01*
X306715Y101886D01*
X306744Y101942D01*
X306776Y101996D01*
X306811Y102048D01*
X306849Y102097D01*
X306891Y102145D01*
X306935Y102189D01*
X306983Y102231D01*
X307032Y102269D01*
X307084Y102304D01*
X307138Y102336D01*
X307194Y102365D01*
X307252Y102390D01*
X307311Y102411D01*
X307371Y102429D01*
X307433Y102442D01*
X307495Y102452D01*
X307557Y102458D01*
X307620Y102460D01*
X307683Y102458D01*
X307745Y102452D01*
X307807Y102442D01*
X307869Y102429D01*
X307929Y102411D01*
X307988Y102390D01*
X308046Y102365D01*
X308102Y102336D01*
X308156Y102304D01*
X308208Y102269D01*
X308257Y102231D01*
X308305Y102189D01*
X308349Y102145D01*
X308391Y102097D01*
X308429Y102048D01*
X308464Y101996D01*
X308496Y101942D01*
X308525Y101886D01*
X308550Y101828D01*
X308571Y101769D01*
X308589Y101709D01*
X308602Y101647D01*
X308612Y101585D01*
X308618Y101523D01*
X308620Y101460D01*
X308618Y101397D01*
X308612Y101335D01*
X308602Y101273D01*
X308589Y101211D01*
X308571Y101151D01*
X308550Y101092D01*
X308525Y101034D01*
X308496Y100978D01*
X308464Y100924D01*
X308429Y100872D01*
X308391Y100823D01*
X308349Y100775D01*
X308305Y100731D01*
X308257Y100689D01*
X308208Y100651D01*
X308156Y100616D01*
X308102Y100584D01*
X308046Y100555D01*
X307988Y100530D01*
X307929Y100509D01*
X307869Y100491D01*
X307807Y100478D01*
X307745Y100468D01*
X307683Y100462D01*
X307620Y100460D01*
X307557Y100462D01*
X307495Y100468D01*
X307433Y100478D01*
X307371Y100491D01*
X307311Y100509D01*
X307252Y100530D01*
X307194Y100555D01*
X307138Y100584D01*
X307084Y100616D01*
X307032Y100651D01*
X306983Y100689D01*
X306935Y100731D01*
X306891Y100775D01*
X306849Y100823D01*
X306811Y100872D01*
X306776Y100924D01*
X306744Y100978D01*
X306715Y101034D01*
X306690Y101092D01*
X306669Y101151D01*
X306651Y101211D01*
X306638Y101273D01*
X306628Y101335D01*
X306622Y101397D01*
X306620Y101460D01*
D48*
X244120Y104360D02*
X244120Y91960D01*
X279120Y91960D01*
X244120Y144560D02*
X244120Y156960D01*
X279120Y156960D01*
D49*
X207616Y127490D02*
X199178Y127490D01*
X207616Y127489D02*
X207729Y127491D01*
X207842Y127497D01*
X207955Y127507D01*
X208068Y127521D01*
X208180Y127538D01*
X208291Y127560D01*
X208401Y127585D01*
X208511Y127615D01*
X208619Y127648D01*
X208726Y127685D01*
X208832Y127725D01*
X208936Y127770D01*
X209039Y127818D01*
X209140Y127869D01*
X209239Y127924D01*
X209336Y127982D01*
X209431Y128044D01*
X209524Y128109D01*
X209614Y128177D01*
X209702Y128248D01*
X209788Y128323D01*
X209871Y128400D01*
X209951Y128480D01*
X210028Y128563D01*
X210103Y128649D01*
X210174Y128737D01*
X210242Y128827D01*
X210307Y128920D01*
X210369Y129015D01*
X210427Y129112D01*
X210482Y129211D01*
X210533Y129312D01*
X210581Y129415D01*
X210626Y129519D01*
X210666Y129625D01*
X210703Y129732D01*
X210736Y129840D01*
X210766Y129950D01*
X210791Y130060D01*
X210813Y130171D01*
X210830Y130283D01*
X210844Y130396D01*
X210854Y130509D01*
X210860Y130622D01*
X210862Y130735D01*
X210860Y130848D01*
X210854Y130961D01*
X210844Y131074D01*
X210830Y131187D01*
X210813Y131299D01*
X210791Y131410D01*
X210766Y131520D01*
X210736Y131630D01*
X210703Y131738D01*
X210666Y131845D01*
X210626Y131951D01*
X210581Y132055D01*
X210533Y132158D01*
X210482Y132259D01*
X210427Y132358D01*
X210369Y132455D01*
X210307Y132550D01*
X210242Y132643D01*
X210174Y132733D01*
X210103Y132821D01*
X210028Y132907D01*
X209951Y132990D01*
X209871Y133070D01*
X209788Y133147D01*
X209702Y133222D01*
X209614Y133293D01*
X209524Y133361D01*
X209431Y133426D01*
X209336Y133488D01*
X209239Y133546D01*
X209140Y133601D01*
X209039Y133652D01*
X208936Y133700D01*
X208832Y133745D01*
X208726Y133785D01*
X208619Y133822D01*
X208511Y133855D01*
X208401Y133885D01*
X208291Y133910D01*
X208180Y133932D01*
X208068Y133949D01*
X207955Y133963D01*
X207842Y133973D01*
X207729Y133979D01*
X207616Y133981D01*
X199178Y133981D01*
X201774Y139301D02*
X199178Y142546D01*
X210862Y142546D01*
X210862Y139301D02*
X210862Y145792D01*
D44*
X259715Y83185D02*
X259715Y19685D01*
X259715Y83185D02*
X297815Y83185D01*
X297815Y19685D01*
X259715Y19685D01*
X264795Y24765D02*
X264795Y78105D01*
X292735Y78105D01*
X292735Y24765D01*
X264795Y24765D01*
D49*
X217678Y79883D02*
X217678Y91567D01*
X220924Y91567D01*
X221037Y91565D01*
X221150Y91559D01*
X221263Y91549D01*
X221376Y91535D01*
X221488Y91518D01*
X221599Y91496D01*
X221709Y91471D01*
X221819Y91441D01*
X221927Y91408D01*
X222034Y91371D01*
X222140Y91331D01*
X222244Y91286D01*
X222347Y91238D01*
X222448Y91187D01*
X222547Y91132D01*
X222644Y91074D01*
X222739Y91012D01*
X222832Y90947D01*
X222922Y90879D01*
X223010Y90808D01*
X223096Y90733D01*
X223179Y90656D01*
X223259Y90576D01*
X223336Y90493D01*
X223411Y90407D01*
X223482Y90319D01*
X223550Y90229D01*
X223615Y90136D01*
X223677Y90041D01*
X223735Y89944D01*
X223790Y89845D01*
X223841Y89744D01*
X223889Y89641D01*
X223934Y89537D01*
X223974Y89431D01*
X224011Y89324D01*
X224044Y89216D01*
X224074Y89106D01*
X224099Y88996D01*
X224121Y88885D01*
X224138Y88773D01*
X224152Y88660D01*
X224162Y88547D01*
X224168Y88434D01*
X224170Y88321D01*
X224168Y88208D01*
X224162Y88095D01*
X224152Y87982D01*
X224138Y87869D01*
X224121Y87757D01*
X224099Y87646D01*
X224074Y87536D01*
X224044Y87426D01*
X224011Y87318D01*
X223974Y87211D01*
X223934Y87105D01*
X223889Y87001D01*
X223841Y86898D01*
X223790Y86797D01*
X223735Y86698D01*
X223677Y86601D01*
X223615Y86506D01*
X223550Y86413D01*
X223482Y86323D01*
X223411Y86235D01*
X223336Y86149D01*
X223259Y86066D01*
X223179Y85986D01*
X223096Y85909D01*
X223010Y85834D01*
X222922Y85763D01*
X222832Y85695D01*
X222739Y85630D01*
X222644Y85568D01*
X222547Y85510D01*
X222448Y85455D01*
X222347Y85404D01*
X222244Y85356D01*
X222140Y85311D01*
X222034Y85271D01*
X221927Y85234D01*
X221819Y85201D01*
X221709Y85171D01*
X221599Y85146D01*
X221488Y85124D01*
X221376Y85107D01*
X221263Y85093D01*
X221150Y85083D01*
X221037Y85077D01*
X220924Y85075D01*
X220924Y85076D02*
X217678Y85076D01*
X221573Y85076D02*
X224169Y79883D01*
X229034Y88971D02*
X232280Y91567D01*
X232280Y79883D01*
X235525Y79883D02*
X229034Y79883D01*
X104267Y22098D02*
X92583Y22098D01*
X92583Y25344D01*
X92585Y25457D01*
X92591Y25570D01*
X92601Y25683D01*
X92615Y25796D01*
X92632Y25908D01*
X92654Y26019D01*
X92679Y26129D01*
X92709Y26239D01*
X92742Y26347D01*
X92779Y26454D01*
X92819Y26560D01*
X92864Y26664D01*
X92912Y26767D01*
X92963Y26868D01*
X93018Y26967D01*
X93076Y27064D01*
X93138Y27159D01*
X93203Y27252D01*
X93271Y27342D01*
X93342Y27430D01*
X93417Y27516D01*
X93494Y27599D01*
X93574Y27679D01*
X93657Y27756D01*
X93743Y27831D01*
X93831Y27902D01*
X93921Y27970D01*
X94014Y28035D01*
X94109Y28097D01*
X94206Y28155D01*
X94305Y28210D01*
X94406Y28261D01*
X94509Y28309D01*
X94613Y28354D01*
X94719Y28394D01*
X94826Y28431D01*
X94934Y28464D01*
X95044Y28494D01*
X95154Y28519D01*
X95265Y28541D01*
X95377Y28558D01*
X95490Y28572D01*
X95603Y28582D01*
X95716Y28588D01*
X95829Y28590D01*
X95942Y28588D01*
X96055Y28582D01*
X96168Y28572D01*
X96281Y28558D01*
X96393Y28541D01*
X96504Y28519D01*
X96614Y28494D01*
X96724Y28464D01*
X96832Y28431D01*
X96939Y28394D01*
X97045Y28354D01*
X97149Y28309D01*
X97252Y28261D01*
X97353Y28210D01*
X97452Y28155D01*
X97549Y28097D01*
X97644Y28035D01*
X97737Y27970D01*
X97827Y27902D01*
X97915Y27831D01*
X98001Y27756D01*
X98084Y27679D01*
X98164Y27599D01*
X98241Y27516D01*
X98316Y27430D01*
X98387Y27342D01*
X98455Y27252D01*
X98520Y27159D01*
X98582Y27064D01*
X98640Y26967D01*
X98695Y26868D01*
X98746Y26767D01*
X98794Y26664D01*
X98839Y26560D01*
X98879Y26454D01*
X98916Y26347D01*
X98949Y26239D01*
X98979Y26129D01*
X99004Y26019D01*
X99026Y25908D01*
X99043Y25796D01*
X99057Y25683D01*
X99067Y25570D01*
X99073Y25457D01*
X99075Y25344D01*
X99074Y25344D02*
X99074Y22098D01*
X99074Y25993D02*
X104267Y28589D01*
X104267Y33454D02*
X104267Y36700D01*
X104265Y36813D01*
X104259Y36926D01*
X104249Y37039D01*
X104235Y37152D01*
X104218Y37264D01*
X104196Y37375D01*
X104171Y37485D01*
X104141Y37595D01*
X104108Y37703D01*
X104071Y37810D01*
X104031Y37916D01*
X103986Y38020D01*
X103938Y38123D01*
X103887Y38224D01*
X103832Y38323D01*
X103774Y38420D01*
X103712Y38515D01*
X103647Y38608D01*
X103579Y38698D01*
X103508Y38786D01*
X103433Y38872D01*
X103356Y38955D01*
X103276Y39035D01*
X103193Y39112D01*
X103107Y39187D01*
X103019Y39258D01*
X102929Y39326D01*
X102836Y39391D01*
X102741Y39453D01*
X102644Y39511D01*
X102545Y39566D01*
X102444Y39617D01*
X102341Y39665D01*
X102237Y39710D01*
X102131Y39750D01*
X102024Y39787D01*
X101916Y39820D01*
X101806Y39850D01*
X101696Y39875D01*
X101585Y39897D01*
X101473Y39914D01*
X101360Y39928D01*
X101247Y39938D01*
X101134Y39944D01*
X101021Y39946D01*
X100908Y39944D01*
X100795Y39938D01*
X100682Y39928D01*
X100569Y39914D01*
X100457Y39897D01*
X100346Y39875D01*
X100236Y39850D01*
X100126Y39820D01*
X100018Y39787D01*
X99911Y39750D01*
X99805Y39710D01*
X99701Y39665D01*
X99598Y39617D01*
X99497Y39566D01*
X99398Y39511D01*
X99301Y39453D01*
X99206Y39391D01*
X99113Y39326D01*
X99023Y39258D01*
X98935Y39187D01*
X98849Y39112D01*
X98766Y39035D01*
X98686Y38955D01*
X98609Y38872D01*
X98534Y38786D01*
X98463Y38698D01*
X98395Y38608D01*
X98330Y38515D01*
X98268Y38420D01*
X98210Y38323D01*
X98155Y38224D01*
X98104Y38123D01*
X98056Y38020D01*
X98011Y37916D01*
X97971Y37810D01*
X97934Y37703D01*
X97901Y37595D01*
X97871Y37485D01*
X97846Y37375D01*
X97824Y37264D01*
X97807Y37152D01*
X97793Y37039D01*
X97783Y36926D01*
X97777Y36813D01*
X97775Y36700D01*
X92583Y37349D02*
X92583Y33454D01*
X92583Y37349D02*
X92585Y37450D01*
X92591Y37550D01*
X92601Y37650D01*
X92614Y37750D01*
X92632Y37849D01*
X92653Y37948D01*
X92678Y38045D01*
X92707Y38142D01*
X92740Y38237D01*
X92776Y38331D01*
X92816Y38423D01*
X92859Y38514D01*
X92906Y38603D01*
X92956Y38690D01*
X93010Y38776D01*
X93067Y38859D01*
X93127Y38939D01*
X93190Y39018D01*
X93257Y39094D01*
X93326Y39167D01*
X93398Y39237D01*
X93472Y39305D01*
X93549Y39370D01*
X93629Y39431D01*
X93711Y39490D01*
X93795Y39545D01*
X93881Y39597D01*
X93969Y39646D01*
X94059Y39691D01*
X94151Y39733D01*
X94244Y39771D01*
X94339Y39805D01*
X94434Y39836D01*
X94531Y39863D01*
X94629Y39886D01*
X94728Y39906D01*
X94828Y39921D01*
X94928Y39933D01*
X95028Y39941D01*
X95129Y39945D01*
X95229Y39945D01*
X95330Y39941D01*
X95430Y39933D01*
X95530Y39921D01*
X95630Y39906D01*
X95729Y39886D01*
X95827Y39863D01*
X95924Y39836D01*
X96019Y39805D01*
X96114Y39771D01*
X96207Y39733D01*
X96299Y39691D01*
X96389Y39646D01*
X96477Y39597D01*
X96563Y39545D01*
X96647Y39490D01*
X96729Y39431D01*
X96809Y39370D01*
X96886Y39305D01*
X96960Y39237D01*
X97032Y39167D01*
X97101Y39094D01*
X97168Y39018D01*
X97231Y38939D01*
X97291Y38859D01*
X97348Y38776D01*
X97402Y38690D01*
X97452Y38603D01*
X97499Y38514D01*
X97542Y38423D01*
X97582Y38331D01*
X97618Y38237D01*
X97651Y38142D01*
X97680Y38045D01*
X97705Y37948D01*
X97726Y37849D01*
X97744Y37750D01*
X97757Y37650D01*
X97767Y37550D01*
X97773Y37450D01*
X97775Y37349D01*
X97776Y37349D02*
X97776Y34753D01*
D45*
X156934Y132321D02*
X159023Y132321D01*
X156934Y132321D02*
X156845Y132323D01*
X156757Y132329D01*
X156669Y132338D01*
X156581Y132351D01*
X156494Y132368D01*
X156408Y132388D01*
X156323Y132413D01*
X156238Y132440D01*
X156155Y132472D01*
X156074Y132506D01*
X155994Y132545D01*
X155916Y132586D01*
X155839Y132631D01*
X155765Y132679D01*
X155692Y132730D01*
X155622Y132784D01*
X155555Y132842D01*
X155489Y132902D01*
X155427Y132964D01*
X155367Y133030D01*
X155309Y133097D01*
X155255Y133167D01*
X155204Y133240D01*
X155156Y133314D01*
X155111Y133391D01*
X155070Y133469D01*
X155031Y133549D01*
X154997Y133630D01*
X154965Y133713D01*
X154938Y133798D01*
X154913Y133883D01*
X154893Y133969D01*
X154876Y134056D01*
X154863Y134144D01*
X154854Y134232D01*
X154848Y134320D01*
X154846Y134409D01*
X154846Y139631D01*
X154848Y139722D01*
X154854Y139813D01*
X154864Y139904D01*
X154878Y139994D01*
X154895Y140083D01*
X154917Y140171D01*
X154943Y140259D01*
X154972Y140345D01*
X155005Y140430D01*
X155042Y140513D01*
X155082Y140595D01*
X155126Y140675D01*
X155173Y140753D01*
X155224Y140829D01*
X155277Y140902D01*
X155334Y140973D01*
X155395Y141042D01*
X155458Y141107D01*
X155523Y141170D01*
X155592Y141230D01*
X155663Y141288D01*
X155736Y141341D01*
X155812Y141392D01*
X155890Y141439D01*
X155970Y141483D01*
X156052Y141523D01*
X156135Y141560D01*
X156220Y141593D01*
X156306Y141622D01*
X156394Y141648D01*
X156482Y141670D01*
X156571Y141687D01*
X156661Y141701D01*
X156752Y141711D01*
X156843Y141717D01*
X156934Y141719D01*
X159023Y141719D01*
X164580Y136498D02*
X167713Y136498D01*
X164580Y136498D02*
X164491Y136500D01*
X164403Y136506D01*
X164315Y136515D01*
X164227Y136528D01*
X164140Y136545D01*
X164054Y136565D01*
X163969Y136590D01*
X163884Y136617D01*
X163801Y136649D01*
X163720Y136683D01*
X163640Y136722D01*
X163562Y136763D01*
X163485Y136808D01*
X163411Y136856D01*
X163338Y136907D01*
X163268Y136961D01*
X163201Y137019D01*
X163135Y137079D01*
X163073Y137141D01*
X163013Y137207D01*
X162955Y137274D01*
X162901Y137344D01*
X162850Y137417D01*
X162802Y137491D01*
X162757Y137568D01*
X162716Y137646D01*
X162677Y137726D01*
X162643Y137807D01*
X162611Y137890D01*
X162584Y137975D01*
X162559Y138060D01*
X162539Y138146D01*
X162522Y138233D01*
X162509Y138321D01*
X162500Y138409D01*
X162494Y138497D01*
X162492Y138586D01*
X162492Y139108D01*
X162491Y139108D02*
X162493Y139209D01*
X162499Y139310D01*
X162509Y139411D01*
X162522Y139511D01*
X162540Y139611D01*
X162561Y139710D01*
X162587Y139808D01*
X162616Y139905D01*
X162648Y140001D01*
X162685Y140095D01*
X162725Y140188D01*
X162769Y140280D01*
X162816Y140369D01*
X162867Y140457D01*
X162921Y140543D01*
X162978Y140626D01*
X163038Y140708D01*
X163102Y140786D01*
X163168Y140863D01*
X163238Y140936D01*
X163310Y141007D01*
X163385Y141075D01*
X163463Y141140D01*
X163543Y141202D01*
X163625Y141261D01*
X163710Y141317D01*
X163797Y141369D01*
X163885Y141418D01*
X163976Y141464D01*
X164068Y141505D01*
X164162Y141544D01*
X164257Y141578D01*
X164353Y141609D01*
X164451Y141636D01*
X164549Y141660D01*
X164649Y141679D01*
X164749Y141695D01*
X164849Y141707D01*
X164950Y141715D01*
X165051Y141719D01*
X165153Y141719D01*
X165254Y141715D01*
X165355Y141707D01*
X165455Y141695D01*
X165555Y141679D01*
X165655Y141660D01*
X165753Y141636D01*
X165851Y141609D01*
X165947Y141578D01*
X166042Y141544D01*
X166136Y141505D01*
X166228Y141464D01*
X166319Y141418D01*
X166408Y141369D01*
X166494Y141317D01*
X166579Y141261D01*
X166661Y141202D01*
X166741Y141140D01*
X166819Y141075D01*
X166894Y141007D01*
X166966Y140936D01*
X167036Y140863D01*
X167102Y140786D01*
X167166Y140708D01*
X167226Y140626D01*
X167283Y140543D01*
X167337Y140457D01*
X167388Y140369D01*
X167435Y140280D01*
X167479Y140188D01*
X167519Y140095D01*
X167556Y140001D01*
X167588Y139905D01*
X167617Y139808D01*
X167643Y139710D01*
X167664Y139611D01*
X167682Y139511D01*
X167695Y139411D01*
X167705Y139310D01*
X167711Y139209D01*
X167713Y139108D01*
X167713Y136498D01*
X167711Y136372D01*
X167705Y136246D01*
X167696Y136120D01*
X167683Y135995D01*
X167665Y135870D01*
X167645Y135745D01*
X167620Y135621D01*
X167592Y135498D01*
X167560Y135376D01*
X167524Y135255D01*
X167485Y135135D01*
X167442Y135017D01*
X167395Y134900D01*
X167345Y134784D01*
X167291Y134669D01*
X167235Y134557D01*
X167174Y134446D01*
X167111Y134337D01*
X167044Y134230D01*
X166974Y134125D01*
X166900Y134022D01*
X166824Y133922D01*
X166745Y133824D01*
X166663Y133728D01*
X166577Y133635D01*
X166490Y133544D01*
X166399Y133457D01*
X166306Y133371D01*
X166210Y133289D01*
X166112Y133210D01*
X166012Y133134D01*
X165909Y133060D01*
X165804Y132990D01*
X165697Y132923D01*
X165588Y132860D01*
X165477Y132799D01*
X165365Y132743D01*
X165250Y132689D01*
X165134Y132639D01*
X165017Y132592D01*
X164899Y132549D01*
X164779Y132510D01*
X164658Y132474D01*
X164536Y132442D01*
X164413Y132414D01*
X164289Y132389D01*
X164164Y132369D01*
X164039Y132351D01*
X163914Y132338D01*
X163788Y132329D01*
X163662Y132323D01*
X163536Y132321D01*
X181369Y119018D02*
X181369Y116929D01*
X181367Y116840D01*
X181361Y116752D01*
X181352Y116664D01*
X181339Y116576D01*
X181322Y116489D01*
X181302Y116403D01*
X181277Y116318D01*
X181250Y116233D01*
X181218Y116150D01*
X181184Y116069D01*
X181145Y115989D01*
X181104Y115911D01*
X181059Y115834D01*
X181011Y115760D01*
X180960Y115687D01*
X180906Y115617D01*
X180848Y115550D01*
X180788Y115484D01*
X180726Y115422D01*
X180660Y115362D01*
X180593Y115304D01*
X180523Y115250D01*
X180450Y115199D01*
X180376Y115151D01*
X180299Y115106D01*
X180221Y115065D01*
X180141Y115026D01*
X180060Y114992D01*
X179977Y114960D01*
X179892Y114933D01*
X179807Y114908D01*
X179721Y114888D01*
X179634Y114871D01*
X179546Y114858D01*
X179458Y114849D01*
X179370Y114843D01*
X179281Y114841D01*
X174059Y114841D01*
X173968Y114843D01*
X173877Y114849D01*
X173786Y114859D01*
X173696Y114873D01*
X173607Y114891D01*
X173518Y114912D01*
X173431Y114938D01*
X173345Y114967D01*
X173260Y115000D01*
X173176Y115037D01*
X173094Y115077D01*
X173015Y115121D01*
X172937Y115168D01*
X172861Y115219D01*
X172787Y115273D01*
X172716Y115330D01*
X172648Y115390D01*
X172582Y115453D01*
X172519Y115519D01*
X172459Y115587D01*
X172402Y115658D01*
X172348Y115732D01*
X172297Y115808D01*
X172250Y115885D01*
X172206Y115965D01*
X172166Y116047D01*
X172129Y116131D01*
X172096Y116215D01*
X172067Y116302D01*
X172041Y116389D01*
X172020Y116478D01*
X172002Y116567D01*
X171988Y116657D01*
X171978Y116748D01*
X171972Y116839D01*
X171970Y116930D01*
X171971Y116929D02*
X171971Y119018D01*
X174059Y122487D02*
X171971Y125097D01*
X181369Y125097D01*
X181369Y122487D02*
X181369Y127708D01*
X176670Y131630D02*
X176485Y131632D01*
X176300Y131639D01*
X176116Y131650D01*
X175932Y131665D01*
X175748Y131685D01*
X175564Y131709D01*
X175382Y131738D01*
X175200Y131771D01*
X175019Y131808D01*
X174839Y131850D01*
X174659Y131896D01*
X174481Y131946D01*
X174305Y132000D01*
X174129Y132059D01*
X173955Y132121D01*
X173783Y132188D01*
X173612Y132259D01*
X173443Y132334D01*
X173276Y132413D01*
X173196Y132443D01*
X173117Y132476D01*
X173040Y132513D01*
X172964Y132553D01*
X172890Y132596D01*
X172818Y132642D01*
X172749Y132692D01*
X172681Y132744D01*
X172616Y132800D01*
X172553Y132858D01*
X172494Y132920D01*
X172436Y132983D01*
X172382Y133050D01*
X172331Y133118D01*
X172283Y133189D01*
X172238Y133262D01*
X172196Y133336D01*
X172158Y133413D01*
X172123Y133491D01*
X172091Y133570D01*
X172063Y133651D01*
X172039Y133733D01*
X172018Y133817D01*
X172001Y133900D01*
X171988Y133985D01*
X171979Y134070D01*
X171973Y134155D01*
X171971Y134241D01*
X171973Y134327D01*
X171979Y134412D01*
X171988Y134497D01*
X172001Y134582D01*
X172018Y134665D01*
X172039Y134749D01*
X172063Y134831D01*
X172091Y134912D01*
X172123Y134991D01*
X172158Y135069D01*
X172196Y135146D01*
X172238Y135220D01*
X172283Y135293D01*
X172331Y135364D01*
X172382Y135432D01*
X172436Y135499D01*
X172494Y135562D01*
X172553Y135624D01*
X172616Y135682D01*
X172681Y135738D01*
X172749Y135790D01*
X172818Y135840D01*
X172890Y135886D01*
X172964Y135929D01*
X173040Y135969D01*
X173117Y136006D01*
X173196Y136039D01*
X173276Y136069D01*
X173443Y136148D01*
X173612Y136223D01*
X173783Y136294D01*
X173955Y136361D01*
X174129Y136423D01*
X174305Y136482D01*
X174481Y136536D01*
X174659Y136586D01*
X174839Y136632D01*
X175019Y136674D01*
X175200Y136711D01*
X175382Y136744D01*
X175564Y136773D01*
X175748Y136797D01*
X175932Y136817D01*
X176116Y136832D01*
X176300Y136843D01*
X176485Y136850D01*
X176670Y136852D01*
X176670Y131631D02*
X176855Y131633D01*
X177040Y131640D01*
X177224Y131651D01*
X177408Y131666D01*
X177592Y131686D01*
X177776Y131710D01*
X177958Y131739D01*
X178140Y131772D01*
X178321Y131809D01*
X178501Y131851D01*
X178681Y131897D01*
X178859Y131947D01*
X179035Y132001D01*
X179211Y132060D01*
X179385Y132122D01*
X179557Y132189D01*
X179728Y132260D01*
X179897Y132335D01*
X180064Y132414D01*
X180064Y132413D02*
X180144Y132443D01*
X180223Y132476D01*
X180300Y132513D01*
X180376Y132553D01*
X180450Y132596D01*
X180522Y132642D01*
X180591Y132692D01*
X180659Y132745D01*
X180724Y132800D01*
X180787Y132859D01*
X180846Y132920D01*
X180904Y132983D01*
X180958Y133050D01*
X181009Y133118D01*
X181057Y133189D01*
X181102Y133262D01*
X181144Y133336D01*
X181182Y133413D01*
X181217Y133491D01*
X181249Y133570D01*
X181277Y133651D01*
X181301Y133733D01*
X181322Y133817D01*
X181339Y133900D01*
X181352Y133985D01*
X181361Y134070D01*
X181367Y134155D01*
X181369Y134241D01*
X180064Y136069D02*
X179897Y136148D01*
X179728Y136223D01*
X179557Y136294D01*
X179385Y136361D01*
X179211Y136423D01*
X179035Y136482D01*
X178859Y136536D01*
X178681Y136586D01*
X178501Y136632D01*
X178321Y136674D01*
X178140Y136711D01*
X177958Y136744D01*
X177776Y136773D01*
X177592Y136797D01*
X177408Y136817D01*
X177224Y136832D01*
X177040Y136843D01*
X176855Y136850D01*
X176670Y136852D01*
X180064Y136069D02*
X180144Y136039D01*
X180223Y136006D01*
X180300Y135969D01*
X180376Y135929D01*
X180450Y135886D01*
X180522Y135840D01*
X180591Y135790D01*
X180659Y135738D01*
X180724Y135682D01*
X180787Y135624D01*
X180846Y135562D01*
X180904Y135499D01*
X180958Y135432D01*
X181009Y135364D01*
X181057Y135293D01*
X181102Y135220D01*
X181144Y135146D01*
X181182Y135069D01*
X181217Y134991D01*
X181249Y134912D01*
X181277Y134831D01*
X181301Y134749D01*
X181322Y134665D01*
X181339Y134582D01*
X181352Y134497D01*
X181361Y134412D01*
X181367Y134327D01*
X181369Y134241D01*
X179281Y132153D02*
X174059Y136330D01*
M02*
