M48
;GenerationSoftware,Autodesk,EAGLE,9.6.2*%
;CreationDate,2020-11-09T18:08:12Z*%
FMAT,2
ICI,OFF
METRIC,TZ,000.000
T5C0.381
T4C0.450
T3C0.800
T2C0.813
T1C0.914
%
G90
M71
T1
X3302Y20066
X21336Y2540
X23876Y2540
X16256Y2540
X18796Y2540
X11176Y2540
X13716Y2540
X3302Y14986
X3302Y17526
X3302Y22606
T2
X3810Y10668
X6350Y10668
X27686Y3556
X27686Y6096
T3
X22352Y20828
X19812Y20828
X22352Y23368
X19812Y23368
X19812Y18288
X22352Y18288
T4
X4318Y5101
X28360Y22011
T5
X25731Y20953
X24892Y17272
X18856Y19110
X23000Y19779
X22493Y9765
X21336Y14224
X16256Y10236
X18796Y7366
X23622Y9398
X28448Y20066
X13462Y22208
X16510Y23622
X19050Y24638
X12446Y2286
X8052Y5645
X7543Y7797
X9906Y10668
X15494Y21844
X16002Y8128
X21082Y19558
X16510Y14732
X17272Y15683
X15240Y16510
X18542Y4572
X9727Y13462
X5842Y21730
X10160Y18161
X15658Y5334
X9079Y14478
X21235Y16865
X17399Y14387
X7874Y11684
X8128Y13208
X26670Y7366
X28702Y13208
X5588Y14986
X15494Y20828
X17704Y7620
X4750Y18567
X14605Y22098
X4572Y12446
X1483Y21885
X8636Y22925
X6604Y15634
X18146Y21956
X17272Y13498
X9516Y9008
X10744Y4572
X10744Y6906
X22606Y4318
X19558Y4572
X24461Y5157
X15544Y4368
X17272Y4572
X7112Y13424
X10414Y19050
X5271Y22415
M30