G04 EAGLE Gerber RS-274X export*
G75*
%MOMM*%
%FSLAX34Y34*%
%LPD*%
%INSilkscreen Bottom*%
%IPPOS*%
%AMOC8*
5,1,8,0,0,1.08239X$1,22.5*%
G01*
%ADD10R,1.013463X0.063500*%
%ADD11R,1.780538X0.063500*%
%ADD12R,2.796538X0.063500*%
%ADD13R,1.272538X0.063500*%
%ADD14R,0.949963X0.063500*%
%ADD15R,0.886463X0.063500*%
%ADD16R,0.822963X0.063500*%
%ADD17R,0.759463X0.063500*%
%ADD18R,0.695963X0.063500*%
%ADD19R,0.701037X0.063500*%
%ADD20R,0.637537X0.063500*%
%ADD21R,0.508000X0.063500*%
%ADD22R,0.510537X0.063500*%
%ADD23R,0.571500X0.063500*%
%ADD24R,0.568963X0.063500*%
%ADD25R,0.444500X0.063500*%
%ADD26R,0.825500X0.063500*%
%ADD27R,0.127000X0.063500*%
%ADD28R,0.447038X0.063500*%
%ADD29R,0.190500X0.063500*%
%ADD30R,0.381000X0.063500*%
%ADD31R,0.378463X0.063500*%
%ADD32R,0.441963X0.063500*%
%ADD33R,0.762000X0.063500*%
%ADD34R,1.076963X0.063500*%
%ADD35R,0.383538X0.063500*%
%ADD36R,1.203963X0.063500*%
%ADD37R,0.254000X0.063500*%
%ADD38R,1.460500X0.063500*%
%ADD39R,0.828038X0.063500*%
%ADD40R,0.320038X0.063500*%
%ADD41R,1.907538X0.063500*%
%ADD42R,1.018538X0.063500*%
%ADD43R,2.159000X0.063500*%
%ADD44R,1.651000X0.063500*%
%ADD45R,0.317500X0.063500*%
%ADD46R,0.314963X0.063500*%
%ADD47R,2.349500X0.063500*%
%ADD48R,4.127500X0.063500*%
%ADD49R,4.191000X0.063500*%
%ADD50R,4.257038X0.063500*%
%ADD51R,4.320538X0.063500*%
%ADD52R,4.381500X0.063500*%
%ADD53R,0.251463X0.063500*%
%ADD54R,4.378963X0.063500*%
%ADD55R,4.505962X0.063500*%
%ADD56R,4.569463X0.063500*%
%ADD57R,4.699000X0.063500*%
%ADD58R,4.762500X0.063500*%
%ADD59R,4.826000X0.063500*%
%ADD60R,5.013962X0.063500*%
%ADD61R,5.080000X0.063500*%
%ADD62R,0.256538X0.063500*%
%ADD63R,5.270500X0.063500*%
%ADD64R,5.397500X0.063500*%
%ADD65R,5.524500X0.063500*%
%ADD66R,5.588000X0.063500*%
%ADD67R,5.715000X0.063500*%
%ADD68R,5.778500X0.063500*%
%ADD69R,5.908038X0.063500*%
%ADD70R,2.410462X0.063500*%
%ADD71R,3.302000X0.063500*%
%ADD72R,2.473963X0.063500*%
%ADD73R,3.111500X0.063500*%
%ADD74R,0.193038X0.063500*%
%ADD75R,2.857500X0.063500*%
%ADD76R,2.923538X0.063500*%
%ADD77R,3.048000X0.063500*%
%ADD78R,3.299463X0.063500*%
%ADD79R,2.730500X0.063500*%
%ADD80R,0.187963X0.063500*%
%ADD81R,3.426462X0.063500*%
%ADD82R,1.209037X0.063500*%
%ADD83R,0.955038X0.063500*%
%ADD84R,3.556000X0.063500*%
%ADD85R,0.764538X0.063500*%
%ADD86R,3.810000X0.063500*%
%ADD87R,0.891538X0.063500*%
%ADD88R,3.934462X0.063500*%
%ADD89R,4.061463X0.063500*%
%ADD90R,4.251963X0.063500*%
%ADD91R,0.952500X0.063500*%
%ADD92R,0.574037X0.063500*%
%ADD93R,4.315463X0.063500*%
%ADD94R,2.854963X0.063500*%
%ADD95R,1.267463X0.063500*%
%ADD96R,2.540000X0.063500*%
%ADD97R,3.238500X0.063500*%
%ADD98R,3.619500X0.063500*%
%ADD99R,1.778000X0.063500*%
%ADD100R,3.807463X0.063500*%
%ADD101R,1.714500X0.063500*%
%ADD102R,4.318000X0.063500*%
%ADD103R,4.508500X0.063500*%
%ADD104R,1.524000X0.063500*%
%ADD105R,3.429000X0.063500*%
%ADD106R,0.889000X0.063500*%
%ADD107R,2.984500X0.063500*%
%ADD108R,1.397000X0.063500*%
%ADD109R,1.270000X0.063500*%
%ADD110R,1.587500X0.063500*%
%ADD111R,3.172462X0.063500*%
%ADD112R,3.495038X0.063500*%
%ADD113R,0.698500X0.063500*%
%ADD114R,3.622038X0.063500*%
%ADD115R,0.635000X0.063500*%
%ADD116R,3.683000X0.063500*%
%ADD117R,1.841500X0.063500*%
%ADD118R,5.651500X0.063500*%
%ADD119R,5.334000X0.063500*%
%ADD120R,5.143500X0.063500*%
%ADD121R,5.016500X0.063500*%
%ADD122R,4.953000X0.063500*%
%ADD123R,1.079500X0.063500*%
%ADD124R,1.206500X0.063500*%
%ADD125R,4.635500X0.063500*%
%ADD126R,4.445000X0.063500*%
%ADD127R,1.145538X0.063500*%
%ADD128R,1.968500X0.063500*%
%ADD129R,1.016000X0.063500*%
%ADD130R,1.838963X0.063500*%
%ADD131R,1.330963X0.063500*%
%ADD132R,1.711963X0.063500*%
%ADD133R,1.905000X0.063500*%
%ADD134R,1.143000X0.063500*%
%ADD135R,2.032000X0.063500*%
%ADD136R,2.156462X0.063500*%
%ADD137R,2.286000X0.063500*%
%ADD138R,2.413000X0.063500*%
%ADD139R,2.794000X0.063500*%
%ADD140R,1.648463X0.063500*%
%ADD141R,1.457963X0.063500*%
%ADD142R,7.871463X0.063500*%
%ADD143R,8.061962X0.063500*%
%ADD144R,1.965963X0.063500*%
%ADD145R,8.255000X0.063500*%
%ADD146R,2.095500X0.063500*%
%ADD147R,8.445500X0.063500*%
%ADD148R,2.219963X0.063500*%
%ADD149R,8.572500X0.063500*%
%ADD150R,8.763000X0.063500*%
%ADD151R,8.890000X0.063500*%
%ADD152R,9.017000X0.063500*%
%ADD153R,2.664462X0.063500*%
%ADD154R,9.144000X0.063500*%
%ADD155R,9.204963X0.063500*%
%ADD156R,9.268463X0.063500*%
%ADD157R,1.333500X0.063500*%
%ADD158R,9.331963X0.063500*%
%ADD159R,9.395463X0.063500*%
%ADD160R,1.140463X0.063500*%
%ADD161R,7.493000X0.063500*%
%ADD162R,7.239000X0.063500*%
%ADD163R,7.048500X0.063500*%
%ADD164R,6.860538X0.063500*%
%ADD165R,6.733538X0.063500*%
%ADD166R,6.479538X0.063500*%
%ADD167R,6.413500X0.063500*%
%ADD168R,6.286500X0.063500*%
%ADD169R,1.082037X0.063500*%
%ADD170R,6.093463X0.063500*%
%ADD171R,6.029962X0.063500*%
%ADD172R,1.336037X0.063500*%
%ADD173R,5.966463X0.063500*%
%ADD174R,1.399538X0.063500*%
%ADD175R,5.902963X0.063500*%
%ADD176R,5.775963X0.063500*%
%ADD177R,5.712462X0.063500*%
%ADD178R,5.458463X0.063500*%
%ADD179R,5.394963X0.063500*%
%ADD180R,0.063500X0.063500*%
%ADD181R,5.207000X0.063500*%
%ADD182R,5.146038X0.063500*%
%ADD183R,5.082537X0.063500*%
%ADD184R,5.140963X0.063500*%
%ADD185R,5.204462X0.063500*%
%ADD186R,5.209538X0.063500*%
%ADD187R,0.129537X0.063500*%
%ADD188R,5.077463X0.063500*%
%ADD189R,4.950463X0.063500*%
%ADD190R,4.886963X0.063500*%
%ADD191R,0.124463X0.063500*%
%ADD192R,4.823463X0.063500*%
%ADD193R,4.696462X0.063500*%
%ADD194R,4.632963X0.063500*%
%ADD195R,4.572000X0.063500*%
%ADD196R,4.447538X0.063500*%
%ADD197R,4.384037X0.063500*%
%ADD198R,4.188462X0.063500*%
%ADD199R,3.997963X0.063500*%
%ADD200R,3.746500X0.063500*%
%ADD201R,3.616963X0.063500*%
%ADD202R,3.489963X0.063500*%
%ADD203R,3.362963X0.063500*%
%ADD204R,3.045463X0.063500*%
%ADD205R,2.981963X0.063500*%
%ADD206R,2.667000X0.063500*%
%ADD207R,4.000500X0.063500*%
%ADD208R,1.521463X0.063500*%
%ADD209R,3.304538X0.063500*%
%ADD210R,3.114038X0.063500*%
%ADD211R,0.505463X0.063500*%
%ADD212R,2.603500X0.063500*%
%ADD213R,2.161538X0.063500*%
%ADD214R,2.476500X0.063500*%
%ADD215R,4.955538X0.063500*%
%ADD216R,4.124963X0.063500*%
%ADD217R,3.743963X0.063500*%
%ADD218R,3.241038X0.063500*%
%ADD219R,2.415538X0.063500*%
%ADD220C,0.050800*%


D10*
X149543Y49530D03*
D11*
X149543Y50165D03*
D12*
X149543Y50800D03*
D13*
X139383Y51435D03*
X160338Y51435D03*
D14*
X135255Y52070D03*
D15*
X164148Y52070D03*
D16*
X132080Y52705D03*
X167640Y52705D03*
D17*
X129858Y53340D03*
D18*
X169545Y53340D03*
D19*
X127635Y53975D03*
D20*
X171768Y53975D03*
D21*
X125425Y54610D03*
D22*
X174308Y54610D03*
D23*
X123838Y55245D03*
D22*
X175578Y55245D03*
D24*
X121920Y55880D03*
D23*
X147968Y55880D03*
D21*
X177495Y55880D03*
D25*
X120663Y56515D03*
D26*
X146063Y56515D03*
D21*
X178765Y56515D03*
D22*
X119063Y57150D03*
D20*
X142558Y57150D03*
D27*
X149555Y57150D03*
D21*
X180035Y57150D03*
D28*
X117475Y57785D03*
D22*
X139383Y57785D03*
D29*
X149238Y57785D03*
D25*
X181623Y57785D03*
D30*
X116535Y58420D03*
D24*
X137795Y58420D03*
D27*
X148920Y58420D03*
D31*
X182563Y58420D03*
D32*
X115570Y59055D03*
D33*
X136195Y59055D03*
D29*
X148603Y59055D03*
D32*
X184150Y59055D03*
X114300Y59690D03*
D16*
X135255Y59690D03*
D29*
X148603Y59690D03*
D31*
X185103Y59690D03*
X113348Y60325D03*
D14*
X133985Y60325D03*
D29*
X147968Y60325D03*
D30*
X186360Y60325D03*
X112090Y60960D03*
D34*
X133350Y60960D03*
D29*
X147968Y60960D03*
D35*
X187643Y60960D03*
X110808Y61595D03*
D36*
X132715Y61595D03*
D37*
X147650Y61595D03*
D35*
X188278Y61595D03*
X110173Y62230D03*
D38*
X132067Y62230D03*
D37*
X147650Y62230D03*
D39*
X158750Y62230D03*
D35*
X189548Y62230D03*
D40*
X109220Y62865D03*
D41*
X133668Y62865D03*
D37*
X147650Y62865D03*
D42*
X157798Y62865D03*
D40*
X190500Y62865D03*
D30*
X108280Y63500D03*
D43*
X133045Y63500D03*
D44*
X154635Y63500D03*
D45*
X191148Y63500D03*
D46*
X107315Y64135D03*
D47*
X132728Y64135D03*
D44*
X154000Y64135D03*
D45*
X192418Y64135D03*
D31*
X106363Y64770D03*
D48*
X140983Y64770D03*
D45*
X193053Y64770D03*
X105423Y65405D03*
D49*
X140030Y65405D03*
D45*
X193688Y65405D03*
X104788Y66040D03*
D50*
X139065Y66040D03*
D37*
X194640Y66040D03*
D35*
X103823Y66675D03*
D50*
X138430Y66675D03*
D45*
X195593Y66675D03*
D40*
X102870Y67310D03*
D51*
X137478Y67310D03*
D46*
X196215Y67310D03*
D45*
X102248Y67945D03*
D51*
X136843Y67945D03*
D37*
X197180Y67945D03*
D45*
X101613Y68580D03*
D52*
X135903Y68580D03*
D53*
X197803Y68580D03*
D45*
X100978Y69215D03*
D54*
X135255Y69215D03*
D37*
X198450Y69215D03*
D46*
X100330Y69850D03*
D55*
X134620Y69850D03*
D37*
X199060Y69850D03*
D45*
X99682Y70485D03*
D55*
X133985Y70485D03*
D37*
X199720Y70485D03*
D40*
X99060Y71120D03*
D56*
X133668Y71120D03*
D37*
X200330Y71120D03*
D45*
X98438Y71755D03*
D57*
X133020Y71755D03*
D37*
X200990Y71755D03*
D45*
X97803Y72390D03*
D58*
X132702Y72390D03*
D37*
X201600Y72390D03*
D45*
X97168Y73025D03*
D59*
X132385Y73025D03*
D37*
X202260Y73025D03*
D46*
X96520Y73660D03*
D60*
X132080Y73660D03*
D37*
X202870Y73660D03*
D46*
X95885Y74295D03*
D61*
X132410Y74295D03*
D37*
X203530Y74295D03*
D62*
X94933Y74930D03*
D63*
X132093Y74930D03*
D62*
X204153Y74930D03*
D40*
X94615Y75565D03*
D64*
X132093Y75565D03*
D37*
X204800Y75565D03*
D45*
X93993Y76200D03*
D65*
X132093Y76200D03*
D45*
X205118Y76200D03*
D37*
X93675Y76835D03*
D66*
X131775Y76835D03*
D29*
X205753Y76835D03*
D37*
X93040Y77470D03*
D67*
X131775Y77470D03*
D29*
X206388Y77470D03*
D53*
X92393Y78105D03*
D68*
X131458Y78105D03*
D37*
X206705Y78105D03*
D53*
X91758Y78740D03*
D69*
X131445Y78740D03*
D37*
X207340Y78740D03*
D53*
X91758Y79375D03*
D69*
X131445Y79375D03*
D29*
X207658Y79375D03*
D62*
X91123Y80010D03*
D70*
X112713Y80010D03*
D71*
X144475Y80010D03*
D29*
X208293Y80010D03*
D62*
X90488Y80645D03*
D72*
X113030Y80645D03*
D73*
X146063Y80645D03*
D53*
X208598Y80645D03*
D74*
X90170Y81280D03*
D75*
X114313Y81280D03*
D76*
X147003Y81280D03*
D37*
X209245Y81280D03*
X89865Y81915D03*
D77*
X114630Y81915D03*
D12*
X147638Y81915D03*
D29*
X209563Y81915D03*
D37*
X89230Y82550D03*
D78*
X115253Y82550D03*
D79*
X148603Y82550D03*
D53*
X209868Y82550D03*
D80*
X88900Y83185D03*
D81*
X115888Y83185D03*
D82*
X142240Y83185D03*
D83*
X157480Y83185D03*
D37*
X210515Y83185D03*
D53*
X88583Y83820D03*
D84*
X115875Y83820D03*
D42*
X142558Y83820D03*
D85*
X158433Y83820D03*
D74*
X210820Y83820D03*
D53*
X87948Y84455D03*
D86*
X116510Y84455D03*
D87*
X143193Y84455D03*
D19*
X158750Y84455D03*
D37*
X211125Y84455D03*
D29*
X87643Y85090D03*
D88*
X116523Y85090D03*
D83*
X144145Y85090D03*
D19*
X159385Y85090D03*
D37*
X211785Y85090D03*
D62*
X87313Y85725D03*
D89*
X117158Y85725D03*
D83*
X145415Y85725D03*
D20*
X159703Y85725D03*
D74*
X212090Y85725D03*
X86995Y86360D03*
D90*
X117475Y86360D03*
D91*
X146698Y86360D03*
D92*
X160020Y86360D03*
D37*
X212395Y86360D03*
X86690Y86995D03*
D93*
X117793Y86995D03*
D10*
X147003Y86995D03*
D92*
X160020Y86995D03*
D80*
X212725Y86995D03*
D37*
X86055Y87630D03*
D94*
X109855Y87630D03*
D95*
X134303Y87630D03*
D10*
X148273Y87630D03*
D92*
X160020Y87630D03*
D74*
X213360Y87630D03*
D29*
X85738Y88265D03*
D96*
X108280Y88265D03*
D26*
X136512Y88265D03*
D10*
X148908Y88265D03*
D20*
X159703Y88265D03*
D74*
X213360Y88265D03*
D62*
X85408Y88900D03*
D97*
X111138Y88900D03*
D33*
X138125Y88900D03*
D10*
X149543Y88900D03*
D19*
X159385Y88900D03*
D80*
X213995Y88900D03*
D29*
X85077Y89535D03*
D98*
X112408Y89535D03*
D92*
X139700Y89535D03*
D99*
X154635Y89535D03*
D80*
X213995Y89535D03*
D53*
X84773Y90170D03*
D100*
X113348Y90170D03*
D28*
X140970Y90170D03*
D101*
X154953Y90170D03*
D37*
X214325Y90170D03*
D29*
X84468Y90805D03*
D49*
X114605Y90805D03*
D28*
X142240Y90805D03*
D44*
X155270Y90805D03*
D37*
X214935Y90805D03*
X84150Y91440D03*
D102*
X115240Y91440D03*
D45*
X143523Y91440D03*
D44*
X155905Y91440D03*
D80*
X215265Y91440D03*
D29*
X83833Y92075D03*
D103*
X116192Y92075D03*
D37*
X144475Y92075D03*
D104*
X156540Y92075D03*
D80*
X215265Y92075D03*
D29*
X83833Y92710D03*
D57*
X116510Y92710D03*
D27*
X145745Y92710D03*
D38*
X156858Y92710D03*
D74*
X215900Y92710D03*
D29*
X83172Y93345D03*
D59*
X117145Y93345D03*
D27*
X146380Y93345D03*
D38*
X156858Y93345D03*
D74*
X215900Y93345D03*
D29*
X83172Y93980D03*
D105*
X109550Y93980D03*
D106*
X138760Y93980D03*
D27*
X147650Y93980D03*
D38*
X157493Y93980D03*
D80*
X216535Y93980D03*
D29*
X82563Y94615D03*
D107*
X107328Y94615D03*
D22*
X141923Y94615D03*
D27*
X148285Y94615D03*
D108*
X157810Y94615D03*
D80*
X216535Y94615D03*
D29*
X82563Y95250D03*
D75*
X106693Y95250D03*
D28*
X143510Y95250D03*
D27*
X149555Y95250D03*
D38*
X158128Y95250D03*
D74*
X217170Y95250D03*
D37*
X82245Y95885D03*
D14*
X97155Y95885D03*
D44*
X112090Y95885D03*
D109*
X127965Y95885D03*
D37*
X145745Y95885D03*
D110*
X157493Y95885D03*
D74*
X217170Y95885D03*
D29*
X81928Y96520D03*
D26*
X96533Y96520D03*
D111*
X122238Y96520D03*
D29*
X147333Y96520D03*
D44*
X157810Y96520D03*
D74*
X217170Y96520D03*
D62*
X81598Y97155D03*
D33*
X96215Y97155D03*
D112*
X125095Y97155D03*
D99*
X157175Y97155D03*
D37*
X217475Y97155D03*
D62*
X81598Y97790D03*
D113*
X95898Y97790D03*
D114*
X127000Y97790D03*
D99*
X157810Y97790D03*
D80*
X217805Y97790D03*
D62*
X81598Y98425D03*
D115*
X95580Y98425D03*
D116*
X128600Y98425D03*
D117*
X158128Y98425D03*
D37*
X218135Y98425D03*
D40*
X81280Y99060D03*
D115*
X95580Y99060D03*
D118*
X139078Y99060D03*
D74*
X218440Y99060D03*
D37*
X80950Y99695D03*
D115*
X95580Y99695D03*
D66*
X139395Y99695D03*
D74*
X218440Y99695D03*
D37*
X80950Y100330D03*
D113*
X95263Y100330D03*
D64*
X139078Y100330D03*
D37*
X218745Y100330D03*
X80950Y100965D03*
D113*
X95263Y100965D03*
D119*
X139395Y100965D03*
D80*
X219075Y100965D03*
D46*
X80645Y101600D03*
D33*
X95580Y101600D03*
D63*
X139078Y101600D03*
D80*
X219075Y101600D03*
D46*
X80645Y102235D03*
D113*
X95898Y102235D03*
D120*
X139078Y102235D03*
D80*
X219075Y102235D03*
D46*
X80645Y102870D03*
D33*
X96215Y102870D03*
D121*
X139078Y102870D03*
D74*
X219710Y102870D03*
D31*
X80328Y103505D03*
D26*
X96533Y103505D03*
D121*
X139078Y103505D03*
D74*
X219710Y103505D03*
D31*
X80328Y104140D03*
D14*
X97155Y104140D03*
D122*
X138760Y104140D03*
D74*
X219710Y104140D03*
D31*
X80328Y104775D03*
D123*
X97803Y104775D03*
D59*
X138760Y104775D03*
D29*
X220358Y104775D03*
D31*
X80328Y105410D03*
D124*
X98438Y105410D03*
D58*
X138443Y105410D03*
D29*
X220358Y105410D03*
D32*
X80010Y106045D03*
D124*
X98438Y106045D03*
D57*
X138125Y106045D03*
D29*
X220358Y106045D03*
D32*
X80010Y106680D03*
D109*
X98755Y106680D03*
D125*
X137808Y106680D03*
D29*
X220358Y106680D03*
D21*
X80340Y107315D03*
D109*
X98755Y107315D03*
D103*
X137173Y107315D03*
D29*
X220358Y107315D03*
D21*
X80340Y107950D03*
D82*
X99060Y107950D03*
D126*
X136855Y107950D03*
D37*
X220675Y107950D03*
D92*
X80010Y108585D03*
D127*
X99378Y108585D03*
D102*
X136220Y108585D03*
D74*
X220980Y108585D03*
D92*
X80010Y109220D03*
D127*
X99378Y109220D03*
D128*
X124473Y109220D03*
D44*
X148260Y109220D03*
D74*
X220980Y109220D03*
D20*
X80328Y109855D03*
D129*
X99390Y109855D03*
D130*
X123825Y109855D03*
D131*
X148590Y109855D03*
D74*
X220980Y109855D03*
D20*
X80328Y110490D03*
D91*
X99708Y110490D03*
D132*
X123190Y110490D03*
D15*
X148908Y110490D03*
D74*
X220980Y110490D03*
D20*
X80328Y111125D03*
D26*
X99708Y111125D03*
D101*
X122568Y111125D03*
D30*
X148920Y111125D03*
D62*
X221298Y111125D03*
D17*
X80328Y111760D03*
D23*
X99708Y111760D03*
D44*
X122250Y111760D03*
D29*
X221628Y111760D03*
D17*
X80328Y112395D03*
D29*
X99708Y112395D03*
D101*
X121933Y112395D03*
D29*
X221628Y112395D03*
D26*
X80658Y113030D03*
D44*
X121615Y113030D03*
D29*
X221628Y113030D03*
D26*
X80658Y113665D03*
D44*
X121615Y113665D03*
D29*
X221628Y113665D03*
D106*
X80975Y114300D03*
D101*
X121298Y114300D03*
D29*
X221628Y114300D03*
D14*
X81280Y114935D03*
D99*
X120980Y114935D03*
D29*
X221628Y114935D03*
D14*
X81280Y115570D03*
D117*
X121298Y115570D03*
D29*
X222263Y115570D03*
D129*
X81610Y116205D03*
D133*
X120980Y116205D03*
D29*
X222263Y116205D03*
D134*
X82245Y116840D03*
D135*
X120980Y116840D03*
D29*
X222263Y116840D03*
D134*
X82245Y117475D03*
D136*
X120968Y117475D03*
D29*
X222263Y117475D03*
D95*
X82868Y118110D03*
D137*
X120955Y118110D03*
D29*
X222263Y118110D03*
D131*
X83185Y118745D03*
D138*
X120955Y118745D03*
D29*
X222263Y118745D03*
D38*
X83833Y119380D03*
D139*
X121590Y119380D03*
D29*
X222263Y119380D03*
D110*
X84468Y120015D03*
D111*
X122873Y120015D03*
D29*
X222263Y120015D03*
D140*
X84773Y120650D03*
D116*
X123520Y120650D03*
D26*
X202578Y120650D03*
D29*
X222263Y120650D03*
D128*
X85738Y121285D03*
D102*
X124790Y121285D03*
D124*
X202578Y121285D03*
D29*
X222263Y121285D03*
D137*
X87325Y121920D03*
D122*
X124790Y121920D03*
D141*
X202565Y121920D03*
D29*
X222263Y121920D03*
D142*
X115253Y122555D03*
D132*
X202565Y122555D03*
D29*
X222263Y122555D03*
D143*
X116205Y123190D03*
D144*
X202565Y123190D03*
D29*
X222263Y123190D03*
D145*
X117170Y123825D03*
D146*
X202578Y123825D03*
D29*
X222263Y123825D03*
D147*
X118758Y124460D03*
D148*
X202565Y124460D03*
D29*
X222263Y124460D03*
D149*
X119393Y125095D03*
D47*
X202578Y125095D03*
D29*
X222263Y125095D03*
D150*
X120345Y125730D03*
D70*
X202883Y125730D03*
D29*
X222263Y125730D03*
D151*
X120980Y126365D03*
D96*
X202895Y126365D03*
D29*
X222263Y126365D03*
D152*
X121615Y127000D03*
D153*
X202883Y127000D03*
D29*
X222263Y127000D03*
D154*
X122250Y127635D03*
D79*
X202552Y127635D03*
D29*
X222263Y127635D03*
D155*
X122555Y128270D03*
D12*
X202883Y128270D03*
D29*
X222263Y128270D03*
D156*
X122873Y128905D03*
D157*
X194932Y128905D03*
D38*
X209563Y128905D03*
D29*
X222263Y128905D03*
D158*
X123190Y129540D03*
D123*
X193662Y129540D03*
D36*
X211455Y129540D03*
D29*
X222263Y129540D03*
D159*
X123508Y130175D03*
D129*
X192710Y130175D03*
D160*
X211773Y130175D03*
D29*
X222263Y130175D03*
D159*
X123508Y130810D03*
D83*
X192405Y130810D03*
D123*
X212738Y130810D03*
D29*
X221628Y130810D03*
D159*
X123508Y131445D03*
D83*
X192405Y131445D03*
D129*
X213055Y131445D03*
D29*
X221628Y131445D03*
D159*
X123508Y132080D03*
D87*
X192088Y132080D03*
D129*
X213055Y132080D03*
D29*
X221628Y132080D03*
D161*
X113995Y132715D03*
D38*
X163182Y132715D03*
D87*
X192088Y132715D03*
D10*
X213678Y132715D03*
D29*
X221628Y132715D03*
D162*
X112725Y133350D03*
D36*
X163830Y133350D03*
D87*
X192088Y133350D03*
D14*
X213995Y133350D03*
D29*
X221628Y133350D03*
D163*
X111773Y133985D03*
D10*
X164148Y133985D03*
D87*
X192088Y133985D03*
D14*
X213995Y133985D03*
D29*
X221628Y133985D03*
D164*
X111443Y134620D03*
D17*
X164783Y134620D03*
D87*
X192088Y134620D03*
D83*
X214630Y134620D03*
D29*
X221628Y134620D03*
D165*
X110808Y135255D03*
D25*
X164478Y135255D03*
D87*
X192088Y135255D03*
D83*
X214630Y135255D03*
D74*
X220980Y135255D03*
D166*
X109538Y135890D03*
D83*
X192405Y135890D03*
X214630Y135890D03*
D74*
X220980Y135890D03*
D167*
X109207Y136525D03*
D83*
X192405Y136525D03*
X214630Y136525D03*
D74*
X220980Y136525D03*
D168*
X108572Y137160D03*
D169*
X193040Y137160D03*
D82*
X215900Y137160D03*
D170*
X108268Y137795D03*
D82*
X193675Y137795D03*
D134*
X216230Y137795D03*
D171*
X107950Y138430D03*
D172*
X194310Y138430D03*
D123*
X215913Y138430D03*
D173*
X107633Y139065D03*
D174*
X195263Y139065D03*
D123*
X215913Y139065D03*
D175*
X107315Y139700D03*
D172*
X195580Y139700D03*
D123*
X215913Y139700D03*
D176*
X107315Y140335D03*
D108*
X195885Y140335D03*
D123*
X215913Y140335D03*
D177*
X106998Y140970D03*
D131*
X196215Y140970D03*
D129*
X215595Y140970D03*
D118*
X106693Y141605D03*
D157*
X196863Y141605D03*
D129*
X215595Y141605D03*
D66*
X106375Y142240D03*
D109*
X197180Y142240D03*
D129*
X215595Y142240D03*
D65*
X106693Y142875D03*
D124*
X197498Y142875D03*
D14*
X215265Y142875D03*
D178*
X106363Y143510D03*
D34*
X197485Y143510D03*
D14*
X215265Y143510D03*
D179*
X106045Y144145D03*
D106*
X197815Y144145D03*
D14*
X215265Y144145D03*
D63*
X106032Y144780D03*
D180*
X150508Y144780D03*
D26*
X198133Y144780D03*
D14*
X215265Y144780D03*
D181*
X105715Y145415D03*
D53*
X152083Y145415D03*
D74*
X198755Y145415D03*
D14*
X215265Y145415D03*
D181*
X105715Y146050D03*
D45*
X153657Y146050D03*
D83*
X214630Y146050D03*
D182*
X105410Y146685D03*
D180*
X149873Y146685D03*
D22*
X156528Y146685D03*
D83*
X214630Y146685D03*
D183*
X105728Y147320D03*
D27*
X150190Y147320D03*
D28*
X158750Y147320D03*
D106*
X214300Y147320D03*
D120*
X106032Y147955D03*
D80*
X151765Y147955D03*
D106*
X162890Y147955D03*
D29*
X175908Y147955D03*
D106*
X214300Y147955D03*
D184*
X106680Y148590D03*
D27*
X148920Y148590D03*
D29*
X153022Y148590D03*
D14*
X168275Y148590D03*
D106*
X214300Y148590D03*
D185*
X106998Y149225D03*
D27*
X149555Y149225D03*
D37*
X153975Y149225D03*
D39*
X213995Y149225D03*
D185*
X106998Y149860D03*
D27*
X150190Y149860D03*
D37*
X155245Y149860D03*
D106*
X213690Y149860D03*
D185*
X107633Y150495D03*
D27*
X150825Y150495D03*
D62*
X156528Y150495D03*
D16*
X213360Y150495D03*
D185*
X107633Y151130D03*
D80*
X151765Y151130D03*
D40*
X158115Y151130D03*
D16*
X213360Y151130D03*
D186*
X108268Y151765D03*
D80*
X152400Y151765D03*
D37*
X159715Y151765D03*
D15*
X213043Y151765D03*
D186*
X108268Y152400D03*
D29*
X153022Y152400D03*
D45*
X161303Y152400D03*
D26*
X212738Y152400D03*
D120*
X108598Y153035D03*
D37*
X153975Y153035D03*
D30*
X163525Y153035D03*
D106*
X212420Y153035D03*
D181*
X108915Y153670D03*
D29*
X154927Y153670D03*
D45*
X165113Y153670D03*
D16*
X212090Y153670D03*
D181*
X108915Y154305D03*
D29*
X155562Y154305D03*
D32*
X167640Y154305D03*
D15*
X211773Y154305D03*
D120*
X109233Y154940D03*
D29*
X143523Y154940D03*
X156197Y154940D03*
D22*
X172403Y154940D03*
D26*
X211468Y154940D03*
D185*
X109538Y155575D03*
D45*
X143523Y155575D03*
D187*
X157163Y155575D03*
D106*
X211150Y155575D03*
D120*
X109842Y156210D03*
D25*
X144158Y156210D03*
D74*
X158115Y156210D03*
D16*
X210820Y156210D03*
D188*
X110173Y156845D03*
D25*
X144793Y156845D03*
D27*
X159080Y156845D03*
D15*
X210503Y156845D03*
D188*
X110173Y157480D03*
D21*
X145745Y157480D03*
D29*
X160033Y157480D03*
D26*
X210198Y157480D03*
D60*
X110490Y158115D03*
D23*
X146063Y158115D03*
D29*
X161303Y158115D03*
D106*
X209880Y158115D03*
D60*
X110490Y158750D03*
D23*
X147333Y158750D03*
D29*
X161938Y158750D03*
D16*
X209550Y158750D03*
D121*
X111112Y159385D03*
D25*
X147968Y159385D03*
D29*
X163208Y159385D03*
D15*
X209233Y159385D03*
D121*
X111112Y160020D03*
D29*
X164478Y160020D03*
D87*
X208598Y160020D03*
D189*
X111443Y160655D03*
D29*
X165748Y160655D03*
D91*
X208293Y160655D03*
D190*
X111760Y161290D03*
D29*
X167018Y161290D03*
D15*
X207963Y161290D03*
D189*
X112078Y161925D03*
D191*
X168593Y161925D03*
D87*
X207328Y161925D03*
D190*
X112395Y162560D03*
D29*
X171437Y162560D03*
D91*
X207023Y162560D03*
D190*
X112395Y163195D03*
D15*
X206693Y163195D03*
D192*
X112713Y163830D03*
D87*
X206058Y163830D03*
D59*
X113335Y164465D03*
D15*
X205423Y164465D03*
D59*
X113335Y165100D03*
D91*
X205092Y165100D03*
D58*
X113652Y165735D03*
D91*
X204483Y165735D03*
D193*
X113983Y166370D03*
D83*
X203835Y166370D03*
D193*
X114618Y167005D03*
D129*
X203530Y167005D03*
D193*
X114618Y167640D03*
D42*
X202883Y167640D03*
D193*
X115253Y168275D03*
D129*
X202260Y168275D03*
D194*
X115570Y168910D03*
D129*
X201625Y168910D03*
D125*
X116192Y169545D03*
D129*
X200990Y169545D03*
D125*
X116827Y170180D03*
D123*
X200673Y170180D03*
D194*
X117475Y170815D03*
D123*
X200038Y170815D03*
D193*
X117793Y171450D03*
D123*
X199403Y171450D03*
D125*
X118758Y172085D03*
D34*
X198755Y172085D03*
D57*
X119075Y172720D03*
D123*
X198133Y172720D03*
D125*
X119393Y173355D03*
D34*
X197485Y173355D03*
D195*
X119710Y173990D03*
D123*
X196863Y173990D03*
D196*
X119698Y174625D03*
D160*
X195898Y174625D03*
D197*
X120015Y175260D03*
D134*
X195275Y175260D03*
D90*
X120015Y175895D03*
D134*
X194615Y175895D03*
D198*
X120333Y176530D03*
D82*
X193675Y176530D03*
D199*
X120650Y177165D03*
D124*
X193027Y177165D03*
D88*
X120333Y177800D03*
D82*
X192405Y177800D03*
D200*
X120637Y178435D03*
D109*
X191440Y178435D03*
D201*
X120650Y179070D03*
D82*
X190500Y179070D03*
D202*
X120650Y179705D03*
D109*
X189560Y179705D03*
D203*
X120650Y180340D03*
D157*
X188608Y180340D03*
D111*
X120968Y180975D03*
D157*
X187973Y180975D03*
D204*
X120968Y181610D03*
D157*
X186703Y181610D03*
D205*
X121285Y182245D03*
D108*
X185750Y182245D03*
D139*
X121590Y182880D03*
D29*
X149238Y182880D03*
D180*
X153022Y182880D03*
D38*
X184798Y182880D03*
D79*
X121907Y183515D03*
D25*
X147968Y183515D03*
D27*
X153340Y183515D03*
D38*
X183528Y183515D03*
D206*
X122860Y184150D03*
D113*
X146698Y184150D03*
D37*
X153340Y184150D03*
D38*
X182258Y184150D03*
D207*
X130188Y184785D03*
D37*
X153340Y184785D03*
D62*
X157163Y184785D03*
D208*
X181293Y184785D03*
D86*
X130505Y185420D03*
D19*
X155575Y185420D03*
D104*
X180010Y185420D03*
D200*
X130823Y186055D03*
D33*
X155270Y186055D03*
D44*
X178740Y186055D03*
D98*
X131458Y186690D03*
D113*
X154953Y186690D03*
D44*
X177470Y186690D03*
D105*
X131775Y187325D03*
D113*
X154953Y187325D03*
D140*
X176213Y187325D03*
D209*
X132398Y187960D03*
D113*
X154318Y187960D03*
D99*
X174320Y187960D03*
D210*
X132715Y188595D03*
D24*
X153670Y188595D03*
D117*
X172733Y188595D03*
D107*
X133363Y189230D03*
D211*
X152718Y189230D03*
D133*
X171145Y189230D03*
D79*
X133998Y189865D03*
D27*
X150190Y189865D03*
D128*
X168923Y189865D03*
D212*
X134633Y190500D03*
D213*
X167323Y190500D03*
D138*
X134950Y191135D03*
D214*
X163843Y191135D03*
D215*
X149543Y191770D03*
D194*
X149860Y192405D03*
D216*
X149860Y193040D03*
D217*
X149860Y193675D03*
D218*
X149860Y194310D03*
D219*
X149543Y194945D03*
D110*
X149873Y195580D03*
D220*
X98185Y42672D02*
X98185Y37084D01*
X98806Y37084D02*
X97564Y37084D01*
X97564Y42672D02*
X98806Y42672D01*
X94938Y39257D02*
X93386Y38636D01*
X94938Y39257D02*
X94989Y39279D01*
X95038Y39305D01*
X95086Y39334D01*
X95131Y39367D01*
X95174Y39403D01*
X95215Y39441D01*
X95252Y39483D01*
X95287Y39526D01*
X95319Y39572D01*
X95347Y39621D01*
X95372Y39671D01*
X95393Y39722D01*
X95411Y39775D01*
X95425Y39829D01*
X95435Y39884D01*
X95441Y39940D01*
X95444Y39995D01*
X95443Y40051D01*
X95437Y40107D01*
X95428Y40162D01*
X95416Y40216D01*
X95399Y40270D01*
X95379Y40322D01*
X95355Y40372D01*
X95328Y40421D01*
X95297Y40468D01*
X95263Y40512D01*
X95227Y40554D01*
X95187Y40594D01*
X95145Y40630D01*
X95100Y40664D01*
X95053Y40694D01*
X95005Y40721D01*
X94954Y40745D01*
X94902Y40765D01*
X94848Y40781D01*
X94794Y40794D01*
X94739Y40803D01*
X94683Y40808D01*
X94627Y40809D01*
X94628Y40810D02*
X94517Y40806D01*
X94406Y40800D01*
X94296Y40789D01*
X94186Y40775D01*
X94076Y40758D01*
X93967Y40738D01*
X93859Y40714D01*
X93752Y40686D01*
X93645Y40655D01*
X93540Y40621D01*
X93435Y40584D01*
X93332Y40543D01*
X93230Y40499D01*
X93386Y38636D02*
X93335Y38614D01*
X93286Y38588D01*
X93238Y38559D01*
X93193Y38526D01*
X93150Y38490D01*
X93109Y38452D01*
X93072Y38410D01*
X93037Y38367D01*
X93005Y38321D01*
X92977Y38272D01*
X92952Y38222D01*
X92931Y38171D01*
X92913Y38118D01*
X92899Y38064D01*
X92889Y38009D01*
X92883Y37953D01*
X92880Y37898D01*
X92881Y37842D01*
X92887Y37786D01*
X92896Y37731D01*
X92908Y37677D01*
X92925Y37623D01*
X92945Y37571D01*
X92969Y37521D01*
X92996Y37472D01*
X93027Y37425D01*
X93061Y37381D01*
X93097Y37339D01*
X93137Y37299D01*
X93179Y37263D01*
X93224Y37229D01*
X93271Y37199D01*
X93319Y37172D01*
X93370Y37148D01*
X93422Y37128D01*
X93476Y37112D01*
X93530Y37099D01*
X93585Y37090D01*
X93641Y37085D01*
X93697Y37084D01*
X93696Y37084D02*
X93830Y37087D01*
X93964Y37094D01*
X94098Y37105D01*
X94231Y37118D01*
X94364Y37136D01*
X94497Y37156D01*
X94629Y37180D01*
X94760Y37208D01*
X94891Y37238D01*
X95020Y37272D01*
X95149Y37310D01*
X95277Y37350D01*
X95404Y37394D01*
X89591Y39257D02*
X88194Y39257D01*
X89591Y39258D02*
X89655Y39256D01*
X89720Y39250D01*
X89783Y39241D01*
X89846Y39228D01*
X89908Y39211D01*
X89969Y39190D01*
X90029Y39166D01*
X90087Y39138D01*
X90144Y39107D01*
X90198Y39073D01*
X90251Y39035D01*
X90301Y38994D01*
X90348Y38951D01*
X90393Y38905D01*
X90435Y38856D01*
X90474Y38805D01*
X90510Y38751D01*
X90543Y38696D01*
X90572Y38638D01*
X90598Y38580D01*
X90621Y38519D01*
X90640Y38458D01*
X90655Y38395D01*
X90666Y38331D01*
X90674Y38268D01*
X90678Y38203D01*
X90678Y38139D01*
X90674Y38074D01*
X90666Y38011D01*
X90655Y37947D01*
X90640Y37884D01*
X90621Y37823D01*
X90598Y37762D01*
X90572Y37704D01*
X90543Y37646D01*
X90510Y37591D01*
X90474Y37537D01*
X90435Y37486D01*
X90393Y37437D01*
X90348Y37391D01*
X90301Y37348D01*
X90251Y37307D01*
X90198Y37269D01*
X90144Y37235D01*
X90087Y37204D01*
X90029Y37176D01*
X89969Y37152D01*
X89908Y37131D01*
X89846Y37114D01*
X89783Y37101D01*
X89720Y37092D01*
X89655Y37086D01*
X89591Y37084D01*
X88194Y37084D01*
X88194Y39878D01*
X88196Y39936D01*
X88201Y39995D01*
X88210Y40052D01*
X88223Y40110D01*
X88240Y40166D01*
X88259Y40221D01*
X88283Y40274D01*
X88309Y40327D01*
X88339Y40377D01*
X88372Y40425D01*
X88408Y40471D01*
X88446Y40515D01*
X88488Y40557D01*
X88532Y40595D01*
X88578Y40631D01*
X88626Y40664D01*
X88676Y40694D01*
X88729Y40720D01*
X88782Y40744D01*
X88837Y40763D01*
X88893Y40780D01*
X88951Y40793D01*
X89008Y40802D01*
X89067Y40807D01*
X89125Y40809D01*
X90367Y40809D01*
X85499Y42672D02*
X85499Y37084D01*
X83947Y37084D01*
X83889Y37086D01*
X83830Y37091D01*
X83773Y37100D01*
X83715Y37113D01*
X83659Y37130D01*
X83604Y37149D01*
X83551Y37173D01*
X83498Y37199D01*
X83448Y37229D01*
X83400Y37262D01*
X83354Y37298D01*
X83310Y37336D01*
X83268Y37378D01*
X83230Y37422D01*
X83194Y37468D01*
X83161Y37516D01*
X83131Y37566D01*
X83105Y37619D01*
X83081Y37672D01*
X83062Y37727D01*
X83045Y37783D01*
X83032Y37841D01*
X83023Y37898D01*
X83018Y37957D01*
X83016Y38015D01*
X83016Y39878D01*
X83018Y39936D01*
X83023Y39995D01*
X83032Y40052D01*
X83045Y40110D01*
X83062Y40166D01*
X83081Y40221D01*
X83105Y40274D01*
X83131Y40327D01*
X83161Y40377D01*
X83194Y40425D01*
X83230Y40471D01*
X83268Y40515D01*
X83310Y40557D01*
X83354Y40595D01*
X83400Y40631D01*
X83448Y40664D01*
X83498Y40694D01*
X83551Y40720D01*
X83604Y40744D01*
X83659Y40763D01*
X83715Y40780D01*
X83773Y40793D01*
X83830Y40802D01*
X83889Y40807D01*
X83947Y40809D01*
X85499Y40809D01*
X79842Y37084D02*
X78290Y37084D01*
X79842Y37084D02*
X79900Y37086D01*
X79959Y37091D01*
X80016Y37100D01*
X80074Y37113D01*
X80130Y37130D01*
X80185Y37149D01*
X80238Y37173D01*
X80291Y37199D01*
X80341Y37229D01*
X80389Y37262D01*
X80435Y37298D01*
X80479Y37336D01*
X80521Y37378D01*
X80559Y37422D01*
X80595Y37468D01*
X80628Y37516D01*
X80658Y37566D01*
X80684Y37619D01*
X80708Y37672D01*
X80727Y37727D01*
X80744Y37783D01*
X80757Y37841D01*
X80766Y37898D01*
X80771Y37957D01*
X80773Y38015D01*
X80773Y39568D01*
X80771Y39638D01*
X80765Y39707D01*
X80755Y39776D01*
X80742Y39844D01*
X80724Y39912D01*
X80703Y39978D01*
X80678Y40043D01*
X80650Y40107D01*
X80618Y40169D01*
X80583Y40229D01*
X80544Y40287D01*
X80502Y40342D01*
X80457Y40396D01*
X80409Y40446D01*
X80359Y40494D01*
X80305Y40539D01*
X80250Y40581D01*
X80192Y40620D01*
X80132Y40655D01*
X80070Y40687D01*
X80006Y40715D01*
X79941Y40740D01*
X79875Y40761D01*
X79807Y40779D01*
X79739Y40792D01*
X79670Y40802D01*
X79601Y40808D01*
X79531Y40810D01*
X79461Y40808D01*
X79392Y40802D01*
X79323Y40792D01*
X79255Y40779D01*
X79187Y40761D01*
X79121Y40740D01*
X79056Y40715D01*
X78992Y40687D01*
X78930Y40655D01*
X78870Y40620D01*
X78812Y40581D01*
X78757Y40539D01*
X78703Y40494D01*
X78653Y40446D01*
X78605Y40396D01*
X78560Y40342D01*
X78518Y40287D01*
X78479Y40229D01*
X78444Y40169D01*
X78412Y40107D01*
X78384Y40043D01*
X78359Y39978D01*
X78338Y39912D01*
X78320Y39844D01*
X78307Y39776D01*
X78297Y39707D01*
X78291Y39638D01*
X78289Y39568D01*
X78290Y39568D02*
X78290Y38947D01*
X80773Y38947D01*
X75949Y38015D02*
X75949Y42672D01*
X75949Y38015D02*
X75947Y37957D01*
X75942Y37898D01*
X75933Y37841D01*
X75920Y37783D01*
X75903Y37727D01*
X75884Y37672D01*
X75860Y37619D01*
X75834Y37566D01*
X75804Y37516D01*
X75771Y37468D01*
X75735Y37422D01*
X75697Y37378D01*
X75655Y37336D01*
X75611Y37298D01*
X75565Y37262D01*
X75517Y37229D01*
X75467Y37199D01*
X75414Y37173D01*
X75361Y37149D01*
X75306Y37130D01*
X75250Y37113D01*
X75192Y37100D01*
X75135Y37091D01*
X75076Y37086D01*
X75018Y37084D01*
X73023Y38015D02*
X73023Y42672D01*
X73023Y38015D02*
X73021Y37957D01*
X73016Y37898D01*
X73007Y37841D01*
X72994Y37783D01*
X72977Y37727D01*
X72958Y37672D01*
X72934Y37619D01*
X72908Y37566D01*
X72878Y37516D01*
X72845Y37468D01*
X72809Y37422D01*
X72771Y37378D01*
X72729Y37336D01*
X72685Y37298D01*
X72639Y37262D01*
X72591Y37229D01*
X72541Y37199D01*
X72488Y37173D01*
X72435Y37149D01*
X72380Y37130D01*
X72324Y37113D01*
X72266Y37100D01*
X72209Y37091D01*
X72150Y37086D01*
X72092Y37084D01*
X69109Y39257D02*
X67712Y39257D01*
X69109Y39258D02*
X69173Y39256D01*
X69238Y39250D01*
X69301Y39241D01*
X69364Y39228D01*
X69426Y39211D01*
X69487Y39190D01*
X69547Y39166D01*
X69605Y39138D01*
X69662Y39107D01*
X69716Y39073D01*
X69769Y39035D01*
X69819Y38994D01*
X69866Y38951D01*
X69911Y38905D01*
X69953Y38856D01*
X69992Y38805D01*
X70028Y38751D01*
X70061Y38696D01*
X70090Y38638D01*
X70116Y38580D01*
X70139Y38519D01*
X70158Y38458D01*
X70173Y38395D01*
X70184Y38331D01*
X70192Y38268D01*
X70196Y38203D01*
X70196Y38139D01*
X70192Y38074D01*
X70184Y38011D01*
X70173Y37947D01*
X70158Y37884D01*
X70139Y37823D01*
X70116Y37762D01*
X70090Y37704D01*
X70061Y37646D01*
X70028Y37591D01*
X69992Y37537D01*
X69953Y37486D01*
X69911Y37437D01*
X69866Y37391D01*
X69819Y37348D01*
X69769Y37307D01*
X69716Y37269D01*
X69662Y37235D01*
X69605Y37204D01*
X69547Y37176D01*
X69487Y37152D01*
X69426Y37131D01*
X69364Y37114D01*
X69301Y37101D01*
X69238Y37092D01*
X69173Y37086D01*
X69109Y37084D01*
X67712Y37084D01*
X67712Y39878D01*
X67714Y39936D01*
X67719Y39995D01*
X67728Y40052D01*
X67741Y40110D01*
X67758Y40166D01*
X67777Y40221D01*
X67801Y40274D01*
X67827Y40327D01*
X67857Y40377D01*
X67890Y40425D01*
X67926Y40471D01*
X67964Y40515D01*
X68006Y40557D01*
X68050Y40595D01*
X68096Y40631D01*
X68144Y40664D01*
X68194Y40694D01*
X68247Y40720D01*
X68300Y40744D01*
X68355Y40763D01*
X68411Y40780D01*
X68469Y40793D01*
X68526Y40802D01*
X68585Y40807D01*
X68643Y40809D01*
X69885Y40809D01*
X62064Y42672D02*
X62064Y37084D01*
X62064Y42672D02*
X60512Y42672D01*
X60436Y42670D01*
X60360Y42665D01*
X60284Y42655D01*
X60209Y42642D01*
X60135Y42625D01*
X60061Y42605D01*
X59989Y42581D01*
X59918Y42554D01*
X59848Y42523D01*
X59780Y42489D01*
X59714Y42451D01*
X59650Y42410D01*
X59587Y42367D01*
X59527Y42320D01*
X59470Y42270D01*
X59415Y42217D01*
X59362Y42162D01*
X59312Y42105D01*
X59265Y42045D01*
X59222Y41982D01*
X59181Y41918D01*
X59143Y41852D01*
X59109Y41784D01*
X59078Y41714D01*
X59051Y41643D01*
X59027Y41571D01*
X59007Y41497D01*
X58990Y41423D01*
X58977Y41348D01*
X58967Y41272D01*
X58962Y41196D01*
X58960Y41120D01*
X58960Y38636D01*
X58962Y38560D01*
X58967Y38484D01*
X58977Y38408D01*
X58990Y38333D01*
X59007Y38259D01*
X59027Y38185D01*
X59051Y38113D01*
X59078Y38042D01*
X59109Y37972D01*
X59143Y37904D01*
X59181Y37838D01*
X59222Y37774D01*
X59265Y37711D01*
X59312Y37651D01*
X59362Y37594D01*
X59415Y37539D01*
X59470Y37486D01*
X59527Y37436D01*
X59587Y37389D01*
X59650Y37346D01*
X59714Y37305D01*
X59780Y37267D01*
X59848Y37233D01*
X59918Y37202D01*
X59989Y37175D01*
X60061Y37151D01*
X60135Y37131D01*
X60209Y37114D01*
X60284Y37101D01*
X60360Y37091D01*
X60436Y37086D01*
X60512Y37084D01*
X62064Y37084D01*
X56489Y37084D02*
X56489Y40809D01*
X56644Y42362D02*
X56644Y42672D01*
X56334Y42672D01*
X56334Y42362D01*
X56644Y42362D01*
X51009Y40188D02*
X49457Y40188D01*
X49380Y40186D01*
X49302Y40180D01*
X49226Y40171D01*
X49149Y40157D01*
X49074Y40140D01*
X49000Y40119D01*
X48926Y40094D01*
X48854Y40066D01*
X48784Y40034D01*
X48715Y39999D01*
X48648Y39960D01*
X48583Y39918D01*
X48520Y39873D01*
X48459Y39825D01*
X48401Y39774D01*
X48346Y39720D01*
X48293Y39663D01*
X48244Y39604D01*
X48197Y39542D01*
X48153Y39478D01*
X48113Y39412D01*
X48076Y39344D01*
X48042Y39274D01*
X48012Y39203D01*
X47986Y39130D01*
X47963Y39056D01*
X47944Y38981D01*
X47929Y38906D01*
X47917Y38829D01*
X47909Y38752D01*
X47905Y38675D01*
X47905Y38597D01*
X47909Y38520D01*
X47917Y38443D01*
X47929Y38366D01*
X47944Y38291D01*
X47963Y38216D01*
X47986Y38142D01*
X48012Y38069D01*
X48042Y37998D01*
X48076Y37928D01*
X48113Y37860D01*
X48153Y37794D01*
X48197Y37730D01*
X48244Y37668D01*
X48293Y37609D01*
X48346Y37552D01*
X48401Y37498D01*
X48459Y37447D01*
X48520Y37399D01*
X48583Y37354D01*
X48648Y37312D01*
X48715Y37273D01*
X48784Y37238D01*
X48854Y37206D01*
X48926Y37178D01*
X49000Y37153D01*
X49074Y37132D01*
X49149Y37115D01*
X49226Y37101D01*
X49302Y37092D01*
X49380Y37086D01*
X49457Y37084D01*
X51009Y37084D01*
X51009Y42672D01*
X49457Y42672D01*
X49387Y42670D01*
X49318Y42664D01*
X49249Y42654D01*
X49181Y42641D01*
X49113Y42623D01*
X49047Y42602D01*
X48982Y42577D01*
X48918Y42549D01*
X48856Y42517D01*
X48796Y42482D01*
X48738Y42443D01*
X48683Y42401D01*
X48629Y42356D01*
X48579Y42308D01*
X48531Y42258D01*
X48486Y42204D01*
X48444Y42149D01*
X48405Y42091D01*
X48370Y42031D01*
X48338Y41969D01*
X48310Y41905D01*
X48285Y41840D01*
X48264Y41774D01*
X48246Y41706D01*
X48233Y41638D01*
X48223Y41569D01*
X48217Y41500D01*
X48215Y41430D01*
X48217Y41360D01*
X48223Y41291D01*
X48233Y41222D01*
X48246Y41154D01*
X48264Y41086D01*
X48285Y41020D01*
X48310Y40955D01*
X48338Y40891D01*
X48370Y40829D01*
X48405Y40769D01*
X48444Y40711D01*
X48486Y40656D01*
X48531Y40602D01*
X48579Y40552D01*
X48629Y40504D01*
X48683Y40459D01*
X48738Y40417D01*
X48796Y40378D01*
X48856Y40343D01*
X48918Y40311D01*
X48982Y40283D01*
X49047Y40258D01*
X49113Y40237D01*
X49181Y40219D01*
X49249Y40206D01*
X49318Y40196D01*
X49387Y40190D01*
X49457Y40188D01*
X45844Y39568D02*
X45844Y38326D01*
X45844Y39568D02*
X45842Y39638D01*
X45836Y39707D01*
X45826Y39776D01*
X45813Y39844D01*
X45795Y39912D01*
X45774Y39978D01*
X45749Y40043D01*
X45721Y40107D01*
X45689Y40169D01*
X45654Y40229D01*
X45615Y40287D01*
X45573Y40342D01*
X45528Y40396D01*
X45480Y40446D01*
X45430Y40494D01*
X45376Y40539D01*
X45321Y40581D01*
X45263Y40620D01*
X45203Y40655D01*
X45141Y40687D01*
X45077Y40715D01*
X45012Y40740D01*
X44946Y40761D01*
X44878Y40779D01*
X44810Y40792D01*
X44741Y40802D01*
X44672Y40808D01*
X44602Y40810D01*
X44532Y40808D01*
X44463Y40802D01*
X44394Y40792D01*
X44326Y40779D01*
X44258Y40761D01*
X44192Y40740D01*
X44127Y40715D01*
X44063Y40687D01*
X44001Y40655D01*
X43941Y40620D01*
X43883Y40581D01*
X43828Y40539D01*
X43774Y40494D01*
X43724Y40446D01*
X43676Y40396D01*
X43631Y40342D01*
X43589Y40287D01*
X43550Y40229D01*
X43515Y40169D01*
X43483Y40107D01*
X43455Y40043D01*
X43430Y39978D01*
X43409Y39912D01*
X43391Y39844D01*
X43378Y39776D01*
X43368Y39707D01*
X43362Y39638D01*
X43360Y39568D01*
X43360Y38326D01*
X43362Y38256D01*
X43368Y38187D01*
X43378Y38118D01*
X43391Y38050D01*
X43409Y37982D01*
X43430Y37916D01*
X43455Y37851D01*
X43483Y37787D01*
X43515Y37725D01*
X43550Y37665D01*
X43589Y37607D01*
X43631Y37552D01*
X43676Y37498D01*
X43724Y37448D01*
X43774Y37400D01*
X43828Y37355D01*
X43883Y37313D01*
X43941Y37274D01*
X44001Y37239D01*
X44063Y37207D01*
X44127Y37179D01*
X44192Y37154D01*
X44258Y37133D01*
X44326Y37115D01*
X44394Y37102D01*
X44463Y37092D01*
X44532Y37086D01*
X44602Y37084D01*
X44672Y37086D01*
X44741Y37092D01*
X44810Y37102D01*
X44878Y37115D01*
X44946Y37133D01*
X45012Y37154D01*
X45077Y37179D01*
X45141Y37207D01*
X45203Y37239D01*
X45263Y37274D01*
X45321Y37313D01*
X45376Y37355D01*
X45430Y37400D01*
X45480Y37448D01*
X45528Y37498D01*
X45573Y37552D01*
X45615Y37607D01*
X45654Y37665D01*
X45689Y37725D01*
X45721Y37787D01*
X45749Y37851D01*
X45774Y37916D01*
X45795Y37982D01*
X45813Y38050D01*
X45826Y38118D01*
X45836Y38187D01*
X45842Y38256D01*
X45844Y38326D01*
X40906Y37084D02*
X40906Y40809D01*
X39354Y40809D01*
X39296Y40807D01*
X39237Y40802D01*
X39180Y40793D01*
X39122Y40780D01*
X39066Y40763D01*
X39011Y40744D01*
X38958Y40720D01*
X38905Y40694D01*
X38855Y40664D01*
X38807Y40631D01*
X38761Y40595D01*
X38717Y40557D01*
X38675Y40515D01*
X38637Y40471D01*
X38601Y40425D01*
X38568Y40377D01*
X38538Y40327D01*
X38512Y40274D01*
X38488Y40221D01*
X38469Y40166D01*
X38452Y40110D01*
X38439Y40052D01*
X38430Y39995D01*
X38425Y39936D01*
X38423Y39878D01*
X38422Y39878D02*
X38422Y37084D01*
X34910Y39257D02*
X33513Y39257D01*
X34910Y39258D02*
X34974Y39256D01*
X35039Y39250D01*
X35102Y39241D01*
X35165Y39228D01*
X35227Y39211D01*
X35288Y39190D01*
X35348Y39166D01*
X35406Y39138D01*
X35463Y39107D01*
X35517Y39073D01*
X35570Y39035D01*
X35620Y38994D01*
X35667Y38951D01*
X35712Y38905D01*
X35754Y38856D01*
X35793Y38805D01*
X35829Y38751D01*
X35862Y38696D01*
X35891Y38638D01*
X35917Y38580D01*
X35940Y38519D01*
X35959Y38458D01*
X35974Y38395D01*
X35985Y38331D01*
X35993Y38268D01*
X35997Y38203D01*
X35997Y38139D01*
X35993Y38074D01*
X35985Y38011D01*
X35974Y37947D01*
X35959Y37884D01*
X35940Y37823D01*
X35917Y37762D01*
X35891Y37704D01*
X35862Y37646D01*
X35829Y37591D01*
X35793Y37537D01*
X35754Y37486D01*
X35712Y37437D01*
X35667Y37391D01*
X35620Y37348D01*
X35570Y37307D01*
X35517Y37269D01*
X35463Y37235D01*
X35406Y37204D01*
X35348Y37176D01*
X35288Y37152D01*
X35227Y37131D01*
X35165Y37114D01*
X35102Y37101D01*
X35039Y37092D01*
X34974Y37086D01*
X34910Y37084D01*
X33513Y37084D01*
X33513Y39878D01*
X33514Y39878D02*
X33516Y39936D01*
X33521Y39995D01*
X33530Y40052D01*
X33543Y40110D01*
X33560Y40166D01*
X33579Y40221D01*
X33603Y40274D01*
X33629Y40327D01*
X33659Y40377D01*
X33692Y40425D01*
X33728Y40471D01*
X33766Y40515D01*
X33808Y40557D01*
X33852Y40595D01*
X33898Y40631D01*
X33946Y40664D01*
X33996Y40694D01*
X34049Y40720D01*
X34102Y40744D01*
X34157Y40763D01*
X34213Y40780D01*
X34271Y40793D01*
X34328Y40802D01*
X34387Y40807D01*
X34445Y40809D01*
X35687Y40809D01*
X146431Y13081D02*
X146431Y8509D01*
X146431Y11557D02*
X145161Y11557D01*
X145107Y11555D01*
X145053Y11549D01*
X144999Y11540D01*
X144946Y11526D01*
X144895Y11509D01*
X144844Y11488D01*
X144796Y11464D01*
X144749Y11436D01*
X144704Y11405D01*
X144662Y11371D01*
X144622Y11334D01*
X144585Y11294D01*
X144551Y11252D01*
X144520Y11207D01*
X144492Y11160D01*
X144468Y11112D01*
X144447Y11061D01*
X144430Y11010D01*
X144416Y10957D01*
X144407Y10903D01*
X144401Y10849D01*
X144399Y10795D01*
X144399Y8509D01*
X142713Y11557D02*
X141189Y11557D01*
X142205Y13081D02*
X142205Y9271D01*
X142203Y9217D01*
X142197Y9163D01*
X142188Y9109D01*
X142174Y9056D01*
X142157Y9005D01*
X142136Y8954D01*
X142112Y8906D01*
X142084Y8859D01*
X142053Y8814D01*
X142019Y8772D01*
X141982Y8732D01*
X141942Y8695D01*
X141900Y8661D01*
X141855Y8630D01*
X141808Y8602D01*
X141760Y8578D01*
X141709Y8557D01*
X141658Y8540D01*
X141605Y8526D01*
X141551Y8517D01*
X141497Y8511D01*
X141443Y8509D01*
X141189Y8509D01*
X139818Y11557D02*
X138294Y11557D01*
X139310Y13081D02*
X139310Y9271D01*
X139308Y9217D01*
X139302Y9163D01*
X139293Y9109D01*
X139279Y9056D01*
X139262Y9005D01*
X139241Y8954D01*
X139217Y8906D01*
X139189Y8859D01*
X139158Y8814D01*
X139124Y8772D01*
X139087Y8732D01*
X139047Y8695D01*
X139005Y8661D01*
X138960Y8630D01*
X138913Y8602D01*
X138865Y8578D01*
X138814Y8557D01*
X138763Y8540D01*
X138710Y8526D01*
X138656Y8517D01*
X138602Y8511D01*
X138548Y8509D01*
X138294Y8509D01*
X136346Y6985D02*
X136346Y11557D01*
X135076Y11557D01*
X135022Y11555D01*
X134968Y11549D01*
X134914Y11540D01*
X134861Y11526D01*
X134810Y11509D01*
X134759Y11488D01*
X134711Y11464D01*
X134664Y11436D01*
X134619Y11405D01*
X134577Y11371D01*
X134537Y11334D01*
X134500Y11294D01*
X134466Y11252D01*
X134435Y11207D01*
X134407Y11160D01*
X134383Y11112D01*
X134362Y11061D01*
X134345Y11010D01*
X134331Y10957D01*
X134322Y10903D01*
X134316Y10849D01*
X134314Y10795D01*
X134314Y9271D01*
X134316Y9217D01*
X134322Y9163D01*
X134331Y9109D01*
X134345Y9056D01*
X134362Y9005D01*
X134383Y8954D01*
X134407Y8906D01*
X134435Y8859D01*
X134466Y8814D01*
X134500Y8772D01*
X134537Y8732D01*
X134577Y8695D01*
X134619Y8661D01*
X134664Y8630D01*
X134711Y8602D01*
X134759Y8578D01*
X134810Y8557D01*
X134861Y8540D01*
X134914Y8526D01*
X134968Y8517D01*
X135022Y8511D01*
X135076Y8509D01*
X136346Y8509D01*
X132029Y10287D02*
X130759Y9779D01*
X132030Y10286D02*
X132076Y10307D01*
X132121Y10331D01*
X132163Y10359D01*
X132204Y10389D01*
X132242Y10423D01*
X132277Y10460D01*
X132309Y10499D01*
X132339Y10540D01*
X132364Y10584D01*
X132387Y10630D01*
X132406Y10677D01*
X132421Y10725D01*
X132432Y10775D01*
X132440Y10825D01*
X132444Y10876D01*
X132443Y10926D01*
X132439Y10977D01*
X132431Y11027D01*
X132419Y11077D01*
X132404Y11125D01*
X132384Y11172D01*
X132361Y11217D01*
X132335Y11261D01*
X132306Y11302D01*
X132273Y11341D01*
X132237Y11377D01*
X132199Y11411D01*
X132158Y11441D01*
X132116Y11468D01*
X132071Y11492D01*
X132024Y11512D01*
X131976Y11529D01*
X131927Y11542D01*
X131877Y11551D01*
X131826Y11556D01*
X131776Y11557D01*
X131669Y11553D01*
X131562Y11546D01*
X131455Y11534D01*
X131349Y11519D01*
X131244Y11499D01*
X131139Y11476D01*
X131036Y11449D01*
X130933Y11418D01*
X130832Y11383D01*
X130732Y11345D01*
X130633Y11303D01*
X130759Y9780D02*
X130713Y9759D01*
X130668Y9735D01*
X130626Y9707D01*
X130585Y9677D01*
X130547Y9643D01*
X130512Y9606D01*
X130480Y9567D01*
X130450Y9526D01*
X130425Y9482D01*
X130402Y9436D01*
X130383Y9389D01*
X130368Y9341D01*
X130357Y9291D01*
X130349Y9241D01*
X130345Y9190D01*
X130346Y9140D01*
X130350Y9089D01*
X130358Y9039D01*
X130370Y8989D01*
X130385Y8941D01*
X130405Y8894D01*
X130428Y8849D01*
X130454Y8805D01*
X130483Y8764D01*
X130516Y8725D01*
X130552Y8689D01*
X130590Y8655D01*
X130631Y8625D01*
X130673Y8598D01*
X130718Y8574D01*
X130765Y8554D01*
X130813Y8537D01*
X130862Y8524D01*
X130912Y8515D01*
X130963Y8510D01*
X131013Y8509D01*
X131014Y8508D02*
X131143Y8512D01*
X131273Y8520D01*
X131402Y8532D01*
X131531Y8547D01*
X131659Y8566D01*
X131786Y8590D01*
X131913Y8617D01*
X132039Y8647D01*
X132164Y8682D01*
X132288Y8720D01*
X132411Y8762D01*
X128473Y8890D02*
X128473Y9144D01*
X128219Y9144D01*
X128219Y8890D01*
X128473Y8890D01*
X128473Y10922D02*
X128473Y11176D01*
X128219Y11176D01*
X128219Y10922D01*
X128473Y10922D01*
X126467Y8001D02*
X124435Y13589D01*
X120777Y13589D02*
X122809Y8001D01*
X118264Y8509D02*
X116994Y8509D01*
X118264Y8509D02*
X118318Y8511D01*
X118372Y8517D01*
X118426Y8526D01*
X118479Y8540D01*
X118530Y8557D01*
X118581Y8578D01*
X118629Y8602D01*
X118676Y8630D01*
X118721Y8661D01*
X118763Y8695D01*
X118803Y8732D01*
X118840Y8772D01*
X118874Y8814D01*
X118905Y8859D01*
X118933Y8906D01*
X118957Y8954D01*
X118978Y9005D01*
X118995Y9056D01*
X119009Y9109D01*
X119018Y9163D01*
X119024Y9217D01*
X119026Y9271D01*
X119026Y10795D01*
X119024Y10849D01*
X119018Y10903D01*
X119009Y10957D01*
X118995Y11010D01*
X118978Y11061D01*
X118957Y11112D01*
X118933Y11160D01*
X118905Y11207D01*
X118874Y11252D01*
X118840Y11294D01*
X118803Y11334D01*
X118763Y11371D01*
X118721Y11405D01*
X118676Y11436D01*
X118629Y11464D01*
X118581Y11488D01*
X118530Y11509D01*
X118479Y11526D01*
X118426Y11540D01*
X118372Y11549D01*
X118318Y11555D01*
X118264Y11557D01*
X116994Y11557D01*
X116994Y7747D01*
X116996Y7693D01*
X117002Y7639D01*
X117011Y7585D01*
X117025Y7532D01*
X117042Y7481D01*
X117063Y7430D01*
X117087Y7382D01*
X117115Y7335D01*
X117146Y7290D01*
X117180Y7248D01*
X117217Y7208D01*
X117257Y7171D01*
X117299Y7137D01*
X117344Y7106D01*
X117391Y7078D01*
X117439Y7054D01*
X117490Y7033D01*
X117541Y7016D01*
X117594Y7002D01*
X117648Y6993D01*
X117702Y6987D01*
X117756Y6985D01*
X118772Y6985D01*
X114935Y8509D02*
X114935Y11557D01*
X115062Y12827D02*
X115062Y13081D01*
X114808Y13081D01*
X114808Y12827D01*
X115062Y12827D01*
X113453Y11557D02*
X111929Y11557D01*
X112945Y13081D02*
X112945Y9271D01*
X112943Y9217D01*
X112937Y9163D01*
X112928Y9109D01*
X112914Y9056D01*
X112897Y9005D01*
X112876Y8954D01*
X112852Y8906D01*
X112824Y8859D01*
X112793Y8814D01*
X112759Y8772D01*
X112722Y8732D01*
X112682Y8695D01*
X112640Y8661D01*
X112595Y8630D01*
X112548Y8602D01*
X112500Y8578D01*
X112449Y8557D01*
X112398Y8540D01*
X112345Y8526D01*
X112291Y8517D01*
X112237Y8511D01*
X112183Y8509D01*
X111929Y8509D01*
X110008Y8509D02*
X110008Y13081D01*
X110008Y11557D02*
X108738Y11557D01*
X108684Y11555D01*
X108630Y11549D01*
X108576Y11540D01*
X108523Y11526D01*
X108472Y11509D01*
X108421Y11488D01*
X108373Y11464D01*
X108326Y11436D01*
X108281Y11405D01*
X108239Y11371D01*
X108199Y11334D01*
X108162Y11294D01*
X108128Y11252D01*
X108097Y11207D01*
X108069Y11160D01*
X108045Y11112D01*
X108024Y11061D01*
X108007Y11010D01*
X107993Y10957D01*
X107984Y10903D01*
X107978Y10849D01*
X107976Y10795D01*
X107976Y8509D01*
X105741Y9271D02*
X105741Y11557D01*
X105741Y9271D02*
X105739Y9217D01*
X105733Y9163D01*
X105724Y9109D01*
X105710Y9056D01*
X105693Y9005D01*
X105672Y8954D01*
X105648Y8906D01*
X105620Y8859D01*
X105589Y8814D01*
X105555Y8772D01*
X105518Y8732D01*
X105478Y8695D01*
X105436Y8661D01*
X105391Y8630D01*
X105344Y8602D01*
X105296Y8578D01*
X105245Y8557D01*
X105194Y8540D01*
X105141Y8526D01*
X105087Y8517D01*
X105033Y8511D01*
X104979Y8509D01*
X103709Y8509D01*
X103709Y11557D01*
X101447Y13081D02*
X101447Y8509D01*
X100177Y8509D01*
X100123Y8511D01*
X100069Y8517D01*
X100015Y8526D01*
X99962Y8540D01*
X99911Y8557D01*
X99860Y8578D01*
X99812Y8602D01*
X99765Y8630D01*
X99720Y8661D01*
X99678Y8695D01*
X99638Y8732D01*
X99601Y8772D01*
X99567Y8814D01*
X99536Y8859D01*
X99508Y8906D01*
X99484Y8954D01*
X99463Y9005D01*
X99446Y9056D01*
X99432Y9109D01*
X99423Y9163D01*
X99417Y9217D01*
X99415Y9271D01*
X99415Y10795D01*
X99417Y10849D01*
X99423Y10903D01*
X99432Y10957D01*
X99446Y11010D01*
X99463Y11061D01*
X99484Y11112D01*
X99508Y11160D01*
X99536Y11207D01*
X99567Y11252D01*
X99601Y11294D01*
X99638Y11334D01*
X99678Y11371D01*
X99720Y11405D01*
X99765Y11436D01*
X99812Y11464D01*
X99860Y11488D01*
X99911Y11509D01*
X99962Y11526D01*
X100015Y11540D01*
X100069Y11549D01*
X100123Y11555D01*
X100177Y11557D01*
X101447Y11557D01*
X97689Y8763D02*
X97689Y8509D01*
X97689Y8763D02*
X97435Y8763D01*
X97435Y8509D01*
X97689Y8509D01*
X94915Y8509D02*
X93899Y8509D01*
X94915Y8509D02*
X94969Y8511D01*
X95023Y8517D01*
X95077Y8526D01*
X95130Y8540D01*
X95181Y8557D01*
X95232Y8578D01*
X95280Y8602D01*
X95327Y8630D01*
X95372Y8661D01*
X95414Y8695D01*
X95454Y8732D01*
X95491Y8772D01*
X95525Y8814D01*
X95556Y8859D01*
X95584Y8906D01*
X95608Y8954D01*
X95629Y9005D01*
X95646Y9056D01*
X95660Y9109D01*
X95669Y9163D01*
X95675Y9217D01*
X95677Y9271D01*
X95677Y10795D01*
X95675Y10849D01*
X95669Y10903D01*
X95660Y10957D01*
X95646Y11010D01*
X95629Y11061D01*
X95608Y11112D01*
X95584Y11160D01*
X95556Y11207D01*
X95525Y11252D01*
X95491Y11294D01*
X95454Y11334D01*
X95414Y11371D01*
X95372Y11405D01*
X95327Y11436D01*
X95280Y11464D01*
X95232Y11488D01*
X95181Y11509D01*
X95130Y11526D01*
X95077Y11540D01*
X95023Y11549D01*
X94969Y11555D01*
X94915Y11557D01*
X93899Y11557D01*
X92177Y10541D02*
X92177Y9525D01*
X92177Y10541D02*
X92175Y10604D01*
X92169Y10666D01*
X92160Y10728D01*
X92146Y10789D01*
X92129Y10849D01*
X92108Y10908D01*
X92084Y10966D01*
X92056Y11022D01*
X92025Y11076D01*
X91990Y11128D01*
X91953Y11178D01*
X91912Y11225D01*
X91868Y11270D01*
X91822Y11313D01*
X91773Y11352D01*
X91722Y11388D01*
X91669Y11421D01*
X91614Y11450D01*
X91557Y11477D01*
X91499Y11499D01*
X91439Y11518D01*
X91378Y11533D01*
X91317Y11545D01*
X91255Y11553D01*
X91192Y11557D01*
X91130Y11557D01*
X91067Y11553D01*
X91005Y11545D01*
X90944Y11533D01*
X90883Y11518D01*
X90823Y11499D01*
X90765Y11477D01*
X90708Y11450D01*
X90653Y11421D01*
X90600Y11388D01*
X90549Y11352D01*
X90500Y11313D01*
X90454Y11270D01*
X90410Y11225D01*
X90369Y11178D01*
X90332Y11128D01*
X90297Y11076D01*
X90266Y11022D01*
X90238Y10966D01*
X90214Y10908D01*
X90193Y10849D01*
X90176Y10789D01*
X90162Y10728D01*
X90153Y10666D01*
X90147Y10604D01*
X90145Y10541D01*
X90145Y9525D01*
X90147Y9462D01*
X90153Y9400D01*
X90162Y9338D01*
X90176Y9277D01*
X90193Y9217D01*
X90214Y9158D01*
X90238Y9100D01*
X90266Y9044D01*
X90297Y8990D01*
X90332Y8938D01*
X90369Y8888D01*
X90410Y8841D01*
X90454Y8796D01*
X90500Y8753D01*
X90549Y8714D01*
X90600Y8678D01*
X90653Y8645D01*
X90708Y8616D01*
X90765Y8589D01*
X90823Y8567D01*
X90883Y8548D01*
X90944Y8533D01*
X91005Y8521D01*
X91067Y8513D01*
X91130Y8509D01*
X91192Y8509D01*
X91255Y8513D01*
X91317Y8521D01*
X91378Y8533D01*
X91439Y8548D01*
X91499Y8567D01*
X91557Y8589D01*
X91614Y8616D01*
X91669Y8645D01*
X91722Y8678D01*
X91773Y8714D01*
X91822Y8753D01*
X91868Y8796D01*
X91912Y8841D01*
X91953Y8888D01*
X91990Y8938D01*
X92025Y8990D01*
X92056Y9044D01*
X92084Y9100D01*
X92108Y9158D01*
X92129Y9217D01*
X92146Y9277D01*
X92160Y9338D01*
X92169Y9400D01*
X92175Y9462D01*
X92177Y9525D01*
X87961Y8509D02*
X87961Y11557D01*
X85675Y11557D01*
X85621Y11555D01*
X85567Y11549D01*
X85513Y11540D01*
X85460Y11526D01*
X85409Y11509D01*
X85358Y11488D01*
X85310Y11464D01*
X85263Y11436D01*
X85218Y11405D01*
X85176Y11371D01*
X85136Y11334D01*
X85099Y11294D01*
X85065Y11252D01*
X85034Y11207D01*
X85006Y11160D01*
X84982Y11112D01*
X84961Y11061D01*
X84944Y11010D01*
X84930Y10957D01*
X84921Y10903D01*
X84915Y10849D01*
X84913Y10795D01*
X84913Y8509D01*
X86437Y8509D02*
X86437Y11557D01*
X82881Y8001D02*
X80849Y13589D01*
X79122Y11557D02*
X79122Y8509D01*
X79249Y12827D02*
X79249Y13081D01*
X78995Y13081D01*
X78995Y12827D01*
X79249Y12827D01*
X75237Y13081D02*
X75237Y8509D01*
X76507Y8509D01*
X76561Y8511D01*
X76615Y8517D01*
X76669Y8526D01*
X76722Y8540D01*
X76773Y8557D01*
X76824Y8578D01*
X76872Y8602D01*
X76919Y8630D01*
X76964Y8661D01*
X77006Y8695D01*
X77046Y8732D01*
X77083Y8772D01*
X77117Y8814D01*
X77148Y8859D01*
X77176Y8906D01*
X77200Y8954D01*
X77221Y9005D01*
X77238Y9056D01*
X77252Y9109D01*
X77261Y9163D01*
X77267Y9217D01*
X77269Y9271D01*
X77269Y10795D01*
X77267Y10849D01*
X77261Y10903D01*
X77252Y10957D01*
X77238Y11010D01*
X77221Y11061D01*
X77200Y11112D01*
X77176Y11160D01*
X77148Y11207D01*
X77117Y11252D01*
X77083Y11294D01*
X77046Y11334D01*
X77006Y11371D01*
X76964Y11405D01*
X76919Y11436D01*
X76872Y11464D01*
X76824Y11488D01*
X76773Y11509D01*
X76722Y11526D01*
X76669Y11540D01*
X76615Y11549D01*
X76561Y11555D01*
X76507Y11557D01*
X75237Y11557D01*
X73178Y11557D02*
X73178Y8509D01*
X73305Y12827D02*
X73305Y13081D01*
X73051Y13081D01*
X73051Y12827D01*
X73305Y12827D01*
X71120Y13081D02*
X71120Y8509D01*
X69850Y8509D01*
X69796Y8511D01*
X69742Y8517D01*
X69688Y8526D01*
X69635Y8540D01*
X69584Y8557D01*
X69533Y8578D01*
X69485Y8602D01*
X69438Y8630D01*
X69393Y8661D01*
X69351Y8695D01*
X69311Y8732D01*
X69274Y8772D01*
X69240Y8814D01*
X69209Y8859D01*
X69181Y8906D01*
X69157Y8954D01*
X69136Y9005D01*
X69119Y9056D01*
X69105Y9109D01*
X69096Y9163D01*
X69090Y9217D01*
X69088Y9271D01*
X69088Y10795D01*
X69090Y10849D01*
X69096Y10903D01*
X69105Y10957D01*
X69119Y11010D01*
X69136Y11061D01*
X69157Y11112D01*
X69181Y11160D01*
X69209Y11207D01*
X69240Y11252D01*
X69274Y11294D01*
X69311Y11334D01*
X69351Y11371D01*
X69393Y11405D01*
X69438Y11436D01*
X69485Y11464D01*
X69533Y11488D01*
X69584Y11509D01*
X69635Y11526D01*
X69688Y11540D01*
X69742Y11549D01*
X69796Y11555D01*
X69850Y11557D01*
X71120Y11557D01*
X67184Y10541D02*
X67184Y9525D01*
X67184Y10541D02*
X67182Y10604D01*
X67176Y10666D01*
X67167Y10728D01*
X67153Y10789D01*
X67136Y10849D01*
X67115Y10908D01*
X67091Y10966D01*
X67063Y11022D01*
X67032Y11076D01*
X66997Y11128D01*
X66960Y11178D01*
X66919Y11225D01*
X66875Y11270D01*
X66829Y11313D01*
X66780Y11352D01*
X66729Y11388D01*
X66676Y11421D01*
X66621Y11450D01*
X66564Y11477D01*
X66506Y11499D01*
X66446Y11518D01*
X66385Y11533D01*
X66324Y11545D01*
X66262Y11553D01*
X66199Y11557D01*
X66137Y11557D01*
X66074Y11553D01*
X66012Y11545D01*
X65951Y11533D01*
X65890Y11518D01*
X65830Y11499D01*
X65772Y11477D01*
X65715Y11450D01*
X65660Y11421D01*
X65607Y11388D01*
X65556Y11352D01*
X65507Y11313D01*
X65461Y11270D01*
X65417Y11225D01*
X65376Y11178D01*
X65339Y11128D01*
X65304Y11076D01*
X65273Y11022D01*
X65245Y10966D01*
X65221Y10908D01*
X65200Y10849D01*
X65183Y10789D01*
X65169Y10728D01*
X65160Y10666D01*
X65154Y10604D01*
X65152Y10541D01*
X65152Y9525D01*
X65154Y9462D01*
X65160Y9400D01*
X65169Y9338D01*
X65183Y9277D01*
X65200Y9217D01*
X65221Y9158D01*
X65245Y9100D01*
X65273Y9044D01*
X65304Y8990D01*
X65339Y8938D01*
X65376Y8888D01*
X65417Y8841D01*
X65461Y8796D01*
X65507Y8753D01*
X65556Y8714D01*
X65607Y8678D01*
X65660Y8645D01*
X65715Y8616D01*
X65772Y8589D01*
X65830Y8567D01*
X65890Y8548D01*
X65951Y8533D01*
X66012Y8521D01*
X66074Y8513D01*
X66137Y8509D01*
X66199Y8509D01*
X66262Y8513D01*
X66324Y8521D01*
X66385Y8533D01*
X66446Y8548D01*
X66506Y8567D01*
X66564Y8589D01*
X66621Y8616D01*
X66676Y8645D01*
X66729Y8678D01*
X66780Y8714D01*
X66829Y8753D01*
X66875Y8796D01*
X66919Y8841D01*
X66960Y8888D01*
X66997Y8938D01*
X67032Y8990D01*
X67063Y9044D01*
X67091Y9100D01*
X67115Y9158D01*
X67136Y9217D01*
X67153Y9277D01*
X67167Y9338D01*
X67176Y9400D01*
X67182Y9462D01*
X67184Y9525D01*
X63069Y8509D02*
X63069Y11557D01*
X61799Y11557D01*
X61745Y11555D01*
X61691Y11549D01*
X61637Y11540D01*
X61584Y11526D01*
X61533Y11509D01*
X61482Y11488D01*
X61434Y11464D01*
X61387Y11436D01*
X61342Y11405D01*
X61300Y11371D01*
X61260Y11334D01*
X61223Y11294D01*
X61189Y11252D01*
X61158Y11207D01*
X61130Y11160D01*
X61106Y11112D01*
X61085Y11061D01*
X61068Y11010D01*
X61054Y10957D01*
X61045Y10903D01*
X61039Y10849D01*
X61037Y10795D01*
X61037Y8509D01*
X58092Y10287D02*
X56949Y10287D01*
X58092Y10287D02*
X58150Y10285D01*
X58208Y10279D01*
X58265Y10270D01*
X58322Y10257D01*
X58378Y10240D01*
X58432Y10219D01*
X58485Y10195D01*
X58536Y10168D01*
X58586Y10137D01*
X58633Y10103D01*
X58678Y10066D01*
X58721Y10027D01*
X58760Y9984D01*
X58797Y9939D01*
X58831Y9892D01*
X58862Y9843D01*
X58889Y9791D01*
X58913Y9738D01*
X58934Y9684D01*
X58951Y9628D01*
X58964Y9571D01*
X58973Y9514D01*
X58979Y9456D01*
X58981Y9398D01*
X58979Y9340D01*
X58973Y9282D01*
X58964Y9225D01*
X58951Y9168D01*
X58934Y9112D01*
X58913Y9058D01*
X58889Y9005D01*
X58862Y8954D01*
X58831Y8904D01*
X58797Y8857D01*
X58760Y8812D01*
X58721Y8769D01*
X58678Y8730D01*
X58633Y8693D01*
X58586Y8659D01*
X58537Y8628D01*
X58485Y8601D01*
X58432Y8577D01*
X58378Y8556D01*
X58322Y8539D01*
X58265Y8526D01*
X58208Y8517D01*
X58150Y8511D01*
X58092Y8509D01*
X56949Y8509D01*
X56949Y10795D01*
X56951Y10849D01*
X56957Y10903D01*
X56966Y10957D01*
X56980Y11010D01*
X56997Y11061D01*
X57018Y11112D01*
X57042Y11160D01*
X57070Y11207D01*
X57101Y11252D01*
X57135Y11294D01*
X57172Y11334D01*
X57212Y11371D01*
X57254Y11405D01*
X57299Y11436D01*
X57346Y11464D01*
X57394Y11488D01*
X57445Y11509D01*
X57496Y11526D01*
X57549Y11540D01*
X57603Y11549D01*
X57657Y11555D01*
X57711Y11557D01*
X58727Y11557D01*
X53392Y13081D02*
X53326Y13079D01*
X53259Y13073D01*
X53194Y13064D01*
X53128Y13050D01*
X53064Y13033D01*
X53001Y13012D01*
X52939Y12988D01*
X52879Y12959D01*
X52821Y12928D01*
X52764Y12893D01*
X52709Y12855D01*
X52657Y12814D01*
X52608Y12769D01*
X52561Y12722D01*
X52516Y12673D01*
X52475Y12621D01*
X52437Y12566D01*
X52402Y12510D01*
X52371Y12451D01*
X52342Y12391D01*
X52318Y12329D01*
X52297Y12266D01*
X52280Y12202D01*
X52266Y12136D01*
X52257Y12071D01*
X52251Y12004D01*
X52249Y11938D01*
X53392Y13081D02*
X53466Y13079D01*
X53539Y13074D01*
X53613Y13064D01*
X53685Y13051D01*
X53757Y13035D01*
X53828Y13015D01*
X53898Y12991D01*
X53967Y12964D01*
X54034Y12933D01*
X54100Y12899D01*
X54163Y12862D01*
X54225Y12822D01*
X54285Y12778D01*
X54342Y12732D01*
X54398Y12683D01*
X54450Y12631D01*
X54500Y12576D01*
X54547Y12519D01*
X54591Y12460D01*
X54632Y12399D01*
X54670Y12335D01*
X54705Y12270D01*
X54736Y12203D01*
X54764Y12135D01*
X54789Y12065D01*
X52630Y11049D02*
X52583Y11096D01*
X52539Y11145D01*
X52498Y11197D01*
X52459Y11251D01*
X52424Y11307D01*
X52391Y11365D01*
X52362Y11424D01*
X52336Y11485D01*
X52313Y11547D01*
X52293Y11611D01*
X52278Y11675D01*
X52265Y11740D01*
X52256Y11806D01*
X52251Y11872D01*
X52249Y11938D01*
X52630Y11049D02*
X54789Y8509D01*
X52249Y8509D01*
X50217Y12573D02*
X50217Y13081D01*
X47677Y13081D01*
X48947Y8509D01*
X45848Y8001D02*
X43816Y13589D01*
X41859Y11557D02*
X41859Y6985D01*
X41859Y11557D02*
X40589Y11557D01*
X40535Y11555D01*
X40481Y11549D01*
X40427Y11540D01*
X40374Y11526D01*
X40323Y11509D01*
X40272Y11488D01*
X40224Y11464D01*
X40177Y11436D01*
X40132Y11405D01*
X40090Y11371D01*
X40050Y11334D01*
X40013Y11294D01*
X39979Y11252D01*
X39948Y11207D01*
X39920Y11160D01*
X39896Y11112D01*
X39875Y11061D01*
X39858Y11010D01*
X39844Y10957D01*
X39835Y10903D01*
X39829Y10849D01*
X39827Y10795D01*
X39827Y9271D01*
X39829Y9217D01*
X39835Y9163D01*
X39844Y9109D01*
X39858Y9056D01*
X39875Y9005D01*
X39896Y8954D01*
X39920Y8906D01*
X39948Y8859D01*
X39979Y8814D01*
X40013Y8772D01*
X40050Y8732D01*
X40090Y8695D01*
X40132Y8661D01*
X40177Y8630D01*
X40224Y8602D01*
X40272Y8578D01*
X40323Y8557D01*
X40374Y8540D01*
X40427Y8526D01*
X40481Y8517D01*
X40535Y8511D01*
X40589Y8509D01*
X41859Y8509D01*
X37162Y8509D02*
X35892Y8509D01*
X37162Y8509D02*
X37216Y8511D01*
X37270Y8517D01*
X37324Y8526D01*
X37377Y8540D01*
X37428Y8557D01*
X37479Y8578D01*
X37527Y8602D01*
X37574Y8630D01*
X37619Y8661D01*
X37661Y8695D01*
X37701Y8732D01*
X37738Y8772D01*
X37772Y8814D01*
X37803Y8859D01*
X37831Y8906D01*
X37855Y8954D01*
X37876Y9005D01*
X37893Y9056D01*
X37907Y9109D01*
X37916Y9163D01*
X37922Y9217D01*
X37924Y9271D01*
X37924Y10541D01*
X37922Y10604D01*
X37916Y10666D01*
X37907Y10728D01*
X37893Y10789D01*
X37876Y10849D01*
X37855Y10908D01*
X37831Y10966D01*
X37803Y11022D01*
X37772Y11076D01*
X37737Y11128D01*
X37700Y11178D01*
X37659Y11225D01*
X37615Y11270D01*
X37569Y11313D01*
X37520Y11352D01*
X37469Y11388D01*
X37416Y11421D01*
X37361Y11450D01*
X37304Y11477D01*
X37246Y11499D01*
X37186Y11518D01*
X37125Y11533D01*
X37064Y11545D01*
X37002Y11553D01*
X36939Y11557D01*
X36877Y11557D01*
X36814Y11553D01*
X36752Y11545D01*
X36691Y11533D01*
X36630Y11518D01*
X36570Y11499D01*
X36512Y11477D01*
X36455Y11450D01*
X36400Y11421D01*
X36347Y11388D01*
X36296Y11352D01*
X36247Y11313D01*
X36201Y11270D01*
X36157Y11225D01*
X36116Y11178D01*
X36079Y11128D01*
X36044Y11076D01*
X36013Y11022D01*
X35985Y10966D01*
X35961Y10908D01*
X35940Y10849D01*
X35923Y10789D01*
X35909Y10728D01*
X35900Y10666D01*
X35894Y10604D01*
X35892Y10541D01*
X35892Y10033D01*
X37924Y10033D01*
X31956Y8509D02*
X31956Y13081D01*
X31956Y8509D02*
X33226Y8509D01*
X33280Y8511D01*
X33334Y8517D01*
X33388Y8526D01*
X33441Y8540D01*
X33492Y8557D01*
X33543Y8578D01*
X33591Y8602D01*
X33638Y8630D01*
X33683Y8661D01*
X33725Y8695D01*
X33765Y8732D01*
X33802Y8772D01*
X33836Y8814D01*
X33867Y8859D01*
X33895Y8906D01*
X33919Y8954D01*
X33940Y9005D01*
X33957Y9056D01*
X33971Y9109D01*
X33980Y9163D01*
X33986Y9217D01*
X33988Y9271D01*
X33988Y10795D01*
X33986Y10849D01*
X33980Y10903D01*
X33971Y10957D01*
X33957Y11010D01*
X33940Y11061D01*
X33919Y11112D01*
X33895Y11160D01*
X33867Y11207D01*
X33836Y11252D01*
X33802Y11294D01*
X33765Y11334D01*
X33725Y11371D01*
X33683Y11405D01*
X33638Y11436D01*
X33591Y11464D01*
X33543Y11488D01*
X33492Y11509D01*
X33441Y11526D01*
X33388Y11540D01*
X33334Y11549D01*
X33280Y11555D01*
X33226Y11557D01*
X31956Y11557D01*
X29846Y10541D02*
X29846Y9525D01*
X29846Y10541D02*
X29844Y10604D01*
X29838Y10666D01*
X29829Y10728D01*
X29815Y10789D01*
X29798Y10849D01*
X29777Y10908D01*
X29753Y10966D01*
X29725Y11022D01*
X29694Y11076D01*
X29659Y11128D01*
X29622Y11178D01*
X29581Y11225D01*
X29537Y11270D01*
X29491Y11313D01*
X29442Y11352D01*
X29391Y11388D01*
X29338Y11421D01*
X29283Y11450D01*
X29226Y11477D01*
X29168Y11499D01*
X29108Y11518D01*
X29047Y11533D01*
X28986Y11545D01*
X28924Y11553D01*
X28861Y11557D01*
X28799Y11557D01*
X28736Y11553D01*
X28674Y11545D01*
X28613Y11533D01*
X28552Y11518D01*
X28492Y11499D01*
X28434Y11477D01*
X28377Y11450D01*
X28322Y11421D01*
X28269Y11388D01*
X28218Y11352D01*
X28169Y11313D01*
X28123Y11270D01*
X28079Y11225D01*
X28038Y11178D01*
X28001Y11128D01*
X27966Y11076D01*
X27935Y11022D01*
X27907Y10966D01*
X27883Y10908D01*
X27862Y10849D01*
X27845Y10789D01*
X27831Y10728D01*
X27822Y10666D01*
X27816Y10604D01*
X27814Y10541D01*
X27814Y9525D01*
X27816Y9462D01*
X27822Y9400D01*
X27831Y9338D01*
X27845Y9277D01*
X27862Y9217D01*
X27883Y9158D01*
X27907Y9100D01*
X27935Y9044D01*
X27966Y8990D01*
X28001Y8938D01*
X28038Y8888D01*
X28079Y8841D01*
X28123Y8796D01*
X28169Y8753D01*
X28218Y8714D01*
X28269Y8678D01*
X28322Y8645D01*
X28377Y8616D01*
X28434Y8589D01*
X28492Y8567D01*
X28552Y8548D01*
X28613Y8533D01*
X28674Y8521D01*
X28736Y8513D01*
X28799Y8509D01*
X28861Y8509D01*
X28924Y8513D01*
X28986Y8521D01*
X29047Y8533D01*
X29108Y8548D01*
X29168Y8567D01*
X29226Y8589D01*
X29283Y8616D01*
X29338Y8645D01*
X29391Y8678D01*
X29442Y8714D01*
X29491Y8753D01*
X29537Y8796D01*
X29581Y8841D01*
X29622Y8888D01*
X29659Y8938D01*
X29694Y8990D01*
X29725Y9044D01*
X29753Y9100D01*
X29777Y9158D01*
X29798Y9217D01*
X29815Y9277D01*
X29829Y9338D01*
X29838Y9400D01*
X29844Y9462D01*
X29846Y9525D01*
X25630Y8509D02*
X25630Y11557D01*
X23344Y11557D01*
X23290Y11555D01*
X23236Y11549D01*
X23182Y11540D01*
X23129Y11526D01*
X23078Y11509D01*
X23027Y11488D01*
X22979Y11464D01*
X22932Y11436D01*
X22887Y11405D01*
X22845Y11371D01*
X22805Y11334D01*
X22768Y11294D01*
X22734Y11252D01*
X22703Y11207D01*
X22675Y11160D01*
X22651Y11112D01*
X22630Y11061D01*
X22613Y11010D01*
X22599Y10957D01*
X22590Y10903D01*
X22584Y10849D01*
X22582Y10795D01*
X22582Y8509D01*
X24106Y8509D02*
X24106Y11557D01*
X19636Y8509D02*
X18366Y8509D01*
X19636Y8509D02*
X19690Y8511D01*
X19744Y8517D01*
X19798Y8526D01*
X19851Y8540D01*
X19902Y8557D01*
X19953Y8578D01*
X20001Y8602D01*
X20048Y8630D01*
X20093Y8661D01*
X20135Y8695D01*
X20175Y8732D01*
X20212Y8772D01*
X20246Y8814D01*
X20277Y8859D01*
X20305Y8906D01*
X20329Y8954D01*
X20350Y9005D01*
X20367Y9056D01*
X20381Y9109D01*
X20390Y9163D01*
X20396Y9217D01*
X20398Y9271D01*
X20398Y10541D01*
X20396Y10604D01*
X20390Y10666D01*
X20381Y10728D01*
X20367Y10789D01*
X20350Y10849D01*
X20329Y10908D01*
X20305Y10966D01*
X20277Y11022D01*
X20246Y11076D01*
X20211Y11128D01*
X20174Y11178D01*
X20133Y11225D01*
X20089Y11270D01*
X20043Y11313D01*
X19994Y11352D01*
X19943Y11388D01*
X19890Y11421D01*
X19835Y11450D01*
X19778Y11477D01*
X19720Y11499D01*
X19660Y11518D01*
X19599Y11533D01*
X19538Y11545D01*
X19476Y11553D01*
X19413Y11557D01*
X19351Y11557D01*
X19288Y11553D01*
X19226Y11545D01*
X19165Y11533D01*
X19104Y11518D01*
X19044Y11499D01*
X18986Y11477D01*
X18929Y11450D01*
X18874Y11421D01*
X18821Y11388D01*
X18770Y11352D01*
X18721Y11313D01*
X18675Y11270D01*
X18631Y11225D01*
X18590Y11178D01*
X18553Y11128D01*
X18518Y11076D01*
X18487Y11022D01*
X18459Y10966D01*
X18435Y10908D01*
X18414Y10849D01*
X18397Y10789D01*
X18383Y10728D01*
X18374Y10666D01*
X18368Y10604D01*
X18366Y10541D01*
X18366Y10033D01*
X20398Y10033D01*
X16833Y11557D02*
X15309Y11557D01*
X16325Y13081D02*
X16325Y9271D01*
X16323Y9217D01*
X16317Y9163D01*
X16308Y9109D01*
X16294Y9056D01*
X16277Y9005D01*
X16256Y8954D01*
X16232Y8906D01*
X16204Y8859D01*
X16173Y8814D01*
X16139Y8772D01*
X16102Y8732D01*
X16062Y8695D01*
X16020Y8661D01*
X15975Y8630D01*
X15928Y8602D01*
X15880Y8578D01*
X15829Y8557D01*
X15778Y8540D01*
X15725Y8526D01*
X15671Y8517D01*
X15617Y8511D01*
X15563Y8509D01*
X15309Y8509D01*
X12778Y8509D02*
X11508Y8509D01*
X12778Y8509D02*
X12832Y8511D01*
X12886Y8517D01*
X12940Y8526D01*
X12993Y8540D01*
X13044Y8557D01*
X13095Y8578D01*
X13143Y8602D01*
X13190Y8630D01*
X13235Y8661D01*
X13277Y8695D01*
X13317Y8732D01*
X13354Y8772D01*
X13388Y8814D01*
X13419Y8859D01*
X13447Y8906D01*
X13471Y8954D01*
X13492Y9005D01*
X13509Y9056D01*
X13523Y9109D01*
X13532Y9163D01*
X13538Y9217D01*
X13540Y9271D01*
X13540Y10541D01*
X13538Y10604D01*
X13532Y10666D01*
X13523Y10728D01*
X13509Y10789D01*
X13492Y10849D01*
X13471Y10908D01*
X13447Y10966D01*
X13419Y11022D01*
X13388Y11076D01*
X13353Y11128D01*
X13316Y11178D01*
X13275Y11225D01*
X13231Y11270D01*
X13185Y11313D01*
X13136Y11352D01*
X13085Y11388D01*
X13032Y11421D01*
X12977Y11450D01*
X12920Y11477D01*
X12862Y11499D01*
X12802Y11518D01*
X12741Y11533D01*
X12680Y11545D01*
X12618Y11553D01*
X12555Y11557D01*
X12493Y11557D01*
X12430Y11553D01*
X12368Y11545D01*
X12307Y11533D01*
X12246Y11518D01*
X12186Y11499D01*
X12128Y11477D01*
X12071Y11450D01*
X12016Y11421D01*
X11963Y11388D01*
X11912Y11352D01*
X11863Y11313D01*
X11817Y11270D01*
X11773Y11225D01*
X11732Y11178D01*
X11695Y11128D01*
X11660Y11076D01*
X11629Y11022D01*
X11601Y10966D01*
X11577Y10908D01*
X11556Y10849D01*
X11539Y10789D01*
X11525Y10728D01*
X11516Y10666D01*
X11510Y10604D01*
X11508Y10541D01*
X11508Y10033D01*
X13540Y10033D01*
X9395Y8509D02*
X9395Y11557D01*
X7871Y11557D01*
X7871Y11049D01*
X97592Y27559D02*
X100076Y27559D01*
X100076Y33147D01*
X97592Y33147D01*
X98213Y30663D02*
X100076Y30663D01*
X94290Y27559D02*
X93048Y27559D01*
X94290Y27559D02*
X94360Y27561D01*
X94429Y27567D01*
X94498Y27577D01*
X94566Y27590D01*
X94634Y27608D01*
X94700Y27629D01*
X94765Y27654D01*
X94829Y27682D01*
X94891Y27714D01*
X94951Y27749D01*
X95009Y27788D01*
X95064Y27830D01*
X95118Y27875D01*
X95168Y27923D01*
X95216Y27973D01*
X95261Y28027D01*
X95303Y28082D01*
X95342Y28140D01*
X95377Y28200D01*
X95409Y28262D01*
X95437Y28326D01*
X95462Y28391D01*
X95483Y28457D01*
X95501Y28525D01*
X95514Y28593D01*
X95524Y28662D01*
X95530Y28731D01*
X95532Y28801D01*
X95531Y28801D02*
X95531Y31905D01*
X95532Y31905D02*
X95530Y31975D01*
X95524Y32044D01*
X95514Y32113D01*
X95501Y32181D01*
X95483Y32249D01*
X95462Y32315D01*
X95437Y32380D01*
X95409Y32444D01*
X95377Y32506D01*
X95342Y32566D01*
X95303Y32624D01*
X95261Y32679D01*
X95216Y32733D01*
X95168Y32783D01*
X95118Y32831D01*
X95064Y32876D01*
X95009Y32918D01*
X94951Y32957D01*
X94891Y32992D01*
X94829Y33024D01*
X94765Y33052D01*
X94700Y33077D01*
X94634Y33098D01*
X94566Y33116D01*
X94498Y33129D01*
X94429Y33139D01*
X94360Y33145D01*
X94290Y33147D01*
X93048Y33147D01*
X90749Y27559D02*
X88266Y27559D01*
X90749Y27559D02*
X90749Y33147D01*
X88266Y33147D01*
X88887Y30663D02*
X90749Y30663D01*
X83262Y27559D02*
X81710Y27559D01*
X81633Y27561D01*
X81555Y27567D01*
X81479Y27576D01*
X81402Y27590D01*
X81327Y27607D01*
X81253Y27628D01*
X81179Y27653D01*
X81107Y27681D01*
X81037Y27713D01*
X80968Y27748D01*
X80901Y27787D01*
X80836Y27829D01*
X80773Y27874D01*
X80712Y27922D01*
X80654Y27973D01*
X80599Y28027D01*
X80546Y28084D01*
X80497Y28143D01*
X80450Y28205D01*
X80406Y28269D01*
X80366Y28335D01*
X80329Y28403D01*
X80295Y28473D01*
X80265Y28544D01*
X80239Y28617D01*
X80216Y28691D01*
X80197Y28766D01*
X80182Y28841D01*
X80170Y28918D01*
X80162Y28995D01*
X80158Y29072D01*
X80158Y29150D01*
X80162Y29227D01*
X80170Y29304D01*
X80182Y29381D01*
X80197Y29456D01*
X80216Y29531D01*
X80239Y29605D01*
X80265Y29678D01*
X80295Y29749D01*
X80329Y29819D01*
X80366Y29887D01*
X80406Y29953D01*
X80450Y30017D01*
X80497Y30079D01*
X80546Y30138D01*
X80599Y30195D01*
X80654Y30249D01*
X80712Y30300D01*
X80773Y30348D01*
X80836Y30393D01*
X80901Y30435D01*
X80968Y30474D01*
X81037Y30509D01*
X81107Y30541D01*
X81179Y30569D01*
X81253Y30594D01*
X81327Y30615D01*
X81402Y30632D01*
X81479Y30646D01*
X81555Y30655D01*
X81633Y30661D01*
X81710Y30663D01*
X81400Y33147D02*
X83262Y33147D01*
X81400Y33147D02*
X81330Y33145D01*
X81261Y33139D01*
X81192Y33129D01*
X81124Y33116D01*
X81056Y33098D01*
X80990Y33077D01*
X80925Y33052D01*
X80861Y33024D01*
X80799Y32992D01*
X80739Y32957D01*
X80681Y32918D01*
X80626Y32876D01*
X80572Y32831D01*
X80522Y32783D01*
X80474Y32733D01*
X80429Y32679D01*
X80387Y32624D01*
X80348Y32566D01*
X80313Y32506D01*
X80281Y32444D01*
X80253Y32380D01*
X80228Y32315D01*
X80207Y32249D01*
X80189Y32181D01*
X80176Y32113D01*
X80166Y32044D01*
X80160Y31975D01*
X80158Y31905D01*
X80160Y31835D01*
X80166Y31766D01*
X80176Y31697D01*
X80189Y31629D01*
X80207Y31561D01*
X80228Y31495D01*
X80253Y31430D01*
X80281Y31366D01*
X80313Y31304D01*
X80348Y31244D01*
X80387Y31186D01*
X80429Y31131D01*
X80474Y31077D01*
X80522Y31027D01*
X80572Y30979D01*
X80626Y30934D01*
X80681Y30892D01*
X80739Y30853D01*
X80799Y30818D01*
X80861Y30786D01*
X80925Y30758D01*
X80990Y30733D01*
X81056Y30712D01*
X81124Y30694D01*
X81192Y30681D01*
X81261Y30671D01*
X81330Y30665D01*
X81400Y30663D01*
X82641Y30663D01*
X77776Y29111D02*
X77774Y29188D01*
X77768Y29266D01*
X77759Y29342D01*
X77745Y29419D01*
X77728Y29494D01*
X77707Y29568D01*
X77682Y29642D01*
X77654Y29714D01*
X77622Y29784D01*
X77587Y29853D01*
X77548Y29920D01*
X77506Y29985D01*
X77461Y30048D01*
X77413Y30109D01*
X77362Y30167D01*
X77308Y30222D01*
X77251Y30275D01*
X77192Y30324D01*
X77130Y30371D01*
X77066Y30415D01*
X77000Y30455D01*
X76932Y30492D01*
X76862Y30526D01*
X76791Y30556D01*
X76718Y30582D01*
X76644Y30605D01*
X76569Y30624D01*
X76494Y30639D01*
X76417Y30651D01*
X76340Y30659D01*
X76263Y30663D01*
X76185Y30663D01*
X76108Y30659D01*
X76031Y30651D01*
X75954Y30639D01*
X75879Y30624D01*
X75804Y30605D01*
X75730Y30582D01*
X75657Y30556D01*
X75586Y30526D01*
X75516Y30492D01*
X75448Y30455D01*
X75382Y30415D01*
X75318Y30371D01*
X75256Y30324D01*
X75197Y30275D01*
X75140Y30222D01*
X75086Y30167D01*
X75035Y30109D01*
X74987Y30048D01*
X74942Y29985D01*
X74900Y29920D01*
X74861Y29853D01*
X74826Y29784D01*
X74794Y29714D01*
X74766Y29642D01*
X74741Y29568D01*
X74720Y29494D01*
X74703Y29419D01*
X74689Y29342D01*
X74680Y29266D01*
X74674Y29188D01*
X74672Y29111D01*
X74674Y29034D01*
X74680Y28956D01*
X74689Y28880D01*
X74703Y28803D01*
X74720Y28728D01*
X74741Y28654D01*
X74766Y28580D01*
X74794Y28508D01*
X74826Y28438D01*
X74861Y28369D01*
X74900Y28302D01*
X74942Y28237D01*
X74987Y28174D01*
X75035Y28113D01*
X75086Y28055D01*
X75140Y28000D01*
X75197Y27947D01*
X75256Y27898D01*
X75318Y27851D01*
X75382Y27807D01*
X75448Y27767D01*
X75516Y27730D01*
X75586Y27696D01*
X75657Y27666D01*
X75730Y27640D01*
X75804Y27617D01*
X75879Y27598D01*
X75954Y27583D01*
X76031Y27571D01*
X76108Y27563D01*
X76185Y27559D01*
X76263Y27559D01*
X76340Y27563D01*
X76417Y27571D01*
X76494Y27583D01*
X76569Y27598D01*
X76644Y27617D01*
X76718Y27640D01*
X76791Y27666D01*
X76862Y27696D01*
X76932Y27730D01*
X77000Y27767D01*
X77066Y27807D01*
X77130Y27851D01*
X77192Y27898D01*
X77251Y27947D01*
X77308Y28000D01*
X77362Y28055D01*
X77413Y28113D01*
X77461Y28174D01*
X77506Y28237D01*
X77548Y28302D01*
X77587Y28369D01*
X77622Y28438D01*
X77654Y28508D01*
X77682Y28580D01*
X77707Y28654D01*
X77728Y28728D01*
X77745Y28803D01*
X77759Y28880D01*
X77768Y28956D01*
X77774Y29034D01*
X77776Y29111D01*
X77466Y31905D02*
X77464Y31975D01*
X77458Y32044D01*
X77448Y32113D01*
X77435Y32181D01*
X77417Y32249D01*
X77396Y32315D01*
X77371Y32380D01*
X77343Y32444D01*
X77311Y32506D01*
X77276Y32566D01*
X77237Y32624D01*
X77195Y32679D01*
X77150Y32733D01*
X77102Y32783D01*
X77052Y32831D01*
X76998Y32876D01*
X76943Y32918D01*
X76885Y32957D01*
X76825Y32992D01*
X76763Y33024D01*
X76699Y33052D01*
X76634Y33077D01*
X76568Y33098D01*
X76500Y33116D01*
X76432Y33129D01*
X76363Y33139D01*
X76294Y33145D01*
X76224Y33147D01*
X76154Y33145D01*
X76085Y33139D01*
X76016Y33129D01*
X75948Y33116D01*
X75880Y33098D01*
X75814Y33077D01*
X75749Y33052D01*
X75685Y33024D01*
X75623Y32992D01*
X75563Y32957D01*
X75505Y32918D01*
X75450Y32876D01*
X75396Y32831D01*
X75346Y32783D01*
X75298Y32733D01*
X75253Y32679D01*
X75211Y32624D01*
X75172Y32566D01*
X75137Y32506D01*
X75105Y32444D01*
X75077Y32380D01*
X75052Y32315D01*
X75031Y32249D01*
X75013Y32181D01*
X75000Y32113D01*
X74990Y32044D01*
X74984Y31975D01*
X74982Y31905D01*
X74984Y31835D01*
X74990Y31766D01*
X75000Y31697D01*
X75013Y31629D01*
X75031Y31561D01*
X75052Y31495D01*
X75077Y31430D01*
X75105Y31366D01*
X75137Y31304D01*
X75172Y31244D01*
X75211Y31186D01*
X75253Y31131D01*
X75298Y31077D01*
X75346Y31027D01*
X75396Y30979D01*
X75450Y30934D01*
X75505Y30892D01*
X75563Y30853D01*
X75623Y30818D01*
X75685Y30786D01*
X75749Y30758D01*
X75814Y30733D01*
X75880Y30712D01*
X75948Y30694D01*
X76016Y30681D01*
X76085Y30671D01*
X76154Y30665D01*
X76224Y30663D01*
X76294Y30665D01*
X76363Y30671D01*
X76432Y30681D01*
X76500Y30694D01*
X76568Y30712D01*
X76634Y30733D01*
X76699Y30758D01*
X76763Y30786D01*
X76825Y30818D01*
X76885Y30853D01*
X76943Y30892D01*
X76998Y30934D01*
X77052Y30979D01*
X77102Y31027D01*
X77150Y31077D01*
X77195Y31131D01*
X77237Y31186D01*
X77276Y31244D01*
X77311Y31304D01*
X77343Y31366D01*
X77371Y31430D01*
X77396Y31495D01*
X77417Y31561D01*
X77435Y31629D01*
X77448Y31697D01*
X77458Y31766D01*
X77464Y31835D01*
X77466Y31905D01*
X72289Y29111D02*
X72287Y29188D01*
X72281Y29266D01*
X72272Y29342D01*
X72258Y29419D01*
X72241Y29494D01*
X72220Y29568D01*
X72195Y29642D01*
X72167Y29714D01*
X72135Y29784D01*
X72100Y29853D01*
X72061Y29920D01*
X72019Y29985D01*
X71974Y30048D01*
X71926Y30109D01*
X71875Y30167D01*
X71821Y30222D01*
X71764Y30275D01*
X71705Y30324D01*
X71643Y30371D01*
X71579Y30415D01*
X71513Y30455D01*
X71445Y30492D01*
X71375Y30526D01*
X71304Y30556D01*
X71231Y30582D01*
X71157Y30605D01*
X71082Y30624D01*
X71007Y30639D01*
X70930Y30651D01*
X70853Y30659D01*
X70776Y30663D01*
X70698Y30663D01*
X70621Y30659D01*
X70544Y30651D01*
X70467Y30639D01*
X70392Y30624D01*
X70317Y30605D01*
X70243Y30582D01*
X70170Y30556D01*
X70099Y30526D01*
X70029Y30492D01*
X69961Y30455D01*
X69895Y30415D01*
X69831Y30371D01*
X69769Y30324D01*
X69710Y30275D01*
X69653Y30222D01*
X69599Y30167D01*
X69548Y30109D01*
X69500Y30048D01*
X69455Y29985D01*
X69413Y29920D01*
X69374Y29853D01*
X69339Y29784D01*
X69307Y29714D01*
X69279Y29642D01*
X69254Y29568D01*
X69233Y29494D01*
X69216Y29419D01*
X69202Y29342D01*
X69193Y29266D01*
X69187Y29188D01*
X69185Y29111D01*
X69187Y29034D01*
X69193Y28956D01*
X69202Y28880D01*
X69216Y28803D01*
X69233Y28728D01*
X69254Y28654D01*
X69279Y28580D01*
X69307Y28508D01*
X69339Y28438D01*
X69374Y28369D01*
X69413Y28302D01*
X69455Y28237D01*
X69500Y28174D01*
X69548Y28113D01*
X69599Y28055D01*
X69653Y28000D01*
X69710Y27947D01*
X69769Y27898D01*
X69831Y27851D01*
X69895Y27807D01*
X69961Y27767D01*
X70029Y27730D01*
X70099Y27696D01*
X70170Y27666D01*
X70243Y27640D01*
X70317Y27617D01*
X70392Y27598D01*
X70467Y27583D01*
X70544Y27571D01*
X70621Y27563D01*
X70698Y27559D01*
X70776Y27559D01*
X70853Y27563D01*
X70930Y27571D01*
X71007Y27583D01*
X71082Y27598D01*
X71157Y27617D01*
X71231Y27640D01*
X71304Y27666D01*
X71375Y27696D01*
X71445Y27730D01*
X71513Y27767D01*
X71579Y27807D01*
X71643Y27851D01*
X71705Y27898D01*
X71764Y27947D01*
X71821Y28000D01*
X71875Y28055D01*
X71926Y28113D01*
X71974Y28174D01*
X72019Y28237D01*
X72061Y28302D01*
X72100Y28369D01*
X72135Y28438D01*
X72167Y28508D01*
X72195Y28580D01*
X72220Y28654D01*
X72241Y28728D01*
X72258Y28803D01*
X72272Y28880D01*
X72281Y28956D01*
X72287Y29034D01*
X72289Y29111D01*
X71979Y31905D02*
X71977Y31975D01*
X71971Y32044D01*
X71961Y32113D01*
X71948Y32181D01*
X71930Y32249D01*
X71909Y32315D01*
X71884Y32380D01*
X71856Y32444D01*
X71824Y32506D01*
X71789Y32566D01*
X71750Y32624D01*
X71708Y32679D01*
X71663Y32733D01*
X71615Y32783D01*
X71565Y32831D01*
X71511Y32876D01*
X71456Y32918D01*
X71398Y32957D01*
X71338Y32992D01*
X71276Y33024D01*
X71212Y33052D01*
X71147Y33077D01*
X71081Y33098D01*
X71013Y33116D01*
X70945Y33129D01*
X70876Y33139D01*
X70807Y33145D01*
X70737Y33147D01*
X70667Y33145D01*
X70598Y33139D01*
X70529Y33129D01*
X70461Y33116D01*
X70393Y33098D01*
X70327Y33077D01*
X70262Y33052D01*
X70198Y33024D01*
X70136Y32992D01*
X70076Y32957D01*
X70018Y32918D01*
X69963Y32876D01*
X69909Y32831D01*
X69859Y32783D01*
X69811Y32733D01*
X69766Y32679D01*
X69724Y32624D01*
X69685Y32566D01*
X69650Y32506D01*
X69618Y32444D01*
X69590Y32380D01*
X69565Y32315D01*
X69544Y32249D01*
X69526Y32181D01*
X69513Y32113D01*
X69503Y32044D01*
X69497Y31975D01*
X69495Y31905D01*
X69497Y31835D01*
X69503Y31766D01*
X69513Y31697D01*
X69526Y31629D01*
X69544Y31561D01*
X69565Y31495D01*
X69590Y31430D01*
X69618Y31366D01*
X69650Y31304D01*
X69685Y31244D01*
X69724Y31186D01*
X69766Y31131D01*
X69811Y31077D01*
X69859Y31027D01*
X69909Y30979D01*
X69963Y30934D01*
X70018Y30892D01*
X70076Y30853D01*
X70136Y30818D01*
X70198Y30786D01*
X70262Y30758D01*
X70327Y30733D01*
X70393Y30712D01*
X70461Y30694D01*
X70529Y30681D01*
X70598Y30671D01*
X70667Y30665D01*
X70737Y30663D01*
X70807Y30665D01*
X70876Y30671D01*
X70945Y30681D01*
X71013Y30694D01*
X71081Y30712D01*
X71147Y30733D01*
X71212Y30758D01*
X71276Y30786D01*
X71338Y30818D01*
X71398Y30853D01*
X71456Y30892D01*
X71511Y30934D01*
X71565Y30979D01*
X71615Y31027D01*
X71663Y31077D01*
X71708Y31131D01*
X71750Y31186D01*
X71789Y31244D01*
X71824Y31304D01*
X71856Y31366D01*
X71884Y31430D01*
X71909Y31495D01*
X71930Y31561D01*
X71948Y31629D01*
X71961Y31697D01*
X71971Y31766D01*
X71977Y31835D01*
X71979Y31905D01*
X63611Y33147D02*
X63611Y27559D01*
X63611Y33147D02*
X62059Y33147D01*
X61982Y33145D01*
X61904Y33139D01*
X61828Y33130D01*
X61751Y33116D01*
X61676Y33099D01*
X61602Y33078D01*
X61528Y33053D01*
X61456Y33025D01*
X61386Y32993D01*
X61317Y32958D01*
X61250Y32919D01*
X61185Y32877D01*
X61122Y32832D01*
X61061Y32784D01*
X61003Y32733D01*
X60948Y32679D01*
X60895Y32622D01*
X60846Y32563D01*
X60799Y32501D01*
X60755Y32437D01*
X60715Y32371D01*
X60678Y32303D01*
X60644Y32233D01*
X60614Y32162D01*
X60588Y32089D01*
X60565Y32015D01*
X60546Y31940D01*
X60531Y31865D01*
X60519Y31788D01*
X60511Y31711D01*
X60507Y31634D01*
X60507Y31556D01*
X60511Y31479D01*
X60519Y31402D01*
X60531Y31325D01*
X60546Y31250D01*
X60565Y31175D01*
X60588Y31101D01*
X60614Y31028D01*
X60644Y30957D01*
X60678Y30887D01*
X60715Y30819D01*
X60755Y30753D01*
X60799Y30689D01*
X60846Y30627D01*
X60895Y30568D01*
X60948Y30511D01*
X61003Y30457D01*
X61061Y30406D01*
X61122Y30358D01*
X61185Y30313D01*
X61250Y30271D01*
X61317Y30232D01*
X61386Y30197D01*
X61456Y30165D01*
X61528Y30137D01*
X61602Y30112D01*
X61676Y30091D01*
X61751Y30074D01*
X61828Y30060D01*
X61904Y30051D01*
X61982Y30045D01*
X62059Y30043D01*
X63611Y30043D01*
X57515Y27559D02*
X55963Y27559D01*
X57515Y27559D02*
X57573Y27561D01*
X57632Y27566D01*
X57689Y27575D01*
X57747Y27588D01*
X57803Y27605D01*
X57858Y27624D01*
X57911Y27648D01*
X57964Y27674D01*
X58014Y27704D01*
X58062Y27737D01*
X58108Y27773D01*
X58152Y27811D01*
X58194Y27853D01*
X58232Y27897D01*
X58268Y27943D01*
X58301Y27991D01*
X58331Y28041D01*
X58357Y28094D01*
X58381Y28147D01*
X58400Y28202D01*
X58417Y28258D01*
X58430Y28316D01*
X58439Y28373D01*
X58444Y28432D01*
X58446Y28490D01*
X58446Y30043D01*
X58444Y30113D01*
X58438Y30182D01*
X58428Y30251D01*
X58415Y30319D01*
X58397Y30387D01*
X58376Y30453D01*
X58351Y30518D01*
X58323Y30582D01*
X58291Y30644D01*
X58256Y30704D01*
X58217Y30762D01*
X58175Y30817D01*
X58130Y30871D01*
X58082Y30921D01*
X58032Y30969D01*
X57978Y31014D01*
X57923Y31056D01*
X57865Y31095D01*
X57805Y31130D01*
X57743Y31162D01*
X57679Y31190D01*
X57614Y31215D01*
X57548Y31236D01*
X57480Y31254D01*
X57412Y31267D01*
X57343Y31277D01*
X57274Y31283D01*
X57204Y31285D01*
X57134Y31283D01*
X57065Y31277D01*
X56996Y31267D01*
X56928Y31254D01*
X56860Y31236D01*
X56794Y31215D01*
X56729Y31190D01*
X56665Y31162D01*
X56603Y31130D01*
X56543Y31095D01*
X56485Y31056D01*
X56430Y31014D01*
X56376Y30969D01*
X56326Y30921D01*
X56278Y30871D01*
X56233Y30817D01*
X56191Y30762D01*
X56152Y30704D01*
X56117Y30644D01*
X56085Y30582D01*
X56057Y30518D01*
X56032Y30453D01*
X56011Y30387D01*
X55993Y30319D01*
X55980Y30251D01*
X55970Y30182D01*
X55964Y30113D01*
X55962Y30043D01*
X55963Y30043D02*
X55963Y29422D01*
X58446Y29422D01*
X51237Y27559D02*
X51237Y33147D01*
X51237Y27559D02*
X52789Y27559D01*
X52847Y27561D01*
X52906Y27566D01*
X52963Y27575D01*
X53021Y27588D01*
X53077Y27605D01*
X53132Y27624D01*
X53185Y27648D01*
X53238Y27674D01*
X53288Y27704D01*
X53336Y27737D01*
X53382Y27773D01*
X53426Y27811D01*
X53468Y27853D01*
X53506Y27897D01*
X53542Y27943D01*
X53575Y27991D01*
X53605Y28041D01*
X53631Y28094D01*
X53655Y28147D01*
X53674Y28202D01*
X53691Y28258D01*
X53704Y28316D01*
X53713Y28373D01*
X53718Y28432D01*
X53720Y28490D01*
X53720Y30353D01*
X53718Y30411D01*
X53713Y30470D01*
X53704Y30527D01*
X53691Y30585D01*
X53674Y30641D01*
X53655Y30696D01*
X53631Y30749D01*
X53605Y30802D01*
X53575Y30852D01*
X53542Y30900D01*
X53506Y30946D01*
X53468Y30990D01*
X53426Y31032D01*
X53382Y31070D01*
X53336Y31106D01*
X53288Y31139D01*
X53238Y31169D01*
X53185Y31195D01*
X53132Y31219D01*
X53077Y31238D01*
X53021Y31255D01*
X52963Y31268D01*
X52906Y31277D01*
X52847Y31282D01*
X52789Y31284D01*
X51237Y31284D01*
X48754Y30043D02*
X48754Y28801D01*
X48754Y30043D02*
X48752Y30113D01*
X48746Y30182D01*
X48736Y30251D01*
X48723Y30319D01*
X48705Y30387D01*
X48684Y30453D01*
X48659Y30518D01*
X48631Y30582D01*
X48599Y30644D01*
X48564Y30704D01*
X48525Y30762D01*
X48483Y30817D01*
X48438Y30871D01*
X48390Y30921D01*
X48340Y30969D01*
X48286Y31014D01*
X48231Y31056D01*
X48173Y31095D01*
X48113Y31130D01*
X48051Y31162D01*
X47987Y31190D01*
X47922Y31215D01*
X47856Y31236D01*
X47788Y31254D01*
X47720Y31267D01*
X47651Y31277D01*
X47582Y31283D01*
X47512Y31285D01*
X47442Y31283D01*
X47373Y31277D01*
X47304Y31267D01*
X47236Y31254D01*
X47168Y31236D01*
X47102Y31215D01*
X47037Y31190D01*
X46973Y31162D01*
X46911Y31130D01*
X46851Y31095D01*
X46793Y31056D01*
X46738Y31014D01*
X46684Y30969D01*
X46634Y30921D01*
X46586Y30871D01*
X46541Y30817D01*
X46499Y30762D01*
X46460Y30704D01*
X46425Y30644D01*
X46393Y30582D01*
X46365Y30518D01*
X46340Y30453D01*
X46319Y30387D01*
X46301Y30319D01*
X46288Y30251D01*
X46278Y30182D01*
X46272Y30113D01*
X46270Y30043D01*
X46270Y28801D01*
X46272Y28731D01*
X46278Y28662D01*
X46288Y28593D01*
X46301Y28525D01*
X46319Y28457D01*
X46340Y28391D01*
X46365Y28326D01*
X46393Y28262D01*
X46425Y28200D01*
X46460Y28140D01*
X46499Y28082D01*
X46541Y28027D01*
X46586Y27973D01*
X46634Y27923D01*
X46684Y27875D01*
X46738Y27830D01*
X46793Y27788D01*
X46851Y27749D01*
X46911Y27714D01*
X46973Y27682D01*
X47037Y27654D01*
X47102Y27629D01*
X47168Y27608D01*
X47236Y27590D01*
X47304Y27577D01*
X47373Y27567D01*
X47442Y27561D01*
X47512Y27559D01*
X47582Y27561D01*
X47651Y27567D01*
X47720Y27577D01*
X47788Y27590D01*
X47856Y27608D01*
X47922Y27629D01*
X47987Y27654D01*
X48051Y27682D01*
X48113Y27714D01*
X48173Y27749D01*
X48231Y27788D01*
X48286Y27830D01*
X48340Y27875D01*
X48390Y27923D01*
X48438Y27973D01*
X48483Y28027D01*
X48525Y28082D01*
X48564Y28140D01*
X48599Y28200D01*
X48631Y28262D01*
X48659Y28326D01*
X48684Y28391D01*
X48705Y28457D01*
X48723Y28525D01*
X48736Y28593D01*
X48746Y28662D01*
X48752Y28731D01*
X48754Y28801D01*
X43705Y27559D02*
X43705Y31284D01*
X40911Y31284D01*
X40853Y31282D01*
X40794Y31277D01*
X40737Y31268D01*
X40679Y31255D01*
X40623Y31238D01*
X40568Y31219D01*
X40515Y31195D01*
X40462Y31169D01*
X40412Y31139D01*
X40364Y31106D01*
X40318Y31070D01*
X40274Y31032D01*
X40232Y30990D01*
X40194Y30946D01*
X40158Y30900D01*
X40125Y30852D01*
X40095Y30802D01*
X40069Y30749D01*
X40045Y30696D01*
X40026Y30641D01*
X40009Y30585D01*
X39996Y30527D01*
X39987Y30470D01*
X39982Y30411D01*
X39980Y30353D01*
X39980Y27559D01*
X41843Y27559D02*
X41843Y31284D01*
X36484Y27559D02*
X34932Y27559D01*
X36484Y27559D02*
X36542Y27561D01*
X36601Y27566D01*
X36658Y27575D01*
X36716Y27588D01*
X36772Y27605D01*
X36827Y27624D01*
X36880Y27648D01*
X36933Y27674D01*
X36983Y27704D01*
X37031Y27737D01*
X37077Y27773D01*
X37121Y27811D01*
X37163Y27853D01*
X37201Y27897D01*
X37237Y27943D01*
X37270Y27991D01*
X37300Y28041D01*
X37326Y28094D01*
X37350Y28147D01*
X37369Y28202D01*
X37386Y28258D01*
X37399Y28316D01*
X37408Y28373D01*
X37413Y28432D01*
X37415Y28490D01*
X37415Y30043D01*
X37413Y30113D01*
X37407Y30182D01*
X37397Y30251D01*
X37384Y30319D01*
X37366Y30387D01*
X37345Y30453D01*
X37320Y30518D01*
X37292Y30582D01*
X37260Y30644D01*
X37225Y30704D01*
X37186Y30762D01*
X37144Y30817D01*
X37099Y30871D01*
X37051Y30921D01*
X37001Y30969D01*
X36947Y31014D01*
X36892Y31056D01*
X36834Y31095D01*
X36774Y31130D01*
X36712Y31162D01*
X36648Y31190D01*
X36583Y31215D01*
X36517Y31236D01*
X36449Y31254D01*
X36381Y31267D01*
X36312Y31277D01*
X36243Y31283D01*
X36173Y31285D01*
X36103Y31283D01*
X36034Y31277D01*
X35965Y31267D01*
X35897Y31254D01*
X35829Y31236D01*
X35763Y31215D01*
X35698Y31190D01*
X35634Y31162D01*
X35572Y31130D01*
X35512Y31095D01*
X35454Y31056D01*
X35399Y31014D01*
X35345Y30969D01*
X35295Y30921D01*
X35247Y30871D01*
X35202Y30817D01*
X35160Y30762D01*
X35121Y30704D01*
X35086Y30644D01*
X35054Y30582D01*
X35026Y30518D01*
X35001Y30453D01*
X34980Y30387D01*
X34962Y30319D01*
X34949Y30251D01*
X34939Y30182D01*
X34933Y30113D01*
X34931Y30043D01*
X34932Y30043D02*
X34932Y29422D01*
X37415Y29422D01*
X33127Y31284D02*
X31264Y31284D01*
X32506Y33147D02*
X32506Y28490D01*
X32505Y28490D02*
X32503Y28432D01*
X32498Y28373D01*
X32489Y28316D01*
X32476Y28258D01*
X32459Y28202D01*
X32440Y28147D01*
X32416Y28094D01*
X32390Y28041D01*
X32360Y27991D01*
X32327Y27943D01*
X32291Y27897D01*
X32253Y27853D01*
X32211Y27811D01*
X32167Y27773D01*
X32121Y27737D01*
X32073Y27704D01*
X32023Y27674D01*
X31970Y27648D01*
X31917Y27624D01*
X31862Y27605D01*
X31806Y27588D01*
X31748Y27575D01*
X31691Y27566D01*
X31632Y27561D01*
X31574Y27559D01*
X31264Y27559D01*
X28254Y27559D02*
X26702Y27559D01*
X28254Y27559D02*
X28312Y27561D01*
X28371Y27566D01*
X28428Y27575D01*
X28486Y27588D01*
X28542Y27605D01*
X28597Y27624D01*
X28650Y27648D01*
X28703Y27674D01*
X28753Y27704D01*
X28801Y27737D01*
X28847Y27773D01*
X28891Y27811D01*
X28933Y27853D01*
X28971Y27897D01*
X29007Y27943D01*
X29040Y27991D01*
X29070Y28041D01*
X29096Y28094D01*
X29120Y28147D01*
X29139Y28202D01*
X29156Y28258D01*
X29169Y28316D01*
X29178Y28373D01*
X29183Y28432D01*
X29185Y28490D01*
X29186Y28490D02*
X29186Y30043D01*
X29184Y30113D01*
X29178Y30182D01*
X29168Y30251D01*
X29155Y30319D01*
X29137Y30387D01*
X29116Y30453D01*
X29091Y30518D01*
X29063Y30582D01*
X29031Y30644D01*
X28996Y30704D01*
X28957Y30762D01*
X28915Y30817D01*
X28870Y30871D01*
X28822Y30921D01*
X28772Y30969D01*
X28718Y31014D01*
X28663Y31056D01*
X28605Y31095D01*
X28545Y31130D01*
X28483Y31162D01*
X28419Y31190D01*
X28354Y31215D01*
X28288Y31236D01*
X28220Y31254D01*
X28152Y31267D01*
X28083Y31277D01*
X28014Y31283D01*
X27944Y31285D01*
X27874Y31283D01*
X27805Y31277D01*
X27736Y31267D01*
X27668Y31254D01*
X27600Y31236D01*
X27534Y31215D01*
X27469Y31190D01*
X27405Y31162D01*
X27343Y31130D01*
X27283Y31095D01*
X27225Y31056D01*
X27170Y31014D01*
X27116Y30969D01*
X27066Y30921D01*
X27018Y30871D01*
X26973Y30817D01*
X26931Y30762D01*
X26892Y30704D01*
X26857Y30644D01*
X26825Y30582D01*
X26797Y30518D01*
X26772Y30453D01*
X26751Y30387D01*
X26733Y30319D01*
X26720Y30251D01*
X26710Y30182D01*
X26704Y30113D01*
X26702Y30043D01*
X26702Y29422D01*
X29186Y29422D01*
X24215Y27559D02*
X24215Y31284D01*
X22353Y31284D01*
X22353Y30663D01*
X100711Y24257D02*
X100711Y18669D01*
X100711Y24257D02*
X98227Y24257D01*
X98227Y21773D02*
X100711Y21773D01*
X95148Y20842D02*
X93751Y20842D01*
X95148Y20843D02*
X95212Y20841D01*
X95277Y20835D01*
X95340Y20826D01*
X95403Y20813D01*
X95465Y20796D01*
X95526Y20775D01*
X95586Y20751D01*
X95644Y20723D01*
X95701Y20692D01*
X95755Y20658D01*
X95808Y20620D01*
X95858Y20579D01*
X95905Y20536D01*
X95950Y20490D01*
X95992Y20441D01*
X96031Y20390D01*
X96067Y20336D01*
X96100Y20281D01*
X96129Y20223D01*
X96155Y20165D01*
X96178Y20104D01*
X96197Y20043D01*
X96212Y19980D01*
X96223Y19916D01*
X96231Y19853D01*
X96235Y19788D01*
X96235Y19724D01*
X96231Y19659D01*
X96223Y19596D01*
X96212Y19532D01*
X96197Y19469D01*
X96178Y19408D01*
X96155Y19347D01*
X96129Y19289D01*
X96100Y19231D01*
X96067Y19176D01*
X96031Y19122D01*
X95992Y19071D01*
X95950Y19022D01*
X95905Y18976D01*
X95858Y18933D01*
X95808Y18892D01*
X95755Y18854D01*
X95701Y18820D01*
X95644Y18789D01*
X95586Y18761D01*
X95526Y18737D01*
X95465Y18716D01*
X95403Y18699D01*
X95340Y18686D01*
X95277Y18677D01*
X95212Y18671D01*
X95148Y18669D01*
X93751Y18669D01*
X93751Y21463D01*
X93753Y21521D01*
X93758Y21580D01*
X93767Y21637D01*
X93780Y21695D01*
X93797Y21751D01*
X93816Y21806D01*
X93840Y21859D01*
X93866Y21912D01*
X93896Y21962D01*
X93929Y22010D01*
X93965Y22056D01*
X94003Y22100D01*
X94045Y22142D01*
X94089Y22180D01*
X94135Y22216D01*
X94183Y22249D01*
X94233Y22279D01*
X94286Y22305D01*
X94339Y22329D01*
X94394Y22348D01*
X94450Y22365D01*
X94508Y22378D01*
X94565Y22387D01*
X94624Y22392D01*
X94682Y22394D01*
X95924Y22394D01*
X91198Y24257D02*
X91198Y19600D01*
X91196Y19542D01*
X91191Y19483D01*
X91182Y19426D01*
X91169Y19368D01*
X91152Y19312D01*
X91133Y19257D01*
X91109Y19204D01*
X91083Y19151D01*
X91053Y19101D01*
X91020Y19053D01*
X90984Y19007D01*
X90946Y18963D01*
X90904Y18921D01*
X90860Y18883D01*
X90814Y18847D01*
X90766Y18814D01*
X90716Y18784D01*
X90663Y18758D01*
X90610Y18734D01*
X90555Y18715D01*
X90499Y18698D01*
X90441Y18685D01*
X90384Y18676D01*
X90325Y18671D01*
X90267Y18669D01*
X88272Y19600D02*
X88272Y24257D01*
X88272Y19600D02*
X88270Y19542D01*
X88265Y19483D01*
X88256Y19426D01*
X88243Y19368D01*
X88226Y19312D01*
X88207Y19257D01*
X88183Y19204D01*
X88157Y19151D01*
X88127Y19101D01*
X88094Y19053D01*
X88058Y19007D01*
X88020Y18963D01*
X87978Y18921D01*
X87934Y18883D01*
X87888Y18847D01*
X87840Y18814D01*
X87790Y18784D01*
X87737Y18758D01*
X87684Y18734D01*
X87629Y18715D01*
X87573Y18698D01*
X87515Y18685D01*
X87458Y18676D01*
X87399Y18671D01*
X87341Y18669D01*
X80727Y24257D02*
X80654Y24255D01*
X80581Y24249D01*
X80508Y24240D01*
X80437Y24226D01*
X80365Y24209D01*
X80295Y24189D01*
X80226Y24164D01*
X80159Y24136D01*
X80093Y24105D01*
X80029Y24070D01*
X79966Y24032D01*
X79906Y23990D01*
X79848Y23946D01*
X79792Y23898D01*
X79739Y23848D01*
X79689Y23795D01*
X79641Y23739D01*
X79597Y23681D01*
X79555Y23621D01*
X79517Y23559D01*
X79482Y23494D01*
X79451Y23428D01*
X79423Y23361D01*
X79398Y23292D01*
X79378Y23222D01*
X79361Y23150D01*
X79347Y23079D01*
X79338Y23006D01*
X79332Y22933D01*
X79330Y22860D01*
X80727Y24257D02*
X80811Y24255D01*
X80894Y24249D01*
X80977Y24240D01*
X81059Y24226D01*
X81141Y24209D01*
X81222Y24187D01*
X81302Y24162D01*
X81380Y24134D01*
X81458Y24102D01*
X81533Y24066D01*
X81607Y24027D01*
X81679Y23984D01*
X81749Y23938D01*
X81816Y23889D01*
X81882Y23836D01*
X81944Y23781D01*
X82004Y23723D01*
X82062Y23662D01*
X82116Y23599D01*
X82168Y23533D01*
X82216Y23465D01*
X82261Y23394D01*
X82303Y23322D01*
X82341Y23247D01*
X82376Y23171D01*
X82407Y23094D01*
X82435Y23015D01*
X79796Y21774D02*
X79742Y21827D01*
X79691Y21884D01*
X79643Y21943D01*
X79598Y22004D01*
X79557Y22067D01*
X79518Y22133D01*
X79483Y22200D01*
X79451Y22269D01*
X79423Y22340D01*
X79399Y22411D01*
X79378Y22484D01*
X79361Y22558D01*
X79347Y22633D01*
X79338Y22708D01*
X79332Y22784D01*
X79330Y22860D01*
X79796Y21773D02*
X82434Y18669D01*
X79330Y18669D01*
X76948Y21463D02*
X76946Y21594D01*
X76941Y21724D01*
X76931Y21854D01*
X76918Y21984D01*
X76902Y22114D01*
X76882Y22243D01*
X76858Y22371D01*
X76830Y22498D01*
X76799Y22625D01*
X76764Y22751D01*
X76726Y22876D01*
X76684Y23000D01*
X76639Y23122D01*
X76590Y23243D01*
X76538Y23363D01*
X76482Y23481D01*
X76483Y23481D02*
X76460Y23541D01*
X76434Y23601D01*
X76405Y23658D01*
X76372Y23714D01*
X76336Y23768D01*
X76298Y23820D01*
X76256Y23870D01*
X76212Y23917D01*
X76165Y23962D01*
X76115Y24004D01*
X76064Y24043D01*
X76010Y24079D01*
X75954Y24112D01*
X75897Y24142D01*
X75838Y24169D01*
X75777Y24192D01*
X75716Y24212D01*
X75653Y24228D01*
X75589Y24241D01*
X75525Y24250D01*
X75461Y24255D01*
X75396Y24257D01*
X75331Y24255D01*
X75267Y24250D01*
X75203Y24241D01*
X75139Y24228D01*
X75076Y24212D01*
X75015Y24192D01*
X74954Y24169D01*
X74895Y24142D01*
X74838Y24112D01*
X74782Y24079D01*
X74728Y24043D01*
X74677Y24004D01*
X74627Y23962D01*
X74580Y23917D01*
X74536Y23870D01*
X74494Y23820D01*
X74456Y23768D01*
X74420Y23714D01*
X74387Y23658D01*
X74358Y23601D01*
X74332Y23541D01*
X74309Y23481D01*
X74253Y23363D01*
X74201Y23243D01*
X74152Y23122D01*
X74107Y23000D01*
X74065Y22876D01*
X74027Y22751D01*
X73992Y22625D01*
X73961Y22499D01*
X73933Y22371D01*
X73909Y22243D01*
X73889Y22114D01*
X73873Y21984D01*
X73860Y21854D01*
X73850Y21724D01*
X73845Y21594D01*
X73843Y21463D01*
X76948Y21463D02*
X76946Y21332D01*
X76941Y21202D01*
X76931Y21072D01*
X76918Y20942D01*
X76902Y20812D01*
X76882Y20684D01*
X76858Y20555D01*
X76830Y20428D01*
X76799Y20301D01*
X76764Y20175D01*
X76726Y20050D01*
X76684Y19927D01*
X76639Y19804D01*
X76590Y19683D01*
X76538Y19563D01*
X76482Y19445D01*
X76483Y19445D02*
X76460Y19385D01*
X76434Y19325D01*
X76405Y19268D01*
X76372Y19212D01*
X76336Y19158D01*
X76298Y19106D01*
X76256Y19056D01*
X76212Y19009D01*
X76165Y18964D01*
X76115Y18922D01*
X76064Y18883D01*
X76010Y18847D01*
X75954Y18814D01*
X75897Y18784D01*
X75838Y18757D01*
X75777Y18734D01*
X75716Y18714D01*
X75653Y18698D01*
X75589Y18685D01*
X75525Y18676D01*
X75461Y18671D01*
X75396Y18669D01*
X74309Y19445D02*
X74253Y19563D01*
X74201Y19683D01*
X74152Y19804D01*
X74107Y19926D01*
X74065Y20050D01*
X74027Y20175D01*
X73992Y20301D01*
X73961Y20427D01*
X73933Y20555D01*
X73909Y20683D01*
X73889Y20812D01*
X73873Y20942D01*
X73860Y21072D01*
X73850Y21202D01*
X73845Y21332D01*
X73843Y21463D01*
X74309Y19445D02*
X74332Y19385D01*
X74358Y19325D01*
X74387Y19268D01*
X74420Y19212D01*
X74456Y19158D01*
X74494Y19106D01*
X74536Y19056D01*
X74580Y19009D01*
X74627Y18964D01*
X74677Y18922D01*
X74728Y18883D01*
X74782Y18847D01*
X74838Y18814D01*
X74895Y18784D01*
X74954Y18757D01*
X75015Y18734D01*
X75076Y18714D01*
X75139Y18698D01*
X75203Y18685D01*
X75267Y18676D01*
X75331Y18671D01*
X75396Y18669D01*
X76637Y19911D02*
X74154Y23015D01*
X69754Y24257D02*
X69681Y24255D01*
X69608Y24249D01*
X69535Y24240D01*
X69464Y24226D01*
X69392Y24209D01*
X69322Y24189D01*
X69253Y24164D01*
X69186Y24136D01*
X69120Y24105D01*
X69056Y24070D01*
X68993Y24032D01*
X68933Y23990D01*
X68875Y23946D01*
X68819Y23898D01*
X68766Y23848D01*
X68716Y23795D01*
X68668Y23739D01*
X68624Y23681D01*
X68582Y23621D01*
X68544Y23559D01*
X68509Y23494D01*
X68478Y23428D01*
X68450Y23361D01*
X68425Y23292D01*
X68405Y23222D01*
X68388Y23150D01*
X68374Y23079D01*
X68365Y23006D01*
X68359Y22933D01*
X68357Y22860D01*
X69754Y24257D02*
X69838Y24255D01*
X69921Y24249D01*
X70004Y24240D01*
X70086Y24226D01*
X70168Y24209D01*
X70249Y24187D01*
X70329Y24162D01*
X70407Y24134D01*
X70485Y24102D01*
X70560Y24066D01*
X70634Y24027D01*
X70706Y23984D01*
X70776Y23938D01*
X70843Y23889D01*
X70909Y23836D01*
X70971Y23781D01*
X71031Y23723D01*
X71089Y23662D01*
X71143Y23599D01*
X71195Y23533D01*
X71243Y23465D01*
X71288Y23394D01*
X71330Y23322D01*
X71368Y23247D01*
X71403Y23171D01*
X71434Y23094D01*
X71462Y23015D01*
X68824Y21774D02*
X68770Y21827D01*
X68719Y21884D01*
X68671Y21943D01*
X68626Y22004D01*
X68585Y22067D01*
X68546Y22133D01*
X68511Y22200D01*
X68479Y22269D01*
X68451Y22340D01*
X68427Y22411D01*
X68406Y22484D01*
X68389Y22558D01*
X68375Y22633D01*
X68366Y22708D01*
X68360Y22784D01*
X68358Y22860D01*
X68823Y21773D02*
X71462Y18669D01*
X68357Y18669D01*
X65975Y21463D02*
X65973Y21594D01*
X65968Y21724D01*
X65958Y21854D01*
X65945Y21984D01*
X65929Y22114D01*
X65909Y22243D01*
X65885Y22371D01*
X65857Y22498D01*
X65826Y22625D01*
X65791Y22751D01*
X65753Y22876D01*
X65711Y23000D01*
X65666Y23122D01*
X65617Y23243D01*
X65565Y23363D01*
X65509Y23481D01*
X65510Y23481D02*
X65487Y23541D01*
X65461Y23601D01*
X65432Y23658D01*
X65399Y23714D01*
X65363Y23768D01*
X65325Y23820D01*
X65283Y23870D01*
X65239Y23917D01*
X65192Y23962D01*
X65142Y24004D01*
X65091Y24043D01*
X65037Y24079D01*
X64981Y24112D01*
X64924Y24142D01*
X64865Y24169D01*
X64804Y24192D01*
X64743Y24212D01*
X64680Y24228D01*
X64616Y24241D01*
X64552Y24250D01*
X64488Y24255D01*
X64423Y24257D01*
X64358Y24255D01*
X64294Y24250D01*
X64230Y24241D01*
X64166Y24228D01*
X64103Y24212D01*
X64042Y24192D01*
X63981Y24169D01*
X63922Y24142D01*
X63865Y24112D01*
X63809Y24079D01*
X63755Y24043D01*
X63704Y24004D01*
X63654Y23962D01*
X63607Y23917D01*
X63563Y23870D01*
X63521Y23820D01*
X63483Y23768D01*
X63447Y23714D01*
X63414Y23658D01*
X63385Y23601D01*
X63359Y23541D01*
X63336Y23481D01*
X63280Y23363D01*
X63228Y23243D01*
X63179Y23122D01*
X63134Y23000D01*
X63092Y22876D01*
X63054Y22751D01*
X63019Y22625D01*
X62988Y22499D01*
X62960Y22371D01*
X62936Y22243D01*
X62916Y22114D01*
X62900Y21984D01*
X62887Y21854D01*
X62877Y21724D01*
X62872Y21594D01*
X62870Y21463D01*
X65975Y21463D02*
X65973Y21332D01*
X65968Y21202D01*
X65958Y21072D01*
X65945Y20942D01*
X65929Y20812D01*
X65909Y20684D01*
X65885Y20555D01*
X65857Y20428D01*
X65826Y20301D01*
X65791Y20175D01*
X65753Y20050D01*
X65711Y19927D01*
X65666Y19804D01*
X65617Y19683D01*
X65565Y19563D01*
X65509Y19445D01*
X65510Y19445D02*
X65487Y19385D01*
X65461Y19325D01*
X65432Y19268D01*
X65399Y19212D01*
X65363Y19158D01*
X65325Y19106D01*
X65283Y19056D01*
X65239Y19009D01*
X65192Y18964D01*
X65142Y18922D01*
X65091Y18883D01*
X65037Y18847D01*
X64981Y18814D01*
X64924Y18784D01*
X64865Y18757D01*
X64804Y18734D01*
X64743Y18714D01*
X64680Y18698D01*
X64616Y18685D01*
X64552Y18676D01*
X64488Y18671D01*
X64423Y18669D01*
X63337Y19445D02*
X63281Y19563D01*
X63229Y19683D01*
X63180Y19804D01*
X63135Y19926D01*
X63093Y20050D01*
X63055Y20175D01*
X63020Y20301D01*
X62989Y20427D01*
X62961Y20555D01*
X62937Y20683D01*
X62917Y20812D01*
X62901Y20942D01*
X62888Y21072D01*
X62878Y21202D01*
X62873Y21332D01*
X62871Y21463D01*
X63336Y19445D02*
X63359Y19385D01*
X63385Y19325D01*
X63414Y19268D01*
X63447Y19212D01*
X63483Y19158D01*
X63521Y19106D01*
X63563Y19056D01*
X63607Y19009D01*
X63654Y18964D01*
X63704Y18922D01*
X63755Y18883D01*
X63809Y18847D01*
X63865Y18814D01*
X63922Y18784D01*
X63981Y18757D01*
X64042Y18734D01*
X64103Y18714D01*
X64166Y18698D01*
X64230Y18685D01*
X64294Y18676D01*
X64358Y18671D01*
X64423Y18669D01*
X65665Y19911D02*
X63181Y23015D01*
M02*
