G04 EAGLE Gerber RS-274X export*
G75*
%MOMM*%
%FSLAX34Y34*%
%LPD*%
%INSolderpaste Top*%
%IPPOS*%
%AMOC8*
5,1,8,0,0,1.08239X$1,22.5*%
G01*
%ADD10R,0.304800X0.965200*%
%ADD11R,0.965200X0.304800*%
%ADD12R,2.438400X2.438400*%
%ADD13R,1.600000X0.550000*%
%ADD14R,0.550000X1.600000*%
%ADD15R,1.300000X1.600000*%
%ADD16R,1.600000X1.300000*%
%ADD17R,1.300000X1.500000*%
%ADD18R,2.150000X0.950000*%
%ADD19R,2.150000X3.250000*%


D10*
X141830Y113919D03*
X135330Y113919D03*
X128830Y113919D03*
X122330Y113919D03*
D11*
X112141Y103730D03*
X112141Y97230D03*
X112141Y90730D03*
X112141Y84230D03*
D10*
X122330Y74041D03*
X128830Y74041D03*
X135330Y74041D03*
X141830Y74041D03*
D11*
X152019Y84230D03*
X152019Y90730D03*
X152019Y97230D03*
X152019Y103730D03*
D12*
X132080Y93980D03*
D13*
X87040Y226120D03*
X87040Y218120D03*
X87040Y210120D03*
X87040Y202120D03*
X87040Y194120D03*
X87040Y186120D03*
X87040Y178120D03*
X87040Y170120D03*
X172040Y170120D03*
X172040Y178120D03*
X172040Y186120D03*
X172040Y194120D03*
X172040Y202120D03*
X172040Y210120D03*
X172040Y218120D03*
X172040Y226120D03*
D14*
X101540Y155620D03*
X109540Y155620D03*
X117540Y155620D03*
X125540Y155620D03*
X133540Y155620D03*
X141540Y155620D03*
X149540Y155620D03*
X157540Y155620D03*
X157540Y240620D03*
X149540Y240620D03*
X141540Y240620D03*
X133540Y240620D03*
X125540Y240620D03*
X117540Y240620D03*
X109540Y240620D03*
X101540Y240620D03*
D15*
X185580Y106680D03*
X205580Y106680D03*
X192880Y66040D03*
X172880Y66040D03*
X147160Y55880D03*
X127160Y55880D03*
D16*
X63500Y183040D03*
X63500Y203040D03*
D15*
X269080Y226060D03*
X249080Y226060D03*
X205900Y160020D03*
X225900Y160020D03*
X264320Y172720D03*
X284320Y172720D03*
D17*
X254660Y195580D03*
X273660Y195580D03*
D18*
X290620Y101460D03*
X290620Y124460D03*
X290620Y147460D03*
D19*
X232620Y124460D03*
D17*
X214020Y69215D03*
X233020Y69215D03*
X117500Y32385D03*
X136500Y32385D03*
D15*
X126525Y130810D03*
X146525Y130810D03*
X188120Y132080D03*
X208120Y132080D03*
M02*
